<?xml version="1.0" encoding="utf-8"?>
<!-- Generator: Adobe Illustrator 23.0.4, SVG Export Plug-In . SVG Version: 6.00 Build 0)  -->
<svg version="1.1" id="Layer_1" xmlns="http://www.w3.org/2000/svg" xmlns:xlink="http://www.w3.org/1999/xlink" x="0px" y="0px"
	 viewBox="0 0 767.9 315" style="enable-background:new 0 0 767.9 315;" xml:space="preserve">
<style type="text/css">
	.st0{opacity:0;}
	.st1{fill:#0042CE;}
	.st2{fill:#001140;}
	.st3{fill:none;stroke:#76B4FF;stroke-width:7;stroke-miterlimit:10;}
	.st4{enable-background:new    ;}
	.st5{fill:#D1E2FF;}
	.st6{fill:#C9DEFE;}
	.st7{fill:none;stroke:#76B4FF;stroke-miterlimit:10;}
	.st8{fill:#76B4FF;}
</style>
<title>Asset 10</title>
<g>
	<g id="Layer_1-2">
		<g class="st0">
			<rect x="5" y="5" class="st1" width="757.9" height="305"/>
			<path class="st2" d="M757.9,10v295H10V10H757.9 M767.9,0H0v315h767.9V0z"/>
		</g>
		<path class="st3" d="M213.1,282.9c-0.2-23.5-16.4-43.8-39.3-49.1c14.5-6.6,21-23.7,14.4-38.2c-6.6-14.5-23.7-21-38.2-14.4
			c-14.5,6.6-21,23.7-14.4,38.2c2.9,6.5,8.2,11.7,14.8,14.6c-22.8,5.6-38.8,26.1-38.7,49.6"/>
		<path class="st3" d="M140,151l-0.6-102.1c0-3.6-2.9-6.4-6.5-6.4L46.7,43c-3.6,0-6.4,2.9-6.4,6.5c0,0,0,0,0,0l0.6,102.1L140,151z"
			/>
		<line class="st3" x1="139.4" y1="62.7" x2="40.4" y2="63.3"/>
		<polyline class="st3" points="58,93.2 68,103.1 58.1,113.2 		"/>
		<line class="st3" x1="78.9" y1="115.7" x2="94.7" y2="115.6"/>
		<line class="st3" x1="70.2" y1="185.2" x2="92.3" y2="185.1"/>
		<line class="st3" x1="70.2" y1="199.1" x2="92.4" y2="199"/>
		<line class="st3" x1="70.3" y1="213" x2="92.5" y2="212.9"/>
		<path class="st3" d="M161.5,178.6L161,90.4c-0.1-4.3,3.3-7.9,7.6-8c0.1,0,0.2,0,0.3,0l104.6-0.6c4.4,0,8,3.5,8,7.9c0,0,0,0,0,0
			l0.7,117.9l-91.4,0.6"/>
		<line class="st3" x1="161.3" y1="102.5" x2="281.4" y2="101.8"/>
		<rect x="179" y="118" transform="matrix(1 -6.108614e-03 6.108614e-03 1 -0.77 1.1483)" class="st3" width="17.3" height="17.3"/>
		
			<rect x="179.1" y="135.3" transform="matrix(1 -6.108614e-03 6.108614e-03 1 -0.8755 1.1493)" class="st3" width="17.3" height="17.3"/>
		
			<rect x="179.2" y="152.5" transform="matrix(1 -6.108614e-03 6.108614e-03 1 -0.9809 1.1503)" class="st3" width="17.3" height="17.3"/>
		<polyline class="st3" points="221.1,128.4 229.2,142.4 237.9,127.7 251,139.1 262.5,119.4 		"/>
		<circle class="st3" cx="239.5" cy="176.2" r="18"/>
		<polyline class="st3" points="223.9,167.7 239.5,176.2 230.9,191.4 		"/>
		<line class="st3" x1="239.5" y1="176.2" x2="253.5" y2="166.1"/>
		<line class="st3" x1="57.5" y1="233" x2="105.4" y2="232.7"/>
		<path class="st3" d="M61.6,168.4l39-0.2c2.5,0,4.5,2,4.5,4.4l0.5,74.3c0,2.5-2,4.5-4.4,4.5l-39,0.2c-2.5,0-4.5-2-4.5-4.4
			l-0.5-74.3C57.1,170.4,59.1,168.4,61.6,168.4z"/>
		<g class="st4">
			<path class="st5" d="M554,85c-2.9,0-5.6-0.5-7.9-1.4c-2.3-0.9-4.3-2.3-6-4.1s-2.9-4.1-3.8-6.9c-0.9-2.7-1.4-5.9-1.4-9.6
				c0-3.6,0.5-6.8,1.4-9.7c0.9-2.8,2.2-5.2,3.8-7.1s3.6-3.4,6-4.4c2.3-1,5-1.5,7.9-1.5c4,0,7.3,0.8,9.9,2.4c2.6,1.6,4.7,4.2,6.2,7.7
				l-8.1,4.2c-0.6-1.8-1.5-3.3-2.7-4.4c-1.2-1.1-3-1.6-5.3-1.6c-2.8,0-5,0.9-6.6,2.7c-1.7,1.8-2.5,4.4-2.5,7.8v6.9
				c0,3.4,0.8,6,2.5,7.8c1.7,1.8,3.9,2.7,6.6,2.7c2.3,0,4.1-0.6,5.5-1.9c1.4-1.3,2.4-2.8,3.1-4.5l7.7,4.4c-1.6,3.3-3.7,5.8-6.3,7.6
				S558,85,554,85z"/>
		</g>
		<g class="st4">
			<path class="st5" d="M593.3,85c-2.8,0-5.4-0.5-7.8-1.4c-2.3-0.9-4.3-2.4-6-4.2c-1.6-1.9-2.9-4.2-3.8-7c-0.9-2.8-1.4-6-1.4-9.7
				c0-3.7,0.5-6.9,1.4-9.7c0.9-2.8,2.2-5.1,3.8-7c1.6-1.9,3.6-3.3,6-4.2c2.3-0.9,4.9-1.4,7.8-1.4s5.4,0.5,7.8,1.4s4.3,2.4,6,4.2
				c1.6,1.9,2.9,4.2,3.8,7c0.9,2.8,1.4,6,1.4,9.7c0,3.7-0.5,6.9-1.4,9.7c-0.9,2.8-2.2,5.1-3.8,7c-1.6,1.9-3.6,3.3-6,4.2
				C598.7,84.6,596.1,85,593.3,85z M593.3,76.7c2.8,0,5.1-0.9,6.6-2.8c1.6-1.9,2.4-4.5,2.4-8v-6.4c0-3.5-0.8-6.1-2.4-8
				c-1.6-1.9-3.8-2.8-6.6-2.8s-5.1,0.9-6.6,2.8c-1.6,1.9-2.4,4.5-2.4,8V66c0,3.5,0.8,6.1,2.4,8C588.2,75.8,590.4,76.7,593.3,76.7z"
				/>
			<path class="st5" d="M620.1,41.2H641c3.6,0,6.4,1,8.4,3c2,2,3,4.7,3,8c0,1.6-0.2,3-0.6,4.2c-0.4,1.2-1,2.1-1.7,2.8
				c-0.7,0.7-1.6,1.3-2.5,1.6s-2,0.5-3.1,0.6v0.4c1,0,2.1,0.2,3.2,0.6c1.1,0.4,2.2,1,3.1,1.8c0.9,0.8,1.7,1.8,2.4,3.1
				c0.6,1.3,1,2.8,1,4.7c0,1.7-0.3,3.3-0.8,4.8c-0.6,1.5-1.3,2.8-2.3,3.9c-1,1.1-2.2,2-3.5,2.6c-1.4,0.6-2.8,1-4.4,1h-22.8V41.2z
				 M629.4,58.8h9.3c1.2,0,2.2-0.3,2.9-1c0.7-0.7,1-1.7,1-2.9V53c0-1.2-0.4-2.2-1-2.9c-0.7-0.7-1.7-1-2.9-1h-9.3V58.8z M629.4,76.4
				h10.8c1.2,0,2.2-0.3,2.9-1c0.7-0.7,1.1-1.6,1.1-2.9v-2.1c0-1.2-0.4-2.2-1.1-2.9c-0.7-0.7-1.7-1-2.9-1h-10.8V76.4z"/>
			<path class="st5" d="M678.5,85c-2.8,0-5.4-0.5-7.8-1.4c-2.3-0.9-4.3-2.4-6-4.2c-1.6-1.9-2.9-4.2-3.8-7c-0.9-2.8-1.4-6-1.4-9.7
				c0-3.7,0.5-6.9,1.4-9.7c0.9-2.8,2.2-5.1,3.8-7c1.6-1.9,3.6-3.3,6-4.2c2.3-0.9,4.9-1.4,7.8-1.4s5.4,0.5,7.8,1.4s4.3,2.4,6,4.2
				c1.6,1.9,2.9,4.2,3.8,7c0.9,2.8,1.4,6,1.4,9.7c0,3.7-0.5,6.9-1.4,9.7c-0.9,2.8-2.2,5.1-3.8,7c-1.6,1.9-3.6,3.3-6,4.2
				C684,84.6,681.4,85,678.5,85z M678.5,76.7c2.8,0,5.1-0.9,6.6-2.8c1.6-1.9,2.4-4.5,2.4-8v-6.4c0-3.5-0.8-6.1-2.4-8
				c-1.6-1.9-3.8-2.8-6.6-2.8s-5.1,0.9-6.6,2.8c-1.6,1.9-2.4,4.5-2.4,8V66c0,3.5,0.8,6.1,2.4,8C673.5,75.8,675.7,76.7,678.5,76.7z"
				/>
			<path class="st5" d="M705.3,84.3V41.2h9.4V76h16.4v8.3H705.3z"/>
		</g>
		<g class="st4">
			<path class="st5" d="M536.2,145.3v-39.9h18.8c1.9,0,3.5,0.3,5,0.9c1.5,0.6,2.8,1.5,3.8,2.6c1,1.1,1.9,2.4,2.4,4
				c0.6,1.6,0.9,3.3,0.9,5.2c0,1.9-0.3,3.6-0.9,5.2s-1.4,2.9-2.4,4c-1,1.1-2.3,2-3.8,2.6c-1.5,0.6-3.2,0.9-5,0.9h-10.2v14.4H536.2z
				 M544.9,123.4h9.1c1.3,0,2.3-0.3,3.1-1c0.7-0.7,1.1-1.6,1.1-2.9v-2.5c0-1.3-0.4-2.3-1.1-2.9s-1.8-1-3.1-1h-9.1V123.4z"/>
		</g>
		<g class="st4">
			<path class="st5" d="M573.7,145.3v-39.9h8.7v32.2h15.2v7.7H573.7z"/>
		</g>
		<g class="st4">
			<path class="st5" d="M600.3,154l17-50.9h7l-17,50.9H600.3z"/>
			<path class="st5" d="M629.3,145.3v-6.9h5.1v-26h-5.1v-6.9h19v6.9h-5.1v26h5.1v6.9H629.3z"/>
		</g>
		<g class="st4">
			<path class="st6" d="M392.7,215.1v45.2c0,2.9-0.5,5.6-1.4,8c-0.9,2.4-2.3,4.4-4.1,6.1c-1.8,1.7-4,3-6.6,3.9
				c-2.6,0.9-5.5,1.4-8.8,1.4c-3.2,0-5.9-0.4-8.3-1.3c-2.4-0.8-4.5-2.1-6.2-3.6c-1.7-1.6-3.1-3.5-4.2-5.6c-1.1-2.2-1.9-4.6-2.3-7.3
				l12.9-2.6c1,5.5,3.7,8.3,7.9,8.3c2,0,3.7-0.6,5.1-1.9c1.4-1.3,2.1-3.3,2.1-6v-33.4h-19.3v-11.1H392.7z"/>
			<path class="st6" d="M432.1,279.8c-4.3,0-8.2-0.7-11.7-2.1c-3.5-1.4-6.4-3.4-8.8-6.1c-2.4-2.7-4.3-6.1-5.7-10.1
				c-1.3-4-2-8.8-2-14.2c0-5.3,0.7-10.1,2-14.3c1.3-4.2,3.2-7.7,5.7-10.5c2.4-2.8,5.4-5,8.8-6.4c3.5-1.5,7.3-2.2,11.7-2.2
				c5.9,0,10.8,1.2,14.6,3.6c3.8,2.4,6.9,6.2,9.2,11.3l-11.9,6.2c-0.9-2.7-2.2-4.8-4-6.4c-1.8-1.6-4.4-2.4-7.9-2.4
				c-4.1,0-7.3,1.3-9.8,4c-2.5,2.6-3.7,6.5-3.7,11.5V252c0,5,1.2,8.9,3.7,11.5c2.5,2.6,5.7,4,9.8,4c3.4,0,6.1-0.9,8.2-2.8
				c2-1.9,3.5-4.1,4.5-6.7l11.3,6.6c-2.4,4.9-5.5,8.6-9.3,11.3C442.9,278.4,438,279.8,432.1,279.8z"/>
			<path class="st6" d="M465.7,278.7v-63.6h13.9v51.3h24.2v12.3H465.7z"/>
		</g>
		<line class="st7" x1="327.3" y1="180.8" x2="731.6" y2="180.8"/>
		<g class="st4">
			<path class="st8" d="M343.1,66l-1.7-5.7h-7.9l-1.7,5.7h-5.3l7.8-23.8h6.4l7.7,23.8H343.1z M337.5,46.9h-0.2l-2.6,9h5.5
				L337.5,46.9z"/>
		</g>
		<g class="st4">
			<path class="st8" d="M352.2,42.2h9c1.6,0,3,0.2,4.3,0.8s2.4,1.2,3.3,2.2c0.9,1,1.6,2.2,2.1,3.7c0.5,1.5,0.8,3.2,0.8,5.2
				c0,2-0.2,3.7-0.8,5.2c-0.5,1.5-1.2,2.7-2.1,3.7c-0.9,1-2,1.7-3.3,2.2s-2.7,0.8-4.3,0.8h-9V42.2z M361.2,61.4
				c1.5,0,2.8-0.4,3.6-1.3c0.9-0.9,1.3-2.2,1.3-4.2v-3.7c0-1.9-0.4-3.3-1.3-4.2s-2.1-1.3-3.6-1.3h-3.8v14.6H361.2z"/>
		</g>
		<g class="st4">
			<path class="st8" d="M381,66l-7.7-23.8h5.3l3.5,11.4l1.9,7.5h0.1l1.8-7.5l3.5-11.4h5.1L386.8,66H381z"/>
		</g>
		<g class="st4">
			<path class="st8" d="M410.9,66l-1.7-5.7h-7.9l-1.7,5.7h-5.3l7.8-23.8h6.4l7.7,23.8H410.9z M405.3,46.9h-0.2l-2.6,9h5.5
				L405.3,46.9z"/>
			<path class="st8" d="M427.2,54.7l-2.3-4.8h-0.1v16h-4.9V42.2h5.7l6.5,11.3l2.3,4.8h0.1v-16h4.9V66h-5.7L427.2,54.7z"/>
			<path class="st8" d="M454.6,66.4c-1.6,0-3.1-0.3-4.4-0.8c-1.3-0.5-2.4-1.3-3.3-2.3s-1.6-2.3-2.1-3.8s-0.8-3.3-0.8-5.3
				c0-2,0.2-3.8,0.8-5.3c0.5-1.6,1.2-2.9,2.1-3.9c0.9-1.1,2-1.9,3.3-2.4c1.3-0.5,2.8-0.8,4.4-0.8c2.2,0,4,0.4,5.5,1.3
				c1.4,0.9,2.6,2.3,3.4,4.2l-4.5,2.3c-0.3-1-0.8-1.8-1.5-2.4c-0.7-0.6-1.7-0.9-2.9-0.9c-1.5,0-2.7,0.5-3.7,1.5s-1.4,2.4-1.4,4.3V56
				c0,1.9,0.5,3.3,1.4,4.3s2.1,1.5,3.7,1.5c1.3,0,2.3-0.3,3.1-1s1.3-1.5,1.7-2.5l4.2,2.5c-0.9,1.8-2.1,3.2-3.5,4.2
				S456.8,66.4,454.6,66.4z"/>
			<path class="st8" d="M467.5,66V42.2h16.2v4.6h-11v4.8h9.4v4.6h-9.4v5.1h11V66H467.5z"/>
			<path class="st8" d="M488.5,42.2h9c1.6,0,3,0.2,4.3,0.8s2.4,1.2,3.3,2.2c0.9,1,1.6,2.2,2.1,3.7c0.5,1.5,0.8,3.2,0.8,5.2
				c0,2-0.2,3.7-0.8,5.2c-0.5,1.5-1.2,2.7-2.1,3.7c-0.9,1-2,1.7-3.3,2.2s-2.7,0.8-4.3,0.8h-9V42.2z M497.5,61.4
				c1.5,0,2.8-0.4,3.6-1.3c0.9-0.9,1.3-2.2,1.3-4.2v-3.7c0-1.9-0.4-3.3-1.3-4.2s-2.1-1.3-3.6-1.3h-3.8v14.6H497.5z"/>
		</g>
		<g class="st4">
			<path class="st8" d="M328.4,102.9V79.2h5.2v19.1h9v4.6H328.4z"/>
		</g>
		<g class="st4">
			<path class="st8" d="M362.1,102.9l-1.7-5.6h-7.9l-1.7,5.6h-5.2l7.8-23.7h6.4l7.7,23.7H362.1z M356.5,83.9h-0.2l-2.6,9h5.4
				L356.5,83.9z"/>
			<path class="st8" d="M378.4,91.7l-2.3-4.8H376v16h-4.9V79.2h5.6l6.5,11.2l2.3,4.8h0.1v-16h4.9v23.7h-5.6L378.4,91.7z"/>
			<path class="st8" d="M411.2,99.1H411c-0.2,1.2-0.8,2.2-1.8,3s-2.5,1.2-4.3,1.2c-1.4,0-2.6-0.3-3.8-0.8s-2.2-1.3-3.1-2.3
				c-0.9-1-1.6-2.3-2.1-3.8c-0.5-1.5-0.7-3.3-0.7-5.3s0.3-3.8,0.8-5.3c0.5-1.5,1.3-2.8,2.2-3.9c0.9-1,2.1-1.8,3.4-2.4
				c1.3-0.5,2.8-0.8,4.4-0.8c2.1,0,4,0.5,5.5,1.4c1.5,0.9,2.8,2.3,3.6,4.1l-4.2,2.4c-0.4-0.9-0.9-1.7-1.7-2.4c-0.8-0.6-1.8-1-3.2-1
				c-1.6,0-2.9,0.5-3.8,1.4s-1.4,2.4-1.4,4.4V93c0,2,0.5,3.4,1.4,4.4c1,0.9,2.2,1.4,3.8,1.4c0.6,0,1.2-0.1,1.8-0.2
				c0.6-0.1,1.1-0.4,1.5-0.7c0.4-0.3,0.8-0.7,1-1.1s0.4-0.9,0.4-1.5V94h-4.4v-4.3h9.4v13.2h-4.4V99.1z"/>
		</g>
		<g class="st4">
			<path class="st8" d="M426.2,79.2v14.6c0,1.7,0.3,2.9,1,3.8c0.7,0.8,1.8,1.2,3.3,1.2s2.6-0.4,3.3-1.2c0.7-0.8,1-2.1,1-3.8V79.2h5
				v14c0,1.7-0.2,3.3-0.5,4.5c-0.3,1.3-0.9,2.3-1.6,3.2c-0.7,0.8-1.7,1.4-2.9,1.8c-1.2,0.4-2.6,0.6-4.3,0.6s-3.1-0.2-4.3-0.6
				c-1.2-0.4-2.1-1-2.9-1.8c-0.7-0.8-1.3-1.9-1.6-3.2c-0.3-1.3-0.5-2.8-0.5-4.5v-14H426.2z"/>
		</g>
		<g class="st4">
			<path class="st8" d="M459.2,102.9l-1.7-5.6h-7.9l-1.7,5.6h-5.2l7.8-23.7h6.4l7.7,23.7H459.2z M453.5,83.9h-0.2l-2.6,9h5.4
				L453.5,83.9z"/>
		</g>
		<g class="st4">
			<path class="st8" d="M482.3,99.1h-0.2c-0.2,1.2-0.8,2.2-1.8,3c-1,0.8-2.5,1.2-4.3,1.2c-1.4,0-2.6-0.3-3.8-0.8
				c-1.2-0.5-2.2-1.3-3.1-2.3c-0.9-1-1.6-2.3-2.1-3.8c-0.5-1.5-0.7-3.3-0.7-5.3s0.3-3.8,0.8-5.3c0.5-1.5,1.3-2.8,2.2-3.9
				c0.9-1,2.1-1.8,3.4-2.4c1.3-0.5,2.8-0.8,4.4-0.8c2.1,0,4,0.5,5.5,1.4s2.8,2.3,3.6,4.1l-4.2,2.4c-0.4-0.9-0.9-1.7-1.7-2.4
				c-0.8-0.6-1.8-1-3.2-1c-1.6,0-2.9,0.5-3.8,1.4s-1.4,2.4-1.4,4.4V93c0,2,0.5,3.4,1.4,4.4c1,0.9,2.2,1.4,3.8,1.4
				c0.6,0,1.2-0.1,1.8-0.2c0.6-0.1,1.1-0.4,1.5-0.7c0.4-0.3,0.8-0.7,1-1.1c0.2-0.4,0.4-0.9,0.4-1.5V94h-4.4v-4.3h9.4v13.2h-4.4V99.1
				z"/>
			<path class="st8" d="M492.1,102.9V79.2h16.2v4.6h-11v4.8h9.4v4.6h-9.4v5.1h11v4.6H492.1z"/>
		</g>
		<g class="st4">
			<path class="st8" d="M338.2,145c-2.5,0-4.7-0.4-6.4-1.3c-1.8-0.9-3.2-2-4.5-3.4l4.1-4.2c1.9,2.2,4.3,3.3,7.2,3.3
				c1.5,0,2.7-0.3,3.4-0.9c0.7-0.6,1.1-1.5,1.1-2.5c0-0.8-0.2-1.4-0.7-2c-0.4-0.5-1.3-0.9-2.7-1.1l-2.8-0.4c-3-0.4-5.3-1.3-6.7-2.8
				c-1.4-1.5-2.1-3.4-2.1-5.8c0-1.3,0.2-2.5,0.7-3.5c0.5-1.1,1.2-2,2.1-2.8c0.9-0.8,2-1.4,3.4-1.8c1.3-0.4,2.8-0.6,4.5-0.6
				c2.2,0,4.1,0.3,5.7,1c1.6,0.7,3.1,1.7,4.2,3l-4.1,4.2c-0.7-0.8-1.5-1.4-2.5-1.9c-1-0.5-2.2-0.8-3.7-0.8c-1.4,0-2.4,0.2-3.1,0.7
				c-0.7,0.5-1,1.2-1,2c0,1,0.3,1.7,0.8,2.1s1.4,0.7,2.6,0.9l2.8,0.5c3,0.5,5.1,1.4,6.6,2.7c1.4,1.4,2.1,3.3,2.1,5.8
				c0,1.4-0.2,2.6-0.7,3.8c-0.5,1.2-1.2,2.1-2.2,3s-2.1,1.5-3.5,1.9C341.6,144.7,340,145,338.2,145z"/>
			<path class="st8" d="M355,144.5v-28.7h19.5v5.5h-13.3v5.8h11.4v5.5h-11.4v6.2h13.3v5.5H355z"/>
		</g>
		<g class="st4">
			<path class="st8" d="M386.9,144.5h-6.2v-28.7h13.6c1.3,0,2.5,0.2,3.6,0.7c1.1,0.4,2,1.1,2.7,1.9c0.8,0.8,1.3,1.8,1.7,2.9
				c0.4,1.1,0.6,2.4,0.6,3.7c0,1.9-0.4,3.6-1.3,5.1c-0.9,1.5-2.2,2.5-3.9,3.2l5.6,11.2h-6.9l-5-10.5h-4.5V144.5z M393.5,128.7
				c0.9,0,1.7-0.2,2.2-0.7c0.5-0.5,0.8-1.2,0.8-2.1v-1.8c0-0.9-0.3-1.6-0.8-2.1c-0.5-0.5-1.3-0.7-2.2-0.7h-6.6v7.5H393.5z"/>
		</g>
		<g class="st4">
			<path class="st8" d="M414.3,144.5l-9.2-28.7h6.3l4.3,13.8l2.3,9h0.1l2.2-9l4.3-13.8h6.1l-9.3,28.7H414.3z"/>
			<path class="st8" d="M434.8,144.5v-28.7h19.5v5.5H441v5.8h11.4v5.5H441v6.2h13.3v5.5H434.8z"/>
			<path class="st8" d="M466.3,144.5h-6.2v-28.7h13.6c1.3,0,2.5,0.2,3.6,0.7c1.1,0.4,2,1.1,2.7,1.9c0.8,0.8,1.3,1.8,1.7,2.9
				c0.4,1.1,0.6,2.4,0.6,3.7c0,1.9-0.4,3.6-1.3,5.1c-0.9,1.5-2.2,2.5-3.9,3.2l5.6,11.2h-6.9l-5-10.5h-4.5V144.5z M472.9,128.7
				c0.9,0,1.7-0.2,2.2-0.7c0.5-0.5,0.8-1.2,0.8-2.1v-1.8c0-0.9-0.3-1.6-0.8-2.1c-0.5-0.5-1.3-0.7-2.2-0.7h-6.6v7.5H472.9z"/>
			<path class="st8" d="M497.5,145c-2.5,0-4.7-0.4-6.4-1.3c-1.8-0.9-3.2-2-4.5-3.4l4.1-4.2c1.9,2.2,4.3,3.3,7.2,3.3
				c1.5,0,2.7-0.3,3.4-0.9c0.7-0.6,1.1-1.5,1.1-2.5c0-0.8-0.2-1.4-0.7-2s-1.3-0.9-2.7-1.1l-2.8-0.4c-3-0.4-5.3-1.3-6.7-2.8
				c-1.4-1.5-2.1-3.4-2.1-5.8c0-1.3,0.2-2.5,0.7-3.5c0.5-1.1,1.2-2,2.1-2.8c0.9-0.8,2-1.4,3.4-1.8s2.8-0.6,4.5-0.6
				c2.2,0,4.1,0.3,5.7,1c1.6,0.7,3.1,1.7,4.2,3l-4.1,4.2c-0.7-0.8-1.5-1.4-2.5-1.9c-1-0.5-2.2-0.8-3.7-0.8c-1.4,0-2.4,0.2-3.1,0.7
				s-1,1.2-1,2c0,1,0.3,1.7,0.8,2.1c0.5,0.4,1.4,0.7,2.6,0.9l2.8,0.5c3,0.5,5.1,1.4,6.6,2.7c1.4,1.4,2.1,3.3,2.1,5.8
				c0,1.4-0.2,2.6-0.7,3.8c-0.5,1.2-1.2,2.1-2.2,3s-2.1,1.5-3.5,1.9C500.8,144.7,499.2,145,497.5,145z"/>
		</g>
		<g class="st4">
			<path class="st8" d="M547.5,249.4c-3.1,0-5.7-0.5-7.9-1.6c-2.2-1.1-4-2.4-5.5-4.1l5.1-5.1c2.4,2.7,5.4,4,8.9,4
				c1.9,0,3.3-0.4,4.2-1.2s1.4-1.8,1.4-3.1c0-1-0.3-1.8-0.8-2.4c-0.5-0.7-1.6-1.1-3.3-1.3l-3.5-0.5c-3.8-0.5-6.5-1.6-8.2-3.4
				c-1.7-1.8-2.6-4.2-2.6-7.2c0-1.6,0.3-3,0.9-4.4c0.6-1.3,1.5-2.5,2.6-3.4c1.1-0.9,2.5-1.7,4.2-2.2c1.6-0.5,3.5-0.8,5.6-0.8
				c2.7,0,5,0.4,7,1.3c2,0.8,3.8,2.1,5.2,3.7l-5.1,5.2c-0.8-1-1.9-1.8-3.1-2.4c-1.2-0.6-2.7-0.9-4.5-0.9c-1.7,0-3,0.3-3.9,0.9
				c-0.8,0.6-1.3,1.4-1.3,2.5c0,1.2,0.3,2.1,1,2.6c0.7,0.5,1.7,0.9,3.2,1.2l3.5,0.6c3.7,0.6,6.4,1.7,8.1,3.4
				c1.8,1.7,2.6,4.1,2.6,7.1c0,1.7-0.3,3.2-0.9,4.7c-0.6,1.4-1.5,2.6-2.7,3.7c-1.2,1-2.6,1.8-4.3,2.4
				C551.7,249.1,549.7,249.4,547.5,249.4z"/>
		</g>
		<g class="st4">
			<path class="st8" d="M575.1,248.8V235L563,213.4h8.6l7.6,14.1h0.1l7.3-14.1h8.4l-12.1,21.5v13.9H575.1z"/>
			<path class="st8" d="M610.6,232.1l-3.4-7.1h-0.2v23.8h-7.3v-35.4h8.4l9.7,16.7l3.4,7.1h0.2v-23.8h7.3v35.4h-8.4L610.6,232.1z"/>
		</g>
		<g class="st4">
			<path class="st8" d="M652.2,220.2v28.5h-7.7v-28.5h-9.6v-6.8h26.9v6.8H652.2z"/>
		</g>
		<g class="st4">
			<path class="st8" d="M686.3,248.8l-2.5-8.4h-11.8l-2.5,8.4h-7.8l11.7-35.4h9.5l11.5,35.4H686.3z M677.9,220.4h-0.3l-3.9,13.4h8.1
				L677.9,220.4z"/>
		</g>
		<g class="st4">
			<path class="st8" d="M729.6,248.8h-8.9l-7.7-13h-0.2l-7.5,13h-8.3l11.4-18.3l-10.8-17.1h9l6.9,12h0.2l7-12h8.3l-10.9,17.2
				L729.6,248.8z"/>
		</g>
		<g class="st4">
			<path class="st8" d="M544.9,270.6h-7v7.6h-4v-18.4h4v7.3h7v-7.3h4v18.4h-4V270.6z"/>
			<path class="st8" d="M552.6,278.2V275h2.4v-12h-2.4v-3.2h8.8v3.2H559v12h2.4v3.2H552.6z"/>
			<path class="st8" d="M576.7,275.2h-0.1c-0.1,0.9-0.6,1.7-1.4,2.3c-0.8,0.6-1.9,0.9-3.3,0.9c-1.1,0-2-0.2-3-0.6
				c-0.9-0.4-1.7-1-2.4-1.8c-0.7-0.8-1.2-1.8-1.6-3c-0.4-1.2-0.6-2.5-0.6-4.1c0-1.5,0.2-2.9,0.6-4.1c0.4-1.2,1-2.2,1.7-3
				c0.7-0.8,1.6-1.4,2.6-1.8c1-0.4,2.2-0.6,3.4-0.6c1.7,0,3.1,0.4,4.3,1.1c1.2,0.7,2.1,1.8,2.8,3.2l-3.3,1.9
				c-0.3-0.7-0.7-1.3-1.3-1.8c-0.6-0.5-1.4-0.8-2.5-0.8c-1.3,0-2.2,0.4-3,1.1c-0.7,0.7-1.1,1.9-1.1,3.4v3c0,1.5,0.4,2.7,1.1,3.4
				c0.7,0.7,1.7,1.1,3,1.1c0.5,0,1-0.1,1.4-0.2c0.4-0.1,0.8-0.3,1.2-0.5c0.3-0.2,0.6-0.5,0.8-0.9c0.2-0.3,0.3-0.7,0.3-1.2v-0.9h-3.4
				v-3.4h7.3v10.3h-3.4V275.2z"/>
			<path class="st8" d="M595.3,270.6h-7v7.6h-4v-18.4h4v7.3h7v-7.3h4v18.4h-4V270.6z"/>
			<path class="st8" d="M603.6,278.2v-18.4h4v14.9h7v3.6H603.6z"/>
			<path class="st8" d="M617.2,278.2V275h2.4v-12h-2.4v-3.2h8.8v3.2h-2.4v12h2.4v3.2H617.2z"/>
			<path class="st8" d="M641.3,275.2h-0.1c-0.1,0.9-0.6,1.7-1.4,2.3s-1.9,0.9-3.3,0.9c-1.1,0-2-0.2-3-0.6c-0.9-0.4-1.7-1-2.4-1.8
				c-0.7-0.8-1.2-1.8-1.6-3s-0.6-2.5-0.6-4.1c0-1.5,0.2-2.9,0.6-4.1c0.4-1.2,1-2.2,1.7-3c0.7-0.8,1.6-1.4,2.6-1.8s2.2-0.6,3.4-0.6
				c1.7,0,3.1,0.4,4.3,1.1c1.2,0.7,2.1,1.8,2.8,3.2l-3.3,1.9c-0.3-0.7-0.7-1.3-1.3-1.8s-1.4-0.8-2.5-0.8c-1.3,0-2.2,0.4-3,1.1
				c-0.7,0.7-1.1,1.9-1.1,3.4v3c0,1.5,0.4,2.7,1.1,3.4c0.7,0.7,1.7,1.1,3,1.1c0.5,0,1-0.1,1.4-0.2c0.4-0.1,0.8-0.3,1.2-0.5
				c0.3-0.2,0.6-0.5,0.8-0.9c0.2-0.3,0.3-0.7,0.3-1.2v-0.9h-3.4v-3.4h7.3v10.3h-3.4V275.2z"/>
			<path class="st8" d="M659.9,270.6h-7v7.6h-4v-18.4h4v7.3h7v-7.3h4v18.4h-4V270.6z"/>
		</g>
		<g class="st4">
			<path class="st8" d="M676.7,263.3v14.9h-4v-14.9h-5v-3.6h14v3.6H676.7z"/>
		</g>
		<g class="st4">
			<path class="st8" d="M684,278.2V275h2.4v-12H684v-3.2h8.8v3.2h-2.4v12h2.4v3.2H684z"/>
			<path class="st8" d="M702,269.5l-1.8-3.7h-0.1v12.4h-3.8v-18.4h4.4l5,8.7l1.8,3.7h0.1v-12.4h3.8v18.4h-4.4L702,269.5z"/>
			<path class="st8" d="M727.5,275.2h-0.1c-0.1,0.9-0.6,1.7-1.4,2.3s-1.9,0.9-3.3,0.9c-1.1,0-2-0.2-3-0.6c-0.9-0.4-1.7-1-2.4-1.8
				c-0.7-0.8-1.2-1.8-1.6-3s-0.6-2.5-0.6-4.1c0-1.5,0.2-2.9,0.6-4.1c0.4-1.2,1-2.2,1.7-3c0.7-0.8,1.6-1.4,2.6-1.8s2.2-0.6,3.4-0.6
				c1.7,0,3.1,0.4,4.3,1.1c1.2,0.7,2.1,1.8,2.8,3.2l-3.3,1.9c-0.3-0.7-0.7-1.3-1.3-1.8s-1.4-0.8-2.5-0.8c-1.3,0-2.2,0.4-3,1.1
				c-0.7,0.7-1.1,1.9-1.1,3.4v3c0,1.5,0.4,2.7,1.1,3.4c0.7,0.7,1.7,1.1,3,1.1c0.5,0,1-0.1,1.4-0.2c0.4-0.1,0.8-0.3,1.2-0.5
				c0.3-0.2,0.6-0.5,0.8-0.9c0.2-0.3,0.3-0.7,0.3-1.2v-0.9h-3.4v-3.4h7.3v10.3h-3.4V275.2z"/>
		</g>
	</g>
</g>
</svg>
