<svg xmlns="http://www.w3.org/2000/svg" viewBox="0 0 768.82 319.71"><defs><style>.cls-1{opacity:0;}.cls-2{fill:#0042ce;}.cls-3{fill:#001140;}.cls-4{font-size:30.78px;}.cls-4,.cls-8{fill:#76b4ff;}.cls-4,.cls-5{font-family:IBMPlexSans-Bold, IBM Plex Sans;font-weight:700;}.cls-5{font-size:64.04px;fill:#d1e2ff;letter-spacing:-0.01em;}.cls-6{letter-spacing:0em;}.cls-7{fill:#a6c7ff;stroke:#a6c7ff;}.cls-7,.cls-9{stroke-miterlimit:10;}.cls-9{fill:none;stroke:#c9defe;stroke-width:4px;}.cls-10{fill:#c9defe;}</style></defs><title>Asset 20</title><g id="Layer_2" data-name="Layer 2"><g id="Layer_1-2" data-name="Layer 1"><g class="cls-1"><rect class="cls-2" x="5" y="5" width="757.86" height="309.71"/><path class="cls-3" d="M757.86,10V309.71H10V10H757.86m10-10H0V319.71H767.86V0Z"/></g><text class="cls-4" transform="translate(563.66 119.23)">Using</text><text class="cls-5" transform="translate(439.6 176.26)">C<tspan class="cls-6" x="40.86" y="0">ODELENS</tspan></text><path class="cls-7" d="M1,45.73H14.83C24.57,45.73,31,51.9,31,64.12S24.57,82.51,14.83,82.51H1ZM14.83,75.4c4.74,0,7.69-2.58,7.69-8.43V61.28c0-5.85-2.95-8.43-7.69-8.43H9V75.4Z"/><path class="cls-7" d="M38.75,82.51V45.73h25v7.12h-17v7.53H61.35v7.06H46.76v8h17v7.11Z"/><path class="cls-7" d="M70.36,64.39C70.36,52,76.74,45.1,86.64,45.1c6.75,0,11.07,2.74,13.75,8.64l-6.9,3.59c-.95-3.06-2.9-5.11-6.85-5.11-4.69,0-7.8,3.16-7.8,9v5.9c0,5.8,3.11,9,7.8,9,4,0,6.22-2.48,7.33-5.48l6.53,3.79c-2.74,5.59-7.11,8.8-13.86,8.8C76.74,83.14,70.36,76.82,70.36,64.39Z"/><path class="cls-7" d="M107.14,82.51V45.73h8V75.4h14v7.11Z"/><path class="cls-7" d="M159.67,82.51,157,73.77H144.76l-2.63,8.74H134l12.12-36.78H156l12,36.78ZM151,53h-.27l-4.05,14h8.43Z"/><path class="cls-7" d="M182.17,82.51h-8V45.73H191.6c6.8,0,11.12,4.75,11.12,11.75,0,5-2.21,8.91-6.69,10.59l7.22,14.44h-8.91L187.91,69h-5.74Zm8.43-20.23c2.37,0,3.85-1.27,3.85-3.64V56.33c0-2.38-1.48-3.64-3.85-3.64h-8.43v9.59Z"/><path class="cls-7" d="M233.38,82.51l-2.63-8.74H218.47l-2.63,8.74h-8.12l12.12-36.78h9.91l12,36.78ZM224.69,53h-.26l-4.06,14h8.43Z"/><path class="cls-7" d="M259.78,52.85V82.51h-8V52.85h-10V45.73h27.92v7.12Z"/><path class="cls-7" d="M274.64,82.51V76.14h4.74v-24h-4.74V45.73h17.49v6.38h-4.74v24h4.74v6.37Z"/><path class="cls-7" d="M298.46,64.12c0-12.48,6.43-19,16.17-19s16.18,6.54,16.18,19-6.43,19-16.18,19S298.46,76.61,298.46,64.12Zm23.87,2.74V61.38c0-5.85-2.9-9.16-7.7-9.16s-7.69,3.31-7.69,9.16v5.48c0,5.85,2.9,9.17,7.69,9.17S322.33,72.71,322.33,66.86Z"/><path class="cls-7" d="M349.78,65.12l-3.53-7.37h-.16V82.51h-7.54V45.73h8.75l10.07,17.39,3.53,7.38h.15V45.73h7.54V82.51h-8.75Z"/><path class="cls-8" d="M4.79,125.4H.32V97.76H12.24c5,0,8,3.2,8,8.31,0,3.93-1.86,6.66-5.38,7.69l6,11.64h-5L10.3,114.23H4.79Zm7.13-14.93c2.26,0,3.61-1.23,3.61-3.45v-1.9c0-2.21-1.35-3.44-3.61-3.44H4.79v8.79Z"/><path class="cls-8" d="M40.53,125.4V97.76h17.7v4H45v7.68H57v4H45v8.08H58.23v4Z"/><path class="cls-8" d="M78.28,125.4V97.76H95.55v4H82.76v7.68H94.12v4H82.76v12Z"/><path class="cls-8" d="M115.12,125.4V97.76h17.71v4H119.6v7.68h12v4h-12v8.08h13.23v4Z"/><path class="cls-8" d="M157.35,125.4h-4.48V97.76H164.8c4.95,0,8,3.2,8,8.31,0,3.93-1.86,6.66-5.39,7.69l6,11.64h-5l-5.54-11.17h-5.51Zm7.13-14.93c2.26,0,3.6-1.23,3.6-3.45v-1.9c0-2.21-1.34-3.44-3.6-3.44h-7.13v8.79Z"/><path class="cls-8" d="M193.08,125.4V97.76h17.71v4H197.56v7.68h12v4h-12v8.08h13.23v4Z"/><path class="cls-8" d="M238.28,110.11l-3.05-5.86h-.12V125.4h-4.27V97.76h5l9,15.29,3,5.86H248V97.76h4.27V125.4h-5Z"/><path class="cls-8" d="M272.15,111.58c0-9.27,4.4-14.3,11.61-14.3,4.79,0,8,2.14,9.86,6.26l-3.76,2.06a6,6,0,0,0-6.1-4.32c-4.24,0-6.85,3.09-6.85,8.2v4.2c0,5.11,2.61,8.2,6.85,8.2a6.49,6.49,0,0,0,6.38-4.6l3.6,2.18a10.41,10.41,0,0,1-10,6.42C276.55,125.88,272.15,120.85,272.15,111.58Z"/><path class="cls-8" d="M312.76,125.4V97.76h17.7v4H317.23v7.68h12v4h-12v8.08h13.23v4Z"/><path class="cls-8" d="M348.69,121.21l3.09-2.9a8.87,8.87,0,0,0,7.25,3.61c3.52,0,5.35-1.74,5.35-4.4,0-2.14-1.11-3.37-4.32-4l-2.46-.43c-5.35-1-8.08-3.49-8.08-7.89,0-4.91,3.8-7.92,9.67-7.92a11.15,11.15,0,0,1,9.34,4.24l-3.12,2.77a7.58,7.58,0,0,0-6.46-3.05c-3.17,0-5,1.31-5,3.73s1.42,3.28,4.39,3.88l2.46.51c5.51,1.07,8,3.53,8,7.92,0,5.15-3.68,8.6-10,8.6A12.21,12.21,0,0,1,348.69,121.21Z"/><line class="cls-9" x1="0.17" y1="154.91" x2="397.48" y2="154.91"/><polygon class="cls-10" points="394.56 164.88 411.83 154.91 394.56 144.94 394.56 164.88"/><path class="cls-8" d="M.52,215.35V187.7H5v23.69H16.25v4Z"/><path class="cls-8" d="M33.92,215.35v-3.64h3.76V191.35H33.92V187.7H46v3.65h-3.8v20.36H46v3.64Z"/><path class="cls-8" d="M64,211.15l3.09-2.89a8.87,8.87,0,0,0,7.25,3.61c3.53,0,5.35-1.75,5.35-4.4,0-2.14-1.11-3.37-4.32-4L72.94,203c-5.35-1-8.09-3.48-8.09-7.88,0-4.91,3.81-7.92,9.67-7.92,4.16,0,7.21,1.5,9.35,4.24l-3.13,2.77a7.58,7.58,0,0,0-6.46-3.05c-3.17,0-5,1.31-5,3.72s1.43,3.29,4.4,3.88l2.45.52c5.51,1.07,8,3.53,8,7.92,0,5.15-3.69,8.6-10,8.6A12.19,12.19,0,0,1,64,211.15Z"/><path class="cls-8" d="M108.91,191.66h-8.24v-4h21v4h-8.24v23.69h-4.47Z"/><path class="cls-8" d="M169.87,216.82V185.25h3.69v31.57Z"/><path class="cls-8" d="M251.23,211.15h-.16c-.56,2.66-3.25,4.68-7.45,4.68-6.57,0-11.41-5-11.41-14.3s4.84-14.3,12.08-14.3a10.75,10.75,0,0,1,10.3,6.22L251,195.59a6.81,6.81,0,0,0-6.66-4.36c-4.35,0-7.28,3-7.28,8v4.52c0,5.07,2.93,8,7.28,8,3.49,0,6.54-1.79,6.54-5.23v-2.14h-5.7v-3.84h10v14.73h-3.92Z"/><path class="cls-8" d="M273.4,201.53c0-9.31,4.72-14.3,11.93-14.3s11.92,5,11.92,14.3-4.71,14.3-11.92,14.3S273.4,210.84,273.4,201.53Zm19.06,2.18v-4.36c0-5-2.86-8.12-7.13-8.12s-7.13,3.09-7.13,8.12v4.36c0,5,2.85,8.12,7.13,8.12S292.46,208.74,292.46,203.71Z"/><path class="cls-8" d="M319.14,191.66H310.9v-4h21v4h-8.23v23.69h-4.48Z"/><path class="cls-8" d="M344.38,201.53c0-9.31,4.71-14.3,11.92-14.3s11.92,5,11.92,14.3-4.71,14.3-11.92,14.3S344.38,210.84,344.38,201.53Zm19.05,2.18v-4.36c0-5-2.85-8.12-7.13-8.12s-7.13,3.09-7.13,8.12v4.36c0,5,2.85,8.12,7.13,8.12S363.43,208.74,363.43,203.71Z"/><path class="cls-7" d="M.52,229.57H16.73c11.39,0,18.91,7.21,18.91,21.51s-7.52,21.5-18.91,21.5H.52Zm16.21,34.69c5.54,0,9-3,9-9.86v-6.65c0-6.84-3.45-9.86-9-9.86H9.89v26.37Z"/><path class="cls-7" d="M44.69,272.58v-43H74v8.32H54.06v8.81H71.13V255H54.06v9.3H74v8.32Z"/><path class="cls-7" d="M83.32,272.58v-43h28.53v8.32H92.69v8.81H109V255H92.69v17.62Z"/><path class="cls-7" d="M120.27,272.58v-7.46h5.55V237h-5.55v-7.46h20.46V237h-5.55v28.09h5.55v7.46Z"/><path class="cls-7" d="M162.91,252.25l-4.13-8.63h-.19v29h-8.81v-43H160l11.77,20.34,4.13,8.62h.18v-29h8.81v43H174.68Z"/><path class="cls-7" d="M194,272.58v-7.46h5.54V237H194v-7.46h20.45V237h-5.54v28.09h5.54v7.46Z"/><path class="cls-7" d="M241.15,237.89v34.69h-9.36V237.89H220.14v-8.32H252.8v8.32Z"/><path class="cls-7" d="M258.53,272.58v-7.46h5.54V237h-5.54v-7.46H279V237h-5.54v28.09H279v7.46Z"/><path class="cls-7" d="M286.37,251.08c0-14.61,7.52-22.25,18.92-22.25s18.91,7.64,18.91,22.25-7.51,22.24-18.91,22.24S286.37,265.68,286.37,251.08Zm27.91,3.2v-6.41c0-6.84-3.38-10.72-9-10.72s-9,3.88-9,10.72v6.41c0,6.84,3.39,10.72,9,10.72S314.28,261.12,314.28,254.28Z"/><path class="cls-7" d="M346.38,252.25l-4.13-8.63h-.18v29h-8.81v-43h10.23l11.76,20.34,4.13,8.62h.19v-29h8.81v43H358.15Z"/></g></g></svg>