<?xml version="1.0" encoding="utf-8"?>
<!-- Generator: Adobe Illustrator 23.0.4, SVG Export Plug-In . SVG Version: 6.00 Build 0)  -->
<svg version="1.1" id="Layer_1" xmlns="http://www.w3.org/2000/svg" xmlns:xlink="http://www.w3.org/1999/xlink" x="0px" y="0px"
	 viewBox="0 0 407 319.7" style="enable-background:new 0 0 407 319.7;" xml:space="preserve">
<style type="text/css">
	.st0{opacity:0;}
	.st1{fill:#0042CE;}
	.st2{fill:#001140;}
	.st3{enable-background:new    ;}
	.st4{fill:#C9DEFE;}
	.st5{fill:#448AFE;}
	.st6{fill-rule:evenodd;clip-rule:evenodd;fill:#448AFE;}
	.st7{clip-path:url(#SVGID_2_);}
	.st8{clip-path:url(#SVGID_4_);}
	.st9{clip-path:url(#SVGID_6_);}
	.st10{clip-path:url(#SVGID_8_);}
	.st11{fill:#A6C7FF;}
	.st12{clip-path:url(#SVGID_10_);}
	.st13{clip-path:url(#SVGID_12_);}
	.st14{clip-path:url(#SVGID_14_);}
	.st15{clip-path:url(#SVGID_16_);}
	.st16{fill:#001C6B;}
	.st17{fill:none;stroke:#A6C7FF;stroke-width:6;stroke-miterlimit:10;}
	.st18{clip-path:url(#SVGID_18_);}
	.st19{clip-path:url(#SVGID_20_);}
	.st20{clip-path:url(#SVGID_22_);}
	.st21{clip-path:url(#SVGID_24_);}
	.st22{clip-path:url(#SVGID_26_);}
	.st23{clip-path:url(#SVGID_28_);}
	.st24{clip-path:url(#SVGID_30_);}
	.st25{clip-path:url(#SVGID_32_);}
	.st26{fill:#012D9C;}
	.st27{fill-rule:evenodd;clip-rule:evenodd;fill:#C9DEFE;}
	.st28{clip-path:url(#SVGID_34_);}
	.st29{clip-path:url(#SVGID_36_);}
	.st30{fill-rule:evenodd;clip-rule:evenodd;fill:#001C6B;}
</style>
<title>Asset 26</title>
<g>
	<g>
		<g id="Layer_1-2">
			<g class="st0">
				<rect x="5" y="5" class="st1" width="397" height="309.7"/>
				<path class="st2" d="M397,10v299.7H10V10H397 M407,0H0v319.7h407V0z"/>
			</g>
			<g class="st3">
				<path class="st4" d="M36.9,276.6v-15.7h7.3c0.7,0,1.4,0.1,1.9,0.4c0.6,0.2,1.1,0.6,1.5,1s0.7,1,0.9,1.6c0.2,0.6,0.3,1.3,0.3,2
					c0,0.8-0.1,1.4-0.3,2.1s-0.5,1.1-0.9,1.6s-0.9,0.8-1.5,1c-0.6,0.2-1.2,0.4-1.9,0.4h-3.9v5.7H36.9z M40.2,268h3.5
					c0.5,0,0.9-0.1,1.2-0.4c0.3-0.3,0.4-0.6,0.4-1.2v-1c0-0.5-0.1-0.9-0.4-1.2c-0.3-0.3-0.7-0.4-1.2-0.4h-3.5V268z"/>
				<path class="st4" d="M54.9,276.6h-3.4v-15.7h7.3c0.7,0,1.3,0.1,1.9,0.4c0.6,0.2,1.1,0.6,1.5,1c0.4,0.4,0.7,1,0.9,1.6
					s0.3,1.3,0.3,2c0,1.1-0.2,2-0.7,2.8s-1.2,1.4-2.1,1.7l3,6.2H60l-2.7-5.8h-2.4V276.6z M58.4,268c0.5,0,0.9-0.1,1.2-0.4
					c0.3-0.3,0.4-0.6,0.4-1.2v-1c0-0.5-0.1-0.9-0.4-1.2c-0.3-0.3-0.7-0.4-1.2-0.4h-3.5v4.1H58.4z"/>
				<path class="st4" d="M66.7,276.6v-15.7h10.5v3H70v3.2h6.1v3H70v3.4h7.1v3H66.7z"/>
				<path class="st4" d="M83.9,276.6l-5-15.7h3.4l2.3,7.5l1.2,4.9h0.1l1.2-4.9l2.3-7.5h3.3l-5,15.7H83.9z"/>
				<path class="st4" d="M94.3,276.6v-2.7h2v-10.3h-2v-2.7h7.3v2.7h-2v10.3h2v2.7H94.3z"/>
				<path class="st4" d="M104.6,276.6v-15.7h10.5v3H108v3.2h6.1v3H108v3.4h7.1v3H104.6z"/>
				<path class="st4" d="M120.7,276.6l-3.5-15.7h3.3l1.5,7.5l0.8,4.4h0.1l1-4.4l1.7-7.5h3.7l1.7,7.5l0.9,4.4h0.1l0.8-4.4l1.5-7.5
					h3.2l-3.6,15.7H130l-1.9-8.5l-0.8-3.4h-0.1l-0.8,3.4l-1.9,8.5H120.7z"/>
				<path class="st4" d="M148.7,276.6h-3.4v-15.7h7.3c0.7,0,1.3,0.1,1.9,0.4c0.6,0.2,1.1,0.6,1.5,1c0.4,0.4,0.7,1,0.9,1.6
					s0.3,1.3,0.3,2c0,1.1-0.2,2-0.7,2.8s-1.2,1.4-2.1,1.7l3,6.2h-3.7l-2.7-5.8h-2.4V276.6z M152.3,268c0.5,0,0.9-0.1,1.2-0.4
					c0.3-0.3,0.4-0.6,0.4-1.2v-1c0-0.5-0.1-0.9-0.4-1.2c-0.3-0.3-0.7-0.4-1.2-0.4h-3.5v4.1H152.3z"/>
				<path class="st4" d="M160.5,276.6v-15.7H171v3h-7.1v3.2h6.1v3h-6.1v3.4h7.1v3H160.5z"/>
				<path class="st4" d="M185.6,266.3L185.6,266.3l-1.2,2.3l-3,5.6l-2.9-5.5l-1.2-2.5h-0.1v10.5h-3.2v-15.7h3.6l3.8,7.4h0l3.7-7.4
					h3.6v15.7h-3.2V266.3z"/>
			</g>
			<g class="st3">
				<path class="st4" d="M199.6,276.9c-1,0-1.9-0.2-2.8-0.5c-0.8-0.3-1.6-0.9-2.1-1.5s-1-1.5-1.4-2.5c-0.3-1-0.5-2.2-0.5-3.5
					c0-1.3,0.2-2.5,0.5-3.5c0.3-1,0.8-1.9,1.4-2.5s1.3-1.2,2.1-1.5c0.8-0.3,1.8-0.5,2.8-0.5s1.9,0.2,2.8,0.5
					c0.8,0.3,1.6,0.9,2.1,1.5c0.6,0.7,1,1.5,1.4,2.5c0.3,1,0.5,2.2,0.5,3.5c0,1.3-0.2,2.5-0.5,3.5s-0.8,1.9-1.4,2.5
					c-0.6,0.7-1.3,1.2-2.1,1.5C201.5,276.7,200.6,276.9,199.6,276.9z M199.6,273.8c1,0,1.8-0.3,2.4-1c0.6-0.7,0.9-1.6,0.9-2.9v-2.3
					c0-1.3-0.3-2.2-0.9-2.9c-0.6-0.7-1.4-1-2.4-1s-1.8,0.3-2.4,1c-0.6,0.7-0.9,1.6-0.9,2.9v2.3c0,1.3,0.3,2.2,0.9,2.9
					C197.8,273.5,198.6,273.8,199.6,273.8z"/>
			</g>
			<g class="st3">
				<path class="st4" d="M215.3,263.9v12.7H212v-12.7h-4.2v-3h11.7v3H215.3z"/>
				<path class="st4" d="M222,276.6v-15.7h10.5v3h-7.1v3.2h6.1v3h-6.1v3.4h7.1v3H222z"/>
			</g>
			<g class="st3">
				<path class="st4" d="M247.6,276.9c-1,0-2-0.2-2.8-0.5c-0.8-0.3-1.6-0.8-2.1-1.5c-0.6-0.7-1-1.5-1.4-2.5c-0.3-1-0.5-2.2-0.5-3.5
					c0-1.3,0.2-2.5,0.5-3.5c0.3-1,0.8-1.9,1.4-2.6s1.3-1.2,2.1-1.6c0.8-0.4,1.8-0.5,2.8-0.5c1.4,0,2.6,0.3,3.5,0.9
					c0.9,0.6,1.7,1.5,2.2,2.8l-2.9,1.5c-0.2-0.7-0.5-1.2-1-1.6c-0.4-0.4-1.1-0.6-1.9-0.6c-1,0-1.8,0.3-2.4,1
					c-0.6,0.7-0.9,1.6-0.9,2.9v2.5c0,1.2,0.3,2.2,0.9,2.8c0.6,0.7,1.4,1,2.4,1c0.8,0,1.5-0.2,2-0.7c0.5-0.5,0.9-1,1.1-1.7l2.7,1.6
					c-0.6,1.2-1.3,2.1-2.3,2.8C250.2,276.6,249,276.9,247.6,276.9z"/>
			</g>
			<g class="st3">
				<path class="st4" d="M261.9,276.9c-1,0-1.9-0.2-2.8-0.5c-0.8-0.3-1.6-0.9-2.1-1.5c-0.6-0.7-1-1.5-1.4-2.5
					c-0.3-1-0.5-2.2-0.5-3.5c0-1.3,0.2-2.5,0.5-3.5c0.3-1,0.8-1.9,1.4-2.5c0.6-0.7,1.3-1.2,2.1-1.5s1.8-0.5,2.8-0.5s1.9,0.2,2.8,0.5
					c0.8,0.3,1.6,0.9,2.1,1.5c0.6,0.7,1,1.5,1.4,2.5c0.3,1,0.5,2.2,0.5,3.5c0,1.3-0.2,2.5-0.5,3.5s-0.8,1.9-1.4,2.5
					c-0.6,0.7-1.3,1.2-2.1,1.5C263.9,276.7,263,276.9,261.9,276.9z M261.9,273.8c1,0,1.8-0.3,2.4-1s0.8-1.6,0.8-2.9v-2.3
					c0-1.3-0.3-2.2-0.8-2.9s-1.4-1-2.4-1s-1.8,0.3-2.4,1c-0.6,0.7-0.9,1.6-0.9,2.9v2.3c0,1.3,0.3,2.2,0.9,2.9
					C260.1,273.5,260.9,273.8,261.9,273.8z"/>
			</g>
			<g class="st3">
				<path class="st4" d="M271.8,276.6v-15.7h7.3c0.7,0,1.4,0.1,1.9,0.4s1.1,0.6,1.5,1s0.7,1,0.9,1.6c0.2,0.6,0.3,1.3,0.3,2
					c0,0.8-0.1,1.4-0.3,2.1s-0.5,1.1-0.9,1.6s-0.9,0.8-1.5,1s-1.2,0.4-1.9,0.4h-3.9v5.7H271.8z M275.2,268h3.5
					c0.5,0,0.9-0.1,1.2-0.4c0.3-0.3,0.4-0.6,0.4-1.2v-1c0-0.5-0.1-0.9-0.4-1.2c-0.3-0.3-0.7-0.4-1.2-0.4h-3.5V268z"/>
			</g>
			<g class="st3">
				<path class="st4" d="M289.8,276.6v-6.2l-5.3-9.6h3.8l3.3,6.3h0l3.2-6.3h3.6l-5.3,9.6v6.2H289.8z"/>
				<path class="st4" d="M300.6,260.9h7.5c1.3,0,2.3,0.4,3,1.1s1.1,1.7,1.1,2.9c0,0.6-0.1,1.1-0.2,1.5c-0.2,0.4-0.4,0.8-0.6,1
					c-0.3,0.3-0.6,0.5-0.9,0.6c-0.3,0.1-0.7,0.2-1.1,0.2v0.1c0.4,0,0.8,0.1,1.2,0.2c0.4,0.1,0.8,0.3,1.1,0.6s0.6,0.7,0.9,1.1
					c0.2,0.5,0.3,1,0.3,1.7c0,0.6-0.1,1.2-0.3,1.7s-0.5,1-0.8,1.4c-0.4,0.4-0.8,0.7-1.3,1c-0.5,0.2-1,0.3-1.6,0.3h-8.2V260.9z
					 M304,267.3h3.3c0.4,0,0.8-0.1,1-0.4s0.4-0.6,0.4-1.1v-0.7c0-0.5-0.1-0.8-0.4-1.1s-0.6-0.4-1-0.4H304V267.3z M304,273.7h3.9
					c0.4,0,0.8-0.1,1-0.4c0.3-0.2,0.4-0.6,0.4-1v-0.8c0-0.5-0.1-0.8-0.4-1c-0.3-0.2-0.6-0.4-1-0.4H304V273.7z"/>
				<path class="st4" d="M321.8,276.9c-1,0-1.9-0.2-2.8-0.5c-0.8-0.3-1.6-0.9-2.1-1.5s-1-1.5-1.4-2.5s-0.5-2.2-0.5-3.5
					c0-1.3,0.2-2.5,0.5-3.5c0.3-1,0.8-1.9,1.4-2.5s1.3-1.2,2.1-1.5c0.8-0.3,1.8-0.5,2.8-0.5s1.9,0.2,2.8,0.5s1.6,0.9,2.1,1.5
					c0.6,0.7,1,1.5,1.4,2.5c0.3,1,0.5,2.2,0.5,3.5c0,1.3-0.2,2.5-0.5,3.5c-0.3,1-0.8,1.9-1.4,2.5c-0.6,0.7-1.3,1.2-2.1,1.5
					C323.7,276.7,322.8,276.9,321.8,276.9z M321.8,273.8c1,0,1.8-0.3,2.4-1s0.9-1.6,0.9-2.9v-2.3c0-1.3-0.3-2.2-0.9-2.9
					s-1.4-1-2.4-1s-1.8,0.3-2.4,1c-0.6,0.7-0.9,1.6-0.9,2.9v2.3c0,1.3,0.3,2.2,0.9,2.9C319.9,273.5,320.7,273.8,321.8,273.8z"/>
				<path class="st4" d="M337.7,276.9c-1,0-1.9-0.2-2.8-0.5c-0.8-0.3-1.6-0.9-2.1-1.5s-1-1.5-1.4-2.5c-0.3-1-0.5-2.2-0.5-3.5
					c0-1.3,0.2-2.5,0.5-3.5c0.3-1,0.8-1.9,1.4-2.5s1.3-1.2,2.1-1.5c0.8-0.3,1.8-0.5,2.8-0.5s1.9,0.2,2.8,0.5
					c0.8,0.3,1.6,0.9,2.1,1.5s1,1.5,1.4,2.5c0.3,1,0.5,2.2,0.5,3.5c0,1.3-0.2,2.5-0.5,3.5c-0.3,1-0.8,1.9-1.4,2.5s-1.3,1.2-2.1,1.5
					C339.7,276.7,338.8,276.9,337.7,276.9z M337.7,273.8c1,0,1.8-0.3,2.4-1c0.6-0.7,0.8-1.6,0.8-2.9v-2.3c0-1.3-0.3-2.2-0.8-2.9
					c-0.6-0.7-1.4-1-2.4-1s-1.8,0.3-2.4,1s-0.8,1.6-0.8,2.9v2.3c0,1.3,0.3,2.2,0.8,2.9S336.7,273.8,337.7,273.8z"/>
			</g>
			<g class="st3">
				<path class="st4" d="M353.3,269.8l-2,2.5v4.4h-3.4v-15.7h3.4v7.5h0.1l2.2-3l3.5-4.4h3.8l-5.2,6.5l5.7,9.3h-4L353.3,269.8z"/>
			</g>
			<g class="st3">
				<path class="st4" d="M368.4,276.9c-1.4,0-2.5-0.2-3.4-0.7s-1.7-1.1-2.4-1.8l2.2-2.3c1,1.2,2.3,1.8,3.9,1.8
					c0.8,0,1.4-0.2,1.8-0.5s0.6-0.8,0.6-1.4c0-0.4-0.1-0.8-0.4-1.1c-0.2-0.3-0.7-0.5-1.4-0.6l-1.5-0.2c-1.6-0.2-2.8-0.7-3.6-1.5
					c-0.8-0.8-1.1-1.9-1.1-3.2c0-0.7,0.1-1.4,0.4-1.9c0.3-0.6,0.6-1.1,1.1-1.5c0.5-0.4,1.1-0.7,1.8-1c0.7-0.2,1.5-0.3,2.4-0.3
					c1.2,0,2.2,0.2,3.1,0.6c0.9,0.4,1.6,0.9,2.3,1.6l-2.2,2.3c-0.4-0.4-0.8-0.8-1.3-1.1s-1.2-0.4-2-0.4c-0.8,0-1.3,0.1-1.7,0.4
					c-0.4,0.3-0.6,0.6-0.6,1.1c0,0.5,0.1,0.9,0.4,1.2s0.8,0.4,1.4,0.5l1.5,0.2c1.6,0.3,2.8,0.8,3.5,1.5c0.8,0.7,1.1,1.8,1.1,3.2
					c0,0.8-0.1,1.4-0.4,2.1c-0.3,0.6-0.7,1.2-1.2,1.6s-1.1,0.8-1.9,1C370.2,276.8,369.3,276.9,368.4,276.9z"/>
			</g>
			<rect x="55.2" y="64.6" class="st5" width="26.1" height="8.4"/>
			<rect x="84.3" y="64.6" class="st5" width="42.9" height="8.4"/>
			<rect x="129.9" y="64.6" class="st5" width="8.4" height="8.4"/>
			<rect x="140.8" y="64.6" class="st5" width="8.4" height="8.4"/>
			<polygon class="st6" points="29.8,68.8 43.2,82.5 45.1,80.6 33.6,68.8 45.1,57 43.2,55.1 			"/>
			<g>
				<defs>
					<polygon id="SVGID_1_" points="29.8,68.8 43.2,82.5 45.1,80.6 33.6,68.8 45.1,57 43.2,55.1 					"/>
				</defs>
				<clipPath id="SVGID_2_">
					<use xlink:href="#SVGID_1_"  style="overflow:visible;"/>
				</clipPath>
				<g class="st7">
					<rect x="16.4" y="46.8" class="st5" width="42.9" height="43.9"/>
					<g>
						<defs>
							<rect id="SVGID_3_" x="16.4" y="46.8" width="42.9" height="43.9"/>
						</defs>
						<clipPath id="SVGID_4_">
							<use xlink:href="#SVGID_3_"  style="overflow:visible;"/>
						</clipPath>
						<g class="st8">
							<rect x="20.9" y="45.9" class="st5" width="33.2" height="45.8"/>
						</g>
					</g>
				</g>
			</g>
			<polygon class="st6" points="172.9,68.8 159.5,55.1 157.7,57 169.2,68.8 157.7,80.6 159.5,82.5 			"/>
			<g>
				<defs>
					<polygon id="SVGID_5_" points="172.9,68.8 159.5,55.1 157.7,57 169.2,68.8 157.7,80.6 159.5,82.5 					"/>
				</defs>
				<clipPath id="SVGID_6_">
					<use xlink:href="#SVGID_5_"  style="overflow:visible;"/>
				</clipPath>
				<g class="st9">
					<rect x="143.5" y="46.8" class="st5" width="42.9" height="43.9"/>
					<g>
						<defs>
							<rect id="SVGID_7_" x="143.5" y="46.8" width="42.9" height="43.9"/>
						</defs>
						<clipPath id="SVGID_8_">
							<use xlink:href="#SVGID_7_"  style="overflow:visible;"/>
						</clipPath>
						<g class="st10">
							<rect x="148.7" y="45.9" class="st5" width="33.2" height="45.8"/>
						</g>
					</g>
				</g>
			</g>
			<rect x="55.2" y="101.6" class="st5" width="13.1" height="8.4"/>
			<rect x="71.3" y="101.6" class="st11" width="56" height="8.4"/>
			<rect x="129.9" y="101.6" class="st5" width="12.8" height="8.4"/>
			<rect x="145" y="101.6" class="st5" width="4.2" height="8.4"/>
			<polygon class="st6" points="29.8,105.8 43.2,119.5 45.1,117.6 33.6,105.8 45.1,94 43.2,92.1 			"/>
			<g>
				<defs>
					<polygon id="SVGID_9_" points="29.8,105.8 43.2,119.5 45.1,117.6 33.6,105.8 45.1,94 43.2,92.1 					"/>
				</defs>
				<clipPath id="SVGID_10_">
					<use xlink:href="#SVGID_9_"  style="overflow:visible;"/>
				</clipPath>
				<g class="st12">
					<rect x="16.4" y="83.8" class="st5" width="42.9" height="43.9"/>
					<g>
						<defs>
							<rect id="SVGID_11_" x="16.4" y="83.8" width="42.9" height="43.9"/>
						</defs>
						<clipPath id="SVGID_12_">
							<use xlink:href="#SVGID_11_"  style="overflow:visible;"/>
						</clipPath>
						<g class="st13">
							<rect x="20.9" y="82.9" class="st5" width="33.2" height="45.8"/>
						</g>
					</g>
				</g>
			</g>
			<polygon class="st6" points="172.9,105.8 159.5,92.1 157.7,94 169.2,105.8 157.7,117.6 159.5,119.5 			"/>
			<g>
				<defs>
					<polygon id="SVGID_13_" points="172.9,105.8 159.5,92.1 157.7,94 169.2,105.8 157.7,117.6 159.5,119.5 					"/>
				</defs>
				<clipPath id="SVGID_14_">
					<use xlink:href="#SVGID_13_"  style="overflow:visible;"/>
				</clipPath>
				<g class="st14">
					<rect x="143.5" y="83.8" class="st5" width="42.9" height="43.9"/>
					<g>
						<defs>
							<rect id="SVGID_15_" x="143.5" y="83.8" width="42.9" height="43.9"/>
						</defs>
						<clipPath id="SVGID_16_">
							<use xlink:href="#SVGID_15_"  style="overflow:visible;"/>
						</clipPath>
						<g class="st15">
							<rect x="148.7" y="82.9" class="st5" width="33.2" height="45.8"/>
						</g>
					</g>
				</g>
			</g>
			
				<image style="overflow:visible;opacity:0.3;enable-background:new    ;" width="211" height="203" xlink:href="AC7BE6DA27F24084.png"  transform="matrix(1 0 0 1 170.25 39.09)">
			</image>
			<rect x="199.3" y="48.4" class="st16" width="166.1" height="170.4"/>
			<rect x="195.1" y="46.3" class="st17" width="173.7" height="174.6"/>
			<rect x="209.3" y="64.6" class="st11" width="56" height="8.4"/>
			<rect x="208.2" y="118.8" class="st5" width="131.3" height="9.2"/>
			<g>
				<defs>
					<rect id="SVGID_17_" x="208.2" y="118.8" width="131.3" height="9.2"/>
				</defs>
				<clipPath id="SVGID_18_">
					<use xlink:href="#SVGID_17_"  style="overflow:visible;"/>
				</clipPath>
				<g class="st18">
					<rect x="180.9" y="95.8" class="st5" width="186" height="55.2"/>
				</g>
			</g>
			<rect x="301.8" y="91.2" class="st5" width="37.7" height="9.2"/>
			<g>
				<defs>
					<rect id="SVGID_19_" x="301.8" y="91.2" width="37.7" height="9.2"/>
				</defs>
				<clipPath id="SVGID_20_">
					<use xlink:href="#SVGID_19_"  style="overflow:visible;"/>
				</clipPath>
				<g class="st19">
					<rect x="274.9" y="68.2" class="st5" width="91.6" height="55.2"/>
				</g>
			</g>
			<rect x="248" y="91.2" class="st5" width="37.7" height="9.2"/>
			<g>
				<defs>
					<rect id="SVGID_21_" x="248" y="91.2" width="37.7" height="9.2"/>
				</defs>
				<clipPath id="SVGID_22_">
					<use xlink:href="#SVGID_21_"  style="overflow:visible;"/>
				</clipPath>
				<g class="st20">
					<rect x="221" y="68.2" class="st5" width="91.6" height="55.2"/>
				</g>
			</g>
			<rect x="210.3" y="91.2" class="st5" width="21.6" height="9.2"/>
			<g>
				<defs>
					<rect id="SVGID_23_" x="210.3" y="91.2" width="21.6" height="9.2"/>
				</defs>
				<clipPath id="SVGID_24_">
					<use xlink:href="#SVGID_23_"  style="overflow:visible;"/>
				</clipPath>
				<g class="st21">
					<rect x="183.3" y="68.2" class="st5" width="75.4" height="55.2"/>
				</g>
			</g>
			<rect x="210.3" y="172" class="st5" width="59.3" height="9.2"/>
			<g>
				<defs>
					<rect id="SVGID_25_" x="210.3" y="172" width="59.3" height="9.2"/>
				</defs>
				<clipPath id="SVGID_26_">
					<use xlink:href="#SVGID_25_"  style="overflow:visible;"/>
				</clipPath>
				<g class="st22">
					<rect x="183.3" y="149" class="st5" width="113.1" height="55.2"/>
				</g>
			</g>
			<rect x="248" y="195.4" class="st5" width="37.7" height="9.2"/>
			<g>
				<defs>
					<rect id="SVGID_27_" x="248" y="195.4" width="37.7" height="9.2"/>
				</defs>
				<clipPath id="SVGID_28_">
					<use xlink:href="#SVGID_27_"  style="overflow:visible;"/>
				</clipPath>
				<g class="st23">
					<rect x="221" y="172.4" class="st5" width="91.6" height="55.2"/>
				</g>
			</g>
			<rect x="210.3" y="195.4" class="st5" width="21.6" height="9.2"/>
			<g>
				<defs>
					<rect id="SVGID_29_" x="210.3" y="195.4" width="21.6" height="9.2"/>
				</defs>
				<clipPath id="SVGID_30_">
					<use xlink:href="#SVGID_29_"  style="overflow:visible;"/>
				</clipPath>
				<g class="st24">
					<rect x="183.3" y="172.4" class="st5" width="75.4" height="55.2"/>
				</g>
			</g>
			<rect x="210.3" y="146.3" class="st5" width="91.6" height="9.2"/>
			<g>
				<defs>
					<rect id="SVGID_31_" x="210.3" y="146.3" width="91.6" height="9.2"/>
				</defs>
				<clipPath id="SVGID_32_">
					<use xlink:href="#SVGID_31_"  style="overflow:visible;"/>
				</clipPath>
				<g class="st25">
					<rect x="183.3" y="123.3" class="st5" width="145.4" height="55.2"/>
				</g>
			</g>
			<polygon class="st17" points="192.8,106.1 192.8,110.4 189.1,108.2 185.4,106.1 189.1,103.9 192.8,101.7 			"/>
			<rect x="349.3" y="90.1" class="st26" width="7.9" height="46.3"/>
			
				<image style="overflow:visible;opacity:0.3;enable-background:new    ;" width="62" height="63" xlink:href="AC7BE6DA27F24085.png"  transform="matrix(1 0 0 1 80.25 95.09)">
			</image>
			<path class="st27" d="M120.1,133.9l3.4-3.5l-9.5-9.7l6.9-4.7l-21.3-6.6l6.4,21.9l4.6-7.1L120.1,133.9z M120.1,137.2
				c-0.4,0-0.7-0.1-0.9-0.4l-8.1-8.3l-4.4,6.8c-0.3,0.4-0.8,0.7-1.3,0.6c-0.5-0.1-0.9-0.5-1.1-1l-7.9-27c-0.2-0.5-0.1-1.1,0.3-1.4
				c0.4-0.4,0.9-0.5,1.4-0.3l26.4,8.1c0.7,0.3,1.1,1,0.9,1.8c-0.1,0.3-0.3,0.5-0.5,0.7l-6.6,4.5l8.1,8.3c0.3,0.3,0.4,0.6,0.4,1
				c0,0.4-0.1,0.7-0.4,1l-5.2,5.4C120.8,137,120.4,137.2,120.1,137.2z"/>
			<g>
				<defs>
					<path id="SVGID_33_" d="M120.1,133.9l3.4-3.5l-9.5-9.7l6.9-4.7l-21.3-6.6l6.4,21.9l4.6-7.1L120.1,133.9z M120.1,137.2
						c-0.4,0-0.7-0.1-0.9-0.4l-8.1-8.3l-4.4,6.8c-0.3,0.4-0.8,0.7-1.3,0.6c-0.5-0.1-0.9-0.5-1.1-1l-7.9-27c-0.2-0.5-0.1-1.1,0.3-1.4
						c0.4-0.4,0.9-0.5,1.4-0.3l26.4,8.1c0.7,0.3,1.1,1,0.9,1.8c-0.1,0.3-0.3,0.5-0.5,0.7l-6.6,4.5l8.1,8.3c0.3,0.3,0.4,0.6,0.4,1
						c0,0.4-0.1,0.7-0.4,1l-5.2,5.4C120.8,137,120.4,137.2,120.1,137.2z"/>
				</defs>
				<clipPath id="SVGID_34_">
					<use xlink:href="#SVGID_33_"  style="overflow:visible;"/>
				</clipPath>
				<g class="st28">
					<rect x="89.7" y="99.4" class="st4" width="42.2" height="43.2"/>
					<g>
						<defs>
							<rect id="SVGID_35_" x="89.7" y="99.4" width="42.2" height="43.2"/>
						</defs>
						<clipPath id="SVGID_36_">
							<use xlink:href="#SVGID_35_"  style="overflow:visible;"/>
						</clipPath>
						<g class="st29">
							<rect x="89.7" y="99.3" class="st4" width="43.6" height="44.7"/>
						</g>
					</g>
				</g>
			</g>
			<polygon class="st30" points="99.6,109.5 121,116.1 114,120.8 123.5,130.4 120.1,133.9 110.6,124.3 106,131.4 			"/>
		</g>
	</g>
</g>
</svg>
