<?xml version="1.0" encoding="utf-8"?>
<!-- Generator: Adobe Illustrator 23.0.4, SVG Export Plug-In . SVG Version: 6.00 Build 0)  -->
<svg version="1.1" id="Layer_1" xmlns="http://www.w3.org/2000/svg" xmlns:xlink="http://www.w3.org/1999/xlink" x="0px" y="0px"
	 viewBox="0 0 370.6 319.7" style="enable-background:new 0 0 370.6 319.7;" xml:space="preserve">
<style type="text/css">
	.st0{opacity:0;}
	.st1{fill:#0E61FF;}
	.st2{fill:#001140;}
	.st3{enable-background:new    ;}
	.st4{fill:#C9DEFE;}
	.st5{fill-rule:evenodd;clip-rule:evenodd;fill:#C9DEFE;}
	.st6{clip-path:url(#SVGID_2_);}
	.st7{clip-path:url(#SVGID_4_);}
	.st8{fill:#001C6B;}
	.st9{fill:none;stroke:#A6C7FF;stroke-width:6;stroke-miterlimit:10;}
	.st10{fill:#448AFE;}
	.st11{clip-path:url(#SVGID_6_);}
	.st12{clip-path:url(#SVGID_8_);}
	.st13{clip-path:url(#SVGID_10_);}
	.st14{clip-path:url(#SVGID_12_);}
	.st15{clip-path:url(#SVGID_14_);}
	.st16{clip-path:url(#SVGID_16_);}
	.st17{clip-path:url(#SVGID_18_);}
	.st18{clip-path:url(#SVGID_20_);}
	.st19{clip-path:url(#SVGID_22_);}
	.st20{clip-path:url(#SVGID_24_);}
	.st21{clip-path:url(#SVGID_26_);}
	.st22{clip-path:url(#SVGID_28_);}
	.st23{clip-path:url(#SVGID_30_);}
	.st24{clip-path:url(#SVGID_32_);}
	.st25{clip-path:url(#SVGID_34_);}
	.st26{clip-path:url(#SVGID_36_);}
	.st27{clip-path:url(#SVGID_38_);}
	.st28{clip-path:url(#SVGID_40_);}
	.st29{clip-path:url(#SVGID_42_);}
	.st30{clip-path:url(#SVGID_44_);}
</style>
<title>Asset 33</title>
<g>
	<g>
		<g id="Layer_1-2">
			<g class="st0">
				<rect x="5" y="5" class="st1" width="360.6" height="309.7"/>
				<path class="st2" d="M360.6,10v299.7H10V10H360.6 M370.6,0H0v319.7h370.6V0z"/>
			</g>
			<g class="st3">
				<path class="st4" d="M94.3,280.2H90v-19.5h9.3c0.9,0,1.7,0.1,2.4,0.4s1.3,0.7,1.9,1.3c0.5,0.6,0.9,1.2,1.2,2
					c0.3,0.8,0.4,1.6,0.4,2.5c0,1.3-0.3,2.5-0.9,3.5c-0.6,1-1.5,1.7-2.7,2.2l3.8,7.7h-4.7l-3.4-7.2h-3.1V280.2z M98.7,269.4
					c0.6,0,1.1-0.2,1.5-0.5c0.4-0.3,0.5-0.8,0.5-1.4v-1.2c0-0.6-0.2-1.1-0.5-1.4c-0.4-0.3-0.9-0.5-1.5-0.5h-4.5v5.1H98.7z"/>
				<path class="st4" d="M109.2,280.2v-19.5h13.3v3.8h-9v4h7.8v3.8h-7.8v4.2h9v3.8H109.2z"/>
			</g>
			<g class="st3">
				<path class="st4" d="M126.7,280.2v-19.5h13v3.8h-8.7v4h7.4v3.8h-7.4v8H126.7z"/>
			</g>
			<g class="st3">
				<path class="st4" d="M153,280.2l-1.4-4.6h-6.5l-1.4,4.6h-4.3l6.4-19.5h5.3l6.4,19.5H153z M148.4,264.5h-0.1l-2.2,7.4h4.5
					L148.4,264.5z"/>
			</g>
			<g class="st3">
				<path class="st4" d="M167.6,280.5c-1.3,0-2.5-0.2-3.6-0.6c-1.1-0.4-2-1-2.7-1.9c-0.7-0.8-1.3-1.9-1.7-3.1
					c-0.4-1.2-0.6-2.7-0.6-4.4c0-1.6,0.2-3.1,0.6-4.4c0.4-1.3,1-2.4,1.7-3.2c0.7-0.9,1.7-1.5,2.7-2c1.1-0.4,2.3-0.7,3.6-0.7
					c1.8,0,3.3,0.4,4.5,1.1c1.2,0.7,2.1,1.9,2.8,3.5l-3.7,1.9c-0.3-0.8-0.7-1.5-1.2-2c-0.6-0.5-1.4-0.7-2.4-0.7
					c-1.3,0-2.3,0.4-3,1.2c-0.8,0.8-1.1,2-1.1,3.5v3.1c0,1.5,0.4,2.7,1.1,3.5c0.8,0.8,1.8,1.2,3,1.2c1,0,1.9-0.3,2.5-0.9
					c0.6-0.6,1.1-1.3,1.4-2.1l3.5,2c-0.7,1.5-1.7,2.6-2.9,3.5C170.9,280.1,169.4,280.5,167.6,280.5z"/>
			</g>
			<g class="st3">
				<path class="st4" d="M186.5,264.4v15.8h-4.3v-15.8h-5.3v-3.8h14.8v3.8H186.5z"/>
			</g>
			<g class="st3">
				<path class="st4" d="M202.2,280.5c-1.3,0-2.5-0.2-3.5-0.6c-1.1-0.4-2-1.1-2.7-1.9c-0.7-0.8-1.3-1.9-1.7-3.2
					c-0.4-1.3-0.6-2.7-0.6-4.4c0-1.7,0.2-3.1,0.6-4.4c0.4-1.3,1-2.3,1.7-3.2c0.7-0.8,1.7-1.5,2.7-1.9c1.1-0.4,2.2-0.6,3.5-0.6
					c1.3,0,2.5,0.2,3.5,0.6c1.1,0.4,2,1.1,2.7,1.9c0.7,0.8,1.3,1.9,1.7,3.2c0.4,1.3,0.6,2.7,0.6,4.4c0,1.7-0.2,3.1-0.6,4.4
					c-0.4,1.3-1,2.3-1.7,3.2c-0.7,0.8-1.7,1.5-2.7,1.9C204.7,280.3,203.5,280.5,202.2,280.5z M202.2,276.7c1.3,0,2.3-0.4,3-1.3
					s1.1-2,1.1-3.6V269c0-1.6-0.4-2.8-1.1-3.6s-1.7-1.3-3-1.3c-1.3,0-2.3,0.4-3,1.3s-1.1,2-1.1,3.6v2.9c0,1.6,0.4,2.8,1.1,3.6
					S200.9,276.7,202.2,276.7z"/>
				<path class="st4" d="M218.9,280.2h-4.3v-19.5h9.3c0.9,0,1.7,0.1,2.4,0.4s1.3,0.7,1.9,1.3c0.5,0.6,0.9,1.2,1.2,2
					c0.3,0.8,0.4,1.6,0.4,2.5c0,1.3-0.3,2.5-0.9,3.5c-0.6,1-1.5,1.7-2.7,2.2l3.8,7.7h-4.7L222,273h-3.1V280.2z M223.4,269.4
					c0.6,0,1.1-0.2,1.5-0.5c0.4-0.3,0.5-0.8,0.5-1.4v-1.2c0-0.6-0.2-1.1-0.5-1.4c-0.4-0.3-0.9-0.5-1.5-0.5h-4.5v5.1H223.4z"/>
				<path class="st4" d="M233.1,280.2v-3.4h2.5V264h-2.5v-3.4h9.3v3.4h-2.5v12.8h2.5v3.4H233.1z"/>
				<path class="st4" d="M252.1,270.9l-1.9-3.9h-0.1v13.2h-4v-19.5h4.6l5.3,9.2l1.9,3.9h0.1v-13.2h4v19.5h-4.6L252.1,270.9z"/>
				<path class="st4" d="M279.1,277.1H279c-0.2,1-0.7,1.8-1.5,2.5c-0.9,0.7-2,1-3.5,1c-1.1,0-2.2-0.2-3.1-0.6
					c-1-0.4-1.8-1.1-2.5-1.9s-1.3-1.9-1.7-3.1c-0.4-1.3-0.6-2.7-0.6-4.3c0-1.6,0.2-3.1,0.6-4.4s1-2.3,1.8-3.2c0.8-0.9,1.7-1.5,2.8-2
					c1.1-0.4,2.3-0.7,3.6-0.7c1.8,0,3.3,0.4,4.5,1.1s2.3,1.9,3,3.4l-3.5,2c-0.3-0.8-0.8-1.4-1.4-1.9c-0.6-0.5-1.5-0.8-2.7-0.8
					c-1.3,0-2.4,0.4-3.2,1.1c-0.8,0.8-1.2,2-1.2,3.6v3.1c0,1.6,0.4,2.8,1.2,3.6c0.8,0.8,1.8,1.2,3.2,1.2c0.5,0,1-0.1,1.5-0.2
					c0.5-0.1,0.9-0.3,1.2-0.6c0.4-0.3,0.6-0.6,0.8-0.9c0.2-0.4,0.3-0.8,0.3-1.3v-1H275v-3.6h7.7v10.9h-3.6V277.1z"/>
			</g>
			<polygon class="st5" points="239,132.6 226.1,119.3 224.2,121.2 235.4,132.6 224.2,144 226.1,145.9 			"/>
			<g>
				<defs>
					<polygon id="SVGID_1_" points="239,132.6 226.1,119.3 224.2,121.2 235.4,132.6 224.2,144 226.1,145.9 					"/>
				</defs>
				<clipPath id="SVGID_2_">
					<use xlink:href="#SVGID_1_"  style="overflow:visible;"/>
				</clipPath>
				<g class="st6">
					<rect x="210.5" y="111.3" class="st4" width="41.6" height="42.6"/>
					<g>
						<defs>
							<rect id="SVGID_3_" x="210.5" y="111.3" width="41.6" height="42.6"/>
						</defs>
						<clipPath id="SVGID_4_">
							<use xlink:href="#SVGID_3_"  style="overflow:visible;"/>
						</clipPath>
						<g class="st7">
							<rect x="215.6" y="110.4" class="st4" width="32.1" height="44.3"/>
						</g>
					</g>
				</g>
			</g>
			
				<image style="overflow:visible;opacity:0.3;enable-background:new    ;" width="204" height="198" xlink:href="2F11046C2BF50208.png"  transform="matrix(1 0 0 1 19.34 42.83)">
			</image>
			<rect x="45.5" y="52.3" class="st8" width="161.8" height="165.1"/>
			<rect x="42.4" y="50.2" class="st9" width="168.2" height="169.2"/>
			<rect x="56.1" y="67.9" class="st10" width="54.2" height="8.2"/>
			<rect x="57" y="172" class="st10" width="57.4" height="8.9"/>
			<g>
				<defs>
					<rect id="SVGID_5_" x="57" y="172" width="57.4" height="8.9"/>
				</defs>
				<clipPath id="SVGID_6_">
					<use xlink:href="#SVGID_5_"  style="overflow:visible;"/>
				</clipPath>
				<g class="st11">
					<rect x="30.9" y="149.8" class="st10" width="109.6" height="53.4"/>
				</g>
			</g>
			<rect x="93.5" y="194.7" class="st10" width="36.5" height="8.9"/>
			<g>
				<defs>
					<rect id="SVGID_7_" x="93.5" y="194.7" width="36.5" height="8.9"/>
				</defs>
				<clipPath id="SVGID_8_">
					<use xlink:href="#SVGID_7_"  style="overflow:visible;"/>
				</clipPath>
				<g class="st12">
					<rect x="67.4" y="172.4" class="st10" width="88.7" height="53.4"/>
				</g>
			</g>
			<rect x="57" y="194.7" class="st10" width="20.9" height="8.9"/>
			<g>
				<defs>
					<rect id="SVGID_9_" x="57" y="194.7" width="20.9" height="8.9"/>
				</defs>
				<clipPath id="SVGID_10_">
					<use xlink:href="#SVGID_9_"  style="overflow:visible;"/>
				</clipPath>
				<g class="st13">
					<rect x="30.9" y="172.4" class="st10" width="73.1" height="53.4"/>
				</g>
			</g>
			<rect x="57" y="147.1" class="st10" width="88.7" height="8.9"/>
			<g>
				<defs>
					<rect id="SVGID_11_" x="57" y="147.1" width="88.7" height="8.9"/>
				</defs>
				<clipPath id="SVGID_12_">
					<use xlink:href="#SVGID_11_"  style="overflow:visible;"/>
				</clipPath>
				<g class="st14">
					<rect x="30.9" y="124.9" class="st10" width="140.9" height="53.4"/>
				</g>
			</g>
			<rect x="53.4" y="90.7" class="st1" width="145.9" height="40.8"/>
			<path class="st1" d="M194.3,95.7v30.8H58.4V95.7H194.3 M204.3,85.7H48.4v50.8h155.9V85.7z"/>
			<rect x="55.8" y="93.5" class="st4" width="25.3" height="8.2"/>
			<rect x="84.1" y="93.5" class="st4" width="41.6" height="8.2"/>
			<rect x="128.2" y="93.5" class="st4" width="8.1" height="8.2"/>
			<rect x="138.8" y="93.5" class="st4" width="8.1" height="8.2"/>
			<rect x="55" y="120.4" class="st4" width="127.2" height="8.9"/>
			<g>
				<defs>
					<rect id="SVGID_13_" x="55" y="120.4" width="127.2" height="8.9"/>
				</defs>
				<clipPath id="SVGID_14_">
					<use xlink:href="#SVGID_13_"  style="overflow:visible;"/>
				</clipPath>
				<g class="st15">
					<rect x="28.5" y="98.2" class="st4" width="180.2" height="53.4"/>
				</g>
			</g>
			<rect x="255.2" y="34.4" class="st8" width="58.6" height="58.7"/>
			<rect x="253.7" y="33.6" class="st9" width="61.3" height="60.1"/>
			<rect x="258.7" y="39.9" class="st10" width="19.8" height="2.9"/>
			<rect x="259" y="76.9" class="st10" width="20.9" height="3.2"/>
			<g>
				<defs>
					<rect id="SVGID_15_" x="259" y="76.9" width="20.9" height="3.2"/>
				</defs>
				<clipPath id="SVGID_16_">
					<use xlink:href="#SVGID_15_"  style="overflow:visible;"/>
				</clipPath>
				<g class="st16">
					<rect x="249.5" y="69" class="st10" width="39.9" height="19"/>
				</g>
			</g>
			<rect x="272.4" y="85" class="st10" width="13.3" height="3.2"/>
			<g>
				<defs>
					<rect id="SVGID_17_" x="272.4" y="85" width="13.3" height="3.2"/>
				</defs>
				<clipPath id="SVGID_18_">
					<use xlink:href="#SVGID_17_"  style="overflow:visible;"/>
				</clipPath>
				<g class="st17">
					<rect x="262.9" y="77.1" class="st10" width="32.3" height="19"/>
				</g>
			</g>
			<rect x="259" y="85" class="st10" width="7.6" height="3.2"/>
			<g>
				<defs>
					<rect id="SVGID_19_" x="259" y="85" width="7.6" height="3.2"/>
				</defs>
				<clipPath id="SVGID_20_">
					<use xlink:href="#SVGID_19_"  style="overflow:visible;"/>
				</clipPath>
				<g class="st18">
					<rect x="249.5" y="77.1" class="st10" width="26.6" height="19"/>
				</g>
			</g>
			<rect x="259" y="68.1" class="st10" width="32.3" height="3.2"/>
			<g>
				<defs>
					<rect id="SVGID_21_" x="259" y="68.1" width="32.3" height="3.2"/>
				</defs>
				<clipPath id="SVGID_22_">
					<use xlink:href="#SVGID_21_"  style="overflow:visible;"/>
				</clipPath>
				<g class="st19">
					<rect x="249.5" y="60.2" class="st10" width="51.3" height="19"/>
				</g>
			</g>
			<rect x="262.6" y="51.9" class="st1" width="44.2" height="8.1"/>
			<polygon class="st1" points="311.9,46.9 257.6,46.9 257.6,64.9 311.9,64.9 311.9,46.9 			"/>
			<rect x="258.6" y="49" class="st4" width="9.2" height="2.9"/>
			<rect x="268.9" y="49" class="st4" width="15.1" height="2.9"/>
			<rect x="285" y="49" class="st4" width="3" height="2.9"/>
			<rect x="288.9" y="49" class="st4" width="3" height="2.9"/>
			<rect x="258.3" y="58.6" class="st4" width="46.4" height="3.2"/>
			<g>
				<defs>
					<rect id="SVGID_23_" x="258.3" y="58.6" width="46.4" height="3.2"/>
				</defs>
				<clipPath id="SVGID_24_">
					<use xlink:href="#SVGID_23_"  style="overflow:visible;"/>
				</clipPath>
				<g class="st20">
					<rect x="248.7" y="50.7" class="st4" width="65.7" height="19"/>
				</g>
			</g>
			<rect x="255.2" y="104.1" class="st8" width="58.6" height="58.7"/>
			<rect x="253.7" y="103.3" class="st9" width="61.3" height="60.1"/>
			<rect x="258.7" y="109.6" class="st10" width="19.8" height="2.9"/>
			<rect x="259" y="146.6" class="st10" width="20.9" height="3.2"/>
			<g>
				<defs>
					<rect id="SVGID_25_" x="259" y="146.6" width="20.9" height="3.2"/>
				</defs>
				<clipPath id="SVGID_26_">
					<use xlink:href="#SVGID_25_"  style="overflow:visible;"/>
				</clipPath>
				<g class="st21">
					<rect x="249.5" y="138.7" class="st10" width="39.9" height="19"/>
				</g>
			</g>
			<rect x="272.4" y="154.7" class="st10" width="13.3" height="3.2"/>
			<g>
				<defs>
					<rect id="SVGID_27_" x="272.4" y="154.7" width="13.3" height="3.2"/>
				</defs>
				<clipPath id="SVGID_28_">
					<use xlink:href="#SVGID_27_"  style="overflow:visible;"/>
				</clipPath>
				<g class="st22">
					<rect x="262.9" y="146.8" class="st10" width="32.3" height="19"/>
				</g>
			</g>
			<rect x="259" y="154.7" class="st10" width="7.6" height="3.2"/>
			<g>
				<defs>
					<rect id="SVGID_29_" x="259" y="154.7" width="7.6" height="3.2"/>
				</defs>
				<clipPath id="SVGID_30_">
					<use xlink:href="#SVGID_29_"  style="overflow:visible;"/>
				</clipPath>
				<g class="st23">
					<rect x="249.5" y="146.8" class="st10" width="26.6" height="19"/>
				</g>
			</g>
			<rect x="259" y="137.8" class="st10" width="32.3" height="3.2"/>
			<g>
				<defs>
					<rect id="SVGID_31_" x="259" y="137.8" width="32.3" height="3.2"/>
				</defs>
				<clipPath id="SVGID_32_">
					<use xlink:href="#SVGID_31_"  style="overflow:visible;"/>
				</clipPath>
				<g class="st24">
					<rect x="249.5" y="129.9" class="st10" width="51.3" height="19"/>
				</g>
			</g>
			<rect x="262.6" y="121.6" class="st1" width="44.2" height="8.1"/>
			<polygon class="st1" points="311.9,116.6 257.6,116.6 257.6,134.7 311.9,134.7 311.9,116.6 			"/>
			<rect x="258.6" y="118.7" class="st4" width="9.2" height="2.9"/>
			<rect x="268.9" y="118.7" class="st4" width="15.1" height="2.9"/>
			<rect x="285" y="118.7" class="st4" width="3" height="2.9"/>
			<rect x="288.9" y="118.7" class="st4" width="3" height="2.9"/>
			<rect x="258.3" y="128.3" class="st4" width="46.4" height="3.2"/>
			<g>
				<defs>
					<rect id="SVGID_33_" x="258.3" y="128.3" width="46.4" height="3.2"/>
				</defs>
				<clipPath id="SVGID_34_">
					<use xlink:href="#SVGID_33_"  style="overflow:visible;"/>
				</clipPath>
				<g class="st25">
					<rect x="248.7" y="120.4" class="st4" width="65.7" height="19"/>
				</g>
			</g>
			<rect x="255.2" y="173.8" class="st8" width="58.6" height="58.7"/>
			<rect x="253.7" y="173.1" class="st9" width="61.3" height="60.1"/>
			<rect x="258.7" y="179.4" class="st10" width="19.8" height="2.9"/>
			<rect x="259" y="216.4" class="st10" width="20.9" height="3.2"/>
			<g>
				<defs>
					<rect id="SVGID_35_" x="259" y="216.4" width="20.9" height="3.2"/>
				</defs>
				<clipPath id="SVGID_36_">
					<use xlink:href="#SVGID_35_"  style="overflow:visible;"/>
				</clipPath>
				<g class="st26">
					<rect x="249.5" y="208.5" class="st10" width="39.9" height="19"/>
				</g>
			</g>
			<rect x="272.4" y="224.4" class="st10" width="13.3" height="3.2"/>
			<g>
				<defs>
					<rect id="SVGID_37_" x="272.4" y="224.4" width="13.3" height="3.2"/>
				</defs>
				<clipPath id="SVGID_38_">
					<use xlink:href="#SVGID_37_"  style="overflow:visible;"/>
				</clipPath>
				<g class="st27">
					<rect x="262.9" y="216.5" class="st10" width="32.3" height="19"/>
				</g>
			</g>
			<rect x="259" y="224.4" class="st10" width="7.6" height="3.2"/>
			<g>
				<defs>
					<rect id="SVGID_39_" x="259" y="224.4" width="7.6" height="3.2"/>
				</defs>
				<clipPath id="SVGID_40_">
					<use xlink:href="#SVGID_39_"  style="overflow:visible;"/>
				</clipPath>
				<g class="st28">
					<rect x="249.5" y="216.5" class="st10" width="26.6" height="19"/>
				</g>
			</g>
			<rect x="259" y="207.5" class="st10" width="32.3" height="3.2"/>
			<g>
				<defs>
					<rect id="SVGID_41_" x="259" y="207.5" width="32.3" height="3.2"/>
				</defs>
				<clipPath id="SVGID_42_">
					<use xlink:href="#SVGID_41_"  style="overflow:visible;"/>
				</clipPath>
				<g class="st29">
					<rect x="249.5" y="199.6" class="st10" width="51.3" height="19"/>
				</g>
			</g>
			<rect x="262.6" y="191.3" class="st1" width="44.2" height="8.1"/>
			<polygon class="st1" points="311.9,186.3 257.6,186.3 257.6,204.4 311.9,204.4 311.9,186.3 			"/>
			<rect x="258.6" y="188.4" class="st4" width="9.2" height="2.9"/>
			<rect x="268.9" y="188.4" class="st4" width="15.1" height="2.9"/>
			<rect x="285" y="188.4" class="st4" width="3" height="2.9"/>
			<rect x="288.9" y="188.4" class="st4" width="3" height="2.9"/>
			<rect x="258.3" y="198" class="st4" width="46.4" height="3.2"/>
			<g>
				<defs>
					<rect id="SVGID_43_" x="258.3" y="198" width="46.4" height="3.2"/>
				</defs>
				<clipPath id="SVGID_44_">
					<use xlink:href="#SVGID_43_"  style="overflow:visible;"/>
				</clipPath>
				<g class="st30">
					<rect x="248.7" y="190.1" class="st4" width="65.7" height="19"/>
				</g>
			</g>
		</g>
	</g>
</g>
</svg>
