<?xml version="1.0" encoding="utf-8"?>
<!-- Generator: Adobe Illustrator 23.0.4, SVG Export Plug-In . SVG Version: 6.00 Build 0)  -->
<svg version="1.1" id="Layer_1" xmlns="http://www.w3.org/2000/svg" xmlns:xlink="http://www.w3.org/1999/xlink" x="0px" y="0px"
	 viewBox="0 0 407.4 319.9" style="enable-background:new 0 0 407.4 319.9;" xml:space="preserve">
<style type="text/css">
	.st0{opacity:0;}
	.st1{fill:#001C6B;}
	.st2{fill:#001140;}
	.st3{enable-background:new    ;}
	.st4{fill:#C9DEFE;}
	.st5{fill-rule:evenodd;clip-rule:evenodd;fill:#0E61FF;}
	.st6{clip-path:url(#SVGID_2_);}
	.st7{fill:#0E61FF;}
	.st8{clip-path:url(#SVGID_4_);}
	.st9{fill-rule:evenodd;clip-rule:evenodd;fill:#5A8FDB;}
	.st10{clip-path:url(#SVGID_6_);}
	.st11{fill:#0063FF;}
	.st12{clip-path:url(#SVGID_8_);}
	.st13{fill-rule:evenodd;clip-rule:evenodd;fill:#A6C7FF;}
</style>
<title>Asset 36</title>
<g>
	<g>
		<g id="Layer_1-2">
			<g class="st0">
				<rect x="5" y="5.2" class="st1" width="397.4" height="309.7"/>
				<path class="st2" d="M397.4,10.2v299.7H10V10.2H397.4 M407.4,0.2H0v319.7h407.4C407.4,319.9,407.4,0.2,407.4,0.2z"/>
			</g>
			<g class="st3">
				<path class="st4" d="M49.4,264.4v15.2h-4.1v-15.2h-5.1v-3.6h14.3v3.6H49.4z"/>
				<path class="st4" d="M57.6,279.6v-18.8h12.8v3.6h-8.7v3.8h7.5v3.6h-7.5v4.1h8.7v3.6H57.6z"/>
				<path class="st4" d="M78.3,279.6h-4.1v-18.8h8.9c0.9,0,1.6,0.1,2.3,0.4c0.7,0.3,1.3,0.7,1.8,1.2c0.5,0.5,0.9,1.2,1.1,1.9
					c0.3,0.7,0.4,1.6,0.4,2.5c0,1.3-0.3,2.4-0.9,3.3c-0.6,1-1.4,1.6-2.6,2.1l3.7,7.4h-4.6l-3.3-6.9h-2.9V279.6z M82.6,269.3
					c0.6,0,1.1-0.2,1.4-0.5c0.4-0.3,0.5-0.8,0.5-1.4v-1.2c0-0.6-0.2-1.1-0.5-1.4c-0.4-0.3-0.8-0.5-1.4-0.5h-4.3v4.9H82.6z"/>
				<path class="st4" d="M106.8,267.3L106.8,267.3l-1.5,2.8l-3.7,6.7L98,270l-1.4-3h-0.1v12.6h-3.9v-18.8H97l4.6,8.8h0.1l4.6-8.8
					h4.4v18.8h-3.9V267.3z"/>
				<path class="st4" d="M114.3,279.6v-3.3h2.4V264h-2.4v-3.3h9v3.3h-2.4v12.3h2.4v3.3H114.3z"/>
				<path class="st4" d="M132.7,270.7l-1.8-3.8h-0.1v12.7h-3.9v-18.8h4.5l5.2,8.9l1.8,3.8h0.1v-12.7h3.9v18.8h-4.5L132.7,270.7z"/>
				<path class="st4" d="M158.3,279.6l-1.4-4.5h-6.3l-1.3,4.5h-4.2l6.2-18.8h5.1l6.1,18.8H158.3z M153.9,264.5h-0.1l-2.1,7.2h4.3
					L153.9,264.5z"/>
				<path class="st4" d="M165.5,279.6v-18.8h4.1V276h7.2v3.6H165.5z"/>
				<path class="st4" d="M185.9,279.6v-3.3h2.4V264h-2.4v-3.3h9v3.3h-2.4v12.3h2.4v3.3H185.9z"/>
				<path class="st4" d="M204.3,270.7l-1.8-3.8h-0.1v12.7h-3.9v-18.8h4.5l5.2,8.9l1.8,3.8h0.1v-12.7h3.9v18.8h-4.5L204.3,270.7z"/>
				<path class="st4" d="M226.2,264.4v15.2h-4.1v-15.2H217v-3.6h14.3v3.6H226.2z"/>
				<path class="st4" d="M234.3,279.6v-18.8h12.8v3.6h-8.7v3.8h7.5v3.6h-7.5v4.1h8.7v3.6H234.3z"/>
				<path class="st4" d="M262.9,276.6h-0.1c-0.1,1-0.6,1.7-1.5,2.4s-2,0.9-3.4,0.9c-1.1,0-2.1-0.2-3-0.6c-0.9-0.4-1.8-1-2.5-1.8
					c-0.7-0.8-1.3-1.8-1.6-3c-0.4-1.2-0.6-2.6-0.6-4.2s0.2-3,0.6-4.2c0.4-1.2,1-2.2,1.7-3.1c0.7-0.8,1.6-1.5,2.7-1.9
					c1-0.4,2.2-0.6,3.5-0.6c1.7,0,3.1,0.4,4.4,1.1c1.2,0.7,2.2,1.8,2.9,3.3l-3.3,1.9c-0.3-0.7-0.7-1.4-1.3-1.9
					c-0.6-0.5-1.5-0.8-2.6-0.8c-1.3,0-2.3,0.4-3.1,1.1s-1.1,1.9-1.1,3.5v3c0,1.6,0.4,2.7,1.1,3.5s1.8,1.1,3.1,1.1
					c0.5,0,1-0.1,1.4-0.2s0.8-0.3,1.2-0.5c0.3-0.2,0.6-0.5,0.8-0.9s0.3-0.7,0.3-1.2v-0.9H259v-3.4h7.4v10.5h-3.5V276.6z"/>
				<path class="st4" d="M274.7,279.6h-4.1v-18.8h8.9c0.9,0,1.6,0.1,2.3,0.4c0.7,0.3,1.3,0.7,1.8,1.2c0.5,0.5,0.9,1.2,1.1,1.9
					c0.3,0.7,0.4,1.6,0.4,2.5c0,1.3-0.3,2.4-0.9,3.3s-1.4,1.6-2.6,2.1l3.7,7.4H281l-3.3-6.9h-2.9V279.6z M279,269.3
					c0.6,0,1.1-0.2,1.4-0.5c0.4-0.3,0.5-0.8,0.5-1.4v-1.2c0-0.6-0.2-1.1-0.5-1.4c-0.4-0.3-0.8-0.5-1.4-0.5h-4.3v4.9H279z"/>
			</g>
			<g class="st3">
				<path class="st4" d="M302.7,279.6l-1.4-4.5H295l-1.3,4.5h-4.2l6.2-18.8h5.1l6.1,18.8H302.7z M298.2,264.5h-0.1l-2.1,7.2h4.3
					L298.2,264.5z"/>
			</g>
			<g class="st3">
				<path class="st4" d="M316.1,264.4v15.2H312v-15.2h-5.1v-3.6h14.3v3.6H316.1z"/>
			</g>
			<g class="st3">
				<path class="st4" d="M323.5,279.6v-3.3h2.4V264h-2.4v-3.3h9v3.3H330v12.3h2.4v3.3H323.5z"/>
				<path class="st4" d="M343.7,279.9c-1.2,0-2.4-0.2-3.4-0.6s-1.9-1-2.6-1.8s-1.3-1.8-1.7-3.1c-0.4-1.2-0.6-2.6-0.6-4.2
					c0-1.6,0.2-3,0.6-4.2c0.4-1.2,1-2.2,1.7-3.1s1.6-1.4,2.6-1.8s2.2-0.6,3.4-0.6c1.2,0,2.4,0.2,3.4,0.6c1,0.4,1.9,1,2.6,1.8
					s1.3,1.8,1.7,3.1s0.6,2.6,0.6,4.2c0,1.6-0.2,3-0.6,4.2s-1,2.2-1.7,3.1s-1.6,1.4-2.6,1.8C346.1,279.7,344.9,279.9,343.7,279.9z
					 M343.7,276.3c1.2,0,2.2-0.4,2.9-1.2c0.7-0.8,1-2,1-3.5v-2.8c0-1.5-0.3-2.7-1-3.5c-0.7-0.8-1.7-1.2-2.9-1.2
					c-1.2,0-2.2,0.4-2.9,1.2c-0.7,0.8-1,2-1,3.5v2.8c0,1.5,0.3,2.7,1,3.5C341.5,275.9,342.5,276.3,343.7,276.3z"/>
				<path class="st4" d="M361.4,270.7l-1.8-3.8h-0.1v12.7h-3.9v-18.8h4.5l5.2,8.9l1.8,3.8h0.1v-12.7h3.9v18.8h-4.5L361.4,270.7z"/>
			</g>
			
				<image style="overflow:visible;opacity:0.3;enable-background:new    ;" width="237" height="237" xlink:href="4464A11D23717F92.png"  transform="matrix(1 0 0 1 109.64 0)">
			</image>
			<path class="st5" d="M194.5,114.7l18.1,18.2l-18.1,18.2l9.1,9l27.2-27.2l-27.2-27.2L194.5,114.7z M164,177.8V88h128.3v89.8H164z
				 M292.3,49.5v25.7H164V49.5H292.3z M292.3,36.7H164c-7.1,0-12.8,5.7-12.9,12.8c0,0,0,0,0,0v128.3c0,7.1,5.7,12.8,12.8,12.8
				c0,0,0,0,0,0h128.3c7.1,0,12.8-5.7,12.8-12.8V49.5C305.1,42.4,299.3,36.7,292.3,36.7z"/>
			<g>
				<defs>
					<path id="SVGID_1_" d="M194.5,114.7l18.1,18.2l-18.1,18.2l9.1,9l27.2-27.2l-27.2-27.2L194.5,114.7z M164,177.8V88h128.3v89.8
						H164z M292.3,49.5v25.7H164V49.5H292.3z M292.3,36.7H164c-7.1,0-12.8,5.7-12.9,12.8c0,0,0,0,0,0v128.3
						c0,7.1,5.7,12.8,12.8,12.8c0,0,0,0,0,0h128.3c7.1,0,12.8-5.7,12.8-12.8V49.5C305.1,42.4,299.3,36.7,292.3,36.7z"/>
				</defs>
				<clipPath id="SVGID_2_">
					<use xlink:href="#SVGID_1_"  style="overflow:visible;"/>
				</clipPath>
				<g class="st6">
					<rect x="125.5" y="10.9" class="st7" width="205.3" height="205.3"/>
					<g>
						<defs>
							<rect id="SVGID_3_" x="125.5" y="10.9" width="205.3" height="205.3"/>
						</defs>
						<clipPath id="SVGID_4_">
							<use xlink:href="#SVGID_3_"  style="overflow:visible;"/>
						</clipPath>
						<g class="st8">
							<rect x="124.1" y="9.6" class="st7" width="208.1" height="208.1"/>
							<path class="st2" d="M327.2,14.6v198.1H129.1V14.6H327.2 M337.2,4.6H119.1v218.1h218.1C337.2,222.7,337.2,4.6,337.2,4.6z"/>
						</g>
					</g>
				</g>
			</g>
			<path class="st9" d="M150.7,209.4v20c0,5.5,4.5,10,10,10h20c5.5,0,10-4.5,10-10v-20c0-5.5-4.5-10-10-10h-20
				C155.1,199.4,150.7,203.8,150.7,209.4z M180.7,209.4v20h-20v-20H180.7z M100.7,209.4v20c0,5.5,4.5,10,10,10h20
				c5.5,0,10-4.5,10-10v-20c0-5.5-4.5-10-10-10h-20C105.2,199.4,100.7,203.8,100.7,209.4L100.7,209.4z M130.7,209.4v20h-20v-20
				H130.7z M100.7,159.4v20c0,5.5,4.5,10,10,10h20c5.5,0,10-4.5,10-10v-20c0-5.5-4.5-10-10-10h-20
				C105.2,149.4,100.7,153.9,100.7,159.4L100.7,159.4z M130.7,159.4v20h-20v-20H130.7z"/>
			<g>
				<defs>
					<path id="SVGID_5_" d="M150.7,209.4v20c0,5.5,4.5,10,10,10h20c5.5,0,10-4.5,10-10v-20c0-5.5-4.5-10-10-10h-20
						C155.1,199.4,150.7,203.8,150.7,209.4z M180.7,209.4v20h-20v-20H180.7z M100.7,209.4v20c0,5.5,4.5,10,10,10h20
						c5.5,0,10-4.5,10-10v-20c0-5.5-4.5-10-10-10h-20C105.2,199.4,100.7,203.8,100.7,209.4L100.7,209.4z M130.7,209.4v20h-20v-20
						H130.7z M100.7,159.4v20c0,5.5,4.5,10,10,10h20c5.5,0,10-4.5,10-10v-20c0-5.5-4.5-10-10-10h-20
						C105.2,149.4,100.7,153.9,100.7,159.4L100.7,159.4z M130.7,159.4v20h-20v-20H130.7z"/>
				</defs>
				<clipPath id="SVGID_6_">
					<use xlink:href="#SVGID_5_"  style="overflow:visible;"/>
				</clipPath>
				<g class="st10">
					<polyline class="st11" points="240.6,99.4 240.6,259.3 80.7,259.3 80.7,99.4 					"/>
					<g>
						<defs>
							<polyline id="SVGID_7_" points="240.6,99.4 240.6,259.3 80.7,259.3 80.7,99.4 							"/>
						</defs>
						<clipPath id="SVGID_8_">
							<use xlink:href="#SVGID_7_"  style="overflow:visible;"/>
						</clipPath>
						<g class="st12">
							<polyline class="st11" points="75.7,94.4 75.7,264.3 245.6,264.3 245.6,94.4 							"/>
						</g>
					</g>
				</g>
			</g>
			<polygon class="st13" points="194.5,114.7 212.6,132.9 194.5,151.1 203.6,160.1 230.7,132.9 203.6,105.7 			"/>
		</g>
	</g>
</g>
</svg>
