<svg xmlns="http://www.w3.org/2000/svg" xmlns:xlink="http://www.w3.org/1999/xlink" viewBox="0 0 1126.32 313.7"><defs><style>.cls-1{fill:#001140;opacity:0;}.cls-2{font-size:87.88px;font-family:IBMPlexSans-Medium, IBM Plex Sans;font-weight:500;}.cls-2,.cls-9{fill:#fff;}.cls-3{font-size:44px;font-weight:400;}.cls-10,.cls-3{font-family:IBMPlexSans, IBM Plex Sans;}.cls-4{font-size:45px;letter-spacing:0em;}.cls-5{letter-spacing:-0.01em;}.cls-6{letter-spacing:0em;}.cls-7{letter-spacing:0em;}.cls-8{fill:url(#linear-gradient);}.cls-10{font-size:42px;fill:#77a8ff;}.cls-11{letter-spacing:0em;}.cls-12{letter-spacing:-0.01em;}.cls-13{letter-spacing:-0.01em;}.cls-14{letter-spacing:0em;}</style><linearGradient id="linear-gradient" x1="22" y1="2638.55" x2="135.68" y2="2524.86" gradientTransform="matrix(1, 0, 0, -1, 0, 2765.29)" gradientUnits="userSpaceOnUse"><stop offset="0.7" stop-color="#fff"/><stop offset="1" stop-color="#fff" stop-opacity="0"/></linearGradient></defs><title>Asset 3</title><g id="Layer_2" data-name="Layer 2"><g id="Layer_1-2" data-name="Layer 1"><rect class="cls-1" width="1126.32" height="313.7"/><text class="cls-2" transform="translate(259.74 139.04)">IBM Z<tspan class="cls-3" x="238.68" y="-34.7">®</tspan><tspan class="cls-4" x="259.63" y="0"> </tspan><tspan x="270.25" y="0">Open </tspan><tspan class="cls-5" x="505.42" y="0">E</tspan><tspan class="cls-6" x="556.65" y="0">di</tspan><tspan class="cls-7" x="631.96" y="0">t</tspan><tspan x="663.69" y="0">or</tspan></text><path class="cls-8" d="M55.81,106.17H42.57V199a6.62,6.62,0,0,0,3.31,5.74l79.32,46.22,6.62-11.47L55.7,195.09V106.17Z"/><path class="cls-9" d="M211.47,100.43,132.15,54.21a6.49,6.49,0,0,0-6.62,0L98.94,69.54a6.64,6.64,0,0,0-3.31,5.74v57.48h13.24V79.14l20-11.47L201.54,110v35.86h13.24V106.17A7,7,0,0,0,211.47,100.43Z"/><rect class="cls-9" x="69.05" y="86.31" width="13.24" height="66.19"/><polygon class="cls-9" points="192.83 158.9 183.45 168.28 207.17 192 183.45 215.72 192.83 225.1 225.92 192 192.83 158.9"/><polygon class="cls-9" points="153.11 158.9 120.01 192 153.11 225.1 162.38 215.72 138.66 192 162.38 168.28 153.11 158.9"/><text class="cls-10" transform="translate(254.16 194.57)">A f<tspan class="cls-11" x="50.44" y="0">r</tspan><tspan x="65.64" y="0">ee modern editing </tspan><tspan class="cls-12" x="417.56" y="0">e</tspan><tspan x="440.11" y="0">xperien</tspan><tspan class="cls-13" x="581.65" y="0">c</tspan><tspan x="602.52" y="0">e </tspan><tspan class="cls-14" x="635.49" y="0">f</tspan><tspan x="648.93" y="0">or </tspan><tspan x="0" y="44">IBM Z En</tspan><tspan class="cls-14" x="170.85" y="44">t</tspan><tspan x="185.43" y="44">erprise lan</tspan><tspan class="cls-14" x="385.3" y="44">g</tspan><tspan x="407.31" y="44">ua</tspan><tspan class="cls-13" x="453.59" y="44">g</tspan><tspan x="475.52" y="44">es</tspan></text></g></g></svg>