<svg id="Layer_1" data-name="Layer 1" xmlns="http://www.w3.org/2000/svg" xmlns:xlink="http://www.w3.org/1999/xlink" viewBox="0 0 128 128"><defs><style>.cls-1{fill:#fff;}.cls-2{fill:url(#linear-gradient);}.cls-3{fill:#231f20;}.cls-4{fill:#f4f4f4;}.cls-5{mask:url(#mask);}.cls-6{fill:url(#linear-gradient-2);}</style><linearGradient id="linear-gradient" x1="79.53" y1="130.54" x2="94.99" y2="139.47" gradientTransform="matrix(0.5, 1.56, -0.87, 0.9, 124.37, -144.26)" gradientUnits="userSpaceOnUse"><stop offset="0" stop-opacity="0"/><stop offset="0.9"/></linearGradient><mask id="mask" x="0" y="0" width="128" height="128" maskUnits="userSpaceOnUse"><path class="cls-1" d="M116,60h-8V38.3L64,12.64,52,19.71V48H44V17.42A4,4,0,0,1,46,14L62,4.55a4,4,0,0,1,4,0l48,28A4,4,0,0,1,116,36Z"/><rect class="cls-1" x="28" y="24" width="8" height="40"/><path class="cls-1" d="M62,123.46l-48-28A4,4,0,0,1,12,92V36h8V89.7l46,26.84Z"/><rect class="cls-2" x="44.99" y="98" width="12.2" height="32.25" transform="translate(-73.29 101.3) rotate(-60)"/></mask><linearGradient id="linear-gradient-2" y1="128" x2="128" gradientUnits="userSpaceOnUse"><stop offset="0.1" stop-color="#b98cfd"/><stop offset="0.9" stop-color="#418afc"/></linearGradient></defs><title>AltBack_128x128</title><rect class="cls-3" width="128" height="128" rx="15"/><path class="cls-4" d="M102.08,84h0s-.72,0-1.5,0a19,19,0,0,0-7.52,2.25,36.64,36.64,0,0,0-4.87,3.52A9.9,9.9,0,0,1,82,92,10,10,0,1,1,92,82c0,.15,0,.29,0,.45a21.92,21.92,0,0,1,7.85-2.38A18,18,0,1,0,82,100l.43,0h0s.77,0,1.45-.06a21.73,21.73,0,0,0,7.71-2.53A29.38,29.38,0,0,0,96.08,94v.14A9.89,9.89,0,1,1,92,102c0-.06,0-.11,0-.17a19,19,0,0,1-7.82,2A18,18,0,1,0,102.08,84Z"/><g class="cls-5"><rect class="cls-6" width="128" height="128"/></g></svg>