<svg xmlns="http://www.w3.org/2000/svg" xmlns:xlink="http://www.w3.org/1999/xlink" viewBox="0 0 32 32"><defs><style>.cls-1{fill:#fff}.cls-2{fill:url(#linear-gradient)}.cls-3{fill:#061f80}.cls-4{mask:url(#mask)}.cls-5{fill:url(#linear-gradient-2)}</style><linearGradient id="linear-gradient" x1="-32.89" x2="-29.02" y1="2.17" y2="4.4" gradientTransform="matrix(0.5, 1.56, -0.87, 0.9, 31.09, 73.98)" gradientUnits="userSpaceOnUse"><stop offset="0" stop-opacity="0"/><stop offset=".9"/></linearGradient><mask id="mask" width="32" height="32" x="0" y="0" maskUnits="userSpaceOnUse"><path d="M29,15H27V9.57L16,3.16,13,4.93V12H11V4.35a1,1,0,0,1,.49-.86l4-2.35a1,1,0,0,1,1,0l12,7A1,1,0,0,1,29,9Z" class="cls-1"/><rect width="2" height="10" x="7" y="6" class="cls-1"/><path d="M15.5,30.86l-12-7A1,1,0,0,1,3,23V9H5V22.43l11.5,6.71Z" class="cls-1"/><rect width="3.05" height="8.06" x="11.25" y="24.5" class="cls-2" transform="translate(-18.32 25.33) rotate(-60)"/></mask><linearGradient id="linear-gradient-2" x2="32" y1="32" gradientUnits="userSpaceOnUse"><stop offset=".1" stop-color="#b98cfd"/><stop offset=".9" stop-color="#418afc"/></linearGradient></defs><title>app-icon-light-</title><g id="Modifier"><path d="M25.52,21h-.38a4.42,4.42,0,0,0-1.87.56,8.46,8.46,0,0,0-1.22.88A2.49,2.49,0,1,1,23,20.5s0,.07,0,.11A5.33,5.33,0,0,1,25,20a4.49,4.49,0,1,0-4.45,5h.11L21,25a5.48,5.48,0,0,0,1.93-.63A7.41,7.41,0,0,0,24,23.49v0a1.64,1.64,0,0,1,.26-.2A2.4,2.4,0,0,1,25.5,23,2.5,2.5,0,1,1,23,25.5v0a4.78,4.78,0,0,1-1.95.51,4.49,4.49,0,1,0,4.47-5Z" class="cls-3"/></g><g id="_15_grid" data-name="15° grid"><g class="cls-4"><rect width="32" height="32" class="cls-5"/></g></g></svg>