<svg xmlns="http://www.w3.org/2000/svg" xmlns:xlink="http://www.w3.org/1999/xlink" viewBox="0 0 32 32"><defs><style>.cls-1{fill:#fff;}.cls-2{fill:url(#linear-gradient);}.cls-3{mask:url(#mask);}.cls-4{fill:url(#linear-gradient-2);}.cls-5{fill:#061f80;}</style><linearGradient id="linear-gradient" x1="-32.89" y1="2.17" x2="-29.02" y2="4.4" gradientTransform="matrix(0.5, 1.56, -0.87, 0.9, 31.09, 73.98)" gradientUnits="userSpaceOnUse"><stop offset="0" stop-opacity="0"/><stop offset="0.9"/></linearGradient><mask id="mask" x="0" y="0" width="32" height="32" maskUnits="userSpaceOnUse"><path class="cls-1" d="M29,15H27V9.57L16,3.16,13,4.93V12H11V4.35a1,1,0,0,1,.49-.86l4-2.35a1,1,0,0,1,1,0l12,7A1,1,0,0,1,29,9Z"/><rect class="cls-1" x="7" y="6" width="2" height="10"/><path class="cls-1" d="M15.5,30.86l-12-7A1,1,0,0,1,3,23V9H5V22.43l11.5,6.71Z"/><rect class="cls-2" x="11.25" y="24.5" width="3.05" height="8.06" transform="translate(-18.32 25.33) rotate(-60)"/></mask><linearGradient id="linear-gradient-2" y1="32" x2="32" gradientUnits="userSpaceOnUse"><stop offset="0.1" stop-color="#b98cfd"/><stop offset="0.9" stop-color="#418afc"/></linearGradient></defs><title>app-icon-light-</title><g id="Layer_7" data-name="Layer 7"><g class="cls-3"><rect class="cls-4" width="32" height="32"/></g><polygon class="cls-5" points="25 17 23.59 18.41 27.17 22 23.59 25.59 25 27 30 22 25 17"/><polygon class="cls-5" points="19 17 20.41 18.41 16.83 22 20.41 25.59 19 27 14 22 19 17"/></g></svg>