<svg xmlns="http://www.w3.org/2000/svg" xmlns:xlink="http://www.w3.org/1999/xlink" viewBox="0 0 32 32"><defs><style>.cls-1{fill:#fff;}.cls-2{fill:url(#linear-gradient);}.cls-3{fill:#061f80;}.cls-4{mask:url(#mask);}.cls-5{fill:url(#linear-gradient-2);}</style><linearGradient id="linear-gradient" x1="-32.89" y1="2.17" x2="-29.02" y2="4.4" gradientTransform="matrix(0.5, 1.56, -0.87, 0.9, 31.09, 73.98)" gradientUnits="userSpaceOnUse"><stop offset="0" stop-opacity="0"/><stop offset="0.9"/></linearGradient><mask id="mask" x="0" y="0" width="32" height="32" maskUnits="userSpaceOnUse"><path class="cls-1" d="M29,15H27V9.57L16,3.16,13,4.93V12H11V4.35a1,1,0,0,1,.49-.86l4-2.35a1,1,0,0,1,1,0l12,7A1,1,0,0,1,29,9Z"/><rect class="cls-1" x="7" y="6" width="2" height="10"/><path class="cls-1" d="M15.5,30.86l-12-7A1,1,0,0,1,3,23V9H5V22.43l11.5,6.71Z"/><rect class="cls-2" x="11.25" y="24.5" width="3.05" height="8.06" transform="translate(-18.32 25.33) rotate(-60)"/></mask><linearGradient id="linear-gradient-2" y1="32" x2="32" gradientUnits="userSpaceOnUse"><stop offset="0.1" stop-color="#b98cfd"/><stop offset="0.9" stop-color="#418afc"/></linearGradient></defs><title>app-icon-light-</title><g id="Modifier"><path class="cls-3" d="M22.9,30.1a7.46,7.46,0,0,1-2-.27l.52-1.93A5.56,5.56,0,0,0,23.9,28h0l.18,0,.14,1,.42.9-.24.08A8,8,0,0,1,22.9,30.1Zm3.77-1-1-1.74a5.64,5.64,0,0,0,1.91-1.79l1.67,1.1A7.63,7.63,0,0,1,26.67,29.1Zm-7.93-.24a7.69,7.69,0,0,1-2.43-2.58l1.73-1a5.71,5.71,0,0,0,1.79,1.9Zm11.5-4.35L28.31,24a5.68,5.68,0,0,0,.2-1.48,6.1,6.1,0,0,0-.11-1.13L29.66,21l.69-.1a7.72,7.72,0,0,1,.16,1.56A7.61,7.61,0,0,1,30.24,24.51Zm-14.77-.43V24a7.55,7.55,0,0,1,.1-3.51l1.93.53a5.37,5.37,0,0,0-.19,1.44,6.1,6.1,0,0,0,.11,1.13Zm12.28-4.41a5.64,5.64,0,0,0-1.81-1.89L27,16.1a7.69,7.69,0,0,1,2.45,2.56Zm-9.55-.24-1.67-1.09a7.75,7.75,0,0,1,2.56-2.44l1,1.73A5.74,5.74,0,0,0,18.2,19.43Zm6.14-2.36A5.54,5.54,0,0,0,21.78,17l-.48-1.94.09,0a7.69,7.69,0,0,1,3.47.1Z"/></g><g id="_15_grid" data-name="15° grid"><g class="cls-4"><rect class="cls-5" width="32" height="32"/></g></g></svg>