<svg id="Layer_1" data-name="Layer 1" xmlns="http://www.w3.org/2000/svg" xmlns:xlink="http://www.w3.org/1999/xlink" viewBox="0 0 128 128"><defs><style>.cls-1{fill:#fff;}.cls-2{fill:url(#linear-gradient);}.cls-3{fill:#231f20;}.cls-4{fill:#f4f4f4;}.cls-5{mask:url(#mask);}.cls-6{fill:url(#linear-gradient-2);}</style><linearGradient id="linear-gradient" x1="79.53" y1="130.54" x2="94.99" y2="139.47" gradientTransform="matrix(0.5, 1.56, -0.87, 0.9, 124.37, -144.26)" gradientUnits="userSpaceOnUse"><stop offset="0" stop-opacity="0"/><stop offset="0.9"/></linearGradient><mask id="mask" x="0" y="0" width="128" height="128" maskUnits="userSpaceOnUse"><path class="cls-1" d="M116,60h-8V38.3L64,12.64,52,19.71V48H44V17.42A4,4,0,0,1,46,14L62,4.55a4,4,0,0,1,4,0l48,28A4,4,0,0,1,116,36Z"/><rect class="cls-1" x="28" y="24" width="8" height="40"/><path class="cls-1" d="M62,123.46l-48-28A4,4,0,0,1,12,92V36h8V89.7l46,26.84Z"/><rect class="cls-2" x="44.99" y="98" width="12.2" height="32.25" transform="translate(-73.29 101.3) rotate(-60)"/></mask><linearGradient id="linear-gradient-2" y1="128" x2="128" gradientUnits="userSpaceOnUse"><stop offset="0.1" stop-color="#b98cfd"/><stop offset="0.9" stop-color="#418afc"/></linearGradient></defs><title>AltBack_128x128</title><rect class="cls-3" width="128" height="128" rx="15"/><path class="cls-4" d="M91.59,120.39a30.24,30.24,0,0,1-8-1.07l2.1-7.71a22.23,22.23,0,0,0,9.88.41l.09,0,.72-.11,2.28,7.56-1,.34A31,31,0,0,1,91.59,120.39Zm15.1-4-4-6.94a22.69,22.69,0,0,0,7.62-7.16l6.68,4.4A30.57,30.57,0,0,1,106.69,116.39Zm-31.73-1a30.47,30.47,0,0,1-9.73-10.31l6.93-4a22.6,22.6,0,0,0,7.18,7.6ZM121,98l-7.71-2.13a22,22,0,0,0,.81-5.92,23.37,23.37,0,0,0-.46-4.53l7.81-1.69a30.59,30.59,0,0,1,.65,6.22A30,30,0,0,1,121,98ZM61.87,96.3l0-.21a31,31,0,0,1-.63-6.16,30.39,30.39,0,0,1,1-7.88L70,84.14a22.28,22.28,0,0,0-.31,10.31ZM111,78.67a22.5,22.5,0,0,0-7.23-7.55l4.34-6.72a30.5,30.5,0,0,1,9.8,10.25Zm-38.19-.93L66.1,73.38a30.56,30.56,0,0,1,10.28-9.76l4,6.92A22.6,22.6,0,0,0,72.81,77.74Zm24.56-9.46A22.56,22.56,0,0,0,87.13,68l-1.92-7.77.37-.08a30.76,30.76,0,0,1,13.85.41Z"/><g class="cls-5"><rect class="cls-6" width="128" height="128"/></g></svg>
