<svg xmlns="http://www.w3.org/2000/svg" xmlns:xlink="http://www.w3.org/1999/xlink" id="Layer_1" data-name="Layer 1" viewBox="0 0 128 128"><defs><style>.cls-1{fill:#fff}.cls-2{fill:url(#linear-gradient)}.cls-3{fill:#231f20}.cls-4{mask:url(#mask)}.cls-5{fill:url(#linear-gradient-2)}.cls-6{fill:#f4f4f4}</style><linearGradient id="linear-gradient" x1="79.53" x2="94.99" y1="130.54" y2="139.47" gradientTransform="matrix(0.5, 1.56, -0.87, 0.9, 124.37, -144.26)" gradientUnits="userSpaceOnUse"><stop offset="0" stop-opacity="0"/><stop offset=".9"/></linearGradient><mask id="mask" width="128" height="128" x="0" y="0" maskUnits="userSpaceOnUse"><path d="M116,60h-8V38.3L64,12.64,52,19.71V48H44V17.42A4,4,0,0,1,46,14L62,4.55a4,4,0,0,1,4,0l48,28A4,4,0,0,1,116,36Z" class="cls-1"/><rect width="8" height="40" x="28" y="24" class="cls-1"/><path d="M62,123.46l-48-28A4,4,0,0,1,12,92V36h8V89.7l46,26.84Z" class="cls-1"/><rect width="12.2" height="32.25" x="44.99" y="98" class="cls-2" transform="translate(-73.29 101.3) rotate(-60)"/></mask><linearGradient id="linear-gradient-2" x2="128" y1="128" gradientUnits="userSpaceOnUse"><stop offset=".1" stop-color="#b98cfd"/><stop offset=".9" stop-color="#418afc"/></linearGradient></defs><title>AltBack_128x128</title><rect width="128" height="128" class="cls-3" rx="15"/><g class="cls-4"><rect width="128" height="128" class="cls-5"/></g><polygon points="100 68 94.34 73.66 108.69 88 94.34 102.34 100 108 120 88 100 68" class="cls-6"/><polygon points="76 68 81.66 73.66 67.31 88 81.66 102.34 76 108 56 88 76 68" class="cls-6"/></svg>