<svg xmlns="http://www.w3.org/2000/svg" xmlns:xlink="http://www.w3.org/1999/xlink" width="1440" height="654" version="1.1" viewBox="0 0 1440 654"><title>EC7A83E9-9264-420E-8EFE-3E3DFCBAAFC0</title><desc>Created with sketchtool.</desc><defs><polygon id="path-1" points=".14 0 1961 0 1961 771.86 .14 771.86"/><linearGradient id="linearGradient-3" x1="28.747%" x2="28.747%" y1="120.922%" y2="67.505%"><stop offset="0%" stop-color="#3F85FF"/><stop offset="100%" stop-color="#054ADA"/></linearGradient><path id="path-4" d="M91.1646157,595 C197.505791,557.666667 398.198908,554.333333 693.243966,585 C1112.13261,628.538836 1225.54208,653 1392,653 C1617.03472,653 1870.63368,630.333333 2152.79688,585 L2125,-194.688047 L212.643733,-194.688047 L91.1646157,595 Z"/><polygon id="path-6" points="641.142 .615 211.926 125.078 0 561.528 239.643 148.435 641.266 .615"/><polygon id="path-8" points="214.084 370.625 .536 449.096 51.46 449.096 241.848 393.978 428.904 9.366 428.904 .928"/></defs><g id="Welcome" fill="none" fill-rule="evenodd" stroke="none" stroke-width="1"><g id="desktop1440"><g id="Group" transform="translate(-154.000000, 1.000000)"><g id="Group-4"><mask id="mask-2" fill="#fff"><use xlink:href="#path-1"/></mask><path id="Fill-1" fill="url(#linearGradient-3)" d="M0,633.015625 C17.4010417,575.671875 188.401042,555.749667 513,573.249 C862.160733,592.072474 1071.54208,653 1238,653 C1463.03472,653 1716.63368,630.333333 1998.79688,585 L1971,-194.688047 L58.6437331,-194.688047 L0,633.015625 Z" mask="url(#mask-2)"/><mask id="mask-5" fill="#fff"><use xlink:href="#path-4"/></mask><g id="Group-30" mask="url(#mask-5)" opacity=".154"><g transform="translate(153.000000, -20.000000)"><polygon id="Fill-1" fill="#C6C5C9" points="0 0 0 561 212 124.482 2.785 0"/><g id="Group-4" fill="none" stroke-width="1"><mask id="mask-7" fill="#fff"><use xlink:href="#path-6"/></mask><polygon id="Fill-2" points="641.142 .615 211.926 125.078 0 561.528 239.643 148.435 641.266 .615" mask="url(#mask-7)"/></g><polygon id="Fill-5" fill="#9FA0A3" points="3 0 212.352 124 642 0"/><polygon id="Fill-6" fill="#939597" points="0 561.272 338.444 671 475 390"/><polygon id="Fill-7" fill="#A6A8AB" points="0 561 324 444.194 240.065 148"/><polygon id="Fill-8" fill="#D0D2D3" points="643.209 0 240 148.022 475.283 390 647 0"/><polygon id="Fill-9" fill="#E5E6E7" points="646.368 0 475 390 739 246.669 647.71 0"/><polygon id="Fill-10" fill="#D0D2D3" points="337 675 587 675 475.294 390"/><polygon id="Fill-11" fill="#F0F0F1" points="785 368 674.27 660 475 389.247"/><polygon id="Fill-12" fill="#C6C5C9" points="1275 619.159 1338.166 675 1461 675 1461 232"/><g id="Group-15" fill="none" stroke-width="1" transform="translate(1032.000000, 226.000000)"><mask id="mask-9" fill="#fff"><use xlink:href="#path-8"/></mask><polygon id="Fill-13" points="214.084 370.625 .536 449.096 51.46 449.096 241.848 393.978 428.904 9.366 428.904 .928" mask="url(#mask-9)"/></g><polygon id="Fill-16" fill="#808184" points="1315 0 1461 156 1461 0"/><polygon id="Fill-17" fill="#939597" points="1315.075 0 1009 354 1461 192.109 1461 156.138 1315.37 0"/><polygon id="Fill-18" fill="#A6A8AB" points="1011 355.356 1246.251 597 1461 227.252 1461 193"/><polygon id="Fill-19" fill="#D0D2D3" points="868 675 1029.26 675 1244 596.026 1009.082 354"/><polygon id="Fill-20" fill="#E5E6E7" points="785 368 1009 354.152 886.014 170"/><polygon id="Fill-21" fill="#D0D2D3" points="972 0 1008.996 354 1224 105.643 972.374 0"/><polygon id="Fill-22" fill="#F0F0F1" points="648 0 784.935 368 919 105.684 651.573 0"/><polygon id="Fill-23" fill="#D0D2D3" points="669 675 831 675 785.039 368"/><polygon id="Fill-24" fill="#E5E6E7" points="830.481 675 867.032 675 966 450.273 785 365"/><polygon id="Fill-25" fill="#D0D2D3" points="650 0 918.818 106 972 0"/><polygon id="Fill-26" fill="#808184" points="0 675 148 675 0 561"/><polygon id="Fill-27" fill="#9FA0A3" points="1085 675 1339 675 1276.648 620"/><polygon id="Fill-28" fill="#C6C5C9" points="972 0 1223.566 106 1315 0"/><polygon id="Fill-29" fill="#6C6E70" points="116.754 675 332.631 675 338 670.89 0 561"/></g></g></g></g></g></g></svg>