<?xml version="1.0" encoding="UTF-8"?>
<svg width="1440px" height="654px" viewBox="0 0 1440 654" version="1.1" xmlns="http://www.w3.org/2000/svg" xmlns:xlink="http://www.w3.org/1999/xlink">
    <!-- Generator: sketchtool 52.5 (67469) - http://www.bohemiancoding.com/sketch -->
    <title>EC7A83E9-9264-420E-8EFE-3E3DFCBAAFC0</title>
    <desc>Created with sketchtool.</desc>
    <defs>
        <polygon id="path-1" points="0.140003924 0 1961 0 1961 771.860005 0.140003924 771.860005"></polygon>
        <linearGradient x1="28.7465981%" y1="120.922309%" x2="28.7465981%" y2="67.505389%" id="linearGradient-3">
            <stop stop-color="#3F85FF" offset="0%"></stop>
            <stop stop-color="#054ADA" offset="100%"></stop>
        </linearGradient>
        <path d="M91.1646157,595 C197.505791,557.666667 398.198908,554.333333 693.243966,585 C1112.13261,628.538836 1225.54208,653 1392,653 C1617.03472,653 1870.63368,630.333333 2152.79688,585 L2125,-194.688047 L212.643733,-194.688047 L91.1646157,595 Z" id="path-4"></path>
        <polygon id="path-6" points="641.141816 0.614827586 211.92551 125.077931 0 561.527586 239.642878 148.434828 641.266286 0.614827586"></polygon>
        <polygon id="path-8" points="214.083894 370.62487 0.536166667 449.096 51.4595909 449.096 241.848379 393.978203 428.904379 9.36550725 428.904379 0.928173913"></polygon>
    </defs>
    <g id="Welcome" stroke="none" stroke-width="1" fill="none" fill-rule="evenodd">
        <g id="desktop1440">
            <g id="Group" transform="translate(-154.000000, 1.000000)">
                <g id="Group-4">
                    <mask id="mask-2" fill="white">
                        <use xlink:href="#path-1"></use>
                    </mask>
                    <g id="Clip-2"></g>
                    <path d="M0,633.015625 C17.4010417,575.671875 188.401042,555.749667 513,573.249 C862.160733,592.072474 1071.54208,653 1238,653 C1463.03472,653 1716.63368,630.333333 1998.79688,585 L1971,-194.688047 L58.6437331,-194.688047 L0,633.015625 Z" id="Fill-1" fill="url(#linearGradient-3)" mask="url(#mask-2)"></path>
                    <mask id="mask-5" fill="white">
                        <use xlink:href="#path-4"></use>
                    </mask>
                    <g id="Mask"></g>
                    <g id="Group-30" opacity="0.153738839" mask="url(#mask-5)">
                        <g transform="translate(153.000000, -20.000000)">
                            <polygon id="Fill-1" fill="#C6C5C9" points="0 0 0 561 212 124.482462 2.78516229 0"></polygon>
                            <g id="Group-4" stroke-width="1" fill="none">
                                <mask id="mask-7" fill="white">
                                    <use xlink:href="#path-6"></use>
                                </mask>
                                <g id="Clip-3"></g>
                                <polygon id="Fill-2" mask="url(#mask-7)" points="641.141816 0.614827586 211.92551 125.077931 0 561.527586 239.642878 148.434828 641.266286 0.614827586"></polygon>
                            </g>
                            <polygon id="Fill-5" fill="#9FA0A3" points="3 0 212.351782 124 642 0"></polygon>
                            <polygon id="Fill-6" fill="#939597" points="0 561.271702 338.443728 671 475 390"></polygon>
                            <polygon id="Fill-7" fill="#A6A8AB" points="0 561 324 444.194036 240.064896 148"></polygon>
                            <polygon id="Fill-8" fill="#D0D2D3" points="643.208706 0 240 148.022205 475.283244 390 647 0"></polygon>
                            <polygon id="Fill-9" fill="#E5E6E7" points="646.367617 0 475 390 739 246.668685 647.709546 0"></polygon>
                            <polygon id="Fill-10" fill="#D0D2D3" points="337 675 587 675 475.294113 390"></polygon>
                            <polygon id="Fill-11" fill="#F0F0F1" points="785 368 674.269775 660 475 389.246733"></polygon>
                            <polygon id="Fill-12" fill="#C6C5C9" points="1275 619.159279 1338.16636 675 1461 675 1461 232"></polygon>
                            <g id="Group-15" stroke-width="1" fill="none" transform="translate(1032.000000, 226.000000)">
                                <mask id="mask-9" fill="white">
                                    <use xlink:href="#path-8"></use>
                                </mask>
                                <g id="Clip-14"></g>
                                <polygon id="Fill-13" mask="url(#mask-9)" points="214.083894 370.62487 0.536166667 449.096 51.4595909 449.096 241.848379 393.978203 428.904379 9.36550725 428.904379 0.928173913"></polygon>
                            </g>
                            <polygon id="Fill-16" fill="#808184" points="1315 0 1461 156 1461 0"></polygon>
                            <polygon id="Fill-17" fill="#939597" points="1315.07497 0 1009 354 1461 192.109157 1461 156.137778 1315.36982 0"></polygon>
                            <polygon id="Fill-18" fill="#A6A8AB" points="1011 355.356059 1246.25082 597 1461 227.251946 1461 193"></polygon>
                            <polygon id="Fill-19" fill="#D0D2D3" points="868 675 1029.25981 675 1244 596.026309 1009.08186 354"></polygon>
                            <polygon id="Fill-20" fill="#E5E6E7" points="785 368 1009 354.151649 886.013954 170"></polygon>
                            <polygon id="Fill-21" fill="#D0D2D3" points="972 0 1008.9957 354 1224 105.64302 972.374092 0"></polygon>
                            <polygon id="Fill-22" fill="#F0F0F1" points="648 0 784.935096 368 919 105.684435 651.572962 0"></polygon>
                            <polygon id="Fill-23" fill="#D0D2D3" points="669 675 831 675 785.038793 368"></polygon>
                            <polygon id="Fill-24" fill="#E5E6E7" points="830.481311 675 867.031722 675 966 450.272639 785 365"></polygon>
                            <polygon id="Fill-25" fill="#D0D2D3" points="650 0 918.818115 106 972 0"></polygon>
                            <polygon id="Fill-26" fill="#808184" points="0 675 148 675 0 561"></polygon>
                            <polygon id="Fill-27" fill="#9FA0A3" points="1085 675 1339 675 1276.6481 620"></polygon>
                            <polygon id="Fill-28" fill="#C6C5C9" points="972 0 1223.56614 106 1315 0"></polygon>
                            <polygon id="Fill-29" fill="#6C6E70" points="116.75447 675 332.631075 675 338 670.890416 0 561"></polygon>
                        </g>
                    </g>
                </g>
            </g>
        </g>
    </g>
</svg>