<svg xmlns="http://www.w3.org/2000/svg" xmlns:xlink="http://www.w3.org/1999/xlink" width="222" height="192" version="1.1" viewBox="0 0 222 192"><title>09C2FFDA-4638-4808-827E-A916FA2FDE86</title><desc>Created with sketchtool.</desc><g id="Welcome" fill="none" fill-rule="evenodd" stroke="none" stroke-width="1"><g id="desktop1440" fill="#FFF" transform="translate(-181.000000, -1976.000000)"><path id="cubes" d="M349.233974,2055.70727 L393.026838,2072.18379 C395.917459,2073.34004 398.302218,2075.21894 400.181118,2077.8205 C402.060018,2080.42205 402.999471,2083.31267 402.999471,2086.49235 L402.999471,2130.71881 C402.999471,2133.60943 402.204553,2136.28325 400.614711,2138.74027 C399.024869,2141.1973 396.929173,2143.14847 394.327616,2144.59377 L352.702716,2165.40623 C348.077724,2167.71872 343.45274,2167.71872 338.827749,2165.40623 L291.999735,2141.99222 L245.171722,2165.40623 C240.546731,2167.71872 235.921746,2167.71872 231.296755,2165.40623 L189.671854,2144.59377 C187.070298,2143.14847 184.974602,2141.1973 183.38476,2138.74027 C181.794918,2136.28325 181,2133.60943 181,2130.71881 L181,2086.49235 C181,2083.31267 181.939453,2080.42205 183.818353,2077.8205 C185.697252,2075.21894 188.082012,2073.34004 190.972632,2072.18379 L234.765497,2055.70727 L234.765497,2007.57848 C234.765497,2004.3988 235.70495,2001.43591 237.583849,1998.68983 C239.462749,1995.94374 241.847509,1993.99257 244.738129,1992.83632 L286.36303,1977.22699 C290.120836,1975.78168 293.878635,1975.78168 297.636441,1977.22699 L339.261341,1992.83632 C342.151962,1993.99257 344.536722,1995.94374 346.415621,1998.68983 C348.294521,2001.43591 349.233974,2004.3988 349.233974,2007.57848 L349.233974,2055.70727 Z M295.468477,2072.18379 L318.448891,2064.81272 L341.862898,2055.70727 L341.862898,2009.31285 L295.468477,2029.69171 L295.468477,2072.18379 Z M242.136573,2001.50818 L291.999735,2023.18781 L342.29649,2001.50818 L291.999735,1982.86369 L242.136573,2001.50818 Z M288.530994,2029.69171 L242.136573,2009.31285 L242.136573,2055.70727 L265.55058,2064.81272 L288.530994,2072.18379 L288.530994,2029.69171 Z M234.765497,2158.90233 L234.765497,2109.03917 L188.371076,2088.66031 L188.371076,2135.92192 L234.765497,2158.90233 Z M288.530994,2135.92192 L288.530994,2088.66031 L241.70298,2109.03917 L241.70298,2158.90233 L288.530994,2135.92192 Z M288.530994,2080.85565 L237.800646,2062.21116 L188.371076,2080.85565 L238.234239,2102.53528 L288.530994,2080.85565 Z M342.29649,2158.90233 L342.29649,2109.03917 L295.90207,2088.66031 L295.90207,2135.92192 L342.29649,2158.90233 Z M396.061987,2135.92192 L396.061987,2088.66031 L349.233974,2109.03917 L349.233974,2158.90233 L396.061987,2135.92192 Z M396.061987,2080.85565 L346.198825,2062.21116 L295.90207,2080.85565 L345.765232,2102.53528 L396.061987,2080.85565 Z"/></g></g></svg>