<?xml version="1.0" encoding="UTF-8"?>
<svg width="238px" height="178px" viewBox="0 0 238 178" version="1.1" xmlns="http://www.w3.org/2000/svg" xmlns:xlink="http://www.w3.org/1999/xlink">
    <!-- Generator: sketchtool 52.5 (67469) - http://www.bohemiancoding.com/sketch -->
    <title>2DFA41C8-CB94-4997-9538-73D5742A47A6</title>
    <desc>Created with sketchtool.</desc>
    <g id="Welcome" stroke="none" stroke-width="1" fill="none" fill-rule="evenodd">
        <g id="desktop1440" transform="translate(-181.000000, -2708.000000)" fill="#FFFFFF">
            <path d="M389,2744.9375 C389,2753.61459 386.296009,2761.36198 380.888021,2768.17969 C375.480032,2774.9974 368.449655,2779.33594 359.796875,2781.19531 C359.487845,2792.66146 356.552083,2801.88086 350.989583,2808.85352 C345.427083,2815.82617 337.701387,2820.70703 327.8125,2823.49609 C321.631947,2825.35547 311.897572,2826.90495 298.609375,2828.14453 C290.574655,2829.07422 284.703125,2829.84896 280.994792,2830.46875 C275.123262,2831.39844 270.256074,2832.79297 266.393229,2834.65234 C262.530384,2836.51172 259.671875,2839.30078 257.817708,2843.01953 C265.852428,2845.1888 272.419271,2849.60482 277.518229,2856.26758 C282.617188,2862.93034 285.166667,2870.44531 285.166667,2878.8125 C285.166667,2889.03906 281.535593,2897.79362 274.273438,2905.07617 C267.011282,2912.35873 258.28125,2916 248.083333,2916 C237.885417,2916 229.155384,2912.35873 221.893229,2905.07617 C214.631074,2897.79362 211,2889.03906 211,2878.8125 C211,2869.82552 213.78125,2861.92318 219.34375,2855.10547 C224.90625,2848.28776 232.013887,2844.10416 240.666667,2842.55469 L240.666667,2751.44531 C232.013887,2749.89584 224.90625,2745.71224 219.34375,2738.89453 C213.78125,2732.07682 211,2724.17448 211,2715.1875 C211,2704.96094 214.631074,2696.20638 221.893229,2688.92383 C229.155384,2681.64127 237.885417,2678 248.083333,2678 C258.28125,2678 267.011282,2681.64127 274.273438,2688.92383 C281.535593,2696.20638 285.166667,2704.96094 285.166667,2715.1875 C285.166667,2724.17448 282.385417,2732.07682 276.822917,2738.89453 C271.260417,2745.71224 264.15278,2749.89584 255.5,2751.44531 L255.5,2823.96094 C256.736113,2823.03125 258.28125,2822.10156 260.135417,2821.17188 C264.770833,2819.0026 270.642363,2817.29818 277.75,2816.05859 C282.076387,2815.12891 288.56597,2814.19922 297.21875,2813.26953 C308.65278,2812.33984 316.842012,2811.25521 321.786458,2810.01562 C329.821178,2807.84635 335.615449,2804.51498 339.169271,2800.02148 C342.723093,2795.52799 344.654512,2789.40755 344.963542,2781.66016 C336.310762,2779.80078 329.125866,2775.46224 323.408854,2768.64453 C317.691843,2761.82682 314.833333,2753.92448 314.833333,2744.9375 C314.833333,2734.71094 318.464407,2725.95638 325.726562,2718.67383 C332.988718,2711.39127 341.71875,2707.75 351.916667,2707.75 C362.114583,2707.75 370.844616,2711.39127 378.106771,2718.67383 C385.368926,2725.95638 389,2734.71094 389,2744.9375 Z M226,2715.5 C226,2721.75 228.138891,2727.0625 232.416667,2731.4375 C236.694442,2735.8125 241.888891,2738 248,2738 C254.111109,2738 259.305558,2735.8125 263.583333,2731.4375 C267.861109,2727.0625 270,2721.75 270,2715.5 C270,2709.25 267.861109,2703.9375 263.583333,2699.5625 C259.305558,2695.1875 254.111109,2693 248,2693 C241.888891,2693 236.694442,2695.1875 232.416667,2699.5625 C228.138891,2703.9375 226,2709.25 226,2715.5 Z M270,2878.5 C270,2872.25 267.861109,2866.9375 263.583333,2862.5625 C259.305558,2858.1875 254.111109,2856 248,2856 C241.888891,2856 236.694442,2858.1875 232.416667,2862.5625 C228.138891,2866.9375 226,2872.25 226,2878.5 C226,2884.75 228.138891,2890.0625 232.416667,2894.4375 C236.694442,2898.8125 241.888891,2901 248,2901 C254.111109,2901 259.305558,2898.8125 263.583333,2894.4375 C267.861109,2890.0625 270,2884.75 270,2878.5 Z M357.5,2766.0625 L357.5,2766.53125 C362.388891,2764.96875 366.361109,2762.23437 369.416667,2758.32812 C372.472225,2754.42188 374,2749.8125 374,2744.5 C374,2738.25 371.861109,2732.9375 367.583333,2728.5625 C363.305558,2724.1875 358.111109,2722 352,2722 C345.888891,2722 340.694442,2724.1875 336.416667,2728.5625 C332.138891,2732.9375 330,2738.25 330,2744.5 C330,2750.75 332.138891,2756.0625 336.416667,2760.4375 C340.694442,2764.8125 345.888891,2767 352,2767 L357.5,2766.0625 Z" id="code-branch" transform="translate(300.000000, 2797.000000) rotate(90.000000) translate(-300.000000, -2797.000000) "></path>
        </g>
    </g>
</svg>