<svg xmlns="http://www.w3.org/2000/svg" xmlns:xlink="http://www.w3.org/1999/xlink" width="198" height="280" version="1.1" viewBox="0 0 198 280"><title>4BFD9B48-639A-4A9C-933D-1075094C34F4</title><desc>Created with sketchtool.</desc><g id="Welcome" fill="none" fill-rule="evenodd" stroke="none" stroke-width="1"><g id="desktop1440" transform="translate(-1060.000000, -3039.000000)"><g id="Group-13" transform="translate(1064.000000, 3043.000000)"><polygon id="Path-4" stroke="#FFF" stroke-linecap="round" stroke-linejoin="round" stroke-width="8" points="0 0 0 272 71 272 71 0"/><polygon id="Path-5" stroke="#FFF" stroke-width="3" points="0 0 47.955 43.43 .658 62.542 71 123.902 24.497 132.706 .658 209.83 41.842 209.83 .658 270"/><polyline id="Path-6" stroke="#FFF" stroke-width="3" points="71 272 41.558 211.207 69.657 161 1 211.207"/><path id="Path-8" stroke="#FFF" stroke-width="3" d="M7.10542736e-13,63.3287037 L25,133.671296"/><polyline id="Path-7" stroke="#FFF" stroke-width="3" points="72 0 48 44.147 72 124"/><path id="Path-10" stroke="#FFF" stroke-width="3" d="M25,132 L71,159"/><polygon id="Path-4" stroke="#FFF" stroke-linecap="round" stroke-linejoin="round" stroke-width="8" points="119 0 119 272 190 272 190 0"/><polygon id="Path-5" stroke="#FFF" stroke-width="3" points="119 0 166.955 43.43 119.658 62.542 190 123.902 143.497 132.706 119.658 209.83 160.842 209.83 119.658 270"/><polyline id="Path-6" stroke="#FFF" stroke-width="3" points="190 272 160.558 211.207 188.657 161 120 211.207"/><path id="Path-8" stroke="#FFF" stroke-width="3" d="M119,63.3287037 L144,133.671296"/><polyline id="Path-7" stroke="#FFF" stroke-width="3" points="191 0 167 44.147 191 124"/><path id="Path-10" stroke="#FFF" stroke-width="3" d="M144,132 L190,159"/><polygon id="Z" fill="#FFF" points="104 128.585 104 133 87 133 87 128.552 98.087 114.415 87.546 114.415 87.546 110 103.743 110 103.743 114.448 92.624 128.585"/><path id="Path-9" stroke="#FFF" stroke-linecap="round" stroke-linejoin="round" stroke-width="8" d="M71,12.5 L119,12.5"/><path id="Path-11" stroke="#FFF" stroke-linecap="round" stroke-linejoin="round" stroke-width="8" d="M71,259.5 L119,259.5"/></g></g></g></svg>