<svg width="80" height="80" viewBox="0 0 80 80" xmlns="http://www.w3.org/2000/svg"><title>slack</title><g fill-rule="nonzero" fill="none"><path d="M51.78 4.926A7.112 7.112 0 0 0 42.816.351c-3.738 1.215-5.779 5.235-4.566 8.98L56.64 66.026a7.114 7.114 0 0 0 8.653 4.42c3.772-1.09 6.078-5.105 4.87-8.82-.045-.145-18.384-56.7-18.384-56.7z" fill="#FFC107"/><path d="M23.285 14.206c-1.218-3.745-5.23-5.795-8.963-4.575a7.13 7.13 0 0 0-4.566 8.98l18.39 56.69a7.114 7.114 0 0 0 8.652 4.42c3.773-1.09 6.079-5.105 4.87-8.82-.044-.14-18.383-56.695-18.383-56.695z" fill="#4CAF50"/><path d="M74.929 51.881c3.738-1.215 5.779-5.235 4.566-8.98a7.108 7.108 0 0 0-8.962-4.575l-56.585 18.43c-3.488 1.265-5.45 5.04-4.411 8.67 1.088 3.78 5.095 6.09 8.802 4.88.145-.05 56.59-18.425 56.59-18.425z" fill="#EC407A"/><path d="M25.74 67.896l13.524-4.405-4.397-13.55-13.523 4.405 4.396 13.55z" fill="#472A49"/><path d="M54.24 58.616c5.114-1.665 9.865-3.21 13.523-4.405-1.198-3.69-2.74-8.45-4.396-13.555l-13.524 4.405 4.396 13.555z" fill="#CC2027"/><path d="M65.667 23.331c3.738-1.215 5.779-5.235 4.566-8.98a7.108 7.108 0 0 0-8.962-4.575L4.69 28.201a7.125 7.125 0 0 0-4.411 8.67c1.088 3.78 5.095 6.085 8.803 4.88l56.584-18.42z" fill="#2196F3"/><path d="M16.478 39.341c3.683-1.2 8.434-2.745 13.529-4.405-1.662-5.12-3.204-9.88-4.397-13.55l-13.523 4.405 4.391 13.55z" fill="#1A937D"/><path d="M44.977 30.066c5.115-1.665 9.866-3.21 13.529-4.405-1.662-5.125-3.209-9.885-4.396-13.555L40.58 16.511l4.396 13.555z" fill="#65863A"/></g></svg>