<?xml version="1.0" encoding="UTF-8"?>
<svg width="198px" height="280px" viewBox="0 0 198 280" version="1.1" xmlns="http://www.w3.org/2000/svg" xmlns:xlink="http://www.w3.org/1999/xlink">
    <!-- Generator: sketchtool 52.5 (67469) - http://www.bohemiancoding.com/sketch -->
    <title>4BFD9B48-639A-4A9C-933D-1075094C34F4</title>
    <desc>Created with sketchtool.</desc>
    <g id="Welcome" stroke="none" stroke-width="1" fill="none" fill-rule="evenodd">
        <g id="desktop1440" transform="translate(-1060.000000, -3039.000000)">
            <g id="Group-13" transform="translate(1064.000000, 3043.000000)">
                <polygon id="Path-4" stroke="#FFFFFF" stroke-width="8" stroke-linecap="round" stroke-linejoin="round" points="0 0 0 272 71 272 71 0"></polygon>
                <polygon id="Path-5" stroke="#FFFFFF" stroke-width="3" points="-1.03070841e-12 0 47.9549441 43.4298574 0.657804805 62.5424343 71 123.902223 24.4968751 132.705729 0.657804805 209.830367 41.8424036 209.830367 0.657804805 270"></polygon>
                <polyline id="Path-6" stroke="#FFFFFF" stroke-width="3" points="71 272 41.5582775 211.207229 69.6565973 161 1 211.207229"></polyline>
                <path d="M7.10542736e-13,63.3287037 L25,133.671296" id="Path-8" stroke="#FFFFFF" stroke-width="3"></path>
                <polyline id="Path-7" stroke="#FFFFFF" stroke-width="3" points="72 0 48 44.1469894 72 124"></polyline>
                <path d="M25,132 L71,159" id="Path-10" stroke="#FFFFFF" stroke-width="3"></path>
                <polygon id="Path-4" stroke="#FFFFFF" stroke-width="8" stroke-linecap="round" stroke-linejoin="round" points="119 0 119 272 190 272 190 0"></polygon>
                <polygon id="Path-5" stroke="#FFFFFF" stroke-width="3" points="119 0 166.954944 43.4298574 119.657805 62.5424343 190 123.902223 143.496875 132.705729 119.657805 209.830367 160.842404 209.830367 119.657805 270"></polygon>
                <polyline id="Path-6" stroke="#FFFFFF" stroke-width="3" points="190 272 160.558278 211.207229 188.656597 161 120 211.207229"></polyline>
                <path d="M119,63.3287037 L144,133.671296" id="Path-8" stroke="#FFFFFF" stroke-width="3"></path>
                <polyline id="Path-7" stroke="#FFFFFF" stroke-width="3" points="191 0 167 44.1469894 191 124"></polyline>
                <path d="M144,132 L190,159" id="Path-10" stroke="#FFFFFF" stroke-width="3"></path>
                <polygon id="Z" fill="#FFFFFF" points="104 128.584527 104 133 87 133 87 128.551576 98.0869565 114.415473 87.5463138 114.415473 87.5463138 110 103.742911 110 103.742911 114.448424 92.6238185 128.584527"></polygon>
                <path d="M71,12.5 L119,12.5" id="Path-9" stroke="#FFFFFF" stroke-width="8" stroke-linecap="round" stroke-linejoin="round"></path>
                <path d="M71,259.5 L119,259.5" id="Path-11" stroke="#FFFFFF" stroke-width="8" stroke-linecap="round" stroke-linejoin="round"></path>
            </g>
        </g>
    </g>
</svg>