<?xml version="1.0" encoding="UTF-8"?>
<svg width="353px" height="201px" viewBox="0 0 353 201" version="1.1" xmlns="http://www.w3.org/2000/svg" xmlns:xlink="http://www.w3.org/1999/xlink">
    <!-- Generator: sketchtool 52.5 (67469) - http://www.bohemiancoding.com/sketch -->
    <title>F7207700-6267-4E9C-93DD-CC6E986FC75D</title>
    <desc>Created with sketchtool.</desc>
    <g id="Welcome" stroke="none" stroke-width="1" fill="none" fill-rule="evenodd">
        <g id="desktop1440" transform="translate(-899.000000, -2331.000000)">
            <g id="Group-10" transform="translate(904.000000, 2336.000000)">
                <path d="M42.9,195.2 C24.1,195.2 12,183.2 12,159.6 C12,136 24.1,123 42.9,123 C55.7,123 63.9,128.2 69,139.4 L55.9,146.2 C54.1,140.4 50.4,136.5 42.9,136.5 C34,136.5 28.1,142.5 28.1,153.5 L28.1,164.7 C28.1,175.7 34,181.7 42.9,181.7 C50.4,181.7 54.7,177 56.8,171.3 L69.2,178.5 C64,189.1 55.7,195.2 42.9,195.2 Z M107.8,195.2 C89.3,195.2 77.1,182.8 77.1,159.1 C77.1,135.4 89.3,123 107.8,123 C126.3,123 138.5,135.4 138.5,159.1 C138.5,182.8 126.3,195.2 107.8,195.2 Z M107.8,181.7 C116.9,181.7 122.4,175.4 122.4,164.3 L122.4,153.9 C122.4,142.8 116.9,136.5 107.8,136.5 C98.7,136.5 93.2,142.8 93.2,153.9 L93.2,164.3 C93.2,175.4 98.7,181.7 107.8,181.7 Z M151.2,194 L151.2,124.2 L185.1,124.2 C196.6,124.2 203.5,131.3 203.5,142.1 C203.5,152.8 197.6,156.8 190.5,157.1 L190.5,157.7 C197.1,157.7 206.2,162.1 206.2,174.1 C206.2,185.1 198.5,194 188.2,194 L151.2,194 Z M166.4,165.2 L166.4,181.2 L183.9,181.2 C187.9,181.2 190.4,178.9 190.4,174.9 L190.4,171.5 C190.4,167.5 187.9,165.2 183.9,165.2 L166.4,165.2 Z M166.4,137 L166.4,152.8 L181.5,152.8 C185.5,152.8 187.9,150.4 187.9,146.4 L187.9,143.4 C187.9,139.4 185.5,137 181.5,137 L166.4,137 Z M245.9,195.2 C227.4,195.2 215.2,182.8 215.2,159.1 C215.2,135.4 227.4,123 245.9,123 C264.4,123 276.6,135.4 276.6,159.1 C276.6,182.8 264.4,195.2 245.9,195.2 Z M245.9,181.7 C255,181.7 260.5,175.4 260.5,164.3 L260.5,153.9 C260.5,142.8 255,136.5 245.9,136.5 C236.8,136.5 231.3,142.8 231.3,153.9 L231.3,164.3 C231.3,175.4 236.8,181.7 245.9,181.7 Z M331.1,194 L289.3,194 L289.3,124.2 L304.5,124.2 L304.5,180.5 L331.1,180.5 L331.1,194 Z" id="COBOL" fill="#FFFFFF"></path>
                <path d="M0.5,58.5 L51,90.5" id="Line" stroke="#FFFFFF" stroke-width="11" stroke-linecap="round" stroke-linejoin="round"></path>
                <path d="M291.5,90.5 L342,58.5 L291.5,90.5 Z" id="Line" stroke="#FFFFFF" stroke-width="11" stroke-linecap="round" stroke-linejoin="round"></path>
                <path d="M74.5,17 L108.5,68.5" id="Line" stroke="#FFFFFF" stroke-width="11" stroke-linecap="round" stroke-linejoin="round"></path>
                <path d="M234.5,69 L268.5,17.5 L234.5,69 Z" id="Line" stroke="#FFFFFF" stroke-width="11" stroke-linecap="round" stroke-linejoin="round"></path>
                <polyline id="Line" stroke="#FFFFFF" stroke-width="11" stroke-linecap="round" stroke-linejoin="round" points="171.5 0.5 171.5 3.97301808 171.5 57.5"></polyline>
            </g>
        </g>
    </g>
</svg>