<svg xmlns="http://www.w3.org/2000/svg" xmlns:xlink="http://www.w3.org/1999/xlink" width="1440" height="1880" version="1.1" viewBox="0 0 1440 1880"><title>6648E7D3-9656-44F8-A8D1-D27350B64294</title><desc>Created with sketchtool.</desc><defs><linearGradient id="linearGradient-1" x1="36.089%" x2="68.506%" y1="13.759%" y2="60.883%"><stop offset="0%" stop-color="#00CFFF"/><stop offset="100%" stop-color="#0090FC"/></linearGradient><linearGradient id="linearGradient-2" x1="36.089%" x2="36.089%" y1="6.49%" y2="22.169%"><stop offset="0%" stop-color="#3F85FF"/><stop offset="100%" stop-color="#054ADA"/></linearGradient><rect id="path-3" width="1485" height="1880" x="0" y="0"/></defs><g id="Welcome" fill="none" fill-rule="evenodd" stroke="none" stroke-width="1"><g id="desktop1440" transform="translate(0.000000, -1569.000000)"><g id="Group-8" transform="translate(0.000000, 1569.000000)"><rect id="Rectangle" width="1485" height="1593" x="0" y="0" fill="url(#linearGradient-1)"/><mask id="mask-4" fill="#fff"><use xlink:href="#path-3"/></mask><use id="Rectangle" fill="url(#linearGradient-2)" xlink:href="#path-3"/><g id="Group-17" fill="#FFF" mask="url(#mask-4)"><g id="cloud"><path d="M536.738506,520.932276 C566.003054,526.868654 590.279341,541.379804 609.567337,564.465713 C628.855333,587.551621 638.499338,614.265321 638.499338,644.606812 C638.499338,667.69272 632.845954,688.964741 621.5392,708.422873 C610.232446,727.881005 594.76879,743.216647 575.148232,754.4298 C555.527674,765.642953 534.078087,771.249537 510.799471,771.249537 L143.662351,771.249537 C117.723316,771.249537 93.7795903,764.818461 71.8311756,751.956309 C49.8827608,739.094158 32.4237945,721.779722 19.4542767,700.013004 C6.48475891,678.246286 0,654.500775 0,628.776471 C0,597.775393 8.97889695,570.072297 26.9366908,545.667183 C44.8944847,521.26207 67.8405547,504.112539 95.7749008,494.218576 L95.7749008,486.303406 C95.7749008,457.940707 102.924768,431.556816 117.224488,407.151703 C131.524208,382.74659 150.978484,363.453362 175.587318,349.27202 C200.196152,335.090678 226.966562,328 255.898563,328 C284.830564,328 311.600974,335.255568 336.209808,349.766718 C360.818642,364.277869 380.106637,383.406192 394.07381,407.151703 C410.036294,396.598138 427.661541,391.321362 446.949537,391.321362 C473.553681,391.321362 496.167189,400.555723 514.790092,419.024458 C533.412994,437.493194 542.724438,459.9195 542.724438,486.303406 C542.724438,498.176161 540.729127,509.719123 536.738506,520.932276 Z" opacity=".379" transform="translate(-88.000000, -498.000000) translate(319.249669, 549.624768) scale(-1, -1) translate(-319.249669, -549.624768)"/><path d="M431.744756,592.088526 C452.667639,596.337404 470.024132,606.723553 483.814212,623.246963 C497.604293,639.770373 504.499338,658.890322 504.499338,680.606812 C504.499338,697.130222 500.457414,712.355367 492.373575,726.282248 C484.289736,740.209128 473.233893,751.185396 459.206045,759.21105 C445.178197,767.236704 429.842672,771.249537 413.199471,771.249537 L150.712351,771.249537 C132.167066,771.249537 115.04834,766.646586 99.3561756,757.440684 C83.6640108,748.234783 71.181607,735.842222 61.9089642,720.263004 C52.6363214,704.683786 48,687.688275 48,669.276471 C48,647.087891 54.4195219,627.259795 67.2585658,609.792183 C80.0976097,592.324571 96.5030547,580.050039 116.474901,572.968576 L116.474901,567.303406 C116.474901,547.003209 121.586746,528.119315 131.810425,510.651703 C142.034105,493.184091 155.943069,479.375238 173.537318,469.225145 C191.131567,459.075052 210.271249,454 230.956375,454 C251.641502,454 270.781184,459.193069 288.375433,469.579218 C305.969682,479.965367 319.759762,493.656192 329.745685,510.651703 C341.158169,503.098139 353.759456,499.321362 367.549537,499.321362 C386.570346,499.321362 402.738024,505.930724 416.052592,519.149458 C429.367159,532.368193 436.024438,548.419501 436.024438,567.303406 C436.024438,575.801161 434.597877,584.062872 431.744756,592.088526 Z" transform="translate(-88.000000, -498.000000) translate(276.249669, 612.624768) scale(1, -1) translate(-276.249669, -612.624768)"/><path d="M1688.74476,500.088526 C1709.66764,504.337404 1727.02413,514.723553 1740.81421,531.246963 C1754.60429,547.770373 1761.49934,566.890322 1761.49934,588.606812 C1761.49934,605.130222 1757.45741,620.355367 1749.37357,634.282248 C1741.28974,648.209128 1730.23389,659.185396 1716.20604,667.21105 C1702.1782,675.236704 1686.84267,679.249537 1670.19947,679.249537 L1407.71235,679.249537 C1389.16707,679.249537 1372.04834,674.646586 1356.35618,665.440684 C1340.66401,656.234783 1328.18161,643.842222 1318.90896,628.263004 C1309.63632,612.683786 1305,595.688275 1305,577.276471 C1305,555.087891 1311.41952,535.259795 1324.25857,517.792183 C1337.09761,500.324571 1353.50305,488.050039 1373.4749,480.968576 L1373.4749,475.303406 C1373.4749,455.003209 1378.58675,436.119315 1388.81043,418.651703 C1399.0341,401.184091 1412.94307,387.375238 1430.53732,377.225145 C1448.13157,367.075052 1467.27125,362 1487.95638,362 C1508.6415,362 1527.78118,367.193069 1545.37543,377.579218 C1562.96968,387.965367 1576.75976,401.656192 1586.74569,418.651703 C1598.15817,411.098139 1610.75946,407.321362 1624.54954,407.321362 C1643.57035,407.321362 1659.73802,413.930724 1673.05259,427.149458 C1686.36716,440.368193 1693.02444,456.419501 1693.02444,475.303406 C1693.02444,483.801161 1691.59788,492.062872 1688.74476,500.088526 Z" transform="translate(-88.000000, -498.000000) translate(1533.249669, 520.624768) scale(1, -1) translate(-1533.249669, -520.624768)"/><path d="M1668.74476,554.088526 C1689.66764,558.337404 1707.02413,568.723553 1720.81421,585.246963 C1734.60429,601.770373 1741.49934,620.890322 1741.49934,642.606812 C1741.49934,659.130222 1737.45741,674.355367 1729.37357,688.282248 C1721.28974,702.209128 1710.23389,713.185396 1696.20604,721.21105 C1682.1782,729.236704 1666.84267,733.249537 1650.19947,733.249537 L1387.71235,733.249537 C1369.16707,733.249537 1352.04834,728.646586 1336.35618,719.440684 C1320.66401,710.234783 1308.18161,697.842222 1298.90896,682.263004 C1289.63632,666.683786 1285,649.688275 1285,631.276471 C1285,609.087891 1291.41952,589.259795 1304.25857,571.792183 C1317.09761,554.324571 1333.50305,542.050039 1353.4749,534.968576 L1353.4749,529.303406 C1353.4749,509.003209 1358.58675,490.119315 1368.81043,472.651703 C1379.0341,455.184091 1392.94307,441.375238 1410.53732,431.225145 C1428.13157,421.075052 1447.27125,416 1467.95638,416 C1488.6415,416 1507.78118,421.193069 1525.37543,431.579218 C1542.96968,441.965367 1556.75976,455.656192 1566.74569,472.651703 C1578.15817,465.098139 1590.75946,461.321362 1604.54954,461.321362 C1623.57035,461.321362 1639.73802,467.930724 1653.05259,481.149458 C1666.36716,494.368193 1673.02444,510.419501 1673.02444,529.303406 C1673.02444,537.801161 1671.59788,546.062872 1668.74476,554.088526 Z" opacity=".328" transform="translate(-88.000000, -498.000000) translate(1513.249669, 574.624768) scale(1, -1) translate(-1513.249669, -574.624768)"/><path d="M1282.74476,446.088526 C1303.66764,450.337404 1321.02413,460.723553 1334.81421,477.246963 C1348.60429,493.770373 1355.49934,512.890322 1355.49934,534.606812 C1355.49934,551.130222 1351.45741,566.355367 1343.37357,580.282248 C1335.28974,594.209128 1324.23389,605.185396 1310.20604,613.21105 C1296.1782,621.236704 1280.84267,625.249537 1264.19947,625.249537 L1001.71235,625.249537 C983.167066,625.249537 966.04834,620.646586 950.356176,611.440684 C934.664011,602.234783 922.181607,589.842222 912.908964,574.263004 C903.636321,558.683786 899,541.688275 899,523.276471 C899,501.087891 905.419522,481.259795 918.258566,463.792183 C931.09761,446.324571 947.503055,434.050039 967.474901,426.968576 L967.474901,421.303406 C967.474901,401.003209 972.586746,382.119315 982.810425,364.651703 C993.034105,347.184091 1006.94307,333.375238 1024.53732,323.225145 C1042.13157,313.075052 1061.27125,308 1081.95638,308 C1102.6415,308 1121.78118,313.193069 1139.37543,323.579218 C1156.96968,333.965367 1170.75976,347.656192 1180.74569,364.651703 C1192.15817,357.098139 1204.75946,353.321362 1218.54954,353.321362 C1237.57035,353.321362 1253.73802,359.930724 1267.05259,373.149458 C1280.36716,386.368193 1287.02444,402.419501 1287.02444,421.303406 C1287.02444,429.801161 1285.59788,438.062872 1282.74476,446.088526 Z" opacity=".312" transform="translate(-88.000000, -498.000000) translate(1127.249669, 466.624768) scale(-1, -1) translate(-1127.249669, -466.624768)"/><path d="M955.513506,292.070669 C991.74472,299.42669 1021.80018,317.408079 1045.67984,346.01482 C1069.5595,374.62156 1081.49934,407.723653 1081.49934,445.321098 C1081.49934,473.927838 1074.50012,500.286912 1060.5017,524.398319 C1046.50328,548.509726 1027.35837,567.512779 1003.06698,581.407479 C978.77559,595.302178 952.219753,602.249537 923.399471,602.249537 L468.862351,602.249537 C436.748316,602.249537 407.10459,594.280515 379.931176,578.34247 C352.757761,562.404425 331.142545,540.949365 315.085527,513.97729 C299.028509,487.005214 291,457.581132 291,425.705043 C291,387.290275 302.116397,352.962179 324.349191,322.720755 C346.581985,292.479331 374.990555,271.228611 409.574901,258.968576 L409.574901,249.160549 C409.574901,214.015111 418.426853,181.321699 436.130738,151.080274 C453.834623,120.83885 477.92015,96.9317834 508.387318,79.3590738 C538.854486,61.7863642 571.997812,53 607.817313,53 C643.636814,53 676.78014,61.9906856 707.247308,79.9720755 C737.714476,97.9534654 761.594137,121.656192 778.88631,151.080274 C798.648794,138.002898 820.469876,131.46422 844.349537,131.46422 C877.287016,131.46422 905.283855,142.906912 928.340092,165.792316 C951.396329,188.677719 962.924438,216.467118 962.924438,249.160549 C962.924438,263.87259 960.454127,278.17597 955.513506,292.070669 Z" transform="translate(-88.000000, -498.000000) translate(686.249669, 327.624768) scale(1, -1) translate(-686.249669, -327.624768)"/><path d="M1350.51351,239.070669 C1386.74472,246.42669 1416.80018,264.408079 1440.67984,293.01482 C1464.5595,321.62156 1476.49934,354.723653 1476.49934,392.321098 C1476.49934,420.927838 1469.50012,447.286912 1455.5017,471.398319 C1441.50328,495.509726 1422.35837,514.512779 1398.06698,528.407479 C1373.77559,542.302178 1347.21975,549.249537 1318.39947,549.249537 L863.862351,549.249537 C831.748316,549.249537 802.10459,541.280515 774.931176,525.34247 C747.757761,509.404425 726.142545,487.949365 710.085527,460.97729 C694.028509,434.005214 686,404.581132 686,372.705043 C686,334.290275 697.116397,299.962179 719.349191,269.720755 C741.581985,239.479331 769.990555,218.228611 804.574901,205.968576 L804.574901,196.160549 C804.574901,161.015111 813.426853,128.321699 831.130738,98.0802744 C848.834623,67.8388503 872.92015,43.9317834 903.387318,26.3590738 C933.854486,8.78636415 966.997812,0 1002.81731,0 C1038.63681,0 1071.78014,8.99068559 1102.24731,26.9720755 C1132.71448,44.9534654 1156.59414,68.6561921 1173.88631,98.0802744 C1193.64879,85.0028983 1215.46988,78.4642196 1239.34954,78.4642196 C1272.28702,78.4642196 1300.28385,89.906912 1323.34009,112.792316 C1346.39633,135.677719 1357.92444,163.467118 1357.92444,196.160549 C1357.92444,210.87259 1355.45413,225.17597 1350.51351,239.070669 Z" transform="translate(-88.000000, -498.000000) translate(1081.249669, 274.624768) scale(1, -1) translate(-1081.249669, -274.624768)"/><path d="M1355.44788,507.079598 C1369.2666,509.882047 1380.72986,516.73248 1389.83765,527.630891 C1398.94544,538.529302 1403.49934,551.140324 1403.49934,565.463955 C1403.49934,576.362366 1400.82981,586.404475 1395.49076,595.590283 C1390.15171,604.776091 1382.84978,612.015752 1373.58495,617.309264 C1364.32013,622.602777 1354.19163,625.249537 1343.19947,625.249537 L1169.83735,625.249537 C1157.58894,625.249537 1146.28272,622.21355 1135.91868,616.141577 C1125.55464,610.069604 1117.31051,601.895794 1111.18631,591.620147 C1105.0621,581.3445 1102,570.134703 1102,557.990757 C1102,543.355747 1106.23983,530.277651 1114.7195,518.756469 C1123.19917,507.235287 1134.0343,499.139325 1147.2249,494.468576 L1147.2249,490.731977 C1147.2249,477.342496 1150.60107,464.887171 1157.35339,453.365989 C1164.10572,441.844806 1173.29203,432.736847 1184.91232,426.042109 C1196.53261,419.347372 1209.17359,416 1222.83528,416 C1236.49697,416 1249.13796,419.425213 1260.75825,426.275647 C1272.37853,433.126081 1281.48632,442.156192 1288.08162,453.365989 C1295.61911,448.383855 1303.94175,445.892791 1313.04954,445.892791 C1325.61201,445.892791 1336.29011,450.252154 1345.08384,458.970887 C1353.87757,467.68962 1358.27444,478.276646 1358.27444,490.731977 C1358.27444,496.336876 1357.33225,501.786085 1355.44788,507.079598 Z" transform="translate(-88.000000, -498.000000) translate(1252.749669, 520.624768) scale(1, -1) translate(-1252.749669, -520.624768)"/></g></g></g></g></g></svg>