<?xml version="1.0" encoding="UTF-8"?>
<svg width="65px" height="22px" viewBox="0 0 65 22" version="1.1" xmlns="http://www.w3.org/2000/svg" xmlns:xlink="http://www.w3.org/1999/xlink">
    <!-- Generator: sketchtool 52.5 (67469) - http://www.bohemiancoding.com/sketch -->
    <title>A59BF65C-1E28-4A7A-A704-A3E6E3459DFB</title>
    <desc>Created with sketchtool.</desc>
    <g id="Welcome" stroke="none" stroke-width="1" fill="none" fill-rule="evenodd">
        <g id="desktop1440" transform="translate(-510.000000, -3728.000000)" fill="#FFFFFF">
            <g id="Group-7" transform="translate(-6.000000, 3587.000000)">
                <g id="Group-12" transform="translate(516.000000, 133.000000)">
                    <g id="Group-9" transform="translate(0.000000, 8.000000)">
                        <g id="Group-6">
                            <g id="Group-2">
                                <path d="M10.108,21 L5.236,21 L0.812,1.456 L5.012,1.456 L6.86,10.836 L7.896,16.268 L7.98,16.268 L9.212,10.836 L11.368,1.456 L16.016,1.456 L18.2,10.836 L19.404,16.268 L19.488,16.268 L20.524,10.836 L22.4,1.456 L26.432,1.456 L21.896,21 L17.052,21 L14.588,10.416 L13.636,6.132 L13.552,6.132 L12.572,10.416 L10.108,21 Z M42.336,21 L40.04,21 C38.556,21 37.492,19.992 37.24,18.424 L37.072,18.424 C36.624,20.328 35,21.336 32.76,21.336 C29.82,21.336 28.196,19.6 28.196,17.052 C28.196,13.944 30.604,12.46 34.496,12.46 L36.82,12.46 L36.82,11.536 C36.82,10.108 36.12,9.212 34.384,9.212 C32.732,9.212 31.864,10.052 31.22,10.948 L28.756,8.764 C29.932,7.028 31.612,5.964 34.692,5.964 C38.836,5.964 40.964,7.868 40.964,11.34 L40.964,17.78 L42.336,17.78 L42.336,21 Z M34.3,18.452 C35.672,18.452 36.82,17.892 36.82,16.548 L36.82,14.812 L34.804,14.812 C33.208,14.812 32.368,15.4 32.368,16.464 L32.368,16.884 C32.368,17.948 33.068,18.452 34.3,18.452 Z M56.588,21 L44.268,21 L44.268,17.724 L51.576,9.52 L44.52,9.52 L44.52,6.3 L56.392,6.3 L56.392,9.548 L49.056,17.78 L56.588,17.78 L56.588,21 Z M61.684,4.732 C60.004,4.732 59.276,3.864 59.276,2.688 L59.276,2.072 C59.276,0.896 60.004,0.028 61.684,0.028 C63.364,0.028 64.092,0.896 64.092,2.072 L64.092,2.688 C64.092,3.864 63.364,4.732 61.684,4.732 Z M59.612,21 L59.612,6.3 L63.756,6.3 L63.756,21 L59.612,21 Z" id="Wazi"></path>
                            </g>
                        </g>
                    </g>
                </g>
            </g>
        </g>
    </g>
</svg>