<?xml version="1.0" encoding="UTF-8"?>
<svg width="109px" height="37px" viewBox="0 0 109 37" version="1.1" xmlns="http://www.w3.org/2000/svg" xmlns:xlink="http://www.w3.org/1999/xlink">
    <!-- Generator: sketchtool 52.5 (67469) - http://www.bohemiancoding.com/sketch -->
    <title>342219C6-C9C1-4064-A234-D7CB63AC217B</title>
    <desc>Created with sketchtool.</desc>
    <g id="Welcome" stroke="none" stroke-width="1" fill="none" fill-rule="evenodd">
        <g id="desktop1440" transform="translate(-73.000000, -37.000000)" fill="#FFFFFF">
            <g id="Group-14" transform="translate(72.000000, 37.000000)">
                <g id="Group-6" transform="translate(1.000000, 0.000000)">
                    <g id="Group-2">
                        <path d="M16.328,36 L7.976,36 L0.392,2.496 L7.592,2.496 L10.76,18.576 L12.536,27.888 L12.68,27.888 L14.792,18.576 L18.488,2.496 L26.456,2.496 L30.2,18.576 L32.264,27.888 L32.408,27.888 L34.184,18.576 L37.4,2.496 L44.312,2.496 L36.536,36 L28.232,36 L24.008,17.856 L22.376,10.512 L22.232,10.512 L20.552,17.856 L16.328,36 Z M71.576,36 L67.64,36 C65.096,36 63.272,34.272 62.84,31.584 L62.552,31.584 C61.784,34.848 59,36.576 55.16,36.576 C50.12,36.576 47.336,33.6 47.336,29.232 C47.336,23.904 51.464,21.36 58.136,21.36 L62.12,21.36 L62.12,19.776 C62.12,17.328 60.92,15.792 57.944,15.792 C55.112,15.792 53.624,17.232 52.52,18.768 L48.296,15.024 C50.312,12.048 53.192,10.224 58.472,10.224 C65.576,10.224 69.224,13.488 69.224,19.44 L69.224,30.48 L71.576,30.48 L71.576,36 Z M57.8,31.632 C60.152,31.632 62.12,30.672 62.12,28.368 L62.12,25.392 L58.664,25.392 C55.928,25.392 54.488,26.4 54.488,28.224 L54.488,28.944 C54.488,30.768 55.688,31.632 57.8,31.632 Z M96.008,36 L74.888,36 L74.888,30.384 L87.416,16.32 L75.32,16.32 L75.32,10.8 L95.672,10.8 L95.672,16.368 L83.096,30.48 L96.008,30.48 L96.008,36 Z M104.744,8.112 C101.864,8.112 100.616,6.624 100.616,4.608 L100.616,3.552 C100.616,1.536 101.864,0.048 104.744,0.048 C107.624,0.048 108.872,1.536 108.872,3.552 L108.872,4.608 C108.872,6.624 107.624,8.112 104.744,8.112 Z M101.192,36 L101.192,10.8 L108.296,10.8 L108.296,36 L101.192,36 Z" id="Wazi"></path>
                    </g>
                </g>
            </g>
        </g>
    </g>
</svg>