<?xml version="1.0" encoding="utf-8"?>
<!-- Generator: Adobe Illustrator 22.0.0, SVG Export Plug-In . SVG Version: 6.00 Build 0)  -->
<svg version="1.1" id="Layer_1" xmlns="http://www.w3.org/2000/svg" xmlns:xlink="http://www.w3.org/1999/xlink" x="0px" y="0px"
	 viewBox="0 0 735 157" style="enable-background:new 0 0 735 157;" xml:space="preserve">
<style type="text/css">
	.st0{fill:url(#SVGID_1_);}
	.st1{fill:#FFFFFF;}
</style>
<linearGradient id="SVGID_1_" gradientUnits="userSpaceOnUse" x1="4.8311" y1="502.1689" x2="70.3311" y2="567.6689" gradientTransform="matrix(1 0 0 1 0 -434)">
	<stop  offset="0.7" style="stop-color:#FFFFFF"/>
	<stop  offset="1" style="stop-color:#FFFFFF;stop-opacity:0"/>
</linearGradient>
<path class="st0" d="M24.3,56.3h-7.6v53.5c0,1.3,0.7,2.6,1.9,3.3l45.7,26.6l3.8-6.6l-43.9-25.6L24.3,56.3L24.3,56.3z"/>
<path class="st1" d="M114,53L68.3,26.4c-1.2-0.7-2.6-0.7-3.8,0l-15.3,8.8c-1.2,0.7-1.9,2-1.9,3.3v33.1h7.6V40.7l11.5-6.6l41.9,24.4
	v20.7h7.6V56.3C115.8,54.9,115.1,53.7,114,53z"/>
<rect x="31.9" y="44.9" class="st1" width="7.6" height="38.2"/>
<polygon class="st1" points="103.3,86.7 97.8,92.1 111.5,105.8 97.8,119.5 103.3,124.9 122.3,105.8 "/>
<polygon class="st1" points="80.4,86.7 61.3,105.8 80.4,124.9 85.7,119.5 72,105.8 85.7,92.1 "/>
<g>
	<path class="st1" d="M339.1,67.5c0,4.7-3.7,8.5-8.6,8.5c-4.8,0-8.6-3.7-8.6-8.5c0-4.6,3.8-8.4,8.6-8.4
		C335.4,59.2,339.1,62.9,339.1,67.5z M324,67.5c0,3.7,2.8,6.7,6.5,6.7s6.4-3,6.4-6.6c0-3.7-2.7-6.7-6.4-6.7S324,63.9,324,67.5z
		 M329.2,71.9h-1.9v-8.4c0.8-0.2,1.8-0.3,3.2-0.3c1.6,0,2.3,0.3,2.9,0.6c0.5,0.4,0.8,1,0.8,1.8c0,0.9-0.7,1.6-1.7,1.9v0.1
		c0.8,0.3,1.3,0.9,1.5,2c0.3,1.3,0.4,1.8,0.6,2.1h-2.1c-0.3-0.3-0.4-1.1-0.7-2c-0.2-0.9-0.7-1.3-1.7-1.3h-0.9L329.2,71.9L329.2,71.9
		z M329.2,67.2h0.9c1.1,0,1.9-0.4,1.9-1.2c0-0.8-0.6-1.3-1.8-1.3c-0.5,0-0.9,0.1-1.1,0.1v2.4H329.2z"/>
</g>
<g>
	<path class="st1" d="M159.6,101.9v-6.4h5.5V66.4h-5.5V60h19v6.4h-5.6v29.2h5.6v6.4H159.6z"/>
	<path class="st1" d="M186.8,60h19.4c1.7,0,3.3,0.3,4.7,0.8s2.5,1.2,3.5,2.2c1,0.9,1.7,2.1,2.2,3.4c0.5,1.3,0.8,2.8,0.8,4.4
		s-0.2,3-0.6,4c-0.4,1.1-1,2-1.7,2.7c-0.7,0.7-1.5,1.3-2.4,1.6c-0.9,0.4-1.8,0.6-2.8,0.6v0.4c0.9,0,1.9,0.2,3,0.5
		c1.1,0.4,2,0.9,2.9,1.7c0.9,0.8,1.7,1.8,2.2,3c0.6,1.2,0.9,2.7,0.9,4.5c0,1.7-0.3,3.2-0.8,4.7c-0.5,1.5-1.3,2.7-2.2,3.8
		c-1,1.1-2.1,1.9-3.4,2.6c-1.3,0.6-2.8,0.9-4.3,0.9h-21.2V60z M194.7,77.5h9.8c1.4,0,2.6-0.4,3.4-1.2c0.8-0.8,1.2-1.9,1.2-3.3v-1.9
		c0-1.4-0.4-2.5-1.2-3.3c-0.8-0.8-1.9-1.2-3.4-1.2h-9.8V77.5z M194.7,95.2h11c1.5,0,2.7-0.4,3.5-1.2c0.8-0.8,1.3-1.9,1.3-3.4v-2
		c0-1.5-0.4-2.6-1.3-3.4c-0.8-0.8-2-1.2-3.5-1.2h-11V95.2z"/>
	<path class="st1" d="M258.2,71.8h-0.2l-3.2,6.7l-8.6,15.8l-8.6-15.8l-3.2-6.7H234v30.1h-7.5V60h8.9l10.7,20.5h0.2L257.1,60h8.6
		v41.9h-7.5V71.8z"/>
	<path class="st1" d="M318.4,101.9H287v-7.1L308.7,67h-20.6v-7h29.7v7.1l-21.7,27.8h22.3V101.9z"/>
	<path class="st1" d="M370.4,102.6c-2.8,0-5.3-0.5-7.5-1.4c-2.2-0.9-4.2-2.3-5.7-4.1s-2.8-4.1-3.7-6.8c-0.9-2.7-1.3-5.8-1.3-9.4
		c0-3.5,0.4-6.6,1.3-9.3c0.9-2.7,2.1-5,3.7-6.8c1.6-1.8,3.5-3.2,5.7-4.1c2.2-0.9,4.7-1.4,7.5-1.4c2.8,0,5.3,0.5,7.5,1.4
		c2.2,0.9,4.2,2.3,5.8,4.1c1.6,1.8,2.8,4.1,3.7,6.8c0.9,2.7,1.3,5.8,1.3,9.3c0,3.6-0.4,6.7-1.3,9.4c-0.9,2.7-2.1,4.9-3.7,6.8
		c-1.6,1.8-3.5,3.2-5.8,4.1C375.6,102.1,373.1,102.6,370.4,102.6z M370.4,95.6c3,0,5.4-1,7.2-3c1.8-2,2.7-4.8,2.7-8.4v-6.5
		c0-3.6-0.9-6.4-2.7-8.4c-1.8-2-4.2-3-7.2-3c-3,0-5.4,1-7.2,3c-1.8,2-2.7,4.8-2.7,8.4v6.5c0,3.6,0.9,6.4,2.7,8.4
		C365,94.6,367.4,95.6,370.4,95.6z"/>
	<path class="st1" d="M396.2,70.6h7.7v5.2h0.2c0.6-1.8,1.6-3.2,3.2-4.3c1.6-1.1,3.4-1.6,5.5-1.6c4,0,7,1.4,9.2,4.2
		c2.1,2.8,3.1,6.8,3.1,12.1c0,5.3-1,9.3-3.1,12.2c-2.1,2.8-5.2,4.3-9.2,4.3c-2.1,0-3.9-0.5-5.4-1.6c-1.5-1.1-2.6-2.5-3.2-4.3h-0.2
		v17.2h-7.7V70.6z M410.3,96.2c2,0,3.6-0.7,4.9-2c1.2-1.3,1.9-3.1,1.9-5.3v-5.4c0-2.2-0.6-4-1.9-5.4c-1.2-1.3-2.9-2-4.9-2
		c-1.8,0-3.4,0.5-4.6,1.4c-1.2,0.9-1.8,2.1-1.8,3.7v10c0,1.6,0.6,2.9,1.8,3.8C406.9,95.8,408.4,96.2,410.3,96.2z"/>
	<path class="st1" d="M444.8,102.6c-2.3,0-4.4-0.4-6.2-1.2s-3.4-1.9-4.6-3.3c-1.3-1.4-2.2-3.1-2.9-5.2c-0.7-2-1-4.3-1-6.8
		c0-2.5,0.3-4.7,1-6.7c0.7-2,1.6-3.7,2.8-5.1c1.2-1.4,2.8-2.5,4.6-3.3s3.8-1.2,6.1-1.2c2.4,0,4.6,0.4,6.4,1.3s3.3,2,4.4,3.4
		c1.2,1.4,2,3.1,2.6,5c0.6,1.9,0.9,3.9,0.9,6.1v2.5H438v0.8c0,2.3,0.6,4.1,1.9,5.5c1.3,1.4,3.2,2.1,5.7,2.1c1.9,0,3.5-0.4,4.7-1.2
		c1.2-0.8,2.3-1.8,3.3-3l4.1,4.6c-1.3,1.8-3,3.2-5.2,4.2C450.3,102.1,447.7,102.6,444.8,102.6z M444.7,75.6c-2,0-3.7,0.7-4.9,2
		c-1.2,1.4-1.8,3.1-1.8,5.3v0.5h12.8v-0.5c0-2.2-0.5-3.9-1.6-5.2C448.2,76.3,446.7,75.6,444.7,75.6z"/>
	<path class="st1" d="M465.6,101.9V70.6h7.7v5.2h0.3c0.6-1.7,1.7-3.1,3-4.2s3.3-1.7,5.7-1.7c3.2,0,5.7,1.1,7.4,3.2
		c1.7,2.1,2.6,5.1,2.6,9.1v19.8h-7.7v-19c0-2.2-0.4-3.9-1.2-5c-0.8-1.1-2.1-1.7-4-1.7c-0.8,0-1.6,0.1-2.3,0.3c-0.7,0.2-1.4,0.5-2,1
		c-0.6,0.4-1.1,0.9-1.4,1.6c-0.4,0.6-0.5,1.3-0.5,2.2v20.7H465.6z"/>
	<path class="st1" d="M515.6,101.9V60h27.6v7h-19.7v10.1h17.4v7h-17.4v10.7h19.7v7H515.6z"/>
	<path class="st1" d="M569.9,96.7h-0.3c-0.6,1.8-1.6,3.2-3.2,4.3c-1.6,1.1-3.4,1.6-5.5,1.6c-4,0-7-1.4-9.1-4.3
		c-2.1-2.8-3.1-6.9-3.1-12.2c0-5.2,1-9.3,3.1-12.1c2.1-2.8,5.1-4.2,9.1-4.2c2.1,0,3.9,0.5,5.5,1.6c1.6,1.1,2.6,2.5,3.2,4.3h0.3V57.5
		h7.7v44.4h-7.7V96.7z M563.4,96.2c1.8,0,3.4-0.4,4.6-1.3s1.9-2.1,1.9-3.8v-10c0-1.5-0.6-2.7-1.9-3.7c-1.2-0.9-2.8-1.4-4.6-1.4
		c-2,0-3.6,0.7-4.8,2c-1.2,1.3-1.8,3.1-1.8,5.4v5.4c0,2.2,0.6,4,1.8,5.3C559.8,95.6,561.4,96.2,563.4,96.2z"/>
	<path class="st1" d="M590.3,66c-1.6,0-2.8-0.4-3.5-1.1c-0.7-0.7-1-1.6-1-2.8V61c0-1.1,0.3-2,1-2.8c0.7-0.7,1.8-1.1,3.5-1.1
		c1.6,0,2.7,0.4,3.4,1.1c0.7,0.7,1.1,1.6,1.1,2.8v1.2c0,1.1-0.4,2-1.1,2.8S591.9,66,590.3,66z M586.5,70.6h7.7v31.3h-7.7V70.6z"/>
	<path class="st1" d="M612.8,101.9c-2.6,0-4.6-0.7-6-2.1c-1.4-1.4-2.1-3.3-2.1-5.9V76.7h-4.6v-6.2h2.4c1.2,0,1.9-0.3,2.4-0.8
		c0.4-0.5,0.6-1.4,0.6-2.4V62h6.9v8.6h6.4v6.2h-6.4v19h5.9v6.2H612.8z"/>
	<path class="st1" d="M637.7,102.6c-2.2,0-4.3-0.4-6-1.1c-1.8-0.8-3.3-1.9-4.6-3.3c-1.3-1.4-2.2-3.2-2.9-5.2c-0.7-2-1-4.3-1-6.8
		c0-2.5,0.3-4.8,1-6.8c0.7-2,1.6-3.7,2.9-5.1c1.3-1.4,2.8-2.5,4.6-3.3c1.8-0.8,3.8-1.1,6-1.1c2.2,0,4.3,0.4,6.1,1.1
		c1.8,0.8,3.3,1.9,4.6,3.3s2.2,3.1,2.9,5.1c0.7,2,1,4.3,1,6.8c0,2.5-0.3,4.8-1,6.8c-0.7,2-1.7,3.8-2.9,5.2c-1.3,1.4-2.8,2.5-4.6,3.3
		S639.9,102.6,637.7,102.6z M637.7,96.4c2,0,3.6-0.6,4.8-1.9c1.2-1.2,1.7-3.1,1.7-5.5v-5.8c0-2.4-0.6-4.2-1.7-5.4
		c-1.2-1.2-2.8-1.9-4.8-1.9c-2,0-3.6,0.6-4.7,1.9c-1.2,1.2-1.7,3-1.7,5.4v5.8c0,2.4,0.6,4.2,1.7,5.5
		C634.1,95.8,635.7,96.4,637.7,96.4z"/>
	<path class="st1" d="M659,101.9V70.6h7.7V77h0.3c0.2-0.8,0.5-1.7,0.9-2.4c0.4-0.8,1-1.5,1.7-2.1c0.7-0.6,1.5-1.1,2.4-1.4
		c0.9-0.4,2-0.5,3.3-0.5h1.7v7.3h-2.4c-2.6,0-4.6,0.4-5.9,1.1c-1.3,0.8-2,2-2,3.7v19.2H659z"/>
</g>
</svg>
