<?xml version="1.0" encoding="utf-8"?>
<!-- Generator: Adobe Illustrator 24.0.3, SVG Export Plug-In . SVG Version: 6.00 Build 0)  -->
<svg version="1.1" id="icon" xmlns="http://www.w3.org/2000/svg" xmlns:xlink="http://www.w3.org/1999/xlink" x="0px" y="0px"
	 viewBox="0 0 32 32" style="enable-background:new 0 0 32 32;" xml:space="preserve">
<style type="text/css">
	.st0{fill:#3248DA;}
	.st1{fill:none;}
</style>
<title>bullhorn</title>
<g>
	<path class="st0" d="M26,6v2.2L5.6,11.9c-1,0.2-1.7,1-1.6,2v4.3c0,1,0.7,1.8,1.6,2L8,20.6V24c0,1.1,0.9,2,2,2h8c1.1,0,2-0.9,2-2
		v-1.3l6,1.1V26h2V6H26z M18,24h-8v-3.1l8,1.5V24z M6,18.2v-4.3l20-3.6v11.6L6,18.2z"/>
</g>
<rect id="_Transparent_Rectangle_" class="st1" width="32" height="32"/>
<g id="sMHrCD.tif">
	<g id="Layer_0_3_">
		
			<image style="overflow:visible;" width="295" height="533" xlink:href="2F1973FC37B35FEC.png"  transform="matrix(2.549 0 0 2.549 112.5282 -673.2982)">
		</image>
		
			<image style="overflow:visible;" width="295" height="533" xlink:href="2F1973FC37B35FEB.png"  transform="matrix(2.549 0 0 2.549 112.5282 -673.2982)">
		</image>
	</g>
</g>
</svg>
