<svg xmlns="http://www.w3.org/2000/svg" xmlns:xlink="http://www.w3.org/1999/xlink" viewBox="0 0 352.66 422.59"><defs><style>.cls-1{mask:url(#mask);}.cls-10,.cls-12,.cls-14,.cls-16,.cls-18,.cls-2,.cls-4,.cls-6,.cls-8{mix-blend-mode:multiply;}.cls-2{fill:url(#linear-gradient);}.cls-3{mask:url(#mask-2);}.cls-4{fill:url(#radial-gradient);}.cls-5{mask:url(#mask-3);}.cls-6{fill:url(#linear-gradient-2);}.cls-7{mask:url(#mask-4);}.cls-8{fill:url(#linear-gradient-3);}.cls-9{mask:url(#mask-5);}.cls-10{fill:url(#linear-gradient-4);}.cls-11{mask:url(#mask-6);}.cls-12{fill:url(#linear-gradient-5);}.cls-13{mask:url(#mask-7);}.cls-14{fill:url(#radial-gradient-2);}.cls-15{mask:url(#mask-8);}.cls-16{fill:url(#radial-gradient-3);}.cls-17{mask:url(#mask-9);}.cls-18{fill:url(#radial-gradient-4);}.cls-19,.cls-20,.cls-21,.cls-22,.cls-23,.cls-24,.cls-25,.cls-26,.cls-27,.cls-28,.cls-29,.cls-30,.cls-31,.cls-32,.cls-33,.cls-34,.cls-35,.cls-36,.cls-37,.cls-38,.cls-39,.cls-40{fill:#1a38dd;}.cls-19,.cls-41{opacity:0;}.cls-20,.cls-42{opacity:0.05;}.cls-21,.cls-43{opacity:0.1;}.cls-22,.cls-44{opacity:0.14;}.cls-23,.cls-45{opacity:0.19;}.cls-24,.cls-46{opacity:0.24;}.cls-25,.cls-47{opacity:0.29;}.cls-26,.cls-48{opacity:0.33;}.cls-27,.cls-49{opacity:0.38;}.cls-28,.cls-50{opacity:0.43;}.cls-29,.cls-51{opacity:0.48;}.cls-30,.cls-52{opacity:0.52;}.cls-31,.cls-53{opacity:0.57;}.cls-32,.cls-54{opacity:0.62;}.cls-33,.cls-55{opacity:0.67;}.cls-34,.cls-56{opacity:0.71;}.cls-35,.cls-57{opacity:0.76;}.cls-36,.cls-58{opacity:0.81;}.cls-37,.cls-59{opacity:0.86;}.cls-38,.cls-60{opacity:0.9;}.cls-39,.cls-61{opacity:0.95;}.cls-41,.cls-42,.cls-43,.cls-44,.cls-45,.cls-46,.cls-47,.cls-48,.cls-49,.cls-50,.cls-51,.cls-52,.cls-53,.cls-54,.cls-55,.cls-56,.cls-57,.cls-58,.cls-59,.cls-60,.cls-61,.cls-62{fill:#0043ce;}.cls-63{fill:url(#linear-gradient-6);}.cls-64{fill:url(#linear-gradient-7);}.cls-65{fill:url(#linear-gradient-8);}.cls-66{fill:url(#linear-gradient-9);}.cls-67{fill:url(#linear-gradient-10);}.cls-68{fill:url(#linear-gradient-11);}.cls-69{mask:url(#mask-10);}.cls-70{fill:url(#linear-gradient-12);}.cls-71{mask:url(#mask-11);}.cls-72{fill:url(#linear-gradient-13);}.cls-73{opacity:0.5;}.cls-74{mask:url(#mask-12);}.cls-75{fill:url(#radial-gradient-5);}.cls-76{fill:#fafbfe;}.cls-77{mask:url(#mask-13);}.cls-78{fill:url(#radial-gradient-6);}.cls-79{mask:url(#mask-14);}.cls-80{fill:url(#radial-gradient-7);}.cls-81{mask:url(#mask-15);}.cls-82{fill:url(#radial-gradient-8);}.cls-83{mask:url(#mask-16);}.cls-84{fill:url(#linear-gradient-14);}.cls-85{mask:url(#mask-17);}.cls-86{fill:url(#linear-gradient-15);}.cls-87{opacity:0.75;}.cls-88{fill:#fff;}.cls-89{mask:url(#mask-18);}.cls-90{fill:url(#linear-gradient-16);}.cls-91{filter:url(#luminosity-noclip-18);}.cls-92{filter:url(#luminosity-noclip-17);}.cls-93{filter:url(#luminosity-noclip-16);}.cls-94{filter:url(#luminosity-noclip-15);}.cls-95{filter:url(#luminosity-noclip-14);}.cls-96{filter:url(#luminosity-noclip-13);}.cls-97{filter:url(#luminosity-noclip-12);}.cls-98{filter:url(#luminosity-noclip-11);}.cls-99{filter:url(#luminosity-noclip-10);}.cls-100{filter:url(#luminosity-noclip-9);}.cls-101{filter:url(#luminosity-noclip-8);}.cls-102{filter:url(#luminosity-noclip-7);}.cls-103{filter:url(#luminosity-noclip-6);}.cls-104{filter:url(#luminosity-noclip-5);}.cls-105{filter:url(#luminosity-noclip-4);}.cls-106{filter:url(#luminosity-noclip-3);}.cls-107{filter:url(#luminosity-noclip-2);}.cls-108{filter:url(#luminosity-noclip);}</style><filter id="luminosity-noclip" x="220.24" y="-8335.58" width="132.42" height="32766" filterUnits="userSpaceOnUse" color-interpolation-filters="sRGB"><feFlood flood-color="#fff" result="bg"/><feBlend in="SourceGraphic" in2="bg"/></filter><mask id="mask" x="220.24" y="-8335.58" width="132.42" height="32766" maskUnits="userSpaceOnUse"><g class="cls-108"/></mask><linearGradient id="linear-gradient" x1="220.24" y1="318.81" x2="352.66" y2="318.81" gradientUnits="userSpaceOnUse"><stop offset="0" stop-color="#fff"/><stop offset="0.17" stop-color="#fcfcfc"/><stop offset="0.3" stop-color="#f2f2f2"/><stop offset="0.42" stop-color="#e2e2e2"/><stop offset="0.53" stop-color="#cacaca"/><stop offset="0.64" stop-color="#acacac"/><stop offset="0.74" stop-color="#878787"/><stop offset="0.84" stop-color="#5b5b5b"/><stop offset="0.93" stop-color="#2a2a2a"/><stop offset="1"/></linearGradient><filter id="luminosity-noclip-2" x="232.66" y="-8335.58" width="34.79" height="32766" filterUnits="userSpaceOnUse" color-interpolation-filters="sRGB"><feFlood flood-color="#fff" result="bg"/><feBlend in="SourceGraphic" in2="bg"/></filter><mask id="mask-2" x="232.66" y="-8335.58" width="34.79" height="32766" maskUnits="userSpaceOnUse"><g class="cls-107"/></mask><radialGradient id="radial-gradient" cx="250.06" cy="297.8" r="17.39" gradientTransform="translate(131.39 -72.51) rotate(22.25)" gradientUnits="userSpaceOnUse"><stop offset="0" stop-color="#fff"/><stop offset="0.12" stop-color="#c7c7c7"/><stop offset="0.24" stop-color="#939393"/><stop offset="0.37" stop-color="#666"/><stop offset="0.5" stop-color="#414141"/><stop offset="0.62" stop-color="#242424"/><stop offset="0.75" stop-color="#101010"/><stop offset="0.88" stop-color="#040404"/><stop offset="1"/></radialGradient><filter id="luminosity-noclip-3" x="20.6" y="-8335.58" width="267.96" height="32766" filterUnits="userSpaceOnUse" color-interpolation-filters="sRGB"><feFlood flood-color="#fff" result="bg"/><feBlend in="SourceGraphic" in2="bg"/></filter><mask id="mask-3" x="20.6" y="-8335.58" width="267.96" height="32766" maskUnits="userSpaceOnUse"><g class="cls-106"/></mask><linearGradient id="linear-gradient-2" x1="154.58" y1="-0.59" x2="154.58" y2="150.95" gradientUnits="userSpaceOnUse"><stop offset="0" stop-color="#404040"/><stop offset="0.14" stop-color="#333"/><stop offset="0.44" stop-color="#1e1e1e"/><stop offset="0.73" stop-color="#111"/><stop offset="1" stop-color="#0d0d0d"/></linearGradient><filter id="luminosity-noclip-4" x="20.16" y="-8335.58" width="134.15" height="32766" filterUnits="userSpaceOnUse" color-interpolation-filters="sRGB"><feFlood flood-color="#fff" result="bg"/><feBlend in="SourceGraphic" in2="bg"/></filter><mask id="mask-4" x="20.16" y="-8335.58" width="134.15" height="32766" maskUnits="userSpaceOnUse"><g class="cls-105"/></mask><linearGradient id="linear-gradient-3" x1="20.42" y1="77.2" x2="153.36" y2="308.67" gradientUnits="userSpaceOnUse"><stop offset="0" stop-color="#0d0d0d"/><stop offset="0.62" stop-color="#2b2b2b"/><stop offset="1" stop-color="#404040"/></linearGradient><filter id="luminosity-noclip-5" x="154.41" y="-8335.58" width="134.15" height="32766" filterUnits="userSpaceOnUse" color-interpolation-filters="sRGB"><feFlood flood-color="#fff" result="bg"/><feBlend in="SourceGraphic" in2="bg"/></filter><mask id="mask-5" x="154.41" y="-8335.58" width="134.15" height="32766" maskUnits="userSpaceOnUse"><g class="cls-104"/></mask><linearGradient id="linear-gradient-4" x1="154.66" y1="155.45" x2="289.43" y2="232.26" xlink:href="#linear-gradient-2"/><filter id="luminosity-noclip-6" x="28.93" y="-8335.58" width="163.73" height="32766" filterUnits="userSpaceOnUse" color-interpolation-filters="sRGB"><feFlood flood-color="#fff" result="bg"/><feBlend in="SourceGraphic" in2="bg"/></filter><mask id="mask-6" x="28.93" y="-8335.58" width="163.73" height="32766" maskUnits="userSpaceOnUse"><g class="cls-103"/></mask><linearGradient id="linear-gradient-5" x1="296.21" y1="614.49" x2="496.55" y2="614.49" gradientTransform="matrix(0.87, 0.5, -1, 0.58, 411.58, -200.99)" xlink:href="#linear-gradient"/><filter id="luminosity-noclip-7" x="135.38" y="-8335.58" width="34.79" height="32766" filterUnits="userSpaceOnUse" color-interpolation-filters="sRGB"><feFlood flood-color="#fff" result="bg"/><feBlend in="SourceGraphic" in2="bg"/></filter><mask id="mask-7" x="135.38" y="-8335.58" width="34.79" height="32766" maskUnits="userSpaceOnUse"><g class="cls-102"/></mask><radialGradient id="radial-gradient-2" cx="152.77" cy="398.91" r="17.39" gradientTransform="matrix(1, 0, 0, 1, 0, 0)" xlink:href="#radial-gradient"/><filter id="luminosity-noclip-8" x="302.53" y="-8335.58" width="34.79" height="32766" filterUnits="userSpaceOnUse" color-interpolation-filters="sRGB"><feFlood flood-color="#fff" result="bg"/><feBlend in="SourceGraphic" in2="bg"/></filter><mask id="mask-8" x="302.53" y="-8335.58" width="34.79" height="32766" maskUnits="userSpaceOnUse"><g class="cls-101"/></mask><radialGradient id="radial-gradient-3" cx="319.92" cy="338.14" r="17.39" gradientTransform="matrix(1, 0, 0, 1, 0, 0)" xlink:href="#radial-gradient"/><filter id="luminosity-noclip-9" x="40.32" y="-8335.58" width="34.79" height="32766" filterUnits="userSpaceOnUse" color-interpolation-filters="sRGB"><feFlood flood-color="#fff" result="bg"/><feBlend in="SourceGraphic" in2="bg"/></filter><mask id="mask-9" x="40.32" y="-8335.58" width="34.79" height="32766" maskUnits="userSpaceOnUse"><g class="cls-100"/></mask><radialGradient id="radial-gradient-4" cx="57.71" cy="301.42" r="17.39" gradientTransform="matrix(1, 0, 0, 1, 0, 0)" xlink:href="#radial-gradient"/><linearGradient id="linear-gradient-6" x1="49.98" y1="215.04" x2="124.46" y2="344.71" gradientUnits="userSpaceOnUse"><stop offset="0" stop-color="#2938de"/><stop offset="0.37" stop-color="#2356e8"/><stop offset="1" stop-color="#1891fb"/></linearGradient><linearGradient id="linear-gradient-7" x1="1421" y1="215.04" x2="1495.48" y2="344.71" gradientTransform="matrix(-1, 0, 0, 1, 1679.92, 0)" gradientUnits="userSpaceOnUse"><stop offset="0" stop-color="#2938de"/><stop offset="0.62" stop-color="#1f56ef"/><stop offset="1" stop-color="#186bfb"/></linearGradient><linearGradient id="linear-gradient-8" x1="154.58" y1="154.12" x2="154.58" y2="305.66" gradientUnits="userSpaceOnUse"><stop offset="0" stop-color="#5ea5f8"/><stop offset="0.07" stop-color="#599ff6"/><stop offset="0.39" stop-color="#458aee"/><stop offset="0.71" stop-color="#397de9"/><stop offset="1" stop-color="#3579e7"/></linearGradient><linearGradient id="linear-gradient-9" x1="67.45" y1="190.45" x2="154.02" y2="190.45" gradientUnits="userSpaceOnUse"><stop offset="0" stop-color="#0043ce"/><stop offset="1" stop-color="#4589ff"/></linearGradient><linearGradient id="linear-gradient-10" x1="156.17" y1="190.45" x2="241.38" y2="190.45" gradientUnits="userSpaceOnUse"><stop offset="0" stop-color="#1192e8"/><stop offset="1" stop-color="#82cfff"/></linearGradient><linearGradient id="linear-gradient-11" x1="71.68" y1="115.09" x2="238.58" y2="115.09" gradientUnits="userSpaceOnUse"><stop offset="0" stop-color="#cee1f8"/><stop offset="1" stop-color="#60c5f2"/></linearGradient><filter id="luminosity-noclip-10" x="220.24" y="279.98" width="132.42" height="77.67" filterUnits="userSpaceOnUse" color-interpolation-filters="sRGB"><feFlood flood-color="#fff" result="bg"/><feBlend in="SourceGraphic" in2="bg"/></filter><mask id="mask-10" x="220.24" y="279.98" width="132.42" height="77.67" maskUnits="userSpaceOnUse"><g class="cls-99"><g transform="translate(0)"><g class="cls-1"><path class="cls-2" d="M351.21,357.65a1.46,1.46,0,0,1-.72-.19L221,282.67a1.44,1.44,0,0,1,1.44-2.5L351.94,355a1.44,1.44,0,0,1-.73,2.69Z"/></g></g></g></mask><linearGradient id="linear-gradient-12" x1="220.24" y1="318.81" x2="352.66" y2="318.81" gradientUnits="userSpaceOnUse"><stop offset="0" stop-color="#03ccf1"/><stop offset="0.9" stop-color="#03ccf1"/><stop offset="1" stop-color="#03ccf1"/></linearGradient><filter id="luminosity-noclip-11" x="28.93" y="281.42" width="163.73" height="141.17" filterUnits="userSpaceOnUse" color-interpolation-filters="sRGB"><feFlood flood-color="#fff" result="bg"/><feBlend in="SourceGraphic" in2="bg"/></filter><mask id="mask-11" x="28.93" y="281.42" width="163.73" height="141.17" maskUnits="userSpaceOnUse"><g class="cls-98"><g transform="translate(0)"><g class="cls-11"><path class="cls-12" d="M191.22,422.59a1.41,1.41,0,0,1-.72-.19l-156-90a11.21,11.21,0,0,1,0-19.42l54.24-31.32a1.44,1.44,0,0,1,1.44,2.5L36,315.43a8.33,8.33,0,0,0,0,14.43l156,90a1.44,1.44,0,0,1-.72,2.69Z"/></g></g></g></mask><linearGradient id="linear-gradient-13" x1="296.21" y1="614.49" x2="496.55" y2="614.49" gradientTransform="matrix(0.87, 0.5, -1, 0.58, 411.58, -200.99)" xlink:href="#linear-gradient-12"/><filter id="luminosity-noclip-12" x="135.38" y="381.51" width="34.79" height="34.79" filterUnits="userSpaceOnUse" color-interpolation-filters="sRGB"><feFlood flood-color="#fff" result="bg"/><feBlend in="SourceGraphic" in2="bg"/></filter><mask id="mask-12" x="135.38" y="381.51" width="34.79" height="34.79" maskUnits="userSpaceOnUse"><g class="cls-97"><g transform="translate(0)"><g class="cls-13"><circle class="cls-14" cx="152.77" cy="398.91" r="17.39"/></g></g></g></mask><radialGradient id="radial-gradient-5" cx="152.77" cy="398.91" r="17.39" gradientUnits="userSpaceOnUse"><stop offset="0" stop-color="#fff"/><stop offset="0.11" stop-color="#caf4fc"/><stop offset="0.24" stop-color="#96eaf9"/><stop offset="0.37" stop-color="#69e1f7"/><stop offset="0.5" stop-color="#44d9f5"/><stop offset="0.62" stop-color="#27d3f3"/><stop offset="0.75" stop-color="#13cff2"/><stop offset="0.88" stop-color="#07cdf1"/><stop offset="1" stop-color="#03ccf1"/></radialGradient><filter id="luminosity-noclip-13" x="302.53" y="320.75" width="34.79" height="34.79" filterUnits="userSpaceOnUse" color-interpolation-filters="sRGB"><feFlood flood-color="#fff" result="bg"/><feBlend in="SourceGraphic" in2="bg"/></filter><mask id="mask-13" x="302.53" y="320.75" width="34.79" height="34.79" maskUnits="userSpaceOnUse"><g class="cls-96"><g transform="translate(0)"><g class="cls-15"><circle class="cls-16" cx="319.92" cy="338.14" r="17.39"/></g></g></g></mask><radialGradient id="radial-gradient-6" cx="319.92" cy="338.14" r="17.39" xlink:href="#radial-gradient-5"/><filter id="luminosity-noclip-14" x="40.32" y="284.03" width="34.79" height="34.79" filterUnits="userSpaceOnUse" color-interpolation-filters="sRGB"><feFlood flood-color="#fff" result="bg"/><feBlend in="SourceGraphic" in2="bg"/></filter><mask id="mask-14" x="40.32" y="284.03" width="34.79" height="34.79" maskUnits="userSpaceOnUse"><g class="cls-95"><g transform="translate(0)"><g class="cls-17"><circle class="cls-18" cx="57.71" cy="301.42" r="17.39"/></g></g></g></mask><radialGradient id="radial-gradient-7" cx="57.71" cy="301.42" r="17.39" xlink:href="#radial-gradient-5"/><filter id="luminosity-noclip-15" x="232.66" y="280.41" width="34.79" height="34.79" filterUnits="userSpaceOnUse" color-interpolation-filters="sRGB"><feFlood flood-color="#fff" result="bg"/><feBlend in="SourceGraphic" in2="bg"/></filter><mask id="mask-15" x="232.66" y="280.41" width="34.79" height="34.79" maskUnits="userSpaceOnUse"><g class="cls-94"><g transform="translate(0)"><g class="cls-3"><circle class="cls-4" cx="250.06" cy="297.8" r="17.39" transform="translate(-94.15 116.86) rotate(-22.25)"/></g></g></g></mask><radialGradient id="radial-gradient-8" cx="250.06" cy="297.8" r="17.39" gradientTransform="translate(131.39 -72.51) rotate(22.25)" xlink:href="#radial-gradient-5"/><filter id="luminosity-noclip-16" x="20.6" y="0" width="267.96" height="154.71" filterUnits="userSpaceOnUse" color-interpolation-filters="sRGB"><feFlood flood-color="#fff" result="bg"/><feBlend in="SourceGraphic" in2="bg"/></filter><mask id="mask-16" x="20.6" y="0" width="267.96" height="154.71" maskUnits="userSpaceOnUse"><g class="cls-93"><g transform="translate(0)"><g class="cls-5"><polygon class="cls-6" points="154.58 154.71 20.6 77.35 154.58 0 288.56 77.35 154.58 154.71"/></g></g></g></mask><linearGradient id="linear-gradient-14" x1="154.58" y1="-0.59" x2="154.58" y2="150.95" gradientUnits="userSpaceOnUse"><stop offset="0" stop-color="#fff"/><stop offset="1" stop-color="#fff"/></linearGradient><filter id="luminosity-noclip-17" x="20.16" y="77.35" width="134.15" height="232.36" filterUnits="userSpaceOnUse" color-interpolation-filters="sRGB"><feFlood flood-color="#fff" result="bg"/><feBlend in="SourceGraphic" in2="bg"/></filter><mask id="mask-17" x="20.16" y="77.35" width="134.15" height="232.36" maskUnits="userSpaceOnUse"><g class="cls-92"><g transform="translate(0)"><g class="cls-7"><polygon class="cls-8" points="154.31 309.71 20.16 232.26 20.16 77.35 154.31 154.81 154.31 309.71"/></g></g></g></mask><linearGradient id="linear-gradient-15" x1="20.42" y1="77.2" x2="153.36" y2="308.67" xlink:href="#linear-gradient-14"/><filter id="luminosity-noclip-18" x="154.41" y="77.35" width="134.15" height="232.36" filterUnits="userSpaceOnUse" color-interpolation-filters="sRGB"><feFlood flood-color="#fff" result="bg"/><feBlend in="SourceGraphic" in2="bg"/></filter><mask id="mask-18" x="154.41" y="77.35" width="134.15" height="232.36" maskUnits="userSpaceOnUse"><g class="cls-91"><g transform="translate(0)"><g class="cls-9"><polygon class="cls-10" points="154.41 309.71 288.56 232.26 288.56 77.35 154.41 154.81 154.41 309.71"/></g></g></g></mask><linearGradient id="linear-gradient-16" x1="154.66" y1="155.45" x2="289.43" y2="232.26" xlink:href="#linear-gradient-14"/></defs><title>Asset 4</title><g id="Layer_2" data-name="Layer 2"><g id="Layer_1-2" data-name="Layer 1"><path class="cls-19" d="M299.65,278.8,197.12,219.6c-21.64-12.49-56.72-12.49-78.36,0L16.23,278.8c-21.64,12.49-21.64,32.75,0,45.24l102.53,59.2c21.64,12.49,56.72,12.49,78.36,0L299.65,324C321.29,311.55,321.29,291.29,299.65,278.8Z" transform="translate(0)"/><path class="cls-20" d="M293.07,279.82,195.36,223.4c-20.67-11.93-54.17-11.93-74.84,0L22.8,279.82c-20.66,11.93-20.66,31.27,0,43.2l97.71,56.42c20.67,11.93,54.17,11.93,74.84,0L293.08,323C313.74,311.09,313.74,291.75,293.07,279.82Z" transform="translate(0)"/><path class="cls-21" d="M286.5,280.83,193.6,227.2c-19.7-11.37-51.63-11.37-71.32,0l-92.9,53.63C9.69,292.2,9.69,310.64,29.38,322l92.9,53.63c19.7,11.37,51.63,11.37,71.32,0L286.5,322C306.19,310.64,306.19,292.2,286.5,280.83Z" transform="translate(0)"/><path class="cls-22" d="M279.92,281.85,191.83,231c-18.72-10.8-49.07-10.8-67.79,0L36,281.85C17.24,292.66,17.24,310.18,36,321l88.09,50.86c18.72,10.81,49.07,10.81,67.79,0L279.92,321C298.64,310.18,298.64,292.66,279.92,281.85Z" transform="translate(0)"/><path class="cls-23" d="M273.35,282.87l-83.28-48.08c-17.74-10.25-46.52-10.25-64.26,0L42.53,282.87c-17.74,10.24-17.74,26.86,0,37.1l83.28,48.08c17.74,10.25,46.52,10.25,64.26,0L273.35,320C291.09,309.73,291.09,293.12,273.35,282.87Z" transform="translate(0)"/><path class="cls-24" d="M266.77,283.89l-78.46-45.3c-16.77-9.69-44-9.69-60.74,0l-78.46,45.3c-16.78,9.68-16.78,25.38,0,35.06l78.46,45.31c16.77,9.68,44,9.68,60.74,0L266.77,319C283.55,309.27,283.55,293.57,266.77,283.89Z" transform="translate(0)"/><path class="cls-25" d="M260.2,284.9l-73.65-42.52c-15.8-9.12-41.42-9.12-57.22,0L55.68,284.9c-15.8,9.13-15.8,23.92,0,33l73.65,42.52c15.8,9.12,41.42,9.12,57.22,0l73.65-42.52C276,308.82,276,294,260.2,284.9Z" transform="translate(0)"/><path class="cls-26" d="M253.62,285.92l-68.83-39.74c-14.83-8.56-38.87-8.56-53.7,0L62.26,285.92c-14.83,8.56-14.83,22.44,0,31l68.83,39.74c14.83,8.56,38.87,8.56,53.7,0l68.83-39.74C268.45,308.36,268.45,294.48,253.62,285.92Z" transform="translate(0)"/><path class="cls-27" d="M247.05,286.94l-64-37c-13.85-8-36.31-8-50.16,0l-64,37c-13.85,8-13.85,21,0,29l64,37c13.85,8,36.31,8,50.16,0l64-37C260.9,307.91,260.9,294.94,247.05,286.94Z" transform="translate(0)"/><path class="cls-28" d="M240.47,288l-59.21-34.19c-12.88-7.43-33.76-7.43-46.64,0L75.41,288c-12.88,7.43-12.88,19.49,0,26.93l59.21,34.18c12.88,7.44,33.76,7.44,46.64,0l59.21-34.18C253.35,307.45,253.35,295.39,240.47,288Z" transform="translate(0)"/><path class="cls-29" d="M233.9,289l-54.4-31.4c-11.91-6.88-31.21-6.88-43.12,0L82,289c-11.9,6.88-11.9,18,0,24.9l54.4,31.4c11.91,6.88,31.21,6.88,43.12,0l54.4-31.4C245.8,307,245.8,295.85,233.9,289Z" transform="translate(0)"/><path class="cls-30" d="M227.32,290l-49.58-28.63c-10.94-6.31-28.66-6.31-39.6,0L88.56,290c-10.93,6.31-10.93,16.55,0,22.86l49.58,28.63c10.94,6.31,28.66,6.31,39.6,0l49.58-28.63C238.25,306.54,238.25,296.3,227.32,290Z" transform="translate(0)"/><path class="cls-31" d="M220.74,291,176,265.16c-10-5.75-26.11-5.75-36.07,0L95.14,291c-10,5.75-10,15.07,0,20.82l44.77,25.85c10,5.75,26.1,5.75,36.07,0l44.76-25.85C230.7,306.08,230.7,296.76,220.74,291Z" transform="translate(0)"/><path class="cls-32" d="M214.17,292l-40-23.07c-9-5.19-23.56-5.19-32.54,0l-40,23.07c-9,5.18-9,13.6,0,18.79l40,23.06c9,5.19,23.56,5.19,32.54,0l40-23.06C223.16,305.63,223.16,297.21,214.17,292Z" transform="translate(0)"/><path class="cls-33" d="M207.59,293l-35.14-20.29c-8-4.62-21-4.62-29,0L108.29,293c-8,4.63-8,12.13,0,16.76l35.14,20.29c8,4.63,21,4.63,29,0l35.14-20.29C215.61,305.17,215.61,297.67,207.59,293Z" transform="translate(0)"/><path class="cls-34" d="M201,294.06l-30.33-17.51c-7-4.07-18.46-4.07-25.5,0l-30.33,17.51c-7,4.07-7,10.66,0,14.72l30.33,17.51c7,4.07,18.46,4.07,25.5,0L201,308.78C208.06,304.72,208.06,298.13,201,294.06Z" transform="translate(0)"/><path class="cls-35" d="M194.44,295.08l-25.51-14.73c-6.07-3.51-15.91-3.51-22,0l-25.51,14.73c-6.07,3.5-6.07,9.18,0,12.68L147,322.5c6.07,3.5,15.91,3.5,22,0l25.51-14.74C200.51,304.26,200.51,298.58,194.44,295.08Z" transform="translate(0)"/><path class="cls-36" d="M187.87,296.1l-20.71-12c-5.09-2.94-13.35-2.94-18.44,0L128,296.1c-5.09,2.94-5.09,7.7,0,10.65l20.71,11.95c5.09,2.94,13.35,2.94,18.44,0l20.71-11.95C193,303.81,193,299,187.87,296.1Z" transform="translate(0)"/><path class="cls-37" d="M181.29,297.11l-15.89-9.17a16.48,16.48,0,0,0-14.92,0l-15.89,9.17c-4.12,2.38-4.12,6.24,0,8.62l15.89,9.17a16.48,16.48,0,0,0,14.92,0l15.89-9.17C185.41,303.35,185.41,299.49,181.29,297.11Z" transform="translate(0)"/><path class="cls-38" d="M174.72,298.13l-11.08-6.39a12.58,12.58,0,0,0-11.4,0l-11.08,6.39c-3.14,1.82-3.14,4.76,0,6.58l11.08,6.4a12.65,12.65,0,0,0,11.4,0l11.08-6.4C177.86,302.89,177.86,300,174.72,298.13Z" transform="translate(0)"/><path class="cls-39" d="M168.14,299.15l-6.26-3.62a8.75,8.75,0,0,0-7.88,0l-6.26,3.62c-2.18,1.25-2.18,3.29,0,4.54l6.26,3.62a8.69,8.69,0,0,0,7.88,0l6.26-3.62C170.31,302.44,170.31,300.4,168.14,299.15Z" transform="translate(0)"/><path class="cls-40" d="M161.57,300.17l-1.46-.84a4.77,4.77,0,0,0-4.35,0l-1.45.84a1.33,1.33,0,0,0,0,2.51l1.45.83a4.79,4.79,0,0,0,4.36,0l1.45-.83A1.33,1.33,0,0,0,161.57,300.17Z" transform="translate(0)"/><path class="cls-41" d="M299.65,281.41,197.12,222.22c-21.64-12.5-56.72-12.5-78.36,0L16.23,281.41c-21.64,12.5-21.64,32.75,0,45.24l102.53,59.2c21.64,12.49,56.72,12.49,78.36,0l102.53-59.19C321.29,314.16,321.29,293.91,299.65,281.41Z" transform="translate(0)"/><path class="cls-42" d="M293.07,282.43,195.36,226c-20.67-11.93-54.17-11.93-74.84,0L22.8,282.43c-20.66,11.93-20.66,31.28,0,43.21l97.71,56.41c20.67,11.94,54.17,11.94,74.84,0l97.72-56.41C313.74,313.71,313.74,294.36,293.07,282.43Z" transform="translate(0)"/><path class="cls-43" d="M286.5,283.45l-92.9-53.64c-19.7-11.37-51.63-11.37-71.32,0l-92.9,53.64c-19.69,11.37-19.69,29.8,0,41.17l92.9,53.64c19.7,11.37,51.63,11.37,71.32,0l92.9-53.64C306.19,313.25,306.19,294.82,286.5,283.45Z" transform="translate(0)"/><path class="cls-44" d="M279.92,284.47l-88.09-50.86c-18.72-10.81-49.07-10.81-67.79,0L36,284.46c-18.72,10.81-18.72,28.33,0,39.14l88.09,50.86c18.72,10.81,49.07,10.81,67.79,0l88.08-50.86C298.64,312.8,298.64,295.27,279.92,284.47Z" transform="translate(0)"/><path class="cls-45" d="M273.35,285.48,190.07,237.4c-17.74-10.24-46.52-10.24-64.26,0L42.53,285.48c-17.74,10.25-17.74,26.86,0,37.11l83.28,48.07c17.74,10.25,46.52,10.25,64.26,0l83.28-48.08C291.09,312.34,291.09,295.73,273.35,285.48Z" transform="translate(0)"/><path class="cls-46" d="M266.77,286.5l-78.46-45.3c-16.77-9.68-44-9.68-60.74,0L49.11,286.5c-16.78,9.68-16.78,25.38,0,35.07l78.46,45.3c16.77,9.68,44,9.68,60.74,0l78.46-45.3C283.55,311.88,283.55,296.18,266.77,286.5Z" transform="translate(0)"/><path class="cls-47" d="M260.2,287.52,186.55,245c-15.8-9.13-41.42-9.13-57.22,0L55.68,287.52c-15.8,9.12-15.8,23.91,0,33l73.65,42.52c15.8,9.12,41.42,9.12,57.22,0l73.65-42.52C276,311.43,276,296.64,260.2,287.52Z" transform="translate(0)"/><path class="cls-48" d="M253.62,288.53l-68.83-39.74c-14.83-8.56-38.87-8.56-53.7,0L62.26,288.53c-14.83,8.56-14.83,22.44,0,31l68.83,39.75c14.83,8.56,38.87,8.56,53.7,0l68.83-39.75C268.45,311,268.45,297.09,253.62,288.53Z" transform="translate(0)"/><path class="cls-49" d="M247.05,289.55l-64-37c-13.85-8-36.31-8-50.16,0l-64,37c-13.85,8-13.85,21,0,29l64,37c13.85,8,36.31,8,50.16,0l64-37C260.9,310.52,260.9,297.55,247.05,289.55Z" transform="translate(0)"/><path class="cls-50" d="M240.47,290.57l-59.21-34.19c-12.88-7.43-33.76-7.43-46.64,0L75.41,290.57c-12.88,7.44-12.88,19.49,0,26.93l59.21,34.18c12.88,7.44,33.76,7.44,46.64,0l59.21-34.18C253.35,310.06,253.35,298,240.47,290.57Z" transform="translate(0)"/><path class="cls-51" d="M233.9,291.59l-54.4-31.41c-11.91-6.87-31.21-6.87-43.12,0L82,291.59c-11.9,6.87-11.9,18,0,24.89l54.4,31.41c11.91,6.87,31.21,6.87,43.12,0l54.4-31.41C245.8,309.61,245.8,298.46,233.9,291.59Z" transform="translate(0)"/><path class="cls-52" d="M227.32,292.6,177.74,264c-10.94-6.32-28.66-6.32-39.6,0L88.56,292.6c-10.93,6.32-10.93,16.55,0,22.86l49.58,28.63c10.94,6.31,28.66,6.31,39.6,0l49.58-28.63C238.25,309.15,238.25,298.92,227.32,292.6Z" transform="translate(0)"/><path class="cls-53" d="M220.74,293.62,176,267.77c-10-5.75-26.11-5.75-36.07,0L95.14,293.62c-10,5.75-10,15.08,0,20.83l44.77,25.84c10,5.75,26.1,5.75,36.07,0l44.76-25.84C230.7,308.7,230.7,299.37,220.74,293.62Z" transform="translate(0)"/><path class="cls-54" d="M214.17,294.64l-40-23.07c-9-5.19-23.56-5.19-32.54,0l-40,23.07c-9,5.19-9,13.6,0,18.79l40,23.07c9,5.19,23.56,5.19,32.54,0l40-23.07C223.16,308.24,223.16,299.83,214.17,294.64Z" transform="translate(0)"/><path class="cls-55" d="M207.59,295.66l-35.14-20.29c-8-4.63-21-4.63-29,0l-35.14,20.29c-8,4.62-8,12.12,0,16.75l35.14,20.29c8,4.63,21,4.63,29,0l35.14-20.29C215.61,307.78,215.61,300.28,207.59,295.66Z" transform="translate(0)"/><path class="cls-56" d="M201,296.67l-30.33-17.51c-7-4.06-18.46-4.06-25.5,0l-30.33,17.51c-7,4.07-7,10.66,0,14.72l30.33,17.51c7,4.07,18.46,4.07,25.5,0L201,311.39C208.06,307.33,208.06,300.74,201,296.67Z" transform="translate(0)"/><path class="cls-57" d="M194.44,297.69,168.93,283c-6.07-3.5-15.91-3.5-22,0l-25.51,14.73c-6.07,3.5-6.07,9.18,0,12.69L147,325.11c6.07,3.5,15.91,3.5,22,0l25.51-14.73C200.51,306.87,200.51,301.19,194.44,297.69Z" transform="translate(0)"/><path class="cls-58" d="M187.87,298.71l-20.71-11.95c-5.09-2.95-13.35-2.95-18.44,0L128,298.71c-5.09,2.94-5.09,7.71,0,10.65l20.71,11.95c5.09,2.94,13.35,2.94,18.44,0l20.71-11.95C193,306.42,193,301.65,187.87,298.71Z" transform="translate(0)"/><path class="cls-59" d="M181.29,299.73l-15.89-9.18a16.48,16.48,0,0,0-14.92,0l-15.89,9.18c-4.12,2.37-4.12,6.23,0,8.61l15.89,9.18a16.48,16.48,0,0,0,14.92,0l15.89-9.18C185.41,306,185.41,302.11,181.29,299.73Z" transform="translate(0)"/><path class="cls-60" d="M174.72,300.74l-11.08-6.39a12.58,12.58,0,0,0-11.4,0l-11.08,6.39c-3.14,1.82-3.14,4.77,0,6.58l11.08,6.4a12.58,12.58,0,0,0,11.4,0l11.08-6.4C177.86,305.51,177.86,302.56,174.72,300.74Z" transform="translate(0)"/><path class="cls-61" d="M168.14,301.76l-6.26-3.62a8.75,8.75,0,0,0-7.88,0l-6.26,3.62c-2.18,1.26-2.18,3.29,0,4.55l6.26,3.61a8.69,8.69,0,0,0,7.88,0l6.26-3.61C170.31,305.05,170.31,303,168.14,301.76Z" transform="translate(0)"/><path class="cls-62" d="M161.57,302.78l-1.46-.84a4.83,4.83,0,0,0-4.35,0l-1.45.84a1.33,1.33,0,0,0,0,2.51l1.45.84a4.85,4.85,0,0,0,4.36,0l1.45-.84A1.33,1.33,0,0,0,161.57,302.78Z" transform="translate(0)"/><polygon class="cls-63" points="154.49 328.35 20.34 250.9 20.34 232.06 154.49 309.51 154.49 328.35"/><polygon class="cls-64" points="154.41 328.35 288.56 250.9 288.56 232.06 154.41 309.51 154.41 328.35"/><polygon class="cls-65" points="154.58 309.42 20.6 232.06 154.58 154.71 288.56 232.06 154.58 309.42"/><path class="cls-19" d="M249.69,213.7l-68.62-39.62c-14.49-8.37-38-8.37-52.46,0L60,213.7C45.5,222.06,45.5,235.62,60,244l68.62,39.62c14.49,8.37,38,8.37,52.46,0L249.69,244C264.18,235.62,264.18,222.06,249.69,213.7Z" transform="translate(0)"/><path class="cls-20" d="M245.29,214.38l-65.4-37.76c-13.84-8-36.26-8-50.1,0l-65.4,37.76c-13.84,8-13.84,20.93,0,28.92l65.4,37.76c13.84,8,36.26,8,50.1,0l65.4-37.76C259.13,235.31,259.13,222.37,245.29,214.38Z" transform="translate(0)"/><path class="cls-21" d="M240.89,215.06l-62.18-35.9c-13.19-7.61-34.56-7.61-47.74,0l-62.18,35.9c-13.18,7.61-13.18,19.95,0,27.56L131,278.52c13.19,7.61,34.56,7.61,47.74,0l62.18-35.9C254.07,235,254.07,222.67,240.89,215.06Z" transform="translate(0)"/><path class="cls-22" d="M236.49,215.74l-59-34c-12.53-7.24-32.85-7.24-45.38,0l-59,34c-12.53,7.23-12.53,19,0,26.2l59,34c12.53,7.23,32.85,7.23,45.38,0l59-34C249,234.7,249,223,236.49,215.74Z" transform="translate(0)"/><path class="cls-23" d="M232.09,216.42l-55.74-32.18c-11.88-6.86-31.14-6.86-43,0L77.59,216.42c-11.88,6.86-11.88,18,0,24.84l55.74,32.18c11.88,6.86,31.14,6.86,43,0l55.74-32.18C244,234.4,244,223.28,232.09,216.42Z" transform="translate(0)"/><path class="cls-24" d="M227.69,217.1l-52.52-30.32c-11.23-6.48-29.43-6.48-40.66,0L82,217.1c-11.22,6.48-11.22,17,0,23.48l52.52,30.32c11.23,6.48,29.43,6.48,40.66,0l52.52-30.32C238.91,234.09,238.91,223.58,227.69,217.1Z" transform="translate(0)"/><path class="cls-25" d="M223.29,217.78,174,189.32c-10.58-6.1-27.72-6.1-38.3,0l-49.3,28.46c-10.57,6.11-10.57,16,0,22.11l49.3,28.47c10.58,6.1,27.72,6.1,38.3,0l49.3-28.47C233.86,233.79,233.86,223.89,223.29,217.78Z" transform="translate(0)"/><path class="cls-26" d="M218.88,218.46l-46.07-26.6c-9.93-5.73-26-5.73-35.94,0L90.8,218.46c-9.93,5.73-9.93,15,0,20.75l46.07,26.61c9.93,5.72,26,5.72,35.94,0l46.07-26.61C228.81,233.48,228.81,224.19,218.88,218.46Z" transform="translate(0)"/><path class="cls-27" d="M214.48,219.15,171.63,194.4c-9.27-5.35-24.31-5.35-33.58,0L95.2,219.15c-9.28,5.35-9.28,14,0,19.38l42.85,24.74c9.27,5.36,24.31,5.36,33.58,0l42.85-24.74C223.76,233.18,223.76,224.5,214.48,219.15Z" transform="translate(0)"/><path class="cls-28" d="M210.08,219.83l-39.63-22.89c-8.62-5-22.6-5-31.22,0L99.6,219.83c-8.62,5-8.62,13,0,18l39.63,22.88c8.62,5,22.6,5,31.22,0l39.63-22.88C218.7,232.87,218.7,224.8,210.08,219.83Z" transform="translate(0)"/><path class="cls-29" d="M205.68,220.51l-36.41-21c-8-4.61-20.89-4.61-28.86,0l-36.41,21c-8,4.6-8,12.06,0,16.66l36.41,21c8,4.6,20.89,4.6,28.86,0l36.41-21C213.65,232.57,213.65,225.11,205.68,220.51Z" transform="translate(0)"/><path class="cls-30" d="M201.28,221.19,168.09,202c-7.32-4.23-19.18-4.23-26.5,0L108.4,221.19c-7.32,4.22-7.32,11.07,0,15.3l33.19,19.16c7.32,4.23,19.18,4.23,26.5,0l33.19-19.16C208.6,232.26,208.6,225.41,201.28,221.19Z" transform="translate(0)"/><path class="cls-31" d="M196.88,221.87l-30-17.3c-6.67-3.85-17.48-3.85-24.14,0l-30,17.3c-6.67,3.85-6.67,10.09,0,13.94l30,17.3c6.67,3.85,17.47,3.85,24.14,0l30-17.3C203.55,232,203.55,225.72,196.88,221.87Z" transform="translate(0)"/><path class="cls-32" d="M192.48,222.55l-26.75-15.44c-6-3.47-15.77-3.47-21.78,0L117.2,222.55c-6,3.47-6,9.1,0,12.58L144,250.57c6,3.47,15.77,3.47,21.78,0l26.75-15.44C198.49,231.65,198.49,226,192.48,222.55Z" transform="translate(0)"/><path class="cls-33" d="M188.08,223.23l-23.53-13.58c-5.36-3.1-14.06-3.1-19.42,0L121.6,223.23c-5.36,3.1-5.36,8.12,0,11.22L145.13,248c5.36,3.09,14.06,3.09,19.42,0l23.53-13.58C193.44,231.35,193.44,226.33,188.08,223.23Z" transform="translate(0)"/><path class="cls-34" d="M183.67,223.91l-20.3-11.72c-4.71-2.72-12.35-2.72-17.06,0L126,223.91c-4.72,2.72-4.72,7.13,0,9.86l20.3,11.72c4.71,2.72,12.35,2.72,17.06,0l20.3-11.72C188.39,231,188.39,226.63,183.67,223.91Z" transform="translate(0)"/><path class="cls-35" d="M179.27,224.59l-17.08-9.86a16.27,16.27,0,0,0-14.7,0l-17.08,9.86c-4.06,2.35-4.06,6.15,0,8.49L147.49,243a16.27,16.27,0,0,0,14.7,0l17.08-9.87C183.33,230.74,183.33,226.94,179.27,224.59Z" transform="translate(0)"/><path class="cls-36" d="M174.87,225.27l-13.86-8a13.68,13.68,0,0,0-12.34,0l-13.86,8c-3.41,2-3.41,5.16,0,7.13l13.86,8a13.62,13.62,0,0,0,12.34,0l13.86-8C178.28,230.43,178.28,227.24,174.87,225.27Z" transform="translate(0)"/><path class="cls-37" d="M170.47,226l-10.64-6.15a11,11,0,0,0-10,0L139.21,226c-2.76,1.59-2.76,4.17,0,5.76l10.64,6.14a11,11,0,0,0,10,0l10.64-6.14C173.23,230.13,173.23,227.55,170.47,226Z" transform="translate(0)"/><path class="cls-38" d="M166.07,226.64l-7.42-4.28a8.39,8.39,0,0,0-7.62,0l-7.42,4.28c-2.11,1.21-2.11,3.19,0,4.4l7.42,4.28a8.41,8.41,0,0,0,7.63,0l7.41-4.28C168.18,229.83,168.18,227.85,166.07,226.64Z" transform="translate(0)"/><path class="cls-39" d="M161.67,227.32l-4.19-2.42a5.85,5.85,0,0,0-5.28,0L148,227.32c-1.45.84-1.45,2.2,0,3l4.19,2.42a5.85,5.85,0,0,0,5.28,0l4.19-2.42C163.12,229.52,163.12,228.16,161.67,227.32Z" transform="translate(0)"/><path class="cls-40" d="M157.27,228l-1-.56a3.2,3.2,0,0,0-2.92,0l-1,.56a.89.89,0,0,0,0,1.68l1,.56a3.26,3.26,0,0,0,2.92,0l1-.56A.89.89,0,0,0,157.27,228Z" transform="translate(0)"/><polygon class="cls-66" points="154.48 265.81 67.45 215.57 67.45 115.09 154.48 165.33 154.48 265.81"/><polygon class="cls-67" points="154.42 265.81 241.44 215.57 241.44 115.09 154.42 165.33 154.42 265.81"/><polygon class="cls-68" points="154.53 165.27 67.62 115.09 154.53 64.91 241.44 115.09 154.53 165.27"/><g class="cls-69"><path class="cls-70" d="M351.21,357.65a1.46,1.46,0,0,1-.72-.19L221,282.67a1.44,1.44,0,0,1,1.44-2.5L351.94,355a1.44,1.44,0,0,1-.73,2.69Z" transform="translate(0)"/></g><g class="cls-71"><path class="cls-72" d="M191.22,422.59a1.41,1.41,0,0,1-.72-.19l-156-90a11.21,11.21,0,0,1,0-19.42l54.24-31.32a1.44,1.44,0,0,1,1.44,2.5L36,315.43a8.33,8.33,0,0,0,0,14.43l156,90a1.44,1.44,0,0,1-.72,2.69Z" transform="translate(0)"/></g><g class="cls-73"><g class="cls-74"><circle class="cls-75" cx="152.77" cy="398.91" r="17.39"/></g><circle class="cls-76" cx="152.77" cy="398.91" r="2.16"/></g><g class="cls-73"><g class="cls-77"><circle class="cls-78" cx="319.92" cy="338.14" r="17.39"/></g><path class="cls-76" d="M322.08,338.14a2.16,2.16,0,1,1-2.16-2.16A2.16,2.16,0,0,1,322.08,338.14Z" transform="translate(0)"/></g><g class="cls-79"><circle class="cls-80" cx="57.71" cy="301.42" r="17.39"/></g><circle class="cls-76" cx="57.71" cy="301.42" r="2.16"/><g class="cls-81"><circle class="cls-82" cx="250.06" cy="297.8" r="17.39" transform="translate(-94.15 116.86) rotate(-22.25)"/></g><path class="cls-76" d="M252.21,297.8a2.16,2.16,0,1,1-2.15-2.15A2.15,2.15,0,0,1,252.21,297.8Z" transform="translate(0)"/><g class="cls-83"><polygon class="cls-84" points="154.58 154.71 20.6 77.35 154.58 0 288.56 77.35 154.58 154.71"/></g><g class="cls-85"><polygon class="cls-86" points="154.31 309.71 20.16 232.26 20.16 77.35 154.31 154.81 154.31 309.71"/></g><g class="cls-87"><path class="cls-88" d="M177.15,219.52l-2.64,1.53V191.91l8.87-5.31q2.94-1.77,4.59-.6c1.09.77,1.63,2.52,1.61,5.22a15.82,15.82,0,0,1-1.16,6,12.9,12.9,0,0,1-3.34,4.73l5,10-3,1.75-4.74-9.82-5.17,3Zm6.19-19.21a6.65,6.65,0,0,0,2.47-2.55,7.6,7.6,0,0,0,.89-3.64v-2.2c0-1.35-.28-2.21-.87-2.59s-1.4-.25-2.47.38l-6.19,3.69V204Z" transform="translate(0)"/><path class="cls-88" d="M201,206.11a7.39,7.39,0,0,1-4.6,1.32,4.87,4.87,0,0,1-3.22-1.89l2-3.37a4.38,4.38,0,0,0,2.59,1.63,5.11,5.11,0,0,0,3.37-.91,9.77,9.77,0,0,0,3.67-3.69,10,10,0,0,0,1.31-4.86c0-1.43-.29-2.34-.92-2.73s-1.68-.37-3.15,0l-1.82.54c-2,.59-3.6.58-4.66,0s-1.6-2.07-1.58-4.36a13.62,13.62,0,0,1,.57-3.81,15,15,0,0,1,1.54-3.46,15.62,15.62,0,0,1,2.37-3,15.85,15.85,0,0,1,3-2.35,7.69,7.69,0,0,1,4.36-1.41,4.11,4.11,0,0,1,3,1.78l-2.06,3.2a3.41,3.41,0,0,0-2.22-1.34,5.29,5.29,0,0,0-3.28,1,10.23,10.23,0,0,0-3.4,3.26,8.07,8.07,0,0,0-1.27,4.38q0,2.13,1,2.58a4.74,4.74,0,0,0,3.14-.16l1.82-.53c2.2-.67,3.78-.62,4.75.13s1.44,2.25,1.41,4.48a15.79,15.79,0,0,1-.58,4,15.91,15.91,0,0,1-4,7A14.87,14.87,0,0,1,201,206.11Z" transform="translate(0)"/><path class="cls-88" d="M213.3,198.34l.43-30.07,13.84-8.44-.07,3.22-11.1,6.76-.15,10.1,10.41-6.28-.06,3.22-10.4,6.26L216,193.55,227,187l-.06,3.22Z" transform="translate(0)"/></g><g class="cls-87"><path class="cls-88" d="M90,195.78l-2.47-1.35,0-29.39,8.14,4.54a10.2,10.2,0,0,1,4.2,4.48,15.27,15.27,0,0,1,1.5,7,8.48,8.48,0,0,1-1,4.73,2.72,2.72,0,0,1-3.07,1.06L102,202.34l-2.78-1.52-4.41-15L90,183.16Zm5.7-12.51c1,.54,1.74.59,2.28.16a3.36,3.36,0,0,0,.8-2.66v-2.18A7.64,7.64,0,0,0,98,175a5.6,5.6,0,0,0-2.27-2.35L90,169.53l0,10.6Z" transform="translate(0)"/><path class="cls-88" d="M112,208.35a13.28,13.28,0,0,1-4.25-3.69,23.29,23.29,0,0,1-3-5.38l1.82-1.18a20.86,20.86,0,0,0,2.4,4.44,9.61,9.61,0,0,0,3.11,2.77c1.46.8,2.58.91,3.35.33s1.16-1.7,1.16-3.36a7.63,7.63,0,0,0-.87-3.7,13.31,13.31,0,0,0-2.9-3.4l-1.67-1.46a19.3,19.3,0,0,1-4.29-5.16,12.18,12.18,0,0,1-1.47-6.07,8.32,8.32,0,0,1,.5-3.15,3,3,0,0,1,3.53-2.08,8,8,0,0,1,2.74,1,13,13,0,0,1,4,3.42,19.65,19.65,0,0,1,2.8,5.1l-1.85.89a16.71,16.71,0,0,0-2-3.77,9.39,9.39,0,0,0-3-2.62c-1.31-.72-2.34-.9-3.09-.52s-1.13,1.36-1.13,2.94a6.9,6.9,0,0,0,1,3.69,14.13,14.13,0,0,0,2.88,3.29l1.67,1.47a17.82,17.82,0,0,1,4.36,5.33,13.15,13.15,0,0,1,1.35,6,10.46,10.46,0,0,1-.49,3.36,3.93,3.93,0,0,1-1.39,2,3.45,3.45,0,0,1-2.22.54A7.29,7.29,0,0,1,112,208.35Z" transform="translate(0)"/><path class="cls-88" d="M123.29,214V185l12.48,6.95V195l-10-5.57v9.73l9.43,5.22v3.07l-9.43-5.21V212.3l10,5.5v3.07Z" transform="translate(0)"/></g><g class="cls-89"><polygon class="cls-90" points="154.41 309.71 288.56 232.26 288.56 77.35 154.41 154.81 154.41 309.71"/></g></g></g></svg>