<svg id="Layer_1" data-name="Layer 1" xmlns="http://www.w3.org/2000/svg" viewBox="0 0 767.9 315"><defs><style>.cls-1{opacity:0;}.cls-2{fill:#0042ce;}.cls-3{fill:#001140;}.cls-4,.cls-5,.cls-9{fill:none;}.cls-4,.cls-5{stroke:#98c8ff;}.cls-4,.cls-9{stroke-miterlimit:10;}.cls-4{stroke-width:4px;}.cls-5{stroke-miterlimit:10;stroke-width:4px;}.cls-6{isolation:isolate;}.cls-7{fill:#d1e2ff;}.cls-8{fill:#c9defe;}.cls-9{stroke:#76b4ff;}.cls-10{fill:#98c8ff;}.cls-11{fill:#76b4ff;}.cls-12{fill:#0063ff;}</style></defs><title>cobol_pl1</title><g class="cls-1"><rect class="cls-2" x="5" y="5" width="757.9" height="305"/><path class="cls-3" d="M757.9,10V305H10V10H757.9m10-10H0V315H767.9Z"/></g><path class="cls-4" d="M129.38,285c-.1-14.8-10.3-26.7-24.7-30a18,18,0,1,0-14.7.2c-14.3,3.5-24.4,15.6-24.3,30.3"/><path class="cls-4" d="M83.48,200.78l-.4-51.1a4,4,0,0,0-4.1-4l-56.2.3a4,4,0,0,0-4,4.1h0l.4,51.1Z"/><line class="cls-4" x1="83.08" y1="158.38" x2="18.88" y2="158.78"/><polyline class="cls-4" points="28.88 167.48 35.18 173.68 28.98 180.08"/><line class="cls-4" x1="42.08" y1="181.58" x2="51.98" y2="181.58"/><line class="cls-4" x1="39.58" y1="224.38" x2="53.48" y2="224.38"/><line class="cls-4" x1="39.58" y1="233.18" x2="53.58" y2="233.08"/><line class="cls-4" x1="39.68" y1="241.88" x2="53.58" y2="241.78"/><path class="cls-4" d="M97,220.28l-.3-55.4a4.85,4.85,0,0,1,4.8-5h.2l87.8-.4a5,5,0,0,1,5,5h0l.4,74.1-79.5.4"/><line class="cls-4" x1="96.78" y1="172.48" x2="194.38" y2="171.98"/><rect class="cls-5" x="117.28" y="188.68" width="12.7" height="12.7" transform="translate(-1.19 0.76) rotate(-0.35)"/><rect class="cls-5" x="117.28" y="201.38" width="12.7" height="12.7" transform="translate(-1.27 0.76) rotate(-0.35)"/><rect class="cls-5" x="117.38" y="213.98" width="12.7" height="12.7" transform="translate(-1.34 0.76) rotate(-0.35)"/><polyline class="cls-4" points="141.68 188.78 149.08 197.48 156.88 188.28 168.68 195.48 179.08 183.08"/><circle class="cls-4" cx="160.38" cy="217.78" r="11.3"/><polyline class="cls-4" points="150.58 212.48 160.38 217.78 154.98 227.38"/><line class="cls-4" x1="160.38" y1="217.78" x2="169.18" y2="211.48"/><line class="cls-4" x1="31.58" y1="254.48" x2="61.68" y2="254.28"/><path class="cls-4" d="M34.18,213.88l24.5-.1a2.8,2.8,0,0,1,2.8,2.8l.3,46.7a2.8,2.8,0,0,1-2.8,2.8H34.58a2.8,2.8,0,0,1-2.8-2.8l-.3-46.7A2.57,2.57,0,0,1,34.18,213.88Z"/><g class="cls-6"><path class="cls-7" d="M256.75,95.74a33.28,33.28,0,0,1-12.7-2.3,26.66,26.66,0,0,1-9.64-6.57,27.82,27.82,0,0,1-6.14-11.07A50,50,0,0,1,226,60.36a50.19,50.19,0,0,1,2.3-15.67,32.53,32.53,0,0,1,6.14-11.39,26,26,0,0,1,9.64-7.12,31.68,31.68,0,0,1,12.7-2.41c6.47,0,11.72,1.31,16,3.83s7.56,6.8,10,12.38l-13,6.79a16.87,16.87,0,0,0-4.38-7.12q-3-2.62-8.55-2.63c-4.49,0-8.1,1.43-10.62,4.39-2.74,2.84-4,7.12-4,12.59V65.07c0,5.47,1.31,9.64,4,12.59a13.72,13.72,0,0,0,10.62,4.39A12.52,12.52,0,0,0,265.63,79a20.6,20.6,0,0,0,5-7.23L283,78.87a30.73,30.73,0,0,1-10.18,12.27A28.27,28.27,0,0,1,256.75,95.74Z"/></g><g class="cls-6"><path class="cls-7" d="M320.07,95.74a34.39,34.39,0,0,1-12.6-2.3,26,26,0,0,1-9.64-6.79,31.79,31.79,0,0,1-6.13-11.29,51.12,51.12,0,0,1-2.3-15.66A48.45,48.45,0,0,1,291.7,44a32.58,32.58,0,0,1,6.13-11.29A23.28,23.28,0,0,1,307.47,26a35,35,0,0,1,12.6-2.3,33.59,33.59,0,0,1,12.6,2.3,25.13,25.13,0,0,1,9.64,6.79A32,32,0,0,1,348.44,44a51.43,51.43,0,0,1,2.3,15.66,48.72,48.72,0,0,1-2.3,15.66,32,32,0,0,1-6.13,11.29,23.28,23.28,0,0,1-9.64,6.79A32.29,32.29,0,0,1,320.07,95.74Zm0-13.36c4.49,0,8.21-1.43,10.62-4.5,2.63-3.06,3.84-7.23,3.84-12.92V54.66c0-5.59-1.32-9.86-3.84-12.92s-6.13-4.5-10.62-4.5-8.22,1.43-10.63,4.5c-2.63,3.06-3.83,7.22-3.83,12.92V65.18c0,5.58,1.31,9.86,3.83,12.92C311.85,81,315.36,82.38,320.07,82.38Z"/><path class="cls-7" d="M363.23,25.19h33.63c5.8,0,10.29,1.65,13.58,4.82s4.82,7.56,4.82,12.93a21,21,0,0,1-1,6.79,11.14,11.14,0,0,1-2.73,4.49,12.29,12.29,0,0,1-4.06,2.63,29,29,0,0,1-5,1v.66a14.65,14.65,0,0,1,5.15,1,19,19,0,0,1,5,2.85,16.91,16.91,0,0,1,3.84,5,17.21,17.21,0,0,1,1.64,7.56,22.64,22.64,0,0,1-1.32,7.77A19.76,19.76,0,0,1,413.07,89a18.71,18.71,0,0,1-5.59,4.16,17.32,17.32,0,0,1-7.12,1.64H363.78V25.19Zm15,28.38h15a5.76,5.76,0,0,0,6.36-6.36V44.15A7.21,7.21,0,0,0,398,39.43a6.51,6.51,0,0,0-4.71-1.64h-15Zm0,28.26h17.41a6.19,6.19,0,0,0,4.71-1.65,6.08,6.08,0,0,0,1.76-4.71V72.08a6.71,6.71,0,0,0-1.76-4.71,6.47,6.47,0,0,0-4.71-1.65H378.24Z"/><path class="cls-7" d="M457.32,95.74a34.33,34.33,0,0,1-12.59-2.3,25.9,25.9,0,0,1-9.64-6.79A32,32,0,0,1,429,75.36a51.43,51.43,0,0,1-2.3-15.66A48.72,48.72,0,0,1,429,44a32,32,0,0,1,6.14-11.29A23.22,23.22,0,0,1,444.73,26a34.91,34.91,0,0,1,12.59-2.3,33.56,33.56,0,0,1,12.6,2.3,25.05,25.05,0,0,1,9.64,6.79A32,32,0,0,1,485.7,44,51.43,51.43,0,0,1,488,59.7a48.72,48.72,0,0,1-2.3,15.66,32,32,0,0,1-6.14,11.29,23.22,23.22,0,0,1-9.64,6.79A31.14,31.14,0,0,1,457.32,95.74Zm0-13.36c4.5,0,8.22-1.43,10.63-4.5,2.63-3.06,3.83-7.23,3.83-12.92V54.66c0-5.59-1.31-9.86-3.83-12.92s-6.13-4.5-10.63-4.5-8.21,1.43-10.62,4.5c-2.63,3.06-3.84,7.22-3.84,12.92V65.18c0,5.58,1.32,9.86,3.84,12.92C449.22,81,452.83,82.38,457.32,82.38Z"/><path class="cls-7" d="M500.48,94.64V25.19H515.6V81.28H542V94.64Z"/></g><g class="cls-6"><path class="cls-7" d="M229.81,188v-64.3H260a21.29,21.29,0,0,1,8.11,1.43,16.37,16.37,0,0,1,6.13,4.16,15.8,15.8,0,0,1,3.83,6.46,23.27,23.27,0,0,1,1.43,8.33,22.4,22.4,0,0,1-1.43,8.32,22,22,0,0,1-3.83,6.47,17.43,17.43,0,0,1-6.13,4.16,21.49,21.49,0,0,1-8.11,1.42H243.61V187.7h-13.8V188Zm14-35.27h14.68a7,7,0,0,0,5-1.64,6.39,6.39,0,0,0,1.75-4.71v-4.05a6.19,6.19,0,0,0-1.75-4.71,7.49,7.49,0,0,0-5-1.65H243.83Z"/></g><g class="cls-6"><path class="cls-7" d="M290.16,188v-64.3h14v51.82h24.53v12.37H290.16Z"/></g><g class="cls-6"><path class="cls-7" d="M333,202.05l27.39-81.94h11.28l-27.38,81.94Z"/><path class="cls-7" d="M379.77,188V177H388V135.12h-8.21V124.05h30.56v11.07h-8.21V177h8.21V188Z"/></g><g class="cls-6"><path class="cls-8" d="M634.41,124.35v44.42a23.17,23.17,0,0,1-1.36,7.84,14.93,14.93,0,0,1-4.08,6,19,19,0,0,1-6.48,3.86,27.29,27.29,0,0,1-8.67,1.36,24,24,0,0,1-8.15-1.25,18.19,18.19,0,0,1-6.06-3.56,22,22,0,0,1-4.18-5.54,25.2,25.2,0,0,1-2.3-7.21l12.64-2.5c.94,5.43,3.66,8.15,7.74,8.15a7.13,7.13,0,0,0,5-1.88c1.36-1.26,2.09-3.24,2.09-5.86V135.33h-19V124.46l32.82-.11Z"/><path class="cls-8" d="M673.08,188a31.26,31.26,0,0,1-11.5-2.09,22.9,22.9,0,0,1-8.67-6,29.33,29.33,0,0,1-5.65-9.93,46.75,46.75,0,0,1-2-14,49.06,49.06,0,0,1,2-14.11,26.75,26.75,0,0,1,5.65-10.34,23.42,23.42,0,0,1,8.67-6.28,29,29,0,0,1,11.5-2.19c5.85,0,10.66,1.15,14.31,3.55a25,25,0,0,1,9.1,11.08l-11.71,6.06a13.75,13.75,0,0,0-4-6.27c-1.78-1.57-4.28-2.4-7.73-2.4-4.08,0-7.21,1.25-9.62,4-2.51,2.51-3.66,6.37-3.66,11.29v10.13c0,4.92,1.15,8.78,3.66,11.29a13.08,13.08,0,0,0,9.62,4,11.38,11.38,0,0,0,8-2.71,17.39,17.39,0,0,0,4.39-6.59L696.59,173a28.52,28.52,0,0,1-9.2,11.08C683.74,186.64,678.93,188,673.08,188Z"/><path class="cls-8" d="M706.21,187v-62.6H719.9v50.48h23.83V187Z"/></g><line class="cls-9" x1="568" y1="290.7" x2="568" y2="19.9"/><g class="cls-6"><path class="cls-10" d="M30.8,46.9l-1.7-5.7H21.2l-1.7,5.7H14.2L22,23h6.4l7.7,23.9ZM25.2,27.7H25l-2.6,9h5.5Z"/></g><g class="cls-6"><path class="cls-10" d="M39.9,23h9a10,10,0,0,1,4.3.8A9.55,9.55,0,0,1,56.5,26a10.24,10.24,0,0,1,2.1,3.7,16.23,16.23,0,0,1,.8,5.2,13.87,13.87,0,0,1-.8,5.2,10.24,10.24,0,0,1-2.1,3.7A8.34,8.34,0,0,1,53.2,46a11.76,11.76,0,0,1-4.3.8h-9ZM49,42.3A4.69,4.69,0,0,0,52.6,41c.9-.9,1.3-2.2,1.3-4.2V33a5.72,5.72,0,0,0-1.3-4.2A4.84,4.84,0,0,0,49,27.5H45.2V42.1H49Z"/></g><g class="cls-6"><path class="cls-10" d="M68.8,46.9,61.1,23h5.3l3.5,11.4,1.9,7.5h.1l1.8-7.5L77.3,23h5.1L74.7,46.9Z"/></g><g class="cls-6"><path class="cls-10" d="M98.8,46.9l-1.7-5.7H89.2l-1.7,5.7H82.2L90,23h6.4l7.7,23.9ZM93.2,27.7H93l-2.6,9h5.5Z"/><path class="cls-10" d="M115.2,35.6l-2.3-4.8h-.1V46.9h-4.9V23h5.7l6.5,11.3,2.3,4.8h.1v-16h4.9V46.9h-5.7Z"/><path class="cls-10" d="M142.7,47.3a12.31,12.31,0,0,1-4.4-.8,8.56,8.56,0,0,1-3.3-2.3,10.71,10.71,0,0,1-2.1-3.8,16.88,16.88,0,0,1-.8-5.3,14.42,14.42,0,0,1,.8-5.3,10.36,10.36,0,0,1,2.1-3.9,7.84,7.84,0,0,1,3.3-2.4,12.31,12.31,0,0,1,4.4-.8,10.42,10.42,0,0,1,5.5,1.3,9.06,9.06,0,0,1,3.4,4.2l-4.5,2.3a4.94,4.94,0,0,0-1.5-2.4,4.37,4.37,0,0,0-2.9-.9,5,5,0,0,0-3.7,1.5,5.73,5.73,0,0,0-1.4,4.3v3.9a6.17,6.17,0,0,0,1.4,4.3,4.68,4.68,0,0,0,3.7,1.5,4.45,4.45,0,0,0,3.1-1,6.19,6.19,0,0,0,1.7-2.5l4.2,2.5a11.27,11.27,0,0,1-3.5,4.2A9.38,9.38,0,0,1,142.7,47.3Z"/><path class="cls-10" d="M155.6,46.9V23h16.3v4.6h-11v4.8h9.4V37h-9.4v5.1h11v4.7H155.6Z"/><path class="cls-10" d="M176.7,23h9a10,10,0,0,1,4.3.8,9.55,9.55,0,0,1,3.3,2.2,10.24,10.24,0,0,1,2.1,3.7,16.23,16.23,0,0,1,.8,5.2,13.87,13.87,0,0,1-.8,5.2,10.24,10.24,0,0,1-2.1,3.7A8.34,8.34,0,0,1,190,46a11.76,11.76,0,0,1-4.3.8h-9Zm9,19.3a4.69,4.69,0,0,0,3.6-1.3c.9-.9,1.3-2.2,1.3-4.2V33a5.72,5.72,0,0,0-1.3-4.2,4.84,4.84,0,0,0-3.6-1.3h-3.8V42.1h3.8Z"/></g><g class="cls-6"><path class="cls-10" d="M16.1,83.9V60.1h5.2V79.3h9v4.6Z"/></g><g class="cls-6"><path class="cls-10" d="M49.9,83.9l-1.7-5.6h-8l-1.7,5.6H33.3l7.8-23.8h6.4l7.7,23.8Zm-5.7-19H44l-2.6,9h5.4Z"/><path class="cls-10" d="M66.2,72.7l-2.3-4.8h-.1V84H58.9V60.1h5.6L71,71.3l2.3,4.8h.1v-16h4.9V83.9H72.7Z"/><path class="cls-10" d="M99.1,80.1h-.2a4.74,4.74,0,0,1-1.8,3,6.87,6.87,0,0,1-4.3,1.2,9.57,9.57,0,0,1-3.8-.8,8.67,8.67,0,0,1-3.1-2.3,10.71,10.71,0,0,1-2.1-3.8,19.1,19.1,0,0,1,.1-10.6,12.36,12.36,0,0,1,2.2-3.9,10.46,10.46,0,0,1,3.4-2.4,12.31,12.31,0,0,1,4.4-.8,10.69,10.69,0,0,1,5.5,1.4,9.06,9.06,0,0,1,3.6,4.1l-4.2,2.4a6.6,6.6,0,0,0-1.7-2.4,5.09,5.09,0,0,0-3.2-1,5.22,5.22,0,0,0-3.8,1.4A6.1,6.1,0,0,0,88.7,70v4a6.27,6.27,0,0,0,1.4,4.4,5.38,5.38,0,0,0,3.8,1.4,11,11,0,0,0,1.8-.2,4,4,0,0,0,2.5-1.8,3.31,3.31,0,0,0,.4-1.5V75H94.2V70.7h9.4V83.9H99.2V80.1Z"/></g><g class="cls-6"><path class="cls-10" d="M114.2,60.1V74.7a5.94,5.94,0,0,0,1,3.8,5.14,5.14,0,0,0,6.6,0,5.76,5.76,0,0,0,1-3.8V60.1h5v14a19.29,19.29,0,0,1-.5,4.5,8,8,0,0,1-1.6,3.2,6.53,6.53,0,0,1-2.9,1.8,15.71,15.71,0,0,1-8.6,0,7.15,7.15,0,0,1-2.9-1.8,7.43,7.43,0,0,1-1.6-3.2,20,20,0,0,1-.5-4.5v-14Z"/></g><g class="cls-6"><path class="cls-10" d="M147.3,83.9l-1.7-5.6h-7.9L136,83.9h-5.2l7.8-23.8H145l7.7,23.8Zm-5.7-19h-.2l-2.6,9h5.4Z"/></g><g class="cls-6"><path class="cls-10" d="M170.5,80.1h-.2a4.74,4.74,0,0,1-1.8,3,6.87,6.87,0,0,1-4.3,1.2,9.57,9.57,0,0,1-3.8-.8,8.67,8.67,0,0,1-3.1-2.3,10.71,10.71,0,0,1-2.1-3.8,19.1,19.1,0,0,1,.1-10.6,12.36,12.36,0,0,1,2.2-3.9,10.46,10.46,0,0,1,3.4-2.4,12.31,12.31,0,0,1,4.4-.8,10.69,10.69,0,0,1,5.5,1.4,9.06,9.06,0,0,1,3.6,4.1l-4.2,2.4a6.6,6.6,0,0,0-1.7-2.4,5.09,5.09,0,0,0-3.2-1,5.22,5.22,0,0,0-3.8,1.4,6.1,6.1,0,0,0-1.4,4.4v4a6.27,6.27,0,0,0,1.4,4.4,5.38,5.38,0,0,0,3.8,1.4,11,11,0,0,0,1.8-.2,4,4,0,0,0,2.5-1.8,3.31,3.31,0,0,0,.4-1.5V75h-4.4V70.7H175V83.9h-4.4V80.1Z"/><path class="cls-10" d="M180.3,83.9V60.1h16.3v4.6h-11v4.8H195v4.6h-9.4v5.1h11v4.6C196.5,83.9,180.3,83.9,180.3,83.9Z"/></g><g class="cls-6"><path class="cls-10" d="M25.9,126.1a13.78,13.78,0,0,1-6.4-1.3,15.27,15.27,0,0,1-4.5-3.4l4.1-4.2a9.11,9.11,0,0,0,7.2,3.3,5.31,5.31,0,0,0,3.4-.9,3.25,3.25,0,0,0,1.1-2.5,2.88,2.88,0,0,0-.7-2,4.27,4.27,0,0,0-2.7-1.1l-2.8-.4c-3-.4-5.3-1.3-6.7-2.8a8.11,8.11,0,0,1-2.1-5.8,7.82,7.82,0,0,1,.7-3.5,8.26,8.26,0,0,1,2.1-2.8A8.49,8.49,0,0,1,22,96.9a15.32,15.32,0,0,1,4.5-.6,14.17,14.17,0,0,1,5.7,1,11.55,11.55,0,0,1,4.2,3l-4.1,4.2a7.9,7.9,0,0,0-2.5-1.9,8.1,8.1,0,0,0-3.7-.8,5.27,5.27,0,0,0-3.1.7,2.33,2.33,0,0,0-1,2,2.56,2.56,0,0,0,.8,2.1,6,6,0,0,0,2.6.9l2.8.5a13,13,0,0,1,6.6,2.7,7.79,7.79,0,0,1,2.1,5.8,9.52,9.52,0,0,1-.7,3.8,8.05,8.05,0,0,1-2.2,3,8.5,8.5,0,0,1-3.5,1.9A10.48,10.48,0,0,1,25.9,126.1Z"/><path class="cls-10" d="M42.7,125.6V96.9H62.3v5.5H49v5.8H60.4v5.5H49v6.2H62.3v5.5H42.7Z"/></g><g class="cls-6"><path class="cls-10" d="M74.7,125.6H68.5V96.9H82.2a8.57,8.57,0,0,1,3.6.7,6.62,6.62,0,0,1,2.7,1.9,7.67,7.67,0,0,1,1.7,2.9,11,11,0,0,1,.6,3.7,9.69,9.69,0,0,1-1.3,5.1,7.74,7.74,0,0,1-3.9,3.2l5.6,11.2H84.3l-5-10.5H74.8l-.1,10.5Zm6.7-15.8a3.07,3.07,0,0,0,2.2-.7,2.86,2.86,0,0,0,.8-2.1v-1.8a2.86,2.86,0,0,0-.8-2.1,3.07,3.07,0,0,0-2.2-.7H74.8v7.5h6.6Z"/></g><g class="cls-6"><path class="cls-10" d="M102.2,125.6,93,96.8h6.3l4.3,13.8,2.3,9h.1l2.2-9,4.3-13.8h6.1l-9.3,28.8Z"/><path class="cls-10" d="M122.8,125.6V96.9h19.6v5.5H129.1v5.8h11.4v5.5H129.1v6.2h13.3v5.5H122.8Z"/><path class="cls-10" d="M154.4,125.6h-6.2V96.9h13.6a8.57,8.57,0,0,1,3.6.7,6.62,6.62,0,0,1,2.7,1.9,7.67,7.67,0,0,1,1.7,2.9,11,11,0,0,1,.6,3.7,9.69,9.69,0,0,1-1.3,5.1,7.74,7.74,0,0,1-3.9,3.2l5.6,11.2h-6.9l-5-10.5h-4.5v10.5Zm6.6-15.8a3.07,3.07,0,0,0,2.2-.7,2.86,2.86,0,0,0,.8-2.1v-1.8a2.86,2.86,0,0,0-.8-2.1,3.07,3.07,0,0,0-2.2-.7h-6.6v7.5H161Z"/><path class="cls-10" d="M185.7,126.1a13.78,13.78,0,0,1-6.4-1.3,15.27,15.27,0,0,1-4.5-3.4l4.1-4.2a9.11,9.11,0,0,0,7.2,3.3,5.31,5.31,0,0,0,3.4-.9,3.25,3.25,0,0,0,1.1-2.5,2.88,2.88,0,0,0-.7-2,4,4,0,0,0-2.7-1.1l-2.8-.4c-3-.4-5.3-1.3-6.7-2.8a8.11,8.11,0,0,1-2.1-5.8,7.82,7.82,0,0,1,.7-3.5,8.26,8.26,0,0,1,2.1-2.8,8.49,8.49,0,0,1,3.4-1.8,15.81,15.81,0,0,1,4.5-.6,14.17,14.17,0,0,1,5.7,1,11.55,11.55,0,0,1,4.2,3l-4.1,4.2a7.9,7.9,0,0,0-2.5-1.9,8.1,8.1,0,0,0-3.7-.8,5.27,5.27,0,0,0-3.1.7,2.33,2.33,0,0,0-1,2,2.56,2.56,0,0,0,.8,2.1,6,6,0,0,0,2.6.9l2.8.5a13,13,0,0,1,6.6,2.7,7.79,7.79,0,0,1,2.1,5.8,9.52,9.52,0,0,1-.7,3.8,8.05,8.05,0,0,1-2.2,3,8.5,8.5,0,0,1-3.5,1.9A11.11,11.11,0,0,1,185.7,126.1Z"/></g><g class="cls-6"><path class="cls-10" d="M605.68,269.06a12.89,12.89,0,0,1-5.86-1.21,13.87,13.87,0,0,1-4.05-3l3.75-3.75a8.46,8.46,0,0,0,6.57,2.94,4.68,4.68,0,0,0,3.13-.91,2.8,2.8,0,0,0,1-2.33,2.85,2.85,0,0,0-.6-1.82,3.94,3.94,0,0,0-2.43-1l-2.63-.4c-2.83-.41-4.85-1.22-6.07-2.53a7.74,7.74,0,0,1-1.92-5.36,7,7,0,0,1,.71-3.24,6.82,6.82,0,0,1,1.92-2.53,8.36,8.36,0,0,1,3.14-1.61,13.05,13.05,0,0,1,4.14-.61,11.45,11.45,0,0,1,5.16,1,9.58,9.58,0,0,1,3.84,2.73l-3.74,3.84a8.77,8.77,0,0,0-2.33-1.82,8.2,8.2,0,0,0-3.33-.7,5.05,5.05,0,0,0-2.93.7,2.14,2.14,0,0,0-1,1.82,2.29,2.29,0,0,0,.71,1.93,5.24,5.24,0,0,0,2.33.91l2.63.4c2.73.4,4.75,1.21,6,2.53a6.84,6.84,0,0,1,1.92,5.26,8.11,8.11,0,0,1-.7,3.43,7.5,7.5,0,0,1-2,2.73,13.2,13.2,0,0,1-3.13,1.82A9.69,9.69,0,0,1,605.68,269.06Z"/></g><g class="cls-6"><path class="cls-10" d="M626.11,268.56V258.34l-9-16h6.37l5.66,10.41h.1l5.36-10.41h6.17l-9,15.87v10.32Z"/><path class="cls-10" d="M652.3,256.22,649.77,251h-.1v17.6h-5.36V242.37h6.17l7.18,12.33,2.53,5.26h.1V242.37h5.36v26.19h-6.17Z"/></g><g class="cls-6"><path class="cls-10" d="M683.14,247.42v21h-5.66v-21H670.4v-5h19.92v5Z"/></g><g class="cls-6"><path class="cls-10" d="M708.32,268.56l-1.82-6.17h-8.7L696,268.56h-5.76l8.69-26.19h7l8.49,26.19Zm-6.17-21H702l-2.94,9.9h6Z"/></g><g class="cls-6"><path class="cls-10" d="M740.37,268.56H733.8L728.14,259H728l-5.57,9.61h-6.16L724.7,255l-8-12.64h6.67l5.06,8.9h.1l5.16-8.9h6.17l-8.09,12.74Z"/></g><g class="cls-6"><path class="cls-10" d="M603.76,284.74h-5.15v5.66h-2.94V276.75h2.94v5.36h5.15v-5.36h2.93V290.4h-2.93Z"/><path class="cls-10" d="M609.42,290.3V288h1.82v-8.9h-1.82v-2.32h6.48v2.32h-1.82V288h1.82v2.33Z"/><path class="cls-10" d="M627.22,288.07h0a2.67,2.67,0,0,1-1.11,1.72,4.29,4.29,0,0,1-2.43.71,5.48,5.48,0,0,1-2.22-.4,5.53,5.53,0,0,1-1.82-1.32,5.32,5.32,0,0,1-1.22-2.22,9.3,9.3,0,0,1-.4-3,9.67,9.67,0,0,1,.4-3,6.79,6.79,0,0,1,1.22-2.23,5,5,0,0,1,1.92-1.31,6.73,6.73,0,0,1,2.53-.4,6.05,6.05,0,0,1,3.13.8,5.74,5.74,0,0,1,2,2.33l-2.42,1.42a2.64,2.64,0,0,0-1-1.32,3.32,3.32,0,0,0-1.82-.61,3.18,3.18,0,0,0-2.23.81,3.65,3.65,0,0,0-.81,2.53v2.23a3.6,3.6,0,0,0,.81,2.52,3,3,0,0,0,2.23.81c.4,0,.7-.1,1-.1a3.77,3.77,0,0,0,.91-.4,2.22,2.22,0,0,0,.6-.71,2,2,0,0,0,.21-.91v-.71h-2.53v-2.53h5.36v7.59H627l.2-2.23Z"/><path class="cls-10" d="M641.07,284.74h-5.15v5.66H633V276.75h2.93v5.36h5.15v-5.36H644V290.4h-2.94Z"/><path class="cls-10" d="M647.14,290.3V276.65h2.93v11h5.16v2.63Z"/><path class="cls-10" d="M657.25,290.3V288h1.82v-8.9h-1.82v-2.32h6.47v2.32H662V288h1.82v2.33Z"/><path class="cls-10" d="M675.05,288.07h0a2.71,2.71,0,0,1-1.11,1.72,4.29,4.29,0,0,1-2.43.71,5.45,5.45,0,0,1-2.22-.4,5.53,5.53,0,0,1-1.82-1.32,6.73,6.73,0,0,1-1.22-2.22,9.3,9.3,0,0,1-.4-3,9.67,9.67,0,0,1,.4-3,6.79,6.79,0,0,1,1.22-2.23,5,5,0,0,1,1.92-1.31,6.73,6.73,0,0,1,2.53-.4,6.05,6.05,0,0,1,3.13.8,5.74,5.74,0,0,1,2,2.33l-2.42,1.42a2.6,2.6,0,0,0-1-1.32,2.48,2.48,0,0,0-1.82-.61,3.17,3.17,0,0,0-2.22.81,3.6,3.6,0,0,0-.81,2.53v2.23a3.55,3.55,0,0,0,.81,2.52,2.94,2.94,0,0,0,2.22.81c.41,0,.71-.1,1-.1a3.77,3.77,0,0,0,.91-.4,2.22,2.22,0,0,0,.6-.71,2,2,0,0,0,.2-.91v-.71H672v-2.53h5.36v7.59h-2.23l-.1-2.23Z"/><path class="cls-10" d="M688.8,284.74h-5.16v5.66h-2.93V276.75h2.93v5.36h5.16v-5.36h2.93V290.4H688.8Z"/></g><g class="cls-6"><path class="cls-10" d="M701.24,279.28v11h-2.93v-11h-3.74v-2.63h10.31v2.63Z"/></g><g class="cls-6"><path class="cls-10" d="M706.6,290.3V288h1.82v-8.9H706.6v-2.32h6.47v2.32h-1.82V288h1.82v2.33Z"/><path class="cls-10" d="M720,283.93l-1.32-2.73h-.1v9.2H715.7V276.75h3.23l3.75,6.47L724,286h.1v-9.2h2.83V290.4h-3.23Z"/><path class="cls-10" d="M738.85,288.07h0a2.67,2.67,0,0,1-1.11,1.72,4.23,4.23,0,0,1-2.42.71,5.52,5.52,0,0,1-2.23-.4,5.64,5.64,0,0,1-1.82-1.32,5.2,5.2,0,0,1-1.21-2.22,9,9,0,0,1-.41-3,9.38,9.38,0,0,1,.41-3,6.77,6.77,0,0,1,1.21-2.23,5.06,5.06,0,0,1,1.92-1.31,6.73,6.73,0,0,1,2.53-.4,6,6,0,0,1,3.13.8,5.83,5.83,0,0,1,2,2.33l-2.43,1.42a2.59,2.59,0,0,0-1-1.32,3.29,3.29,0,0,0-1.82-.61,3.2,3.2,0,0,0-2.23.81,3.64,3.64,0,0,0-.8,2.53v2.23a3.6,3.6,0,0,0,.8,2.52,3,3,0,0,0,2.23.81c.4,0,.71-.1,1-.1a3.61,3.61,0,0,0,.91-.4,2.36,2.36,0,0,0,.61-.71,2,2,0,0,0,.2-.91v-.71h-2.53v-2.53h5.36v7.59h-2.33v-2.23Z"/></g><path class="cls-7" d="M269.13,262.48H243.39v27.71H228.71V222.61h14.68v26.83h25.74V222.61h14.68v67.58H269.13Z"/><path class="cls-7" d="M298.71,290.19V222.61h14.68v54.44h25.74v13H298.71Z"/><path class="cls-7" d="M441.32,291.29c-5.91,0-10.95-1-15.12-3.07a34.85,34.85,0,0,1-10.51-7.89l9.64-9.74a21.74,21.74,0,0,0,17,7.66c3.61,0,6.24-.76,8-2.19a7.7,7.7,0,0,0,1.1-10.4c-1-1.21-3.18-2.09-6.25-2.52l-6.68-.88c-7.12-.88-12.38-3.07-15.77-6.46s-4.93-8-4.93-13.7a19,19,0,0,1,1.75-8.32,19.21,19.21,0,0,1,4.93-6.46,22.53,22.53,0,0,1,7.89-4.17,35.89,35.89,0,0,1,10.73-1.53A34.5,34.5,0,0,1,456.55,224a26.87,26.87,0,0,1,10,7.12L456.77,241a21.63,21.63,0,0,0-5.81-4.6,18.39,18.39,0,0,0-8.65-1.75c-3.29,0-5.7.54-7.34,1.75a5.4,5.4,0,0,0-2.41,4.82c0,2.3.65,3.94,1.86,4.93a13.2,13.2,0,0,0,6.13,2.19l6.69,1.09c7,1.1,12.16,3.29,15.44,6.47s5,7.77,5,13.58a21.45,21.45,0,0,1-1.75,8.87,20.19,20.19,0,0,1-5,7,22.19,22.19,0,0,1-8.33,4.49A44.53,44.53,0,0,1,441.32,291.29Z"/><path class="cls-7" d="M393.35,290.19l-4.82-16.1H366l-4.82,16.1h-14.9l22.24-67.58h18.18l22,67.58Zm-16-54.22h-.44l-7.45,25.63h15.45Z"/><path class="cls-7" d="M527.1,245.83h-.33l-4.93,9.86L508.7,279.57,495.88,255.8l-5.15-10.63h-.32v45H476.6V222.61h15.56l16.54,31.65h.22l16.32-31.65H540.9v67.58H527.1V245.83Z"/><rect class="cls-11" x="630.88" y="23.6" width="34.4" height="6.3"/><rect class="cls-12" x="674.68" y="23.6" width="31.3" height="6.3"/><rect class="cls-11" x="684.08" y="42.4" width="21.9" height="6.3"/><rect class="cls-7" x="652.78" y="42.4" width="21.9" height="6.3"/><rect class="cls-12" x="630.88" y="42.4" width="12.5" height="6.3"/><rect class="cls-12" x="630.88" y="61.2" width="75.1" height="6.3"/><rect class="cls-11" x="630.88" y="80" width="53.2" height="6.3"/><rect class="cls-7" x="693.48" y="80" width="12.5" height="6.3"/></svg>