<?xml version="1.0" encoding="utf-8"?>
<!-- Generator: Adobe Illustrator 25.2.0, SVG Export Plug-In . SVG Version: 6.00 Build 0)  -->
<svg version="1.1" id="Layer_1" xmlns="http://www.w3.org/2000/svg" xmlns:xlink="http://www.w3.org/1999/xlink" x="0px" y="0px"
	 viewBox="0 0 767.9 315" style="enable-background:new 0 0 767.9 315;" xml:space="preserve">
<style type="text/css">
	.st0{opacity:0;}
	.st1{fill:#0042CE;}
	.st2{fill:#001140;}
	.st3{fill:none;stroke:#98C8FF;stroke-width:4;stroke-miterlimit:10;}
	.st4{fill:none;stroke:#98C8FF;stroke-width:4.0001;stroke-miterlimit:10.0002;}
	.st5{fill:#D1E2FF;}
	.st6{fill:#C9DEFE;}
	.st7{fill:none;stroke:#76B4FF;stroke-miterlimit:10;}
	.st8{fill:#98C8FF;}
	.st9{fill:#76B4FF;}
	.st10{fill:#0063FF;}
</style>
<g class="st0">
	<rect x="16.8" y="12.8" class="st1" width="733.8" height="295.3"/>
	<path class="st2" d="M745.8,17.7v285.6H21.7V17.7H745.8 M755.5,8H12v305h743.5V8z"/>
</g>
<g>
	<path class="st3" d="M141.8,299c-0.1-15.8-11-28.6-26.4-32c9.6-4.4,13.8-15.9,9.4-25.5c-4.4-9.6-15.9-13.8-25.5-9.4
		s-13.8,15.9-9.4,25.5c2,4.3,5.5,7.7,9.8,9.6c-15.2,3.8-26,16.7-25.9,32.3"/>
	<path class="st3" d="M92.7,208.9l-0.4-54.6c0-2.3-1.9-4.3-4.3-4.3h-0.1l-60,0.3c-2.3,0-4.3,1.9-4.3,4.3v0.1l0,0l0.4,54.6
		L92.7,208.9z"/>
	<line class="st3" x1="92.2" y1="163.7" x2="23.7" y2="164"/>
	<polyline class="st3" points="34.4,173.4 41.1,180 34.5,186.9 	"/>
	<line class="st3" x1="48.4" y1="188.4" x2="59" y2="188.4"/>
	<line class="st3" x1="45.8" y1="234.2" x2="60.7" y2="234.2"/>
	<line class="st3" x1="45.8" y1="243.6" x2="60.8" y2="243.5"/>
	<line class="st3" x1="45.9" y1="252.9" x2="60.8" y2="252.8"/>
	<path class="st3" d="M107.1,229.8l-0.3-59.2c-0.1-2.9,2.2-5.3,5-5.3h0.1h0.2l93.8-0.4c3,0,5.3,2.4,5.3,5.3l0,0l0.4,79.1l-85,0.4"/>
	<line class="st3" x1="106.9" y1="178.7" x2="211.2" y2="178.2"/>
	
		<rect x="128.9" y="196" transform="matrix(1 -6.108500e-03 6.108500e-03 1 -1.2364 0.8325)" class="st4" width="13.6" height="13.6"/>
	
		<rect x="128.9" y="209.6" transform="matrix(1 -6.108500e-03 6.108500e-03 1 -1.3193 0.8328)" class="st4" width="13.6" height="13.6"/>
	
		<rect x="129" y="223.1" transform="matrix(1 -6.108500e-03 6.108500e-03 1 -1.4016 0.8337)" class="st4" width="13.6" height="13.6"/>
	<polyline class="st3" points="154.9,196.1 162.8,205.4 171.2,195.6 183.7,203.3 194.9,190.1 	"/>
	<circle class="st3" cx="174.9" cy="227.2" r="12"/>
	<polyline class="st3" points="164.4,221.4 174.9,227.2 169.2,237.4 	"/>
	<line class="st3" x1="174.9" y1="227.2" x2="184.3" y2="220.4"/>
	<line class="st3" x1="37.3" y1="266.3" x2="69.4" y2="266.1"/>
	<path class="st3" d="M40,223l26.2-0.1c1.7,0,3,1.3,3,3l0,0l0.3,49.9c0,1.7-1.3,3-3,3h-26c-1.7,0-3-1.3-3-3l-0.3-49.9
		c-0.1-1.5,1.1-2.8,2.6-2.9C39.8,223,39.9,223,40,223z"/>
</g>
<g>
	<g>
		<path class="st5" d="M290,70c-3.4,0.1-6.8-0.6-10-1.8c-2.8-1.1-5.4-2.9-7.6-5.2c-2.3-2.5-3.9-5.4-4.8-8.7
			c-1.2-3.9-1.9-8.1-1.8-12.1c-0.1-4.1,0.6-8.4,1.8-12.4c1-3.3,2.6-6.3,4.8-8.9c2-2.4,4.6-4.4,7.6-5.6c3.2-1.3,6.6-2,10-1.9
			c5.1,0,9.2,1.1,12.6,3c3.3,2,5.9,5.4,7.9,9.8l-10.2,5.4c-0.7-2.1-1.9-4.1-3.4-5.6c-1.5-1.4-3.8-2-6.8-2c-3.5,0-6.3,1.1-8.4,3.5
			c-2.2,2.2-3.2,5.6-3.2,9.9v8.5c0,4.3,1.1,7.6,3.2,9.9c2.1,2.4,5.2,3.6,8.4,3.5c2.5,0.1,5-0.7,6.9-2.4c1.7-1.6,3.1-3.5,3.9-5.7
			l9.8,5.6c-1.8,3.9-4.6,7.2-8.1,9.7C298.9,68.8,294.5,70.1,290,70z"/>
	</g>
	<g>
		<path class="st5" d="M339.9,70c-3.4,0-6.8-0.6-9.9-1.8c-2.9-1.1-5.5-3-7.6-5.4c-2.2-2.6-3.8-5.6-4.8-8.9c-1.2-4-1.9-8.1-1.8-12.4
			c-0.1-4.2,0.6-8.4,1.8-12.4c1-3.3,2.7-6.3,4.8-8.9c2-2.4,4.6-4.2,7.6-5.3c3.2-1.2,6.5-1.8,9.9-1.8s6.8,0.6,9.9,1.8
			c2.9,1.1,5.5,3,7.6,5.4c2.2,2.6,3.8,5.6,4.8,8.9c1.2,4,1.9,8.1,1.8,12.4c0.1,4.1-0.6,8.4-1.8,12.4c-1,3.3-2.6,6.3-4.8,8.9
			c-2,2.4-4.6,4.2-7.6,5.4C346.6,69.4,343.3,70.1,339.9,70z M339.9,59.5c3.5,0,6.4-1.1,8.4-3.6c2-2.4,3-5.7,3-10.2v-8.1
			c0-4.4-1.1-7.7-3-10.2s-4.8-3.6-8.4-3.6s-6.5,1.1-8.4,3.6c-2,2.4-3,5.7-3,10.2v8.3c0,4.4,1.1,7.7,3,10.2
			C333.5,58.3,336.1,59.5,339.9,59.5z"/>
		<path class="st5" d="M373.9,14.4h26.5c4.6,0,8.1,1.3,10.7,3.8c2.6,2.5,3.8,5.9,3.8,10.2c0,1.8-0.2,3.7-0.8,5.4
			c-0.4,1.3-1.1,2.5-2.1,3.5c-0.9,0.9-2,1.6-3.2,2c-1.3,0.4-2.6,0.7-3.9,0.8v0.5c1.4,0,2.8,0.2,4.1,0.8c1.4,0.6,2.8,1.3,3.9,2.3
			c1.2,1.1,2.3,2.4,3,3.9c0.9,1.9,1.3,3.9,1.3,5.9c0,2.1-0.3,4.1-1.1,6.1c-0.7,1.8-1.6,3.5-2.9,5c-1.2,1.4-2.8,2.4-4.4,3.3
			c-1.8,0.8-3.7,1.3-5.6,1.3h-28.8V14.4H373.9z M385.7,36.8h11.8c2.5,0.2,4.7-1.5,5-4c0-0.3,0-0.7,0-1v-2.4c0-1.4-0.4-2.7-1.2-3.7
			c-1-0.9-2.4-1.4-3.7-1.3h-11.8L385.7,36.8z M385.7,59h13.7c1.4,0.1,2.7-0.3,3.7-1.3c1-1,1.5-2.4,1.4-3.7v-2.7
			c0-1.4-0.5-2.7-1.4-3.7c-1-0.9-2.4-1.4-3.7-1.3h-13.7L385.7,59z"/>
		<path class="st5" d="M448,70c-3.4,0-6.8-0.6-9.9-1.8c-2.9-1.1-5.5-3-7.6-5.4c-2.2-2.6-3.8-5.6-4.8-8.9c-1.2-4-1.9-8.1-1.8-12.4
			c-0.1-4.2,0.6-8.4,1.8-12.4c1-3.3,2.6-6.3,4.8-8.9c2-2.4,4.6-4.2,7.6-5.3c3.2-1.2,6.5-1.8,9.9-1.8c3.4,0,6.8,0.6,9.9,1.8
			c2.9,1.1,5.5,3,7.6,5.4c2.2,2.6,3.8,5.6,4.8,8.9c1.2,4,1.9,8.1,1.8,12.4c0.1,4.1-0.6,8.4-1.8,12.4c-1,3.3-2.6,6.3-4.8,8.9
			c-2,2.4-4.6,4.2-7.6,5.4C454.7,69.5,451.4,70.1,448,70z M448,59.5c3.6,0,6.5-1.1,8.4-3.6c2-2.4,3-5.7,3-10.2v-8.1
			c0-4.4-1.1-7.7-3-10.2c-2-2.4-4.8-3.6-8.4-3.6c-3.6,0-6.4,1.1-8.4,3.6c-2,2.4-3,5.7-3,10.2v8.3c0,4.4,1.1,7.7,3,10.2
			C441.6,58.3,444.5,59.5,448,59.5z"/>
		<path class="st5" d="M482,69.1V14.4h11.9v44.2h20.8v10.5H482z"/>
	</g>
</g>
<g>
	<g>
		<path class="st5" d="M268,141.1V90.5h23.7c2.2-0.1,4.4,0.3,6.4,1.1c1.9,0.7,3.5,1.8,4.8,3.3c1.4,1.5,2.4,3.2,3,5.1
			c0.7,2.1,1.1,4.3,1.1,6.6c0.1,2.2-0.3,4.5-1.1,6.6c-0.7,1.9-1.7,3.6-3,5.1c-1.4,1.5-3,2.5-4.8,3.3c-2,0.8-4.2,1.1-6.4,1.1h-12.9
			V141h-10.9L268,141.1L268,141.1z M279.1,113.4h11.5c1.5,0.1,2.8-0.3,3.9-1.3c1-1,1.5-2.4,1.4-3.7v-3.2c0.1-1.4-0.4-2.7-1.4-3.7
			c-1.1-0.9-2.5-1.4-3.9-1.3h-11.5V113.4z"/>
	</g>
	<g>
		<path class="st5" d="M315.5,141.1V90.5h11.1v40.8h19.4v9.8L315.5,141.1L315.5,141.1L315.5,141.1z"/>
	</g>
	<g>
		<path class="st5" d="M349.3,152.2l21.6-64.5h8.9l-21.6,64.5H349.3z"/>
		<path class="st5" d="M386.1,141.1v-8.7h6.5v-33h-6.4v-8.7h24.1v8.7h-6.4v33h6.4v8.7H386.1z"/>
	</g>
</g>
<g>
	<path class="st6" d="M628.8,134.7v44.5c0,2.7-0.4,5.4-1.3,7.9c-0.8,2.3-2.3,4.4-4.1,6c-1.9,1.8-4.1,3-6.5,3.8
		c-2.8,0.9-5.7,1.3-8.7,1.3c-2.8,0.1-5.6-0.4-8.2-1.2c-2.3-0.8-4.4-2-6.1-3.5c-1.7-1.7-3.1-3.5-4.1-5.6c-1.1-2.3-1.9-4.8-2.3-7.3
		l12.6-2.5c0.9,5.5,3.6,8.2,7.8,8.2c1.9,0,3.6-0.6,5-1.9c1.3-1.2,2.1-3.2,2.1-5.9v-32.9h-19.1v-10.9L628.8,134.7L628.8,134.7z"/>
	<path class="st6" d="M667.6,198.5c-3.9,0-7.9-0.7-11.5-2.1c-3.3-1.3-6.3-3.3-8.7-6c-2.5-2.9-4.5-6.3-5.7-9.9
		c-1.3-4.6-2.1-9.3-2-14.1c0-4.8,0.6-9.5,2-14.2c1.1-3.8,3-7.4,5.7-10.4c2.4-2.7,5.4-4.9,8.7-6.3c3.6-1.6,7.6-2.3,11.5-2.2
		c5.9,0,10.7,1.1,14.4,3.5c4,2.7,7.3,6.6,9.1,11.1l-11.7,6.1c-0.7-2.4-2.1-4.6-4-6.3c-1.8-1.6-4.2-2.4-7.8-2.4c-4.1,0-7.3,1.2-9.6,4
		c-2.5,2.5-3.6,6.4-3.6,11.3v10.2c0,5,1.1,8.8,3.6,11.3c2.5,2.6,6,4,9.6,4c2.9,0.2,5.8-0.8,8-2.7c2-1.9,3.4-4.1,4.5-6.6l11.2,6.5
		c-2.1,4.5-5.3,8.3-9.2,11.1C678.2,197.1,673.5,198.5,667.6,198.5z"/>
	<path class="st6" d="M700.8,197.6v-62.8h13.7v50.6h23.9v12.1L700.8,197.6L700.8,197.6z"/>
</g>
<line class="st7" x1="554" y1="299.7" x2="554" y2="12.8"/>
<g>
	<g>
		<path class="st8" d="M38.6,38.4l-1.7-5.9h-8.2l-1.7,5.9h-5.5l8.2-24.8h6.7l7.8,24.8H38.6z M32.9,18.5h-0.2L30,27.8h5.7L32.9,18.5z
			"/>
	</g>
	<g>
		<path class="st8" d="M48.1,13.6h9.3c1.5-0.1,3,0.2,4.5,0.9c1.3,0.5,2.5,1.3,3.4,2.3c1,1.1,1.7,2.5,2.1,3.9
			c0.5,1.7,0.9,3.5,0.9,5.4c0.1,1.8-0.2,3.6-0.9,5.4c-0.4,1.4-1.2,2.7-2.1,3.9c-1,1.1-2.1,1.8-3.4,2.3c-1.4,0.5-2.9,0.9-4.5,0.9
			h-9.3C48.1,38.3,48.1,13.6,48.1,13.6z M57.5,33.7c1.4,0.1,2.8-0.4,3.8-1.4s1.4-2.3,1.4-4.4V24c0.1-1.6-0.3-3.1-1.4-4.4
			c-1-1-2.4-1.4-3.8-1.4h-4v15.1h4C57.5,33.4,57.5,33.7,57.5,33.7z"/>
	</g>
	<g>
		<path class="st8" d="M78.1,38.4l-8-24.8h5.5l3.6,11.8l1.9,7.8h0.1l1.8-7.8l3.8-11.8h5.3l-8,24.8H78.1z"/>
	</g>
	<g>
		<path class="st8" d="M109.4,38.4l-1.7-5.9h-8.2l-1.7,5.9h-5.5l8.2-24.8h6.7l8,24.8H109.4z M103.5,18.5h-0.2l-2.7,9.3h5.7
			L103.5,18.5z"/>
		<path class="st8" d="M126.3,26.7l-2.4-4.9h-0.1v16.7h-5V13.6h5.9l6.8,11.7l2.4,4.9h0.1V13.7h5v24.7h-5.9L126.3,26.7z"/>
		<path class="st8" d="M155,38.8c-1.6,0-3.1-0.3-4.6-0.9c-1.3-0.5-2.5-1.3-3.4-2.4c-1-1.2-1.7-2.5-2.1-4c-0.5-1.8-0.9-3.6-0.9-5.5
			c-0.1-1.8,0.2-3.8,0.9-5.5c0.4-1.5,1.2-2.9,2.1-4.1c0.9-1.1,2-1.9,3.4-2.5c1.5-0.5,3-0.9,4.6-0.9c2-0.1,4,0.4,5.7,1.4
			c1.6,1.1,2.8,2.6,3.5,4.4l-4.7,2.4c-0.2-1-0.9-1.8-1.6-2.5c-0.9-0.6-1.9-1-3-1c-1.4,0-2.8,0.5-3.9,1.6c-1.1,1.2-1.6,2.8-1.5,4.5
			v4.1c-0.1,1.6,0.4,3.2,1.5,4.5c1,1.1,2.4,1.6,3.9,1.6c1.2,0.1,2.4-0.3,3.2-1.1c0.8-0.8,1.4-1.6,1.7-2.6l4.4,2.6
			c-0.9,1.7-2,3.2-3.6,4.4C158.9,38.4,156.9,39,155,38.8z"/>
		<path class="st8" d="M168.4,38.4V13.6h17v4.8h-11.5v4.9h9.8v4.8h-9.8v5.3h11.5v4.9L168.4,38.4L168.4,38.4z"/>
		<path class="st8" d="M190.3,13.6h9.3c1.5-0.1,3,0.2,4.5,0.9c1.3,0.5,2.5,1.3,3.4,2.3c1,1.1,1.7,2.5,2.1,3.9
			c0.5,1.7,0.9,3.5,0.9,5.4c0.1,1.8-0.2,3.6-0.9,5.4c-0.4,1.4-1.2,2.7-2.1,3.9c-1,1.1-2.1,1.8-3.4,2.3c-1.4,0.5-2.9,0.9-4.5,0.9
			h-9.3V13.6z M199.6,33.7c1.4,0.1,2.8-0.4,3.8-1.4c1-1,1.4-2.3,1.4-4.4V24c0.1-1.6-0.3-3.1-1.4-4.4c-1-1-2.4-1.4-3.8-1.4h-4v15.1h4
			V33.7z"/>
	</g>
	<g>
		<path class="st8" d="M23.4,76.8V52.2h5.4v20h9.3v4.8H23.4V76.8z"/>
	</g>
	<g>
		<path class="st8" d="M58.5,76.8L56.8,71h-8.3l-1.7,5.8h-5.4l8.2-24.7H56l8,24.7H58.5z M52.6,57.1h-0.2l-2.7,9.3h5.6L52.6,57.1z"/>
		<path class="st8" d="M75.4,65.2l-2.4-4.9H73V77h-5.2V52.2h5.8l6.8,11.6l2.4,4.9h0.1V52.2h5v24.7h-5.8L75.4,65.2z"/>
		<path class="st8" d="M109.7,73h-0.2c-0.2,1.3-0.9,2.4-1.8,3.1c-1.3,0.9-2.9,1.3-4.5,1.3c-1.4,0-2.7-0.3-4-0.9
			c-1.3-0.5-2.4-1.4-3.2-2.4c-1-1.2-1.7-2.5-2.1-4c-1-3.6-1-7.4,0.1-11.1c0.5-1.5,1.3-2.9,2.3-4.1c1-1.1,2.3-1.9,3.5-2.5
			c1.5-0.5,3-0.9,4.6-0.9c2,0,4,0.4,5.7,1.5c1.6,1,3,2.5,3.8,4.3l-4.4,2.5c-0.4-1-1-1.8-1.7-2.5c-1-0.8-2.1-1.1-3.3-1.1
			c-1.5-0.1-2.9,0.4-4,1.5c-1.1,1.3-1.6,2.9-1.5,4.6v4.2c-0.1,1.6,0.4,3.3,1.5,4.6c1.1,1,2.5,1.5,4,1.5c0.6,0,1.3-0.1,1.8-0.2
			c1.1-0.2,2-1,2.6-1.8c0.2-0.4,0.4-1,0.4-1.6v-1.4h-4.6v-4.5h9.8V77h-4.6L109.7,73L109.7,73z"/>
	</g>
	<g>
		<path class="st8" d="M125.3,52.2v15.1c-0.1,1.4,0.2,2.8,1.1,4c1.9,1.6,4.8,1.6,6.9,0c0.8-1.2,1.2-2.6,1.1-4V52.2h5.2v14.6
			c0,1.6-0.2,3.1-0.5,4.7c-0.3,1.2-0.9,2.4-1.6,3.3c-0.9,0.9-1.8,1.5-3,1.8c-2.9,0.9-6,0.9-8.9,0c-1.2-0.3-2.1-1-3-1.8
			c-0.9-1-1.4-2.1-1.6-3.3c-0.3-1.5-0.5-3.1-0.5-4.7V52.2H125.3z"/>
	</g>
	<g>
		<path class="st8" d="M159.7,76.8L158,71h-8.2l-1.7,5.8h-5.4l8.2-24.7h6.7l8,24.7H159.7z M153.8,57.1h-0.2l-2.7,9.3h5.6L153.8,57.1
			z"/>
	</g>
	<g>
		<path class="st8" d="M183.8,73h-0.2c-0.2,1.3-0.9,2.4-1.8,3.1c-1.3,0.9-2.9,1.3-4.5,1.3c-1.4,0-2.7-0.3-4-0.9
			c-1.3-0.5-2.4-1.4-3.2-2.4c-1-1.2-1.7-2.5-2.1-4c-1-3.6-1-7.4,0.1-11.1c0.5-1.5,1.3-2.9,2.3-4.1c1-1.1,2.3-1.9,3.5-2.5
			c1.5-0.5,3-0.9,4.6-0.9c2,0,4,0.4,5.7,1.5c1.6,1,3,2.5,3.8,4.3l-4.4,2.5c-0.4-1-1-1.8-1.7-2.5c-1-0.8-2.1-1.1-3.3-1.1
			c-1.5-0.1-2.9,0.4-4,1.5c-1.1,1.3-1.6,2.9-1.5,4.6v4.2c-0.1,1.6,0.4,3.3,1.5,4.6c1.1,1,2.5,1.5,4,1.5c0.6,0,1.3-0.1,1.8-0.2
			c1.1-0.2,2-1,2.6-1.8c0.2-0.4,0.4-1,0.4-1.6v-1.4h-4.6v-4.5h9.8V77h-4.6V73L183.8,73z"/>
		<path class="st8" d="M194,76.8V52.2h17V57h-11.5v4.9h9.8v4.8h-9.8V72H211v4.8C210.9,76.8,194,76.8,194,76.8z"/>
	</g>
	<g>
		<path class="st8" d="M33.6,120.7c-2.3,0.1-4.6-0.3-6.7-1.4c-1.7-0.9-3.3-2-4.7-3.5l4.3-4.4c1.8,2.3,4.6,3.4,7.5,3.4
			c1.3,0.1,2.5-0.2,3.5-1c0.8-0.6,1.2-1.6,1.2-2.6c0-0.8-0.2-1.5-0.8-2c-0.8-0.8-1.7-1.1-2.8-1.2l-2.9-0.4c-3.1-0.4-5.5-1.4-7-2.9
			c-1.5-1.6-2.3-3.8-2.1-6c0-1.3,0.2-2.5,0.8-3.6c0.5-1.1,1.3-2.1,2.1-2.9c1-0.9,2.3-1.5,3.5-1.8c1.5-0.4,3.1-0.6,4.7-0.6
			c2-0.1,4.1,0.3,5.9,1.1c1.7,0.6,3.1,1.7,4.4,3.1l-4.3,4.4c-0.8-0.9-1.6-1.5-2.6-1.9c-1.2-0.5-2.5-0.9-3.9-0.9
			c-1.1-0.1-2.3,0.1-3.2,0.8c-0.6,0.4-1.1,1.3-1.1,2c-0.1,0.9,0.2,1.6,0.9,2.1c0.9,0.5,1.7,0.9,2.7,1l2.9,0.5
			c2.5,0.3,4.8,1.3,6.9,2.8c1.5,1.6,2.4,3.8,2.1,6c0,1.4-0.2,2.7-0.8,4c-0.5,1.2-1.3,2.3-2.3,3.1c-1.1,1-2.3,1.6-3.6,1.9
			C36.8,120.4,35.2,120.7,33.6,120.7z"/>
		<path class="st8" d="M51,120.2V90.3h20.4V96H57.5v6h11.8v5.7H57.5v6.4h13.8v5.7H51C51,119.9,51,120.2,51,120.2z"/>
	</g>
	<g>
		<path class="st8" d="M84.2,120.2h-6.4V90.3h14.3c1.3,0,2.6,0.2,3.8,0.8c1.1,0.4,2,1.1,2.8,1.9c0.8,0.9,1.4,1.9,1.7,3
			c0.4,1.3,0.6,2.6,0.6,3.9c0,1.8-0.4,3.6-1.4,5.3c-1,1.5-2.4,2.7-4.1,3.3l5.8,11.6h-7.2L89,109.1h-4.7
			C84.4,109.2,84.2,120.2,84.2,120.2z M91.2,103.8c0.9,0.1,1.6-0.2,2.3-0.8c0.5-0.5,0.9-1.4,0.9-2.1V99c0-0.9-0.2-1.6-0.9-2.1
			c-0.6-0.5-1.5-0.8-2.3-0.8h-6.9v7.8L91.2,103.8L91.2,103.8z"/>
	</g>
	<g>
		<path class="st8" d="M112.9,120.2l-9.5-29.9h6.5l4.5,14.4l2.4,9.3h0.1l2.3-9.3l4.5-14.4h6.3l-9.7,29.9H112.9z"/>
		<path class="st8" d="M134.2,120.2V90.3h20.4V96h-13.8v6h11.8v5.7h-11.8v6.4h13.8v5.7h-20.4V120.2z"/>
		<path class="st8" d="M167.1,120.2h-6.4V90.3h14.2c1.3,0,2.6,0.2,3.8,0.8c1.1,0.4,2,1.1,2.8,1.9c0.8,0.9,1.4,1.9,1.7,3
			c0.4,1.3,0.6,2.6,0.6,3.9c0,1.8-0.4,3.6-1.4,5.3c-1,1.5-2.4,2.7-4.1,3.3l5.8,11.6h-7.2l-5.2-10.9H167L167.1,120.2L167.1,120.2z
			 M173.9,103.8c0.9,0.1,1.6-0.2,2.3-0.8c0.5-0.5,0.9-1.4,0.9-2.1V99c0-0.9-0.2-1.6-0.9-2.1c-0.6-0.5-1.5-0.8-2.3-0.8h-6.9v7.8
			L173.9,103.8L173.9,103.8z"/>
		<path class="st8" d="M199.6,120.7c-2.3,0.1-4.6-0.3-6.7-1.4c-1.7-0.9-3.3-2-4.7-3.5l4.3-4.4c1.8,2.3,4.6,3.4,7.5,3.4
			c1.3,0.1,2.5-0.2,3.5-1c0.8-0.6,1.2-1.6,1.2-2.6c0-0.8-0.2-1.5-0.8-2c-0.8-0.8-1.7-1.2-2.8-1.2l-2.9-0.4c-3.1-0.4-5.5-1.4-7-2.9
			c-1.5-1.6-2.3-3.8-2.1-6c0-1.3,0.2-2.5,0.8-3.6c0.5-1.1,1.3-2.1,2.1-2.9c1-0.9,2.3-1.5,3.5-1.8c1.5-0.4,3.1-0.6,4.7-0.6
			c2-0.1,4.1,0.3,5.9,1.1c1.7,0.6,3.1,1.7,4.4,3.1l-4.3,4.4c-0.8-0.9-1.6-1.5-2.6-1.9c-1.2-0.5-2.5-0.9-3.9-0.9
			c-1.1-0.1-2.3,0.1-3.2,0.8c-0.6,0.4-1.1,1.3-1.1,2c-0.1,0.9,0.2,1.6,0.9,2.1c0.9,0.5,1.7,0.9,2.7,1l2.9,0.5
			c2.5,0.3,4.8,1.3,6.9,2.8c1.5,1.6,2.4,3.8,2.1,6c0,1.4-0.2,2.7-0.8,4c-0.5,1.2-1.3,2.3-2.3,3.1c-1.1,1-2.3,1.6-3.6,1.9
			C202.9,120.4,201.2,120.7,199.6,120.7z"/>
	</g>
</g>
<g>
	<g>
		<path class="st8" d="M597.4,277.5c-2.2,0.1-4.2-0.3-6.2-1.3c-1.6-0.8-3-1.8-4.2-3.1l3.9-3.9c1.7,1.9,4.2,3.1,6.9,3
			c1.2,0.1,2.4-0.2,3.2-1c0.8-0.6,1.1-1.5,1.1-2.5c0-0.6-0.2-1.4-0.6-1.9c-0.8-0.6-1.6-1-2.6-1.1l-2.7-0.4c-2.9-0.4-5.1-1.3-6.4-2.6
			c-1.4-1.5-2.1-3.6-2.1-5.6c0-1.2,0.2-2.4,0.8-3.3c0.4-1.1,1.2-1.9,2.1-2.6c1-0.8,2.1-1.4,3.2-1.7c1.4-0.4,2.8-0.6,4.3-0.6
			c1.8-0.1,3.7,0.3,5.4,1.1c1.5,0.6,2.9,1.6,4,2.8l-3.9,4c-0.6-0.8-1.5-1.4-2.5-1.9c-1.1-0.4-2.3-0.8-3.5-0.8
			c-1.1-0.1-2.2,0.2-3,0.8c-0.6,0.4-1.1,1.1-1.1,1.9c-0.1,0.8,0.2,1.5,0.8,2.1c0.8,0.5,1.5,0.9,2.5,1l2.7,0.4c2.8,0.4,5,1.3,6.3,2.6
			c1.4,1.5,2.2,3.5,2.1,5.5c0,1.2-0.2,2.5-0.8,3.6c-0.4,1.1-1.2,2.1-2.1,2.8c-1,0.8-2.1,1.4-3.2,1.9
			C600.4,277.3,598.9,277.6,597.4,277.5z"/>
	</g>
	<g>
		<path class="st8" d="M618.7,276.9v-10.7l-9.4-16.7h6.7l5.9,10.9h0.1l5.6-10.9h6.5l-9.4,16.6v10.8H618.7z"/>
		<path class="st8" d="M646.1,264.1l-2.6-5.5h-0.2v18.4h-5.6v-27.4h6.5l7.6,12.9l2.6,5.5h0.1v-18.4h5.6v27.4h-6.5L646.1,264.1z"/>
	</g>
	<g>
		<path class="st8" d="M678.4,254.9v21.9h-5.9v-21.9H665v-5.2h20.9v5.2L678.4,254.9z"/>
	</g>
	<g>
		<path class="st8" d="M704.7,276.9l-1.9-6.5h-9.1l-1.8,6.5h-6.1l9.1-27.4h7.3l8.9,27.4H704.7z M698.3,255h-0.1l-3,10.4h6.3
			L698.3,255z"/>
	</g>
	<g>
		<path class="st8" d="M738.3,276.9h-6.9l-5.9-10h-0.1l-5.8,10H713l8.9-14.3l-8.3-13.2h7l5.3,9.3h0.1l5.4-9.3h6.5l-8.4,13.3
			L738.3,276.9z"/>
	</g>
	<g>
		<path class="st8" d="M595.3,293.9h-5.4v5.9h-3v-14.3h3v5.6h5.4v-5.6h3v14.3h-3V293.9z"/>
		<path class="st8" d="M601.3,299.7v-2.4h1.9v-9.3h-1.9v-2.5h6.8v2.4h-1.9v9.3h1.9v2.5H601.3z"/>
		<path class="st8" d="M619.8,297.4L619.8,297.4c-0.1,0.8-0.5,1.4-1.2,1.8c-0.8,0.5-1.6,0.8-2.6,0.8c-0.8,0-1.6-0.1-2.3-0.4
			c-0.8-0.3-1.4-0.8-1.9-1.4c-0.6-0.6-1.1-1.4-1.3-2.3c-0.3-1-0.4-2.1-0.4-3.1s0.1-2.2,0.4-3.1c0.3-0.9,0.8-1.6,1.3-2.4
			c0.5-0.6,1.2-1.1,2.1-1.4c0.9-0.3,1.7-0.4,2.6-0.4c1.2,0,2.3,0.2,3.2,0.9c0.9,0.6,1.6,1.4,2.1,2.5l-2.5,1.5
			c-0.2-0.5-0.5-1.1-1.1-1.4c-0.5-0.4-1.2-0.6-1.9-0.6c-0.9,0-1.7,0.3-2.4,0.9c-0.6,0.8-0.9,1.7-0.9,2.6v2.4c-0.1,1,0.2,1.9,0.9,2.6
			c0.6,0.5,1.5,0.9,2.4,0.9c0.4,0,0.8-0.1,1.1-0.1c0.3-0.1,0.6-0.2,1-0.4c0.2-0.2,0.4-0.4,0.6-0.8c0.1-0.3,0.2-0.6,0.2-1v-0.8h-2.6
			v-2.6h5.6v7.9h-2.6L619.8,297.4L619.8,297.4z"/>
		<path class="st8" d="M634.3,293.9h-5.4v5.9h-3v-14.3h3v5.6h5.4v-5.6h3v14.3h-3V293.9z"/>
		<path class="st8" d="M640.7,299.7v-14.3h3V297h5.4v2.7H640.7z"/>
		<path class="st8" d="M651.3,299.7v-2.4h1.9v-9.3h-1.9v-2.5h6.8v2.4h-1.8v9.3h1.9v2.5H651.3z"/>
		<path class="st8" d="M669.9,297.4L669.9,297.4c-0.1,0.8-0.5,1.4-1.2,1.8c-0.8,0.5-1.6,0.8-2.6,0.8c-0.8,0-1.6-0.1-2.3-0.4
			c-0.8-0.3-1.4-0.8-1.9-1.4c-0.5-0.6-1-1.5-1.3-2.3c-0.3-1-0.4-2.1-0.4-3.1s0.1-2.2,0.4-3.1c0.3-0.9,0.8-1.6,1.3-2.4
			c0.5-0.6,1.2-1.1,2.1-1.4c0.9-0.3,1.7-0.4,2.6-0.4c1.2,0,2.3,0.2,3.2,0.9c0.9,0.6,1.6,1.4,2.1,2.5l-2.5,1.5
			c-0.2-0.5-0.5-1.1-1.1-1.4c-0.5-0.4-1.2-0.6-1.9-0.6c-0.9,0-1.7,0.3-2.3,0.9c-0.6,0.8-0.9,1.7-0.9,2.6v2.4c-0.1,1,0.2,1.9,0.9,2.6
			c0.6,0.6,1.5,0.9,2.3,0.9c0.4,0,0.8-0.1,1.1-0.1c0.3-0.1,0.6-0.2,1-0.4c0.2-0.2,0.4-0.4,0.6-0.8c0.1-0.3,0.2-0.6,0.2-1v-0.8h-2.6
			v-2.6h5.6v7.9h-2.4L669.9,297.4L669.9,297.4z"/>
		<path class="st8" d="M684.2,293.9h-5.4v5.9h-3v-14.3h3v5.6h5.4v-5.6h3v14.3h-3V293.9z"/>
	</g>
	<g>
		<path class="st8" d="M697.3,288.2v11.6h-3v-11.6h-3.9v-2.7h10.8v2.7H697.3z"/>
	</g>
	<g>
		<path class="st8" d="M702.9,299.7v-2.4h1.9v-9.3h-1.9v-2.5h6.8v2.4h-1.9v9.3h1.9v2.5H702.9z"/>
		<path class="st8" d="M716.9,293l-1.4-2.8h-0.1v9.6h-2.9v-14.3h3.3l3.9,6.8l1.4,2.9h0.1v-9.7h2.9v14.3h-3.3L716.9,293z"/>
		<path class="st8" d="M736.6,297.4L736.6,297.4c-0.1,0.8-0.5,1.4-1.2,1.8c-0.8,0.5-1.6,0.8-2.5,0.8c-0.8,0-1.6-0.1-2.4-0.4
			s-1.4-0.8-1.9-1.4c-0.6-0.6-1.1-1.4-1.3-2.3c-0.3-1-0.4-2.1-0.4-3.1s0.1-2.2,0.4-3.1c0.3-0.9,0.6-1.6,1.3-2.4
			c0.5-0.6,1.2-1.1,2.1-1.4c0.9-0.3,1.7-0.4,2.6-0.4c1.2,0,2.3,0.2,3.2,0.9c0.9,0.6,1.6,1.4,2.1,2.5l-2.6,1.5
			c-0.2-0.5-0.5-1.1-1.1-1.4c-0.5-0.4-1.2-0.6-1.9-0.6c-0.9,0-1.7,0.3-2.4,0.9c-0.6,0.8-0.9,1.7-0.9,2.6v2.4c-0.1,1,0.2,1.9,0.9,2.6
			c0.6,0.5,1.5,0.9,2.4,0.9c0.4,0,0.8-0.1,1.1-0.1c0.3-0.1,0.6-0.2,1-0.4c0.2-0.2,0.4-0.4,0.6-0.8c0.1-0.3,0.2-0.6,0.2-1v-0.8h-2.6
			v-2.6h5.6v7.9h-2.5L736.6,297.4L736.6,297.4z"/>
	</g>
</g>
<g>
	<path class="st5" d="M299,198.8h-20.3v21.9h-11.5v-53.2h11.5v21.1H299v-21.1h11.5v53.2H299V198.8z"/>
	<path class="st5" d="M322.3,220.7v-53.2h11.5v42.9h20.3v10.2L322.3,220.7L322.3,220.7z"/>
	<path class="st5" d="M434.6,221.5c-4.6,0-8.6-0.8-11.9-2.4c-3.1-1.5-5.9-3.7-8.3-6.2l7.6-7.6c3.3,3.9,8.2,6.1,13.4,6
		c2.8,0,4.9-0.6,6.3-1.7c2.4-2.1,2.8-5.6,0.9-8.2c-0.8-1-2.5-1.6-5-2l-5.3-0.7c-5.6-0.7-9.8-2.4-12.4-5.1c-2.7-2.7-3.9-6.3-3.9-10.8
		c-0.1-2.3,0.4-4.5,1.4-6.6c0.9-2,2.3-3.7,3.9-5.1c1.9-1.5,3.9-2.6,6.2-3.3c2.8-0.8,5.6-1.2,8.5-1.2c3.7-0.1,7.2,0.6,10.6,1.9
		c3,1.2,5.7,3.2,7.9,5.6l-7.7,7.8c-1.3-1.5-2.8-2.7-4.6-3.7c-2.1-1-4.5-1.5-6.8-1.4c-2.6,0-4.5,0.4-5.8,1.4c-1.3,0.8-2,2.3-1.9,3.8
		c0,1.8,0.5,3.1,1.5,3.9c1.5,1,3.1,1.5,4.8,1.7l5.3,0.9c5.5,0.9,9.6,2.6,12.1,5.1c2.6,2.5,3.9,6.1,3.9,10.7c0.1,2.4-0.4,4.8-1.4,7
		c-0.9,2.1-2.3,4-3.9,5.5c-1.9,1.6-4.1,2.8-6.6,3.5C440.6,221.2,437.6,221.5,434.6,221.5z"/>
	<path class="st5" d="M396.9,220.7L393,208h-17.7l-3.8,12.7h-11.7l17.5-53.2h14.3l17.3,53.2H396.9z M384.2,178h-0.3l-5.9,20.2h12.2
		L384.2,178z"/>
	<path class="st5" d="M502.2,185.7h-0.3l-3.9,7.7l-10.3,18.8l-10.1-18.7l-4.1-8.4h-0.2v35.5h-10.9v-53.2h12.3l13,24.9h0.2l12.8-24.9
		H513v53.2h-10.9L502.2,185.7L502.2,185.7z"/>
</g>
<g>
	<rect x="593.7" y="12.6" class="st9" width="63.4" height="8.1"/>
	<rect x="674.4" y="12.6" class="st10" width="57.7" height="8.1"/>
	<rect x="691.7" y="36.7" class="st9" width="40.4" height="8.1"/>
	<rect x="634.1" y="36.7" class="st5" width="40.4" height="8.1"/>
	<rect x="593.7" y="36.7" class="st10" width="23" height="8.1"/>
	<rect x="593.7" y="60.9" class="st10" width="138.4" height="8.1"/>
	<rect x="593.7" y="85" class="st9" width="98.1" height="8.1"/>
	<rect x="709.1" y="85" class="st5" width="23" height="8.1"/>
</g>
<g>
	<path class="st5" d="M278.5,300.6h-11.5v-52.9H292c9.8,0,16,6.8,16,16.9c0,7.1-3.2,12.8-9.6,15.2l10.4,20.8H296l-9.3-19.4h-8.3
		V300.6z M290.6,271.5c3.4,0,5.5-1.8,5.5-5.2v-3.3c0-3.4-2.1-5.2-5.5-5.2h-12.1v13.8H290.6z"/>
	<path class="st5" d="M318,300.6v-52.9h36v10.2h-24.5v10.8h21v10.2h-21v11.5h24.5v10.2H318z"/>
	<path class="st5" d="M376.4,273.2l-16.2-25.6h13.4l10.3,17.9h0.2l10.5-17.9h12.4l-16.3,25.8l17.2,27.1h-13.3l-11.4-19.5H383
		l-11.1,19.5h-12.4L376.4,273.2z"/>
	<path class="st5" d="M427.5,273.2l-16.2-25.6h13.4l10.3,17.9h0.2l10.5-17.9h12.4l-16.3,25.8l17.2,27.1h-13.3l-11.4-19.5h-0.2
		l-11.1,19.5h-12.4L427.5,273.2z"/>
</g>
</svg>
