<?xml version="1.0" encoding="UTF-8"?>
<svg xmlns="http://www.w3.org/2000/svg" version="1.1" viewBox="0 0 767.9 315">
  <defs>
    <style>
      .cls-1 {
        fill: #98c8ff;
      }

      .cls-2 {
        fill: #d1e2ff;
      }

      .cls-3 {
        stroke-miterlimit: 10;
        stroke-width: 4px;
      }

      .cls-3, .cls-4 {
        fill: none;
        stroke: #98c8ff;
      }

      .cls-4 {
        stroke-miterlimit: 10;
        stroke-width: 4px;
      }

      .cls-5 {
        fill: #001140;
      }

      .cls-6 {
        fill: #c9defe;
      }

      .cls-7 {
        fill: #0042ce;
      }

      .cls-8 {
        opacity: 0;
      }
    </style>
  </defs>
  <!-- Generator: Adobe Illustrator 28.7.1, SVG Export Plug-In . SVG Version: 1.2.0 Build 142)  -->
  <g>
    <g id="Layer_1">
      <g class="cls-8">
        <rect class="cls-7" x="16.8" y="12.8" width="733.8" height="295.3"/>
        <path class="cls-5" d="M745.8,17.7v285.6H21.7V17.7h724.1M755.5,8H12v305h743.5V8Z"/>
      </g>
      <g>
        <path class="cls-4" d="M146.8,299c-.1-15.8-11-28.6-26.4-32,9.6-4.4,13.8-15.9,9.4-25.5-4.4-9.6-15.9-13.8-25.5-9.4s-13.8,15.9-9.4,25.5c2,4.3,5.5,7.7,9.8,9.6-15.2,3.8-26,16.7-25.9,32.3"/>
        <path class="cls-4" d="M97.7,208.9l-.4-54.6c0-2.3-1.9-4.3-4.3-4.3h0l-60,.3c-2.3,0-4.3,1.9-4.3,4.3h0c0,.1.4,54.7.4,54.7l68.7-.4Z"/>
        <line class="cls-4" x1="97.2" y1="163.7" x2="28.7" y2="164"/>
        <polyline class="cls-4" points="39.4 173.4 46.1 180 39.5 186.9"/>
        <line class="cls-4" x1="53.4" y1="188.4" x2="64" y2="188.4"/>
        <line class="cls-4" x1="50.8" y1="234.2" x2="65.7" y2="234.2"/>
        <line class="cls-4" x1="50.8" y1="243.6" x2="65.8" y2="243.5"/>
        <line class="cls-4" x1="50.9" y1="252.9" x2="65.8" y2="252.8"/>
        <path class="cls-4" d="M112.1,229.8l-.3-59.2c0-2.9,2.2-5.3,5-5.3h.3l93.8-.4c3,0,5.3,2.4,5.3,5.3h0l.4,79.1-85,.4"/>
        <line class="cls-4" x1="111.9" y1="178.7" x2="216.2" y2="178.2"/>
        <rect class="cls-3" x="133.9" y="196" width="13.6" height="13.6" transform="translate(-1.2 .9) rotate(-.3)"/>
        <rect class="cls-3" x="133.9" y="209.6" width="13.6" height="13.6" transform="translate(-1.3 .9) rotate(-.3)"/>
        <rect class="cls-3" x="134" y="223.1" width="13.6" height="13.6" transform="translate(-1.4 .9) rotate(-.3)"/>
        <polyline class="cls-4" points="159.9 196.1 167.8 205.4 176.2 195.6 188.7 203.3 199.9 190.1"/>
        <circle class="cls-4" cx="179.9" cy="227.2" r="12"/>
        <polyline class="cls-4" points="169.4 221.4 179.9 227.2 174.2 237.4"/>
        <line class="cls-4" x1="179.9" y1="227.2" x2="189.3" y2="220.4"/>
        <line class="cls-4" x1="42.3" y1="266.3" x2="74.4" y2="266.1"/>
        <path class="cls-4" d="M45,223h26.2c1.7-.1,3,1.2,3,2.9h0l.3,49.9c0,1.7-1.3,3-3,3h-26c-1.7,0-3-1.3-3-3l-.3-49.9c0-1.5,1.1-2.8,2.6-2.9h.2Z"/>
      </g>
      <g>
        <path class="cls-2" d="M285.9,75.6c-3.2,0-6.5-.6-9.6-1.8-2.7-1.1-5.2-2.9-7.3-5.1-2.2-2.5-3.7-5.3-4.6-8.6-1.1-3.8-1.8-8-1.7-11.9,0-4,.6-8.3,1.7-12.2,1-3.3,2.5-6.2,4.6-8.8,1.9-2.4,4.4-4.3,7.3-5.5,3.1-1.3,6.3-2,9.6-1.9,4.9,0,8.8,1.1,12,3,3.2,2,5.6,5.3,7.5,9.7l-9.7,5.3c-.7-2.1-1.8-4-3.2-5.5-1.4-1.4-3.6-2-6.5-2s-6,1.1-8,3.4c-2.1,2.2-3.1,5.5-3.1,9.8v8.4c0,4.2,1.1,7.5,3.1,9.8,2,2.4,5,3.5,8,3.4,2.4,0,4.8-.7,6.6-2.4,1.6-1.6,3-3.4,3.7-5.6l9.4,5.5c-1.7,3.8-4.4,7.1-7.7,9.6-3.5,2.3-7.7,3.5-12,3.4Z"/>
        <g>
          <path class="cls-2" d="M333.5,75.6c-3.2,0-6.5-.6-9.5-1.8-2.8-1.1-5.3-3-7.3-5.3-2.1-2.6-3.6-5.5-4.6-8.8-1.1-3.9-1.8-8-1.7-12.2,0-4.1.6-8.3,1.7-12.2,1-3.3,2.6-6.2,4.6-8.8,1.9-2.4,4.4-4.1,7.3-5.2,3.1-1.2,6.2-1.8,9.5-1.8s6.5.6,9.5,1.8c2.8,1.1,5.3,3,7.3,5.3,2.1,2.6,3.6,5.5,4.6,8.8,1.1,3.9,1.8,8,1.7,12.2,0,4-.6,8.3-1.7,12.2-1,3.3-2.5,6.2-4.6,8.8-1.9,2.4-4.4,4.1-7.3,5.3-3.1,1.1-6.2,1.8-9.5,1.7ZM333.5,65.3c3.3,0,6.1-1.1,8-3.5,1.9-2.4,2.9-5.6,2.9-10.1v-8c0-4.3-1.1-7.6-2.9-10.1s-4.6-3.5-8-3.5-6.2,1.1-8,3.5c-1.9,2.4-2.9,5.6-2.9,10.1v8.2c0,4.3,1.1,7.6,2.9,10.1,1.9,2.2,4.4,3.4,8,3.4Z"/>
          <path class="cls-2" d="M366,20.8h25.3c4.4,0,7.7,1.3,10.2,3.7,2.5,2.5,3.6,5.8,3.6,10.1s-.2,3.6-.8,5.3c-.4,1.3-1.1,2.5-2,3.4-.9.9-1.9,1.6-3.1,2-1.2.4-2.5.7-3.7.8v.5c1.3,0,2.7.2,3.9.8,1.3.6,2.7,1.3,3.7,2.3,1.1,1.1,2.2,2.4,2.9,3.8.9,1.9,1.2,3.8,1.2,5.8s-.3,4-1.1,6c-.7,1.8-1.5,3.4-2.8,4.9-1.1,1.4-2.7,2.4-4.2,3.3-1.7.8-3.5,1.3-5.3,1.3h-27.5V20.8h-.5ZM377.3,42.9h11.3c2.4.2,4.5-1.5,4.8-3.9v-3.4c0-1.4-.4-2.7-1.1-3.6-1-.9-2.3-1.4-3.5-1.3h-11.3v12.2ZM377.3,64.8h13.1c1.3,0,2.6-.3,3.5-1.3s1.4-2.4,1.3-3.6v-2.7c0-1.4-.5-2.7-1.3-3.6-1-.9-2.3-1.4-3.5-1.3h-13.1v12.5Z"/>
          <path class="cls-2" d="M436.8,75.6c-3.2,0-6.5-.6-9.5-1.8-2.8-1.1-5.3-3-7.3-5.3-2.1-2.6-3.6-5.5-4.6-8.8-1.1-3.9-1.8-8-1.7-12.2,0-4.1.6-8.3,1.7-12.2,1-3.3,2.5-6.2,4.6-8.8,1.9-2.4,4.4-4.1,7.3-5.2,3.1-1.2,6.2-1.8,9.5-1.8s6.5.6,9.5,1.8c2.8,1.1,5.3,3,7.3,5.3,2.1,2.6,3.6,5.5,4.6,8.8,1.1,3.9,1.8,8,1.7,12.2,0,4-.6,8.3-1.7,12.2-1,3.3-2.5,6.2-4.6,8.8-1.9,2.4-4.4,4.1-7.3,5.3-3.1,1.2-6.2,1.8-9.5,1.7ZM436.8,65.3c3.4,0,6.2-1.1,8-3.5,1.9-2.4,2.9-5.6,2.9-10.1v-8c0-4.3-1.1-7.6-2.9-10.1-1.9-2.4-4.6-3.5-8-3.5s-6.1,1.1-8,3.5c-1.9,2.4-2.9,5.6-2.9,10.1v8.2c0,4.3,1.1,7.6,2.9,10.1,1.9,2.2,4.7,3.4,8,3.4Z"/>
          <path class="cls-2" d="M469.3,74.7V20.8h11.4v43.6h19.9v10.3h-31.2Z"/>
        </g>
      </g>
      <g>
        <path class="cls-2" d="M543.1,73.4V21.2h23.7c2.2-.1,4.4.3,6.4,1.1,1.9.7,3.5,1.9,4.8,3.4,1.4,1.5,2.4,3.3,3,5.3.7,2.2,1.1,4.4,1.1,6.8.1,2.3-.3,4.6-1.1,6.8-.7,2-1.7,3.7-3,5.3-1.4,1.5-3,2.6-4.8,3.4-2,.8-4.2,1.1-6.4,1.1h-12.9v18.9h-10.9.1ZM554.2,44.8h11.5c1.5.1,2.8-.3,3.9-1.3,1-1,1.5-2.5,1.4-3.8v-3.3c.1-1.4-.4-2.8-1.4-3.8-1.1-.9-2.5-1.4-3.9-1.3h-11.5v13.6Z"/>
        <path class="cls-2" d="M590.6,73.4V21.2h11.1v42.1h19.4v10.1h-30.5Z"/>
        <g>
          <path class="cls-2" d="M624.5,84.9l21.6-66.6h8.9l-21.6,66.6h-8.9Z"/>
          <path class="cls-2" d="M661.3,73.4v-9h6.5V30.4h-6.4v-9h24.1v9h-6.4v34.1h6.4v9h-24.2Z"/>
        </g>
      </g>
      <g>
        <path class="cls-6" d="M576.2,125.4v36.9c0,2.2-.3,4.5-1,6.5-.6,1.9-1.8,3.6-3.3,5-1.5,1.5-3.3,2.5-5.2,3.1-2.2.7-4.6,1.1-7,1.1-2.2,0-4.5-.3-6.6-1-1.8-.7-3.5-1.7-4.9-2.9-1.4-1.4-2.5-2.9-3.3-4.6-.9-1.9-1.5-4-1.8-6l10.1-2.1c.7,4.6,2.9,6.8,6.3,6.8s2.9-.5,4-1.6c1-1,1.7-2.7,1.7-4.9v-27.3h-15.3v-9h26.4Z"/>
        <path class="cls-6" d="M607.3,178.2c-3.1,0-6.3-.6-9.2-1.7-2.6-1.1-5.1-2.7-7-5-2-2.4-3.6-5.2-4.6-8.2-1-3.8-1.7-7.7-1.6-11.7,0-4,.5-7.9,1.6-11.8.9-3.1,2.4-6.1,4.6-8.6,1.9-2.2,4.3-4.1,7-5.2,2.9-1.3,6.1-1.9,9.2-1.8,4.7,0,8.6.9,11.6,2.9,3.2,2.2,5.9,5.5,7.3,9.2l-9.4,5.1c-.6-2-1.7-3.8-3.2-5.2-1.4-1.3-3.4-2-6.3-2s-5.9,1-7.7,3.3c-2,2.1-2.9,5.3-2.9,9.4v8.4c0,4.1.9,7.3,2.9,9.4,2,2.2,4.8,3.3,7.7,3.3,2.3.2,4.7-.7,6.4-2.2,1.6-1.6,2.7-3.4,3.6-5.5l9,5.4c-1.7,3.7-4.3,6.9-7.4,9.2-3.1,2.2-6.9,3.4-11.6,3.4Z"/>
        <path class="cls-6" d="M634,177.5v-52h11v41.9h19.2v10h-30.2Z"/>
      </g>
      <g>
        <path class="cls-1" d="M43.6,47.4l-1.7-5.9h-8.2l-1.7,5.9h-5.5l8.2-24.8h6.7l7.8,24.8h-5.6ZM37.9,27.5h-.2l-2.7,9.3h5.7l-2.8-9.3Z"/>
        <path class="cls-1" d="M53.1,22.6h9.3c1.5-.1,3,.2,4.5.9,1.3.5,2.5,1.3,3.4,2.3,1,1.1,1.7,2.5,2.1,3.9.5,1.7.9,3.5.9,5.4,0,1.8-.2,3.6-.9,5.4-.4,1.4-1.2,2.7-2.1,3.9-1,1.1-2.1,1.8-3.4,2.3-1.4.5-2.9.9-4.5.9h-9.3c0-.3,0-25,0-25ZM62.5,42.7c1.4,0,2.8-.4,3.8-1.4s1.4-2.3,1.4-4.4v-3.9c0-1.6-.3-3.1-1.4-4.4-1-1-2.4-1.4-3.8-1.4h-4v15.1h4v.4Z"/>
        <path class="cls-1" d="M83.1,47.4l-8-24.8h5.5l3.6,11.8,1.9,7.8h0l1.8-7.8,3.8-11.8h5.3l-8,24.8h-6Z"/>
        <g>
          <path class="cls-1" d="M114.4,47.4l-1.7-5.9h-8.2l-1.7,5.9h-5.5l8.2-24.8h6.7l8,24.8h-5.8ZM108.5,27.5h-.2l-2.7,9.3h5.7l-2.8-9.3Z"/>
          <path class="cls-1" d="M131.3,35.7l-2.4-4.9h0v16.7h-5v-24.9h5.9l6.8,11.7,2.4,4.9h.1v-16.5h5v24.7h-5.9l-6.8-11.7Z"/>
          <path class="cls-1" d="M160,47.8c-1.6,0-3.1-.3-4.6-.9-1.3-.5-2.5-1.3-3.4-2.4-1-1.2-1.7-2.5-2.1-4-.5-1.8-.9-3.6-.9-5.5-.1-1.8.2-3.8.9-5.5.4-1.5,1.2-2.9,2.1-4.1.9-1.1,2-1.9,3.4-2.5,1.5-.5,3-.9,4.6-.9,2-.1,4,.4,5.7,1.4,1.6,1.1,2.8,2.6,3.5,4.4l-4.7,2.4c-.2-1-.9-1.8-1.6-2.5-.9-.6-1.9-1-3-1s-2.8.5-3.9,1.6c-1.1,1.2-1.6,2.8-1.5,4.5v4.1c-.1,1.6.4,3.2,1.5,4.5,1,1.1,2.4,1.6,3.9,1.6,1.2,0,2.4-.3,3.2-1.1s1.4-1.6,1.7-2.6l4.4,2.6c-.9,1.7-2,3.2-3.6,4.4-1.7,1.1-3.7,1.7-5.6,1.5Z"/>
          <path class="cls-1" d="M173.4,47.4v-24.8h17v4.8h-11.5v4.9h9.8v4.8h-9.8v5.3h11.5v4.9h-17Z"/>
          <path class="cls-1" d="M195.3,22.6h9.3c1.5-.1,3,.2,4.5.9,1.3.5,2.5,1.3,3.4,2.3,1,1.1,1.7,2.5,2.1,3.9.5,1.7.9,3.5.9,5.4.1,1.8-.2,3.6-.9,5.4-.4,1.4-1.2,2.7-2.1,3.9-1,1.1-2.1,1.8-3.4,2.3-1.4.5-2.9.9-4.5.9h-9.3v-25ZM204.6,42.7c1.4,0,2.8-.4,3.8-1.4s1.4-2.3,1.4-4.4v-3.9c.1-1.6-.3-3.1-1.4-4.4-1-1-2.4-1.4-3.8-1.4h-4v15.1h4v.4Z"/>
        </g>
        <path class="cls-1" d="M28.4,85.8v-24.6h5.4v20h9.3v4.8h-14.7v-.2Z"/>
        <g>
          <path class="cls-1" d="M63.5,85.8l-1.7-5.8h-8.3l-1.7,5.8h-5.4l8.2-24.7h6.4l8,24.7h-5.5ZM57.6,66.1h-.2l-2.7,9.3h5.6l-2.7-9.3Z"/>
          <path class="cls-1" d="M80.4,74.2l-2.4-4.9h0v16.7h-5.2v-24.8h5.8l6.8,11.6,2.4,4.9h0v-16.5h5v24.7h-5.8l-6.7-11.7Z"/>
          <path class="cls-1" d="M114.7,82h-.2c-.2,1.3-.9,2.4-1.8,3.1-1.3.9-2.9,1.3-4.5,1.3s-2.7-.3-4-.9c-1.3-.5-2.4-1.4-3.2-2.4-1-1.2-1.7-2.5-2.1-4-1-3.6-1-7.4,0-11.1.5-1.5,1.3-2.9,2.3-4.1,1-1.1,2.3-1.9,3.5-2.5,1.5-.5,3-.9,4.6-.9s4,.4,5.7,1.5c1.6,1,3,2.5,3.8,4.3l-4.4,2.5c-.4-1-1-1.8-1.7-2.5-1-.8-2.1-1.1-3.3-1.1-1.5,0-2.9.4-4,1.5-1.1,1.3-1.6,2.9-1.5,4.6v4.2c0,1.6.4,3.3,1.5,4.6,1.1,1,2.5,1.5,4,1.5s1.3,0,1.8-.2c1.1-.2,2-1,2.6-1.8.2-.4.4-1,.4-1.6v-1.4h-4.6v-4.5h9.8v13.9h-4.6l-.2-4h0Z"/>
        </g>
        <path class="cls-1" d="M130.3,61.2v15.1c0,1.4.2,2.8,1.1,4,1.9,1.6,4.8,1.6,6.9,0,.8-1.2,1.2-2.6,1.1-4v-15.1h5.2v14.6c0,1.6-.2,3.1-.5,4.7-.3,1.2-.9,2.4-1.6,3.3-.9.9-1.8,1.5-3,1.8-2.9.9-6,.9-8.9,0-1.2-.3-2.1-1-3-1.8-.9-1-1.4-2.1-1.6-3.3-.3-1.5-.5-3.1-.5-4.7v-14.6h4.8Z"/>
        <path class="cls-1" d="M164.7,85.8l-1.7-5.8h-8.2l-1.7,5.8h-5.4l8.2-24.7h6.7l8,24.7h-5.9ZM158.8,66.1h-.2l-2.7,9.3h5.6l-2.7-9.3Z"/>
        <g>
          <path class="cls-1" d="M188.8,82h-.2c-.2,1.3-.9,2.4-1.8,3.1-1.3.9-2.9,1.3-4.5,1.3s-2.7-.3-4-.9c-1.3-.5-2.4-1.4-3.2-2.4-1-1.2-1.7-2.5-2.1-4-1-3.6-1-7.4.1-11.1.5-1.5,1.3-2.9,2.3-4.1,1-1.1,2.3-1.9,3.5-2.5,1.5-.5,3-.9,4.6-.9s4,.4,5.7,1.5c1.6,1,3,2.5,3.8,4.3l-4.4,2.5c-.4-1-1-1.8-1.7-2.5-1-.8-2.1-1.1-3.3-1.1-1.5,0-2.9.4-4,1.5-1.1,1.3-1.6,2.9-1.5,4.6v4.2c-.1,1.6.4,3.3,1.5,4.6,1.1,1,2.5,1.5,4,1.5s1.3,0,1.8-.2c1.1-.2,2-1,2.6-1.8.2-.4.4-1,.4-1.6v-1.4h-4.6v-4.5h9.8v13.9h-4.6v-4h-.2Z"/>
          <path class="cls-1" d="M199,85.8v-24.6h17v4.8h-11.5v4.9h9.8v4.8h-9.8v5.3h11.5v4.8h-17Z"/>
        </g>
        <g>
          <path class="cls-1" d="M38.6,129.7c-2.3,0-4.6-.3-6.7-1.4-1.7-.9-3.3-2-4.7-3.5l4.3-4.4c1.8,2.3,4.6,3.4,7.5,3.4,1.3,0,2.5-.2,3.5-1,.8-.6,1.2-1.6,1.2-2.6s-.2-1.5-.8-2c-.8-.8-1.7-1.1-2.8-1.2l-2.9-.4c-3.1-.4-5.5-1.4-7-2.9-1.5-1.6-2.3-3.8-2.1-6,0-1.3.2-2.5.8-3.6.5-1.1,1.3-2.1,2.1-2.9,1-.9,2.3-1.5,3.5-1.8,1.5-.4,3.1-.6,4.7-.6,2,0,4.1.3,5.9,1.1,1.7.6,3.1,1.7,4.4,3.1l-4.3,4.4c-.8-.9-1.6-1.5-2.6-1.9-1.2-.5-2.5-.9-3.9-.9-1.1,0-2.3,0-3.2.8-.6.4-1.1,1.3-1.1,2-.1.9.2,1.6.9,2.1.9.5,1.7.9,2.7,1l2.9.5c2.5.3,4.8,1.3,6.9,2.8,1.5,1.6,2.4,3.8,2.1,6,0,1.4-.2,2.7-.8,4-.5,1.2-1.3,2.3-2.3,3.1-1.1,1-2.3,1.6-3.6,1.9-1.4.6-3,.9-4.6.9Z"/>
          <path class="cls-1" d="M56,129.2v-29.9h20.4v5.7h-13.9v6h11.8v5.7h-11.8v6.4h13.8v5.7h-20.3v.4Z"/>
        </g>
        <path class="cls-1" d="M89.2,129.2h-6.4v-29.9h14.3c1.3,0,2.6.2,3.8.8,1.1.4,2,1.1,2.8,1.9.8.9,1.4,1.9,1.7,3,.4,1.3.6,2.6.6,3.9s-.4,3.6-1.4,5.3c-1,1.5-2.4,2.7-4.1,3.3l5.8,11.6h-7.2l-5.1-11h-4.7c0,0-.1,11.1-.1,11.1ZM96.2,112.8c.9,0,1.6-.2,2.3-.8.5-.5.9-1.4.9-2.1v-1.9c0-.9-.2-1.6-.9-2.1-.6-.5-1.5-.8-2.3-.8h-6.9v7.8h6.9Z"/>
        <g>
          <path class="cls-1" d="M117.9,129.2l-9.5-29.9h6.5l4.5,14.4,2.4,9.3h0l2.3-9.3,4.5-14.4h6.3l-9.7,29.9h-7.4Z"/>
          <path class="cls-1" d="M139.2,129.2v-29.9h20.4v5.7h-13.8v6h11.8v5.7h-11.8v6.4h13.8v5.7h-20.4v.4Z"/>
          <path class="cls-1" d="M172.1,129.2h-6.4v-29.9h14.2c1.3,0,2.6.2,3.8.8,1.1.4,2,1.1,2.8,1.9.8.9,1.4,1.9,1.7,3,.4,1.3.6,2.6.6,3.9s-.4,3.6-1.4,5.3c-1,1.5-2.4,2.7-4.1,3.3l5.8,11.6h-7.2l-5.2-10.9h-4.7v11h.1ZM178.9,112.8c.9,0,1.6-.2,2.3-.8.5-.5.9-1.4.9-2.1v-1.9c0-.9-.2-1.6-.9-2.1-.6-.5-1.5-.8-2.3-.8h-6.9v7.8h6.9Z"/>
          <path class="cls-1" d="M204.6,129.7c-2.3,0-4.6-.3-6.7-1.4-1.7-.9-3.3-2-4.7-3.5l4.3-4.4c1.8,2.3,4.6,3.4,7.5,3.4,1.3,0,2.5-.2,3.5-1,.8-.6,1.2-1.6,1.2-2.6s-.2-1.5-.8-2c-.8-.8-1.7-1.2-2.8-1.2l-2.9-.4c-3.1-.4-5.5-1.4-7-2.9-1.5-1.6-2.3-3.8-2.1-6,0-1.3.2-2.5.8-3.6.5-1.1,1.3-2.1,2.1-2.9,1-.9,2.3-1.5,3.5-1.8,1.5-.4,3.1-.6,4.7-.6,2,0,4.1.3,5.9,1.1,1.7.6,3.1,1.7,4.4,3.1l-4.3,4.4c-.8-.9-1.6-1.5-2.6-1.9-1.2-.5-2.5-.9-3.9-.9-1.1,0-2.3,0-3.2.8-.6.4-1.1,1.3-1.1,2-.1.9.2,1.6.9,2.1.9.5,1.7.9,2.7,1l2.9.5c2.5.3,4.8,1.3,6.9,2.8,1.5,1.6,2.4,3.8,2.1,6,0,1.4-.2,2.7-.8,4-.5,1.2-1.3,2.3-2.3,3.1-1.1,1-2.3,1.6-3.6,1.9-1.3.6-3,.9-4.6.9Z"/>
        </g>
      </g>
      <g>
        <path class="cls-2" d="M293.1,155.9h-19.4v21.6h-11v-52.4h11v20.8h19.4v-20.8h11v52.4h-11v-21.6Z"/>
        <path class="cls-2" d="M315.4,177.5v-52.4h11v42.3h19.4v10.1h-30.4Z"/>
        <path class="cls-2" d="M422.7,178.3c-4.4,0-8.2-.8-11.4-2.4-3-1.5-5.6-3.6-7.9-6.1l7.3-7.5c3.2,3.8,7.8,6,12.8,5.9,2.7,0,4.7-.6,6-1.7,2.3-2.1,2.7-5.5.9-8.1-.8-1-2.4-1.6-4.8-2l-5.1-.7c-5.3-.7-9.4-2.4-11.8-5-2.6-2.7-3.7-6.2-3.7-10.6,0-2.3.4-4.4,1.3-6.5.9-2,2.2-3.6,3.7-5,1.8-1.5,3.7-2.6,5.9-3.3,2.7-.8,5.3-1.2,8.1-1.2,3.5,0,6.9.6,10.1,1.9,2.9,1.2,5.4,3.2,7.5,5.5l-7.4,7.7c-1.2-1.5-2.7-2.7-4.4-3.6-2-1-4.3-1.5-6.5-1.4-2.5,0-4.3.4-5.5,1.4-1.2.8-1.9,2.3-1.8,3.7,0,1.8.5,3.1,1.4,3.8,1.4,1,3,1.5,4.6,1.7l5.1.9c5.3.9,9.2,2.6,11.6,5,2.5,2.5,3.7,6,3.7,10.5,0,2.4-.4,4.7-1.3,6.9-.9,2.1-2.2,3.9-3.7,5.4-1.8,1.6-3.9,2.8-6.3,3.4-2.7.9-5.5,1.2-8.4,1.2Z"/>
        <path class="cls-2" d="M386.7,177.5l-3.7-12.5h-16.9l-3.6,12.5h-11.2l16.7-52.4h13.7l16.5,52.4h-11.5ZM374.5,135.4h-.3l-5.6,19.9h11.7l-5.7-19.9Z"/>
        <path class="cls-2" d="M487.3,143h-.3l-3.7,7.6-9.8,18.5-9.6-18.4-3.9-8.3h-.2v35h-10.4v-52.4h11.8l12.4,24.5h.2l12.2-24.5h11.8v52.4h-10.4v-34.4h0Z"/>
      </g>
      <g>
        <path class="cls-2" d="M273.7,279h-11v-52.1h23.9c9.4,0,15.3,6.7,15.3,16.7s-3.1,12.6-9.2,15l9.9,20.5h-12.2l-8.9-19.1h-7.9v19.1h0ZM285.3,250.3c3.2,0,5.3-1.8,5.3-5.1v-3.3c0-3.4-2-5.1-5.3-5.1h-11.6v13.6h11.6Z"/>
        <path class="cls-2" d="M311.5,279v-52.1h34.4v10.1h-23.4v10.6h20.1v10.1h-20.1v11.3h23.4v10.1h-34.4Z"/>
        <path class="cls-2" d="M367.3,252l-15.5-25.2h12.8l9.8,17.6h.2l10-17.6h11.8l-15.6,25.4,16.4,26.7h-12.7l-10.9-19.2h-.2l-10.6,19.2h-11.8l16.1-26.9Z"/>
        <path class="cls-2" d="M416.1,252l-15.5-25.2h12.8l9.8,17.6h.2l10-17.6h11.8l-15.6,25.4,16.4,26.7h-12.7l-10.9-19.2h-.2l-10.6,19.2h-11.8l16.1-26.9Z"/>
      </g>
      <g>
        <path class="cls-2" d="M545.5,249.1v-22.3h10.6c4.2,0,6.8,2.9,6.8,7.1s-2.6,7.1-6.8,7.1h-5.7v8.1h-4.9ZM550.3,236.8h5.1c1.4,0,2.3-.8,2.3-2.2v-1.4c0-1.4-.9-2.2-2.3-2.2h-5.1v5.8Z"/>
        <path class="cls-2" d="M565.9,249.1v-16.8h4.7v3.6h.2c.4-1.9,1.7-3.6,4.3-3.6h.8v4.4h-1.2c-2.8,0-4.1.6-4.1,2.6v9.8h-4.7Z"/>
        <path class="cls-2" d="M577.6,240.7c0-5.3,2.8-8.8,7.9-8.8s7.8,4,7.8,8.6v1.4h-10.8v.3c0,2.2,1.2,3.6,3.7,3.6s3.1-.9,4.1-2l2.4,2.9c-1.5,1.7-4,2.8-7,2.8-5.2,0-8.1-3.4-8.1-8.8ZM582.5,238.9v.3h5.9v-.3c0-2-.9-3.4-2.8-3.4s-3.1,1.4-3.1,3.5Z"/>
        <path class="cls-2" d="M596.6,232.3h4.7v2.8h.2c.5-1.9,2.3-3.2,4.5-3.2,4.3,0,6.5,3.1,6.5,8.8s-2.2,8.8-6.5,8.8-4-1.4-4.5-3.2h-.2v9.2h-4.7v-23.2ZM607.6,242.2v-2.9c0-2.1-1.3-3.5-3.1-3.5s-3.1.9-3.1,2.5v5c0,1.5,1.3,2.5,3.1,2.5s3.1-1.4,3.1-3.5Z"/>
        <path class="cls-2" d="M616.1,249.1v-16.8h4.7v3.6h.2c.4-1.9,1.7-3.6,4.3-3.6h.8v4.4h-1.2c-2.8,0-4.1.6-4.1,2.6v9.8h-4.7Z"/>
        <path class="cls-2" d="M627.8,240.7c0-5.4,2.9-8.8,7.9-8.8s7.9,3.4,7.9,8.8-2.9,8.8-7.9,8.8-7.9-3.4-7.9-8.8ZM638.6,242.4v-3.4c0-2.1-1.1-3.3-2.9-3.3s-2.9,1.2-2.9,3.3v3.4c0,2.1,1.1,3.3,2.9,3.3s2.9-1.2,2.9-3.3Z"/>
        <path class="cls-2" d="M645.8,240.7c0-5.4,2.8-8.8,7.8-8.8s5.7,1.6,6.7,4.4l-3.8,1.7c-.3-1.3-1.2-2.3-2.9-2.3s-2.9,1.4-2.9,3.5v3.1c0,2.1,1,3.5,2.9,3.5s2.7-1.2,3.1-2.5l3.7,1.6c-1.1,3.2-3.5,4.6-6.8,4.6-5.1,0-7.8-3.4-7.8-8.8Z"/>
        <path class="cls-2" d="M662.2,240.7c0-5.3,2.8-8.8,7.9-8.8s7.8,4,7.8,8.6v1.4h-10.8v.3c0,2.2,1.2,3.6,3.7,3.6s3.1-.9,4.1-2l2.4,2.9c-1.5,1.7-4,2.8-7,2.8-5.2,0-8.1-3.4-8.1-8.8ZM667.1,238.9v.3h5.9v-.3c0-2-.9-3.4-2.8-3.4s-3.1,1.4-3.1,3.5Z"/>
        <path class="cls-2" d="M679.9,246.5l2.8-2.8c1.2,1.3,2.6,2.1,4.4,2.1s2.5-.6,2.5-1.6-.5-1.2-1.7-1.4l-1.8-.2c-3.8-.5-5.7-2.1-5.7-5.2s2.5-5.5,6.5-5.5,5.2,1,6.8,2.6l-2.7,2.8c-1.1-1.1-2.5-1.7-3.9-1.7s-2.2.6-2.2,1.4.4,1.4,1.8,1.6l1.9.3c3.6.5,5.5,2.1,5.5,5.1s-2.9,5.6-7.2,5.6-5.3-1.1-7.1-3Z"/>
        <path class="cls-2" d="M695.8,246.5l2.8-2.8c1.2,1.3,2.6,2.1,4.4,2.1s2.5-.6,2.5-1.6-.5-1.2-1.7-1.4l-1.8-.2c-3.8-.5-5.7-2.1-5.7-5.2s2.5-5.5,6.5-5.5,5.2,1,6.8,2.6l-2.7,2.8c-1.1-1.1-2.5-1.7-3.9-1.7s-2.2.6-2.2,1.4.4,1.4,1.8,1.6l1.9.3c3.6.5,5.5,2.1,5.5,5.1s-2.9,5.6-7.2,5.6-5.3-1.1-7.1-3Z"/>
        <path class="cls-2" d="M712.2,240.7c0-5.4,2.9-8.8,7.9-8.8s7.9,3.4,7.9,8.8-2.9,8.8-7.9,8.8-7.9-3.4-7.9-8.8ZM723.1,242.4v-3.4c0-2.1-1.1-3.3-2.9-3.3s-2.9,1.2-2.9,3.3v3.4c0,2.1,1.1,3.3,2.9,3.3s2.9-1.2,2.9-3.3Z"/>
        <path class="cls-2" d="M731.4,249.1v-16.8h4.7v3.6h.2c.4-1.9,1.7-3.6,4.3-3.6h.8v4.4h-1.2c-2.8,0-4.1.6-4.1,2.6v9.8h-4.7Z"/>
        <path class="cls-2" d="M544.2,275.9l3.2-3.2c1.5,1.7,3.4,2.6,5.6,2.6s3.5-1.1,3.5-2.7-.5-2.1-2.6-2.4l-2.2-.3c-4.7-.6-6.8-2.9-6.8-6.7s3.1-6.8,8.4-6.8,5.9,1.1,7.7,3.1l-3.2,3.3c-1.1-1.2-2.5-2.1-4.8-2.1s-3.2.8-3.2,2.2.8,2.1,2.7,2.4l2.2.4c4.6.7,6.8,2.8,6.8,6.6s-3.1,7.3-8.7,7.3-6.6-1.5-8.5-3.6Z"/>
        <path class="cls-2" d="M575.1,276.3h-.2c-.6,1.7-2,3.2-4.7,3.2s-5.2-2.4-5.2-6.6v-10.6h4.7v10.1c0,2,.7,3.2,2.4,3.2s3-.8,3-2.4v-10.9h4.7v16.8h-4.7v-2.8Z"/>
        <path class="cls-2" d="M584.2,262.3h4.7v2.8h.2c.5-1.9,2.3-3.2,4.5-3.2,4.3,0,6.5,3.1,6.5,8.8s-2.2,8.8-6.5,8.8-4-1.4-4.5-3.2h-.2v9.2h-4.7v-23.2ZM595.2,272.2v-2.9c0-2.1-1.3-3.5-3.1-3.5s-3.1.9-3.1,2.5v5c0,1.5,1.3,2.5,3.1,2.5s3.1-1.4,3.1-3.5Z"/>
        <path class="cls-2" d="M603.7,262.3h4.7v2.8h.2c.5-1.9,2.3-3.2,4.5-3.2,4.3,0,6.5,3.1,6.5,8.8s-2.2,8.8-6.5,8.8-4-1.4-4.5-3.2h-.2v9.2h-4.7v-23.2ZM614.6,272.2v-2.9c0-2.1-1.3-3.5-3.1-3.5s-3.1.9-3.1,2.5v5c0,1.5,1.3,2.5,3.1,2.5s3.1-1.4,3.1-3.5Z"/>
        <path class="cls-2" d="M622.1,270.7c0-5.4,2.9-8.8,7.9-8.8s7.9,3.4,7.9,8.8-2.9,8.8-7.9,8.8-7.9-3.4-7.9-8.8ZM632.9,272.4v-3.4c0-2.1-1.1-3.3-2.9-3.3s-2.9,1.2-2.9,3.3v3.4c0,2.1,1.1,3.3,2.9,3.3s2.9-1.2,2.9-3.3Z"/>
        <path class="cls-2" d="M641.2,279.1v-16.8h4.7v3.6h.2c.4-1.9,1.7-3.6,4.3-3.6h.8v4.4h-1.2c-2.8,0-4.1.6-4.1,2.6v9.8h-4.7Z"/>
        <path class="cls-2" d="M660.1,279.1c-3.3,0-5-1.7-5-4.9v-8.2h-2.4v-3.7h1.2c1.3,0,1.7-.6,1.7-1.8v-2.8h4.3v4.5h3.3v3.7h-3.3v9.4h3.1v3.7h-2.8Z"/>
      </g>
    </g>
  </g>
</svg>