<?xml version="1.0" encoding="utf-8"?>
<!-- Generator: Adobe Illustrator 25.2.0, SVG Export Plug-In . SVG Version: 6.00 Build 0)  -->
<svg version="1.1" id="Layer_1" xmlns="http://www.w3.org/2000/svg" xmlns:xlink="http://www.w3.org/1999/xlink" x="0px" y="0px"
	 viewBox="0 0 386.8 319.7" style="enable-background:new 0 0 386.8 319.7;" xml:space="preserve">
<style type="text/css">
	.st0{opacity:0;}
	.st1{fill:#0042CE;}
	.st2{fill:#001140;}
	.st3{fill:#76B4FF;}
	.st4{fill:#D1E2FF;}
	.st5{fill:none;stroke:#D1E2FF;stroke-width:2;stroke-miterlimit:10;}
</style>
<g id="Layer_2_1_">
	<g id="Layer_1-2">
		<g class="st0">
			<rect x="5" y="5" class="st1" width="376.8" height="309.7"/>
			<path class="st2" d="M376.8,10v299.7H10V10H376.8 M386.8,0H0v319.7h386.8V0z"/>
		</g>
		<path class="st3" d="M168.5,237.2v9.8c0,2.2,0.8,3.4,2.9,3.4s2.9-1.1,2.9-3.4v-9.8h3.4v9.5c0,4.7-1.7,6.9-6.3,6.9
			s-6.3-2.1-6.3-6.9v-9.5H168.5z"/>
		<path class="st3" d="M180,251.4l2-2c0.8,1,2,1.5,3.2,1.5c1.3,0,1.8-0.4,1.8-1.1s-0.4-0.9-1.2-1l-1.3-0.2c-2.7-0.4-4.1-1.5-4.1-3.7
			s1.8-3.9,4.6-3.9c1.8-0.2,3.7,0.5,4.9,1.9l-1.9,2c-0.7-0.8-1.7-1.2-2.8-1.2c-1.1,0-1.6,0.4-1.6,1s0.3,1,1.3,1.1l1.4,0.2
			c2.6,0.3,4,1.5,4,3.6c0,2.3-2.1,4-5.2,4C183.1,253.7,181.3,252.9,180,251.4z"/>
		<path class="st3" d="M192.2,238.3v-0.5c0-1,0.6-1.7,2-1.7s2,0.7,2,1.7v0.5c0,1-0.6,1.7-2,1.7S192.2,239.2,192.2,238.3z
			 M192.5,241.3h3.4v12h-3.4V241.3z"/>
		<path class="st3" d="M199.1,253.3v-12.1h3.4v2h0.1c0.5-1.4,1.9-2.3,3.4-2.2c2.5,0,3.8,1.8,3.8,4.8v7.6h-3.4V246
			c0-1.5-0.4-2.3-1.7-2.3s-2.2,0.6-2.2,1.8v7.8L199.1,253.3z"/>
		<path class="st3" d="M217.5,258.2c-4.2,0-5.7-1.1-5.7-2.8c0-1.2,0.9-2.3,2.2-2.3c0,0,0.1,0,0.1,0v-0.3c-1-0.1-1.8-1.1-1.8-2.1
			c0-1.3,1.1-1.9,2.2-2.1v-0.1c-1.4-0.6-2.2-2-2.2-3.4c0-2.4,1.7-4.1,5.2-4.1c0.7,0,1.4,0.1,2.1,0.2v-0.5c-0.1-0.9,0.5-1.7,1.4-1.8
			c0.1,0,0.3,0,0.5,0h1.9v2.5h-2.7v0.1c1.3,0.6,2.2,2,2.1,3.4c0,2.4-1.7,4-5.2,4c-0.7,0-1.4-0.1-2.1-0.2c-0.3,0.2-0.6,0.6-0.5,1
			c0,0.6,0.4,0.9,1.4,0.9h3.5c2.9,0,4.2,1.3,4.2,3.5C224,256.7,222.4,258.2,217.5,258.2z M218.9,253.6h-4.1
			c-0.3,0.3-0.4,0.7-0.4,1.1c0,0.9,0.7,1.3,2.5,1.3h1.4c1.8,0,2.5-0.4,2.5-1.3C220.8,253.9,220.3,253.6,218.9,253.6L218.9,253.6z
			 M219.5,245.1v-0.3c0-1.1-0.7-1.7-2-1.7s-2,0.6-2,1.7v0.3c0,1.1,0.7,1.7,2,1.7S219.5,246.2,219.5,245.1L219.5,245.1z"/>
		<path class="st3" d="M111.4,276.1c0-7.8,4-12.1,10.2-12.1c4.2,0,6.9,1.7,8.6,5.4l-4.3,2.2c-0.4-2-2.3-3.4-4.3-3.2
			c-2.9,0-4.9,2-4.9,5.6v3.7c0,3.6,2,5.6,4.9,5.6c2.1,0,4-1.4,4.6-3.4l4.1,2.4c-1.5,3.5-4.9,5.7-8.7,5.5
			C115.4,287.9,111.4,283.9,111.4,276.1z"/>
		<path class="st3" d="M132.4,276c0-7.8,4-11.9,10.1-11.9s10.1,4.1,10.1,11.9s-4,11.9-10.1,11.9S132.4,283.8,132.4,276z
			 M147.4,277.7v-3.4c0-3.7-1.8-5.7-4.8-5.7s-4.8,2.1-4.8,5.7v3.4c0,3.7,1.8,5.8,4.8,5.8S147.4,281.3,147.4,277.7L147.4,277.7z"/>
		<path class="st3" d="M156.9,264.4h8.7c6.1,0,10.1,3.9,10.1,11.5s-4,11.5-10.1,11.5h-8.7V264.4z M165.6,283c3,0,4.8-1.6,4.8-5.3
			v-3.6c0-3.7-1.9-5.3-4.8-5.3h-3.7V283H165.6z"/>
		<path class="st3" d="M179.9,287.5v-23h15.7v4.5h-10.7v4.7h9.1v4.4h-9.1v5h10.7v4.5L179.9,287.5z"/>
		<path class="st3" d="M199.9,287.5v-23h5V283h8.8v4.5L199.9,287.5z"/>
		<path class="st3" d="M217.4,287.5v-23h15.7v4.5h-10.7v4.7h9.1v4.4h-9.1v5h10.7v4.5L217.4,287.5z"/>
		<path class="st3" d="M244.5,276.6l-2.2-4.6h-0.1v15.5h-4.7v-23h5.5l6.3,10.9l2.2,4.6h0.1v-15.6h4.7v23h-5.5L244.5,276.6z"/>
		<path class="st3" d="M260.1,284.1l3.3-3.3c1.4,1.7,3.6,2.7,5.8,2.6c2.4,0,3.6-1.1,3.6-2.8c0-1.3-0.5-2.2-2.7-2.5l-2.3-0.3
			c-4.9-0.6-7.1-3-7.1-6.9c0-4.1,3.2-7,8.6-7c3-0.2,5.9,1,8,3.2l-3.3,3.4c-1.2-1.5-3-2.3-5-2.2c-2.2,0-3.3,0.9-3.3,2.2
			c0,1.6,0.8,2.2,2.7,2.5l2.3,0.4c4.7,0.8,7,2.9,7,6.8c0,4.4-3.2,7.5-9,7.5C265.5,288,262.3,286.6,260.1,284.1z"/>
		<path class="st4" d="M47.9,36.5h10.9c7.6,0,12.7,4.8,12.7,14.4s-5,14.4-12.7,14.4H47.9V36.5z M58.8,59.7c3.7,0,6-2,6-6.6v-4.5
			c0-4.6-2.3-6.6-6-6.6h-4.6v17.6H58.8z"/>
		<path class="st4" d="M77.5,65.3V36.5h19.6v5.6H83.8V48h11.4v5.5H83.8v6.2h13.3v5.6L77.5,65.3z"/>
		<path class="st4" d="M102.2,51.1c0-9.7,5-15.1,12.7-15.1c5.3,0,8.7,2.1,10.8,6.8l-5.4,2.8c-0.5-2.5-2.8-4.2-5.3-4
			c-3.7,0-6.1,2.5-6.1,7v4.6c0,4.5,2.4,7,6.1,7c3.1,0,4.9-1.9,5.7-4.3l5.1,3c-2.2,4.4-5.6,6.9-10.8,6.9
			C107.2,65.8,102.2,60.9,102.2,51.1z"/>
		<path class="st4" d="M131,65.3V36.5h6.3v23.2h11v5.6L131,65.3z"/>
		<path class="st4" d="M172.1,65.3l-2.1-6.8h-9.6l-2.1,6.8h-6.4l9.5-28.8h7.8l9.4,28.8H172.1z M165.3,42.2h-0.2L162,53.2h6.6
			L165.3,42.2z"/>
		<path class="st4" d="M189.7,65.3h-6.3V36.5h13.6c5.3,0,8.7,3.7,8.7,9.2c0,3.9-1.7,7-5.2,8.3l5.6,11.3h-7l-5-10.6h-4.5L189.7,65.3z
			 M196.3,49.5c1.5,0.2,2.8-0.9,3-2.3c0-0.2,0-0.3,0-0.5v-1.8c0.1-1.5-1-2.8-2.5-2.9c-0.2,0-0.3,0-0.5,0h-6.6v7.5L196.3,49.5z"/>
		<path class="st4" d="M229.8,65.3l-2.1-6.8h-9.6l-2.1,6.8h-6.4l9.5-28.8h7.8l9.4,28.8H229.8z M223,42.2h-0.2l-3.2,10.9h6.6
			L223,42.2z"/>
		<path class="st4" d="M250.5,42.1v23.2h-6.3V42.1h-7.8v-5.6h21.9v5.6H250.5z"/>
		<path class="st4" d="M262.1,65.3v-5h3.7V41.5h-3.7v-5h13.7v5h-3.7v18.8h3.7v5L262.1,65.3z"/>
		<path class="st4" d="M280.7,50.9c0-9.8,5-14.9,12.7-14.9S306,41.1,306,50.9s-5,14.9-12.6,14.9S280.7,60.7,280.7,50.9z M299.4,53.1
			v-4.3c0-4.6-2.3-7.2-6-7.2s-6,2.6-6,7.2v4.3c0,4.6,2.3,7.2,6,7.2S299.4,57.6,299.4,53.1L299.4,53.1z"/>
		<path class="st4" d="M320.9,51.7l-2.8-5.8H318v19.4h-5.9V36.5h6.9l7.9,13.6l2.8,5.8h0.1V36.5h5.9v28.8h-6.9L320.9,51.7z"/>
		<path class="st3" d="M50.9,97.3h-3.5V75.7h9.3c3.9,0,6.3,2.5,6.3,6.5c0,3.1-1.5,5.2-4.2,6l4.7,9.1h-3.9l-4.3-8.7h-4.3V97.3z
			 M56.5,85.6c1.4,0.2,2.6-0.8,2.8-2.2c0-0.2,0-0.4,0-0.5v-1.5c0.1-1.4-0.9-2.6-2.3-2.7c-0.2,0-0.3,0-0.5,0h-5.6v6.9H56.5z"/>
		<path class="st3" d="M78.9,97.3V75.7h13.9v3.1H82.4v6h9.4v3.1h-9.4v6.3h10.4v3.1L78.9,97.3z"/>
		<path class="st3" d="M108.4,97.3V75.7H122v3.1h-10v6h8.9v3.1H112v9.4L108.4,97.3z"/>
		<path class="st3" d="M137.3,97.3V75.7h13.9v3.1h-10.4v6h9.4v3.1h-9.4v6.3h10.4v3.1L137.3,97.3z"/>
		<path class="st3" d="M170.3,97.3h-3.5V75.7h9.3c3.9,0,6.3,2.5,6.3,6.5c0,3.1-1.5,5.2-4.2,6l4.7,9.1H179l-4.3-8.7h-4.3L170.3,97.3z
			 M175.9,85.6c1.4,0.2,2.6-0.8,2.8-2.2c0-0.2,0-0.4,0-0.5v-1.5c0.1-1.4-0.9-2.6-2.3-2.7c-0.2,0-0.3,0-0.5,0h-5.6v6.9H175.9z"/>
		<path class="st3" d="M198.3,97.3V75.7h13.9v3.1h-10.4v6h9.4v3.1h-9.4v6.3h10.4v3.1L198.3,97.3z"/>
		<path class="st3" d="M233.6,85.3l-2.4-4.6h-0.1v16.6h-3.4V75.7h3.9l7.1,12l2.4,4.6h0.1V75.7h3.4v21.6h-3.9L233.6,85.3z"/>
		<path class="st3" d="M260.1,86.5c0-7.3,3.5-11.2,9.1-11.2c3.4-0.2,6.5,1.7,7.8,4.9l-3,1.6c-0.6-2.1-2.6-3.5-4.8-3.4
			c-3.3,0-5.4,2.4-5.4,6.4v3.3c0,4,2,6.4,5.4,6.4c2.3,0.1,4.3-1.4,5-3.6l2.8,1.7c-1.3,3.1-4.4,5.1-7.8,5
			C263.6,97.7,260.1,93.7,260.1,86.5z"/>
		<path class="st3" d="M291.9,97.3V75.7h13.9v3.1h-10.4v6h9.4v3.1h-9.4v6.3h10.4v3.1L291.9,97.3z"/>
		<path class="st3" d="M320,94l2.4-2.3c1.3,1.8,3.4,2.8,5.7,2.8c2.8,0,4.2-1.4,4.2-3.4c0-1.7-0.9-2.6-3.4-3.1l-1.9-0.3
			c-4.2-0.8-6.3-2.7-6.3-6.2c0-3.8,3-6.2,7.6-6.2c2.8-0.2,5.6,1.1,7.3,3.3l-2.5,2.2c-1.2-1.6-3.1-2.5-5-2.4c-2.5,0-3.9,1-3.9,2.9
			s1.1,2.6,3.4,3l1.9,0.4c4.3,0.8,6.3,2.8,6.3,6.2c0,4-2.9,6.7-7.9,6.7C324.9,97.8,321.9,96.4,320,94z"/>
		<line class="st5" x1="47.3" y1="114.9" x2="334.3" y2="114.9"/>
		<path class="st3" d="M47.6,152.8v-21.6h3.5v18.5h8.8v3.1L47.6,152.8z"/>
		<path class="st3" d="M73.7,152.8V150h2.9v-16h-2.9v-2.9h9.4v2.9h-3v16h3v2.9L73.7,152.8z"/>
		<path class="st3" d="M97.3,149.5l2.4-2.3c1.3,1.8,3.4,2.8,5.7,2.8c2.8,0,4.2-1.4,4.2-3.4c0-1.7-0.9-2.6-3.4-3.1l-1.9-0.3
			c-4.2-0.8-6.3-2.7-6.3-6.2c0-3.8,3-6.2,7.6-6.2c2.8-0.1,5.6,1.1,7.3,3.3l-2.4,2.2c-1.2-1.6-3.1-2.5-5.1-2.4c-2.5,0-3.9,1-3.9,2.9
			s1.1,2.6,3.4,3l1.9,0.4c4.3,0.8,6.3,2.8,6.3,6.2c0,4-2.9,6.7-7.8,6.7C102.1,153.3,99.2,151.9,97.3,149.5z"/>
		<path class="st3" d="M132.4,134.3H126v-3.1h16.4v3.1h-6.4v18.5h-3.5L132.4,134.3z"/>
		<path class="st3" d="M180.1,157.1v-27.9h2.9v27.9H180.1z"/>
		<path class="st3" d="M232,149.5h-0.1c-0.4,2.1-2.5,3.7-5.8,3.7c-5.1,0-8.9-3.9-8.9-11.2s3.8-11.2,9.5-11.2
			c3.4-0.2,6.6,1.8,8.1,4.9l-2.9,1.7c-0.8-2.1-2.9-3.5-5.2-3.4c-3.4,0-5.7,2.3-5.7,6.3v3.5c0,4,2.3,6.3,5.7,6.3
			c2.7,0,5.1-1.4,5.1-4.1v-1.7h-4.5v-3h7.8v11.5H232V149.5z"/>
		<path class="st3" d="M250.2,142c0-7.3,3.7-11.2,9.3-11.2s9.3,3.9,9.3,11.2s-3.7,11.2-9.3,11.2S250.2,149.3,250.2,142z
			 M265.1,143.7v-3.4c0-3.9-2.2-6.4-5.6-6.4s-5.6,2.4-5.6,6.4v3.4c0,3.9,2.2,6.4,5.6,6.4S265.1,147.6,265.1,143.7L265.1,143.7z"/>
		<path class="st3" d="M293.8,134.3h-6.5v-3.1h16.4v3.1h-6.5v18.5h-3.5L293.8,134.3z"/>
		<path class="st3" d="M316.7,142c0-7.3,3.7-11.2,9.3-11.2s9.3,3.9,9.3,11.2s-3.7,11.2-9.3,11.2S316.7,149.3,316.7,142z
			 M331.6,143.7v-3.4c0-3.9-2.2-6.4-5.6-6.4s-5.6,2.4-5.6,6.4v3.4c0,3.9,2.2,6.4,5.6,6.4S331.6,147.6,331.6,143.7L331.6,143.7z"/>
		<path class="st4" d="M48.6,163.2h12.7c8.9,0,14.8,5.6,14.8,16.8s-5.9,16.8-14.8,16.8H48.6V163.2z M61.3,190.3c4.3,0,7-2.4,7-7.7
			v-5.2c0-5.4-2.7-7.7-7-7.7H56v20.6H61.3z"/>
		<path class="st4" d="M83.2,196.8v-33.7h22.9v6.5H90.5v6.9h13.3v6.4H90.5v7.3h15.6v6.5L83.2,196.8z"/>
		<path class="st4" d="M113.4,196.8v-33.7h22.3v6.5h-15v6.9h12.8v6.4h-12.8v13.8L113.4,196.8z"/>
		<path class="st4" d="M141.3,196.8V191h4.3v-22h-4.3v-5.8h16v5.8H153v22h4.3v5.8L141.3,196.8z"/>
		<path class="st4" d="M174.7,180.9l-3.2-6.8h-0.1v22.7h-6.9v-33.7h8l9.2,15.9l3.2,6.8h0.2v-22.7h6.9v33.7h-8L174.7,180.9z"/>
		<path class="st4" d="M199,196.8V191h4.3v-22H199v-5.8h16v5.8h-4.3v22h4.3v5.8L199,196.8z"/>
		<path class="st4" d="M235.9,169.7v27.1h-7.3v-27.1h-9.1v-6.5H245v6.5H235.9z"/>
		<path class="st4" d="M249.5,196.8V191h4.3v-22h-4.3v-5.8h16v5.8h-4.3v22h4.3v5.8L249.5,196.8z"/>
		<path class="st4" d="M271.3,180c0-11.4,5.9-17.4,14.8-17.4s14.8,6,14.8,17.4s-5.9,17.4-14.8,17.4S271.3,191.4,271.3,180z
			 M293.1,182.5v-5c0-5.4-2.6-8.4-7-8.4s-7,3-7,8.4v5c0,5.4,2.7,8.4,7,8.4S293.1,187.9,293.1,182.5z"/>
		<path class="st4" d="M318.2,180.9l-3.2-6.8h-0.1v22.7H308v-33.7h8l9.2,15.9l3.2,6.8h0.1v-22.7h6.9v33.7h-8L318.2,180.9z"/>
	</g>
</g>
</svg>
