<svg xmlns="http://www.w3.org/2000/svg" viewBox="0 0 386.82 319.71"><defs><style>.cls-1{opacity:0;}.cls-2{fill:#0042ce;}.cls-3{fill:#001140;}.cls-4{fill:#76b4ff;}.cls-5{fill:#d1e2ff;}.cls-6{fill:none;stroke:#d1e2ff;stroke-miterlimit:10;stroke-width:2px;}</style></defs><title>Asset 13</title><g id="Layer_2" data-name="Layer 2"><g id="Layer_1-2" data-name="Layer 1"><g class="cls-1"><rect class="cls-2" x="5" y="5" width="376.82" height="309.71"/><path class="cls-3" d="M376.82,10V309.71H10V10H376.82m10-10H0V319.71H386.82V0Z"/></g><path class="cls-4" d="M168.47,237.25v9.84c0,2.25.83,3.38,2.9,3.38s2.9-1.13,2.9-3.38v-9.84h3.4v9.47c0,4.74-1.7,6.85-6.3,6.85s-6.3-2.11-6.3-6.85v-9.47Z"/><path class="cls-4" d="M180,251.41l2-2a4.2,4.2,0,0,0,3.2,1.54c1.33,0,1.79-.44,1.79-1.15s-.37-.9-1.22-1l-1.31-.16c-2.74-.35-4.07-1.54-4.07-3.73S182.16,241,185,241a6.08,6.08,0,0,1,4.92,1.88l-1.95,2a4,4,0,0,0-2.79-1.25c-1.15,0-1.61.42-1.61,1s.28,1,1.27,1.12l1.36.19c2.62.34,4,1.54,4,3.63,0,2.32-2.07,4-5.17,4A6.3,6.3,0,0,1,180,251.41Z"/><path class="cls-4" d="M192.25,238.26v-.51c0-1,.6-1.68,2-1.68s2,.72,2,1.68v.51c0,1-.6,1.68-2,1.68S192.25,239.22,192.25,238.26Zm.28,3h3.4V253.3h-3.4Z"/><path class="cls-4" d="M199.11,253.3V241.23h3.4v2h.14A3.29,3.29,0,0,1,206,241c2.46,0,3.77,1.75,3.77,4.78v7.57h-3.41V246c0-1.54-.43-2.3-1.67-2.3s-2.19.57-2.19,1.77v7.82Z"/><path class="cls-4" d="M217.46,258.17c-4.19,0-5.73-1.06-5.73-2.8a2.24,2.24,0,0,1,2.26-2.3v-.26a2,2,0,0,1-1.75-2.11c0-1.27,1.13-1.91,2.25-2.14v-.09a3.57,3.57,0,0,1-2.16-3.45c0-2.44,1.7-4.07,5.17-4.07a8,8,0,0,1,2.05.23v-.46a1.61,1.61,0,0,1,1.82-1.82h1.91v2.53h-2.67v.14a3.58,3.58,0,0,1,2.07,3.45c0,2.41-1.68,4-5.18,4a8.53,8.53,0,0,1-2.13-.25,1.1,1.1,0,0,0-.53,1c0,.58.41.92,1.45.92h3.49c2.94,0,4.21,1.29,4.21,3.52C224,256.72,222.38,258.17,217.46,258.17Zm1.47-4.62h-4.14a1.55,1.55,0,0,0-.44,1.08c0,.88.69,1.29,2.53,1.29h1.38c1.84,0,2.53-.41,2.53-1.29C220.79,253.94,220.29,253.55,218.93,253.55Zm.58-8.42v-.27c0-1.06-.67-1.66-2-1.66s-2,.6-2,1.66v.27c0,1.06.67,1.66,2,1.66S219.51,246.19,219.51,245.13Z"/><path class="cls-4" d="M111.4,276.11c0-7.79,4-12.08,10.2-12.08,4.22,0,6.93,1.72,8.61,5.41l-4.32,2.25a4.08,4.08,0,0,0-4.29-3.2c-2.94,0-4.89,2-4.89,5.61v3.69c0,3.63,2,5.62,4.89,5.62a4.75,4.75,0,0,0,4.59-3.44l4.09,2.38a9,9,0,0,1-8.68,5.51C115.39,287.86,111.4,283.9,111.4,276.11Z"/><path class="cls-4" d="M132.45,276c0-7.83,4-11.92,10.14-11.92s10.13,4.09,10.13,11.92-4,11.91-10.13,11.91S132.45,283.77,132.45,276Zm15,1.71v-3.43c0-3.66-1.82-5.74-4.82-5.74s-4.82,2.08-4.82,5.74v3.43c0,3.67,1.81,5.75,4.82,5.75S147.41,281.33,147.41,277.66Z"/><path class="cls-4" d="M156.91,264.43h8.68c6.1,0,10.13,3.86,10.13,11.52s-4,11.51-10.13,11.51h-8.68ZM165.59,283c3,0,4.82-1.62,4.82-5.28v-3.57c0-3.66-1.85-5.28-4.82-5.28h-3.67V283Z"/><path class="cls-4" d="M179.91,287.46v-23h15.68v4.45H184.92v4.72h9.15V278h-9.15v5h10.67v4.45Z"/><path class="cls-4" d="M199.94,287.46v-23h5V283h8.77v4.45Z"/><path class="cls-4" d="M217.43,287.46v-23h15.68v4.45H222.44v4.72h9.15V278h-9.15v5h10.67v4.45Z"/><path class="cls-4" d="M244.49,276.57,242.28,272h-.1v15.51h-4.72v-23h5.48l6.3,10.89,2.21,4.62h.1V264.43h4.72v23h-5.48Z"/><path class="cls-4" d="M260.06,284.13l3.3-3.33a7.53,7.53,0,0,0,5.78,2.64c2.44,0,3.63-1.09,3.63-2.77,0-1.26-.53-2.18-2.67-2.48l-2.28-.3c-4.85-.62-7.06-3-7.06-6.86,0-4.13,3.23-7,8.64-7a10.25,10.25,0,0,1,8,3.24l-3.33,3.36a6,6,0,0,0-4.95-2.18c-2.25,0-3.34.86-3.34,2.25,0,1.58.83,2.18,2.74,2.47l2.28.37c4.72.76,7,2.87,7,6.83,0,4.42-3.24,7.49-9,7.49A11.2,11.2,0,0,1,260.06,284.13Z"/><path class="cls-5" d="M47.94,36.53H58.79c7.62,0,12.65,4.83,12.65,14.39s-5,14.39-12.65,14.39H47.94ZM58.79,59.74c3.71,0,6-2,6-6.59V48.69c0-4.57-2.31-6.59-6-6.59H54.21V59.74Z"/><path class="cls-5" d="M77.51,65.31V36.53H97.09V42.1H83.77V48H95.19v5.53H83.77v6.22H97.09v5.57Z"/><path class="cls-5" d="M102.25,51.13c0-9.73,5-15.09,12.74-15.09,5.27,0,8.65,2.14,10.76,6.76l-5.41,2.8a5.09,5.09,0,0,0-5.35-4c-3.67,0-6.11,2.48-6.11,7v4.62c0,4.53,2.44,7,6.11,7,3.09,0,4.86-1.94,5.73-4.29l5.11,3c-2.15,4.37-5.57,6.88-10.84,6.88C107.23,65.8,102.25,60.86,102.25,51.13Z"/><path class="cls-5" d="M131,65.31V36.53h6.26V59.74h11v5.57Z"/><path class="cls-5" d="M172.13,65.31l-2.06-6.84h-9.61l-2.06,6.84h-6.35l9.49-28.78h7.75l9.36,28.78Zm-6.8-23.09h-.21L162,53.15h6.6Z"/><path class="cls-5" d="M189.74,65.31h-6.27V36.53h13.65c5.32,0,8.7,3.71,8.7,9.2,0,3.87-1.73,7-5.24,8.28l5.65,11.3h-7l-5-10.56h-4.49Zm6.6-15.83a2.68,2.68,0,0,0,3-2.85V44.82a2.68,2.68,0,0,0-3-2.85h-6.6v7.51Z"/><path class="cls-5" d="M229.82,65.31l-2.07-6.84h-9.6l-2.06,6.84h-6.35l9.48-28.78H227l9.36,28.78ZM223,42.22h-.2l-3.18,10.93h6.6Z"/><path class="cls-5" d="M250.47,42.1V65.31h-6.26V42.1h-7.79V36.53h21.85V42.1Z"/><path class="cls-5" d="M262.1,65.31v-5h3.71V41.52H262.1v-5h13.69v5h-3.71v18.8h3.71v5Z"/><path class="cls-5" d="M280.74,50.92c0-9.77,5-14.88,12.66-14.88s12.65,5.11,12.65,14.88S301,65.8,293.4,65.8,280.74,60.69,280.74,50.92Zm18.68,2.14V48.78c0-4.58-2.27-7.18-6-7.18s-6,2.6-6,7.18v4.28c0,4.58,2.26,7.18,6,7.18S299.42,57.64,299.42,53.06Z"/><path class="cls-5" d="M320.9,51.7l-2.76-5.77H318V65.31h-5.89V36.53H319l7.88,13.61,2.76,5.77h.12V36.53h5.9V65.31h-6.85Z"/><path class="cls-4" d="M50.94,97.31H47.43V75.67h9.34c3.87,0,6.26,2.51,6.26,6.51,0,3.07-1.46,5.21-4.22,6l4.69,9.12H59.59l-4.34-8.74H50.94Zm5.58-11.69a2.51,2.51,0,0,0,2.82-2.7V81.43a2.51,2.51,0,0,0-2.82-2.69H50.94v6.88Z"/><path class="cls-4" d="M78.9,97.31V75.67H92.76v3.1H82.4v6h9.4v3.1H82.4v6.33H92.76v3.1Z"/><path class="cls-4" d="M108.44,97.31V75.67H122v3.1H112v6h8.89v3.1H112v9.43Z"/><path class="cls-4" d="M137.27,97.31V75.67h13.86v3.1H140.78v6h9.39v3.1h-9.39v6.33h10.35v3.1Z"/><path class="cls-4" d="M170.32,97.31h-3.5V75.67h9.33c3.87,0,6.26,2.51,6.26,6.51,0,3.07-1.46,5.21-4.22,6l4.69,9.12H179l-4.34-8.74h-4.31Zm5.58-11.69a2.51,2.51,0,0,0,2.82-2.7V81.43a2.51,2.51,0,0,0-2.82-2.69h-5.58v6.88Z"/><path class="cls-4" d="M198.28,97.31V75.67h13.86v3.1H201.78v6h9.4v3.1h-9.4v6.33h10.36v3.1Z"/><path class="cls-4" d="M233.65,85.34l-2.39-4.59h-.09V97.31h-3.35V75.67h3.91l7.07,12,2.39,4.58h.09V75.67h3.35V97.31h-3.91Z"/><path class="cls-4" d="M260.15,86.49c0-7.26,3.45-11.19,9.09-11.19A7.79,7.79,0,0,1,277,80.19L274,81.81a4.73,4.73,0,0,0-4.77-3.38c-3.32,0-5.36,2.42-5.36,6.41v3.29c0,4,2,6.42,5.36,6.42a5.08,5.08,0,0,0,5-3.6l2.82,1.71a8.14,8.14,0,0,1-7.81,5C263.6,97.68,260.15,93.74,260.15,86.49Z"/><path class="cls-4" d="M291.93,97.31V75.67h13.86v3.1H295.43v6h9.4v3.1h-9.4v6.33h10.36v3.1Z"/><path class="cls-4" d="M320.05,94l2.41-2.26a7,7,0,0,0,5.68,2.82c2.76,0,4.18-1.36,4.18-3.44,0-1.68-.86-2.64-3.38-3.13L327,87.67c-4.18-.78-6.32-2.73-6.32-6.17,0-3.85,3-6.2,7.56-6.2a8.73,8.73,0,0,1,7.32,3.31l-2.45,2.17a5.94,5.94,0,0,0-5.05-2.38c-2.48,0-3.91,1-3.91,2.91s1.12,2.57,3.44,3l1.92.4c4.31.84,6.27,2.76,6.27,6.2,0,4-2.89,6.73-7.85,6.73A9.54,9.54,0,0,1,320.05,94Z"/><line class="cls-6" x1="47.32" y1="114.92" x2="334.32" y2="114.92"/><path class="cls-4" d="M47.59,152.83V131.19H51.1v18.54h8.8v3.1Z"/><path class="cls-4" d="M73.73,152.83V150h2.94V134H73.73v-2.85h9.42V134h-3V150h3v2.85Z"/><path class="cls-4" d="M97.29,149.54l2.41-2.26a7,7,0,0,0,5.68,2.82c2.76,0,4.18-1.36,4.18-3.44,0-1.68-.86-2.64-3.38-3.13l-1.92-.34c-4.18-.78-6.32-2.73-6.32-6.18,0-3.84,3-6.2,7.56-6.2a8.75,8.75,0,0,1,7.32,3.32l-2.45,2.17a5.92,5.92,0,0,0-5.05-2.39c-2.48,0-3.91,1-3.91,2.92s1.12,2.57,3.44,3l1.92.4c4.31.84,6.27,2.76,6.27,6.2,0,4-2.89,6.73-7.85,6.73A9.53,9.53,0,0,1,97.29,149.54Z"/><path class="cls-4" d="M132.41,134.29H126v-3.1h16.4v3.1h-6.45v18.54h-3.5Z"/><path class="cls-4" d="M180.12,157.11V129.26H183v27.85Z"/><path class="cls-4" d="M232,149.54h-.12c-.43,2.08-2.54,3.66-5.83,3.66-5.15,0-8.93-3.94-8.93-11.19s3.78-11.2,9.46-11.2a8.42,8.42,0,0,1,8.06,4.87l-2.85,1.68a5.33,5.33,0,0,0-5.21-3.41c-3.41,0-5.71,2.32-5.71,6.29v3.53c0,4,2.3,6.3,5.71,6.3,2.73,0,5.11-1.4,5.11-4.09V144.3h-4.46v-3h7.84v11.54H232Z"/><path class="cls-4" d="M250.18,142c0-7.29,3.69-11.2,9.33-11.2s9.33,3.91,9.33,11.2-3.69,11.19-9.33,11.19S250.18,149.29,250.18,142Zm14.91,1.7V140.3c0-3.94-2.23-6.35-5.58-6.35s-5.58,2.41-5.58,6.35v3.41c0,3.94,2.23,6.36,5.58,6.36S265.09,147.65,265.09,143.71Z"/><path class="cls-4" d="M293.79,134.29h-6.45v-3.1h16.41v3.1H297.3v18.54h-3.51Z"/><path class="cls-4" d="M316.67,142c0-7.29,3.69-11.2,9.33-11.2s9.34,3.91,9.34,11.2S331.65,153.2,326,153.2,316.67,149.29,316.67,142Zm14.91,1.7V140.3c0-3.94-2.23-6.35-5.58-6.35s-5.58,2.41-5.58,6.35v3.41c0,3.94,2.23,6.36,5.58,6.36S331.58,147.65,331.58,143.71Z"/><path class="cls-5" d="M48.64,163.17H61.32c8.92,0,14.8,5.64,14.8,16.83s-5.88,16.83-14.8,16.83H48.64Zm12.68,27.15c4.34,0,7-2.36,7-7.72v-5.2c0-5.36-2.7-7.72-7-7.72H56v20.64Z"/><path class="cls-5" d="M83.21,196.83V163.17h22.9v6.51H90.54v6.9h13.35V183H90.54v7.28h15.57v6.51Z"/><path class="cls-5" d="M113.44,196.83V163.17h22.32v6.51h-15v6.9h12.78V183H120.76v13.79Z"/><path class="cls-5" d="M141.3,196.83V191h4.34V169H141.3v-5.84h16V169H153v22h4.34v5.84Z"/><path class="cls-5" d="M174.67,180.92l-3.23-6.75h-.15v22.66H164.4V163.17h8l9.21,15.91,3.23,6.75H185V163.17h6.9v33.66h-8Z"/><path class="cls-5" d="M199,196.83V191h4.34V169H199v-5.84h16V169h-4.34v22H215v5.84Z"/><path class="cls-5" d="M235.9,169.68v27.15h-7.33V169.68h-9.12v-6.51H245v6.51Z"/><path class="cls-5" d="M249.49,196.83V191h4.34V169h-4.34v-5.84h16V169h-4.34v22h4.34v5.84Z"/><path class="cls-5" d="M271.28,180c0-11.43,5.88-17.41,14.8-17.41s14.81,6,14.81,17.41-5.89,17.41-14.81,17.41S271.28,191.43,271.28,180Zm21.84,2.51v-5c0-5.35-2.65-8.39-7-8.39s-7,3-7,8.39v5c0,5.35,2.66,8.39,7,8.39S293.12,187.86,293.12,182.51Z"/><path class="cls-5" d="M318.24,180.92,315,174.17h-.15v22.66H308V163.17h8l9.21,15.91,3.23,6.75h.15V163.17h6.89v33.66h-8Z"/><rect class="cls-2" x="173.82" y="155.42" width="11" height="5"/></g></g></svg>