<?xml version="1.0" encoding="utf-8"?>
<!-- Generator: Adobe Illustrator 24.0.3, SVG Export Plug-In . SVG Version: 6.00 Build 0)  -->
<svg version="1.1" id="Layer_1" xmlns="http://www.w3.org/2000/svg" xmlns:xlink="http://www.w3.org/1999/xlink" x="0px" y="0px"
	 viewBox="0 0 768.8 319.7" style="enable-background:new 0 0 768.8 319.7;" xml:space="preserve">
<style type="text/css">
	.st0{opacity:0;}
	.st1{fill:#0042CE;}
	.st2{fill:#001140;}
	.st3{enable-background:new    ;}
	.st4{fill:#76B4FF;}
	.st5{fill:#D1E2FF;}
	.st6{fill:#A6C7FF;stroke:#A6C7FF;stroke-miterlimit:10;}
	.st7{fill:none;stroke:#C9DEFE;stroke-width:4;stroke-miterlimit:10;}
	.st8{fill:#C9DEFE;}
</style>
<title>Asset 20</title>
<g id="Layer_2_1_">
	<g id="Layer_1-2">
		<g class="st0">
			<rect x="5" y="5" class="st1" width="757.9" height="309.7"/>
			<path class="st2" d="M757.9,10v299.7H10V10H757.9 M767.9,0H0v319.7h767.9V0z"/>
		</g>
		<g class="st3">
			<path class="st4" d="M570.5,97.7v13.2c0,1.5,0.3,2.7,0.9,3.4c0.6,0.7,1.6,1.1,3,1.1c1.4,0,2.4-0.4,3-1.1c0.6-0.7,0.9-1.9,0.9-3.4
				V97.7h4.6v12.7c0,1.6-0.1,3-0.4,4.1c-0.3,1.2-0.8,2.1-1.5,2.9c-0.7,0.7-1.5,1.3-2.6,1.7c-1.1,0.4-2.4,0.5-3.9,0.5
				s-2.8-0.2-3.9-0.5c-1.1-0.4-1.9-0.9-2.6-1.7c-0.7-0.7-1.2-1.7-1.5-2.9c-0.3-1.2-0.4-2.5-0.4-4.1V97.7H570.5z"/>
			<path class="st4" d="M592.6,119.6c-1.6,0-2.9-0.3-3.9-0.8c-1.1-0.5-2-1.2-2.9-2.1l2.7-2.7c0.6,0.6,1.2,1.1,1.9,1.5
				c0.7,0.4,1.5,0.6,2.4,0.6c0.9,0,1.5-0.1,1.9-0.4c0.3-0.3,0.5-0.7,0.5-1.1c0-0.8-0.5-1.2-1.6-1.4l-1.8-0.2c-3.6-0.5-5.4-2.1-5.4-5
				c0-0.8,0.1-1.5,0.4-2.1c0.3-0.6,0.7-1.2,1.3-1.7c0.5-0.5,1.2-0.8,2-1.1c0.8-0.3,1.6-0.4,2.6-0.4c0.8,0,1.6,0.1,2.2,0.2
				c0.6,0.1,1.2,0.3,1.7,0.5c0.5,0.2,1,0.5,1.4,0.8c0.4,0.3,0.8,0.7,1.2,1.1l-2.6,2.7c-0.5-0.5-1.1-0.9-1.7-1.2
				c-0.6-0.3-1.3-0.4-2-0.4c-0.8,0-1.3,0.1-1.7,0.4c-0.3,0.2-0.5,0.6-0.5,1c0,0.4,0.1,0.8,0.4,1c0.2,0.2,0.7,0.4,1.3,0.5l1.8,0.2
				c3.5,0.5,5.3,2.1,5.3,4.9c0,0.8-0.2,1.5-0.5,2.2c-0.3,0.7-0.8,1.2-1.4,1.7c-0.6,0.5-1.3,0.9-2.2,1.1
				C594.6,119.5,593.7,119.6,592.6,119.6z"/>
			<path class="st4" d="M604.9,101.3c-0.9,0-1.6-0.2-2-0.6c-0.4-0.4-0.6-1-0.6-1.6v-0.7c0-0.7,0.2-1.2,0.6-1.6
				c0.4-0.4,1.1-0.6,2-0.6c0.9,0,1.6,0.2,2,0.6s0.6,1,0.6,1.6v0.7c0,0.7-0.2,1.2-0.6,1.6C606.5,101.1,605.9,101.3,604.9,101.3z
				 M602.7,103.1h4.6v16.2h-4.6V103.1z"/>
			<path class="st4" d="M611.5,119.2v-16.2h4.6v2.7h0.2c0.3-0.8,0.8-1.6,1.5-2.2c0.7-0.6,1.7-0.9,3-0.9c1.7,0,2.9,0.6,3.8,1.7
				c0.9,1.1,1.3,2.7,1.3,4.7v10.1h-4.6v-9.8c0-1-0.2-1.8-0.5-2.3s-0.9-0.8-1.8-0.8c-0.4,0-0.7,0-1.1,0.1c-0.3,0.1-0.7,0.2-0.9,0.4
				s-0.5,0.5-0.7,0.8s-0.2,0.6-0.2,1v10.5H611.5z"/>
			<path class="st4" d="M644.8,120.4c0,0.9-0.1,1.6-0.4,2.3c-0.3,0.7-0.8,1.2-1.5,1.7c-0.7,0.5-1.6,0.8-2.7,1
				c-1.1,0.2-2.5,0.4-4.1,0.4c-1.4,0-2.6-0.1-3.6-0.3c-1-0.2-1.8-0.4-2.4-0.7c-0.6-0.3-1-0.7-1.3-1.2c-0.3-0.5-0.4-1-0.4-1.6
				c0-0.9,0.3-1.6,0.8-2.1c0.5-0.5,1.3-0.8,2.2-1v-0.3c-0.8-0.1-1.4-0.5-1.8-1c-0.4-0.5-0.6-1.1-0.6-1.8c0-0.4,0.1-0.8,0.3-1.1
				c0.2-0.3,0.4-0.6,0.7-0.8s0.6-0.4,1-0.6s0.7-0.3,1.1-0.3v-0.1c-1-0.5-1.7-1.1-2.2-1.9c-0.5-0.8-0.7-1.7-0.7-2.8
				c0-1.6,0.6-3,1.7-4c1.1-1,2.9-1.5,5.2-1.5c1.1,0,2,0.1,2.7,0.3v-0.6c0-0.9,0.2-1.5,0.6-1.9c0.4-0.4,1-0.6,1.8-0.6h2.6v3.4h-3.6
				v0.2c0.9,0.5,1.6,1.1,2.1,1.9c0.5,0.8,0.7,1.7,0.7,2.8c0,1.6-0.6,2.9-1.7,3.9c-1.1,1-2.9,1.5-5.2,1.5c-1,0-2-0.1-2.9-0.3
				c-0.5,0.3-0.7,0.7-0.7,1.3c0,0.4,0.1,0.7,0.4,0.9c0.3,0.2,0.8,0.3,1.5,0.3h4.7c2,0,3.4,0.4,4.3,1.2
				C644.3,117.7,644.8,118.9,644.8,120.4z M640.5,121c0-0.5-0.2-0.8-0.6-1.1s-1-0.4-1.9-0.4h-5.5c-0.2,0.2-0.4,0.4-0.4,0.7
				c-0.1,0.3-0.1,0.5-0.1,0.8c0,0.6,0.3,1,0.8,1.3c0.5,0.3,1.4,0.4,2.6,0.4h1.8c1.2,0,2.1-0.1,2.6-0.4
				C640.2,122,640.5,121.6,640.5,121z M636.1,110.5c0.9,0,1.6-0.2,2-0.6c0.4-0.4,0.7-0.9,0.7-1.6v-0.4c0-0.7-0.2-1.3-0.7-1.6
				c-0.4-0.4-1.1-0.6-2-0.6s-1.6,0.2-2,0.6c-0.4,0.4-0.7,0.9-0.7,1.6v0.4c0,0.7,0.2,1.3,0.7,1.6
				C634.5,110.3,635.2,110.5,636.1,110.5z"/>
		</g>
		<g class="st3">
			<path class="st5" d="M462.6,177c-3,0-5.8-0.5-8.2-1.4c-2.4-1-4.5-2.4-6.2-4.3c-1.7-1.9-3-4.3-4-7.1c-0.9-2.8-1.4-6.2-1.4-10
				c0-3.8,0.5-7.1,1.4-10c0.9-2.9,2.3-5.4,4-7.4c1.7-2,3.8-3.5,6.2-4.5c2.4-1,5.2-1.5,8.2-1.5c4.1,0,7.6,0.8,10.2,2.5
				c2.7,1.7,4.8,4.3,6.5,8l-8.4,4.4c-0.6-1.9-1.5-3.4-2.8-4.5c-1.3-1.1-3.1-1.7-5.5-1.7c-2.9,0-5.2,0.9-6.9,2.8
				c-1.7,1.9-2.6,4.6-2.6,8.1v7.2c0,3.5,0.9,6.2,2.6,8.1c1.7,1.9,4,2.8,6.9,2.8c2.4,0,4.3-0.7,5.7-2c1.4-1.3,2.5-2.9,3.2-4.7
				l7.9,4.6c-1.7,3.4-3.9,6.1-6.6,7.9C470.2,176.1,466.7,177,462.6,177z"/>
		</g>
		<g class="st3">
			<path class="st5" d="M503.3,177c-2.9,0-5.6-0.5-8.1-1.5c-2.4-1-4.5-2.4-6.2-4.4s-3-4.4-4-7.2s-1.4-6.2-1.4-10s0.5-7.1,1.4-10
				s2.3-5.3,4-7.2c1.7-1.9,3.8-3.4,6.2-4.4c2.4-1,5.1-1.5,8.1-1.5s5.6,0.5,8.1,1.5s4.5,2.4,6.2,4.4c1.7,1.9,3,4.4,4,7.2
				c0.9,2.9,1.4,6.2,1.4,10s-0.5,7.1-1.4,10c-0.9,2.9-2.3,5.3-4,7.2c-1.7,1.9-3.8,3.4-6.2,4.4C509,176.5,506.3,177,503.3,177z
				 M503.3,168.4c2.9,0,5.2-1,6.9-2.9c1.6-1.9,2.5-4.7,2.5-8.3v-6.7c0-3.6-0.8-6.3-2.5-8.3c-1.6-1.9-3.9-2.9-6.9-2.9s-5.2,1-6.9,2.9
				c-1.6,1.9-2.5,4.7-2.5,8.3v6.7c0,3.6,0.8,6.3,2.5,8.3S500.4,168.4,503.3,168.4z"/>
			<path class="st5" d="M531.1,131.6H548c2.9,0,5.6,0.5,8.1,1.4c2.4,0.9,4.5,2.3,6.2,4.2c1.7,1.9,3,4.2,4,7c0.9,2.8,1.4,6.1,1.4,9.8
				c0,3.7-0.5,7-1.4,9.8c-0.9,2.8-2.3,5.1-4,7c-1.7,1.9-3.8,3.3-6.2,4.2c-2.4,0.9-5.1,1.4-8.1,1.4h-16.8V131.6z M548,167.6
				c2.9,0,5.2-0.8,6.9-2.4c1.7-1.6,2.5-4.2,2.5-7.8v-6.9c0-3.6-0.8-6.2-2.5-7.8c-1.7-1.6-4-2.4-6.9-2.4h-7.1v27.4H548z"/>
			<path class="st5" d="M575.8,176.3v-44.7h30.4v8.6h-20.7v9.1h17.7v8.6h-17.7v9.7h20.7v8.6H575.8z"/>
			<path class="st5" d="M614.6,176.3v-44.7h9.7v36.1h17v8.6H614.6z"/>
			<path class="st5" d="M648.6,176.3v-44.7H679v8.6h-20.7v9.1H676v8.6h-17.7v9.7H679v8.6H648.6z"/>
			<path class="st5" d="M701.1,155.1l-4.3-9h-0.2v30.1h-9.2v-44.7h10.6l12.2,21.1l4.3,9h0.2v-30.1h9.2v44.7h-10.6L701.1,155.1z"/>
			<path class="st5" d="M748.3,177c-3.9,0-7.3-0.7-10-2c-2.7-1.3-5.1-3.1-7-5.2l6.4-6.5c3,3.4,6.8,5.1,11.2,5.1
				c2.4,0,4.2-0.5,5.3-1.5c1.2-1,1.7-2.3,1.7-3.9c0-1.2-0.3-2.3-1-3.1c-0.7-0.8-2.1-1.4-4.2-1.7l-4.4-0.6c-4.7-0.6-8.2-2-10.4-4.3
				s-3.3-5.3-3.3-9c0-2,0.4-3.8,1.2-5.5c0.8-1.7,1.9-3.1,3.3-4.3c1.4-1.2,3.2-2.1,5.3-2.8c2.1-0.7,4.4-1,7.1-1
				c3.4,0,6.3,0.5,8.9,1.6c2.6,1.1,4.8,2.6,6.6,4.7l-6.5,6.5c-1.1-1.2-2.4-2.2-3.9-3c-1.5-0.8-3.4-1.2-5.7-1.2
				c-2.2,0-3.8,0.4-4.9,1.1c-1.1,0.8-1.6,1.8-1.6,3.2c0,1.5,0.4,2.6,1.2,3.3c0.8,0.7,2.2,1.2,4.1,1.5l4.4,0.7
				c4.6,0.7,8,2.1,10.2,4.3c2.2,2.1,3.3,5.1,3.3,9c0,2.1-0.4,4.1-1.2,5.9c-0.8,1.8-1.9,3.3-3.4,4.6c-1.5,1.3-3.3,2.3-5.5,3
				C753.5,176.7,751,177,748.3,177z"/>
		</g>
		<path class="st6" d="M1,45.7h13.8c9.7,0,16.2,6.2,16.2,18.4s-6.4,18.4-16.2,18.4H1V45.7z M14.8,75.4c4.7,0,7.7-2.6,7.7-8.4v-5.7
			c0-5.8-3-8.4-7.7-8.4H9v22.6H14.8z"/>
		<path class="st6" d="M38.8,82.5V45.7h25v7.1h-17v7.5h14.6v7.1H46.8v8h17v7.1L38.8,82.5z"/>
		<path class="st6" d="M70.4,64.4c0-12.4,6.4-19.3,16.3-19.3c6.8,0,11.1,2.7,13.8,8.6l-6.9,3.6c-0.9-3.1-2.9-5.1-6.8-5.1
			c-4.7,0-7.8,3.2-7.8,9v5.9c0,5.8,3.1,9,7.8,9c4,0,6.2-2.5,7.3-5.5l6.5,3.8c-2.7,5.6-7.1,8.8-13.9,8.8
			C76.7,83.1,70.4,76.8,70.4,64.4z"/>
		<path class="st6" d="M107.1,82.5V45.7h8v29.7h14v7.1H107.1z"/>
		<path class="st6" d="M159.7,82.5l-2.7-8.7h-12.2l-2.6,8.7H134l12.1-36.8h9.9l12,36.8L159.7,82.5z M151,53h-0.3l-4.1,14h8.4L151,53
			z"/>
		<path class="st6" d="M182.2,82.5h-8V45.7h17.4c6.8,0,11.1,4.8,11.1,11.8c0,5-2.2,8.9-6.7,10.6l7.2,14.4h-8.9L187.9,69h-5.7V82.5z
			 M190.6,62.3c2.4,0,3.9-1.3,3.9-3.6v-2.3c0-2.4-1.5-3.6-3.9-3.6h-8.4v9.6H190.6z"/>
		<path class="st6" d="M233.4,82.5l-2.6-8.7h-12.3l-2.6,8.7h-8.1l12.1-36.8h9.9l12,36.8H233.4z M224.7,53h-0.3l-4.1,14h8.4L224.7,53
			z"/>
		<path class="st6" d="M259.8,52.8v29.7h-8V52.8h-10v-7.1h27.9v7.1H259.8z"/>
		<path class="st6" d="M274.6,82.5v-6.4h4.7v-24h-4.7v-6.4h17.5v6.4h-4.7v24h4.7v6.4L274.6,82.5z"/>
		<path class="st6" d="M298.5,64.1c0-12.5,6.4-19,16.2-19s16.2,6.5,16.2,19s-6.4,19-16.2,19S298.5,76.6,298.5,64.1z M322.3,66.9
			v-5.5c0-5.8-2.9-9.2-7.7-9.2s-7.7,3.3-7.7,9.2v5.5c0,5.8,2.9,9.2,7.7,9.2S322.3,72.7,322.3,66.9z"/>
		<path class="st6" d="M349.8,65.1l-3.5-7.4h-0.2v24.8h-7.5V45.7h8.8l10.1,17.4l3.5,7.4h0.1V45.7h7.5v36.8h-8.8L349.8,65.1z"/>
		<path class="st4" d="M4.8,125.4H0.3V97.8h11.9c5,0,8,3.2,8,8.3c0,3.9-1.9,6.7-5.4,7.7l6,11.6h-5l-5.6-11.2H4.8V125.4z M11.9,110.5
			c2.3,0,3.6-1.2,3.6-3.4v-1.9c0-2.2-1.4-3.4-3.6-3.4H4.8v8.8H11.9z"/>
		<path class="st4" d="M40.5,125.4V97.8h17.7v4H45v7.7h12v4H45v8.1h13.2v4L40.5,125.4z"/>
		<path class="st4" d="M78.3,125.4V97.8h17.3v4H82.8v7.7h11.4v4H82.8v12L78.3,125.4z"/>
		<path class="st4" d="M115.1,125.4V97.8h17.7v4h-13.2v7.7h12v4h-12v8.1h13.2v4L115.1,125.4z"/>
		<path class="st4" d="M157.4,125.4h-4.5V97.8h11.9c4.9,0,8,3.2,8,8.3c0,3.9-1.9,6.7-5.4,7.7l6,11.6h-5l-5.5-11.2h-5.5L157.4,125.4z
			 M164.5,110.5c2.3,0,3.6-1.2,3.6-3.4v-1.9c0-2.2-1.3-3.4-3.6-3.4h-7.1v8.8H164.5z"/>
		<path class="st4" d="M193.1,125.4V97.8h17.7v4h-13.2v7.7h12v4h-12v8.1h13.2v4L193.1,125.4z"/>
		<path class="st4" d="M238.3,110.1l-3.1-5.9h-0.1v21.2h-4.3V97.8h5l9,15.3l3,5.9h0.2V97.8h4.3v27.6h-5L238.3,110.1z"/>
		<path class="st4" d="M272.1,111.6c0-9.3,4.4-14.3,11.6-14.3c4.8,0,8,2.1,9.9,6.3l-3.8,2.1c-0.8-2.7-3.3-4.5-6.1-4.3
			c-4.2,0-6.9,3.1-6.9,8.2v4.2c0,5.1,2.6,8.2,6.9,8.2c2.9,0.1,5.5-1.8,6.4-4.6l3.6,2.2c-1.7,4-5.7,6.6-10,6.4
			C276.5,125.9,272.1,120.8,272.1,111.6z"/>
		<path class="st4" d="M312.8,125.4V97.8h17.7v4h-13.2v7.7h12v4h-12v8.1h13.2v4L312.8,125.4z"/>
		<path class="st4" d="M348.7,121.2l3.1-2.9c1.7,2.3,4.4,3.6,7.2,3.6c3.5,0,5.4-1.7,5.4-4.4c0-2.1-1.1-3.4-4.3-4l-2.5-0.4
			c-5.4-1-8.1-3.5-8.1-7.9c0-4.9,3.8-7.9,9.7-7.9c3.6-0.2,7.1,1.4,9.3,4.2l-3.1,2.8c-1.5-2-3.9-3.2-6.5-3.1c-3.2,0-5,1.3-5,3.7
			s1.4,3.3,4.4,3.9l2.5,0.5c5.5,1.1,8,3.5,8,7.9c0,5.2-3.7,8.6-10,8.6C354.9,126,351.1,124.3,348.7,121.2z"/>
		<line class="st7" x1="0.2" y1="154.9" x2="397.5" y2="154.9"/>
		<polygon class="st8" points="394.6,164.9 411.8,154.9 394.6,144.9 		"/>
		<path class="st4" d="M0.5,215.4v-27.7H5v23.7h11.2v4L0.5,215.4z"/>
		<path class="st4" d="M33.9,215.4v-3.6h3.8v-20.4h-3.8v-3.7H46v3.6h-3.8v20.4H46v3.6L33.9,215.4z"/>
		<path class="st4" d="M64,211.1l3.1-2.9c1.7,2.3,4.4,3.6,7.2,3.6c3.5,0,5.3-1.8,5.3-4.4c0-2.1-1.1-3.4-4.3-4l-2.4-0.5
			c-5.3-1-8.1-3.5-8.1-7.9c0-4.9,3.8-7.9,9.7-7.9c4.2,0,7.2,1.5,9.3,4.2l-3.1,2.8c-1.5-2-3.9-3.2-6.5-3.1c-3.2,0-5,1.3-5,3.7
			s1.4,3.3,4.4,3.9l2.4,0.5c5.5,1.1,8,3.5,8,7.9c0,5.1-3.7,8.6-10,8.6C70.2,216,66.4,214.2,64,211.1z"/>
		<path class="st4" d="M108.9,191.7h-8.2v-4h21v4h-8.2v23.7H109L108.9,191.7z"/>
		<path class="st4" d="M169.9,216.8v-31.6h3.7v31.6H169.9z"/>
		<path class="st4" d="M251.2,211.1h-0.2c-0.6,2.7-3.2,4.7-7.4,4.7c-6.6,0-11.4-5-11.4-14.3s4.8-14.3,12.1-14.3
			c4.4-0.2,8.5,2.2,10.3,6.2l-3.6,2.1c-1.1-2.7-3.7-4.5-6.7-4.4c-4.4,0-7.3,3-7.3,8v4.5c0,5.1,2.9,8,7.3,8c3.5,0,6.5-1.8,6.5-5.2
			v-2.1h-5.7v-3.8h10v14.7h-3.9L251.2,211.1z"/>
		<path class="st4" d="M273.4,201.5c0-9.3,4.7-14.3,11.9-14.3s11.9,5,11.9,14.3s-4.7,14.3-11.9,14.3S273.4,210.8,273.4,201.5z
			 M292.5,203.7v-4.4c0-5-2.9-8.1-7.1-8.1s-7.1,3.1-7.1,8.1v4.4c0,5,2.9,8.1,7.1,8.1S292.5,208.7,292.5,203.7L292.5,203.7z"/>
		<path class="st4" d="M319.1,191.7h-8.2v-4h21v4h-8.2v23.7h-4.5L319.1,191.7z"/>
		<path class="st4" d="M344.4,201.5c0-9.3,4.7-14.3,11.9-14.3s11.9,5,11.9,14.3s-4.7,14.3-11.9,14.3S344.4,210.8,344.4,201.5z
			 M363.4,203.7v-4.4c0-5-2.9-8.1-7.1-8.1s-7.1,3.1-7.1,8.1v4.4c0,5,2.9,8.1,7.1,8.1S363.4,208.7,363.4,203.7L363.4,203.7z"/>
		<path class="st6" d="M0.5,229.6h16.2c11.4,0,18.9,7.2,18.9,21.5c0,14.3-7.5,21.5-18.9,21.5H0.5V229.6z M16.7,264.3
			c5.5,0,9-3,9-9.9v-6.6c0-6.8-3.5-9.9-9-9.9H9.9v26.4H16.7z"/>
		<path class="st6" d="M44.7,272.6v-43H74v8.3H54.1v8.8h17.1v8.3H54.1v9.3H74v8.3L44.7,272.6z"/>
		<path class="st6" d="M83.3,272.6v-43h28.5v8.3H92.7v8.8H109v8.3H92.7v17.6L83.3,272.6z"/>
		<path class="st6" d="M120.3,272.6v-7.5h5.6V237h-5.6v-7.5h20.5v7.5h-5.6v28.1h5.6v7.5L120.3,272.6z"/>
		<path class="st6" d="M162.9,252.2l-4.1-8.6h-0.2v29h-8.8v-43H160l11.8,20.3l4.1,8.6h0.2v-29h8.8v43h-10.2L162.9,252.2z"/>
		<path class="st6" d="M194,272.6v-7.5h5.5V237H194v-7.5h20.4v7.5h-5.5v28.1h5.5v7.5L194,272.6z"/>
		<path class="st6" d="M241.1,237.9v34.7h-9.4v-34.7h-11.6v-8.3h32.7v8.3L241.1,237.9z"/>
		<path class="st6" d="M258.5,272.6v-7.5h5.5V237h-5.5v-7.5H279v7.5h-5.5v28.1h5.5v7.5L258.5,272.6z"/>
		<path class="st6" d="M286.4,251.1c0-14.6,7.5-22.2,18.9-22.2s18.9,7.6,18.9,22.2s-7.5,22.2-18.9,22.2S286.4,265.7,286.4,251.1z
			 M314.3,254.3v-6.4c0-6.8-3.4-10.7-9-10.7s-9,3.9-9,10.7v6.4c0,6.8,3.4,10.7,9,10.7S314.3,261.1,314.3,254.3z"/>
		<path class="st6" d="M346.4,252.2l-4.1-8.6h-0.2v29h-8.8v-43h10.2l11.8,20.3l4.1,8.6h0.2v-29h8.8v43h-10.2L346.4,252.2z"/>
	</g>
</g>
</svg>
