<?xml version="1.0" encoding="UTF-8"?>
<svg xmlns="http://www.w3.org/2000/svg" xmlns:xlink="http://www.w3.org/1999/xlink" version="1.1" viewBox="0 0 407 319.7">
  <defs>
    <style>
      .cls-1, .cls-2 {
        fill: none;
      }

      .cls-3 {
        fill: #448afe;
      }

      .cls-2 {
        stroke: #a6c7ff;
        stroke-miterlimit: 10;
        stroke-width: 6px;
      }

      .cls-4 {
        isolation: isolate;
      }

      .cls-5 {
        fill: #a6c7ff;
      }

      .cls-6 {
        clip-path: url(#clippath-1);
      }

      .cls-7 {
        clip-path: url(#clippath-3);
      }

      .cls-8 {
        clip-path: url(#clippath-4);
      }

      .cls-9 {
        clip-path: url(#clippath-2);
      }

      .cls-10 {
        clip-path: url(#clippath-7);
      }

      .cls-11 {
        clip-path: url(#clippath-6);
      }

      .cls-12 {
        clip-path: url(#clippath-8);
      }

      .cls-13 {
        clip-path: url(#clippath-5);
      }

      .cls-14 {
        fill: #001140;
      }

      .cls-15 {
        fill: #012d9c;
      }

      .cls-16 {
        fill: #c9defe;
      }

      .cls-17 {
        fill: #76b4ff;
      }

      .cls-18 {
        fill: #0042ce;
      }

      .cls-19 {
        opacity: 0;
      }

      .cls-20 {
        clip-path: url(#clippath);
      }
    </style>
    <clipPath id="clippath">
      <rect class="cls-1" x="196.2" y="114.6" width="49.1" height="7.6"/>
    </clipPath>
    <clipPath id="clippath-1">
      <rect class="cls-1" x="253.1" y="114.6" width="70.7" height="7.6"/>
    </clipPath>
    <clipPath id="clippath-2">
      <rect class="cls-1" x="160.9" y="114.6" width="28" height="7.6"/>
    </clipPath>
    <clipPath id="clippath-3">
      <rect class="cls-1" x="160.9" y="170.3" width="119.1" height="7.6"/>
    </clipPath>
    <clipPath id="clippath-4">
      <rect class="cls-1" x="160.9" y="133.1" width="124" height="7.6"/>
    </clipPath>
    <clipPath id="clippath-5">
      <rect class="cls-1" x="160.9" y="151.7" width="28" height="7.6"/>
    </clipPath>
    <clipPath id="clippath-6">
      <rect class="cls-1" x="217.8" y="188.9" width="77" height="7.6"/>
    </clipPath>
    <clipPath id="clippath-7">
      <rect class="cls-1" x="160.9" y="188.9" width="49.1" height="7.6"/>
    </clipPath>
    <clipPath id="clippath-8">
      <rect class="cls-1" x="160.9" y="207.4" width="49.1" height="7.6"/>
    </clipPath>
  </defs>
  <!-- Generator: Adobe Illustrator 28.7.1, SVG Export Plug-In . SVG Version: 1.2.0 Build 142)  -->
  <g>
    <g id="Layer_1">
      <g class="cls-19">
        <rect class="cls-15" x="3.7" y="5.4" width="397" height="309.7"/>
        <path class="cls-14" d="M395.7,10.4v299.7H8.7V10.4h387M405.7.4H-1.3v319.7h407V.4Z"/>
      </g>
      <g>
        <g class="cls-4">
          <path class="cls-16" d="M83.5,33h0l-1.7,3.2-4.2,7.9-4.1-7.9-1.7-3.5h-.1v14.8h-4.5v-22h5l5.3,10.3h.1l5.3-10.3h5.1v22.1h-4.5v-14.6Z"/>
        </g>
        <g class="cls-4">
          <path class="cls-16" d="M97.5,47.6l-7-22.1h4.8l3.2,10.7,1.8,6.9h.1l1.7-6.9,3.2-10.7h4.7l-7,22.1s-5.3,0-5.3,0Z"/>
        </g>
        <g class="cls-4">
          <path class="cls-16" d="M118.7,48c-1.9,0-3.5-.3-4.9-1-1.3-.6-2.5-1.6-3.4-2.6l3.1-3.2c1.4,1.7,3.3,2.5,5.5,2.5s2.1-.2,2.6-.7.8-1.1.8-2-.2-1.1-.5-1.6-1-.7-2.1-.8l-2.2-.3c-2.3-.3-4-1-5.1-2.2s-1.7-2.6-1.7-4.5.2-1.9.5-2.7c.4-.8.9-1.6,1.7-2.2s1.6-1,2.6-1.3,2.2-.5,3.4-.5,3.1.3,4.3.8,2.3,1.3,3.2,2.3l-3.1,3.2c-.5-.6-1.1-1.1-1.9-1.4-.7-.4-1.7-.6-2.8-.6s-1.9.2-2.4.5c-.5.4-.8.9-.8,1.6s.2,1.3.6,1.7c.4.3,1,.6,2,.7l2.2.3c2.3.3,3.9,1,5,2.1s1.7,2.6,1.7,4.5-.2,2.1-.5,2.9-.9,1.7-1.7,2.3c-.7.6-1.7,1.1-2.7,1.4s-2.2.9-3.5.9Z"/>
        </g>
      </g>
      <g class="cls-4">
        <path class="cls-3" d="M151.2,52v-28.6h3.9v28.6h-3.9Z"/>
      </g>
      <g class="cls-4">
        <path class="cls-3" d="M263.2,52v-28.6h3.9v28.6h-3.9Z"/>
      </g>
      <g class="cls-4">
        <path class="cls-16" d="M309.2,25.5v15.7c0,1-.2,2-.5,2.8s-.8,1.6-1.4,2.2-1.3,1-2.3,1.3c-.9.3-1.9.5-3,.5s-2.1-.1-2.9-.4c-.8-.3-1.6-.7-2.1-1.2s-1-1.2-1.4-2-.6-1.7-.8-2.6l4.5-.9c.3,2,1.2,2.9,2.7,2.9s1.2-.2,1.8-.6c.5-.4.7-1.1.7-2.1v-11.8h-6.6v-3.8s11.5,0,11.5,0Z"/>
        <path class="cls-16" d="M313.5,47.6v-22.1h14.8v4.2h-10v4.6h8.6v4.2h-8.6v4.8h10v4.2h-14.8Z"/>
        <path class="cls-16" d="M339.2,48c-1.9,0-3.5-.3-4.9-1-1.3-.6-2.5-1.6-3.4-2.6l3.1-3.2c1.4,1.7,3.3,2.5,5.5,2.5s2.1-.2,2.6-.7.8-1.1.8-2-.2-1.1-.5-1.6-1-.7-2.1-.8l-2.2-.3c-2.3-.3-4-1-5.1-2.2s-1.7-2.6-1.7-4.5.2-1.9.5-2.7c.4-.8.9-1.6,1.7-2.2s1.6-1,2.6-1.3,2.2-.5,3.4-.5,3.1.3,4.3.8,2.3,1.3,3.2,2.3l-3.1,3.2c-.5-.6-1.1-1.1-1.9-1.4-.7-.4-1.7-.6-2.8-.6s-1.9.2-2.4.5c-.5.4-.8.9-.8,1.6s.2,1.3.6,1.7,1,.6,2,.7l2.2.3c2.3.3,3.9,1,5,2.1s1.7,2.6,1.7,4.5-.2,2.1-.5,2.9-.9,1.7-1.7,2.3c-.7.6-1.7,1.1-2.7,1.4-.9.7-2.2.9-3.5.9Z"/>
      </g>
      <rect class="cls-5" x="330.8" y="83.4" width="6.5" height="38.2"/>
      <rect class="cls-17" x="69.8" y="64.3" width="273.5" height="21.4"/>
      <rect class="cls-16" x="72.4" y="85.6" width="271" height="140.4"/>
      <rect class="cls-2" x="69.8" y="64.3" width="273.5" height="163.5"/>
      <rect class="cls-15" x="160.9" y="96.4" width="72.8" height="6.9"/>
      <rect class="cls-15" x="196.2" y="114.6" width="49.1" height="7.6"/>
      <g class="cls-20">
        <rect class="cls-15" x="161.2" y="95.6" width="119.1" height="45.4"/>
      </g>
      <rect class="cls-18" x="253.1" y="114.6" width="70.7" height="7.6"/>
      <g class="cls-6">
        <rect class="cls-18" x="202.6" y="95.6" width="171.6" height="45.4"/>
      </g>
      <rect class="cls-3" x="160.9" y="114.6" width="28" height="7.6"/>
      <g class="cls-9">
        <rect class="cls-3" x="125.9" y="95.6" width="98.1" height="45.4"/>
      </g>
      <rect class="cls-15" x="160.9" y="170.3" width="119.1" height="7.6"/>
      <g class="cls-7">
        <rect class="cls-15" x="125.9" y="151.3" width="189.1" height="45.4"/>
      </g>
      <rect class="cls-5" x="142.6" y="85.6" width="5" height="144.5"/>
      <rect class="cls-15" x="96.2" y="73" width="46.4" height="6.9"/>
      <rect class="cls-15" x="100.9" y="134.5" width="29.1" height="6.9"/>
      <rect class="cls-15" x="100.9" y="153.2" width="29.1" height="6.9"/>
      <rect class="cls-15" x="96.2" y="97.6" width="33.6" height="6.9"/>
      <rect class="cls-18" x="78.3" y="97.6" width="10.9" height="6.9"/>
      <rect class="cls-15" x="96.2" y="116.3" width="33.6" height="6.9"/>
      <rect class="cls-18" x="78.3" y="116.3" width="10.9" height="6.9"/>
      <rect class="cls-15" x="160.9" y="133.1" width="124" height="7.6"/>
      <g class="cls-8">
        <rect class="cls-15" x="135.1" y="114.2" width="175.7" height="45.4"/>
      </g>
      <rect class="cls-15" x="291.7" y="133.1" width="12.3" height="7.6"/>
      <rect class="cls-3" x="160.9" y="151.7" width="28" height="7.6"/>
      <g class="cls-13">
        <rect class="cls-3" x="125.9" y="132.8" width="98.1" height="45.4"/>
      </g>
      <rect class="cls-15" x="196.8" y="151.7" width="12.3" height="7.6"/>
      <rect class="cls-15" x="217.8" y="188.9" width="77" height="7.6"/>
      <g class="cls-11">
        <rect class="cls-15" x="182.7" y="169.8" width="147.1" height="45.4"/>
      </g>
      <rect class="cls-18" x="160.9" y="188.9" width="49.1" height="7.6"/>
      <g class="cls-10">
        <rect class="cls-18" x="125.9" y="169.8" width="119.1" height="45.4"/>
      </g>
      <rect class="cls-15" x="300.3" y="188.8" width="12.3" height="7.6"/>
      <rect class="cls-3" x="160.9" y="207.4" width="49.1" height="7.6"/>
      <g class="cls-12">
        <rect class="cls-3" x="125.9" y="188.5" width="119.1" height="45.4"/>
      </g>
      <rect class="cls-15" x="216.8" y="207.4" width="12.3" height="7.6"/>
      <rect class="cls-15" x="78.3" y="72.6" width="11.7" height="6.9"/>
      <rect class="cls-5" x="330.8" y="89.2" width="6.5" height="38.2"/>
      <path class="cls-16" d="M101.7,256.7h-2.9v-15.5h7c2.8,0,4.6,1.9,4.6,4.8s-1,3.8-2.9,4.4l3.2,6.3h-3.3l-2.9-6h-2.8v6ZM105.5,248.3c1.1,0,1.8-.6,1.8-1.8v-1c0-1.1-.7-1.7-1.8-1.7h-3.8v4.5h3.8Z"/>
      <path class="cls-16" d="M113.5,256.7v-15.5h10.2v2.6h-7.3v3.8h6.4v2.6h-6.4v4h7.3v2.6h-10.2Z"/>
      <path class="cls-16" d="M126.9,241.2h3.3l4,7.6h0l3.9-7.6h3.2v15.5h-2.8v-11.1h0l-1.2,2.5-3.2,5.9-3.2-5.9-1.2-2.5h0v11.1h-2.8v-15.5Z"/>
      <path class="cls-16" d="M144.3,249c0-5.2,2.7-8,6.8-8s6.8,2.8,6.8,8-2.7,8-6.8,8-6.8-2.8-6.8-8ZM154.7,250.2v-2.4c0-2.6-1.4-4.2-3.6-4.2s-3.6,1.6-3.6,4.2v2.4c0,2.6,1.4,4.2,3.6,4.2s3.6-1.6,3.6-4.2Z"/>
      <path class="cls-16" d="M166.4,243.8v12.9h-2.9v-12.9h-4.4v-2.6h11.7v2.6h-4.4Z"/>
      <path class="cls-16" d="M173.2,256.7v-15.5h10.2v2.6h-7.3v3.8h6.4v2.6h-6.4v4h7.3v2.6h-10.2Z"/>
      <path class="cls-16" d="M191.8,256.7v-15.5h10.2v2.6h-7.3v3.8h6.4v2.6h-6.4v4h7.3v2.6h-10.2Z"/>
      <path class="cls-16" d="M208.7,248.8l-4.8-7.6h3.4l3.3,5.5h0l3.3-5.5h3.2l-4.8,7.6,5.1,8h-3.4l-3.6-6h0l-3.5,6h-3.2l5-8Z"/>
      <path class="cls-16" d="M219.6,256.7v-15.5h7c2.9,0,4.6,1.9,4.6,4.8s-1.7,4.8-4.6,4.8h-4v5.9h-2.9ZM222.6,248.3h3.8c1.1,0,1.8-.6,1.8-1.8v-1c0-1.1-.7-1.7-1.8-1.7h-3.8v4.5Z"/>
      <path class="cls-16" d="M233.9,256.7v-15.5h2.9v12.9h6.1v2.6h-9Z"/>
      <path class="cls-16" d="M244,249c0-5.2,2.7-8,6.8-8s6.8,2.8,6.8,8-2.7,8-6.8,8-6.8-2.8-6.8-8ZM254.4,250.2v-2.4c0-2.6-1.4-4.2-3.6-4.2s-3.6,1.6-3.6,4.2v2.4c0,2.6,1.4,4.2,3.6,4.2s3.6-1.6,3.6-4.2Z"/>
      <path class="cls-16" d="M263.4,256.7h-2.9v-15.5h7c2.8,0,4.6,1.9,4.6,4.8s-1,3.8-2.9,4.4l3.2,6.3h-3.3l-2.9-6h-2.8v6ZM267.2,248.3c1.1,0,1.8-.6,1.8-1.8v-1c0-1.1-.7-1.7-1.8-1.7h-3.8v4.5h3.8Z"/>
      <path class="cls-16" d="M275.2,256.7v-15.5h10.2v2.6h-7.3v3.8h6.4v2.6h-6.4v4h7.3v2.6h-10.2Z"/>
      <path class="cls-16" d="M291.5,256.7h-2.9v-15.5h7c2.8,0,4.6,1.9,4.6,4.8s-1,3.8-2.9,4.4l3.2,6.3h-3.3l-2.9-6h-2.8v6ZM295.3,248.3c1.1,0,1.8-.6,1.8-1.8v-1c0-1.1-.7-1.7-1.8-1.7h-3.8v4.5h3.8Z"/>
      <path class="cls-16" d="M302.4,254.4l2-1.9c1.1,1.2,2.4,1.9,4,1.9s2.7-.9,2.7-2.2-.5-1.7-2.1-2l-1.5-.2c-3.1-.5-4.6-2-4.6-4.5s2.2-4.6,5.6-4.6,4.1.8,5.3,2.3l-2,1.9c-.8-1-1.8-1.6-3.5-1.6s-2.5.7-2.5,1.8.7,1.7,2.2,1.9l1.4.3c3.1.6,4.6,2,4.6,4.5s-2.1,4.9-5.8,4.9-4.5-1-5.8-2.6Z"/>
      <path class="cls-16" d="M198.7,273.7l-.8-2.5h-3.5l-.8,2.5h-1.9l3.3-9.8h2.3l3.2,9.8h-1.9ZM196.2,265.6h0l-1.2,4h2.6l-1.3-4Z"/>
      <path class="cls-16" d="M204.8,268.7l-1-2h0v7h-1.8v-9.8h2l2.9,5,1,2h0v-7h1.8v9.8h-2l-2.9-5Z"/>
      <path class="cls-16" d="M212.1,264h3.6c2.5,0,4.2,1.6,4.2,4.9s-1.7,4.9-4.2,4.9h-3.6v-9.8ZM215.6,272.1c1.4,0,2.3-.8,2.3-2.5v-1.5c0-1.7-.9-2.5-2.3-2.5h-1.7v6.5h1.7Z"/>
      <path class="cls-16" d="M67.1,292.7l1.7-1.6c.9,1.1,2,1.6,3.4,1.6s2.3-.7,2.3-1.9-.4-1.4-1.8-1.7l-1.3-.2c-2.7-.4-4-1.7-4-3.9s1.8-3.9,4.8-3.9,3.5.7,4.5,2l-1.7,1.6c-.6-.8-1.6-1.4-3-1.4s-2.2.6-2.2,1.6.6,1.4,1.8,1.7l1.2.2c2.7.5,3.9,1.7,3.9,3.9s-1.8,4.2-5,4.2-3.8-.9-4.9-2.2Z"/>
      <path class="cls-16" d="M79,288.1c0-4.5,2.3-6.9,5.8-6.9s5.8,2.4,5.8,6.9-2.3,6.9-5.8,6.9-5.8-2.4-5.8-6.9ZM87.9,289.1v-2.1c0-2.3-1.2-3.6-3.1-3.6s-3.1,1.4-3.1,3.6v2.1c0,2.3,1.2,3.6,3.1,3.6s3.1-1.4,3.1-3.6Z"/>
      <path class="cls-16" d="M95.6,294.7h-2.5v-13.3h6c2.4,0,3.9,1.6,3.9,4.1s-.8,3.2-2.5,3.8l2.7,5.4h-2.8l-2.5-5.1h-2.4v5.1ZM98.8,287.5c1,0,1.6-.5,1.6-1.5v-.9c0-1-.6-1.5-1.6-1.5h-3.2v3.9h3.2Z"/>
      <path class="cls-16" d="M110.5,283.7v11.1h-2.5v-11.1h-3.8v-2.2h10.1v2.2h-3.8Z"/>
      <path class="cls-16" d="M123.3,294.7l-1.1-3.4h-4.7l-1,3.4h-2.6l4.5-13.3h3.1l4.4,13.3h-2.6ZM119.9,283.7h0l-1.7,5.5h3.5l-1.7-5.5Z"/>
      <path class="cls-16" d="M127.9,281.4h6.1c2.2,0,3.5,1.4,3.5,3.4s-1.2,2.8-2.4,2.9h0c1.2.1,2.9,1,2.9,3.2s-1.5,3.8-3.4,3.8h-6.7v-13.3ZM130.4,287h3.1c.9,0,1.4-.5,1.4-1.4v-.6c0-.9-.5-1.4-1.4-1.4h-3.1v3.4ZM130.4,292.6h3.5c1,0,1.5-.5,1.5-1.4v-.6c0-.9-.6-1.5-1.5-1.5h-3.5v3.6Z"/>
      <path class="cls-16" d="M140.5,294.7v-13.3h2.5v11.1h5.2v2.2h-7.7Z"/>
      <path class="cls-16" d="M150.4,294.7v-13.3h8.8v2.2h-6.2v3.2h5.5v2.2h-5.5v3.4h6.2v2.2h-8.8Z"/>
      <path class="cls-16" d="M168.8,294.7h-2.5v-13.3h6c2.4,0,3.9,1.6,3.9,4.1s-.8,3.2-2.5,3.8l2.7,5.4h-2.8l-2.5-5.1h-2.4v5.1ZM172.1,287.5c1,0,1.6-.5,1.6-1.5v-.9c0-1-.6-1.5-1.6-1.5h-3.2v3.9h3.2Z"/>
      <path class="cls-16" d="M179,294.7v-13.3h8.8v2.2h-6.2v3.2h5.5v2.2h-5.5v3.4h6.2v2.2h-8.8Z"/>
      <path class="cls-16" d="M189.6,292.7l1.7-1.6c.9,1.1,2,1.6,3.4,1.6s2.3-.7,2.3-1.9-.4-1.4-1.8-1.7l-1.3-.2c-2.7-.4-4-1.7-4-3.9s1.8-3.9,4.8-3.9,3.5.7,4.5,2l-1.7,1.6c-.6-.8-1.6-1.4-3-1.4s-2.2.6-2.2,1.6.6,1.4,1.8,1.7l1.2.2c2.7.5,3.9,1.7,3.9,3.9s-1.8,4.2-5,4.2-3.8-.9-4.9-2.2Z"/>
      <path class="cls-16" d="M201.5,288.1c0-4.5,2.3-6.9,5.8-6.9s5.8,2.4,5.8,6.9-2.3,6.9-5.8,6.9-5.8-2.4-5.8-6.9ZM210.4,289.1v-2.1c0-2.3-1.2-3.6-3.1-3.6s-3.1,1.4-3.1,3.6v2.1c0,2.3,1.2,3.6,3.1,3.6s3.1-1.4,3.1-3.6Z"/>
      <path class="cls-16" d="M218,281.4v8.2c0,2.1.7,3.1,2.6,3.1s2.6-1,2.6-3.1v-8.2h2.5v7.8c0,3.9-1.4,5.7-5.1,5.7s-5.1-1.8-5.1-5.7v-7.8h2.5Z"/>
      <path class="cls-16" d="M231.2,294.7h-2.5v-13.3h6c2.4,0,3.9,1.6,3.9,4.1s-.8,3.2-2.5,3.8l2.7,5.4h-2.8l-2.5-5.1h-2.4v5.1ZM234.5,287.5c1,0,1.6-.5,1.6-1.5v-.9c0-1-.6-1.5-1.6-1.5h-3.2v3.9h3.2Z"/>
      <path class="cls-16" d="M240.6,288.2c0-4.5,2.2-7,5.7-7s3.9,1,4.9,3.1l-2.2,1.1c-.4-1.2-1.2-2-2.7-2s-3.1,1.4-3.1,3.6v2.1c0,2.3,1.2,3.6,3.1,3.6s2.4-.9,2.9-2.1l2,1.2c-1,2-2.5,3.1-4.9,3.1-3.5,0-5.7-2.3-5.7-6.8Z"/>
      <path class="cls-16" d="M253.4,294.7v-13.3h8.8v2.2h-6.2v3.2h5.5v2.2h-5.5v3.4h6.2v2.2h-8.8Z"/>
      <path class="cls-16" d="M264,292.7l1.7-1.6c.9,1.1,2,1.6,3.4,1.6s2.3-.7,2.3-1.9-.4-1.4-1.8-1.7l-1.3-.2c-2.7-.4-4-1.7-4-3.9s1.8-3.9,4.8-3.9,3.5.7,4.5,2l-1.7,1.6c-.6-.8-1.6-1.4-3-1.4s-2.2.6-2.2,1.6.6,1.4,1.8,1.7l1.2.2c2.7.5,3.9,1.7,3.9,3.9s-1.8,4.2-5,4.2-3.8-.9-4.9-2.2Z"/>
      <path class="cls-16" d="M286.2,283.7v11.1h-2.5v-11.1h-3.8v-2.2h10.1v2.2h-3.8Z"/>
      <path class="cls-16" d="M299,294.7l-1.1-3.4h-4.7l-1,3.4h-2.6l4.5-13.3h3.1l4.4,13.3h-2.6ZM295.6,283.7h0l-1.7,5.5h3.5l-1.7-5.5Z"/>
      <path class="cls-16" d="M303.5,281.4h6.1c2.2,0,3.5,1.4,3.5,3.4s-1.2,2.8-2.4,2.9h0c1.2.1,2.9,1,2.9,3.2s-1.5,3.8-3.4,3.8h-6.7v-13.3ZM306.1,287h3.1c.9,0,1.4-.5,1.4-1.4v-.6c0-.9-.5-1.4-1.4-1.4h-3.1v3.4ZM306.1,292.6h3.5c1,0,1.5-.5,1.5-1.4v-.6c0-.9-.6-1.5-1.5-1.5h-3.5v3.6Z"/>
      <path class="cls-16" d="M316.2,294.7v-13.3h2.5v11.1h5.2v2.2h-7.7Z"/>
      <path class="cls-16" d="M326.1,294.7v-13.3h8.8v2.2h-6.2v3.2h5.5v2.2h-5.5v3.4h6.2v2.2h-8.8Z"/>
      <path class="cls-16" d="M336.7,292.7l1.7-1.6c.9,1.1,2,1.6,3.4,1.6s2.3-.7,2.3-1.9-.4-1.4-1.8-1.7l-1.3-.2c-2.7-.4-4-1.7-4-3.9s1.8-3.9,4.8-3.9,3.5.7,4.6,2l-1.7,1.6c-.6-.8-1.6-1.4-3-1.4s-2.2.6-2.2,1.6.6,1.4,1.8,1.7l1.2.2c2.7.5,3.9,1.7,3.9,3.9s-1.8,4.2-5,4.2-3.8-.9-4.9-2.2Z"/>
      <g>
        <path class="cls-16" d="M176.9,25.9v13.3c0,3,1.1,4.6,3.9,4.6s3.9-1.5,3.9-4.6v-13.3h4.6v12.8c0,6.4-2.3,9.2-8.5,9.2s-8.5-2.8-8.5-9.2v-12.8h4.6Z"/>
        <path class="cls-16" d="M200.6,37.3l-2.1-4.3h0v14.6h-4.4v-21.6h5.1l5.9,10.2,2.1,4.3h0v-14.6h4.4v21.6h-5.1l-5.9-10.2Z"/>
        <path class="cls-16" d="M215.5,47.5v-3.7h2.8v-14.1h-2.8v-3.7h10.3v3.7h-2.8v14.1h2.8v3.7h-10.3Z"/>
        <path class="cls-16" d="M234.8,36.3l-6.6-10.4h5.5l4.2,7.3h0l4.3-7.3h5.1l-6.7,10.5,7,11.1h-5.5l-4.7-8h0l-4.6,8h-5.1l6.9-11.2Z"/>
      </g>
    </g>
  </g>
</svg>