<?xml version="1.0" encoding="utf-8"?>
<!-- Generator: Adobe Illustrator 24.3.0, SVG Export Plug-In . SVG Version: 6.00 Build 0)  -->
<svg version="1.1" id="Layer_1" xmlns="http://www.w3.org/2000/svg" xmlns:xlink="http://www.w3.org/1999/xlink" x="0px" y="0px"
	 viewBox="0 0 388.7 315" style="enable-background:new 0 0 388.7 315;" xml:space="preserve">
<style type="text/css">
	.st0{opacity:0;}
	.st1{fill:#012D9C;}
	.st2{fill:#001140;}
	.st3{enable-background:new    ;}
	.st4{fill:#C9DEFE;}
	.st5{fill:#76B4FF;}
</style>
<g class="st0">
	<rect x="5" y="5" class="st1" width="378.7" height="305"/>
	<path class="st2" d="M378.7,10v295H10V10H378.7 M388.7,0H0v315h388.7V0z"/>
</g>
<g class="st3">
	<path class="st4" d="M49.9,269.8L49.9,269.8c-0.2,1-0.8,1.8-1.6,2.5c-0.9,0.7-2,1-3.5,1c-1.1,0-2.2-0.2-3.1-0.6
		c-1-0.4-1.8-1.1-2.5-1.9s-1.3-1.9-1.7-3.1c-0.4-1.3-0.6-2.7-0.6-4.3c0-1.6,0.2-3.1,0.6-4.4c0.4-1.3,1-2.3,1.8-3.2
		c0.8-0.9,1.7-1.5,2.8-2c1.1-0.4,2.3-0.7,3.6-0.7c1.8,0,3.3,0.4,4.5,1.1c1.3,0.8,2.3,1.9,3,3.4l-3.5,2c-0.3-0.8-0.8-1.4-1.4-1.9
		c-0.6-0.5-1.5-0.8-2.7-0.8c-1.3,0-2.4,0.4-3.2,1.1c-0.8,0.8-1.2,2-1.2,3.6v3.1c0,1.6,0.4,2.8,1.2,3.6c0.8,0.8,1.8,1.2,3.2,1.2
		c0.5,0,1-0.1,1.5-0.2s0.9-0.3,1.2-0.6c0.4-0.3,0.6-0.6,0.8-0.9s0.3-0.8,0.3-1.3v-1h-3.6V262h7.7v10.9h-3.6V269.8z"/>
</g>
<g class="st3">
	<path class="st4" d="M57.2,272.9v-3.4h2.5v-12.8h-2.5v-3.4h9.3v3.4H64v12.8h2.5v3.4H57.2z"/>
</g>
<g class="st3">
	<path class="st4" d="M78.5,257.1v15.8h-4.3v-15.8H69v-3.8h14.8v3.8H78.5z"/>
	<path class="st4" d="M100.2,273.2c-1.7,0-3.2-0.3-4.4-0.9c-1.2-0.6-2.2-1.4-3.1-2.3l2.8-2.8c1.3,1.5,3,2.2,4.9,2.2
		c1,0,1.8-0.2,2.3-0.6s0.8-1,0.8-1.7c0-0.5-0.1-1-0.4-1.3c-0.3-0.4-0.9-0.6-1.8-0.7l-1.9-0.2c-2.1-0.3-3.6-0.9-4.5-1.9
		c-1-1-1.4-2.3-1.4-4c0-0.9,0.2-1.7,0.5-2.4c0.3-0.7,0.8-1.4,1.4-1.9s1.4-0.9,2.3-1.2s1.9-0.4,3.1-0.4c1.5,0,2.8,0.2,3.9,0.7
		s2.1,1.1,2.9,2l-2.8,2.9c-0.5-0.5-1-1-1.7-1.3s-1.5-0.5-2.5-0.5s-1.7,0.2-2.1,0.5c-0.5,0.3-0.7,0.8-0.7,1.4c0,0.7,0.2,1.1,0.5,1.4
		c0.4,0.3,1,0.5,1.8,0.6l1.9,0.3c2,0.3,3.5,0.9,4.5,1.9c1,0.9,1.5,2.2,1.5,3.9c0,0.9-0.2,1.8-0.5,2.6c-0.3,0.8-0.8,1.5-1.5,2
		s-1.4,1-2.4,1.3C102.5,273.1,101.4,273.2,100.2,273.2z"/>
	<path class="st4" d="M119.5,273.2c-1.3,0-2.5-0.2-3.6-0.6s-2-1-2.7-1.9c-0.7-0.8-1.3-1.9-1.7-3.1c-0.4-1.2-0.6-2.7-0.6-4.4
		c0-1.6,0.2-3.1,0.6-4.4s1-2.4,1.7-3.2c0.7-0.9,1.7-1.5,2.7-2c1.1-0.4,2.3-0.7,3.6-0.7c1.8,0,3.3,0.4,4.5,1.1
		c1.2,0.7,2.1,1.9,2.8,3.5l-3.7,1.9c-0.3-0.8-0.7-1.5-1.2-2c-0.6-0.5-1.4-0.7-2.4-0.7c-1.3,0-2.3,0.4-3,1.2c-0.8,0.8-1.1,2-1.1,3.5
		v3.1c0,1.5,0.4,2.7,1.1,3.5c0.8,0.8,1.8,1.2,3,1.2c1,0,1.9-0.3,2.5-0.9s1.1-1.3,1.4-2.1l3.5,2c-0.7,1.5-1.7,2.6-2.9,3.5
		C122.8,272.8,121.3,273.2,119.5,273.2z"/>
	<path class="st4" d="M144.8,260L144.8,260l-1.5,2.9l-3.8,6.9l-3.7-6.9l-1.5-3.1h-0.1v13h-4v-19.5h4.5l4.8,9.2h0.1l4.7-9.2h4.5v19.5
		h-4V260z"/>
	<path class="st4" d="M159.5,272.9v-3.4h2.5v-12.8h-2.5v-3.4h9.3v3.4h-2.5v12.8h2.5v3.4H159.5z"/>
	<path class="st4" d="M178.6,263.6l-1.9-3.9h-0.1v13.2h-4v-19.5h4.6l5.3,9.2l1.9,3.9h0.1v-13.2h4v19.5h-4.6L178.6,263.6z"/>
	<path class="st4" d="M201.3,257.1v15.8H197v-15.8h-5.3v-3.8h14.8v3.8H201.3z"/>
	<path class="st4" d="M209.8,272.9v-19.5h13.3v3.8h-9v4h7.8v3.8h-7.8v4.2h9v3.8L209.8,272.9L209.8,272.9z"/>
	<path class="st4" d="M239.5,269.8h-0.1c-0.1,1-0.7,1.8-1.5,2.5c-0.9,0.7-2,1-3.5,1c-1.1,0-2.2-0.2-3.1-0.6c-1-0.4-1.8-1.1-2.5-1.9
		s-1.3-1.9-1.7-3.1c-0.4-1.3-0.6-2.7-0.6-4.3c0-1.6,0.2-3.1,0.6-4.4c0.4-1.3,1-2.3,1.8-3.2s1.7-1.5,2.8-2c1.1-0.4,2.3-0.7,3.6-0.7
		c1.8,0,3.3,0.4,4.5,1.1c1.3,0.8,2.3,1.9,3,3.4l-3.5,2c-0.3-0.8-0.8-1.4-1.4-1.9c-0.6-0.5-1.5-0.8-2.7-0.8c-1.3,0-2.4,0.4-3.2,1.1
		c-0.8,0.8-1.2,2-1.2,3.6v3.1c0,1.6,0.4,2.8,1.2,3.6c0.8,0.8,1.8,1.2,3.2,1.2c0.5,0,1-0.1,1.5-0.2s0.9-0.3,1.2-0.6
		c0.4-0.3,0.6-0.6,0.8-0.9c0.2-0.4,0.3-0.8,0.3-1.3v-1h-3.6V262h7.7v10.9h-3.6V269.8z"/>
	<path class="st4" d="M251.7,272.9h-4.3v-19.5h9.3c0.9,0,1.7,0.1,2.4,0.4c0.7,0.3,1.3,0.7,1.9,1.3c0.5,0.6,0.9,1.2,1.2,2
		s0.4,1.6,0.4,2.5c0,1.3-0.3,2.5-0.9,3.5s-1.5,1.7-2.7,2.2l3.8,7.7h-4.7l-3.4-7.2h-3.1v7.1H251.7z M256.2,262.1
		c0.6,0,1.1-0.2,1.5-0.5s0.5-0.8,0.5-1.4V259c0-0.6-0.2-1.1-0.5-1.4c-0.4-0.3-0.9-0.5-1.5-0.5h-4.5v5.1h4.5V262.1z"/>
</g>
<g class="st3">
	<path class="st4" d="M280,272.9l-1.4-4.6h-6.5l-1.4,4.6h-4.3l6.4-19.5h5.3l6.4,19.5H280z M275.4,257.2h-0.1l-2.2,7.4h4.5
		L275.4,257.2z"/>
</g>
<g class="st3">
	<path class="st4" d="M293.9,257.1v15.8h-4.3v-15.8h-5.3v-3.8h14.8v3.8H293.9z"/>
</g>
<g class="st3">
	<path class="st4" d="M301.6,272.9v-3.4h2.5v-12.8h-2.5v-3.4h9.3v3.4h-2.5v12.8h2.5v3.4H301.6z"/>
	<path class="st4" d="M322.6,273.2c-1.3,0-2.5-0.2-3.5-0.6c-1.1-0.4-2-1.1-2.7-1.9s-1.3-1.9-1.7-3.2c-0.4-1.3-0.6-2.7-0.6-4.4
		c0-1.7,0.2-3.1,0.6-4.4s1-2.3,1.7-3.2c0.7-0.8,1.7-1.5,2.7-1.9c1.1-0.4,2.2-0.6,3.5-0.6s2.5,0.2,3.5,0.6c1.1,0.4,2,1.1,2.7,1.9
		c0.7,0.8,1.3,1.9,1.7,3.2c0.4,1.3,0.6,2.7,0.6,4.4c0,1.7-0.2,3.1-0.6,4.4s-1,2.3-1.7,3.2c-0.7,0.8-1.7,1.5-2.7,1.9
		S323.9,273.2,322.6,273.2z M322.6,269.4c1.3,0,2.3-0.4,3-1.3s1.1-2,1.1-3.6v-2.9c0-1.6-0.4-2.8-1.1-3.6s-1.7-1.3-3-1.3
		s-2.3,0.4-3,1.3s-1.1,2-1.1,3.6v2.9c0,1.6,0.4,2.8,1.1,3.6S321.3,269.4,322.6,269.4z"/>
	<path class="st4" d="M341,263.6l-1.9-3.9H339v13.2h-4v-19.5h4.6l5.3,9.2l1.9,3.9h0.1v-13.2h4v19.5h-4.6L341,263.6z"/>
</g>
<path class="st5" d="M246.9,101.3c3.1,3.6,4.7,8.2,4.8,13c0,14.3-11.2,22.7-27.5,22.7c-3.4,0-6.9-0.3-10.2-1.1l-4.3,6.8l12.6,0.8
	c22.3,1.4,35.5,2.1,35.5,19.2c0,14.8-13,23.2-35.5,23.2c-23.3,0-32.2-5.9-32.2-16.1c0-5.8,2.6-8.9,7.1-13.2
	c-3.6-1.3-5.9-4.7-5.7-8.5c0-2.8,1.4-5.4,3.7-7.9s4.9-4.9,8-7.7c-6.3-3.1-11.1-9.8-11.1-19.3c0-14.8,9.8-25,29.5-25
	c4-0.1,8,0.3,11.9,1.3h25.1v11L246.9,101.3z M208.8,160.2c-1.7,2.1-3.4,4.2-3.4,6.8c0,5.1,6.6,6.7,15.6,6.7c7.5,0,17.7-0.5,17.7-7.5
	c0-4.1-4.9-4.4-11.1-4.8L208.8,160.2z M222.9,101c-7.1,0-12.4,3.5-12.4,11.9c0,6.3,3.5,10.7,12,10.7c7.2,0,12.1-4.2,12.1-11
	C234.7,105,230.3,101,222.9,101z"/>
<path class="st5" d="M264.9,155.4v-10.2l6.6-0.9c1.8-0.3,2.1-0.6,2.1-2.6v-37.9c0-1.4-0.4-2.3-1.7-2.7l-7-2.4l1.4-10.4H293v53.5
	c0,2.1,0.1,2.3,2.1,2.6l6.6,0.9v10.2L264.9,155.4L264.9,155.4z M281.5,77.9c-7.4,0-11.6-4.3-11.6-11.6S274.1,55,281.5,55
	s11.7,4,11.7,11.3S289,77.9,281.5,77.9z"/>
<path class="st5" d="M352.6,150.4c-6.6,3.2-13.7,4.9-21,5.1c-15.4,0-21.1-6.2-21.1-20.8V101c0-0.8,0-1.3-1-1.3h-9V88.3
	c11.4-1.3,15.9-7,17.3-21H330v18.3c0,0.9,0,1.3,1,1.3h18.2v12.9H330v30.8c0,7.6,1.8,10.6,8.8,10.6c3.6-0.1,7.1-0.8,10.5-2.1
	L352.6,150.4z"/>
<path class="st5" d="M165.4,116.6l-59-59c-3.4-3.4-8.9-3.4-12.3,0L81.9,69.9l15.5,15.5c5.4-1.8,11.3,1.1,13.1,6.5
	c0.7,2.2,0.7,4.5,0,6.7l15,15c5.4-1.9,11.3,1,13.1,6.4c1.9,5.4-1,11.3-6.4,13.1c-5.4,1.9-11.3-1-13.1-6.4c-0.8-2.4-0.7-5,0.2-7.3
	l-14-14v36.7c5.1,2.5,7.2,8.7,4.7,13.8s-8.7,7.2-13.8,4.7c-5.1-2.5-7.2-8.7-4.7-13.8c0.5-1,1.2-1.9,1.9-2.7c1-1,2.1-1.7,3.4-2.3
	v-37.1c-1.3-0.5-2.4-1.3-3.4-2.3c-3-3-3.9-7.4-2.2-11.3L75.9,75.9l-40.4,40.4c-3.4,3.4-3.4,8.9,0,12.3l0,0l59,59
	c3.4,3.4,8.9,3.4,12.3,0l58.7-58.7C168.8,125.5,168.8,120,165.4,116.6L165.4,116.6z"/>
</svg>
