<?xml version="1.0" encoding="utf-8"?>
<!-- Generator: Adobe Illustrator 24.3.0, SVG Export Plug-In . SVG Version: 6.00 Build 0)  -->
<svg version="1.1" id="Layer_1" xmlns="http://www.w3.org/2000/svg" xmlns:xlink="http://www.w3.org/1999/xlink" x="0px" y="0px"
	 viewBox="0 0 80 80" style="enable-background:new 0 0 80 80;" xml:space="preserve">
<path d="M74.6,20.4c-3.6-6.3-8.4-11.3-14.6-14.9C53.9,1.8,47.3,0,40,0S26,1.8,19.9,5.5c-6.1,3.7-11,8.6-14.6,14.9
	C1.8,26.7,0,33.6,0,41c0,8.9,2.5,17,7.6,24.1c5.1,7.1,11.7,12.1,19.7,14.8c0.9,0.2,1.6,0.1,2.1-0.4c0.5-0.4,0.7-1,0.7-1.6l0-2.9
	c0-1.8,0-3.4,0-4.8l-1.2,0.2c-0.8,0.1-1.7,0.2-2.9,0.2c-1.2,0-2.4-0.1-3.6-0.4c-1.2-0.2-2.4-0.8-3.5-1.6c-1.1-0.8-1.8-1.9-2.3-3.3
	L16,64.2c-0.3-0.8-0.9-1.7-1.6-2.7c-0.7-1-1.5-1.7-2.3-2l-0.4-0.3c-0.3-0.2-0.5-0.4-0.7-0.6c-0.2-0.2-0.4-0.5-0.5-0.7
	c-0.1-0.2,0-0.5,0.3-0.6s0.8-0.2,1.5-0.2l1,0.2c0.7,0.1,1.6,0.6,2.6,1.3c1,0.7,1.9,1.6,2.5,2.8c0.8,1.5,1.8,2.6,2.9,3.3
	c1.1,0.8,2.3,1.1,3.4,1.1c1.1,0,2.1-0.1,3-0.3c0.8-0.2,1.6-0.4,2.3-0.8c0.3-2.4,1.2-4.2,2.6-5.5c-2-0.2-3.8-0.5-5.3-1
	c-1.6-0.4-3.2-1.1-4.9-2.1c-1.7-1-3.1-2.2-4.2-3.6c-1.1-1.4-2-3.3-2.7-5.6c-0.7-2.3-1.1-5-1.1-8c0-4.3,1.4-8,4.1-11
	C17.3,24.6,17.4,21,19,17c1-0.3,2.5-0.1,4.5,0.7c2,0.8,3.4,1.5,4.3,2.1c0.9,0.6,1.7,1,2.2,1.4c3.3-0.9,6.6-1.4,10-1.4
	c3.4,0,6.8,0.5,10,1.4l2-1.3c1.4-0.9,3-1.6,4.8-2.4c1.8-0.7,3.2-0.9,4.2-0.6c1.6,4,1.7,7.7,0.4,10.9c2.7,3,4.1,6.7,4.1,11
	c0,3-0.4,5.7-1.1,8s-1.6,4.2-2.8,5.6c-1.1,1.4-2.5,2.6-4.2,3.5c-1.7,1-3.3,1.7-4.9,2.1c-1.6,0.4-3.4,0.7-5.3,1
	c1.8,1.6,2.7,4.1,2.7,7.6v11.3c0,0.6,0.2,1.2,0.7,1.6c0.4,0.4,1.1,0.6,2.1,0.4c8.1-2.7,14.6-7.7,19.7-14.8S80,49.9,80,41
	C80,33.6,78.2,26.7,74.6,20.4z"/>
</svg>
