<?xml version="1.0" encoding="utf-8"?>
<!-- Generator: Adobe Illustrator 24.0.3, SVG Export Plug-In . SVG Version: 6.00 Build 0)  -->
<svg version="1.1" id="Layer_1" xmlns="http://www.w3.org/2000/svg" xmlns:xlink="http://www.w3.org/1999/xlink" x="0px" y="0px"
	 viewBox="0 0 360 85" style="enable-background:new 0 0 360 85;" xml:space="preserve">
<style type="text/css">
	.st0{fill:#4169FF;}
	.st1{display:none;}
	.st2{display:inline;fill:#252FAB;}
</style>
<g>
	<g>
		<path class="st0" d="M348,8c2.2,0,4,1.8,4,4v60c0,2.2-1.8,4-4,4H12c-2.2,0-4-1.8-4-4V12c0-2.2,1.8-4,4-4H348 M348,0H12
			C5.4,0,0,5.4,0,12v60c0,6.6,5.4,12,12,12h336c6.6,0,12-5.4,12-12V12C360,5.4,354.6,0,348,0L348,0z"/>
	</g>
</g>
<g class="st1">
	<path class="st2" d="M76.5,50.6l-4.3-8.7H72v30.2h-7.5V30.2h8.7l12.6,21.5l4.3,8.7h0.2V30.2h7.5v41.9h-8.7L76.5,50.6z"/>
	<path class="st2" d="M107.6,72.1V30.2h27.6v7h-19.7v10.1h17.4v7h-17.4v10.7h19.7v7H107.6z"/>
	<path class="st2" d="M150,72.1l-9.7-41.9h7.9l4.1,20.1l2.6,12.8h0.2l3-12.8l4.8-20.1h8.8l4.8,20.1l2.9,12.8h0.2l2.6-12.8l4.3-20.1
		h7.6l-10,41.9h-8.9L169.7,50l-2.6-11H167l-2.7,11L159,72.1H150z"/>
</g>
<g>
	<path class="st0" d="M45.2,56.5L43,49.8h-9.4l-2.1,6.7h-5.1l8.8-26.4h6.2l8.8,26.4H45.2z M38.4,34.7h-0.2l-3.4,10.8h6.9L38.4,34.7z
		"/>
	<path class="st0" d="M61.8,43l-2.7-5.5h-0.1v19h-4.7V30.1h5.5l7.9,13.5l2.7,5.5h0.1v-19h4.7v26.4h-5.5L61.8,43z"/>
	<path class="st0" d="M88.9,43l-2.7-5.5h-0.1v19h-4.7V30.1h5.5l7.9,13.5l2.7,5.5h0.1v-19h4.7v26.4h-5.5L88.9,43z"/>
	<path class="st0" d="M107.4,43.3c0-8.9,4.6-13.6,11.5-13.6c6.9,0,11.5,4.7,11.5,13.6s-4.5,13.6-11.5,13.6
		C112,56.9,107.4,52.2,107.4,43.3z M125.1,45.3v-4.1c0-4.5-2.4-7.2-6.2-7.2c-3.8,0-6.2,2.7-6.2,7.2v4.1c0,4.5,2.4,7.2,6.2,7.2
		C122.7,52.5,125.1,49.8,125.1,45.3z"/>
	<path class="st0" d="M140.1,30.1v16.2c0,4.1,1.4,6.2,5.2,6.2s5.2-2.1,5.2-6.2V30.1h4.9v15.6c0,7.7-2.8,11.3-10.2,11.3
		s-10.1-3.5-10.1-11.3V30.1H140.1z"/>
	<path class="st0" d="M169,43l-2.7-5.5h-0.1v19h-4.7V30.1h5.5l7.9,13.5l2.7,5.5h0.1v-19h4.7v26.4H177L169,43z"/>
	<path class="st0" d="M187.5,43.5c0-8.9,4.4-13.8,11.4-13.8c4.7,0,7.8,2,9.6,6.1l-4.3,2.3c-0.8-2.3-2.4-3.9-5.4-3.9
		c-3.7,0-6.1,2.7-6.1,7.2v4.2c0,4.5,2.4,7.1,6.1,7.1c3,0,4.8-1.8,5.7-4.2l4,2.4c-1.9,3.9-5,6.2-9.7,6.2
		C191.9,56.9,187.5,52.4,187.5,43.5z"/>
	<path class="st0" d="M212.9,56.5V30.1h17.4v4.4h-12.4v6.4h11v4.4h-11v6.7h12.4v4.4H212.9z"/>
	<path class="st0" d="M235.6,30.1h5.6l6.8,12.9h0.2l6.7-12.9h5.4v26.4h-4.7V37.6h-0.2l-2,4.2l-5.4,10l-5.4-10l-2-4.2h-0.2v18.9h-4.7
		V30.1z"/>
	<path class="st0" d="M266.4,56.5V30.1h17.4v4.4h-12.4v6.4h11v4.4h-11v6.7h12.4v4.4H266.4z"/>
	<path class="st0" d="M296.6,43l-2.7-5.5h-0.1v19H289V30.1h5.5l7.9,13.5l2.7,5.5h0.1v-19h4.7v26.4h-5.5L296.6,43z"/>
	<path class="st0" d="M326.5,34.5v21.9h-5V34.5h-7.5v-4.4H334v4.4H326.5z"/>
</g>
<g id="sMHrCD.tif">
	<g id="Layer_0_3_">
		
			<image style="overflow:visible;" width="295" height="533" xlink:href="90C0B692B603D34.png"  transform="matrix(2.549 0 0 2.549 528 -522)">
		</image>
		
			<image style="overflow:visible;" width="295" height="533" xlink:href="90C0B692B603D3C.png"  transform="matrix(2.549 0 0 2.549 528 -522)">
		</image>
	</g>
</g>
</svg>
