<?xml version="1.0" encoding="utf-8"?>
<!-- Generator: Adobe Illustrator 25.2.0, SVG Export Plug-In . SVG Version: 6.00 Build 0)  -->
<svg version="1.1" id="Layer_1" xmlns="http://www.w3.org/2000/svg" xmlns:xlink="http://www.w3.org/1999/xlink" x="0px" y="0px"
	 viewBox="0 0 48 48" style="enable-background:new 0 0 48 48;" xml:space="preserve">
<style type="text/css">
	.st0{fill:#FFFFFF;}
	.st1{fill:none;}
	.st2{stroke:#000000;stroke-miterlimit:10;}
</style>
<ellipse class="st0" cx="24" cy="24.6" rx="14.9" ry="15.5"/>
<rect y="0" class="st1" width="48" height="48"/>
<path class="st2" d="M36.9,16.7c-1.3-2.3-3.2-4.2-5.4-5.6c-4.6-2.7-10.4-2.7-15,0c-2.3,1.3-4.1,3.3-5.4,5.6c-1.3,2.3-2,5-2,7.7
	c0,3.2,1,6.4,2.8,9c1.8,2.6,4.4,4.5,7.4,5.5c0.3,0.1,0.5,0,0.8-0.1c0.2-0.2,0.3-0.4,0.3-0.6v-1.1c0-0.7,0-1.3,0-1.8l-0.5,0.1
	c-0.4,0.1-0.7,0.1-1.1,0.1c-0.5,0-0.9-0.1-1.4-0.1c-0.5-0.1-0.9-0.3-1.3-0.6c-0.4-0.3-0.7-0.7-0.9-1.2L15.1,33
	c-0.2-0.4-0.4-0.7-0.6-1c-0.2-0.3-0.5-0.6-0.9-0.8l-0.1-0.1c-0.1-0.1-0.2-0.1-0.3-0.2c-0.1-0.1-0.1-0.2-0.2-0.3c0-0.1,0-0.2,0.1-0.2
	c0.2-0.1,0.4-0.1,0.6-0.1l0.4,0.1c0.4,0.1,0.7,0.3,1,0.5c0.4,0.3,0.7,0.6,0.9,1c0.3,0.5,0.6,0.9,1.1,1.2c0.4,0.3,0.8,0.4,1.3,0.4
	c0.4,0,0.7,0,1.1-0.1c0.3-0.1,0.6-0.2,0.9-0.3c0.1-0.8,0.4-1.5,1-2c-0.7-0.1-1.3-0.2-2-0.4c-0.7-0.2-1.3-0.4-1.9-0.8
	c-0.6-0.3-1.1-0.8-1.6-1.3c-0.5-0.6-0.8-1.3-1-2.1c-0.3-1-0.4-2-0.4-3c0-1.5,0.5-3,1.5-4.1c-0.5-1.3-0.4-2.8,0.1-4.1
	c0.6-0.1,1.2,0,1.7,0.3c0.6,0.2,1.1,0.5,1.6,0.8c0.4,0.2,0.6,0.4,0.8,0.5c1.2-0.3,2.5-0.5,3.7-0.5c1.3,0,2.5,0.2,3.7,0.5l0.7-0.5
	c0.6-0.4,1.2-0.6,1.8-0.9c0.5-0.2,1-0.3,1.6-0.2c0.6,1.3,0.6,2.7,0.2,4.1c1,1.1,1.6,2.6,1.5,4.1c0,1-0.1,2-0.4,3
	c-0.2,0.8-0.5,1.5-1,2.1c-0.4,0.5-1,1-1.6,1.3c-0.6,0.3-1.2,0.6-1.8,0.8c-0.7,0.2-1.3,0.3-2,0.4c0.7,0.7,1.1,1.8,1,2.8v4.2
	c0,0.2,0.1,0.4,0.2,0.6c0.2,0.2,0.5,0.2,0.8,0.1c3-1,5.6-2.9,7.4-5.5c1.9-2.6,2.9-5.8,2.8-9C38.9,21.7,38.2,19,36.9,16.7z"/>
</svg>
