<svg id="Layer_1" data-name="Layer 1" xmlns="http://www.w3.org/2000/svg" viewBox="0 0 48 48"><defs><style>.cls-1{fill:none;}.cls-2{stroke:#000;stroke-miterlimit:10;}</style></defs><rect class="cls-1" width="48" height="48"/><path class="cls-2" d="M36.92,16.69a15,15,0,0,0-5.43-5.56,14.71,14.71,0,0,0-15,0,15,15,0,0,0-5.43,5.56,15.23,15.23,0,0,0-2,7.68,15.1,15.1,0,0,0,2.84,9,14.63,14.63,0,0,0,7.36,5.52.85.85,0,0,0,.77-.13.79.79,0,0,0,.26-.6V37.08c0-.67,0-1.27,0-1.77l-.45.08a5.51,5.51,0,0,1-1.08.07,8.83,8.83,0,0,1-1.35-.14,3.08,3.08,0,0,1-1.3-.6,2.47,2.47,0,0,1-.85-1.22l-.2-.46a5.05,5.05,0,0,0-.61-1,2.31,2.31,0,0,0-.85-.75l-.13-.1a1.48,1.48,0,0,1-.26-.24,1.17,1.17,0,0,1-.17-.28c0-.09,0-.17.1-.23a1.21,1.21,0,0,1,.56-.09l.39.06a2.66,2.66,0,0,1,1,.48,3.11,3.11,0,0,1,.94,1,3.53,3.53,0,0,0,1.08,1.25,2.3,2.3,0,0,0,1.27.43,5.85,5.85,0,0,0,1.11-.1,4.35,4.35,0,0,0,.88-.3,3.19,3.19,0,0,1,1-2.05,12.92,12.92,0,0,1-2-.36A7.85,7.85,0,0,1,17.46,30a5.2,5.2,0,0,1-1.56-1.33,6.33,6.33,0,0,1-1-2.1,10,10,0,0,1-.4-3A5.92,5.92,0,0,1,16,19.47a5.47,5.47,0,0,1,.14-4.06,2.66,2.66,0,0,1,1.67.27,10.51,10.51,0,0,1,1.62.77c.35.21.62.39.83.53A13.43,13.43,0,0,1,24,16.47a13.65,13.65,0,0,1,3.73.51l.74-.47a9.63,9.63,0,0,1,1.79-.88,2.44,2.44,0,0,1,1.57-.22A5.43,5.43,0,0,1,32,19.47a5.92,5.92,0,0,1,1.53,4.11,10.07,10.07,0,0,1-.4,3,6.06,6.06,0,0,1-1,2.1A5.49,5.49,0,0,1,30.52,30a7.85,7.85,0,0,1-1.83.78,12.92,12.92,0,0,1-2,.36,3.59,3.59,0,0,1,1,2.82v4.21a.78.78,0,0,0,.24.59.83.83,0,0,0,.77.14,14.63,14.63,0,0,0,7.36-5.52,15.12,15.12,0,0,0,2.84-9A15.23,15.23,0,0,0,36.92,16.69Z"/></svg>