<svg id="Layer_1" data-name="Layer 1" xmlns="http://www.w3.org/2000/svg" viewBox="0 0 48 48"><defs><style>.cls-1{fill:none;}</style></defs><rect class="cls-1" width="48" height="48"/><path d="M15.59,27.82a3,3,0,1,1-3-3h3Z"/><path d="M17.13,27.82a3,3,0,0,1,6.09,0v7.63a3,3,0,1,1-6.09,0V27.82Z"/><path d="M20.18,15.59a3,3,0,1,1,3-3h0v3Z"/><path d="M20.18,17.13a3,3,0,0,1,0,6.09H12.55a3,3,0,1,1,0-6.09h7.67Z"/><path d="M32.41,20.18a3,3,0,1,1,3,3h-3Z"/><path d="M30.87,20.18a3,3,0,0,1-6.09,0V12.55a3,3,0,1,1,6.09,0v7.67Z"/><path d="M27.82,32.41a3,3,0,1,1-3,3h0v-3Z"/><path d="M27.82,30.87a3,3,0,0,1,0-6.09h7.63a3,3,0,1,1,0,6.09H27.82Z"/><rect id="_Transparent_Rectangle_" data-name=" Transparent Rectangle " class="cls-1" x="4.67" y="4.67" width="38.66" height="38.66"/></svg>