<?xml version="1.0" encoding="utf-8"?>
<!-- Generator: Adobe Illustrator 24.0.3, SVG Export Plug-In . SVG Version: 6.00 Build 0)  -->
<svg version="1.1" id="Layer_1" xmlns="http://www.w3.org/2000/svg" xmlns:xlink="http://www.w3.org/1999/xlink" x="0px" y="0px"
	 viewBox="0 0 407.4 319.7" style="enable-background:new 0 0 407.4 319.7;" xml:space="preserve">
<style type="text/css">
	.st0{opacity:0;}
	.st1{fill:#012D9C;}
	.st2{fill:#001140;}
	.st3{enable-background:new    ;}
	.st4{fill:#C9DEFE;}
	.st5{fill-rule:evenodd;clip-rule:evenodd;fill:#A6C7FF;}
	.st6{fill-rule:evenodd;clip-rule:evenodd;fill:#76B4FF;}
	.st7{clip-path:url(#SVGID_2_);}
	.st8{fill:#76B4FF;}
	.st9{clip-path:url(#SVGID_4_);}
	.st10{clip-path:url(#SVGID_6_);}
	.st11{fill:#A6C7FF;}
	.st12{clip-path:url(#SVGID_8_);}
	.st13{clip-path:url(#SVGID_10_);}
	.st14{clip-path:url(#SVGID_12_);}
	.st15{clip-path:url(#SVGID_14_);}
	.st16{clip-path:url(#SVGID_16_);}
	.st17{clip-path:url(#SVGID_18_);}
	.st18{clip-path:url(#SVGID_20_);}
	.st19{clip-path:url(#SVGID_22_);}
	.st20{clip-path:url(#SVGID_24_);}
	.st21{clip-path:url(#SVGID_26_);}
</style>
<title>Asset 14</title>
<g>
	<g id="Layer_1-2">
		<g class="st0">
			<rect x="5" y="5" class="st1" width="397.4" height="309.7"/>
			<path class="st2" d="M397.4,10v299.7H10V10H397.4 M407.4,0H0v319.7h407.4V0z"/>
		</g>
		<g class="st3">
			<path class="st4" d="M106,287.5c-1.3,0-2.5-0.2-3.6-0.6c-1.1-0.4-2-1-2.7-1.9c-0.7-0.8-1.3-1.9-1.7-3.1c-0.4-1.2-0.6-2.7-0.6-4.4
				c0-1.6,0.2-3.1,0.6-4.4c0.4-1.3,1-2.4,1.7-3.2c0.7-0.9,1.7-1.5,2.7-2c1.1-0.4,2.3-0.7,3.6-0.7c1.8,0,3.3,0.4,4.5,1.1
				c1.2,0.7,2.1,1.9,2.8,3.5l-3.7,1.9c-0.3-0.8-0.7-1.5-1.2-2c-0.6-0.5-1.4-0.7-2.4-0.7c-1.2,0-2.3,0.4-3,1.2
				c-0.8,0.8-1.1,2-1.1,3.5v3.1c0,1.5,0.4,2.7,1.1,3.5c0.8,0.8,1.8,1.2,3,1.2c1,0,1.9-0.3,2.5-0.9c0.6-0.6,1.1-1.3,1.4-2.1l3.5,2
				c-0.7,1.5-1.7,2.6-2.9,3.5C109.3,287.1,107.8,287.5,106,287.5z"/>
		</g>
		<g class="st3">
			<path class="st4" d="M124.2,287.5c-1.3,0-2.5-0.2-3.5-0.6c-1.1-0.4-2-1.1-2.7-1.9s-1.3-1.9-1.7-3.2c-0.4-1.3-0.6-2.7-0.6-4.4
				c0-1.7,0.2-3.1,0.6-4.4c0.4-1.3,1-2.3,1.7-3.2c0.7-0.8,1.7-1.5,2.7-1.9c1.1-0.4,2.2-0.6,3.5-0.6s2.5,0.2,3.5,0.6
				c1.1,0.4,2,1.1,2.7,1.9c0.7,0.8,1.3,1.9,1.7,3.2c0.4,1.3,0.6,2.7,0.6,4.4c0,1.7-0.2,3.1-0.6,4.4c-0.4,1.3-1,2.3-1.7,3.2
				c-0.7,0.8-1.7,1.5-2.7,1.9C126.7,287.3,125.5,287.5,124.2,287.5z M124.2,283.7c1.3,0,2.3-0.4,3-1.3s1.1-2,1.1-3.6V276
				c0-1.6-0.4-2.8-1.1-3.6s-1.7-1.3-3-1.3s-2.3,0.4-3,1.3s-1.1,2-1.1,3.6v2.9c0,1.6,0.4,2.8,1.1,3.6S122.9,283.7,124.2,283.7z"/>
			<path class="st4" d="M136.7,267.6h7.4c1.3,0,2.5,0.2,3.5,0.6s2,1,2.7,1.8c0.7,0.8,1.3,1.8,1.7,3.1c0.4,1.2,0.6,2.6,0.6,4.3
				s-0.2,3-0.6,4.3c-0.4,1.2-1,2.2-1.7,3.1c-0.7,0.8-1.7,1.4-2.7,1.8c-1.1,0.4-2.2,0.6-3.5,0.6h-7.4V267.6z M144,283.4
				c1.3,0,2.3-0.4,3-1.1s1.1-1.8,1.1-3.4v-3c0-1.6-0.4-2.7-1.1-3.4c-0.7-0.7-1.7-1.1-3-1.1h-3.1v12H144z"/>
			<path class="st4" d="M156.5,287.2v-19.5h13.3v3.8h-9v4h7.8v3.8h-7.8v4.2h9v3.8H156.5z"/>
			<path class="st4" d="M186.9,287.5c-1.7,0-3.2-0.3-4.4-0.9c-1.2-0.6-2.2-1.4-3.1-2.3l2.8-2.8c1.3,1.5,3,2.2,4.9,2.2
				c1,0,1.8-0.2,2.3-0.6c0.5-0.4,0.8-1,0.8-1.7c0-0.5-0.1-1-0.4-1.3c-0.3-0.4-0.9-0.6-1.8-0.7l-1.9-0.2c-2.1-0.3-3.6-0.9-4.5-1.9
				c-1-1-1.4-2.3-1.4-4c0-0.9,0.2-1.7,0.5-2.4c0.3-0.7,0.8-1.4,1.4-1.9c0.6-0.5,1.4-0.9,2.3-1.2c0.9-0.3,1.9-0.4,3.1-0.4
				c1.5,0,2.8,0.2,3.9,0.7s2.1,1.1,2.9,2l-2.8,2.9c-0.5-0.5-1-1-1.7-1.3c-0.7-0.3-1.5-0.5-2.5-0.5c-1,0-1.7,0.2-2.1,0.5
				c-0.5,0.3-0.7,0.8-0.7,1.4c0,0.7,0.2,1.1,0.5,1.4c0.4,0.3,1,0.5,1.8,0.6l1.9,0.3c2,0.3,3.5,0.9,4.5,1.9c1,0.9,1.5,2.2,1.5,3.9
				c0,0.9-0.2,1.8-0.5,2.6c-0.3,0.8-0.8,1.5-1.5,2s-1.4,1-2.4,1.3C189.2,287.4,188.2,287.5,186.9,287.5z"/>
			<path class="st4" d="M204.3,277.9l-1.9-3.9h-0.1v13.2h-4v-19.5h4.6l5.3,9.2l1.9,3.9h0.1v-13.2h4v19.5h-4.6L204.3,277.9z"/>
			<path class="st4" d="M218.2,287.2v-3.4h2.5V271h-2.5v-3.4h9.3v3.4h-2.5v12.8h2.5v3.4H218.2z"/>
			<path class="st4" d="M231.3,287.2v-19.5h9.2c0.9,0,1.7,0.2,2.5,0.5c0.7,0.3,1.3,0.7,1.9,1.3c0.5,0.5,0.9,1.2,1.2,2
				c0.3,0.8,0.4,1.6,0.4,2.5c0,0.9-0.1,1.8-0.4,2.5c-0.3,0.8-0.7,1.4-1.2,2c-0.5,0.5-1.1,1-1.9,1.3c-0.7,0.3-1.5,0.5-2.5,0.5h-5v7.1
				H231.3z M235.6,276.4h4.5c0.6,0,1.1-0.2,1.5-0.5c0.4-0.3,0.5-0.8,0.5-1.4v-1.2c0-0.6-0.2-1.1-0.5-1.4c-0.4-0.3-0.9-0.5-1.5-0.5
				h-4.5V276.4z"/>
			<path class="st4" d="M249.9,287.2v-19.5h9.2c0.9,0,1.7,0.2,2.5,0.5s1.3,0.7,1.9,1.3c0.5,0.5,0.9,1.2,1.2,2
				c0.3,0.8,0.4,1.6,0.4,2.5c0,0.9-0.1,1.8-0.4,2.5c-0.3,0.8-0.7,1.4-1.2,2c-0.5,0.5-1.1,1-1.9,1.3c-0.7,0.3-1.5,0.5-2.5,0.5h-5v7.1
				H249.9z M254.2,276.4h4.5c0.6,0,1.1-0.2,1.5-0.5c0.4-0.3,0.5-0.8,0.5-1.4v-1.2c0-0.6-0.2-1.1-0.5-1.4c-0.4-0.3-0.9-0.5-1.5-0.5
				h-4.5V276.4z"/>
			<path class="st4" d="M268.6,287.2v-19.5h13.3v3.8h-9v4h7.8v3.8h-7.8v4.2h9v3.8H268.6z"/>
		</g>
		<g class="st3">
			<path class="st4" d="M295.1,271.4v15.8h-4.3v-15.8h-5.3v-3.8h14.8v3.8H295.1z"/>
		</g>
		<g class="st3">
			<path class="st4" d="M309.7,287.5c-1.7,0-3.2-0.3-4.4-0.9c-1.2-0.6-2.2-1.4-3.1-2.3l2.8-2.8c1.3,1.5,3,2.2,4.9,2.2
				c1,0,1.8-0.2,2.3-0.6c0.5-0.4,0.8-1,0.8-1.7c0-0.5-0.1-1-0.4-1.3s-0.9-0.6-1.8-0.7l-1.9-0.2c-2.1-0.3-3.6-0.9-4.5-1.9
				c-1-1-1.4-2.3-1.4-4c0-0.9,0.2-1.7,0.5-2.4c0.3-0.7,0.8-1.4,1.4-1.9c0.6-0.5,1.4-0.9,2.3-1.2c0.9-0.3,1.9-0.4,3.1-0.4
				c1.5,0,2.8,0.2,3.9,0.7s2.1,1.1,2.9,2l-2.8,2.9c-0.5-0.5-1-1-1.7-1.3c-0.7-0.3-1.5-0.5-2.5-0.5c-1,0-1.7,0.2-2.1,0.5
				c-0.5,0.3-0.7,0.8-0.7,1.4c0,0.7,0.2,1.1,0.5,1.4c0.4,0.3,1,0.5,1.8,0.6l1.9,0.3c2,0.3,3.5,0.9,4.5,1.9s1.5,2.2,1.5,3.9
				c0,0.9-0.2,1.8-0.5,2.6c-0.3,0.8-0.8,1.5-1.5,2c-0.6,0.6-1.4,1-2.4,1.3C312,287.4,310.9,287.5,309.7,287.5z"/>
		</g>
		
			<image style="overflow:visible;opacity:0.3;enable-background:new    ;" width="65" height="65" xlink:href="8C08B42BE15870FB.png"  transform="matrix(1 0 0 1 29.75 144.42)">
		</image>
		<path class="st5" d="M61.8,148.9c-12.7,0-22.9,10.3-22.9,23c0,12.7,10.3,22.9,23,22.9c12.7,0,22.9-10.3,22.9-23
			C84.8,159.2,74.6,148.9,61.8,148.9C61.9,148.9,61.9,148.9,61.8,148.9z M61.8,185.6c-7.6,0-13.7-6.2-13.7-13.7
			c0-7.6,6.2-13.7,13.7-13.7s13.7,6.2,13.7,13.7S69.4,185.6,61.8,185.6L61.8,185.6z"/>
		<polygon class="st6" points="183.1,171.6 163.5,191.1 159.6,187.2 175.1,171.6 159.6,155.9 163.5,152 		"/>
		<g>
			<defs>
				<polygon id="SVGID_1_" points="183.1,171.6 163.5,191.1 159.6,187.2 175.1,171.6 159.6,155.9 163.5,152 				"/>
			</defs>
			<clipPath id="SVGID_2_">
				<use xlink:href="#SVGID_1_"  style="overflow:visible;"/>
			</clipPath>
			<g class="st7">
				<rect x="145.6" y="138" class="st8" width="51.4" height="67.1"/>
			</g>
		</g>
		<polygon class="st6" points="97.6,171.6 117.1,152 121.1,155.9 105.5,171.6 121.1,187.2 117.1,191.1 		"/>
		<g>
			<defs>
				<polygon id="SVGID_3_" points="97.6,171.6 117.1,152 121.1,155.9 105.5,171.6 121.1,187.2 117.1,191.1 				"/>
			</defs>
			<clipPath id="SVGID_4_">
				<use xlink:href="#SVGID_3_"  style="overflow:visible;"/>
			</clipPath>
			<g class="st9">
				<rect x="83.6" y="138" class="st8" width="51.5" height="67.1"/>
			</g>
		</g>
		
			<rect x="113.7" y="168.4" transform="matrix(0.2589 -0.9659 0.9659 0.2589 -60.1345 264.0406)" class="st8" width="56.6" height="5.6"/>
		<g>
			<defs>
				
					<rect id="SVGID_5_" x="113.7" y="168.4" transform="matrix(0.2589 -0.9659 0.9659 0.2589 -60.1345 264.0406)" width="56.6" height="5.6"/>
			</defs>
			<clipPath id="SVGID_6_">
				<use xlink:href="#SVGID_5_"  style="overflow:visible;"/>
			</clipPath>
			<g class="st10">
				<rect x="117.2" y="129.6" class="st8" width="47.9" height="83.8"/>
			</g>
		</g>
		
			<image style="overflow:visible;opacity:0.3;enable-background:new    ;" width="113" height="113" xlink:href="8C08B42BE15870F9.png"  transform="matrix(1 0 0 1 192.75 23.42)">
		</image>
		<path class="st11" d="M239.1,64.1V85H260V64.1H239.1z M270.4,53.6v41.8h-41.8V53.6H270.4z"/>
		<g>
			<defs>
				<path id="SVGID_7_" d="M239.1,64.1V85H260V64.1H239.1z M270.4,53.6v41.8h-41.8V53.6H270.4z"/>
			</defs>
			<clipPath id="SVGID_8_">
				<use xlink:href="#SVGID_7_"  style="overflow:visible;"/>
			</clipPath>
			<g class="st12">
				<rect x="202.5" y="27.5" class="st11" width="94" height="94"/>
			</g>
		</g>
		<polygon class="st6" points="370.7,73.7 351.2,93.2 347.2,89.3 362.8,73.7 347.2,58.1 351.2,54.1 		"/>
		<g>
			<defs>
				<polygon id="SVGID_9_" points="370.7,73.7 351.2,93.2 347.2,89.3 362.8,73.7 347.2,58.1 351.2,54.1 				"/>
			</defs>
			<clipPath id="SVGID_10_">
				<use xlink:href="#SVGID_9_"  style="overflow:visible;"/>
			</clipPath>
			<g class="st13">
				<rect x="333.2" y="40.2" class="st8" width="51.5" height="67.1"/>
			</g>
		</g>
		<polygon class="st6" points="285.2,73.7 304.8,54.1 308.7,58.1 293.1,73.7 308.7,89.3 304.8,93.2 		"/>
		<g>
			<defs>
				<polygon id="SVGID_11_" points="285.2,73.7 304.8,54.1 308.7,58.1 293.1,73.7 308.7,89.3 304.8,93.2 				"/>
			</defs>
			<clipPath id="SVGID_12_">
				<use xlink:href="#SVGID_11_"  style="overflow:visible;"/>
			</clipPath>
			<g class="st14">
				<rect x="271.3" y="40.2" class="st8" width="51.5" height="67.1"/>
			</g>
		</g>
		
			<rect x="300.6" y="70.9" transform="matrix(0.2588 -0.9659 0.9659 0.2588 172.5237 372.2162)" class="st8" width="56.4" height="5.6"/>
		<g>
			<defs>
				
					<rect id="SVGID_13_" x="300.6" y="70.9" transform="matrix(0.2588 -0.9659 0.9659 0.2588 172.5237 372.2162)" width="56.4" height="5.6"/>
			</defs>
			<clipPath id="SVGID_14_">
				<use xlink:href="#SVGID_13_"  style="overflow:visible;"/>
			</clipPath>
			<g class="st15">
				<rect x="304.8" y="31.8" class="st8" width="47.9" height="83.8"/>
			</g>
		</g>
		<polygon class="st6" points="184.7,73.7 165.1,93.2 161.2,89.3 176.8,73.7 161.2,58.1 165.1,54.1 		"/>
		<g>
			<defs>
				<polygon id="SVGID_15_" points="184.7,73.7 165.1,93.2 161.2,89.3 176.8,73.7 161.2,58.1 165.1,54.1 				"/>
			</defs>
			<clipPath id="SVGID_16_">
				<use xlink:href="#SVGID_15_"  style="overflow:visible;"/>
			</clipPath>
			<g class="st16">
				<rect x="147.2" y="40.2" class="st8" width="51.4" height="67.1"/>
			</g>
		</g>
		<polygon class="st6" points="99.2,73.7 118.8,54.1 122.7,58.1 107.1,73.7 122.7,89.3 118.8,93.2 		"/>
		<g>
			<defs>
				<polygon id="SVGID_17_" points="99.2,73.7 118.8,54.1 122.7,58.1 107.1,73.7 122.7,89.3 118.8,93.2 				"/>
			</defs>
			<clipPath id="SVGID_18_">
				<use xlink:href="#SVGID_17_"  style="overflow:visible;"/>
			</clipPath>
			<g class="st17">
				<rect x="85.2" y="40.2" class="st8" width="51.4" height="67.1"/>
			</g>
		</g>
		
			<rect x="114.6" y="70.9" transform="matrix(0.2588 -0.9659 0.9659 0.2588 34.6549 192.5258)" class="st8" width="56.4" height="5.6"/>
		<g>
			<defs>
				
					<rect id="SVGID_19_" x="114.6" y="70.9" transform="matrix(0.2588 -0.9659 0.9659 0.2588 34.6549 192.5258)" width="56.4" height="5.6"/>
			</defs>
			<clipPath id="SVGID_20_">
				<use xlink:href="#SVGID_19_"  style="overflow:visible;"/>
			</clipPath>
			<g class="st18">
				<rect x="118.8" y="31.8" class="st8" width="47.9" height="83.8"/>
			</g>
		</g>
		
			<image style="overflow:visible;opacity:0.3;enable-background:new    ;" width="67" height="60" xlink:href="8C08B42BE15870FF.png"  transform="matrix(1 0 0 1 29.75 48.42)">
		</image>
		<path class="st11" d="M75.4,73.7L63.5,53l-12,20.7L39.6,94.4h47.8L75.4,73.7z M51.3,88.1l6.1-10.5l6.1-10.5l6.1,10.5l6.1,10.5
			H51.3z"/>
		<polygon id="SVGID-4" class="st6" points="370.7,171.6 351.2,191.1 347.2,187.2 362.8,171.6 347.2,155.9 351.2,152 		"/>
		<g>
			<defs>
				<polygon id="SVGID_21_" points="370.7,171.6 351.2,191.1 347.2,187.2 362.8,171.6 347.2,155.9 351.2,152 				"/>
			</defs>
			<clipPath id="SVGID_22_">
				<use xlink:href="#SVGID_21_"  style="overflow:visible;"/>
			</clipPath>
			<g class="st19">
				<rect x="333.2" y="138" class="st8" width="51.5" height="67.1"/>
			</g>
		</g>
		<polygon id="SVGID-5" class="st6" points="285.2,171.6 304.8,152 308.7,155.9 293.1,171.6 308.7,187.2 304.8,191.1 		"/>
		<g>
			<defs>
				<polygon id="SVGID_23_" points="285.2,171.6 304.8,152 308.7,155.9 293.1,171.6 308.7,187.2 304.8,191.1 				"/>
			</defs>
			<clipPath id="SVGID_24_">
				<use xlink:href="#SVGID_23_"  style="overflow:visible;"/>
			</clipPath>
			<g class="st20">
				<rect x="271.3" y="138" class="st8" width="51.5" height="67.1"/>
			</g>
		</g>
		
			<rect id="SVGID-6" x="301.6" y="167.6" transform="matrix(0.2589 -0.9659 0.9659 0.2589 79.8571 444.9578)" class="st8" width="56.6" height="5.6"/>
		<g>
			<defs>
				
					<rect id="SVGID_25_" x="301.6" y="167.6" transform="matrix(0.2589 -0.9659 0.9659 0.2589 79.8571 444.9578)" width="56.6" height="5.6"/>
			</defs>
			<clipPath id="SVGID_26_">
				<use xlink:href="#SVGID_25_"  style="overflow:visible;"/>
			</clipPath>
			<g class="st21">
				<rect x="304.8" y="129.6" class="st8" width="47.9" height="83.8"/>
			</g>
		</g>
		
			<image style="overflow:visible;opacity:0.3;enable-background:new    ;" width="69" height="63" xlink:href="8C08B42BE15870F8.png"  transform="matrix(1 0 0 1 214.75 146.42)">
		</image>
		<path class="st11" d="M262.1,151.2h-25l-12.5,21.7l12.5,21.7h25l12.5-21.7L262.1,151.2z M256.3,184.4h-13.4l-6.7-11.6l6.7-11.6
			h13.4l6.7,11.6L256.3,184.4z"/>
	</g>
</g>
</svg>
