<?xml version="1.0" encoding="UTF-8"?>
<svg xmlns="http://www.w3.org/2000/svg" version="1.1" viewBox="0 0 929.6 350">
  <defs>
    <style>
      .cls-1 {
        fill-rule: evenodd;
      }

      .cls-1, .cls-2 {
        fill: #fff;
      }

      .cls-3 {
        fill: #a6c7ff;
      }

      .cls-4 {
        opacity: .9;
      }

      .cls-5 {
        fill: #c9defe;
      }

      .cls-6 {
        display: none;
      }
    </style>
  </defs>
  <!-- Generator: Adobe Illustrator 28.7.1, SVG Export Plug-In . SVG Version: 1.2.0 Build 142)  -->
  <g>
    <g id="Layer_1">
      <g>
        <g>
          <path class="cls-5" d="M54.4,103.8v-5h3.7v-18.7h-3.7v-5h13.7v5h-3.7v18.7h3.7v5h-13.7Z"/>
          <path class="cls-5" d="M82.1,90.1l-2.8-5.7h0v19.4h-5.9v-28.8h6.8l7.8,13.5,2.8,5.7h0v-19.2h5.9v28.6h-6.8l-7.8-13.5Z"/>
          <path class="cls-5" d="M115,80.6v23.2h-6.2v-23.2h-7.8v-5.6h21.7v5.6h-7.6Z"/>
          <path class="cls-5" d="M127,103.8v-28.8h19.5v5.6h-13.2v5.9h11.4v5.6h-11.4v6.2h13.2v5.6c0,0-19.5,0-19.5,0Z"/>
          <path class="cls-5" d="M170.3,99.2h-.3c-.3,1.5-1,2.8-2.2,3.5-1.5,1-3.4,1.6-5.2,1.5-1.6,0-3.2-.3-4.7-.9s-2.6-1.6-3.7-2.8c-1.2-1.3-2-2.9-2.5-4.7-.7-2.1-.9-4.3-.9-6.3s.3-4.4.9-6.3c.6-1.8,1.5-3.4,2.6-4.7,1.2-1.2,2.5-2.2,4.1-2.9,1.8-.7,3.4-1,5.3-.9,2.4,0,4.7.6,6.6,1.8s3.4,2.9,4.4,5l-5,2.9c-.4-1-1.2-2.1-2.1-2.8-1-.8-2.5-1.3-3.8-1.2-1.8,0-3.4.6-4.7,1.8-1.3,1.5-1.9,3.4-1.8,5.3v4.7c0,2,.4,3.8,1.8,5.3,1.2,1.2,2.9,1.9,4.7,1.8.8,0,1.5,0,2.1-.3.7,0,1.3-.4,1.9-.8.6-.4.9-.8,1.2-1.3.3-.6.4-1.2.4-1.9v-1.5h-5.3v-5.2h11.3v16h-5.2l.3-5Z"/>
          <path class="cls-5" d="M187.8,103.8h-6.2v-28.8h13.7c1.2,0,2.4.3,3.5.7,1,.4,2,1,2.8,1.9.8.8,1.3,1.9,1.8,2.9.4,1.2.7,2.5.7,3.7,0,1.8-.4,3.5-1.3,5-.9,1.5-2.4,2.6-4,3.2l5.6,11.3h-6.9l-5-10.4h-4.5v10.6ZM194.4,88c.8,0,1.6-.3,2.2-.7.6-.6.9-1.3.8-2.1v-1.9c0-.8-.3-1.6-.8-2.1-.7-.6-1.5-.8-2.2-.7h-6.6v7.5h6.6Z"/>
        </g>
        <path class="cls-5" d="M226.2,103.8l-2.1-6.9h-9.5l-2.1,6.9h-6.2l9.4-28.7h7.7l9.3,28.6h-6.4ZM219.4,80.7h0l-3.3,10.9h6.6l-3.4-10.9Z"/>
        <g>
          <path class="cls-5" d="M245.8,80.6v23.2h-6.2v-23.2h-7.8v-5.6h21.7v5.6h-7.6Z"/>
          <path class="cls-5" d="M257.9,103.8v-28.8h19.5v5.6h-13.2v5.9h11.4v5.6h-11.4v6.2h13.2v5.6c0,0-19.5,0-19.5,0Z"/>
          <path class="cls-5" d="M292.1,104.3c-2.2,0-4.4-.4-6.3-1.3-1.8-.8-3.2-2-4.5-3.4l4.1-4.1c1.9,2.1,4.4,3.4,7.2,3.4,1.2,0,2.4-.3,3.4-.9.7-.7,1.2-1.6,1-2.5,0-.8-.3-1.5-.7-2-.8-.7-1.8-1-2.6-1l-2.8-.4c-2.5,0-4.7-1-6.6-2.8-1.5-1.6-2.2-3.7-2.1-5.9,0-1.2.3-2.4.8-3.5.6-1,1.2-2,2.1-2.8,1-.8,2.1-1.5,3.4-1.8,1.5-.4,3.1-.7,4.5-.7s3.8.3,5.7,1c1.6.7,3.1,1.8,4.3,3.1l-4.1,4.3c-.7-.8-1.6-1.5-2.5-2-1.2-.6-2.4-.8-3.7-.8-1,0-2.1,0-3.2.8-.7.4-1,1.2-1,2,0,.8.3,1.6.8,2.1.8.6,1.8.8,2.6.9l2.8.4c2.4.3,4.7,1.2,6.6,2.8,1.5,1.6,2.2,3.5,2.1,5.9,0,1.3-.3,2.5-.8,3.7-.6,1.2-1.3,2.1-2.2,2.9-1,.9-2.2,1.5-3.4,1.9-1.7.5-3.3.7-4.8.7Z"/>
        </g>
        <g>
          <path class="cls-3" d="M58.5,142.6l-5.4-24.1h5.2l2.2,11.5,1.3,6.6h0l1.5-6.6,2.6-11.5h5.7l2.6,11.5,1.5,6.6h0l1.3-6.6,2.2-11.5h4.9l-5.6,24.1h-6l-3.1-12.9-1.2-5.3h0l-1.2,5.3-3.1,12.9h-5.7Z"/>
          <path class="cls-3" d="M90.4,122.6c-.8,0-1.6,0-2.2-.7-.6-.6-.7-1.2-.7-1.9v-.8c0-.7.3-1.3.7-1.9.7-.6,1.5-.8,2.2-.7.8,0,1.6,0,2.2.7.6.6.7,1.2.7,1.9v.8c0,.7-.3,1.3-.7,1.9-.7.4-1.4.7-2.2.7ZM87.9,124.4h5.2v18.2h-5.2v-18.2Z"/>
          <path class="cls-3" d="M104.1,142.6c-1.5,0-2.9-.4-4-1.3-.9-1-1.5-2.5-1.3-4v-8.8h-2.5v-4h1.3c.6,0,1,0,1.5-.6.3-.4.4-.9.4-1.5v-2.9h4.5v4.9h3.5v4h-3.5v10.2h3.4v4h-3.2Z"/>
          <path class="cls-3" d="M111,117h5v10.4h.3c.3-.9.9-1.9,1.8-2.4,2.4-1.6,5.6-1.3,7.5.8,1,1.6,1.6,3.4,1.5,5.3v11.4h-5.2v-10.8c0-.9,0-1.9-.6-2.6-.4-.7-1.2-.9-2-.8-.4,0-.8,0-1.2,0s-.8.3-1,.6c-.3.3-.6.6-.8.8,0,.4-.3.8-.3,1.2v11.6h-5v-25.6h0Z"/>
        </g>
      </g>
      <path class="cls-2" d="M578.6,74.7v39.9h27.8v-3.2h-23.9v-15.8h22.2v-3.2h-22.2v-14.4h23.7v-3.2h-27.6ZM627.4,89.6c1.4,1.4,2.4,3.2,2.7,5.1h3.5c-.4-3.3-1.7-5.8-3.8-7.5-2.2-1.7-5-2.6-7.8-2.5-2,0-4.1.4-5.9,1.2-1.6.7-3.1,1.9-4.3,3.3-1.2,1.4-2,3.1-2.7,4.8-1.2,3.8-1.2,7.9,0,11.8.5,1.8,1.5,3.4,2.7,4.8s2.6,2.6,4.3,3.3c1.8.9,3.8,1.3,5.9,1.2,3,.1,5.9-1,8-2.9,2.2-2.2,3.5-5.1,3.8-8.2h-3.5c-.1,1.2-.4,2.2-.9,3.3-.4,1-1.1,1.8-1.8,2.6s-1.6,1.3-2.6,1.7c-1,.4-2,.6-3.1.6s-3.1-.3-4.4-1.1c-1.3-.6-2.4-1.6-3.2-2.8-.9-1.2-1.5-2.6-1.9-4-.9-2.9-.9-6.1,0-9,.4-1.4,1.1-2.8,1.9-4,.9-1.2,1.9-2.1,3.2-2.8,1.4-.7,2.9-1.1,4.4-1.1,2,.3,4,1,5.5,2.2h0ZM637,74.7v39.9h3.5v-39.9h-3.5ZM646.2,74.7v5.7h3.5v-5.7h-3.5ZM646.2,85.7v28.9h3.5v-28.9h-3.5ZM655.3,85.7v39.4h3.5v-16.1h.1c.3,1,.9,1.9,1.6,2.8.6.7,1.4,1.4,2.4,1.9s1.9,1,3,1.2c3,.7,6.1.4,8.9-.9,1.6-.7,3-1.9,4.1-3.3,1.1-1.5,1.9-3.1,2.4-4.8,1.1-3.8,1.1-7.8,0-11.7-.4-1.7-1.3-3.4-2.4-4.8s-2.5-2.6-4.1-3.3c-1.8-.9-3.7-1.3-5.8-1.2-2.2,0-4.4.5-6.3,1.6-1.8,1.1-3.2,2.7-4,4.7h-.1v-5.5h-3.3ZM677.8,95.6c.7,2.9.7,6,0,8.9-.3,1.4-.9,2.8-1.7,4-.7,1.2-1.7,2.1-2.9,2.8-1.3.7-2.9,1.2-4.3,1.1-1.6,0-3.3-.3-4.7-1.1-1.3-.6-2.4-1.6-3.1-2.8-.9-1.2-1.4-2.6-1.7-4-.3-1.5-.5-3-.5-4.5s.1-3.1.4-4.7c.3-1.4.9-2.8,1.6-4,.9-1.2,1.9-2,3.1-2.7,1.5-.7,3.2-1.1,4.8-1,1.5,0,3,.3,4.3,1.1,1.2.7,2.1,1.7,2.9,2.8,1,1.4,1.5,2.7,1.8,4.1h0ZM702.1,91.3c.4.9.6,1.8.6,2.8h3.5c0-1.4-.3-2.8-1-4.1-.5-1.2-1.3-2.1-2.2-3-1-.7-2.1-1.4-3.3-1.7-1.3-.4-2.7-.5-4.1-.5s-2.6.1-3.8.4c-1.3.3-2.5.7-3.5,1.4-1.1.6-1.9,1.5-2.6,2.6-.6,1.2-1,2.5-1,3.7s.2,2.1.6,3.1c.4.9,1,1.6,1.7,2.1.7.6,1.6,1.1,2.6,1.5,1.1.4,2.1.7,3.2,1.1l4.5,1c.9.2,1.6.4,2.4.6.7.2,1.4.5,2,1,.5.3,1.1.9,1.4,1.5s.5,1.4.5,2.1-.2,1.8-.7,2.6-1.2,1.3-1.9,1.7c-.9.4-1.7.7-2.6,1-.9.2-1.7.3-2.7.3-2.1.1-4.2-.5-5.9-1.8-1.6-1.3-2.6-3.3-2.6-5.3h-3.5c.3,3.5,1.5,6.1,3.6,7.7,2.4,1.7,5.3,2.6,8.2,2.4,1.4,0,2.8-.1,4.1-.4,1.3-.3,2.6-.7,3.6-1.5,1.1-.6,2-1.6,2.7-2.7.7-1.2,1.1-2.6,1.1-4s-.2-2.2-.7-3.3c-.4-.9-1.1-1.7-1.8-2.4-.7-.6-1.7-1.2-2.7-1.5-1-.4-1.9-.6-3-.9l-4.7-1.1c-.6-.1-1.3-.3-1.9-.6-.6-.2-1.4-.5-1.9-1-.5-.3-1.1-.9-1.5-1.4s-.6-1.3-.6-2,.2-1.6.6-2.4c.4-.6,1-1.2,1.6-1.5.6-.4,1.4-.6,2.2-.9.7-.2,1.6-.2,2.4-.2s1.9.1,2.9.3c.9.2,1.7.6,2.4,1.2.8.7,1.4,1.3,1.8,2.1h0ZM713.2,104.9c-.3-1.3-.5-2.6-.5-4h22.2c.1-2-.1-4-.5-6-.4-1.8-1.2-3.6-2.2-5.2-2.2-3.3-6-5.2-9.9-5-2,0-4.1.4-5.9,1.3-1.6.9-3,2-4.1,3.4-1.1,1.5-1.8,3.1-2.4,4.9s-.7,3.7-.7,5.6.2,4,.7,5.9c.4,1.7,1.3,3.4,2.4,4.8s2.5,2.6,4.1,3.3c1.8.9,3.8,1.3,5.9,1.2,3.6,0,6.5-.9,8.4-2.7,2.1-2,3.5-4.7,4.1-7.6h-3.5c-.4,2-1.5,4-3,5.3-1.7,1.4-3.8,2.1-6,2-1.5,0-3-.3-4.3-1.1-1.2-.6-2.1-1.6-3-2.7-.8-.8-1.4-2-1.8-3.4h0ZM730.7,94.2c.4,1.3.7,2.6.7,3.8h-18.7c.2-1.3.4-2.6,1-3.8.4-1.2,1.1-2.4,1.8-3.3.7-1,1.7-1.7,2.9-2.2,1.2-.6,2.6-.9,3.8-.9s2.7.3,3.8.9c1.1.5,2,1.4,2.9,2.2.8,1,1.4,2.1,1.8,3.3h0ZM781.6,82.5c.7,1.3,1.4,2.7,1.6,4.1h3.8c-.2-1.9-.9-3.8-1.8-5.6-1-1.6-2.2-3-3.6-4.1-1.5-1.1-3.1-1.9-4.9-2.5-4.6-1.4-9.4-1.1-13.8.9-2.2,1.1-4.3,2.7-5.9,4.6s-2.8,4.2-3.5,6.6c-1.6,5.1-1.6,10.6,0,15.7.7,2.4,1.9,4.6,3.5,6.6,1.6,1.9,3.6,3.5,5.9,4.6,2.6,1.2,5.5,1.8,8.2,1.7,2.1,0,4.4-.3,6.4-1.1,1.8-.7,3.5-1.8,5-3.2,1.5-1.5,2.7-3.1,3.4-5,1-2.1,1.5-4.4,1.7-6.6h-3.8c-.2,1.7-.6,3.4-1.3,5-.6,1.5-1.5,2.9-2.7,4.1-1.1,1.2-2.4,2.1-3.8,2.8-1.6.6-3.3,1.1-5,1-2.4.1-4.7-.4-6.8-1.5-1.8-1-3.4-2.4-4.7-4-1.3-1.7-2.1-3.6-2.7-5.7-1.2-4.2-1.2-8.7,0-12.8.5-2,1.5-4,2.7-5.7s2.8-3,4.7-4c2.1-1.1,4.5-1.5,6.8-1.5s2.8.2,4.2.6c1.3.4,2.6,1.1,3.6,1.8,1.1.9,2.1,2.1,2.8,3.2h0ZM791.4,74.7v39.9h3.5v-16.9c0-1.4.2-2.7.7-4,.4-1.2,1-2.2,1.8-3.1.7-.9,1.7-1.6,2.8-2,1.2-.5,2.5-.7,3.7-.7s2.5.2,3.5.6c.9.3,1.7,1.1,2.2,1.8.5.9,1,1.8,1.2,2.8.2,1.2.4,2.2.3,3.4v18h3.5v-18.6c0-1.6,0-3.1-.5-4.6-.3-1.3-.9-2.5-1.7-3.5-.9-1-2-1.7-3.3-2.2-1.6-.5-3.3-.9-5-.7-2,0-4,.5-5.7,1.6-1.6,1-2.9,2.5-3.5,4.2h-.1v-16h-3.4ZM822.9,104.9c-.3-1.3-.5-2.6-.5-4h22.1c0-2,0-4-.5-6-.4-1.8-1.2-3.6-2.2-5.2-2.2-3.3-6-5.2-9.9-5-2,0-4.1.4-5.9,1.3-1.6.9-3,2-4.1,3.4-1.1,1.5-1.8,3.1-2.4,4.9s-.7,3.7-.7,5.6.2,4,.7,5.9c.4,1.7,1.3,3.4,2.4,4.8s2.5,2.6,4.1,3.3c1.8.9,3.8,1.3,5.9,1.2,3.6,0,6.5-.9,8.4-2.7,2.1-2,3.5-4.7,4.1-7.6h-3.3c-.4,2-1.5,4-3,5.3-1.7,1.4-3.8,2.1-6,2-1.5,0-3-.3-4.3-1.1-1.2-.6-2.1-1.6-3-2.7-1-.8-1.6-2-1.9-3.4h0ZM840.3,94.2c.4,1.3.7,2.6.7,3.8h-18.7c.2-1.3.4-2.6,1-3.8.4-1.2,1.1-2.4,1.8-3.3.7-1,1.7-1.7,2.9-2.2,1.2-.6,2.6-.9,3.8-.9s2.7.3,3.8.9c1.1.5,2,1.4,2.9,2.2.8,1,1.4,2.1,1.8,3.3h0Z"/>
      <g>
        <path class="cls-2" d="M500,117.4l44.2-25.6v31.7l-44.2,25.6-44.1-25.6v-31.7l44.1,25.6Z"/>
        <path class="cls-2" d="M544.2,72.5l-27.5,15.8-16.7-9.6-44.1,25.7v-31.7l44.2-25.6,44.1,25.5Z"/>
      </g>
      <g class="cls-6">
        <g class="cls-4">
          <path class="cls-2" d="M600.1,313.6v-13.2h8.3v2h-6.1v3.7h5.4v2h-5.4v5.8h-2.1v-.3h-.1Z"/>
          <path class="cls-2" d="M614,313.8c-.7,0-1.3-.1-1.9-.3-.5-.3-1-.6-1.4-1s-.7-.9-.9-1.7c-.2-.6-.3-1.3-.3-2.1s0-1.4.3-2.1c.2-.6.5-1.1.9-1.7.3-.4.9-.8,1.4-1s1.2-.3,1.9-.3,1.3.1,1.9.3c.5.3,1,.6,1.4,1,.3.4.7.9.9,1.7.2.6.3,1.3.3,2.1s0,1.4-.3,2.1c-.2.6-.5,1.1-.9,1.7-.3.4-.9.8-1.4,1-.6.1-1.2.3-1.9.3ZM614,312.1c.7,0,1.3-.2,1.7-.6s.6-1,.6-2v-1.7c0-.9-.2-1.4-.6-2-.4-.4-.9-.6-1.7-.6s-1.3.2-1.7.6-.6,1-.6,2v1.7c0,.9.2,1.4.6,2,.4.4.9.6,1.7.6Z"/>
          <path class="cls-2" d="M620.8,313.6v-9.9h2.1v2h0c.2-.5.4-.9.9-1.3.4-.3,1-.5,1.9-.5h.5v2h-.8c-.8,0-1.4.2-2,.4-.4.3-.6.7-.6,1.1v6.3h-2.1q0-.1,0-.1Z"/>
          <path class="cls-2" d="M634.9,313.6h-2.2v-13.2h5.7c1.2,0,2.1.3,2.8,1s1,1.7,1,2.9-.2,1.8-.6,2.4c-.4.6-1,1-2,1.3l2.9,5.6h-2.4l-2.6-5.4h-2.6v5.4h0ZM638.3,306.4c.5,0,.9-.2,1.3-.4.3-.3.4-.7.4-1.2v-.9c0-.5-.2-.9-.4-1.2s-.7-.4-1.3-.4h-3.4v4.2h3.4Z"/>
          <path class="cls-2" d="M648.6,313.8c-.7,0-1.3-.1-2-.3-.5-.3-1-.6-1.4-1s-.7-.9-.9-1.7c-.2-.6-.3-1.3-.3-2.1s0-1.4.3-2.1c.2-.6.5-1.1.9-1.7.3-.4.9-.8,1.4-1s1.2-.3,2-.3,1.3.1,2,.3c.5.3,1,.6,1.4,1s.6.9.8,1.6c.2.6.3,1.2.3,2v.8h-6.7v.3c0,.8.3,1.4.7,1.9s1,.7,2,.7,1.1-.2,1.6-.4c.4-.3.8-.6,1-1l1.2,1.2c-.3.6-.9,1-1.6,1.4-1,.2-1.7.4-2.7.4ZM648.6,305c-.3,0-.7.1-.9.2s-.5.3-.8.5c-.2.3-.3.5-.5.8,0,.3-.2.7-.2,1v.2h4.6v-.2c0-.8-.2-1.4-.6-1.9-.4-.3-1-.6-1.6-.6Z"/>
          <path class="cls-2" d="M661.5,311.9h0c-.3.6-.6,1-1.1,1.4-.5.3-1,.5-1.8.5-1.2,0-2.2-.4-2.9-1.3s-1-2.2-1-3.7.3-2.9,1-3.7c.7-.9,1.7-1.3,2.9-1.3s1.2.2,1.8.5c.5.3.9.8,1,1.4h0v-5.8h2.1v14h-2.1v-2ZM659.3,312c.6,0,1.1-.2,1.6-.4.4-.3.6-.7.6-1.2v-3.4c0-.5-.2-.9-.6-1.2-.4-.3-.9-.4-1.6-.4s-1.3.3-1.8.7c-.4.4-.6,1-.6,1.9v1.7c0,.8.2,1.4.6,1.9.4.3,1,.4,1.8.4Z"/>
          <path class="cls-2" d="M679.3,307.8h-6v5.8h-2.1v-13.2h2.1v5.6h6v-5.6h2.1v13.2h-2.1v-5.8Z"/>
          <path class="cls-2" d="M691.8,313.6c-.5,0-.9-.2-1.2-.4-.3-.3-.4-.7-.5-1.2h0c-.2.6-.5,1-1,1.4-.5.3-1.1.4-1.9.4s-1.9-.3-2.4-.8-.8-1.2-.8-2.1.3-1.8,1-2.2c.7-.5,1.8-.7,3.1-.7h1.8v-.9c0-.6-.2-1-.5-1.4-.3-.3-.9-.5-1.6-.5s-1,.1-1.4.3c-.3.3-.7.6-.9.9l-1.2-1.1c.3-.5.8-1,1.4-1.4.6-.3,1.4-.5,2.4-.5s2.3.3,3,.9,1,1.4,1,2.6v5h1v1.7h-1.2ZM687.5,312.3c.6,0,1.1-.2,1.6-.4.4-.3.6-.7.6-1.1v-1.4h-1.8c-1.4,0-2.1.4-2.1,1.3v.3c0,.4.2.8.4.9.5.2.8.4,1.3.4Z"/>
          <path class="cls-2" d="M697.6,313.6c-.7,0-1.2-.2-1.7-.5-.3-.3-.5-.9-.5-1.6v-6h-1.6v-1.7h.9c.3,0,.6-.1.7-.3.2-.2.2-.4.2-.7v-1.8h1.9v2.7h2.1v1.7h-2.1v6.5h2v1.7h-1.9Z"/>
          <path class="cls-2" d="M711.3,313.8c-1.8,0-3.1-.6-4.1-1.8-.9-1.1-1.4-2.9-1.4-5.1s0-2.1.3-3c.3-.9.6-1.6,1.1-2.1.4-.6,1-1,1.8-1.3s1.4-.4,2.4-.4,2.1.3,2.9.8c.8.5,1.4,1.2,1.9,2.2l-1.9.9c-.3-.6-.6-1.1-1-1.4s-1.1-.5-1.9-.5-1.9.3-2.5,1-.9,1.7-.9,2.9v2c0,1.2.3,2.2.9,2.9s1.4,1,2.5,1,1.4-.2,2-.6.9-.9,1.1-1.6l1.8,1c-.4.9-1,1.8-1.9,2.3-.9.6-1.9.8-3.1.8Z"/>
          <path class="cls-2" d="M722.2,313.8c-.7,0-1.3-.1-1.9-.3-.5-.3-1-.6-1.4-1s-.7-.9-.9-1.7c-.2-.6-.3-1.3-.3-2.1s0-1.4.3-2.1c.2-.6.5-1.1.9-1.7.3-.4.9-.8,1.4-1,.5-.3,1.2-.3,1.9-.3s1.3.1,1.9.3c.5.3,1,.6,1.4,1,.3.4.7.9.9,1.7.2.6.3,1.3.3,2.1s0,1.4-.3,2.1c-.2.6-.5,1.1-.9,1.7-.3.4-.9.8-1.4,1-.7.1-1.3.3-1.9.3ZM722.2,312.1c.7,0,1.3-.2,1.7-.6s.6-1,.6-2v-1.7c0-.9-.2-1.4-.6-2-.4-.4-.9-.6-1.7-.6s-1.3.2-1.7.6-.6,1-.6,2v1.7c0,.9.2,1.4.6,2,.4.4,1,.6,1.7.6Z"/>
          <path class="cls-2" d="M735.2,311.9h0c-.3.6-.6,1-1.1,1.4-.5.3-1,.5-1.8.5-1.2,0-2.2-.4-2.9-1.3s-1-2.2-1-3.7.3-2.9,1-3.7c.7-.9,1.7-1.3,2.9-1.3s1.2.2,1.8.5c.5.3.9.8,1,1.4h0v-5.8h2.1v14h-2.1v-2ZM733,312c.6,0,1.1-.2,1.6-.4.4-.3.6-.7.6-1.2v-3.4c0-.5-.2-.9-.6-1.2-.4-.3-.9-.4-1.6-.4s-1.3.3-1.8.7c-.4.4-.6,1-.6,1.9v1.7c0,.8.2,1.4.6,1.9.5.3,1,.4,1.8.4Z"/>
          <path class="cls-2" d="M744.1,313.8c-.7,0-1.3-.1-2-.3-.5-.3-1-.6-1.4-1s-.7-.9-.9-1.7c-.2-.6-.3-1.3-.3-2.1s0-1.4.3-2.1c.2-.6.5-1.1.9-1.7.3-.4.9-.8,1.4-1s1.2-.3,2-.3,1.3.1,2,.3c.5.3,1,.6,1.4,1s.6.9.8,1.6c.2.6.3,1.2.3,2v.8h-6.7v.3c0,.8.3,1.4.7,1.9s1,.7,2,.7,1.1-.2,1.6-.4c.4-.3.8-.6,1-1l1.2,1.2c-.3.6-.9,1-1.6,1.4-1,.2-1.8.4-2.7.4ZM744.1,305c-.3,0-.7.1-.9.2-.3.1-.5.3-.8.5-.2.3-.3.5-.5.8,0,.3-.2.7-.2,1v.2h4.6v-.2c0-.8-.2-1.4-.6-1.9-.3-.3-1-.6-1.6-.6Z"/>
          <path class="cls-2" d="M753,313.6h-2.1v-13.2h5.7c1.2,0,2.1.3,2.8,1s1,1.7,1,2.9-.2,1.8-.6,2.4c-.4.6-1,1-2,1.3l2.9,5.6h-2.4l-2.6-5.4h-2.6v5.4h-.1ZM756.4,306.4c.5,0,.9-.2,1.3-.4.3-.3.4-.7.4-1.2v-.9c0-.5-.2-.9-.4-1.2s-.7-.4-1.3-.4h-3.4v4.2h3.4Z"/>
          <path class="cls-2" d="M766.8,313.8c-.7,0-1.3-.1-2-.3-.5-.3-1-.6-1.4-1s-.7-.9-.9-1.7c-.2-.6-.3-1.3-.3-2.1s0-1.4.3-2.1c.2-.6.5-1.1.9-1.7.3-.4.9-.8,1.4-1s1.2-.3,2-.3,1.3.1,2,.3c.5.3,1,.6,1.4,1s.6.9.8,1.6c.2.6.3,1.2.3,2v.8h-6.7v.3c0,.8.3,1.4.7,1.9s1,.7,2,.7,1.1-.2,1.6-.4c.4-.3.8-.6,1-1l1.2,1.2c-.3.6-.9,1-1.6,1.4-1.1.2-1.8.4-2.7.4ZM766.8,305c-.3,0-.7.1-.9.2s-.5.3-.8.5c-.2.3-.3.5-.5.8,0,.3-.2.7-.2,1v.2h4.6v-.2c0-.8-.2-1.4-.6-1.9-.4-.3-1-.6-1.6-.6Z"/>
          <path class="cls-2" d="M780.7,313.6c-.5,0-.9-.2-1.2-.4-.3-.3-.4-.7-.5-1.2h0c-.2.6-.5,1-1,1.4-.5.3-1.1.4-1.9.4s-1.9-.3-2.4-.8-.8-1.2-.8-2.1.3-1.8,1-2.2c.7-.5,1.8-.7,3.1-.7h1.8v-.9c0-.6-.2-1-.5-1.4-.3-.3-.9-.5-1.6-.5s-1,.1-1.4.3c-.3.3-.7.6-.9.9l-1.2-1.1c.3-.5.8-1,1.4-1.4.6-.3,1.4-.5,2.4-.5s2.3.3,3,.9,1,1.4,1,2.6v5h1v1.7h-1.2ZM776.5,312.3c.6,0,1.1-.2,1.6-.4.4-.3.6-.7.6-1.1v-1.4h-1.7c-1.4,0-2.1.4-2.1,1.3v.3c0,.4.2.8.4.9.3.2.7.4,1.2.4Z"/>
          <path class="cls-2" d="M790.1,311.9h0c-.3.6-.6,1-1.1,1.4-.5.3-1,.5-1.8.5-1.2,0-2.2-.4-2.9-1.3s-1-2.2-1-3.7.3-2.9,1-3.7c.7-.9,1.7-1.3,2.9-1.3s1.2.2,1.8.5c.5.3.9.8,1,1.4h0v-5.8h2.1v14h-2.1v-2ZM787.8,312c.6,0,1.1-.2,1.6-.4.4-.3.6-.7.6-1.2v-3.4c0-.5-.2-.9-.6-1.2-.4-.3-.9-.4-1.6-.4s-1.3.3-1.8.7c-.4.4-.6,1-.6,1.9v1.7c0,.8.2,1.4.6,1.9.5.3,1.2.4,1.8.4Z"/>
          <path class="cls-2" d="M801.1,303.7h2l-4.1,11.8c0,.3-.3.6-.3.9-.2.3-.3.4-.5.5-.2.2-.4.3-.7.3s-.6.1-.9.1h-1.2v-1.7h1.7l.5-1.7-3.6-10.3h2.1l2,5.8.5,2.1h0l.6-2.1,1.8-5.7Z"/>
          <path class="cls-2" d="M811.4,313.6l-3.1-13.2h2.2l1.3,6.4.9,4.3h0l1-4.3,1.6-6.4h2.4l1.6,6.4,1,4.3h0l.9-4.3,1.4-6.4h2.1l-3.2,13.2h-2.5l-1.7-6.8-.9-4h0l-.9,4-1.8,6.8h-2.5Z"/>
          <path class="cls-2" d="M830.4,313.8c-.7,0-1.3-.1-1.9-.3-.5-.3-1-.6-1.4-1s-.7-.9-.9-1.7c-.2-.6-.3-1.3-.3-2.1s0-1.4.3-2.1c.2-.6.5-1.1.9-1.7.3-.4.9-.8,1.4-1s1.2-.3,1.9-.3,1.3.1,1.9.3c.5.3,1,.6,1.4,1,.3.4.7.9.9,1.7.2.6.3,1.3.3,2.1s0,1.4-.3,2.1c-.2.6-.5,1.1-.9,1.7-.3.4-.9.8-1.4,1-.6.1-1.2.3-1.9.3ZM830.4,312.1c.7,0,1.3-.2,1.7-.6s.6-1,.6-2v-1.7c0-.9-.2-1.4-.6-2-.4-.4-.9-.6-1.7-.6s-1.3.2-1.7.6-.6,1-.6,2v1.7c0,.9.2,1.4.6,2,.5.4,1,.6,1.7.6Z"/>
          <path class="cls-2" d="M837.2,313.6v-9.9h2.1v2h0c.2-.5.4-.9.9-1.3.4-.3,1-.5,1.9-.5h.5v2h-.8c-.8,0-1.4.2-2,.4-.4.3-.6.7-.6,1.1v6.3h-2.1Z"/>
          <path class="cls-2" d="M844.5,299.6h2.1v8.6h0l1.4-1.8,2.4-2.7h2.4l-3.4,3.8,3.8,6h-2.5l-2.8-4.8-1.4,1.4v3.2h-2.1v-13.7h0Z"/>
          <path class="cls-2" d="M857.8,313.8c-.9,0-1.8-.2-2.4-.5-.6-.3-1.1-.8-1.7-1.4l1.3-1.2c.3.4.8.8,1.2,1,.4.3.9.3,1.6.3s1-.1,1.3-.3.4-.5.4-.9,0-.6-.3-.8c-.2-.3-.6-.3-1-.4h-.9c-1-.2-1.9-.5-2.4-1-.6-.4-.9-1.1-.9-2.1s0-.9.3-1.3c.2-.3.4-.7.8-.9.3-.3.7-.4,1.1-.6.4-.2.9-.2,1.4-.2.9,0,1.6.2,2.2.4.5.3,1,.7,1.4,1.1l-1.3,1.2c-.3-.3-.6-.5-.9-.8-.4-.3-.9-.3-1.4-.3s-.9.1-1.2.3c-.3.3-.4.5-.4.9s0,.7.3.9c.3.2.6.3,1.1.4h.9c1,.3,1.9.6,2.4,1s.8,1.1.8,2,0,.9-.3,1.3c-.2.3-.4.7-.8.9-.3.3-.8.5-1.2.6-.2.3-.7.4-1.4.4Z"/>
          <path class="cls-2" d="M864,303.7h2.1v1.7h0c.2-.6.5-1,1-1.4.5-.3,1-.5,1.8-.5,1.2,0,2.2.4,2.9,1.3s1,2.2,1,3.7-.3,2.9-1,3.7c-.7.9-1.7,1.3-2.9,1.3s-1.2-.2-1.8-.5c-.5-.3-.9-.8-1-1.4h0v5.4h-2.1v-13.3ZM868.3,312c.7,0,1.3-.3,1.8-.7.4-.4.6-1,.6-1.9v-1.7c0-.8-.2-1.4-.6-1.9-.4-.4-.9-.7-1.8-.7s-1.1.2-1.6.4c-.4.3-.6.7-.6,1.2v3.4c0,.5.2.9.6,1.2.5.6,1,.7,1.6.7Z"/>
          <path class="cls-2" d="M882.5,313.6c-.5,0-.9-.2-1.2-.4-.3-.3-.4-.7-.5-1.2h-.2c-.2.6-.5,1-1,1.4-.5.3-1.1.4-1.9.4s-1.9-.3-2.4-.8-.8-1.2-.8-2.1.3-1.8,1-2.2c.7-.5,1.8-.7,3.1-.7h1.8v-.9c0-.6-.2-1-.5-1.4-.3-.3-.9-.5-1.6-.5s-1,.1-1.4.3c-.3.3-.7.6-.9.9l-1.2-1.1c.3-.5.8-1,1.4-1.4.6-.3,1.4-.5,2.4-.5s2.3.3,3,.9,1,1.4,1,2.6v5h1v1.7h-1.1ZM878.3,312.3c.6,0,1.1-.2,1.6-.4.4-.3.6-.7.6-1.1v-1.4h-1.8c-1.4,0-2.1.4-2.1,1.3v.3c0,.4.2.8.4.9.4.2.8.4,1.3.4Z"/>
          <path class="cls-2" d="M889.5,313.8c-.7,0-1.3-.1-2-.3-.5-.3-1-.6-1.4-1s-.7-.9-.9-1.7c-.2-.6-.3-1.3-.3-2.1s0-1.4.3-2.1c.2-.6.5-1.1.9-1.7.3-.4.9-.8,1.4-1s1.2-.3,2-.3,1.8.3,2.5.7c.6.4,1,1,1.4,1.8l-1.7.8c-.2-.4-.3-.8-.7-1-.3-.3-.8-.4-1.4-.4s-1.3.3-1.8.7c-.3.4-.6,1-.6,1.9v1.8c0,.8.2,1.4.6,1.9.3.4.9.7,1.8.7s1-.2,1.4-.4c.3-.3.6-.7.9-1.2l1.6.9c-.3.8-.8,1.4-1.4,1.9-.8,0-1.6.1-2.6.1Z"/>
          <path class="cls-2" d="M899.1,313.8c-.7,0-1.3-.1-2-.3-.5-.3-1-.6-1.4-1-.3-.4-.7-.9-.9-1.7-.2-.6-.3-1.3-.3-2.1s0-1.4.3-2.1c.2-.6.5-1.1.9-1.7.3-.4.9-.8,1.4-1,.5-.3,1.2-.3,2-.3s1.3.1,2,.3c.5.3,1,.6,1.4,1,.3.4.6.9.8,1.6.2.6.3,1.2.3,2v.8h-6.7v.3c0,.8.3,1.4.7,1.9s1,.7,2,.7,1.1-.2,1.6-.4c.4-.3.8-.6,1-1l1.2,1.2c-.3.6-.9,1-1.6,1.4-1,.2-1.7.4-2.7.4ZM899.1,305c-.3,0-.7.1-.9.2s-.5.3-.8.5c-.2.3-.3.5-.5.8,0,.3-.2.7-.2,1v.2h4.6v-.2c0-.8-.2-1.4-.6-1.9-.3-.3-1-.6-1.6-.6Z"/>
          <path class="cls-2" d="M909,313.8c-.9,0-1.8-.2-2.4-.5-.6-.3-1.2-.8-1.7-1.4l1.3-1.2c.3.4.8.8,1.2,1,.4.3.9.3,1.6.3s1-.1,1.3-.3c.3-.3.4-.5.4-.9s0-.6-.3-.8c-.2-.3-.6-.3-1-.4h-.9c-1-.2-1.9-.5-2.4-1-.6-.4-.9-1.1-.9-2.1s0-.9.3-1.3c.2-.3.4-.7.8-.9.3-.3.7-.4,1.1-.6.4-.2.9-.2,1.4-.2.9,0,1.6.2,2.2.4.5.3,1,.7,1.4,1.1l-1.3,1.2c-.3-.3-.6-.5-.9-.8-.4-.3-.9-.3-1.4-.3s-.9.1-1.2.3c-.3.3-.4.5-.4.9s0,.7.3.9c.3.2.6.3,1.1.4h.9c1,.3,1.9.6,2.4,1s.8,1.1.8,2,0,.9-.3,1.3c-.2.3-.4.7-.8.9-.3.3-.8.5-1.2.6-.3.3-.9.4-1.4.4Z"/>
        </g>
        <g>
          <polygon class="cls-2" points="789.3 191.5 784.2 196.7 797.2 209.8 784.2 222.9 789.3 228 807.6 209.8 789.3 191.5"/>
          <polygon class="cls-2" points="767.4 191.5 772.6 196.7 759.5 209.8 772.6 222.9 767.4 228 749.1 209.8 767.4 191.5"/>
          <path class="cls-2" d="M715.1,213.1h0l-2.6-1.5v-49h-7.3v51.1c0,1.3.7,2.5,1.8,3.2l4.4,2.6,39.4,22.9,3.7-6.3-39.4-23Z"/>
          <path class="cls-2" d="M754.9,134c-1.1-.7-2.5-.7-3.6,0l-14.7,8.4c-1.1.6-1.8,1.9-1.8,3.2v31.7h7.3v-29.6l11-6.3,40.1,23.3v19.8h7.3v-21.9c0-1.3-.7-2.5-1.8-3.1"/>
          <rect class="cls-2" x="720.1" y="151.6" width="7.3" height="36.5"/>
        </g>
        <g>
          <path class="cls-2" d="M599.2,290.7v-3.2h3.3v-17.6h-3.3v-3.2h10.4v3.2h-3.3v17.6h3.3v3.2h-10.4Z"/>
          <path class="cls-2" d="M614.5,266.7h10.6c3.9,0,6.4,2.4,6.4,6.2s-2.2,4.9-4.2,5.1v.2c2,.1,5,1.6,5,5.6s-2.6,6.9-6.2,6.9h-11.7v-24h.1ZM618.4,276.9h6c1.9,0,3-1,3-2.8v-1.1c0-1.8-1.1-2.8-3-2.8h-6v6.7ZM618.4,287.3h6.7c2,0,3.2-1.1,3.2-3.1v-1.2c0-2-1.2-3.1-3.2-3.1h-6.7v7.4Z"/>
          <path class="cls-2" d="M637.1,266.7h4.6l6.4,12.2h.2l6.4-12.2h4.4v23.9h-3.7v-18.3h-.2l-1.9,3.9-5.2,9.6-5.2-9.6-1.9-3.9h-.2v18.3h-3.7v-23.9h0Z"/>
          <path class="cls-2" d="M676.7,290.7l-5.7-23.9h3.9l2.4,11.5,1.7,8h0l1.9-8,2.8-11.5h4.3l2.8,11.5,1.9,7.9h0l1.8-7.9,2.5-11.5h3.8l-5.9,23.9h-4.4l-3.1-12.4-1.6-7.3h0l-1.8,7.3-3.1,12.4h-4.4Z"/>
          <path class="cls-2" d="M717.1,290.7c-2,0-3-1.2-3.2-3h-.2c-.7,2.2-2.6,3.4-5.2,3.4-3.7,0-5.8-2.1-5.8-5.3s2.6-5.4,7.6-5.4h3.2v-1.5c0-2.2-1.2-3.4-3.7-3.4s-3.4,1-4.3,2.4l-2.2-2c1.2-2,3.3-3.5,6.7-3.5s7.2,2.3,7.2,6.2v9h1.9v3.1h-2ZM713.5,285.4v-2.6h-3.2c-2.6,0-3.9.9-3.9,2.4v.6c0,1.6,1.2,2.4,3,2.4,2.4,0,4.1-1.1,4.1-2.8Z"/>
          <path class="cls-2" d="M721.4,290.7v-3l9.6-11.8h-9.3v-3.1h13.7v2.9l-9.7,11.9h9.9v3.1h-14.2Z"/>
          <path class="cls-2" d="M739.2,267.7v-.6c0-1.1.7-2,2.2-2s2.2.8,2.2,2v.6c0,1.1-.7,2-2.2,2-1.5-.1-2.2-.9-2.2-2ZM739.5,272.8h3.7v17.8h-3.7v-17.8Z"/>
          <path class="cls-2" d="M757,266.7h8.5c6.1,0,10.1,4,10.1,12s-4,12-10.1,12h-8.5v-24ZM765.5,287.2c3.6,0,6-2.3,6-6.6v-3.8c0-4.3-2.4-6.6-6-6.6h-4.6v17.1h4.6Z"/>
          <path class="cls-2" d="M778.9,281.8c0-5.7,3.1-9.3,8.2-9.3s7.9,3.9,7.9,8.9v1.4h-12.2v.6c0,2.7,1.7,4.7,4.7,4.7s3.7-1,4.7-2.7l2.2,2.2c-1.3,2.2-3.9,3.6-7.3,3.6-5-.1-8.2-3.7-8.2-9.4ZM782.8,280v.2h8.3v-.3c0-2.7-1.5-4.6-4-4.6-2.5,0-4.3,2-4.3,4.7Z"/>
          <path class="cls-2" d="M802.8,290.7l-6.1-17.8h3.7l2.7,8.1,1.8,6.2h.2l1.8-6.2,2.8-8.1h3.6l-6.1,17.8h-4.4Z"/>
          <path class="cls-2" d="M815,281.8c0-5.7,3.1-9.3,8.2-9.3s7.9,3.9,7.9,8.9v1.4h-12.2v.6c0,2.7,1.7,4.7,4.7,4.7s3.7-1,4.7-2.7l2.2,2.2c-1.3,2.2-3.9,3.6-7.3,3.6-5.1-.1-8.2-3.7-8.2-9.4ZM818.9,280v.2h8.3v-.3c0-2.7-1.5-4.6-4-4.6-2.6,0-4.3,2-4.3,4.7Z"/>
          <path class="cls-2" d="M839.1,290.7c-2.5,0-3.8-1.4-3.8-3.7v-21.7h3.7v22.3h2.5v3.1h-2.4Z"/>
          <path class="cls-2" d="M843.8,281.8c0-5.7,3.2-9.3,8.2-9.3s8.2,3.6,8.2,9.3-3.2,9.3-8.2,9.3-8.2-3.6-8.2-9.3ZM856.3,283.3v-3c0-3.2-1.7-4.7-4.3-4.7s-4.3,1.6-4.3,4.7v3c0,3.2,1.7,4.7,4.3,4.7s4.3-1.6,4.3-4.7Z"/>
          <path class="cls-2" d="M864.4,272.8h3.7v3h.2c.8-2.1,2.6-3.4,5-3.4,4.5,0,7.1,3.5,7.1,9.3s-2.6,9.3-7.1,9.3-4.3-1.3-5-3.4h-.2v9.8h-3.7v-24.6ZM876.5,283.3v-3.1c0-2.7-1.7-4.6-4.3-4.6s-4,1.2-4,3.1v6.1c0,1.8,1.8,3.1,4,3.1s4.3-1.9,4.3-4.6Z"/>
          <path class="cls-2" d="M883.5,281.8c0-5.7,3.1-9.3,8.2-9.3s7.9,3.9,7.9,8.9v1.4h-12.2v.6c0,2.7,1.7,4.7,4.7,4.7s3.7-1,4.7-2.7l2.2,2.2c-1.3,2.2-3.9,3.6-7.3,3.6-5.1-.1-8.2-3.7-8.2-9.4ZM887.4,280v.2h8.3v-.3c0-2.7-1.5-4.6-4-4.6-2.6,0-4.3,2-4.3,4.7Z"/>
          <path class="cls-2" d="M903.8,290.7v-17.8h3.7v3.4h.2c.5-1.8,2.1-3.4,4.9-3.4h1v3.6h-1.5c-3,0-4.6,1-4.6,2.8v11.4h-3.7Z"/>
        </g>
      </g>
      <g>
        <path class="cls-2" d="M515.7,255c5.2,0,12.2-.8,15.7-4.4.9-1,1.6-2.1,1.9-3.5,0-.2.1-.5.1-.7,0-.5.1-1,.1-1.5,0-.7,0-1.3-.2-2l-4.4-18.9c-1-4.2-1.9-6-9.2-9.7-5.7-2.9-18-7.7-21.6-7.7s-4.4,4.4-8.4,4.4-6.8-3.3-10.4-3.3-5.8,2.4-7.5,7.3c0,0-4.9,13.8-5.5,15.9-.1.4-.2.7-.1,1.1,0,5.4,21.2,23,49.6,23Z"/>
        <path class="cls-2" d="M534.7,248.4c1,4.8,1,5.3,1,5.9,0,8.2-9.2,12.7-21.3,12.7s0,0,0,0,0,0,0,0c-27.3,0-51.2-16-51.2-26.6,0-1.5.3-2.9.9-4.3-9.8.5-22.5,2.3-22.5,13.5,0,18.4,43.5,41,78,41s33.1-12,33.1-21.4-6.4-15.9-18-20.9Z"/>
        <path class="cls-2" d="M534.7,248.4s0,0,0,0c0,0,0,0,0,0h0Z"/>
      </g>
      <g>
        <g>
          <path class="cls-2" d="M735.6,261.9h7c5.2,0,8.5,3.5,8.5,10.4s-3.3,10.4-8.5,10.4h-7v-20.8ZM742.5,280.5c3.4,0,5.8-2.4,5.8-6.5v-3.4c0-4.1-2.4-6.5-5.8-6.5h-4.5v16.4h4.5Z"/>
          <path class="cls-2" d="M754.2,275c0-4.9,2.7-8.1,6.9-8.1s6.7,3.2,6.7,7.5v1.1h-11.1v.7c0,2.7,1.7,4.7,4.6,4.7s3.4-1,4.2-2.7l1.7,1.2c-1,2.1-3.2,3.5-6.1,3.5-4.2,0-6.9-3.2-6.9-8.1ZM756.7,273.6v.2h8.5v-.3c0-2.7-1.6-4.5-4.1-4.5s-4.4,2-4.4,4.7Z"/>
          <path class="cls-2" d="M774.9,282.7l-5.4-15.4h2.4l2.7,7.6,1.7,5.3h.1l1.7-5.3,2.7-7.6h2.3l-5.4,15.4h-2.8Z"/>
          <path class="cls-2" d="M791.9,279.4l1.8-1.6c1.5,1.9,3.2,3,5.6,3s4.6-1.6,4.6-3.9-1.1-3-3.9-3.6l-1.7-.4c-3.8-.9-5.9-2.5-5.9-5.7s2.8-5.7,6.9-5.7,5.3,1.2,6.9,3.4l-1.9,1.4c-1.1-1.6-2.7-2.6-5.1-2.6s-4.3,1.2-4.3,3.4,1.3,2.9,3.9,3.5l1.7.4c4.1.9,5.8,2.7,5.8,5.8s-2.7,6.3-7.2,6.3-5.7-1.4-7.4-3.6Z"/>
          <path class="cls-2" d="M810.5,267.3h2.4v2.5h.1c.8-1.9,2.4-2.9,4.5-2.9,3.9,0,6.3,3.1,6.3,8.1s-2.4,8.1-6.3,8.1-3.6-1-4.5-2.9h-.1v8.5h-2.4v-21.4ZM821.3,276.3v-2.6c0-2.7-1.7-4.6-4.4-4.6s-4,1.3-4,3v5.7c0,2,1.8,3.1,4,3.1s4.4-1.9,4.4-4.6Z"/>
          <path class="cls-2" d="M839,282.7c-1.8,0-2.5-1.1-2.7-2.5h-.1c-.7,1.9-2.3,2.9-4.4,2.9-3.3,0-5.2-1.8-5.2-4.7s2.1-4.5,6.6-4.5h3v-1.5c0-2.2-1.2-3.4-3.6-3.4s-3.1.9-3.9,2.3l-1.4-1.3c.8-1.6,2.7-3,5.5-3s5.9,1.9,5.9,5.2v8.5h1.8v2.1h-1.3ZM836.2,278.2v-2.5h-3.2c-2.7,0-3.9.8-3.9,2.3v.6c0,1.5,1.2,2.4,3,2.4s4.1-1.2,4.1-2.8Z"/>
          <path class="cls-2" d="M842.7,275c0-4.9,2.5-8.1,6.9-8.1s4.9,1.5,5.8,3.6l-2,1c-.6-1.6-1.9-2.5-3.8-2.5-2.8,0-4.3,1.9-4.3,4.6v2.6c0,2.7,1.5,4.6,4.3,4.6s3.3-.9,4.2-2.7l1.7,1.2c-1,2.2-3,3.6-5.9,3.6-4.3,0-6.9-3.1-6.9-8.1Z"/>
          <path class="cls-2" d="M857.5,275c0-4.9,2.7-8.1,6.9-8.1s6.7,3.2,6.7,7.5v1.1h-11.1v.7c0,2.7,1.7,4.7,4.6,4.7s3.4-1,4.2-2.7l1.7,1.2c-1,2.1-3.2,3.5-6.1,3.5-4.2,0-6.9-3.2-6.9-8.1ZM860,273.6v.2h8.5v-.3c0-2.7-1.6-4.5-4.1-4.5s-4.4,2-4.4,4.7Z"/>
          <path class="cls-2" d="M873.5,280l1.7-1.4c1.2,1.5,2.6,2.4,4.6,2.4s3.2-.9,3.2-2.5-.7-2.1-2.7-2.4l-1.2-.2c-2.8-.4-5-1.6-5-4.4s2.4-4.5,5.5-4.5,4.1.9,5.4,2.5l-1.6,1.4c-.7-1-2-1.9-4-1.9s-3,.9-3,2.4,1,2.1,3,2.4l1.2.2c3.4.5,4.7,2,4.7,4.3s-2.2,4.8-5.7,4.8-4.7-1.2-6.1-3Z"/>
        </g>
        <g>
          <path class="cls-2" d="M585.6,282.4c-6.6,0-11.7-5.1-11.7-11.6s5.2-11.6,11.7-11.6,11.8,5.1,11.8,11.6c0,6.5-5.2,11.6-11.8,11.6ZM585.6,262.3c-4.7,0-8.3,3.7-8.3,8.5s3.6,8.5,8.3,8.5,8.3-3.7,8.3-8.5-3.6-8.5-8.3-8.5Z"/>
          <path class="cls-2" d="M600.6,265.6h3.2v1.6c1.4-1.2,3.2-1.9,5-1.9,4.7,0,8.3,3.7,8.3,8.5s-3.7,8.5-8.4,8.5-3.5-.5-4.9-1.6v8h-3.2v-23.1ZM603.8,270.2v7.4c1,1.2,2.8,1.9,4.6,1.9,3.2,0,5.6-2.4,5.6-5.7s-2.4-5.7-5.6-5.7-3.5.7-4.6,1.9Z"/>
          <path class="cls-2" d="M628.1,282.4c-4.8,0-8.6-3.7-8.6-8.5s3.6-8.5,8.2-8.5,7.9,3.8,7.9,8.6v1h-13c.4,2.7,2.8,4.8,5.5,4.7,1.5,0,3-.5,4.2-1.4l2.1,2c-1.8,1.5-4.1,2.3-6.4,2.2ZM622.7,272.5h9.7c-.5-2.5-2.4-4.4-4.8-4.4-2.4,0-4.4,1.8-4.9,4.4Z"/>
          <path class="cls-2" d="M638.8,265.6h3.2v1.6c1.3-1.3,3.1-2,4.9-1.9,3.8,0,6.4,2.6,6.4,6.4v10.3h-3.2v-9.8c0-2.6-1.6-4.2-4.1-4.2-1.6,0-3.2.8-4.1,2.1v11.8h-3.2v-16.4Z"/>
          <path class="cls-2" d="M657.5,276c2.4,2.4,5,3.5,7.8,3.5s5.5-1.5,5.5-3.8-1.3-3-4.6-3.5l-3.8-.6c-4.1-.7-6.2-2.6-6.2-5.9s3.3-6.5,8.3-6.5,6.5,1.1,9.1,3.1l-1.9,2.6c-2.4-1.9-4.9-2.8-7.4-2.8s-4.9,1.4-4.9,3.4,1.1,2.7,4,3.2l3.6.6c4.8.8,6.9,2.8,6.9,6.3s-3.6,6.9-9,6.9-7.1-1.4-9.7-4.1l2-2.4Z"/>
          <path class="cls-2" d="M676.8,259.5l3.2-.7v8.5c1.3-1.3,3.1-2,4.9-1.9,3.8,0,6.4,2.6,6.4,6.4v10.3h-3.2v-9.8c0-2.6-1.6-4.2-4.1-4.2-1.6,0-3.2.8-4.1,2.1v11.8h-3.2v-22.6Z"/>
          <path class="cls-2" d="M694.7,261c0-1.1.9-2,1.9-2h0c1.1,0,1.9,1,1.9,2.1,0,1-.9,1.9-1.9,1.9-1,0-1.9-.9-1.9-2h0ZM698.4,282.1h-3.2v-16.4h3.2v16.4Z"/>
          <path class="cls-2" d="M704.6,265.6v-2.5c0-3.4,1.9-5.3,5.6-5.3s1.6,0,2.3.3v2.8c-.7-.2-1.4-.3-2-.3-1.8,0-2.6.8-2.6,2.5v2.4h4.7v2.7h-4.7v13.7h-3.2v-13.7h-3.8v-2.7h3.8Z"/>
          <path class="cls-2" d="M717.4,268.4h-3.5v-2.7h3.5v-4.2l3.2-.8v5h4.8v2.7h-4.8v8.9c0,1.7.7,2.3,2.4,2.3s1.6,0,2.4-.4v2.7c-1,.3-2,.5-3.1.5-3.2,0-4.9-1.5-4.9-4.3v-9.7Z"/>
        </g>
        <path class="cls-2" d="M713,238.2c0,4.6,2.8,6.9,7.9,6.9,1.6,0,3.1-.3,4.6-.7v-5.4c-1,.3-2,.5-3,.5-2.1,0-2.9-.7-2.9-2.6v-8.3h6.1v-5.5h-6.1v-7l-6.6,1.4v5.6h-4.4v5.5h4.4v9.6ZM692.3,238.3c0-1.4,1.4-2.1,3.6-2.1s2.7.2,3.9.5v2.8c-1.3.7-2.7,1-4.2,1-2.1,0-3.4-.9-3.4-2.2M694.3,245.2c2.3,0,4.2-.5,6-1.7v1.3h6.6v-13.9c0-5.3-3.6-8.2-9.5-8.2s-6.6.8-10.2,2.4l2.4,4.9c2.6-1.1,4.7-1.7,6.6-1.7,2.7,0,4.2,1.1,4.2,3.3v1.1c-1.6-.4-3.3-.6-4.9-.6-5.6,0-9,2.3-9,6.6,0,3.8,3,6.7,7.9,6.7M658.2,244.8h7.1v-11.3h11.8v11.2h7.1v-28.8h-7.1v11.1h-11.8v-11.1h-7.1v28.8ZM631.3,233.9c0-3.1,2.5-5.5,5.7-5.5,1.7,0,3.3.6,4.6,1.7v7.6c-1.3,1.1-2.9,1.8-4.6,1.7-3.2,0-5.7-2.3-5.7-5.5M641.7,244.8h6.6v-30.2l-6.6,1.4v8.2c-1.7-1-3.6-1.5-5.5-1.4-6.3,0-11.3,4.9-11.3,11.1,0,6.1,4.8,11.1,10.9,11.2h.2c2.1,0,4.2-.6,5.8-1.9v1.6ZM611.5,228.1c2.1,0,3.9,1.4,4.6,3.4h-9.1c.6-2.1,2.3-3.4,4.5-3.4M600.3,234c0,6.3,5.2,11.2,11.8,11.2s6.3-1,9.1-3.3l-4.4-3.9c-1,1.1-2.6,1.7-4.3,1.7-2.3,0-4.4-1.3-5.4-3.4h15.5v-1.7c0-6.9-4.6-11.9-11-11.9-6.2-.1-11.2,4.8-11.4,11v.3M588.8,222.1c2.3,0,3.7,1.5,3.7,3.3s-1.3,3.3-3.7,3.3h-7v-6.5h7ZM574.7,244.8h7.1v-10.5h5.4l5.4,10.5h7.9l-6.3-11.5c3.3-1.3,5.4-4.6,5.4-8.1,0-5.2-4.1-9.2-10.2-9.2h-14.7v28.8Z"/>
      </g>
      <g>
        <g>
          <path class="cls-2" d="M210.8,230.5h-12.6c-.3,0-.6.3-.6.6v6.1c0,.3.3.6.6.6h4.9v7.6s-1.1.4-4.1.4-8.6-1.3-8.6-12.3,5.2-12.5,10.1-12.5,6.1.7,7.2,1.1c.4.1.7-.3.7-.6l1.4-5.9c0-.2,0-.3-.2-.5-.5-.3-3.4-1.9-10.6-1.9s-17,3.6-17,20.7,9.8,19.7,18.1,19.7,11-2.9,11-2.9c.2,0,.2-.3.2-.4v-19.1c0-.3-.3-.6-.6-.6Z"/>
          <path class="cls-2" d="M275.5,215.3c0-.3-.3-.6-.6-.6h-7.1c-.3,0-.6.3-.6.6s0,13.7,0,13.7h-11v-13.7c0-.3-.3-.6-.6-.6h-7.1c-.3,0-.6.3-.6.6v37c0,.3.3.6.6.6h7.1c.3,0,.6-.3.6-.6v-15.8h11s0,15.8,0,15.8c0,.3.3.6.6.6h7.1c.3,0,.6-.3.6-.6v-37Z"/>
          <g>
            <path class="cls-2" d="M224.1,220.1c0-2.5-2-4.6-4.6-4.6s-4.6,2.1-4.6,4.6,2,4.6,4.6,4.6,4.6-2.1,4.6-4.6Z"/>
            <path class="cls-2" d="M223.6,244.4v-17.1c0-.3-.3-.6-.6-.6h-7c-.3,0-.6.3-.6.7v24.5c0,.7.4.9,1,.9h6.3c.7,0,.9-.3.9-.9v-7.4Z"/>
          </g>
          <path class="cls-2" d="M302.3,226.8h-7c-.3,0-.6.3-.6.6v18.1s-1.8,1.3-4.3,1.3-3.2-1.1-3.2-3.6v-15.8c0-.3-.3-.6-.6-.6h-7.1c-.3,0-.6.3-.6.6v17c0,7.4,4.1,9.2,9.7,9.2s8.4-2.6,8.4-2.6c0,0,.2,1.3.3,1.5,0,.2.3.3.5.3h4.5c.3,0,.6-.3.6-.6v-24.8c0-.3-.3-.6-.6-.6Z"/>
          <path class="cls-2" d="M321.5,226c-4,0-6.7,1.8-6.7,1.8v-12.5c0-.3-.3-.6-.6-.6h-7.1c-.3,0-.6.3-.6.6v37c0,.3.3.6.6.6h4.9c.2,0,.4-.1.5-.3.1-.2.3-1.7.3-1.7,0,0,2.9,2.7,8.4,2.7s10.1-3.3,10.1-14.7-5.9-12.9-9.9-12.9ZM318.7,246.8c-2.4,0-4.1-1.2-4.1-1.2v-11.7s1.6-1,3.6-1.2c2.5-.2,5,.5,5,6.6s-1.1,7.6-4.5,7.5Z"/>
          <path class="cls-2" d="M243.9,226.8h-5.3s0-7,0-7c0-.3-.1-.4-.4-.4h-7.2c-.3,0-.4.1-.4.4v7.2s-3.6.9-3.9.9c-.2,0-.4.3-.4.6v4.5c0,.3.3.6.6.6h3.7v10.9c0,8.1,5.7,8.9,9.5,8.9s3.9-.6,4.2-.7c.2,0,.3-.3.3-.5v-5c0-.3-.3-.6-.6-.6s-1.1.1-1.9.1c-2.6,0-3.5-1.2-3.5-2.8s0-10.4,0-10.4h5.3c.3,0,.6-.3.6-.6v-5.7c0-.3-.3-.6-.6-.6Z"/>
        </g>
        <path class="cls-1" d="M108,189.6c-28.8,0-52,23.4-52,52.4s14.9,42.8,35.6,49.7c2.6.5,3.5-1.1,3.5-2.5s0-5.4,0-9.7c-14.5,3.1-17.5-6.2-17.5-6.2-2.3-6.1-5.8-7.6-5.8-7.6-4.7-3.2.3-3.2.3-3.2,5.3.3,8,5.4,8,5.4,4.7,8,12.1,5.7,15.2,4.3.4-3.4,1.8-5.7,3.3-7-11.5-1.2-23.7-5.7-23.7-25.9s2.1-10.4,5.3-14.1c-.5-1.3-2.3-6.7.5-13.9,0,0,4.4-1.4,14.3,5.4,4.2-1.1,8.6-1.7,13-1.7,4.4,0,8.9.6,13,1.7,9.9-6.8,14.3-5.4,14.3-5.4,2.8,7.2,1,12.6.5,13.9,3.4,3.6,5.3,8.3,5.3,14.1,0,20.1-12.1,24.6-23.8,25.9,1.9,1.6,3.5,4.8,3.5,9.7,0,7,0,12.7,0,14.4s.9,3,3.5,2.5c20.7-6.9,35.6-26.6,35.6-49.7,0-29-23.3-52.4-52-52.4Z"/>
        <g>
          <path class="cls-2" d="M183,272c0-6.5,2.9-10.1,7.8-10.1s5.5,1.6,6.7,4.3l-1.9,1.1c-.8-2-2.4-3.3-4.8-3.3s-5.3,2.6-5.3,6.6v2.9c0,4,2,6.4,5.3,6.4s4.2-1.4,5-3.5l1.9,1.2c-1.2,2.7-3.6,4.4-6.8,4.4-4.9,0-7.8-3.4-7.8-9.9Z"/>
          <path class="cls-2" d="M200,274.4c0-4.6,2.6-7.5,6.5-7.5s6.5,2.9,6.5,7.5-2.6,7.5-6.5,7.5-6.5-2.9-6.5-7.5ZM210.6,275.4v-2.1c0-3-1.7-4.5-4.1-4.5s-4.1,1.5-4.1,4.5v2.1c0,3,1.7,4.5,4.1,4.5s4.1-1.5,4.1-4.5Z"/>
          <path class="cls-2" d="M225.8,279.2h-.1c-.9,1.8-2.2,2.7-4.2,2.7-3.6,0-5.9-2.9-5.9-7.5s2.3-7.5,5.9-7.5,3.5.9,4.2,2.7h.1v-8.6h2.2v20.6h-2.2v-2.3ZM225.8,277v-5.3c0-1.6-1.7-2.8-3.7-2.8s-4.1,1.7-4.1,4.3v2.4c0,2.6,1.6,4.3,4.1,4.3s3.7-1.1,3.7-2.9Z"/>
          <path class="cls-2" d="M231.8,274.4c0-4.6,2.6-7.5,6.5-7.5s6.2,2.9,6.2,7v1.1h-10.3v.7c0,2.5,1.6,4.3,4.3,4.3s3.2-.9,4-2.5l1.6,1.1c-.9,1.9-3,3.3-5.7,3.3-3.9,0-6.5-2.9-6.5-7.5ZM234.1,273.1v.2h7.9v-.3c0-2.5-1.5-4.2-3.8-4.2s-4.1,1.8-4.1,4.3Z"/>
          <path class="cls-2" d="M246.8,279.1l1.6-1.3c1.1,1.4,2.5,2.2,4.3,2.2s3-.9,3-2.3-.6-2-2.5-2.3l-1.1-.2c-2.6-.4-4.6-1.5-4.6-4.1s2.2-4.2,5.1-4.2,3.8.9,5,2.3l-1.5,1.3c-.6-.9-1.9-1.8-3.7-1.8s-2.8.9-2.8,2.2,1,1.9,2.8,2.2l1.1.2c3.2.5,4.4,1.9,4.4,4s-2,4.5-5.3,4.5-4.4-1.1-5.7-2.8Z"/>
          <path class="cls-2" d="M261.7,267.2h2.2v2.3h.1c.8-1.8,2.2-2.7,4.2-2.7,3.6,0,5.9,2.9,5.9,7.5s-2.3,7.5-5.9,7.5-3.3-.9-4.2-2.7h-.1v7.9h-2.2v-19.9ZM271.7,275.6v-2.4c0-2.6-1.6-4.3-4.1-4.3s-3.7,1.2-3.7,2.8v5.3c0,1.9,1.7,2.9,3.7,2.9s4.1-1.7,4.1-4.3Z"/>
          <path class="cls-2" d="M288.3,281.5c-1.6,0-2.3-1-2.5-2.3h-.1c-.6,1.8-2.1,2.7-4.2,2.7-3,0-4.8-1.7-4.8-4.3s2-4.2,6.1-4.2h2.8v-1.4c0-2-1.1-3.1-3.4-3.1s-2.9.8-3.7,2.1l-1.3-1.2c.8-1.5,2.5-2.8,5.1-2.8s5.5,1.8,5.5,4.8v7.9h1.6v1.9h-1.3ZM285.7,277.4v-2.4h-3c-2.5,0-3.7.8-3.7,2.2v.6c0,1.4,1.1,2.2,2.8,2.2s3.8-1.1,3.8-2.6Z"/>
          <path class="cls-2" d="M291.7,274.4c0-4.6,2.4-7.5,6.4-7.5s4.5,1.4,5.4,3.4l-1.9.9c-.5-1.5-1.8-2.3-3.5-2.3-2.6,0-4,1.8-4,4.3v2.4c0,2.5,1.4,4.3,4,4.3s3.1-.9,3.9-2.5l1.6,1.1c-.9,2.1-2.8,3.4-5.5,3.4-4,0-6.4-2.9-6.4-7.5Z"/>
          <path class="cls-2" d="M305.6,274.4c0-4.6,2.6-7.5,6.5-7.5s6.2,2.9,6.2,7v1.1h-10.3v.7c0,2.5,1.6,4.3,4.3,4.3s3.2-.9,4-2.5l1.6,1.1c-.9,1.9-3,3.3-5.7,3.3-3.9,0-6.5-2.9-6.5-7.5ZM307.9,273.1v.2h7.9v-.3c0-2.5-1.5-4.2-3.8-4.2s-4.1,1.8-4.1,4.3Z"/>
          <path class="cls-2" d="M320.6,279.1l1.6-1.3c1.1,1.4,2.5,2.2,4.3,2.2s3-.9,3-2.3-.6-2-2.5-2.3l-1.1-.2c-2.6-.4-4.6-1.5-4.6-4.1s2.2-4.2,5.1-4.2,3.8.9,5,2.3l-1.5,1.3c-.6-.9-1.9-1.8-3.7-1.8s-2.8.9-2.8,2.2,1,1.9,2.8,2.2l1.1.2c3.2.5,4.4,1.9,4.4,4s-2,4.5-5.3,4.5-4.4-1.1-5.7-2.8Z"/>
        </g>
      </g>
    </g>
  </g>
</svg>