<?xml version="1.0" encoding="utf-8"?>
<!-- Generator: Adobe Illustrator 24.0.3, SVG Export Plug-In . SVG Version: 6.00 Build 0)  -->
<svg version="1.1" id="Layer_1" xmlns="http://www.w3.org/2000/svg" xmlns:xlink="http://www.w3.org/1999/xlink" x="0px" y="0px"
	 viewBox="0 0 407 627.4" style="enable-background:new 0 0 407 627.4;" xml:space="preserve">
<style type="text/css">
	.st0{display:none;}
	.st1{opacity:0;}
	.st2{fill:#0E61FF;}
	.st3{fill:#001140;}
	.st4{fill:#C9DEFE;}
	.st5{fill:#A6C7FF;}
	.st6{opacity:0.95;}
	.st7{fill:#FFFFFF;}
	.st8{filter:url(#Adobe_OpacityMaskFilter);}
	.st9{fill:url(#SVGID_2_);}
	.st10{mask:url(#SVGID_1_);fill:#F3F3F3;}
	.st11{fill:#F3F3F3;}
</style>
<rect class="st0" width="407" height="632"/>
<title>Asset 2</title>
<g class="st1">
	<rect x="5.1" y="5" class="st2" width="397" height="617.4"/>
	<path class="st3" d="M397,10v607.4H10V10H397 M407,0H0v627.4h407V0z"/>
</g>
<g>
	<g>
		<path class="st4" d="M110.5,45.6v-3.8h2.8V27.7h-2.8v-3.8h10.3v3.8H118v14.1h2.8v3.8H110.5z"/>
		<path class="st4" d="M131.4,35.3l-2.1-4.3h-0.1v14.6h-4.4V23.9h5.1l5.9,10.2l2.1,4.3h0.1V23.9h4.4v21.6h-5.1L131.4,35.3z"/>
		<path class="st4" d="M156.2,28.1v17.5h-4.7V28.1h-5.9v-4.2h16.4v4.2L156.2,28.1z"/>
		<path class="st4" d="M165.3,45.6V23.9H180v4.2h-10v4.4h8.6v4.2H170v4.7h10v4.2H165.3z"/>
		<path class="st4" d="M197.9,42.1h-0.2c-0.2,1.1-0.8,2.1-1.7,2.7c-1.1,0.8-2.5,1.2-3.9,1.1c-1.2,0-2.4-0.2-3.5-0.7
			c-1.1-0.5-2-1.2-2.8-2.1c-0.9-1-1.5-2.2-1.9-3.5c-0.5-1.6-0.7-3.2-0.7-4.8c0-1.6,0.2-3.3,0.7-4.8c0.4-1.3,1.1-2.5,2-3.5
			c0.9-0.9,1.9-1.7,3.1-2.2c1.3-0.5,2.6-0.8,4-0.7c1.8,0,3.5,0.4,5,1.3c1.5,0.9,2.6,2.2,3.3,3.8l-3.8,2.2c-0.3-0.8-0.9-1.6-1.6-2.1
			c-0.8-0.6-1.9-1-2.9-0.9c-1.3-0.1-2.6,0.4-3.5,1.3c-1,1.1-1.4,2.5-1.3,4v3.5c-0.1,1.5,0.3,2.9,1.3,4c0.9,0.9,2.2,1.4,3.5,1.3
			c0.6,0,1.1-0.1,1.6-0.2c0.5-0.1,1-0.3,1.4-0.6c0.4-0.3,0.7-0.6,0.9-1c0.2-0.4,0.3-0.9,0.3-1.4v-1.1h-4v-3.9h8.5v12.1h-4
			L197.9,42.1z"/>
		<path class="st4" d="M211.1,45.6h-4.7V23.9h10.3c0.9,0,1.8,0.2,2.7,0.5c0.8,0.3,1.5,0.8,2.1,1.4c0.6,0.6,1,1.4,1.3,2.2
			c0.3,0.9,0.5,1.9,0.5,2.8c0,1.3-0.3,2.7-1,3.8c-0.7,1.1-1.8,2-3,2.4l4.2,8.5h-5.2l-3.8-7.9h-3.4L211.1,45.6z M216.1,33.7
			c0.6,0,1.2-0.2,1.7-0.5c0.4-0.4,0.7-1,0.6-1.6v-1.4c0-0.6-0.2-1.2-0.6-1.6c-0.5-0.4-1.1-0.6-1.7-0.5h-5v5.7H216.1z"/>
	</g>
	<g>
		<path class="st4" d="M240.1,45.6l-1.6-5.2h-7.2l-1.6,5.2H225l7.1-21.6h5.8l7,21.6H240.1z M235,28.2h-0.1l-2.4,8.2h5L235,28.2z"/>
	</g>
	<g>
		<path class="st4" d="M254.9,28.1v17.5h-4.7V28.1h-5.9v-4.2h16.4v4.2L254.9,28.1z"/>
		<path class="st4" d="M264,45.6V23.9h14.7v4.2h-10v4.4h8.6v4.2h-8.6v4.7h10v4.2H264z"/>
		<path class="st4" d="M289.8,46c-1.7,0-3.3-0.3-4.8-1c-1.3-0.6-2.4-1.5-3.4-2.5l3.1-3.1c1.4,1.6,3.3,2.5,5.4,2.5
			c0.9,0.1,1.8-0.2,2.6-0.7c0.5-0.5,0.9-1.2,0.8-1.9c0-0.6-0.2-1.1-0.5-1.5c-0.6-0.5-1.3-0.8-2-0.8l-2.1-0.3c-1.9-0.1-3.6-0.8-5-2.1
			c-1.1-1.2-1.7-2.8-1.6-4.4c0-0.9,0.2-1.8,0.6-2.7c0.4-0.8,0.9-1.5,1.6-2.1c0.8-0.6,1.6-1.1,2.5-1.3c1.1-0.3,2.3-0.5,3.4-0.5
			c1.5,0,2.9,0.2,4.3,0.8c1.2,0.5,2.3,1.3,3.2,2.3l-3.1,3.2c-0.5-0.6-1.2-1.1-1.9-1.5c-0.9-0.4-1.8-0.6-2.8-0.6
			c-0.8-0.1-1.6,0.1-2.4,0.6c-0.5,0.3-0.8,0.9-0.8,1.5c-0.1,0.6,0.2,1.2,0.6,1.6c0.6,0.4,1.3,0.6,2,0.7l2.1,0.3
			c1.8,0.2,3.6,0.9,5,2.1c1.1,1.2,1.7,2.7,1.6,4.4c0,1-0.2,1.9-0.6,2.8c-0.4,0.9-1,1.6-1.7,2.2c-0.8,0.7-1.7,1.1-2.6,1.4
			C292.2,45.8,291,46,289.8,46z"/>
	</g>
	<g>
		<path class="st5" d="M181.9,74.6l-4.1-18.2h3.9l1.7,8.7l1,5h0.1l1.1-5l2-8.7h4.3l2,8.7l1.1,5h0.1l1-5l1.7-8.7h3.7l-4.2,18.2h-4.5
			l-2.3-9.8l-0.9-4h-0.1l-0.9,4l-2.3,9.8H181.9z"/>
		<path class="st5" d="M206,59.5c-0.6,0.1-1.2-0.1-1.7-0.5c-0.4-0.4-0.5-0.9-0.5-1.4V57c0-0.5,0.2-1,0.5-1.4
			c0.5-0.4,1.1-0.6,1.7-0.5c0.6-0.1,1.2,0.1,1.7,0.5c0.4,0.4,0.5,0.9,0.5,1.4v0.6c0,0.5-0.2,1-0.5,1.4
			C207.2,59.3,206.6,59.5,206,59.5z M204.1,60.9h3.9v13.7h-3.9L204.1,60.9z"/>
		<path class="st5" d="M216.3,74.6c-1.1,0.1-2.2-0.3-3-1c-0.7-0.8-1.1-1.9-1-3v-6.7h-1.9v-3h1c0.4,0,0.8-0.1,1.1-0.4
			c0.2-0.3,0.3-0.7,0.3-1.1v-2.2h3.4v3.7h2.7v3h-2.7v7.7h2.5v3L216.3,74.6z"/>
		<path class="st5" d="M221.5,55.3h3.8v7.9h0.2c0.2-0.7,0.7-1.4,1.3-1.8c1.8-1.2,4.2-1,5.7,0.6c0.8,1.2,1.2,2.6,1.1,4v8.6h-3.9v-8.2
			c0.1-0.7-0.1-1.4-0.4-2c-0.3-0.5-0.9-0.7-1.5-0.6c-0.3,0-0.6,0-0.9,0.1c-0.3,0.1-0.6,0.2-0.8,0.4c-0.2,0.2-0.4,0.4-0.6,0.6
			c-0.1,0.3-0.2,0.6-0.2,0.9v8.8h-3.8V55.3z"/>
	</g>
</g>
<g class="st6">
	<g>
		<g>
			<path class="st7" d="M262.1,192c0.7,0,1.4,0.1,2,0.4c0.5,0.5,0.9,1.1,1,1.7l9.8,28.5c0.1,0.2,0.1,0.4,0,0.6c0,0-0.1,0.3-0.6,0.3
				h-4.1c-0.3,0-0.5,0-0.8-0.1c-0.2-0.1-0.4-0.4-0.5-0.6l-2-6.2h-11.4l-2,6.2c-0.1,0.5-0.6,0.9-1.2,0.8h-4.1c0,0-0.5,0-0.6-0.3
				c-0.1-0.2-0.1-0.4,0-0.6l9.7-28.5c0.1-0.4,0.3-0.7,0.5-1.1c0.1-0.2,0.3-0.5,0.6-0.6c0.2-0.2,0.5-0.3,0.8-0.3
				c0.4-0.1,0.7-0.1,1.1-0.1L262.1,192z M261.2,198.1H261l-1.8,6.3l-2.3,7.7h8.6l-2.3-7.5L261.2,198.1z"/>
			<path class="st7" d="M169.1,192.1c0.3,0,0.6,0,0.9,0.2c0,0,0.2,0.2,0.2,0.8v11.7h14v-11.7c0,0,0-0.6,0.3-0.8
				c0.2-0.1,0.5-0.2,0.8-0.2h3.4c0.3,0,0.6,0,0.8,0.2c0,0,0.2,0.2,0.2,0.8v29.6c0,0,0,0.6-0.2,0.8c-0.3,0.1-0.5,0.2-0.8,0.2h-3.4
				c-0.3,0-0.5-0.1-0.8-0.2c0,0-0.3-0.2-0.3-0.8v-13.2h-14v13.2c0,0,0,0.6-0.2,0.8c-0.3,0.1-0.6,0.2-0.9,0.2h-3.4
				c-0.3,0-0.5-0.1-0.8-0.2c0,0-0.3-0.2-0.3-0.8v-29.6c0,0,0-0.6,0.3-0.8c0.2-0.1,0.5-0.2,0.8-0.2H169.1z"/>
			<path class="st7" d="M155.4,192.1c0,0,0.5,0,0.6,0.2c0.1,0.2,0.2,0.4,0.2,0.7v3.1c0,0.2-0.1,0.4-0.2,0.6
				c-0.2,0.1-0.4,0.2-0.6,0.2h-8.6v25.8c0,0,0,0.6-0.2,0.8c-0.3,0.1-0.5,0.2-0.8,0.2h-3.5c-0.3,0-0.5-0.1-0.8-0.2
				c0,0-0.2-0.2-0.2-0.8v-25.8h-8.4c0,0-0.5,0-0.6-0.2c-0.1-0.2-0.2-0.4-0.1-0.6V193c0-0.2,0-0.5,0.1-0.7c0,0,0.1-0.2,0.6-0.2H155.4
				z"/>
			<path class="st7" d="M221.5,192.1c0,0,0.6,0,0.7,0.3c0.1,0.2,0.2,0.5,0.2,0.8v2.8c0,0.3,0,0.5-0.2,0.8c0,0-0.2,0.2-0.7,0.2h-11.9
				c0,0-1.7,0-2.4,0.8c-0.5,0.6-0.7,1.4-0.7,2.2v4.7h13.6c0,0,0.6,0,0.7,0.2c0.1,0.3,0.2,0.6,0.2,0.8v2.5c0,0.3-0.1,0.5-0.2,0.8
				c0,0-0.2,0.3-0.7,0.3h-13.6v6.6c0,0.8,0.3,1.6,0.7,2.2c0.7,0.5,1.5,0.8,2.4,0.7h12.2c0,0,0.6,0,0.8,0.2c0.1,0.3,0.2,0.6,0.2,0.9
				v2.8c0,0.3-0.1,0.5-0.2,0.8c0,0-0.2,0.3-0.8,0.3h-12.8c-1.3,0-2.7-0.2-3.9-0.7c-0.9-0.4-1.8-1-2.5-1.8c-0.6-0.8-1-1.6-1.3-2.6
				c-0.2-1-0.3-2-0.4-3v-15.4c0-1,0.2-2.1,0.4-3c0.6-2,2-3.6,3.9-4.4c1.2-0.5,2.4-0.7,3.7-0.7L221.5,192.1z"/>
			<path class="st7" d="M237.4,192.1c0.3,0,0.6,0,0.9,0.2c0,0,0.2,0.2,0.2,0.8v29.6c0,0,0,0.6-0.2,0.8c-0.3,0.1-0.6,0.2-0.9,0.2H234
				c-0.3,0-0.5-0.1-0.8-0.2c0,0-0.2-0.2-0.2-0.8v-29.6c0,0,0-0.6,0.2-0.8c0.2-0.1,0.5-0.2,0.8-0.2H237.4z"/>
		</g>
		<path class="st7" d="M241.2,113.8c18.8,0,34.1,15.3,34.1,34.1S260.1,182,241.3,182c0,0,0,0,0,0h-75.2c-2.7,0-4.9-2.2-4.9-4.9
			c0-2.7,2.2-4.9,4.9-4.9c0,0,0,0,0,0h17.5c2.7,0,4.9-2.2,4.9-4.9c0-2.7-2.2-4.9-4.9-4.9h-3.9c-2.7,0-4.9-2.2-4.9-4.9
			c0-2.7,2.2-4.9,4.9-4.9h11.7c2.7,0,4.9-2.2,4.9-4.9c0-2.7-2.2-4.9-4.9-4.9h-40.9c-2.7,0-4.9-2.2-4.9-4.9c0-2.7,2.2-4.9,4.9-4.9
			c0,0,0,0,0,0h30.2c2.7,0,4.9-2.2,4.9-4.9c0-2.7-2.2-4.9-4.9-4.9h-6.8c-2.7,0-4.9-2.2-4.9-4.9c0-2.7,2.2-4.9,4.9-5L241.2,113.8z
			 M235.8,125.2L235.8,125.2c-10.4,0-18.9,8.5-18.9,18.9v7.6c-0.2,10.5,8.1,19.1,18.5,19.4c10.5,0.2,19.1-8.1,19.4-18.5c0,0,0,0,0,0
			c0-0.3,0-0.6,0-0.8v-7.6C254.8,133.6,246.3,125.2,235.8,125.2L235.8,125.2z M242.3,143.1c2.5,0,4.6,2,4.6,4.6l0,0v0.6
			c0,2.5-2,4.6-4.6,4.6h-14.2c-2.5,0-4.6-2.1-4.6-4.6v-0.6c0-2.5,2.1-4.6,4.6-4.6H242.3z"/>
	</g>
	<path class="st7" d="M153.5,172.3c2.5,0,4.6,2,4.6,4.5c0,0,0,0,0,0l0,0v0.6c0,2.5-2,4.6-4.5,4.6c0,0,0,0,0,0h-16.8
		c-2.5,0-4.6-2-4.6-4.6v-0.6c0-2.5,2-4.6,4.6-4.6L153.5,172.3z"/>
	<path class="st7" d="M161.3,113.9c2.5,0,4.6,2,4.6,4.6c0,0,0,0,0,0l0,0v0.6c0,2.5-2.1,4.5-4.6,4.5h-18.8c-2.5,0-4.6-2-4.6-4.5
		c0,0,0,0,0,0l0,0v-0.6c0-2.5,2-4.6,4.6-4.6L161.3,113.9z"/>
	<path class="st7" d="M167.1,152.8c2.5,0,4.6,2,4.6,4.6v0.6c0,2.5-2,4.6-4.6,4.6h-10.3c-2.5,0-4.6-2.1-4.6-4.6v-0.6
		c0-2.5,2-4.6,4.6-4.6H167.1z"/>
</g>
<g id="A">
	<g class="st6">
		<path class="st7" d="M82.6,353.5v37.3h26v-3H86.2V373H107v-3H86.2v-13.5h22.2v-3H82.6z M128.2,367.5c1.3,1.3,2.2,3,2.5,4.8h3.3
			c-0.4-3.1-1.6-5.4-3.6-7c-2.1-1.6-4.7-2.4-7.3-2.3c-1.9,0-3.8,0.4-5.5,1.1c-1.5,0.7-2.9,1.8-4,3.1c-1.1,1.3-1.9,2.9-2.5,4.5
			c-1.1,3.6-1.1,7.4,0,11c0.5,1.7,1.4,3.2,2.5,4.5c1.1,1.3,2.4,2.4,4,3.1c1.7,0.8,3.6,1.2,5.5,1.1c2.8,0.1,5.5-0.9,7.5-2.7
			c2.1-2.1,3.3-4.8,3.6-7.7h-3.3c-0.1,1.1-0.4,2.1-0.8,3.1c-0.4,0.9-1,1.7-1.7,2.4c-0.7,0.7-1.5,1.2-2.4,1.6
			c-0.9,0.4-1.9,0.6-2.9,0.6c-1.4,0-2.9-0.3-4.1-1c-1.2-0.6-2.2-1.5-3-2.6c-0.8-1.1-1.4-2.4-1.8-3.7c-0.8-2.7-0.8-5.7,0-8.4
			c0.4-1.3,1-2.6,1.8-3.7c0.8-1.1,1.8-2,3-2.6c1.3-0.7,2.7-1,4.1-1C125,365.7,126.8,366.3,128.2,367.5L128.2,367.5z M137.2,353.5
			v37.3h3.3v-37.3H137.2z M145.8,353.5v5.3h3.3v-5.3H145.8z M145.8,363.8v27h3.3v-27L145.8,363.8z M154.3,363.8v36.9h3.3v-15.1h0.1
			c0.3,0.9,0.8,1.8,1.5,2.6c0.6,0.7,1.3,1.3,2.2,1.8s1.8,0.9,2.8,1.1c2.8,0.7,5.7,0.4,8.3-0.8c1.5-0.7,2.8-1.8,3.8-3.1
			c1-1.4,1.8-2.9,2.2-4.5c1-3.6,1-7.3,0-10.9c-0.4-1.6-1.2-3.2-2.2-4.5c-1-1.3-2.3-2.4-3.8-3.1c-1.7-0.8-3.5-1.2-5.4-1.1
			c-2.1,0-4.1,0.5-5.9,1.5c-1.7,1-3,2.5-3.7,4.4h-0.1v-5.1L154.3,363.8z M175.4,373.1c0.7,2.7,0.7,5.6,0,8.3
			c-0.3,1.3-0.8,2.6-1.6,3.7c-0.7,1.1-1.6,2-2.7,2.6c-1.2,0.7-2.7,1.1-4,1c-1.5,0-3.1-0.3-4.4-1c-1.2-0.6-2.2-1.5-2.9-2.6
			c-0.8-1.1-1.3-2.4-1.6-3.7c-0.3-1.4-0.5-2.8-0.5-4.2c0-1.5,0.1-2.9,0.4-4.4c0.3-1.3,0.8-2.6,1.5-3.7c0.8-1.1,1.8-1.9,2.9-2.5
			c1.4-0.7,3-1,4.5-0.9c1.4,0,2.8,0.3,4,1c1.1,0.7,2,1.6,2.7,2.6C174.6,370.5,175.1,371.8,175.4,373.1L175.4,373.1z M198.1,369
			c0.4,0.8,0.6,1.7,0.6,2.6h3.3c0-1.3-0.3-2.6-0.9-3.8c-0.5-1.1-1.2-2-2.1-2.8c-0.9-0.7-2-1.3-3.1-1.6c-1.2-0.4-2.5-0.5-3.8-0.5
			c-1.2,0-2.4,0.1-3.6,0.4c-1.2,0.3-2.3,0.7-3.3,1.3c-1,0.6-1.8,1.4-2.4,2.4c-0.6,1.1-0.9,2.3-0.9,3.5c0,1,0.2,2,0.6,2.9
			c0.4,0.8,0.9,1.5,1.6,2c0.7,0.6,1.5,1,2.4,1.4c1,0.4,2,0.7,3,1l4.2,0.9c0.8,0.2,1.5,0.4,2.2,0.6c0.7,0.2,1.3,0.5,1.9,0.9
			c0.5,0.3,1,0.8,1.3,1.4c0.3,0.6,0.5,1.3,0.5,2c0,0.8-0.2,1.7-0.7,2.4c-0.5,0.7-1.1,1.2-1.8,1.6c-0.8,0.4-1.6,0.7-2.4,0.9
			c-0.8,0.2-1.6,0.3-2.5,0.3c-2,0.1-3.9-0.5-5.5-1.7c-1.5-1.2-2.4-3.1-2.4-5h-3.3c0.3,3.3,1.4,5.7,3.4,7.2c2.2,1.6,5,2.4,7.7,2.2
			c1.3,0,2.6-0.1,3.8-0.4c1.2-0.3,2.4-0.7,3.4-1.4c1-0.6,1.9-1.5,2.5-2.5c0.7-1.1,1-2.4,1-3.7c0-1.1-0.2-2.1-0.7-3.1
			c-0.4-0.8-1-1.6-1.7-2.2c-0.7-0.6-1.6-1.1-2.5-1.4c-0.9-0.4-1.8-0.6-2.8-0.8l-4.4-1c-0.6-0.1-1.2-0.3-1.8-0.6
			c-0.6-0.2-1.3-0.5-1.8-0.9c-0.5-0.3-1-0.8-1.4-1.3c-0.4-0.5-0.6-1.2-0.6-1.9c0-0.8,0.2-1.5,0.6-2.2c0.4-0.6,0.9-1.1,1.5-1.4
			c0.6-0.4,1.3-0.6,2.1-0.8c0.7-0.2,1.5-0.2,2.2-0.2c0.9,0,1.8,0.1,2.7,0.3c0.8,0.2,1.6,0.6,2.2,1.1
			C197.2,367.7,197.7,368.3,198.1,369L198.1,369z M208.5,381.8c-0.3-1.2-0.5-2.4-0.5-3.7h20.8c0.1-1.9-0.1-3.7-0.5-5.6
			c-0.4-1.7-1.1-3.4-2.1-4.9c-2.1-3.1-5.6-4.9-9.3-4.7c-1.9,0-3.8,0.4-5.5,1.2c-1.5,0.8-2.8,1.9-3.8,3.2c-1,1.4-1.7,2.9-2.2,4.6
			c-0.5,1.7-0.7,3.5-0.7,5.2c0,1.8,0.2,3.7,0.7,5.5c0.4,1.6,1.2,3.2,2.2,4.5c1,1.3,2.3,2.4,3.8,3.1c1.7,0.8,3.6,1.2,5.5,1.1
			c3.4,0,6.1-0.8,7.9-2.5c2-1.9,3.3-4.4,3.8-7.1h-3.3c-0.4,1.9-1.4,3.7-2.8,5c-1.6,1.3-3.6,2-5.6,1.9c-1.4,0-2.8-0.3-4-1
			c-1.1-0.6-2-1.5-2.8-2.5C209.4,384.2,208.9,383.1,208.5,381.8L208.5,381.8z M224.9,371.8c0.4,1.2,0.7,2.4,0.7,3.6h-17.5
			c0.2-1.2,0.4-2.4,0.9-3.6c0.4-1.1,1-2.2,1.7-3.1c0.7-0.9,1.6-1.6,2.7-2.1c1.1-0.6,2.4-0.8,3.6-0.8c1.2,0,2.5,0.3,3.6,0.8
			c1,0.5,1.9,1.3,2.7,2.1C223.9,369.6,224.5,370.6,224.9,371.8L224.9,371.8z M272.5,360.8c0.7,1.2,1.3,2.5,1.5,3.8h3.6
			c-0.2-1.8-0.8-3.6-1.7-5.2c-0.9-1.5-2.1-2.8-3.4-3.8c-1.4-1-2.9-1.8-4.6-2.3c-4.3-1.3-8.8-1-12.9,0.8c-2.1,1-4,2.5-5.5,4.3
			c-1.5,1.8-2.6,3.9-3.3,6.2c-1.5,4.8-1.5,9.9,0,14.7c0.7,2.2,1.8,4.3,3.3,6.2c1.5,1.8,3.4,3.3,5.5,4.3c2.4,1.1,5.1,1.7,7.7,1.6
			c2,0,4.1-0.3,6-1c1.7-0.7,3.3-1.7,4.7-3c1.4-1.4,2.5-2.9,3.2-4.7c0.9-2,1.4-4.1,1.6-6.2h-3.6c-0.2,1.6-0.6,3.2-1.2,4.7
			c-0.6,1.4-1.4,2.7-2.5,3.8c-1,1.1-2.2,2-3.6,2.6c-1.5,0.6-3.1,1-4.7,0.9c-2.2,0.1-4.4-0.4-6.4-1.4c-1.7-0.9-3.2-2.2-4.4-3.7
			c-1.2-1.6-2-3.4-2.5-5.3c-1.1-3.9-1.1-8.1,0-12c0.5-1.9,1.4-3.7,2.5-5.3c1.1-1.6,2.6-2.8,4.4-3.7c2-1,4.2-1.4,6.4-1.4
			c1.3,0,2.6,0.2,3.9,0.6c1.2,0.4,2.4,1,3.4,1.7S271.8,359.8,272.5,360.8L272.5,360.8z M281.7,353.5v37.3h3.3V375
			c0-1.3,0.2-2.5,0.7-3.7c0.4-1.1,0.9-2.1,1.7-2.9c0.7-0.8,1.6-1.5,2.6-1.9c1.1-0.5,2.3-0.7,3.5-0.7c1.1,0,2.3,0.2,3.3,0.6
			c0.8,0.3,1.6,1,2.1,1.7c0.5,0.8,0.9,1.7,1.1,2.6c0.2,1.1,0.4,2.1,0.3,3.2v16.8h3.3v-17.4c0-1.5-0.1-2.9-0.5-4.3
			c-0.3-1.2-0.8-2.3-1.6-3.3c-0.8-0.9-1.9-1.6-3.1-2.1c-1.5-0.5-3.1-0.8-4.7-0.7c-1.9,0-3.7,0.5-5.3,1.5c-1.5,0.9-2.7,2.3-3.3,3.9
			H285v-15L281.7,353.5z M311.1,381.8c-0.3-1.2-0.5-2.4-0.5-3.7h20.7c0.1-1.9-0.1-3.7-0.5-5.6c-0.4-1.7-1.1-3.4-2.1-4.9
			c-2.1-3.1-5.6-4.9-9.3-4.7c-1.9,0-3.8,0.4-5.5,1.2c-1.5,0.8-2.8,1.9-3.8,3.2c-1,1.4-1.7,2.9-2.2,4.6c-0.5,1.7-0.7,3.5-0.7,5.2
			c0,1.8,0.2,3.7,0.7,5.5c0.4,1.6,1.2,3.2,2.2,4.5c1,1.3,2.3,2.4,3.8,3.1c1.7,0.8,3.6,1.2,5.5,1.1c3.4,0,6.1-0.8,7.9-2.5
			c2-1.9,3.3-4.4,3.8-7.1H328c-0.4,1.9-1.4,3.7-2.8,5c-1.6,1.3-3.6,2-5.6,1.9c-1.4,0-2.8-0.3-4-1c-1.1-0.6-2-1.5-2.8-2.5
			C312,384.2,311.4,383.1,311.1,381.8L311.1,381.8z M327.4,371.8c0.4,1.2,0.7,2.4,0.7,3.6h-17.5c0.2-1.2,0.4-2.4,0.9-3.6
			c0.4-1.1,1-2.2,1.7-3.1c0.7-0.9,1.6-1.6,2.7-2.1c1.1-0.6,2.4-0.8,3.6-0.8c1.2,0,2.5,0.3,3.6,0.8c1,0.5,1.9,1.3,2.7,2.1
			C326.5,369.6,327,370.6,327.4,371.8L327.4,371.8z"/>
		<g>
			<path class="st7" d="M207,319.8l42.1-24.3v30.2L207,350L165,325.7v-30.2L207,319.8z"/>
			<path class="st7" d="M249.1,277.1l-26.2,15.1l-15.9-9.2L165,307.4v-30.2l42.1-24.3L249.1,277.1z"/>
		</g>
	</g>
</g>
<g>
	<defs>
		<filter id="Adobe_OpacityMaskFilter" filterUnits="userSpaceOnUse" x="153" y="428.3" width="105.6" height="105.6">
			<feColorMatrix  type="matrix" values="1 0 0 0 0  0 1 0 0 0  0 0 1 0 0  0 0 0 1 0"/>
		</filter>
	</defs>
	<mask maskUnits="userSpaceOnUse" x="153" y="428.3" width="105.6" height="105.6" id="SVGID_1_">
		<g class="st8">
			<g>
				<g>
					<path class="st7" d="M205.8,530.6c-0.6,0-1.2-0.1-1.7-0.4L164.5,507c-1-0.6-1.6-1.7-1.6-2.9V458c0-1.2,0.6-2.3,1.6-2.9
						l39.6-23.1c1-0.6,2.3-0.6,3.3,0l39.6,23.1c1.5,0.9,2.1,2.8,1.2,4.5c-0.3,0.5-0.7,0.9-1.2,1.2l-33,19.8l-3.4-5.7l28.2-16.9
						l-33.1-19.3l-36.3,21.2v42.4l36.3,21.2l36.3-21.2v-24.5h6.6v26.4c0,1.2-0.6,2.3-1.6,2.9l-39.6,23.1
						C206.9,530.4,206.4,530.6,205.8,530.6z"/>
				</g>
				<g>
					
						<linearGradient id="SVGID_2_" gradientUnits="userSpaceOnUse" x1="262.9709" y1="233.4745" x2="275.7315" y2="240.8418" gradientTransform="matrix(-0.5 -1.564 0.866 -0.903 173.9382 1124.8658)">
						<stop  offset="0" style="stop-color:#000000;stop-opacity:0"/>
						<stop  offset="0.9" style="stop-color:#000000"/>
					</linearGradient>
					<rect x="239.6" y="476.1" class="st9" width="10.1" height="26.6"/>
				</g>
			</g>
		</g>
	</mask>
	<rect x="153" y="428.3" class="st10" width="105.6" height="105.6"/>
	<path class="st11" d="M205.6,494.3c-7.3,0-13.2-5.9-13.2-13.2c0-7.3,5.9-13.2,13.2-13.2s13.2,5.9,13.2,13.2
		C218.8,488.4,212.9,494.3,205.6,494.3z M205.6,474.5c-3.6,0-6.6,3-6.6,6.6c0,3.6,3,6.6,6.6,6.6c3.6,0,6.6-3,6.6-6.6
		C212.2,477.4,209.3,474.5,205.6,474.5z"/>
</g>
<g class="st6">
	<path class="st7" d="M99.3,579.2v-4.6h4.8v-25.9h-4.8V544h15.3v4.6h-4.8v25.9h4.8v4.6H99.3z"/>
	<path class="st7" d="M121.8,544h15.6c2.9,0,5.2,0.8,6.9,2.5c1.7,1.6,2.5,3.9,2.5,6.6c0,1.3-0.2,2.4-0.6,3.4
		c-0.4,0.9-0.8,1.7-1.4,2.3c-0.6,0.6-1.2,1-2,1.3c-0.7,0.3-1.5,0.5-2.2,0.5v0.3c0.7,0,1.5,0.2,2.3,0.5s1.7,0.8,2.4,1.4
		c0.7,0.7,1.4,1.5,1.9,2.5c0.5,1,0.8,2.3,0.8,3.8c0,1.4-0.2,2.7-0.7,4c-0.5,1.2-1.1,2.3-1.9,3.2c-0.8,0.9-1.8,1.6-2.9,2.1
		c-1.1,0.5-2.3,0.8-3.6,0.8h-17.2V544z M127.5,558.9h8.8c1.4,0,2.5-0.4,3.3-1.1c0.8-0.7,1.2-1.8,1.2-3.1v-1.6c0-1.3-0.4-2.4-1.2-3.1
		c-0.8-0.7-1.9-1.1-3.3-1.1h-8.8V558.9z M127.5,574.3h9.8c1.5,0,2.6-0.4,3.5-1.2c0.8-0.8,1.3-1.9,1.3-3.3v-1.7
		c0-1.4-0.4-2.6-1.3-3.3c-0.8-0.8-2-1.2-3.5-1.2h-9.8V574.3z"/>
	<path class="st7" d="M182,552.3h-0.3L179,558l-7.7,14.1l-7.7-14.1l-2.8-5.7h-0.3v26.9h-5.4V544h6.8l9.4,17.9h0.3L181,544h6.5v35.2
		H182V552.3z"/>
	<path class="st7" d="M213.2,579.2l-8.3-35.2h5.8l3.6,17l2.5,11.7h0.2l2.8-11.7l4.2-17h6.4l4.1,17l2.8,11.7h0.2l2.6-11.7l3.7-17h5.6
		l-8.7,35.2h-6.4l-4.5-18.2l-2.6-10.7h-0.1l-2.7,10.7l-4.6,18.2H213.2z"/>
	<path class="st7" d="M272.6,579.2c-1.4,0-2.6-0.4-3.3-1.2c-0.8-0.8-1.2-1.9-1.4-3.2h-0.3c-0.5,1.6-1.4,2.9-2.8,3.7
		c-1.3,0.8-3,1.3-4.9,1.3c-2.7,0-4.8-0.7-6.3-2.1c-1.5-1.4-2.2-3.3-2.2-5.7c0-2.6,1-4.6,2.9-5.9c1.9-1.3,4.7-2,8.3-2h4.7v-2.2
		c0-1.6-0.4-2.9-1.3-3.7c-0.9-0.9-2.2-1.3-4.1-1.3c-1.5,0-2.8,0.3-3.8,1c-1,0.7-1.8,1.5-2.5,2.6l-3.3-3c0.9-1.5,2.1-2.7,3.7-3.7
		c1.6-1,3.6-1.4,6.2-1.4c3.4,0,6,0.8,7.8,2.4c1.8,1.6,2.7,3.9,2.7,6.8v13.2h2.8v4.5H272.6z M261.5,575.6c1.7,0,3.1-0.4,4.2-1.1
		c1.1-0.8,1.7-1.8,1.7-3.1v-3.8h-4.6c-3.8,0-5.7,1.2-5.7,3.5v0.9c0,1.2,0.4,2.1,1.2,2.6C259,575.3,260.1,575.6,261.5,575.6z"/>
	<path class="st7" d="M279,579.2v-4.4l14.1-17.3h-13.6V553h20.1v4.2l-14.3,17.5h14.6v4.5H279z"/>
	<path class="st7" d="M308.4,548.3c-1.1,0-2-0.3-2.5-0.8c-0.5-0.5-0.8-1.2-0.8-2.1v-0.9c0-0.8,0.3-1.5,0.8-2.1
		c0.5-0.5,1.4-0.8,2.5-0.8c1.1,0,2,0.3,2.5,0.8c0.5,0.5,0.8,1.2,0.8,2.1v0.9c0,0.8-0.3,1.5-0.8,2.1
		C310.4,548,309.6,548.3,308.4,548.3z M305.7,553h5.5v26.2h-5.5V553z"/>
</g>
<g class="st6">
	<path class="st7" d="M27.7,606.1V591h9.4v2.2h-7v4.2h6.2v2.2h-6.2v6.6H27.7z"/>
	<path class="st7" d="M43.6,606.4c-0.8,0-1.5-0.1-2.1-0.4c-0.6-0.3-1.2-0.7-1.6-1.2c-0.4-0.5-0.8-1.1-1-1.9
		c-0.2-0.7-0.4-1.5-0.4-2.4c0-0.9,0.1-1.7,0.4-2.4c0.2-0.7,0.6-1.3,1-1.9c0.4-0.5,1-0.9,1.6-1.2c0.6-0.3,1.4-0.4,2.1-0.4
		s1.5,0.1,2.1,0.4c0.6,0.3,1.2,0.7,1.6,1.2c0.4,0.5,0.8,1.1,1,1.9c0.2,0.7,0.4,1.5,0.4,2.4c0,0.9-0.1,1.7-0.4,2.4
		c-0.2,0.7-0.6,1.3-1,1.9c-0.4,0.5-1,0.9-1.6,1.2C45.1,606.2,44.4,606.4,43.6,606.4z M43.6,604.4c0.8,0,1.5-0.2,1.9-0.7
		c0.5-0.5,0.7-1.2,0.7-2.2v-1.9c0-1-0.2-1.7-0.7-2.2c-0.5-0.5-1.1-0.7-1.9-0.7c-0.8,0-1.5,0.2-1.9,0.7c-0.5,0.5-0.7,1.2-0.7,2.2v1.9
		c0,1,0.2,1.7,0.7,2.2C42.2,604.1,42.8,604.4,43.6,604.4z"/>
	<path class="st7" d="M51.4,606.1v-11.3h2.4v2.2h0.1c0.2-0.6,0.5-1.1,1-1.5c0.5-0.4,1.2-0.6,2.1-0.6h0.6v2.3h-0.9
		c-0.9,0-1.7,0.2-2.2,0.5c-0.5,0.3-0.7,0.8-0.7,1.3v7.2H51.4z"/>
	<path class="st7" d="M67.5,606.1H65V591h6.5c1.4,0,2.4,0.4,3.2,1.2c0.8,0.8,1.2,1.9,1.2,3.3c0,1.1-0.2,2-0.7,2.7
		c-0.5,0.7-1.2,1.2-2.2,1.5l3.3,6.4h-2.7l-3-6.1h-3V606.1z M71.4,597.9c0.6,0,1.1-0.2,1.5-0.5c0.3-0.3,0.5-0.8,0.5-1.4v-1
		c0-0.6-0.2-1.1-0.5-1.4c-0.3-0.3-0.8-0.5-1.5-0.5h-3.9v4.8H71.4z"/>
	<path class="st7" d="M83.1,606.4c-0.8,0-1.5-0.1-2.2-0.4c-0.6-0.3-1.2-0.7-1.6-1.2c-0.4-0.5-0.8-1.1-1-1.9
		c-0.2-0.7-0.4-1.5-0.4-2.4c0-0.9,0.1-1.7,0.4-2.4c0.2-0.7,0.6-1.3,1-1.9c0.4-0.5,1-0.9,1.6-1.2c0.6-0.3,1.4-0.4,2.2-0.4
		c0.8,0,1.5,0.1,2.2,0.4c0.6,0.3,1.2,0.7,1.6,1.2c0.4,0.5,0.7,1.1,0.9,1.8c0.2,0.7,0.3,1.4,0.3,2.2v0.9h-7.7v0.4
		c0,0.9,0.3,1.6,0.8,2.1c0.5,0.6,1.2,0.8,2.2,0.8c0.7,0,1.3-0.2,1.8-0.5c0.5-0.3,0.9-0.7,1.2-1.2l1.4,1.4c-0.4,0.7-1,1.2-1.8,1.7
		C85.1,606.2,84.2,606.4,83.1,606.4z M83.1,596.4c-0.4,0-0.8,0.1-1.1,0.2c-0.3,0.1-0.6,0.3-0.9,0.6c-0.2,0.3-0.4,0.6-0.6,0.9
		c-0.1,0.4-0.2,0.8-0.2,1.2v0.2h5.2v-0.2c0-0.9-0.2-1.6-0.7-2.1C84.5,596.7,83.9,596.4,83.1,596.4z"/>
	<path class="st7" d="M97.8,604.2h-0.1c-0.2,0.7-0.6,1.2-1.2,1.6c-0.6,0.4-1.2,0.6-2,0.6c-1.4,0-2.5-0.5-3.3-1.5
		c-0.8-1-1.2-2.5-1.2-4.3c0-1.9,0.4-3.3,1.2-4.3c0.8-1,1.9-1.5,3.3-1.5c0.8,0,1.4,0.2,2,0.6c0.6,0.4,1,0.9,1.2,1.6h0.1v-6.6h2.4v16
		h-2.4V604.2z M95.3,604.3c0.7,0,1.3-0.2,1.8-0.5c0.5-0.4,0.7-0.8,0.7-1.4v-3.9c0-0.6-0.2-1-0.7-1.4c-0.5-0.4-1.1-0.5-1.8-0.5
		c-0.8,0-1.5,0.3-2,0.8c-0.5,0.5-0.7,1.2-0.7,2.1v1.9c0,0.9,0.2,1.6,0.7,2.1C93.8,604.1,94.4,604.3,95.3,604.3z"/>
	<path class="st7" d="M118.1,599.5h-6.8v6.6h-2.4V591h2.4v6.4h6.8V591h2.4v15.1h-2.4V599.5z"/>
	<path class="st7" d="M132.4,606.1c-0.6,0-1.1-0.2-1.4-0.5c-0.3-0.4-0.5-0.8-0.6-1.4h-0.1c-0.2,0.7-0.6,1.2-1.2,1.6
		c-0.6,0.4-1.3,0.5-2.1,0.5c-1.2,0-2.1-0.3-2.7-0.9s-0.9-1.4-0.9-2.4c0-1.1,0.4-2,1.2-2.5c0.8-0.6,2-0.8,3.6-0.8h2v-1
		c0-0.7-0.2-1.2-0.6-1.6c-0.4-0.4-1-0.6-1.8-0.6c-0.7,0-1.2,0.1-1.6,0.4c-0.4,0.3-0.8,0.7-1.1,1.1l-1.4-1.3c0.4-0.6,0.9-1.2,1.6-1.6
		c0.7-0.4,1.6-0.6,2.7-0.6c1.5,0,2.6,0.3,3.4,1c0.8,0.7,1.2,1.7,1.2,2.9v5.7h1.2v1.9H132.4z M127.6,604.6c0.7,0,1.3-0.2,1.8-0.5
		c0.5-0.3,0.7-0.8,0.7-1.3v-1.6h-2c-1.6,0-2.4,0.5-2.4,1.5v0.4c0,0.5,0.2,0.9,0.5,1.1C126.6,604.4,127,604.6,127.6,604.6z"/>
	<path class="st7" d="M139.1,606.1c-0.8,0-1.4-0.2-1.9-0.6c-0.4-0.4-0.6-1-0.6-1.8v-6.9h-1.8v-1.9h1c0.4,0,0.7-0.1,0.8-0.3
		c0.2-0.2,0.2-0.5,0.2-0.8v-2h2.1v3.1h2.4v1.9h-2.4v7.4h2.2v1.9H139.1z"/>
	<path class="st7" d="M154.8,606.4c-2,0-3.5-0.7-4.7-2c-1.1-1.3-1.7-3.3-1.7-5.8c0-1.3,0.1-2.4,0.4-3.4c0.3-1,0.7-1.8,1.3-2.4
		c0.5-0.7,1.2-1.2,2-1.5c0.8-0.3,1.7-0.5,2.7-0.5c1.3,0,2.4,0.3,3.3,0.9c0.9,0.6,1.6,1.4,2.1,2.5l-2.1,1.1c-0.3-0.7-0.7-1.3-1.2-1.7
		c-0.5-0.4-1.3-0.6-2.1-0.6c-1.2,0-2.1,0.4-2.8,1.2c-0.7,0.8-1,1.9-1,3.3v2.3c0,1.4,0.3,2.5,1,3.3c0.7,0.8,1.6,1.2,2.8,1.2
		c0.9,0,1.6-0.2,2.2-0.7c0.6-0.5,1-1.1,1.3-1.8l2,1.2c-0.5,1.1-1.2,2-2.1,2.6C157.2,606.1,156.1,606.4,154.8,606.4z"/>
	<path class="st7" d="M167.1,606.4c-0.8,0-1.5-0.1-2.1-0.4c-0.6-0.3-1.2-0.7-1.6-1.2c-0.4-0.5-0.8-1.1-1-1.9
		c-0.2-0.7-0.4-1.5-0.4-2.4c0-0.9,0.1-1.7,0.4-2.4c0.2-0.7,0.6-1.3,1-1.9c0.4-0.5,1-0.9,1.6-1.2c0.6-0.3,1.4-0.4,2.1-0.4
		s1.5,0.1,2.1,0.4c0.6,0.3,1.2,0.7,1.6,1.2c0.4,0.5,0.8,1.1,1,1.9c0.2,0.7,0.4,1.5,0.4,2.4c0,0.9-0.1,1.7-0.4,2.4
		c-0.2,0.7-0.6,1.3-1,1.9c-0.4,0.5-1,0.9-1.6,1.2C168.6,606.2,167.9,606.4,167.1,606.4z M167.1,604.4c0.8,0,1.5-0.2,1.9-0.7
		c0.5-0.5,0.7-1.2,0.7-2.2v-1.9c0-1-0.2-1.7-0.7-2.2c-0.5-0.5-1.1-0.7-1.9-0.7c-0.8,0-1.5,0.2-1.9,0.7c-0.5,0.5-0.7,1.2-0.7,2.2v1.9
		c0,1,0.2,1.7,0.7,2.2C165.7,604.1,166.3,604.4,167.1,604.4z"/>
	<path class="st7" d="M182,604.2h-0.1c-0.2,0.7-0.6,1.2-1.2,1.6c-0.6,0.4-1.2,0.6-2,0.6c-1.4,0-2.5-0.5-3.3-1.5
		c-0.8-1-1.2-2.5-1.2-4.3c0-1.9,0.4-3.3,1.2-4.3c0.8-1,1.9-1.5,3.3-1.5c0.8,0,1.4,0.2,2,0.6c0.6,0.4,1,0.9,1.2,1.6h0.1v-6.6h2.4v16
		H182V604.2z M179.4,604.3c0.7,0,1.3-0.2,1.8-0.5c0.5-0.4,0.7-0.8,0.7-1.4v-3.9c0-0.6-0.2-1-0.7-1.4c-0.5-0.4-1.1-0.5-1.8-0.5
		c-0.8,0-1.5,0.3-2,0.8c-0.5,0.5-0.7,1.2-0.7,2.1v1.9c0,0.9,0.2,1.6,0.7,2.1C178,604.1,178.6,604.3,179.4,604.3z"/>
	<path class="st7" d="M192.2,606.4c-0.8,0-1.5-0.1-2.2-0.4c-0.6-0.3-1.2-0.7-1.6-1.2c-0.4-0.5-0.8-1.1-1-1.9
		c-0.2-0.7-0.4-1.5-0.4-2.4c0-0.9,0.1-1.7,0.4-2.4c0.2-0.7,0.6-1.3,1-1.9c0.4-0.5,1-0.9,1.6-1.2c0.6-0.3,1.4-0.4,2.2-0.4
		c0.8,0,1.5,0.1,2.2,0.4c0.6,0.3,1.2,0.7,1.6,1.2c0.4,0.5,0.7,1.1,0.9,1.8c0.2,0.7,0.3,1.4,0.3,2.2v0.9h-7.7v0.4
		c0,0.9,0.3,1.6,0.8,2.1c0.5,0.6,1.2,0.8,2.2,0.8c0.7,0,1.3-0.2,1.8-0.5c0.5-0.3,0.9-0.7,1.2-1.2l1.4,1.4c-0.4,0.7-1,1.2-1.8,1.7
		C194.1,606.2,193.2,606.4,192.2,606.4z M192.2,596.4c-0.4,0-0.8,0.1-1.1,0.2c-0.3,0.1-0.6,0.3-0.9,0.6c-0.2,0.3-0.4,0.6-0.6,0.9
		c-0.1,0.4-0.2,0.8-0.2,1.2v0.2h5.2v-0.2c0-0.9-0.2-1.6-0.7-2.1C193.6,596.7,192.9,596.4,192.2,596.4z"/>
	<path class="st7" d="M202.4,606.1H200V591h6.5c1.4,0,2.4,0.4,3.2,1.2c0.8,0.8,1.2,1.9,1.2,3.3c0,1.1-0.2,2-0.7,2.7
		c-0.5,0.7-1.2,1.2-2.2,1.5l3.3,6.4h-2.7l-3-6.1h-3V606.1z M206.3,597.9c0.6,0,1.1-0.2,1.5-0.5c0.3-0.3,0.5-0.8,0.5-1.4v-1
		c0-0.6-0.2-1.1-0.5-1.4c-0.3-0.3-0.8-0.5-1.5-0.5h-3.9v4.8H206.3z"/>
	<path class="st7" d="M218.1,606.4c-0.8,0-1.5-0.1-2.2-0.4c-0.6-0.3-1.2-0.7-1.6-1.2c-0.4-0.5-0.8-1.1-1-1.9
		c-0.2-0.7-0.4-1.5-0.4-2.4c0-0.9,0.1-1.7,0.4-2.4c0.2-0.7,0.6-1.3,1-1.9c0.4-0.5,1-0.9,1.6-1.2c0.6-0.3,1.4-0.4,2.2-0.4
		c0.8,0,1.5,0.1,2.2,0.4c0.6,0.3,1.2,0.7,1.6,1.2c0.4,0.5,0.7,1.1,0.9,1.8c0.2,0.7,0.3,1.4,0.3,2.2v0.9h-7.7v0.4
		c0,0.9,0.3,1.6,0.8,2.1c0.5,0.6,1.2,0.8,2.2,0.8c0.7,0,1.3-0.2,1.8-0.5c0.5-0.3,0.9-0.7,1.2-1.2l1.4,1.4c-0.4,0.7-1,1.2-1.8,1.7
		C220,606.2,219.1,606.4,218.1,606.4z M218.1,596.4c-0.4,0-0.8,0.1-1.1,0.2c-0.3,0.1-0.6,0.3-0.9,0.6c-0.2,0.3-0.4,0.6-0.6,0.9
		c-0.1,0.4-0.2,0.8-0.2,1.2v0.2h5.2v-0.2c0-0.9-0.2-1.6-0.7-2.1C219.5,596.7,218.8,596.4,218.1,596.4z"/>
	<path class="st7" d="M233.9,606.1c-0.6,0-1.1-0.2-1.4-0.5c-0.3-0.4-0.5-0.8-0.6-1.4h-0.1c-0.2,0.7-0.6,1.2-1.2,1.6
		c-0.6,0.4-1.3,0.5-2.1,0.5c-1.2,0-2.1-0.3-2.7-0.9c-0.6-0.6-0.9-1.4-0.9-2.4c0-1.1,0.4-2,1.2-2.5c0.8-0.6,2-0.8,3.6-0.8h2v-1
		c0-0.7-0.2-1.2-0.6-1.6c-0.4-0.4-1-0.6-1.8-0.6c-0.7,0-1.2,0.1-1.6,0.4c-0.4,0.3-0.8,0.7-1.1,1.1l-1.4-1.3c0.4-0.6,0.9-1.2,1.6-1.6
		c0.7-0.4,1.6-0.6,2.7-0.6c1.5,0,2.6,0.3,3.4,1c0.8,0.7,1.2,1.7,1.2,2.9v5.7h1.2v1.9H233.9z M229.2,604.6c0.7,0,1.3-0.2,1.8-0.5
		c0.5-0.3,0.7-0.8,0.7-1.3v-1.6h-2c-1.6,0-2.4,0.5-2.4,1.5v0.4c0,0.5,0.2,0.9,0.5,1.1C228.1,604.4,228.6,604.6,229.2,604.6z"/>
	<path class="st7" d="M244.7,604.2h-0.1c-0.2,0.7-0.6,1.2-1.2,1.6c-0.6,0.4-1.2,0.6-2,0.6c-1.4,0-2.5-0.5-3.3-1.5
		c-0.8-1-1.2-2.5-1.2-4.3c0-1.9,0.4-3.3,1.2-4.3c0.8-1,1.9-1.5,3.3-1.5c0.8,0,1.4,0.2,2,0.6c0.6,0.4,1,0.9,1.2,1.6h0.1v-6.6h2.4v16
		h-2.4V604.2z M242.1,604.3c0.7,0,1.3-0.2,1.8-0.5c0.5-0.4,0.7-0.8,0.7-1.4v-3.9c0-0.6-0.2-1-0.7-1.4c-0.5-0.4-1.1-0.5-1.8-0.5
		c-0.8,0-1.5,0.3-2,0.8c-0.5,0.5-0.7,1.2-0.7,2.1v1.9c0,0.9,0.2,1.6,0.7,2.1C240.6,604.1,241.3,604.3,242.1,604.3z"/>
	<path class="st7" d="M257.3,594.8h2.3l-4.7,13.5c-0.1,0.4-0.3,0.7-0.4,1c-0.2,0.3-0.4,0.5-0.6,0.6c-0.2,0.2-0.5,0.3-0.8,0.4
		c-0.3,0.1-0.7,0.1-1.1,0.1h-1.4v-1.9h1.9l0.6-1.9l-4.1-11.8h2.4l2.3,6.6l0.6,2.4h0.1l0.7-2.4L257.3,594.8z"/>
	<path class="st7" d="M269,606.1l-3.6-15.1h2.5l1.5,7.3l1.1,5h0.1l1.2-5l1.8-7.3h2.7l1.8,7.3l1.2,5h0.1l1.1-5l1.6-7.3h2.4l-3.7,15.1
		H278l-1.9-7.8l-1.1-4.6h0l-1.1,4.6l-2,7.8H269z"/>
	<path class="st7" d="M290.7,606.4c-0.8,0-1.5-0.1-2.1-0.4c-0.6-0.3-1.2-0.7-1.6-1.2c-0.4-0.5-0.8-1.1-1-1.9
		c-0.2-0.7-0.4-1.5-0.4-2.4c0-0.9,0.1-1.7,0.4-2.4c0.2-0.7,0.6-1.3,1-1.9c0.4-0.5,1-0.9,1.6-1.2c0.6-0.3,1.4-0.4,2.1-0.4
		c0.8,0,1.5,0.1,2.1,0.4c0.6,0.3,1.2,0.7,1.6,1.2c0.4,0.5,0.8,1.1,1,1.9c0.2,0.7,0.4,1.5,0.4,2.4c0,0.9-0.1,1.7-0.4,2.4
		c-0.2,0.7-0.6,1.3-1,1.9c-0.4,0.5-1,0.9-1.6,1.2C292.2,606.2,291.5,606.4,290.7,606.4z M290.7,604.4c0.8,0,1.5-0.2,1.9-0.7
		s0.7-1.2,0.7-2.2v-1.9c0-1-0.2-1.7-0.7-2.2c-0.5-0.5-1.1-0.7-1.9-0.7c-0.8,0-1.5,0.2-1.9,0.7c-0.5,0.5-0.7,1.2-0.7,2.2v1.9
		c0,1,0.2,1.7,0.7,2.2S289.9,604.4,290.7,604.4z"/>
	<path class="st7" d="M298.5,606.1v-11.3h2.4v2.2h0.1c0.2-0.6,0.5-1.1,1-1.5c0.5-0.4,1.2-0.6,2.1-0.6h0.6v2.3h-0.9
		c-0.9,0-1.7,0.2-2.2,0.5c-0.5,0.3-0.7,0.8-0.7,1.3v7.2H298.5z"/>
	<path class="st7" d="M306.8,590.1h2.4v9.8h0.1l1.6-2l2.7-3.1h2.7l-3.9,4.4l4.4,6.9h-2.8l-3.2-5.4l-1.6,1.7v3.7h-2.4V590.1z"/>
	<path class="st7" d="M322,606.4c-1.1,0-2-0.2-2.7-0.6c-0.7-0.4-1.3-0.9-1.9-1.6l1.5-1.4c0.4,0.5,0.9,0.9,1.4,1.2
		c0.5,0.3,1.1,0.4,1.8,0.4c0.7,0,1.2-0.1,1.5-0.4c0.3-0.3,0.5-0.6,0.5-1.1c0-0.4-0.1-0.7-0.4-0.9c-0.2-0.3-0.7-0.4-1.2-0.5l-1-0.1
		c-1.2-0.1-2.1-0.5-2.7-1c-0.7-0.5-1-1.3-1-2.4c0-0.5,0.1-1,0.3-1.5c0.2-0.4,0.5-0.8,0.9-1.1c0.4-0.3,0.8-0.5,1.3-0.7
		c0.5-0.2,1.1-0.2,1.7-0.2c1,0,1.8,0.2,2.5,0.5c0.6,0.3,1.2,0.8,1.7,1.3l-1.5,1.4c-0.3-0.3-0.7-0.6-1.1-0.9c-0.5-0.3-1-0.4-1.6-0.4
		c-0.6,0-1.1,0.1-1.4,0.4c-0.3,0.3-0.5,0.6-0.5,1c0,0.4,0.1,0.8,0.4,1c0.3,0.2,0.7,0.4,1.3,0.5l1,0.1c1.2,0.2,2.1,0.6,2.7,1.1
		c0.6,0.5,0.9,1.3,0.9,2.2c0,0.5-0.1,1-0.3,1.5c-0.2,0.4-0.5,0.8-0.9,1.1c-0.4,0.3-0.9,0.6-1.4,0.7
		C323.3,606.3,322.7,606.4,322,606.4z"/>
	<path class="st7" d="M329.1,594.8h2.4v1.9h0.1c0.2-0.7,0.6-1.2,1.2-1.6c0.6-0.4,1.2-0.6,2-0.6c1.4,0,2.5,0.5,3.3,1.5
		c0.8,1,1.2,2.5,1.2,4.3c0,1.9-0.4,3.3-1.2,4.3c-0.8,1-1.9,1.5-3.3,1.5c-0.8,0-1.4-0.2-2-0.6c-0.6-0.4-1-0.9-1.2-1.6h-0.1v6.2h-2.4
		V594.8z M334,604.3c0.8,0,1.5-0.3,2-0.8c0.5-0.5,0.7-1.2,0.7-2.1v-1.9c0-0.9-0.2-1.6-0.7-2.1c-0.5-0.5-1.1-0.8-2-0.8
		c-0.7,0-1.3,0.2-1.8,0.5c-0.5,0.4-0.7,0.8-0.7,1.4v3.9c0,0.6,0.2,1,0.7,1.4C332.7,604.2,333.3,604.3,334,604.3z"/>
	<path class="st7" d="M350.2,606.1c-0.6,0-1.1-0.2-1.4-0.5c-0.3-0.4-0.5-0.8-0.6-1.4H348c-0.2,0.7-0.6,1.2-1.2,1.6
		c-0.6,0.4-1.3,0.5-2.1,0.5c-1.2,0-2.1-0.3-2.7-0.9s-0.9-1.4-0.9-2.4c0-1.1,0.4-2,1.2-2.5c0.8-0.6,2-0.8,3.6-0.8h2v-1
		c0-0.7-0.2-1.2-0.6-1.6c-0.4-0.4-1-0.6-1.8-0.6c-0.7,0-1.2,0.1-1.6,0.4c-0.4,0.3-0.8,0.7-1.1,1.1l-1.4-1.3c0.4-0.6,0.9-1.2,1.6-1.6
		c0.7-0.4,1.6-0.6,2.7-0.6c1.5,0,2.6,0.3,3.4,1c0.8,0.7,1.2,1.7,1.2,2.9v5.7h1.2v1.9H350.2z M345.4,604.6c0.7,0,1.3-0.2,1.8-0.5
		c0.5-0.3,0.7-0.8,0.7-1.3v-1.6h-2c-1.6,0-2.4,0.5-2.4,1.5v0.4c0,0.5,0.2,0.9,0.5,1.1C344.4,604.4,344.8,604.6,345.4,604.6z"/>
	<path class="st7" d="M358.2,606.4c-0.8,0-1.5-0.1-2.2-0.4c-0.6-0.3-1.2-0.7-1.6-1.2c-0.4-0.5-0.8-1.1-1-1.9
		c-0.2-0.7-0.3-1.5-0.3-2.4c0-0.9,0.1-1.7,0.3-2.4c0.2-0.7,0.6-1.3,1-1.9c0.4-0.5,1-0.9,1.6-1.2c0.6-0.3,1.4-0.4,2.2-0.4
		c1.1,0,2,0.3,2.8,0.8c0.7,0.5,1.2,1.2,1.6,2l-1.9,0.9c-0.2-0.5-0.4-0.9-0.8-1.2c-0.4-0.3-0.9-0.5-1.6-0.5c-0.9,0-1.5,0.3-2,0.8
		c-0.4,0.5-0.7,1.2-0.7,2.1v2c0,0.9,0.2,1.6,0.7,2.1c0.4,0.5,1.1,0.8,2,0.8c0.7,0,1.2-0.2,1.7-0.5c0.4-0.3,0.7-0.8,1-1.4l1.8,1
		c-0.4,0.9-0.9,1.6-1.7,2.1C360.2,606.1,359.3,606.4,358.2,606.4z"/>
	<path class="st7" d="M369.2,606.4c-0.8,0-1.5-0.1-2.2-0.4c-0.6-0.3-1.2-0.7-1.6-1.2c-0.4-0.5-0.8-1.1-1-1.9
		c-0.2-0.7-0.4-1.5-0.4-2.4c0-0.9,0.1-1.7,0.4-2.4c0.2-0.7,0.6-1.3,1-1.9c0.4-0.5,1-0.9,1.6-1.2c0.6-0.3,1.4-0.4,2.2-0.4
		c0.8,0,1.5,0.1,2.2,0.4c0.6,0.3,1.2,0.7,1.6,1.2c0.4,0.5,0.7,1.1,0.9,1.8c0.2,0.7,0.3,1.4,0.3,2.2v0.9h-7.7v0.4
		c0,0.9,0.3,1.6,0.8,2.1c0.5,0.6,1.2,0.8,2.2,0.8c0.7,0,1.3-0.2,1.8-0.5c0.5-0.3,0.9-0.7,1.2-1.2l1.4,1.4c-0.4,0.7-1,1.2-1.8,1.7
		C371.1,606.2,370.2,606.4,369.2,606.4z M369.2,596.4c-0.4,0-0.8,0.1-1.1,0.2c-0.3,0.1-0.6,0.3-0.9,0.6c-0.2,0.3-0.4,0.6-0.6,0.9
		c-0.1,0.4-0.2,0.8-0.2,1.2v0.2h5.2v-0.2c0-0.9-0.2-1.6-0.7-2.1C370.6,596.7,369.9,596.4,369.2,596.4z"/>
	<path class="st7" d="M380.4,606.4c-1.1,0-2-0.2-2.7-0.6c-0.7-0.4-1.4-0.9-1.9-1.6l1.5-1.4c0.4,0.5,0.9,0.9,1.4,1.2
		c0.5,0.3,1.1,0.4,1.8,0.4c0.7,0,1.2-0.1,1.5-0.4c0.3-0.3,0.5-0.6,0.5-1.1c0-0.4-0.1-0.7-0.4-0.9c-0.2-0.3-0.7-0.4-1.2-0.5l-1-0.1
		c-1.2-0.1-2.1-0.5-2.7-1c-0.7-0.5-1-1.3-1-2.4c0-0.5,0.1-1,0.3-1.5c0.2-0.4,0.5-0.8,0.9-1.1c0.4-0.3,0.8-0.5,1.3-0.7
		c0.5-0.2,1.1-0.2,1.7-0.2c1,0,1.8,0.2,2.5,0.5c0.6,0.3,1.2,0.8,1.7,1.3l-1.5,1.4c-0.3-0.3-0.7-0.6-1.1-0.9c-0.5-0.3-1-0.4-1.6-0.4
		c-0.6,0-1.1,0.1-1.4,0.4c-0.3,0.3-0.5,0.6-0.5,1c0,0.4,0.1,0.8,0.4,1c0.3,0.2,0.7,0.4,1.3,0.5l1,0.1c1.2,0.2,2.1,0.6,2.7,1.1
		c0.6,0.5,0.9,1.3,0.9,2.2c0,0.5-0.1,1-0.3,1.5c-0.2,0.4-0.5,0.8-0.9,1.1c-0.4,0.3-0.9,0.6-1.4,0.7
		C381.7,606.3,381,606.4,380.4,606.4z"/>
</g>
</svg>
