<?xml version="1.0" encoding="utf-8"?>
<!-- Generator: Adobe Illustrator 24.3.0, SVG Export Plug-In . SVG Version: 6.00 Build 0)  -->
<svg version="1.1" id="Layer_1" xmlns="http://www.w3.org/2000/svg" xmlns:xlink="http://www.w3.org/1999/xlink" x="0px" y="0px"
	 viewBox="0 0 929.6 350" style="enable-background:new 0 0 929.6 350;" xml:space="preserve">
<style type="text/css">
	.st0{fill:#C9DEFE;}
	.st1{fill:#A6C7FF;}
	.st2{fill:#FFFFFF;}
	.st3{opacity:0.95;}
</style>
<g>
	<g>
		<path class="st0" d="M336,60.6v-5.4h4V35.1h-4v-5.4h14.7v5.4h-4v20.1h4v5.4H336z"/>
		<path class="st0" d="M365.8,45.9l-3-6.1h-0.1v20.8h-6.3V29.7h7.3l8.4,14.5l3,6.1h0.1V29.7h6.3v30.7h-7.3L365.8,45.9z"/>
		<path class="st0" d="M401.1,35.7v24.9h-6.7V35.7H386v-6h23.3v6H401.1z"/>
		<path class="st0" d="M414,60.6V29.7h20.9v6h-14.2V42h12.2v6h-12.2v6.7h14.2v6C434.9,60.6,414,60.6,414,60.6z"/>
		<path class="st0" d="M460.4,55.6h-0.3c-0.3,1.6-1.1,3-2.4,3.8c-1.6,1.1-3.6,1.7-5.6,1.6c-1.7,0-3.4-0.3-5-1s-2.8-1.7-4-3
			c-1.3-1.4-2.1-3.1-2.7-5c-0.7-2.3-1-4.6-1-6.8c0-2.3,0.3-4.7,1-6.8c0.6-1.9,1.6-3.6,2.8-5c1.3-1.3,2.7-2.4,4.4-3.1
			c1.9-0.7,3.7-1.1,5.7-1c2.6,0,5,0.6,7.1,1.9s3.7,3.1,4.7,5.4l-5.4,3.1c-0.4-1.1-1.3-2.3-2.3-3c-1.1-0.9-2.7-1.4-4.1-1.3
			c-1.9-0.1-3.7,0.6-5,1.9c-1.4,1.6-2,3.6-1.9,5.7v5c-0.1,2.1,0.4,4.1,1.9,5.7c1.3,1.3,3.1,2,5,1.9c0.9,0,1.6-0.1,2.3-0.3
			c0.7-0.1,1.4-0.4,2-0.9c0.6-0.4,1-0.9,1.3-1.4c0.3-0.6,0.4-1.3,0.4-2v-1.6h-5.7v-5.6h12.1V61h-5.6L460.4,55.6z"/>
		<path class="st0" d="M479.2,60.6h-6.7V29.7h14.7c1.3,0,2.6,0.3,3.8,0.7c1.1,0.4,2.1,1.1,3,2c0.9,0.9,1.4,2,1.9,3.1
			c0.4,1.3,0.7,2.7,0.7,4c0,1.9-0.4,3.8-1.4,5.4c-1,1.6-2.6,2.8-4.3,3.4l6,12.1h-7.4l-5.4-11.2h-4.8L479.2,60.6z M486.3,43.6
			c0.9,0,1.7-0.3,2.4-0.7c0.6-0.6,1-1.4,0.9-2.3v-2c0-0.9-0.3-1.7-0.9-2.3c-0.7-0.6-1.6-0.9-2.4-0.7h-7.1v8.1L486.3,43.6L486.3,43.6
			z"/>
	</g>
	<g>
		<path class="st0" d="M520.5,60.6l-2.3-7.4H508l-2.3,7.4H499l10.1-30.8h8.3l10,30.7L520.5,60.6L520.5,60.6z M513.2,35.8L513.2,35.8
			l-3.5,11.7h7.1L513.2,35.8z"/>
	</g>
	<g>
		<path class="st0" d="M541.5,35.7v24.9h-6.7V35.7h-8.4v-6h23.3v6H541.5z"/>
		<path class="st0" d="M554.5,60.6V29.7h20.9v6h-14.2V42h12.2v6h-12.2v6.7h14.2v6C575.4,60.6,554.5,60.6,554.5,60.6z"/>
		<path class="st0" d="M591.2,61.1c-2.4,0-4.7-0.4-6.8-1.4c-1.9-0.9-3.4-2.1-4.8-3.6l4.4-4.4c2,2.3,4.7,3.6,7.7,3.6
			c1.3,0.1,2.6-0.3,3.7-1c0.7-0.7,1.3-1.7,1.1-2.7c0-0.9-0.3-1.6-0.7-2.1c-0.9-0.7-1.9-1.1-2.8-1.1l-3-0.4c-2.7-0.1-5.1-1.1-7.1-3
			c-1.6-1.7-2.4-4-2.3-6.3c0-1.3,0.3-2.6,0.9-3.8c0.6-1.1,1.3-2.1,2.3-3c1.1-0.9,2.3-1.6,3.6-1.9c1.6-0.4,3.3-0.7,4.8-0.7
			c2.1,0,4.1,0.3,6.1,1.1c1.7,0.7,3.3,1.9,4.6,3.3l-4.4,4.6c-0.7-0.9-1.7-1.6-2.7-2.1c-1.3-0.6-2.6-0.9-4-0.9
			c-1.1-0.1-2.3,0.1-3.4,0.9c-0.7,0.4-1.1,1.3-1.1,2.1c-0.1,0.9,0.3,1.7,0.9,2.3c0.9,0.6,1.9,0.9,2.8,1l3,0.4c2.6,0.3,5.1,1.3,7.1,3
			c1.6,1.7,2.4,3.8,2.3,6.3c0,1.4-0.3,2.7-0.9,4c-0.6,1.3-1.4,2.3-2.4,3.1c-1.1,1-2.4,1.6-3.7,2C594.6,60.9,592.9,61.1,591.2,61.1z"
			/>
	</g>
	<g>
		<path class="st1" d="M437.6,101.9L431.8,76h5.6l2.4,12.4l1.4,7.1h0.1l1.6-7.1l2.8-12.4h6.1l2.8,12.4l1.6,7.1h0.1l1.4-7.1l2.4-12.4
			h5.3l-6,25.9H453L449.7,88l-1.3-5.7h-0.1L447,88l-3.3,13.9H437.6z"/>
		<path class="st1" d="M471.9,80.4c-0.9,0.1-1.7-0.1-2.4-0.7c-0.6-0.6-0.7-1.3-0.7-2v-0.9c0-0.7,0.3-1.4,0.7-2
			c0.7-0.6,1.6-0.9,2.4-0.7c0.9-0.1,1.7,0.1,2.4,0.7c0.6,0.6,0.7,1.3,0.7,2v0.9c0,0.7-0.3,1.4-0.7,2
			C473.6,80.1,472.8,80.4,471.9,80.4z M469.2,82.4h5.6v19.5h-5.6V82.4z"/>
		<path class="st1" d="M486.6,101.9c-1.6,0.1-3.1-0.4-4.3-1.4c-1-1.1-1.6-2.7-1.4-4.3v-9.5h-2.7v-4.3h1.4c0.6,0,1.1-0.1,1.6-0.6
			c0.3-0.4,0.4-1,0.4-1.6v-3.1h4.8v5.3h3.8v4.3h-3.8v11h3.6v4.3h-3.4V101.9z"/>
		<path class="st1" d="M494,74.4h5.4v11.2h0.3c0.3-1,1-2,1.9-2.6c2.6-1.7,6-1.4,8.1,0.9c1.1,1.7,1.7,3.7,1.6,5.7v12.2h-5.6V90.2
			c0.1-1-0.1-2-0.6-2.8c-0.4-0.7-1.3-1-2.1-0.9c-0.4,0-0.9,0-1.3,0.1c-0.4,0.1-0.9,0.3-1.1,0.6c-0.3,0.3-0.6,0.6-0.9,0.9
			c-0.1,0.4-0.3,0.9-0.3,1.3v12.5H494L494,74.4L494,74.4z"/>
	</g>
</g>
<g>
	<path class="st2" d="M196.5,267.3c0.8,0,1.7,0.1,2.5,0.5c0.6,0.6,1.1,1.4,1.3,2.1l12.2,35.5c0.1,0.3,0.1,0.5,0,0.7
		c0,0-0.1,0.4-0.7,0.4h-5.1c-0.4,0-0.6,0-1-0.1c-0.3-0.1-0.5-0.5-0.6-0.7l-2.5-7.7h-14.2l-2.5,7.7c-0.1,0.6-0.7,1.1-1.5,1h-5.1
		c0,0-0.6,0-0.7-0.4c-0.1-0.3-0.1-0.5,0-0.7l12-35.5c0.1-0.5,0.4-0.8,0.6-1.4c0.1-0.3,0.4-0.6,0.7-0.7c0.3-0.3,0.6-0.4,1-0.4
		c0.5-0.1,0.8-0.1,1.4-0.1L196.5,267.3z M195.4,274.8h-0.3l-2.2,7.8l-2.8,9.7h10.8l-2.9-9.4L195.4,274.8z"/>
	<path class="st2" d="M80.7,267.4c0.4,0,0.7,0,1.1,0.3c0,0,0.3,0.3,0.3,1v14.6h17.5v-14.6c0,0,0-0.7,0.4-1c0.3-0.1,0.6-0.3,1-0.3
		h4.2c0.4,0,0.7,0,1,0.3c0,0,0.3,0.3,0.3,1v36.9c0,0,0,0.7-0.3,1c-0.4,0.1-0.6,0.3-1,0.3h-4.2c-0.4,0-0.6-0.1-1-0.3
		c0,0-0.4-0.3-0.4-1v-16.5H82.1v16.5c0,0,0,0.7-0.3,1c-0.4,0.1-0.7,0.3-1.1,0.3h-4.2c-0.4,0-0.6-0.1-1-0.3c0,0-0.4-0.3-0.4-1v-36.9
		c0,0,0-0.7,0.4-1c0.3-0.1,0.6-0.3,1-0.3H80.7z"/>
	<path class="st2" d="M63.6,267.4c0,0,0.6,0,0.7,0.3s0.3,0.5,0.3,0.8v3.9c0,0.3-0.1,0.5-0.3,0.7c-0.3,0.1-0.5,0.3-0.7,0.3H52.9v32.2
		c0,0,0,0.7-0.3,1c-0.4,0.1-0.6,0.3-1,0.3h-4.3c-0.4,0-0.6-0.1-1-0.3c0,0-0.3-0.3-0.3-1v-32.2H35.7c0,0-0.6,0-0.7-0.3
		s-0.3-0.5-0.1-0.7v-3.9c0-0.3,0-0.6,0.1-0.8c0,0,0.1-0.3,0.7-0.3H63.6z"/>
	<path class="st2" d="M146,267.4c0,0,0.7,0,0.8,0.4c0.1,0.3,0.3,0.6,0.3,1v3.5c0,0.4,0,0.6-0.3,1c0,0-0.3,0.3-0.8,0.3h-14.8
		c0,0-2.1,0-3,1c-0.6,0.7-0.8,1.7-0.8,2.8v5.9h16.9c0,0,0.7,0,0.8,0.3c0.1,0.4,0.3,0.7,0.3,1v3.1c0,0.4-0.1,0.6-0.3,1
		c0,0-0.3,0.4-0.8,0.4h-16.9v8.2c0,1,0.4,2,0.8,2.8c0.8,0.6,1.8,1,3,0.8h15.2c0,0,0.7,0,1,0.3c0.1,0.4,0.3,0.7,0.3,1.1v3.5
		c0,0.4-0.1,0.6-0.3,1c0,0-0.3,0.4-1,0.4h-15.9c-1.7,0-3.4-0.3-4.9-0.8c-1.1-0.5-2.2-1.3-3.1-2.2c-0.7-1-1.3-2-1.7-3.2
		c-0.3-1.3-0.4-2.5-0.5-3.8v-19.4c0-1.3,0.3-2.6,0.5-3.8c0.7-2.5,2.5-4.5,4.9-5.5c1.5-0.6,3-0.8,4.6-0.8L146,267.4z"/>
	<path class="st2" d="M165.7,267.4c0.4,0,0.7,0,1.1,0.3c0,0,0.3,0.3,0.3,1v36.9c0,0,0,0.7-0.3,1c-0.4,0.1-0.7,0.3-1.1,0.3h-4.2
		c-0.4,0-0.6-0.1-1-0.3c0,0-0.3-0.3-0.3-1v-36.9c0,0,0-0.7,0.3-1c0.3-0.1,0.6-0.3,1-0.3H165.7z"/>
</g>
<g>
	<path class="st2" d="M166.1,152.6c21.8,0,39.6,17.7,39.6,39.6s-17.6,39.6-39.5,39.6l0,0H78.9c-3.2,0-5.7-2.6-5.7-5.7
		s2.6-5.7,5.7-5.7l0,0h20.3c3.2,0,5.7-2.6,5.7-5.7c0-3.2-2.6-5.7-5.7-5.7h-4.5c-3.2,0-5.7-2.6-5.7-5.7c0-3.1,2.6-5.7,5.7-5.7h13.6
		c3.2,0,5.7-2.6,5.7-5.7c0-3.2-2.6-5.7-5.7-5.7H60.8c-3.2,0-5.7-2.6-5.7-5.7c0-3.1,2.6-5.7,5.7-5.7l0,0h35c3.2,0,5.7-2.6,5.7-5.7
		s-2.6-5.7-5.7-5.7h-7.9c-3.2,0-5.7-2.6-5.7-5.7c0-3.2,2.6-5.7,5.7-5.8L166.1,152.6z M159.8,165.9L159.8,165.9
		c-12.1,0-21.9,9.9-21.9,21.9v8.8c-0.3,12.2,9.4,22.2,21.5,22.5c12.2,0.3,22.2-9.4,22.5-21.5l0,0c0-0.3,0-0.7,0-0.9v-8.8
		C181.8,175.5,172,165.9,159.8,165.9L159.8,165.9z M167.4,186.6c2.9,0,5.3,2.3,5.3,5.3l0,0v0.7c0,2.9-2.3,5.3-5.3,5.3h-16.4
		c-2.9,0-5.3-2.4-5.3-5.3v-0.7c0-2.9,2.4-5.3,5.3-5.3H167.4z"/>
	<path class="st2" d="M64.3,220.5c2.9,0,5.3,2.3,5.3,5.2l0,0l0,0v0.7c0,2.9-2.3,5.3-5.2,5.3l0,0H44.8c-2.9,0-5.3-2.3-5.3-5.3v-0.7
		c0-2.9,2.3-5.3,5.3-5.3L64.3,220.5z"/>
	<path class="st2" d="M73.3,152.8c2.9,0,5.3,2.3,5.3,5.3l0,0l0,0v0.7c0,2.9-2.4,5.2-5.3,5.2H51.5c-2.9,0-5.3-2.3-5.3-5.2l0,0l0,0
		v-0.7c0-2.9,2.3-5.3,5.3-5.3H73.3z"/>
	<path class="st2" d="M80.1,197.9c2.9,0,5.3,2.3,5.3,5.3v0.7c0,2.9-2.3,5.3-5.3,5.3h-12c-2.9,0-5.3-2.4-5.3-5.3v-0.7
		c0-2.9,2.3-5.3,5.3-5.3H80.1z"/>
</g>
<path class="st2" d="M285.6,266.7v39.9h27.8v-3.2h-23.9v-15.8h22.2v-3.2h-22.2V270h23.7v-3.2L285.6,266.7L285.6,266.7z M334.4,281.6
	c1.4,1.4,2.4,3.2,2.7,5.1h3.5c-0.4-3.3-1.7-5.8-3.8-7.5c-2.2-1.7-5-2.6-7.8-2.5c-2,0-4.1,0.4-5.9,1.2c-1.6,0.7-3.1,1.9-4.3,3.3
	c-1.2,1.4-2,3.1-2.7,4.8c-1.2,3.8-1.2,7.9,0,11.8c0.5,1.8,1.5,3.4,2.7,4.8s2.6,2.6,4.3,3.3c1.8,0.9,3.8,1.3,5.9,1.2
	c3,0.1,5.9-1,8-2.9c2.2-2.2,3.5-5.1,3.8-8.2h-3.5c-0.1,1.2-0.4,2.2-0.9,3.3c-0.4,1-1.1,1.8-1.8,2.6s-1.6,1.3-2.6,1.7
	c-1,0.4-2,0.6-3.1,0.6c-1.5,0-3.1-0.3-4.4-1.1c-1.3-0.6-2.4-1.6-3.2-2.8c-0.9-1.2-1.5-2.6-1.9-4c-0.9-2.9-0.9-6.1,0-9
	c0.4-1.4,1.1-2.8,1.9-4c0.9-1.2,1.9-2.1,3.2-2.8c1.4-0.7,2.9-1.1,4.4-1.1C330.9,279.7,332.9,280.4,334.4,281.6L334.4,281.6z
	 M344,266.7v39.9h3.5v-39.9H344z M353.2,266.7v5.7h3.5v-5.7H353.2z M353.2,277.7v28.9h3.5v-28.9H353.2z M362.3,277.7v39.4h3.5V301
	h0.1c0.3,1,0.9,1.9,1.6,2.8c0.6,0.7,1.4,1.4,2.4,1.9s1.9,1,3,1.2c3,0.7,6.1,0.4,8.9-0.9c1.6-0.7,3-1.9,4.1-3.3
	c1.1-1.5,1.9-3.1,2.4-4.8c1.1-3.8,1.1-7.8,0-11.7c-0.4-1.7-1.3-3.4-2.4-4.8s-2.5-2.6-4.1-3.3c-1.8-0.9-3.7-1.3-5.8-1.2
	c-2.2,0-4.4,0.5-6.3,1.6c-1.8,1.1-3.2,2.7-4,4.7h-0.1v-5.5L362.3,277.7z M384.8,287.6c0.7,2.9,0.7,6,0,8.9c-0.3,1.4-0.9,2.8-1.7,4
	c-0.7,1.2-1.7,2.1-2.9,2.8c-1.3,0.7-2.9,1.2-4.3,1.1c-1.6,0-3.3-0.3-4.7-1.1c-1.3-0.6-2.4-1.6-3.1-2.8c-0.9-1.2-1.4-2.6-1.7-4
	c-0.3-1.5-0.5-3-0.5-4.5c0-1.6,0.1-3.1,0.4-4.7c0.3-1.4,0.9-2.8,1.6-4c0.9-1.2,1.9-2,3.1-2.7c1.5-0.7,3.2-1.1,4.8-1
	c1.5,0,3,0.3,4.3,1.1c1.2,0.7,2.1,1.7,2.9,2.8C384,284.9,384.5,286.2,384.8,287.6L384.8,287.6z M409.1,283.3
	c0.4,0.9,0.6,1.8,0.6,2.8h3.5c0-1.4-0.3-2.8-1-4.1c-0.5-1.2-1.3-2.1-2.2-3c-1-0.7-2.1-1.4-3.3-1.7c-1.3-0.4-2.7-0.5-4.1-0.5
	c-1.3,0-2.6,0.1-3.8,0.4c-1.3,0.3-2.5,0.7-3.5,1.4c-1.1,0.6-1.9,1.5-2.6,2.6c-0.6,1.2-1,2.5-1,3.7c0,1.1,0.2,2.1,0.6,3.1
	c0.4,0.9,1,1.6,1.7,2.1c0.7,0.6,1.6,1.1,2.6,1.5c1.1,0.4,2.1,0.7,3.2,1.1l4.5,1c0.9,0.2,1.6,0.4,2.4,0.6c0.7,0.2,1.4,0.5,2,1
	c0.5,0.3,1.1,0.9,1.4,1.5s0.5,1.4,0.5,2.1c0,0.9-0.2,1.8-0.7,2.6s-1.2,1.3-1.9,1.7c-0.9,0.4-1.7,0.7-2.6,1c-0.9,0.2-1.7,0.3-2.7,0.3
	c-2.1,0.1-4.2-0.5-5.9-1.8c-1.6-1.3-2.6-3.3-2.6-5.3h-3.5c0.3,3.5,1.5,6.1,3.6,7.7c2.4,1.7,5.3,2.6,8.2,2.4c1.4,0,2.8-0.1,4.1-0.4
	c1.3-0.3,2.6-0.7,3.6-1.5c1.1-0.6,2-1.6,2.7-2.7c0.7-1.2,1.1-2.6,1.1-4c0-1.2-0.2-2.2-0.7-3.3c-0.4-0.9-1.1-1.7-1.8-2.4
	c-0.7-0.6-1.7-1.2-2.7-1.5c-1-0.4-1.9-0.6-3-0.9l-4.7-1.1c-0.6-0.1-1.3-0.3-1.9-0.6c-0.6-0.2-1.4-0.5-1.9-1
	c-0.5-0.3-1.1-0.9-1.5-1.4s-0.6-1.3-0.6-2c0-0.9,0.2-1.6,0.6-2.4c0.4-0.6,1-1.2,1.6-1.5c0.6-0.4,1.4-0.6,2.2-0.9
	c0.7-0.2,1.6-0.2,2.4-0.2c1,0,1.9,0.1,2.9,0.3c0.9,0.2,1.7,0.6,2.4,1.2C408.1,281.9,408.7,282.5,409.1,283.3L409.1,283.3z
	 M420.2,296.9c-0.3-1.3-0.5-2.6-0.5-4h22.2c0.1-2-0.1-4-0.5-6c-0.4-1.8-1.2-3.6-2.2-5.2c-2.2-3.3-6-5.2-9.9-5c-2,0-4.1,0.4-5.9,1.3
	c-1.6,0.9-3,2-4.1,3.4c-1.1,1.5-1.8,3.1-2.4,4.9s-0.7,3.7-0.7,5.6s0.2,4,0.7,5.9c0.4,1.7,1.3,3.4,2.4,4.8s2.5,2.6,4.1,3.3
	c1.8,0.9,3.8,1.3,5.9,1.2c3.6,0,6.5-0.9,8.4-2.7c2.1-2,3.5-4.7,4.1-7.6h-3.5c-0.4,2-1.5,4-3,5.3c-1.7,1.4-3.8,2.1-6,2
	c-1.5,0-3-0.3-4.3-1.1c-1.2-0.6-2.1-1.6-3-2.7C421.2,299.5,420.6,298.3,420.2,296.9L420.2,296.9z M437.7,286.2
	c0.4,1.3,0.7,2.6,0.7,3.8h-18.7c0.2-1.3,0.4-2.6,1-3.8c0.4-1.2,1.1-2.4,1.8-3.3c0.7-1,1.7-1.7,2.9-2.2c1.2-0.6,2.6-0.9,3.8-0.9
	s2.7,0.3,3.8,0.9c1.1,0.5,2,1.4,2.9,2.2C436.7,283.9,437.3,285,437.7,286.2L437.7,286.2z M488.6,274.5c0.7,1.3,1.4,2.7,1.6,4.1h3.8
	c-0.2-1.9-0.9-3.8-1.8-5.6c-1-1.6-2.2-3-3.6-4.1c-1.5-1.1-3.1-1.9-4.9-2.5c-4.6-1.4-9.4-1.1-13.8,0.9c-2.2,1.1-4.3,2.7-5.9,4.6
	s-2.8,4.2-3.5,6.6c-1.6,5.1-1.6,10.6,0,15.7c0.7,2.4,1.9,4.6,3.5,6.6c1.6,1.9,3.6,3.5,5.9,4.6c2.6,1.2,5.5,1.8,8.2,1.7
	c2.1,0,4.4-0.3,6.4-1.1c1.8-0.7,3.5-1.8,5-3.2c1.5-1.5,2.7-3.1,3.4-5c1-2.1,1.5-4.4,1.7-6.6h-3.8c-0.2,1.7-0.6,3.4-1.3,5
	c-0.6,1.5-1.5,2.9-2.7,4.1c-1.1,1.2-2.4,2.1-3.8,2.8c-1.6,0.6-3.3,1.1-5,1c-2.4,0.1-4.7-0.4-6.8-1.5c-1.8-1-3.4-2.4-4.7-4
	c-1.3-1.7-2.1-3.6-2.7-5.7c-1.2-4.2-1.2-8.7,0-12.8c0.5-2,1.5-4,2.7-5.7s2.8-3,4.7-4c2.1-1.1,4.5-1.5,6.8-1.5c1.4,0,2.8,0.2,4.2,0.6
	c1.3,0.4,2.6,1.1,3.6,1.8C486.9,272.2,487.9,273.4,488.6,274.5L488.6,274.5z M498.4,266.7v39.9h3.5v-16.9c0-1.4,0.2-2.7,0.7-4
	c0.4-1.2,1-2.2,1.8-3.1c0.7-0.9,1.7-1.6,2.8-2c1.2-0.5,2.5-0.7,3.7-0.7s2.5,0.2,3.5,0.6c0.9,0.3,1.7,1.1,2.2,1.8
	c0.5,0.9,1,1.8,1.2,2.8c0.2,1.2,0.4,2.2,0.3,3.4v18h3.5v-18.6c0-1.6-0.1-3.1-0.5-4.6c-0.3-1.3-0.9-2.5-1.7-3.5c-0.9-1-2-1.7-3.3-2.2
	c-1.6-0.5-3.3-0.9-5-0.7c-2,0-4,0.5-5.7,1.6c-1.6,1-2.9,2.5-3.5,4.2h-0.1v-16L498.4,266.7z M529.9,296.9c-0.3-1.3-0.5-2.6-0.5-4
	h22.1c0.1-2-0.1-4-0.5-6c-0.4-1.8-1.2-3.6-2.2-5.2c-2.2-3.3-6-5.2-9.9-5c-2,0-4.1,0.4-5.9,1.3c-1.6,0.9-3,2-4.1,3.4
	c-1.1,1.5-1.8,3.1-2.4,4.9s-0.7,3.7-0.7,5.6s0.2,4,0.7,5.9c0.4,1.7,1.3,3.4,2.4,4.8s2.5,2.6,4.1,3.3c1.8,0.9,3.8,1.3,5.9,1.2
	c3.6,0,6.5-0.9,8.4-2.7c2.1-2,3.5-4.7,4.1-7.6h-3.3c-0.4,2-1.5,4-3,5.3c-1.7,1.4-3.8,2.1-6,2c-1.5,0-3-0.3-4.3-1.1
	c-1.2-0.6-2.1-1.6-3-2.7C530.8,299.5,530.2,298.3,529.9,296.9L529.9,296.9z M547.3,286.2c0.4,1.3,0.7,2.6,0.7,3.8h-18.7
	c0.2-1.3,0.4-2.6,1-3.8c0.4-1.2,1.1-2.4,1.8-3.3c0.7-1,1.7-1.7,2.9-2.2c1.2-0.6,2.6-0.9,3.8-0.9c1.3,0,2.7,0.3,3.8,0.9
	c1.1,0.5,2,1.4,2.9,2.2C546.3,283.9,546.9,285,547.3,286.2L547.3,286.2z"/>
<g>
	<path class="st2" d="M418.6,212.7l45-26V219l-45,26l-44.9-26v-32.3L418.6,212.7z"/>
	<path class="st2" d="M463.6,167l-28,16.1l-17-9.8l-44.9,26.1v-32.3l45-26L463.6,167z"/>
</g>
<g>
	<g class="st3">
		<path class="st2" d="M600.1,313.6v-13.2h8.3v2h-6.1v3.7h5.4v2h-5.4v5.8h-2.1V313.6z"/>
		<path class="st2" d="M614,313.8c-0.7,0-1.3-0.1-1.9-0.3c-0.5-0.3-1-0.6-1.4-1s-0.7-0.9-0.9-1.7c-0.2-0.6-0.3-1.3-0.3-2.1
			s0.1-1.4,0.3-2.1c0.2-0.6,0.5-1.1,0.9-1.7c0.3-0.4,0.9-0.8,1.4-1s1.2-0.3,1.9-0.3c0.6,0,1.3,0.1,1.9,0.3c0.5,0.3,1,0.6,1.4,1
			c0.3,0.4,0.7,0.9,0.9,1.7c0.2,0.6,0.3,1.3,0.3,2.1s-0.1,1.4-0.3,2.1c-0.2,0.6-0.5,1.1-0.9,1.7c-0.3,0.4-0.9,0.8-1.4,1
			C615.3,313.6,614.7,313.8,614,313.8z M614,312.1c0.7,0,1.3-0.2,1.7-0.6c0.4-0.4,0.6-1,0.6-2v-1.7c0-0.9-0.2-1.4-0.6-2
			c-0.4-0.4-0.9-0.6-1.7-0.6s-1.3,0.2-1.7,0.6c-0.4,0.4-0.6,1-0.6,2v1.7c0,0.9,0.2,1.4,0.6,2C612.7,311.9,613.2,312.1,614,312.1z"/>
		<path class="st2" d="M620.8,313.6v-9.9h2.1v2h0.1c0.2-0.5,0.4-0.9,0.9-1.3c0.4-0.3,1-0.5,1.9-0.5h0.5v2h-0.8c-0.8,0-1.4,0.2-2,0.4
			c-0.4,0.3-0.6,0.7-0.6,1.1v6.3h-2.1V313.6L620.8,313.6z"/>
		<path class="st2" d="M634.9,313.6h-2.2v-13.2h5.7c1.2,0,2.1,0.3,2.8,1c0.7,0.7,1,1.7,1,2.9c0,0.9-0.2,1.8-0.6,2.4
			c-0.4,0.6-1,1-2,1.3l2.9,5.6h-2.4l-2.6-5.4h-2.6L634.9,313.6L634.9,313.6z M638.3,306.4c0.5,0,0.9-0.2,1.3-0.4
			c0.3-0.3,0.4-0.7,0.4-1.2v-0.9c0-0.5-0.2-0.9-0.4-1.2s-0.7-0.4-1.3-0.4h-3.4v4.2L638.3,306.4L638.3,306.4z"/>
		<path class="st2" d="M648.6,313.8c-0.7,0-1.3-0.1-2-0.3c-0.5-0.3-1-0.6-1.4-1s-0.7-0.9-0.9-1.7c-0.2-0.6-0.3-1.3-0.3-2.1
			s0.1-1.4,0.3-2.1c0.2-0.6,0.5-1.1,0.9-1.7c0.3-0.4,0.9-0.8,1.4-1s1.2-0.3,2-0.3c0.7,0,1.3,0.1,2,0.3c0.5,0.3,1,0.6,1.4,1
			s0.6,0.9,0.8,1.6c0.2,0.6,0.3,1.2,0.3,2v0.8h-6.7v0.3c0,0.8,0.3,1.4,0.7,1.9c0.4,0.5,1,0.7,2,0.7c0.6,0,1.1-0.2,1.6-0.4
			c0.4-0.3,0.8-0.6,1-1l1.2,1.2c-0.3,0.6-0.9,1-1.6,1.4C650.3,313.6,649.6,313.8,648.6,313.8z M648.6,305c-0.3,0-0.7,0.1-0.9,0.2
			s-0.5,0.3-0.8,0.5c-0.2,0.3-0.3,0.5-0.5,0.8c-0.1,0.3-0.2,0.7-0.2,1v0.2h4.6v-0.2c0-0.8-0.2-1.4-0.6-1.9
			C649.8,305.3,649.2,305,648.6,305z"/>
		<path class="st2" d="M661.5,311.9L661.5,311.9c-0.3,0.6-0.6,1-1.1,1.4c-0.5,0.3-1,0.5-1.8,0.5c-1.2,0-2.2-0.4-2.9-1.3
			c-0.7-0.9-1-2.2-1-3.7c0-1.7,0.3-2.9,1-3.7c0.7-0.9,1.7-1.3,2.9-1.3c0.7,0,1.2,0.2,1.8,0.5c0.5,0.3,0.9,0.8,1,1.4h0.1v-5.8h2.1v14
			h-2.1V311.9z M659.3,312c0.6,0,1.1-0.2,1.6-0.4c0.4-0.3,0.6-0.7,0.6-1.2V307c0-0.5-0.2-0.9-0.6-1.2c-0.4-0.3-0.9-0.4-1.6-0.4
			s-1.3,0.3-1.8,0.7c-0.4,0.4-0.6,1-0.6,1.9v1.7c0,0.8,0.2,1.4,0.6,1.9C657.9,311.9,658.5,312,659.3,312z"/>
		<path class="st2" d="M679.3,307.8h-6v5.8h-2.1v-13.2h2.1v5.6h6v-5.6h2.1v13.2h-2.1V307.8z"/>
		<path class="st2" d="M691.8,313.6c-0.5,0-0.9-0.2-1.2-0.4c-0.3-0.3-0.4-0.7-0.5-1.2H690c-0.2,0.6-0.5,1-1,1.4
			c-0.5,0.3-1.1,0.4-1.9,0.4c-1,0-1.9-0.3-2.4-0.8c-0.5-0.5-0.8-1.2-0.8-2.1s0.3-1.8,1-2.2c0.7-0.5,1.8-0.7,3.1-0.7h1.8v-0.9
			c0-0.6-0.2-1-0.5-1.4c-0.3-0.3-0.9-0.5-1.6-0.5c-0.6,0-1,0.1-1.4,0.3c-0.3,0.3-0.7,0.6-0.9,0.9l-1.2-1.1c0.3-0.5,0.8-1,1.4-1.4
			c0.6-0.3,1.4-0.5,2.4-0.5c1.3,0,2.3,0.3,3,0.9c0.7,0.6,1,1.4,1,2.6v5h1v1.7L691.8,313.6L691.8,313.6L691.8,313.6z M687.5,312.3
			c0.6,0,1.1-0.2,1.6-0.4c0.4-0.3,0.6-0.7,0.6-1.1v-1.4h-1.8c-1.4,0-2.1,0.4-2.1,1.3v0.3c0,0.4,0.2,0.8,0.4,0.9
			C686.7,312.1,687,312.3,687.5,312.3z"/>
		<path class="st2" d="M697.6,313.6c-0.7,0-1.2-0.2-1.7-0.5c-0.3-0.3-0.5-0.9-0.5-1.6v-6h-1.6v-1.7h0.9c0.3,0,0.6-0.1,0.7-0.3
			c0.2-0.2,0.2-0.4,0.2-0.7V301h1.9v2.7h2.1v1.7h-2.1v6.5h2v1.7L697.6,313.6L697.6,313.6z"/>
		<path class="st2" d="M711.3,313.8c-1.8,0-3.1-0.6-4.1-1.8c-0.9-1.1-1.4-2.9-1.4-5.1c0-1.1,0.1-2.1,0.3-3c0.3-0.9,0.6-1.6,1.1-2.1
			c0.4-0.6,1-1,1.8-1.3c0.8-0.3,1.4-0.4,2.4-0.4c1.1,0,2.1,0.3,2.9,0.8c0.8,0.5,1.4,1.2,1.9,2.2l-1.9,0.9c-0.3-0.6-0.6-1.1-1-1.4
			c-0.4-0.3-1.1-0.5-1.9-0.5c-1,0-1.9,0.3-2.5,1s-0.9,1.7-0.9,2.9v2c0,1.2,0.3,2.2,0.9,2.9s1.4,1,2.5,1c0.8,0,1.4-0.2,2-0.6
			c0.6-0.4,0.9-0.9,1.1-1.6l1.8,1c-0.4,0.9-1,1.8-1.9,2.3C713.5,313.6,712.5,313.8,711.3,313.8z"/>
		<path class="st2" d="M722.2,313.8c-0.7,0-1.3-0.1-1.9-0.3c-0.5-0.3-1-0.6-1.4-1s-0.7-0.9-0.9-1.7c-0.2-0.6-0.3-1.3-0.3-2.1
			s0.1-1.4,0.3-2.1c0.2-0.6,0.5-1.1,0.9-1.7c0.3-0.4,0.9-0.8,1.4-1c0.5-0.3,1.2-0.3,1.9-0.3c0.6,0,1.3,0.1,1.9,0.3
			c0.5,0.3,1,0.6,1.4,1c0.3,0.4,0.7,0.9,0.9,1.7c0.2,0.6,0.3,1.3,0.3,2.1s-0.1,1.4-0.3,2.1c-0.2,0.6-0.5,1.1-0.9,1.7
			c-0.3,0.4-0.9,0.8-1.4,1C723.4,313.6,722.8,313.8,722.2,313.8z M722.2,312.1c0.7,0,1.3-0.2,1.7-0.6c0.4-0.4,0.6-1,0.6-2v-1.7
			c0-0.9-0.2-1.4-0.6-2c-0.4-0.4-0.9-0.6-1.7-0.6c-0.8,0-1.3,0.2-1.7,0.6c-0.4,0.4-0.6,1-0.6,2v1.7c0,0.9,0.2,1.4,0.6,2
			C720.9,311.9,721.5,312.1,722.2,312.1z"/>
		<path class="st2" d="M735.2,311.9L735.2,311.9c-0.3,0.6-0.6,1-1.1,1.4c-0.5,0.3-1,0.5-1.8,0.5c-1.2,0-2.2-0.4-2.9-1.3
			s-1-2.2-1-3.7c0-1.7,0.3-2.9,1-3.7c0.7-0.9,1.7-1.3,2.9-1.3c0.7,0,1.2,0.2,1.8,0.5c0.5,0.3,0.9,0.8,1,1.4h0.1v-5.8h2.1v14h-2.1
			V311.9z M733,312c0.6,0,1.1-0.2,1.6-0.4c0.4-0.3,0.6-0.7,0.6-1.2V307c0-0.5-0.2-0.9-0.6-1.2c-0.4-0.3-0.9-0.4-1.6-0.4
			s-1.3,0.3-1.8,0.7c-0.4,0.4-0.6,1-0.6,1.9v1.7c0,0.8,0.2,1.4,0.6,1.9C731.7,311.9,732.2,312,733,312z"/>
		<path class="st2" d="M744.1,313.8c-0.7,0-1.3-0.1-2-0.3c-0.5-0.3-1-0.6-1.4-1s-0.7-0.9-0.9-1.7c-0.2-0.6-0.3-1.3-0.3-2.1
			s0.1-1.4,0.3-2.1c0.2-0.6,0.5-1.1,0.9-1.7c0.3-0.4,0.9-0.8,1.4-1s1.2-0.3,2-0.3s1.3,0.1,2,0.3c0.5,0.3,1,0.6,1.4,1
			s0.6,0.9,0.8,1.6c0.2,0.6,0.3,1.2,0.3,2v0.8h-6.7v0.3c0,0.8,0.3,1.4,0.7,1.9c0.4,0.5,1,0.7,2,0.7c0.6,0,1.1-0.2,1.6-0.4
			c0.4-0.3,0.8-0.6,1-1l1.2,1.2c-0.3,0.6-0.9,1-1.6,1.4C745.8,313.6,745,313.8,744.1,313.8z M744.1,305c-0.3,0-0.7,0.1-0.9,0.2
			c-0.3,0.1-0.5,0.3-0.8,0.5c-0.2,0.3-0.3,0.5-0.5,0.8c-0.1,0.3-0.2,0.7-0.2,1v0.2h4.6v-0.2c0-0.8-0.2-1.4-0.6-1.9
			C745.4,305.3,744.7,305,744.1,305z"/>
		<path class="st2" d="M753,313.6h-2.1v-13.2h5.7c1.2,0,2.1,0.3,2.8,1c0.7,0.7,1,1.7,1,2.9c0,0.9-0.2,1.8-0.6,2.4
			c-0.4,0.6-1,1-2,1.3l2.9,5.6h-2.4l-2.6-5.4h-2.6v5.4H753z M756.4,306.4c0.5,0,0.9-0.2,1.3-0.4c0.3-0.3,0.4-0.7,0.4-1.2v-0.9
			c0-0.5-0.2-0.9-0.4-1.2s-0.7-0.4-1.3-0.4H753v4.2L756.4,306.4L756.4,306.4z"/>
		<path class="st2" d="M766.8,313.8c-0.7,0-1.3-0.1-2-0.3c-0.5-0.3-1-0.6-1.4-1s-0.7-0.9-0.9-1.7c-0.2-0.6-0.3-1.3-0.3-2.1
			s0.1-1.4,0.3-2.1c0.2-0.6,0.5-1.1,0.9-1.7c0.3-0.4,0.9-0.8,1.4-1s1.2-0.3,2-0.3s1.3,0.1,2,0.3c0.5,0.3,1,0.6,1.4,1
			s0.6,0.9,0.8,1.6c0.2,0.6,0.3,1.2,0.3,2v0.8h-6.7v0.3c0,0.8,0.3,1.4,0.7,1.9c0.4,0.5,1,0.7,2,0.7c0.6,0,1.1-0.2,1.6-0.4
			c0.4-0.3,0.8-0.6,1-1l1.2,1.2c-0.3,0.6-0.9,1-1.6,1.4C768.4,313.6,767.7,313.8,766.8,313.8z M766.8,305c-0.3,0-0.7,0.1-0.9,0.2
			s-0.5,0.3-0.8,0.5c-0.2,0.3-0.3,0.5-0.5,0.8c-0.1,0.3-0.2,0.7-0.2,1v0.2h4.6v-0.2c0-0.8-0.2-1.4-0.6-1.9
			C768,305.3,767.4,305,766.8,305z"/>
		<path class="st2" d="M780.7,313.6c-0.5,0-0.9-0.2-1.2-0.4c-0.3-0.3-0.4-0.7-0.5-1.2h-0.1c-0.2,0.6-0.5,1-1,1.4
			c-0.5,0.3-1.1,0.4-1.9,0.4c-1,0-1.9-0.3-2.4-0.8s-0.8-1.2-0.8-2.1s0.3-1.8,1-2.2c0.7-0.5,1.8-0.7,3.1-0.7h1.8v-0.9
			c0-0.6-0.2-1-0.5-1.4c-0.3-0.3-0.9-0.5-1.6-0.5c-0.6,0-1,0.1-1.4,0.3c-0.3,0.3-0.7,0.6-0.9,0.9l-1.2-1.1c0.3-0.5,0.8-1,1.4-1.4
			c0.6-0.3,1.4-0.5,2.4-0.5c1.3,0,2.3,0.3,3,0.9c0.7,0.6,1,1.4,1,2.6v5h1v1.7L780.7,313.6L780.7,313.6L780.7,313.6z M776.5,312.3
			c0.6,0,1.1-0.2,1.6-0.4c0.4-0.3,0.6-0.7,0.6-1.1v-1.4H777c-1.4,0-2.1,0.4-2.1,1.3v0.3c0,0.4,0.2,0.8,0.4,0.9
			C775.6,312.1,776,312.3,776.5,312.3z"/>
		<path class="st2" d="M790.1,311.9L790.1,311.9c-0.3,0.6-0.6,1-1.1,1.4c-0.5,0.3-1,0.5-1.8,0.5c-1.2,0-2.2-0.4-2.9-1.3
			c-0.7-0.9-1-2.2-1-3.7c0-1.7,0.3-2.9,1-3.7c0.7-0.9,1.7-1.3,2.9-1.3c0.7,0,1.2,0.2,1.8,0.5c0.5,0.3,0.9,0.8,1,1.4h0.1v-5.8h2.1v14
			h-2.1V311.9z M787.8,312c0.6,0,1.1-0.2,1.6-0.4c0.4-0.3,0.6-0.7,0.6-1.2V307c0-0.5-0.2-0.9-0.6-1.2c-0.4-0.3-0.9-0.4-1.6-0.4
			s-1.3,0.3-1.8,0.7c-0.4,0.4-0.6,1-0.6,1.9v1.7c0,0.8,0.2,1.4,0.6,1.9C786.5,311.9,787.2,312,787.8,312z"/>
		<path class="st2" d="M801.1,303.7h2l-4.1,11.8c-0.1,0.3-0.3,0.6-0.3,0.9c-0.2,0.3-0.3,0.4-0.5,0.5c-0.2,0.2-0.4,0.3-0.7,0.3
			s-0.6,0.1-0.9,0.1h-1.2v-1.7h1.7l0.5-1.7l-3.6-10.3h2.1l2,5.8l0.5,2.1h0.1l0.6-2.1L801.1,303.7z"/>
		<path class="st2" d="M811.4,313.6l-3.1-13.2h2.2l1.3,6.4l0.9,4.3h0.1l1-4.3l1.6-6.4h2.4l1.6,6.4l1,4.3h0.1l0.9-4.3l1.4-6.4h2.1
			l-3.2,13.2h-2.5l-1.7-6.8l-0.9-4l0,0l-0.9,4l-1.8,6.8H811.4z"/>
		<path class="st2" d="M830.4,313.8c-0.7,0-1.3-0.1-1.9-0.3c-0.5-0.3-1-0.6-1.4-1s-0.7-0.9-0.9-1.7c-0.2-0.6-0.3-1.3-0.3-2.1
			s0.1-1.4,0.3-2.1c0.2-0.6,0.5-1.1,0.9-1.7c0.3-0.4,0.9-0.8,1.4-1s1.2-0.3,1.9-0.3c0.7,0,1.3,0.1,1.9,0.3c0.5,0.3,1,0.6,1.4,1
			c0.3,0.4,0.7,0.9,0.9,1.7c0.2,0.6,0.3,1.3,0.3,2.1s-0.1,1.4-0.3,2.1c-0.2,0.6-0.5,1.1-0.9,1.7c-0.3,0.4-0.9,0.8-1.4,1
			C831.7,313.6,831.1,313.8,830.4,313.8z M830.4,312.1c0.7,0,1.3-0.2,1.7-0.6c0.4-0.4,0.6-1,0.6-2v-1.7c0-0.9-0.2-1.4-0.6-2
			c-0.4-0.4-0.9-0.6-1.7-0.6s-1.3,0.2-1.7,0.6c-0.4,0.4-0.6,1-0.6,2v1.7c0,0.9,0.2,1.4,0.6,2C829.2,311.9,829.7,312.1,830.4,312.1z"
			/>
		<path class="st2" d="M837.2,313.6v-9.9h2.1v2h0.1c0.2-0.5,0.4-0.9,0.9-1.3c0.4-0.3,1-0.5,1.9-0.5h0.5v2h-0.8c-0.8,0-1.4,0.2-2,0.4
			c-0.4,0.3-0.6,0.7-0.6,1.1v6.3h-2.1L837.2,313.6L837.2,313.6z"/>
		<path class="st2" d="M844.5,299.6h2.1v8.6h0.1l1.4-1.8l2.4-2.7h2.4l-3.4,3.8l3.8,6h-2.5l-2.8-4.8l-1.4,1.4v3.2h-2.1V299.6
			L844.5,299.6z"/>
		<path class="st2" d="M857.8,313.8c-0.9,0-1.8-0.2-2.4-0.5c-0.6-0.3-1.1-0.8-1.7-1.4l1.3-1.2c0.3,0.4,0.8,0.8,1.2,1
			c0.4,0.3,0.9,0.3,1.6,0.3c0.6,0,1-0.1,1.3-0.3s0.4-0.5,0.4-0.9c0-0.3-0.1-0.6-0.3-0.8c-0.2-0.3-0.6-0.3-1-0.4l-0.9-0.1
			c-1-0.1-1.9-0.4-2.4-0.9c-0.6-0.4-0.9-1.1-0.9-2.1c0-0.4,0.1-0.9,0.3-1.3c0.2-0.3,0.4-0.7,0.8-0.9c0.3-0.3,0.7-0.4,1.1-0.6
			c0.4-0.2,0.9-0.2,1.4-0.2c0.9,0,1.6,0.2,2.2,0.4c0.5,0.3,1,0.7,1.4,1.1l-1.3,1.2c-0.3-0.3-0.6-0.5-0.9-0.8
			c-0.4-0.3-0.9-0.3-1.4-0.3s-0.9,0.1-1.2,0.3c-0.3,0.3-0.4,0.5-0.4,0.9c0,0.3,0.1,0.7,0.3,0.9c0.3,0.2,0.6,0.3,1.1,0.4l0.9,0.1
			c1,0.2,1.9,0.5,2.4,0.9c0.5,0.4,0.8,1.1,0.8,2c0,0.4-0.1,0.9-0.3,1.3c-0.2,0.3-0.4,0.7-0.8,0.9c-0.3,0.3-0.8,0.5-1.2,0.6
			C859,313.7,858.5,313.8,857.8,313.8z"/>
		<path class="st2" d="M864,303.7h2.1v1.7h0.1c0.2-0.6,0.5-1,1-1.4c0.5-0.3,1-0.5,1.8-0.5c1.2,0,2.2,0.4,2.9,1.3
			c0.7,0.9,1,2.2,1,3.7c0,1.7-0.3,2.9-1,3.7c-0.7,0.9-1.7,1.3-2.9,1.3c-0.7,0-1.2-0.2-1.8-0.5c-0.5-0.3-0.9-0.8-1-1.4h-0.1v5.4H864
			V303.7z M868.3,312c0.7,0,1.3-0.3,1.8-0.7c0.4-0.4,0.6-1,0.6-1.9v-1.7c0-0.8-0.2-1.4-0.6-1.9c-0.4-0.4-0.9-0.7-1.8-0.7
			c-0.6,0-1.1,0.2-1.6,0.4c-0.4,0.3-0.6,0.7-0.6,1.2v3.4c0,0.5,0.2,0.9,0.6,1.2C867.2,311.9,867.7,312,868.3,312z"/>
		<path class="st2" d="M882.5,313.6c-0.5,0-0.9-0.2-1.2-0.4c-0.3-0.3-0.4-0.7-0.5-1.2h-0.2c-0.2,0.6-0.5,1-1,1.4
			c-0.5,0.3-1.1,0.4-1.9,0.4c-1,0-1.9-0.3-2.4-0.8c-0.5-0.5-0.8-1.2-0.8-2.1s0.3-1.8,1-2.2c0.7-0.5,1.8-0.7,3.1-0.7h1.8v-0.9
			c0-0.6-0.2-1-0.5-1.4c-0.3-0.3-0.9-0.5-1.6-0.5c-0.6,0-1,0.1-1.4,0.3c-0.3,0.3-0.7,0.6-0.9,0.9l-1.2-1.1c0.3-0.5,0.8-1,1.4-1.4
			c0.6-0.3,1.4-0.5,2.4-0.5c1.3,0,2.3,0.3,3,0.9c0.7,0.6,1,1.4,1,2.6v5h1v1.7L882.5,313.6L882.5,313.6z M878.3,312.3
			c0.6,0,1.1-0.2,1.6-0.4c0.4-0.3,0.6-0.7,0.6-1.1v-1.4h-1.8c-1.4,0-2.1,0.4-2.1,1.3v0.3c0,0.4,0.2,0.8,0.4,0.9
			C877.4,312.1,877.8,312.3,878.3,312.3z"/>
		<path class="st2" d="M889.5,313.8c-0.7,0-1.3-0.1-2-0.3c-0.5-0.3-1-0.6-1.4-1s-0.7-0.9-0.9-1.7c-0.2-0.6-0.3-1.3-0.3-2.1
			s0.1-1.4,0.3-2.1c0.2-0.6,0.5-1.1,0.9-1.7c0.3-0.4,0.9-0.8,1.4-1s1.2-0.3,2-0.3c0.9,0,1.8,0.3,2.5,0.7c0.6,0.4,1,1,1.4,1.8
			l-1.7,0.8c-0.2-0.4-0.3-0.8-0.7-1c-0.3-0.3-0.8-0.4-1.4-0.4c-0.8,0-1.3,0.3-1.8,0.7c-0.3,0.4-0.6,1-0.6,1.9v1.8
			c0,0.8,0.2,1.4,0.6,1.9c0.3,0.4,0.9,0.7,1.8,0.7c0.6,0,1-0.2,1.4-0.4c0.3-0.3,0.6-0.7,0.9-1.2l1.6,0.9c-0.3,0.8-0.8,1.4-1.4,1.9
			C891.3,313.6,890.5,313.8,889.5,313.8z"/>
		<path class="st2" d="M899.1,313.8c-0.7,0-1.3-0.1-2-0.3c-0.5-0.3-1-0.6-1.4-1c-0.3-0.4-0.7-0.9-0.9-1.7c-0.2-0.6-0.3-1.3-0.3-2.1
			s0.1-1.4,0.3-2.1c0.2-0.6,0.5-1.1,0.9-1.7c0.3-0.4,0.9-0.8,1.4-1c0.5-0.3,1.2-0.3,2-0.3c0.7,0,1.3,0.1,2,0.3c0.5,0.3,1,0.6,1.4,1
			c0.3,0.4,0.6,0.9,0.8,1.6c0.2,0.6,0.3,1.2,0.3,2v0.8h-6.7v0.3c0,0.8,0.3,1.4,0.7,1.9c0.4,0.5,1,0.7,2,0.7c0.6,0,1.1-0.2,1.6-0.4
			c0.4-0.3,0.8-0.6,1-1l1.2,1.2c-0.3,0.6-0.9,1-1.6,1.4C900.8,313.6,900.1,313.8,899.1,313.8z M899.1,305c-0.3,0-0.7,0.1-0.9,0.2
			s-0.5,0.3-0.8,0.5c-0.2,0.3-0.3,0.5-0.5,0.8c-0.1,0.3-0.2,0.7-0.2,1v0.2h4.6v-0.2c0-0.8-0.2-1.4-0.6-1.9
			C900.4,305.3,899.7,305,899.1,305z"/>
		<path class="st2" d="M909,313.8c-0.9,0-1.8-0.2-2.4-0.5c-0.6-0.3-1.2-0.8-1.7-1.4l1.3-1.2c0.3,0.4,0.8,0.8,1.2,1
			c0.4,0.3,0.9,0.3,1.6,0.3c0.6,0,1-0.1,1.3-0.3c0.3-0.3,0.4-0.5,0.4-0.9c0-0.3-0.1-0.6-0.3-0.8c-0.2-0.3-0.6-0.3-1-0.4l-0.9-0.1
			c-1-0.1-1.9-0.4-2.4-0.9c-0.6-0.4-0.9-1.1-0.9-2.1c0-0.4,0.1-0.9,0.3-1.3c0.2-0.3,0.4-0.7,0.8-0.9c0.3-0.3,0.7-0.4,1.1-0.6
			c0.4-0.2,0.9-0.2,1.4-0.2c0.9,0,1.6,0.2,2.2,0.4c0.5,0.3,1,0.7,1.4,1.1l-1.3,1.2c-0.3-0.3-0.6-0.5-0.9-0.8
			c-0.4-0.3-0.9-0.3-1.4-0.3c-0.5,0-0.9,0.1-1.2,0.3c-0.3,0.3-0.4,0.5-0.4,0.9c0,0.3,0.1,0.7,0.3,0.9c0.3,0.2,0.6,0.3,1.1,0.4
			l0.9,0.1c1,0.2,1.9,0.5,2.4,0.9c0.5,0.4,0.8,1.1,0.8,2c0,0.4-0.1,0.9-0.3,1.3c-0.2,0.3-0.4,0.7-0.8,0.9c-0.3,0.3-0.8,0.5-1.2,0.6
			C910.1,313.7,909.5,313.8,909,313.8z"/>
	</g>
	<g>
		<polygon class="st2" points="789.3,191.5 784.2,196.7 797.2,209.8 784.2,222.9 789.3,228 807.6,209.8 		"/>
		<polygon class="st2" points="767.4,191.5 772.6,196.7 759.5,209.8 772.6,222.9 767.4,228 749.1,209.8 		"/>
		<g>
			<path class="st2" d="M715.1,213.1L715.1,213.1l-2.6-1.5v-49h-7.3v51.1c0,1.3,0.7,2.5,1.8,3.2l4.4,2.6l39.4,22.9l3.7-6.3
				L715.1,213.1z"/>
		</g>
		<path class="st2" d="M754.9,134c-1.1-0.7-2.5-0.7-3.6,0l-14.7,8.4c-1.1,0.6-1.8,1.9-1.8,3.2l0,31.7h7.3l0-29.6l11-6.3l40.1,23.3
			v19.8h7.3v-21.9c0-1.3-0.7-2.5-1.8-3.1"/>
		<rect x="720.1" y="151.6" class="st2" width="7.3" height="36.5"/>
	</g>
	<g>
		<path class="st2" d="M599.2,290.7v-3.2h3.3v-17.6h-3.3v-3.2h10.4v3.2h-3.3v17.6h3.3v3.2H599.2z"/>
		<path class="st2" d="M614.5,266.7h10.6c3.9,0,6.4,2.4,6.4,6.2c0,3.6-2.2,4.9-4.2,5.1v0.2c2,0.1,5,1.6,5,5.6c0,3.9-2.6,6.9-6.2,6.9
			h-11.7V266.7z M618.4,276.9h6c1.9,0,3-1,3-2.8v-1.1c0-1.8-1.1-2.8-3-2.8h-6V276.9z M618.4,287.3h6.7c2,0,3.2-1.1,3.2-3.1v-1.2
			c0-2-1.2-3.1-3.2-3.1h-6.7V287.3z"/>
		<path class="st2" d="M637.1,266.7h4.6l6.4,12.2h0.2l6.4-12.2h4.4v23.9h-3.7v-18.3h-0.2l-1.9,3.9l-5.2,9.6l-5.2-9.6l-1.9-3.9h-0.2
			v18.3h-3.7V266.7z"/>
		<path class="st2" d="M676.7,290.7l-5.7-23.9h3.9l2.4,11.5l1.7,8h0.1l1.9-8l2.8-11.5h4.3l2.8,11.5l1.9,7.9h0.1l1.8-7.9l2.5-11.5
			h3.8l-5.9,23.9h-4.4l-3.1-12.4L686,271H686l-1.8,7.3l-3.1,12.4H676.7z"/>
		<path class="st2" d="M717.1,290.7c-2,0-3-1.2-3.2-3h-0.2c-0.7,2.2-2.6,3.4-5.2,3.4c-3.7,0-5.8-2.1-5.8-5.3c0-3.5,2.6-5.4,7.6-5.4
			h3.2v-1.5c0-2.2-1.2-3.4-3.7-3.4c-2.1,0-3.4,1-4.3,2.4l-2.2-2c1.2-2,3.3-3.5,6.7-3.5c4.6,0,7.2,2.3,7.2,6.2v9h1.9v3.1H717.1z
			 M713.5,285.4v-2.6h-3.2c-2.6,0-3.9,0.9-3.9,2.4v0.6c0,1.6,1.2,2.4,3,2.4C711.8,288.2,713.5,287.1,713.5,285.4z"/>
		<path class="st2" d="M721.4,290.7v-3l9.6-11.8h-9.3v-3.1h13.7v2.9l-9.7,11.9h9.9v3.1H721.4z"/>
		<path class="st2" d="M739.2,267.7v-0.6c0-1.1,0.7-2,2.2-2c1.5,0,2.2,0.8,2.2,2v0.6c0,1.1-0.7,2-2.2,2
			C739.9,269.6,739.2,268.8,739.2,267.7z M739.5,272.8h3.7v17.8h-3.7V272.8z"/>
		<path class="st2" d="M757,266.7h8.5c6.1,0,10.1,4,10.1,12s-4,12-10.1,12H757V266.7z M765.5,287.2c3.6,0,6-2.3,6-6.6v-3.8
			c0-4.3-2.4-6.6-6-6.6h-4.6v17.1H765.5z"/>
		<path class="st2" d="M778.9,281.8c0-5.7,3.1-9.3,8.2-9.3c5.2,0,7.9,3.9,7.9,8.9v1.4h-12.2v0.6c0,2.7,1.7,4.7,4.7,4.7
			c2.2,0,3.7-1,4.7-2.7l2.2,2.2c-1.3,2.2-3.9,3.6-7.3,3.6C782.1,291.1,778.9,287.5,778.9,281.8z M782.8,280v0.2h8.3v-0.3
			c0-2.7-1.5-4.6-4-4.6C784.6,275.3,782.8,277.3,782.8,280z"/>
		<path class="st2" d="M802.8,290.7l-6.1-17.8h3.7l2.7,8.1l1.8,6.2h0.2l1.8-6.2l2.8-8.1h3.6l-6.1,17.8H802.8z"/>
		<path class="st2" d="M815,281.8c0-5.7,3.1-9.3,8.2-9.3c5.2,0,7.9,3.9,7.9,8.9v1.4h-12.2v0.6c0,2.7,1.7,4.7,4.7,4.7
			c2.2,0,3.7-1,4.7-2.7l2.2,2.2c-1.3,2.2-3.9,3.6-7.3,3.6C818.1,291.1,815,287.5,815,281.8z M818.9,280v0.2h8.3v-0.3
			c0-2.7-1.5-4.6-4-4.6C820.6,275.3,818.9,277.3,818.9,280z"/>
		<path class="st2" d="M839.1,290.7c-2.5,0-3.8-1.4-3.8-3.7v-21.7h3.7v22.3h2.5v3.1H839.1z"/>
		<path class="st2" d="M843.8,281.8c0-5.7,3.2-9.3,8.2-9.3s8.2,3.6,8.2,9.3c0,5.7-3.2,9.3-8.2,9.3S843.8,287.5,843.8,281.8z
			 M856.3,283.3v-3c0-3.2-1.7-4.7-4.3-4.7s-4.3,1.6-4.3,4.7v3c0,3.2,1.7,4.7,4.3,4.7S856.3,286.4,856.3,283.3z"/>
		<path class="st2" d="M864.4,272.8h3.7v3h0.2c0.8-2.1,2.6-3.4,5-3.4c4.5,0,7.1,3.5,7.1,9.3c0,5.9-2.6,9.3-7.1,9.3
			c-2.4,0-4.3-1.3-5-3.4h-0.2v9.8h-3.7V272.8z M876.5,283.3v-3.1c0-2.7-1.7-4.6-4.3-4.6c-2.3,0-4,1.2-4,3.1v6.1c0,1.8,1.8,3.1,4,3.1
			C874.8,287.9,876.5,286,876.5,283.3z"/>
		<path class="st2" d="M883.5,281.8c0-5.7,3.1-9.3,8.2-9.3c5.2,0,7.9,3.9,7.9,8.9v1.4h-12.2v0.6c0,2.7,1.7,4.7,4.7,4.7
			c2.2,0,3.7-1,4.7-2.7l2.2,2.2c-1.3,2.2-3.9,3.6-7.3,3.6C886.6,291.1,883.5,287.5,883.5,281.8z M887.4,280v0.2h8.3v-0.3
			c0-2.7-1.5-4.6-4-4.6C889.1,275.3,887.4,277.3,887.4,280z"/>
		<path class="st2" d="M903.8,290.7v-17.8h3.7v3.4h0.2c0.5-1.8,2.1-3.4,4.9-3.4h1v3.6h-1.5c-3,0-4.6,1-4.6,2.8v11.4H903.8z"/>
	</g>
</g>
</svg>
