<?xml version="1.0" encoding="utf-8"?>
<!-- Generator: Adobe Illustrator 25.2.0, SVG Export Plug-In . SVG Version: 6.00 Build 0)  -->
<svg version="1.1" id="Layer_2" xmlns="http://www.w3.org/2000/svg" xmlns:xlink="http://www.w3.org/1999/xlink" x="0px" y="0px"
	 viewBox="0 0 388.9 319.7" style="enable-background:new 0 0 388.9 319.7;" xml:space="preserve">
<style type="text/css">
	.st0{fill:#BDD3F4;}
	.st1{fill:#002077;}
	.st2{fill:none;}
	.st3{fill:#4D95FE;}
	.st4{fill:#81BCFF;}
</style>
<path class="st0" d="M80.9,154.7h-9.4v-43.3H92c8,0,13.1,5.6,13.1,13.8c0,5.8-2.6,10.5-7.9,12.5l8.5,17H95.2l-7.6-15.9h-6.8V154.7z
	 M90.8,130.9c2.8,0,4.5-1.5,4.5-4.3v-2.7c0-2.8-1.7-4.3-4.5-4.3h-9.9v11.3H90.8z"/>
<path class="st0" d="M113.9,154.7v-43.3h29.5v8.4h-20v8.9h17.2v8.3h-17.2v9.4h20v8.4H113.9z"/>
<path class="st0" d="M184.6,126.3h-0.2l-3.2,6.3l-8.4,15.3l-8.3-15.3l-3.3-6.8h-0.2v28.9h-8.9v-43.3h10l10.6,20.3h0.1l10.5-20.3
	h10.1v43.3h-8.9V126.3z"/>
<path class="st0" d="M202,133.1c0-14.7,7.6-22.4,19-22.4c11.5,0,19,7.7,19,22.4s-7.6,22.4-19,22.4C209.5,155.5,202,147.8,202,133.1z
	 M230.1,136.3v-6.5c0-6.9-3.4-10.8-9.1-10.8c-5.6,0-9.1,3.9-9.1,10.8v6.5c0,6.9,3.4,10.8,9.1,10.8
	C226.7,147.1,230.1,143.2,230.1,136.3z"/>
<path class="st0" d="M265.1,119.8v34.9h-9.4v-34.9h-11.7v-8.4h32.9v8.4H265.1z"/>
<path class="st0" d="M283.9,154.7v-43.3h29.5v8.4h-20v8.9h17.2v8.3h-17.2v9.4h20v8.4H283.9z"/>
<g>
	<path class="st1" d="M72.1,208.6l6.4-6.5c3,3.4,6.9,5.2,11.3,5.2c4.8,0,7.1-2.1,7.1-5.4c0-2.4-1-4.3-5.2-4.8l-4.4-0.6
		c-9.5-1.2-13.8-5.9-13.8-13.4c0-8.1,6.3-13.7,16.9-13.7c6.8,0,11.9,2.3,15.6,6.3l-6.5,6.6c-2.1-2.5-5-4.3-9.7-4.3
		c-4.4,0-6.5,1.7-6.5,4.4c0,3.1,1.6,4.3,5.3,4.8l4.4,0.7c9.2,1.5,13.7,5.6,13.7,13.3c0,8.6-6.3,14.6-17.5,14.6
		C81.3,215.9,76,212.9,72.1,208.6z"/>
	<path class="st1" d="M123.9,215.2v-17.6l-15.4-27.4h11l9.7,17.9h0.1l9.3-17.9h10.6l-15.4,27.3v17.6H123.9z"/>
	<path class="st1" d="M150,208.6l6.4-6.5c3,3.4,6.9,5.2,11.3,5.2c4.8,0,7.1-2.1,7.1-5.4c0-2.4-1-4.3-5.2-4.8l-4.4-0.6
		c-9.5-1.2-13.8-5.9-13.8-13.4c0-8.1,6.3-13.7,16.9-13.7c6.8,0,11.9,2.3,15.6,6.3l-6.5,6.6c-2.1-2.5-5-4.3-9.7-4.3
		c-4.4,0-6.5,1.7-6.5,4.4c0,3.1,1.6,4.3,5.3,4.8l4.4,0.7c9.2,1.5,13.7,5.6,13.7,13.3c0,8.6-6.3,14.6-17.5,14.6
		C159.2,215.9,153.9,212.9,150,208.6z"/>
	<path class="st1" d="M210.6,178.9v36.3h-9.8v-36.3h-12.2v-8.7h34.1v8.7H210.6z"/>
	<path class="st1" d="M230.1,215.2v-45h30.6v8.7h-20.8v9.2h17.8v8.6h-17.8v9.7h20.8v8.7H230.1z"/>
	<path class="st1" d="M303.5,185.7h-0.2l-3.3,6.6l-8.8,15.9l-8.6-15.8l-3.4-7.1h-0.2v30h-9.2v-45h10.4l11,21.1h0.1l10.9-21.1h10.4
		v45h-9.2V185.7z"/>
</g>
<g>
	<path class="st0" d="M71.9,263.2v-33.4h22.7v6.5H79.2v6.8h13.3v6.4H79.2v7.2h15.5v6.5H71.9z"/>
	<path class="st0" d="M109.3,245.9l-10.2-16.1h8.5l6.5,11.3h0.1l6.6-11.3h7.8l-10.3,16.3l10.9,17.1h-8.4l-7.2-12.3h-0.1l-7,12.3
		h-7.8L109.3,245.9z"/>
	<path class="st0" d="M134.2,263.2v-33.4H150c6.2,0,10.1,4.4,10.1,10.7s-3.9,10.7-10.1,10.7h-8.5v12.1H134.2z M141.4,244.8h7.7
		c2.2,0,3.5-1.1,3.5-3.3v-2.1c0-2.2-1.3-3.3-3.5-3.3h-7.7V244.8z"/>
	<path class="st0" d="M166,263.2v-33.4h7.3v26.9H186v6.5H166z"/>
	<path class="st0" d="M188.7,246.5c0-11.3,5.8-17.3,14.7-17.3c8.9,0,14.7,5.9,14.7,17.3c0,11.3-5.8,17.3-14.7,17.3
		C194.5,263.8,188.7,257.9,188.7,246.5z M210.4,249v-5c0-5.3-2.6-8.3-7-8.3c-4.4,0-7,3-7,8.3v5c0,5.3,2.6,8.3,7,8.3
		C207.7,257.3,210.4,254.3,210.4,249z"/>
	<path class="st0" d="M231.9,263.2h-7.3v-33.4h15.8c6.2,0,10.1,4.3,10.1,10.7c0,4.5-2,8.1-6.1,9.6l6.6,13.1H243l-5.8-12.3h-5.2
		V263.2z M239.6,244.8c2.2,0,3.5-1.1,3.5-3.3v-2.1c0-2.2-1.3-3.3-3.5-3.3h-7.7v8.7H239.6z"/>
	<path class="st0" d="M257.4,263.2v-33.4h22.7v6.5h-15.5v6.8h13.3v6.4h-13.3v7.2h15.5v6.5H257.4z"/>
	<path class="st0" d="M294.2,263.2h-7.3v-33.4h15.8c6.2,0,10.1,4.3,10.1,10.7c0,4.5-2,8.1-6.1,9.6l6.6,13.1h-8.1l-5.8-12.3h-5.2
		V263.2z M301.9,244.8c2.2,0,3.5-1.1,3.5-3.3v-2.1c0-2.2-1.3-3.3-3.5-3.3h-7.7v8.7H301.9z"/>
</g>
<rect x="159.4" y="25.9" class="st2" width="87.4" height="87.4"/>
<g>
	<rect x="147.2" y="276.5" class="st1" width="93" height="43.4"/>
	<g>
		<path class="st3" d="M176.3,311.7l-1.9-6.4h-9l-1.9,6.4h-6l8.9-27h7.3l8.8,27H176.3z M170,290h-0.2l-3,10.2h6.2L170,290z"/>
		<path class="st3" d="M189.1,311.7v-27h12.8c5,0,8.2,3.5,8.2,8.6c0,5.1-3.2,8.6-8.2,8.6H195v9.7H189.1z M195,296.8h6.2
			c1.7,0,2.8-0.9,2.8-2.7v-1.7c0-1.7-1.1-2.7-2.8-2.7H195V296.8z"/>
		<path class="st3" d="M216.3,311.7V307h3.5v-17.6h-3.5v-4.7h12.8v4.7h-3.5V307h3.5v4.7H216.3z"/>
	</g>
</g>
<circle class="st4" cx="158.8" cy="18.8" r="10.3"/>
<circle class="st4" cx="229.8" cy="18.8" r="10.3"/>
<circle class="st4" cx="229.8" cy="88.6" r="10.3"/>
<circle class="st4" cx="159.4" cy="88.6" r="10.3"/>
<circle class="st4" cx="195.3" cy="52.8" r="16.8"/>
<path class="st1" d="M229.8,72.4c-2.5,0-4.9,0.7-7.1,2l-10.9-11c5.2-7.3,5.2-17.2,0-24.5l10.9-11c2.1,1.3,4.6,2,7.1,2
	c7.8,0,14.1-6.3,14.1-14.1s-6.3-14.1-14.1-14.1s-14.1,6.3-14.1,14.1c0,2.5,0.7,4.9,2,7.1l-11,10.9c-7.3-5.2-17.2-5.2-24.5,0
	l-11-10.9c1.3-2.1,2-4.6,2-7.1c0-7.8-6.3-14.1-14.1-14.1S145,8.1,145,15.9S151.3,30,159.1,30c2.5,0,4.9-0.7,7.1-2l10.9,11
	c-5.2,7.3-5.2,17.2,0,24.5l-10.9,11c-2.1-1.3-4.6-2-7.1-2c-7.8,0-14.1,6.3-14.1,14.1s6.3,14.1,14.1,14.1s14.1-6.3,14.1-14.1
	c0-2.5-0.7-4.9-2-7.1l11-10.9c7.3,5.2,17.2,5.2,24.5,0l11,10.9c-1.3,2.1-2,4.6-2,7.1c0,7.8,6.3,14.1,14.1,14.1s14.1-6.3,14.1-14.1
	S237.6,72.4,229.8,72.4z M229.8,8.8c3.9,0,7.1,3.2,7.1,7.1s-3.2,7.1-7.1,7.1s-7.1-3.2-7.1-7.1S225.9,8.8,229.8,8.8z M152,15.9
	c0-3.9,3.2-7.1,7.1-7.1s7.1,3.2,7.1,7.1s-3.2,7.1-7.1,7.1S152,19.8,152,15.9z M159.1,93.7c-3.9,0-7.1-3.2-7.1-7.1
	c0-3.9,3.2-7.1,7.1-7.1s7.1,3.2,7.1,7.1C166.2,90.5,163,93.7,159.1,93.7z M194.4,65.4c-7.8,0-14.1-6.3-14.1-14.1s6.3-14.1,14.1-14.1
	s14.1,6.3,14.1,14.1S202.3,65.4,194.4,65.4z M229.8,93.7c-3.9,0-7.1-3.2-7.1-7.1c0-3.9,3.2-7.1,7.1-7.1s7.1,3.2,7.1,7.1
	C236.9,90.5,233.7,93.7,229.8,93.7z"/>
</svg>
