<?xml version="1.0" encoding="utf-8"?>
<!-- Generator: Adobe Illustrator 23.0.4, SVG Export Plug-In . SVG Version: 6.00 Build 0)  -->
<svg version="1.1" id="Layer_1" xmlns="http://www.w3.org/2000/svg" xmlns:xlink="http://www.w3.org/1999/xlink" x="0px" y="0px"
	 viewBox="0 0 409 46.8" style="enable-background:new 0 0 409 46.8;" xml:space="preserve">
<style type="text/css">
	.st0{fill:#FFFFFF;}
</style>
<title>Asset 1</title>
<g>
	<g>
		<path class="st0" d="M0.7,34.8v-4.3h4.4V6.7H0.7V2.4h14.1v4.3h-4.5v23.8h4.5v4.3H0.7z"/>
		<path class="st0" d="M21.3,2.4h14.3C38,2.3,40.3,3.1,42,4.7c1.6,1.6,2.4,3.8,2.3,6.1c0,1-0.1,2.1-0.5,3.1
			c-0.3,0.8-0.7,1.5-1.3,2.1c-0.5,0.5-1.1,0.9-1.8,1.2c-0.6,0.3-1.3,0.4-2,0.5v0.3c0.7,0,1.5,0.2,2.2,0.5c0.8,0.3,1.6,0.7,2.2,1.3
			c0.7,0.7,1.3,1.4,1.7,2.3c0.5,1.1,0.7,2.3,0.7,3.5c0,1.2-0.2,2.5-0.6,3.6c-0.4,1.1-1,2.1-1.7,3c-0.7,0.8-1.6,1.5-2.6,2
			c-1,0.5-2.2,0.7-3.3,0.7H21.3V2.4z M26.6,16.1h8.1c1.1,0.1,2.2-0.3,3-1c0.7-0.8,1.1-1.8,1.1-2.9v-1.5c0.1-1.1-0.3-2.1-1.1-2.9
			c-0.8-0.7-1.9-1.1-3-1h-8.1V16.1z M26.6,30.3h9c1.2,0.1,2.3-0.3,3.2-1.1c0.8-0.8,1.2-1.9,1.2-3.1v-1.6c0.1-1.1-0.3-2.3-1.2-3.1
			c-0.9-0.8-2-1.1-3.2-1.1h-9V30.3z"/>
		<path class="st0" d="M76.7,10h-0.2l-2.6,5.2l-7.1,13l-7.1-13L57.1,10h-0.2v24.8h-5V2.4h6.2l8.7,16.5h0.3l8.7-16.5h5.9v32.4h-5
			L76.7,10z"/>
		<path class="st0" d="M122.3,34.8h-24v-4.7L115.9,7H99.2V2.4h22.6v4.7l-17.6,23h18.1V34.8z"/>
	</g>
	<g>
		<path class="st0" d="M129.6,9.6c-0.6,0-1.2-0.1-1.8-0.4c-0.5-0.2-1-0.6-1.5-1c-0.4-0.4-0.8-1-1-1.5c-0.5-1.2-0.5-2.6,0-3.8
			c0.2-0.6,0.6-1.1,1-1.5c0.4-0.4,0.9-0.8,1.5-1c0.6-0.2,1.2-0.4,1.8-0.4c0.6,0,1.2,0.1,1.8,0.4c0.6,0.2,1,0.6,1.5,1
			c0.4,0.4,0.8,1,1,1.5c0.5,1.2,0.5,2.6,0,3.8c-0.2,0.6-0.6,1.1-1,1.5c-0.4,0.4-0.9,0.8-1.5,1C130.8,9.4,130.2,9.6,129.6,9.6z
			 M129.6,8.6c0.5,0,1-0.1,1.5-0.3c0.9-0.4,1.5-1.1,1.9-2c0.2-0.4,0.3-0.9,0.3-1.3V4.5c0-0.5-0.1-0.9-0.3-1.4
			c-0.2-0.4-0.4-0.8-0.8-1.1c-0.7-0.7-1.6-1.1-2.6-1.1c-0.5,0-1,0.1-1.4,0.3c-0.4,0.2-0.8,0.5-1.1,0.8c-0.3,0.3-0.6,0.7-0.7,1.1
			C126.1,3.5,126,4,126,4.5V5c0,0.5,0.1,0.9,0.3,1.3c0.3,0.9,1,1.6,1.9,2C128.6,8.5,129.1,8.6,129.6,8.6z M128.8,7.3h-0.9V2.4h2.1
			c0.8-0.1,1.4,0.5,1.5,1.3c0,0.1,0,0.1,0,0.2c0,0.3-0.1,0.6-0.3,0.9c-0.2,0.2-0.4,0.4-0.6,0.5l1.1,2h-1l-1-1.9h-0.8L128.8,7.3z
			 M129.9,4.7c0.4,0,0.5-0.2,0.5-0.5V3.7c0-0.3-0.2-0.5-0.5-0.5h-1.1v1.5H129.9z"/>
	</g>
	<g>
		<path class="st0" d="M157.2,35.3c-2,0-3.9-0.3-5.7-1.1c-1.7-0.7-3.2-1.8-4.4-3.2c-1.3-1.5-2.3-3.3-2.9-5.2c-0.7-2.3-1-4.8-1-7.2
			c0-2.4,0.3-4.9,1-7.2c0.6-1.9,1.5-3.7,2.9-5.3c1.2-1.4,2.7-2.5,4.4-3.2c3.7-1.5,7.8-1.5,11.5,0c1.7,0.7,3.2,1.8,4.4,3.2
			c1.3,1.5,2.3,3.3,2.9,5.3c0.7,2.3,1,4.8,1,7.2c0,2.4-0.3,4.9-1,7.2c-0.6,1.9-1.6,3.7-2.9,5.3c-1.2,1.4-2.7,2.5-4.4,3.2
			C161.1,35,159.2,35.4,157.2,35.3z M157.2,30.7c1.2,0,2.3-0.2,3.4-0.7c1-0.4,1.9-1.1,2.6-1.9c0.8-0.9,1.3-1.9,1.7-3
			c0.4-1.3,0.6-2.6,0.6-4V16c0-1.4-0.2-2.7-0.6-4c-0.4-1.1-0.9-2.1-1.7-3c-0.7-0.8-1.6-1.5-2.6-1.9c-2.2-0.9-4.6-0.9-6.8,0
			c-1,0.4-1.9,1.1-2.6,1.9c-0.8,0.9-1.3,1.9-1.7,3c-0.4,1.3-0.6,2.6-0.6,4v5.1c0,1.4,0.2,2.7,0.6,4c0.4,1.1,0.9,2.1,1.7,3
			c0.7,0.9,1.6,1.5,2.6,2C154.9,30.5,156.1,30.7,157.2,30.7z"/>
		<path class="st0" d="M177.4,10.7h5v4h0.2c0.5-1.4,1.4-2.6,2.6-3.4c1.2-0.8,2.7-1.2,4.2-1.2c2.8-0.1,5.4,1.1,7.1,3.3
			c1.7,2.2,2.5,5.3,2.5,9.3c0,4-0.8,7.1-2.5,9.3c-1.7,2.2-4.3,3.5-7.1,3.3c-1.5,0-3-0.4-4.2-1.2c-1.2-0.8-2.1-2-2.6-3.3h-0.2v13.3
			h-5L177.4,10.7z M187.9,31c1.6,0.1,3.1-0.5,4.2-1.7c1.1-1.2,1.6-2.8,1.6-4.5v-4.2c0.1-1.6-0.5-3.2-1.6-4.5
			c-1.1-1.1-2.6-1.8-4.2-1.7c-1.4,0-2.8,0.3-3.9,1.1c-1,0.7-1.6,1.8-1.6,3v8.3c0,1.2,0.6,2.3,1.6,3C185.1,30.6,186.5,31,187.9,31z"
			/>
		<path class="st0" d="M214.2,35.3c-1.6,0-3.2-0.3-4.6-0.9c-1.3-0.6-2.5-1.4-3.5-2.5c-1-1.2-1.7-2.5-2.2-4c-1-3.4-1-7,0-10.4
			c0.5-1.5,1.2-2.8,2.2-4c1-1.1,2.1-2,3.5-2.5c1.5-0.6,3.1-0.9,4.6-0.9c1.6,0,3.2,0.3,4.7,0.9c1.3,0.6,2.5,1.5,3.4,2.6
			c0.9,1.1,1.6,2.4,2,3.8c0.5,1.5,0.7,3.1,0.7,4.7V24h-16.5v0.8c-0.1,1.7,0.5,3.3,1.6,4.5c1.2,1.2,3,1.9,4.7,1.8
			c1.3,0,2.6-0.3,3.8-1c1-0.7,1.9-1.6,2.6-2.6l3,2.9c-0.9,1.5-2.3,2.8-3.9,3.6C218.4,34.9,216.3,35.4,214.2,35.3z M214.2,14.1
			c-0.8,0-1.6,0.1-2.4,0.5c-0.7,0.3-1.3,0.7-1.9,1.3c-0.5,0.6-0.9,1.3-1.2,2c-0.3,0.8-0.4,1.7-0.4,2.5v0.3h11.2v-0.5
			c0.1-1.6-0.4-3.2-1.4-4.5C217.2,14.6,215.7,14,214.2,14.1z"/>
		<path class="st0" d="M230.6,34.8V10.7h5v4h0.2c0.5-1.3,1.3-2.4,2.4-3.2c1.3-0.9,2.8-1.4,4.4-1.3c2.2-0.1,4.3,0.8,5.8,2.4
			c1.4,1.6,2.1,3.9,2.1,6.9v15.3h-5.1V20.1c0-3.8-1.5-5.7-4.5-5.7c-0.7,0-1.3,0.1-1.9,0.2c-0.6,0.2-1.2,0.4-1.7,0.8
			c-1,0.7-1.7,1.9-1.6,3.2v16.2H230.6z"/>
	</g>
	<g>
		<path class="st0" d="M268.8,34.8V2.4h20.7V7h-15.5v9h14v4.6h-14v9.5h15.5v4.6H268.8z"/>
	</g>
	<g>
		<path class="st0" d="M310.7,30.8h-0.2c-0.5,1.3-1.4,2.5-2.6,3.3c-1.2,0.8-2.7,1.2-4.2,1.2c-2.8,0.1-5.4-1.1-7.1-3.3
			c-1.7-2.2-2.5-5.3-2.5-9.3s0.8-7.1,2.5-9.3c1.7-2.2,4.3-3.4,7.1-3.3c1.5,0,3,0.4,4.2,1.2c1.2,0.8,2.1,2,2.6,3.4h0.2V0.5h5.1v34.3
			h-5.1L310.7,30.8z M305.2,31c1.4,0,2.8-0.4,3.9-1.1c1-0.7,1.6-1.8,1.6-3v-8.2c0-1.2-0.6-2.3-1.6-3c-1.1-0.8-2.5-1.2-3.9-1.1
			c-1.6-0.1-3.1,0.5-4.2,1.7c-1.1,1.2-1.7,2.8-1.6,4.5v4.2c-0.1,1.6,0.5,3.2,1.6,4.5C302.1,30.4,303.6,31.1,305.2,31L305.2,31z"/>
		<path class="st0" d="M325.5,6.4c-0.8,0.1-1.7-0.2-2.3-0.7c-0.5-0.5-0.7-1.2-0.7-1.9V2.9c0-0.7,0.2-1.4,0.7-1.9
			c0.6-0.5,1.5-0.8,2.3-0.7c0.8-0.1,1.6,0.2,2.3,0.7c0.5,0.5,0.7,1.2,0.7,1.9v0.8c0,0.7-0.2,1.4-0.7,1.9
			C327.2,6.2,326.3,6.4,325.5,6.4z M323,10.7h5v24.1h-5V10.7z"/>
	</g>
	<g>
		<path class="st0" d="M341.9,34.8c-2.6,0.3-5-1.5-5.3-4.1c-0.1-0.4-0.1-0.8,0-1.2V14.8h-3.8v-4.1h2c0.6,0.1,1.3-0.1,1.7-0.5
			c0.4-0.5,0.5-1.2,0.5-1.8V4.1h4.5v6.6h5.1v4.1h-5.1v15.9h4.7v4.1H341.9z"/>
	</g>
	<g>
		<path class="st0" d="M361.5,35.3c-1.6,0-3.1-0.3-4.6-0.9c-1.3-0.6-2.5-1.4-3.5-2.5c-1-1.2-1.8-2.5-2.2-4c-1.1-3.4-1.1-7,0-10.4
			c0.5-1.5,1.2-2.8,2.2-4c1-1.1,2.2-2,3.5-2.5c2.9-1.2,6.2-1.2,9.1,0c1.3,0.6,2.5,1.4,3.5,2.5c1,1.2,1.8,2.5,2.2,4
			c1.1,3.4,1.1,7,0,10.4c-0.5,1.5-1.2,2.8-2.2,4c-1,1.1-2.2,2-3.5,2.5C364.6,35.1,363,35.4,361.5,35.3z M361.5,31.1
			c1.6,0.1,3.1-0.5,4.2-1.6c1.2-1.3,1.7-3,1.6-4.8v-4.1c0.1-1.7-0.4-3.5-1.6-4.8c-2.4-2.1-6-2.1-8.4,0c-1.1,1.3-1.7,3-1.6,4.8v4.1
			c-0.1,1.7,0.4,3.5,1.6,4.8C358.4,30.6,359.9,31.2,361.5,31.1L361.5,31.1z"/>
		<path class="st0" d="M378.2,34.8V10.7h5.1v4.6h0.2c0.4-1.3,1.1-2.4,2.1-3.2c1.3-1,2.9-1.5,4.5-1.4h1.4v4.9h-2
			c-1.6-0.1-3.2,0.3-4.6,1c-1,0.6-1.6,1.7-1.6,2.9v15.4L378.2,34.8z"/>
	</g>
</g>
</svg>
