<svg id="Layer_1" data-name="Layer 1" xmlns="http://www.w3.org/2000/svg" viewBox="0 0 231.59 24"><defs><style>.cls-1{fill:#fff;}</style></defs><title>vsc_logo</title><path class="cls-1" d="M74.67,24.76,68.45,41.57H66.28l-6.1-16.81h2.2L67,38.09a7.82,7.82,0,0,1,.34,1.49h0a8.31,8.31,0,0,1,.39-1.52l4.75-13.3Z" transform="translate(-26.38 -20.83)"/><path class="cls-1" d="M77.81,26.52a1.24,1.24,0,0,1-.88-.35,1.18,1.18,0,0,1-.36-.89,1.22,1.22,0,0,1,.36-.9,1.2,1.2,0,0,1,.88-.35,1.24,1.24,0,0,1,.9.35,1.22,1.22,0,0,1,.36.9,1.21,1.21,0,0,1-.36.88A1.25,1.25,0,0,1,77.81,26.52Zm.94,15.05H76.82v-12h1.93Z" transform="translate(-26.38 -20.83)"/><path class="cls-1" d="M81.91,41.14V39.07a5.66,5.66,0,0,0,3.46,1.16c1.69,0,2.53-.56,2.53-1.68a1.41,1.41,0,0,0-.22-.82,2.16,2.16,0,0,0-.58-.59,4.44,4.44,0,0,0-.87-.46l-1.07-.43a14.58,14.58,0,0,1-1.4-.64,4.24,4.24,0,0,1-1-.73,2.69,2.69,0,0,1-.61-.92,3.14,3.14,0,0,1-.21-1.2,2.87,2.87,0,0,1,.39-1.5,3.56,3.56,0,0,1,1-1.09,4.92,4.92,0,0,1,1.47-.66,6.47,6.47,0,0,1,1.71-.22,6.87,6.87,0,0,1,2.79.54v1.94a5.45,5.45,0,0,0-3-.87,3.61,3.61,0,0,0-1,.13,2.35,2.35,0,0,0-.75.34,1.76,1.76,0,0,0-.48.54,1.4,1.4,0,0,0-.17.68,1.71,1.71,0,0,0,.17.79,1.76,1.76,0,0,0,.5.56,4.56,4.56,0,0,0,.8.45l1.06.43a12.19,12.19,0,0,1,1.43.63,4.42,4.42,0,0,1,1.08.72,2.82,2.82,0,0,1,.69.93,3,3,0,0,1,.24,1.26,2.94,2.94,0,0,1-.39,1.54,3.42,3.42,0,0,1-1,1.09,4.75,4.75,0,0,1-1.52.65,7.44,7.44,0,0,1-1.79.21A6.91,6.91,0,0,1,81.91,41.14Z" transform="translate(-26.38 -20.83)"/><path class="cls-1" d="M102.52,41.57H100.6v-1.9h0a4,4,0,0,1-3.71,2.18q-4.29,0-4.29-5.11V29.57h1.91v6.87q0,3.8,2.91,3.79a2.92,2.92,0,0,0,2.31-1,4,4,0,0,0,.91-2.72V29.57h1.92Z" transform="translate(-26.38 -20.83)"/><path class="cls-1" d="M115,41.57h-1.92V39.69h0a4,4,0,0,1-3.69,2.16,3.94,3.94,0,0,1-2.8-1,3.27,3.27,0,0,1-1-2.52c0-2.24,1.32-3.55,4-3.91l3.6-.51c0-2-.82-3.06-2.47-3.06a6,6,0,0,0-3.92,1.48v-2a7.44,7.44,0,0,1,4.08-1.12q4.23,0,4.23,4.47Zm-1.92-6.07-2.89.4a4.6,4.6,0,0,0-2,.66,1.92,1.92,0,0,0-.68,1.68,1.83,1.83,0,0,0,.63,1.44,2.42,2.42,0,0,0,1.67.55,3.08,3.08,0,0,0,2.36-1,3.58,3.58,0,0,0,.93-2.54Z" transform="translate(-26.38 -20.83)"/><path class="cls-1" d="M120.54,41.57h-1.93V23.8h1.93Z" transform="translate(-26.38 -20.83)"/><path class="cls-1" d="M130.47,40.89V38.57a5,5,0,0,0,1,.63,7.55,7.55,0,0,0,1.17.48,8.92,8.92,0,0,0,1.24.29,6,6,0,0,0,1.15.11,4.49,4.49,0,0,0,2.71-.67,2.28,2.28,0,0,0,.89-1.94,2.38,2.38,0,0,0-.29-1.19,3.55,3.55,0,0,0-.83-.92,8.43,8.43,0,0,0-1.25-.79l-1.55-.81c-.59-.29-1.13-.59-1.64-.9a6.94,6.94,0,0,1-1.33-1,4.13,4.13,0,0,1-.88-1.24A4.3,4.3,0,0,1,131,27a4.53,4.53,0,0,1,1.32-1.4,6.21,6.21,0,0,1,1.87-.82,8.6,8.6,0,0,1,2.14-.27,8.13,8.13,0,0,1,3.62.6V27.3a6.53,6.53,0,0,0-3.82-1,6.29,6.29,0,0,0-1.29.14,3.61,3.61,0,0,0-1.14.44,2.45,2.45,0,0,0-.82.78,2,2,0,0,0-.32,1.18,2.42,2.42,0,0,0,.24,1.11,2.69,2.69,0,0,0,.71.85,6.62,6.62,0,0,0,1.14.75c.45.25,1,.51,1.55.8s1.18.61,1.71.94a7.61,7.61,0,0,1,1.42,1.09,4.88,4.88,0,0,1,1,1.32,3.73,3.73,0,0,1,.36,1.67,4.26,4.26,0,0,1-.49,2.1,4,4,0,0,1-1.31,1.4,5.73,5.73,0,0,1-1.91.78,10.33,10.33,0,0,1-2.27.24,9.78,9.78,0,0,1-1-.06c-.39,0-.79-.11-1.2-.19a9.16,9.16,0,0,1-1.15-.31A3.47,3.47,0,0,1,130.47,40.89Z" transform="translate(-26.38 -20.83)"/><path class="cls-1" d="M148.54,41.45a3.69,3.69,0,0,1-1.79.38c-2.1,0-3.15-1.18-3.15-3.52v-7.1h-2.06V29.57h2.06V26.64l1.92-.62v3.55h3v1.64h-3V38a2.8,2.8,0,0,0,.41,1.72,1.62,1.62,0,0,0,1.36.52,2,2,0,0,0,1.25-.4Z" transform="translate(-26.38 -20.83)"/><path class="cls-1" d="M160.81,41.57h-1.92v-1.9h0a3.94,3.94,0,0,1-3.7,2.18q-4.29,0-4.29-5.11V29.57h1.91v6.87q0,3.8,2.91,3.79a2.92,2.92,0,0,0,2.31-1,4,4,0,0,0,.91-2.72V29.57h1.92Z" transform="translate(-26.38 -20.83)"/><path class="cls-1" d="M174.93,41.57H173v-2h0a4.84,4.84,0,0,1-7.74.71,6.59,6.59,0,0,1-1.36-4.39,7.21,7.21,0,0,1,1.5-4.77,5,5,0,0,1,4-1.79,3.86,3.86,0,0,1,3.6,1.94h0V23.8h1.92ZM173,36.14V34.37a3.43,3.43,0,0,0-1-2.46,3.23,3.23,0,0,0-2.44-1,3.31,3.31,0,0,0-2.76,1.29,5.68,5.68,0,0,0-1,3.57,5,5,0,0,0,1,3.27,3.15,3.15,0,0,0,2.59,1.2A3.27,3.27,0,0,0,172,39.07,4.31,4.31,0,0,0,173,36.14Z" transform="translate(-26.38 -20.83)"/><path class="cls-1" d="M179.81,26.52a1.24,1.24,0,0,1-.88-.35,1.18,1.18,0,0,1-.36-.89,1.22,1.22,0,0,1,.36-.9,1.2,1.2,0,0,1,.88-.35,1.24,1.24,0,0,1,.9.35,1.22,1.22,0,0,1,.36.9,1.21,1.21,0,0,1-.36.88A1.25,1.25,0,0,1,179.81,26.52Zm.94,15.05h-1.93v-12h1.93Z" transform="translate(-26.38 -20.83)"/><path class="cls-1" d="M189.65,41.85a5.58,5.58,0,0,1-4.25-1.68,6.27,6.27,0,0,1-1.58-4.46A6.48,6.48,0,0,1,185.47,31a5.91,5.91,0,0,1,4.46-1.7,5.38,5.38,0,0,1,4.19,1.65,6.52,6.52,0,0,1,1.51,4.58,6.44,6.44,0,0,1-1.62,4.6A5.72,5.72,0,0,1,189.65,41.85Zm.14-11a3.66,3.66,0,0,0-2.93,1.26,5.23,5.23,0,0,0-1.07,3.48A4.87,4.87,0,0,0,186.88,39a3.68,3.68,0,0,0,2.91,1.23,3.53,3.53,0,0,0,2.87-1.2,5.24,5.24,0,0,0,1-3.44,5.33,5.33,0,0,0-1-3.47A3.51,3.51,0,0,0,189.79,30.9Z" transform="translate(-26.38 -20.83)"/><path class="cls-1" d="M217,40.87a9.93,9.93,0,0,1-4.64,1,7.47,7.47,0,0,1-5.74-2.31,8.51,8.51,0,0,1-2.16-6.06A8.91,8.91,0,0,1,206.86,27,8.2,8.2,0,0,1,213,24.48a9.9,9.9,0,0,1,4,.69v2.1a8,8,0,0,0-4-1,6.13,6.13,0,0,0-4.7,1.94,7.28,7.28,0,0,0-1.8,5.17,7,7,0,0,0,1.68,4.89,5.77,5.77,0,0,0,4.42,1.82A8.27,8.27,0,0,0,217,39Z" transform="translate(-26.38 -20.83)"/><path class="cls-1" d="M225.15,41.85a5.58,5.58,0,0,1-4.25-1.68,6.23,6.23,0,0,1-1.59-4.46A6.44,6.44,0,0,1,221,31a5.91,5.91,0,0,1,4.46-1.7,5.38,5.38,0,0,1,4.19,1.65,6.57,6.57,0,0,1,1.51,4.58,6.45,6.45,0,0,1-1.63,4.6A5.69,5.69,0,0,1,225.15,41.85Zm.14-11a3.66,3.66,0,0,0-2.93,1.26,5.18,5.18,0,0,0-1.08,3.48A4.92,4.92,0,0,0,222.37,39a3.71,3.71,0,0,0,2.92,1.23,3.5,3.5,0,0,0,2.86-1.2,5.25,5.25,0,0,0,1-3.44,5.33,5.33,0,0,0-1-3.47A3.49,3.49,0,0,0,225.29,30.9Z" transform="translate(-26.38 -20.83)"/><path class="cls-1" d="M244.44,41.57h-1.92v-2h-.05a4.44,4.44,0,0,1-4.13,2.32,4.49,4.49,0,0,1-3.61-1.61,6.64,6.64,0,0,1-1.35-4.39,7.21,7.21,0,0,1,1.5-4.77,5,5,0,0,1,4-1.79,3.86,3.86,0,0,1,3.6,1.94h.05V23.8h1.92Zm-1.92-5.43V34.37a3.43,3.43,0,0,0-1-2.46,3.26,3.26,0,0,0-2.44-1,3.33,3.33,0,0,0-2.77,1.29,5.68,5.68,0,0,0-1,3.57,5.1,5.1,0,0,0,1,3.27,3.17,3.17,0,0,0,2.6,1.2,3.24,3.24,0,0,0,2.6-1.16A4.31,4.31,0,0,0,242.52,36.14Z" transform="translate(-26.38 -20.83)"/><path class="cls-1" d="M258,36.05H249.5a4.44,4.44,0,0,0,1.08,3.09,3.7,3.7,0,0,0,2.83,1.09,5.88,5.88,0,0,0,3.73-1.33v1.8A6.92,6.92,0,0,1,253,41.85a5.07,5.07,0,0,1-4-1.63,6.7,6.7,0,0,1-1.45-4.6,6.57,6.57,0,0,1,1.59-4.57A5.09,5.09,0,0,1,253,29.29a4.52,4.52,0,0,1,3.64,1.52A6.36,6.36,0,0,1,258,35Zm-2-1.63a3.86,3.86,0,0,0-.8-2.59,2.74,2.74,0,0,0-2.2-.93,3.09,3.09,0,0,0-2.3,1,4.37,4.37,0,0,0-1.18,2.54Z" transform="translate(-26.38 -20.83)"/><path class="cls-1" d="M26.61,29.2s-.58-.43.12-1l1.63-1.48a.7.7,0,0,1,1-.06L44.41,38.2v5.54s0,.87-1.11.77Z" transform="translate(-26.38 -20.83)"/><path class="cls-1" d="M30.5,32.76l-3.89,3.58s-.4.3,0,.83l1.81,1.66a.73.73,0,0,0,1.06-.06l4.12-3.16Z" transform="translate(-26.38 -20.83)"/><path class="cls-1" d="M37.32,32.79l7.13-5.5,0-5.5s-.31-1.21-1.32-.58L33.6,29.94Z" transform="translate(-26.38 -20.83)"/><path class="cls-1" d="M43.3,44.52a1,1,0,0,0,.91.28L49.77,42a1.19,1.19,0,0,0,.61-1.1V24.41a1.1,1.1,0,0,0-.74-1l-4.81-2.35a1.32,1.32,0,0,0-1.74.12s.88-.65,1.32.58V43.64a.94.94,0,0,1-.1.43c-.12.25-.4.5-1.06.39Z" transform="translate(-26.38 -20.83)"/></svg>