<?xml version="1.0" encoding="UTF-8"?>
<svg xmlns="http://www.w3.org/2000/svg" version="1.1" viewBox="0 0 729 319.7">
  <defs>
    <style>
      .cls-1 {
        fill: none;
      }

      .cls-2 {
        isolation: isolate;
      }

      .cls-3 {
        fill: #a6c7ff;
      }

      .cls-4 {
        fill: #fff;
      }

      .cls-5 {
        fill: #c9defe;
      }
    </style>
  </defs>
  <!-- Generator: Adobe Illustrator 28.7.1, SVG Export Plug-In . SVG Version: 1.2.0 Build 142)  -->
  <g>
    <g id="Layer_1">
      <rect class="cls-1" width="767.9" height="319.7"/>
      <g class="cls-2">
        <path class="cls-4" d="M56.6,117.4l-18.2-56.3h12.4l8.4,27,4.4,17.7h.2l4.3-17.7,8.4-27h12l-18.3,56.3h-13.6Z"/>
      </g>
      <g class="cls-2">
        <path class="cls-4" d="M111.8,118.4c-4.9,0-9.1-.8-12.6-2.5-3.4-1.7-6.4-3.9-8.8-6.6l8.1-8.2c3.8,4.3,8.5,6.4,14.1,6.4s5.2-.6,6.7-1.8c1.5-1.2,2.2-2.8,2.2-4.9s-.4-2.8-1.3-3.9c-.9-1-2.6-1.7-5.2-2.1l-5.6-.7c-6-.8-10.3-2.6-13.1-5.4-2.8-2.9-4.2-6.6-4.2-11.4s.5-4.8,1.5-6.9,2.4-3.9,4.2-5.4c1.8-1.5,4-2.7,6.6-3.5s5.6-1.3,8.9-1.3,8,.7,11.2,2,6,3.3,8.3,5.9l-8.1,8.2c-1.3-1.5-3-2.8-4.9-3.8s-4.3-1.5-7.2-1.5-4.8.5-6.1,1.4c-1.3,1-2,2.3-2,4s.5,3.3,1.6,4.2c1,.9,2.8,1.5,5.1,1.8l5.6.9c5.8.9,10.1,2.7,12.9,5.4,2.8,2.7,4.2,6.4,4.2,11.3s-.5,5.2-1.5,7.4c-1,2.3-2.4,4.2-4.2,5.8-1.9,1.6-4.2,2.9-6.9,3.8s-6.1,1.4-9.5,1.4Z"/>
      </g>
      <g class="cls-2">
        <path class="cls-4" d="M185.6,118.4c-3.8,0-7.3-.6-10.3-1.8s-5.7-3-7.8-5.4c-2.2-2.4-3.8-5.4-5-9s-1.8-7.8-1.8-12.5.6-8.9,1.8-12.6,2.8-6.8,5-9.3c2.1-2.5,4.8-4.4,7.8-5.7,3.1-1.3,6.5-1.9,10.3-1.9s9.5,1.1,12.9,3.2,6.1,5.5,8.1,10l-10.6,5.5c-.8-2.4-1.9-4.3-3.5-5.7-1.6-1.4-3.9-2.1-7-2.1s-6.5,1.2-8.7,3.5-3.3,5.7-3.3,10.2v9c0,4.5,1.1,7.9,3.3,10.2,2.2,2.3,5.1,3.5,8.7,3.5s5.4-.8,7.2-2.5c1.8-1.6,3.1-3.6,4-5.9l10,5.8c-2.1,4.3-4.9,7.6-8.3,10-3.3,2.3-7.6,3.5-12.8,3.5Z"/>
      </g>
      <g class="cls-2">
        <path class="cls-4" d="M236.9,118.4c-3.7,0-7.1-.6-10.2-1.9-3.1-1.2-5.7-3.1-7.8-5.5-2.2-2.4-3.8-5.5-5-9.1s-1.8-7.8-1.8-12.6.6-9,1.8-12.6,2.8-6.7,5-9.1c2.1-2.4,4.8-4.3,7.8-5.5,3.1-1.2,6.5-1.9,10.2-1.9s7.1.6,10.2,1.9c3.1,1.2,5.7,3.1,7.8,5.5s3.8,5.5,5,9.1,1.8,7.8,1.8,12.6-.6,9-1.8,12.6c-1.2,3.6-2.9,6.7-5,9.1-2.2,2.4-4.8,4.3-7.8,5.5-3.1,1.3-6.5,1.9-10.2,1.9ZM236.9,107.5c3.7,0,6.6-1.2,8.7-3.6,2.1-2.4,3.1-5.9,3.1-10.4v-8.4c0-4.5-1-8-3.1-10.4s-5-3.6-8.7-3.6-6.6,1.2-8.7,3.6c-2.1,2.4-3.1,5.9-3.1,10.4v8.4c0,4.5,1,8,3.1,10.4s5,3.6,8.7,3.6Z"/>
        <path class="cls-4" d="M271.9,61.1h21.2c3.7,0,7.1.6,10.2,1.8,3.1,1.2,5.7,2.9,7.8,5.3,2.1,2.3,3.8,5.3,5,8.8s1.8,7.6,1.8,12.3-.6,8.8-1.8,12.3c-1.2,3.5-2.9,6.5-5,8.8-2.2,2.3-4.8,4.1-7.8,5.3-3.1,1.2-6.5,1.8-10.2,1.8h-21.2v-56.4ZM293.1,106.5c3.7,0,6.5-1,8.6-3.1,2.1-2,3.1-5.3,3.1-9.8v-8.7c0-4.5-1-7.8-3.1-9.8s-5-3.1-8.6-3.1h-9v34.5h9Z"/>
        <path class="cls-4" d="M328.1,117.4v-56.3h38.3v10.9h-26v11.5h22.3v10.9h-22.3v12.2h26v10.9h-38.3Z"/>
      </g>
      <g class="cls-2">
        <path class="cls-5" d="M40.2,178.1v-41.3h28.1v8h-19.1v8.4h16.4v8h-16.4v8.9h19.1v8h-28.1Z"/>
        <path class="cls-5" d="M110.4,178.1h-10.4l-8.9-15.2h-.2l-8.7,15.2h-9.7l13.3-21.4-12.6-19.9h10.5l8,14h.2l8.2-14h9.7l-12.8,20.1,13.4,21.2Z"/>
        <path class="cls-5" d="M133.1,144.8v33.3h-9v-33.3h-11.1v-8h31.4v8h-11.3Z"/>
        <path class="cls-5" d="M150.5,178.1v-41.3h28.1v8h-19.1v8.4h16.4v8h-16.4v8.9h19.1v8h-28.1Z"/>
        <path class="cls-5" d="M199,158.6l-4-8.3h-.2v27.8h-8.5v-41.3h9.8l11.3,19.5,4,8.3h.2v-27.8h8.5v41.3h-9.8l-11.3-19.5Z"/>
        <path class="cls-5" d="M242.6,178.8c-3.6,0-6.7-.6-9.2-1.9-2.5-1.2-4.7-2.9-6.4-4.8l5.9-6c2.8,3.1,6.3,4.7,10.4,4.7s3.8-.4,4.9-1.3c1.1-.9,1.6-2.1,1.6-3.6s-.3-2.1-.9-2.8c-.6-.8-1.9-1.3-3.8-1.6l-4.1-.5c-4.4-.6-7.6-1.9-9.6-4s-3-4.9-3-8.4.4-3.6,1.1-5.1,1.7-2.9,3-4,2.9-2,4.9-2.6c1.9-.6,4.1-.9,6.5-.9s5.9.5,8.2,1.5,4.4,2.4,6.1,4.3l-6,6c-1-1.1-2.2-2.1-3.6-2.8-1.4-.7-3.2-1.1-5.3-1.1s-3.5.4-4.5,1.1c-1,.7-1.5,1.7-1.5,2.9s.4,2.4,1.2,3,2,1.1,3.8,1.3l4.1.7c4.3.7,7.4,2,9.5,3.9,2.1,2,3.1,4.7,3.1,8.3s-.4,3.8-1.1,5.4c-.7,1.7-1.7,3.1-3.1,4.3s-3,2.1-5.1,2.8c-2.2.9-4.5,1.2-7.1,1.2Z"/>
        <path class="cls-5" d="M264.6,178.1v-7.1h5.3v-27h-5.3v-7.2h19.6v7.2h-5.3v27h5.3v7.2h-19.6Z"/>
        <path class="cls-5" d="M308.3,178.8c-2.7,0-5.2-.5-7.5-1.4-2.2-.9-4.2-2.3-5.7-4.1-1.6-1.8-2.8-4-3.7-6.7-.9-2.7-1.3-5.7-1.3-9.3s.4-6.6,1.3-9.3,2.1-4.9,3.7-6.7,3.5-3.1,5.7-4.1c2.2-.9,4.7-1.4,7.5-1.4s5.2.5,7.5,1.4,4.2,2.3,5.7,4.1c1.6,1.8,2.8,4,3.7,6.7.9,2.7,1.3,5.7,1.3,9.3s-.4,6.6-1.3,9.3-2.1,4.9-3.7,6.7-3.5,3.1-5.7,4.1c-2.3,1-4.8,1.4-7.5,1.4ZM308.3,170.9c2.7,0,4.8-.9,6.4-2.7,1.5-1.8,2.3-4.3,2.3-7.6v-6.2c0-3.3-.8-5.9-2.3-7.6-1.5-1.8-3.6-2.7-6.4-2.7s-4.8.9-6.4,2.7c-1.5,1.8-2.3,4.3-2.3,7.6v6.2c0,3.3.8,5.9,2.3,7.6,1.5,1.8,3.7,2.7,6.4,2.7Z"/>
        <path class="cls-5" d="M346.6,158.6l-4-8.3h-.2v27.8h-8.4v-41.3h9.8l11.3,19.5,4,8.3h.2v-27.8h8.5v41.3h-9.8l-11.4-19.5Z"/>
      </g>
      <path class="cls-3" d="M458,123.6s-5.4-4,1.1-9.3l15.2-13.8c2.4-2.7,6.5-3,9.2-.7h.1c0,0,140.4,107.7,140.4,107.7v51.6s0,8.1-10.3,7.2l-155.7-142.7Z"/>
      <path class="cls-3" d="M494.3,156.8l-36.3,33.4s-3.7,2.8,0,7.7l16.9,15.5c2.7,2.6,7,2.5,9.6-.3.1-.1.2-.2.3-.3l38.4-29.5-28.9-26.5Z"/>
      <path class="cls-3" d="M557.9,157.1l66.5-51.3v-51.3s-2.9-11.3-12.3-5.4l-88.8,81.4,34.6,26.6Z"/>
      <path class="cls-3" d="M613.6,266.4c2.2,2.2,5.4,3.2,8.5,2.6l51.8-26.1c3.7-2.1,5.9-6,5.7-10.3V78.9c-.2-4.2-2.9-7.9-6.9-9.3l-44.8-21.9c-4.9-3.8-11.9-3.3-16.2,1.1,0,0,8.2-6.1,12.3,5.4v204c0,1.4-.3,2.8-.9,4-1.1,2.3-3.7,4.7-9.9,3.6l.4.6Z"/>
      <g>
        <path class="cls-5" d="M52,227.2l-1.6-5.2h-7.2l-1.6,5.2h-3.9l6.8-20.3h4.8l6.8,20.3h-4ZM46.8,210.3h-.1l-2.6,8.4h5.4l-2.6-8.4Z"/>
        <path class="cls-5" d="M61.2,227.2l-5.1-15.2h3.7l2.1,6.6,1.5,5.4h.2l1.5-5.4,2.1-6.6h3.6l-5.1,15.2h-4.4Z"/>
        <path class="cls-5" d="M71.9,223c0-3.1,2.4-4.7,6.5-4.7h2.6v-1.1c0-1.7-.8-2.7-2.8-2.7s-2.7.9-3.5,1.9l-2.2-2c1.1-1.7,2.9-2.9,5.9-2.9s6.3,2,6.3,5.4v7.2h1.5v3h-2.1c-1.6,0-2.6-1-2.8-2.6h-.2c-.5,2-2.2,3-4.4,3s-4.8-1.8-4.8-4.5ZM81,222.6v-2h-2.4c-2,0-2.9.7-2.9,1.9v.5c0,1.2.8,1.8,2.3,1.8s3-.8,3-2.2Z"/>
        <path class="cls-5" d="M88.9,207.9v-.6c0-1.1.6-1.9,2.2-1.9s2.2.8,2.2,1.9v.6c0,1.1-.7,1.9-2.2,1.9s-2.2-.8-2.2-1.9ZM89.2,211.9h3.7v15.2h-3.7v-15.2Z"/>
        <path class="cls-5" d="M101,227.2c-2.5,0-3.7-1.3-3.7-3.7v-17.9h3.7v18.6h2v3h-2Z"/>
        <path class="cls-5" d="M104.8,223c0-3.1,2.4-4.7,6.5-4.7h2.6v-1.1c0-1.7-.8-2.7-2.8-2.7s-2.7.9-3.5,1.9l-2.2-2c1.1-1.7,2.9-2.9,5.9-2.9s6.3,2,6.3,5.4v7.2h1.5v3h-2.1c-1.6,0-2.6-1-2.8-2.6h-.2c-.5,2-2.2,3-4.4,3s-4.8-1.8-4.8-4.5ZM113.9,222.6v-2h-2.4c-2,0-2.9.7-2.9,1.9v.5c0,1.2.8,1.8,2.3,1.8s3-.8,3-2.2Z"/>
        <path class="cls-5" d="M122.1,205.6h3.7v8.9h.1c.6-1.7,2.2-2.9,4.2-2.9,3.8,0,6,2.9,6,7.9s-2.1,8-6,8-3.6-1.2-4.2-2.9h-.1v2.5h-3.7v-21.6ZM132.2,220.9v-2.6c0-2.2-1.3-3.6-3.3-3.6s-3.1,1-3.1,2.4v4.8c0,1.6,1.3,2.5,3.1,2.5s3.3-1.4,3.3-3.6Z"/>
        <path class="cls-5" d="M143.3,227.2c-2.5,0-3.7-1.3-3.7-3.7v-17.9h3.7v18.6h2v3h-2Z"/>
        <path class="cls-5" d="M147.2,219.5c0-4.8,2.6-7.9,7-7.9s6.9,3.5,6.9,7.7v1.2h-10.1v.4c0,2.2,1.3,3.7,3.7,3.7s2.9-.9,3.9-2.1l2,2.2c-1.3,1.7-3.5,2.8-6.3,2.8-4.5,0-7.2-3.1-7.2-8ZM151,217.9v.2h6.2v-.3c0-2.1-1.1-3.5-3-3.5s-3.2,1.5-3.2,3.6Z"/>
        <path class="cls-5" d="M171,207.9v-.6c0-1.1.6-1.9,2.2-1.9s2.2.8,2.2,1.9v.6c0,1.1-.7,1.9-2.2,1.9s-2.2-.8-2.2-1.9ZM171.3,211.9h3.7v15.2h-3.7v-15.2Z"/>
        <path class="cls-5" d="M179.4,227.2v-15.2h3.7v2.5h.1c.6-1.6,1.9-2.9,4.3-2.9s4.9,2.2,4.9,5.9v9.6h-3.7v-9.2c0-2.2-.7-3.3-2.5-3.3s-3,.8-3,2.4v10h-3.7Z"/>
        <path class="cls-5" d="M203.6,206.8h4.3l5.2,9.9h.1l5.2-9.9h4.2v20.3h-3.6v-14.6h-.1l-1.6,3.2-4.2,7.7-4.2-7.7-1.6-3.2h-.1v14.6h-3.6v-20.3Z"/>
        <path class="cls-5" d="M226.1,223c0-3.1,2.4-4.7,6.5-4.7h2.6v-1.1c0-1.7-.8-2.7-2.8-2.7s-2.7.9-3.5,1.9l-2.2-2c1.1-1.7,2.9-2.9,5.9-2.9s6.3,2,6.3,5.4v7.2h1.5v3h-2.1c-1.6,0-2.6-1-2.8-2.6h-.2c-.5,2-2.2,3-4.4,3s-4.8-1.8-4.8-4.5ZM235.2,222.6v-2h-2.4c-2,0-2.9.7-2.9,1.9v.5c0,1.2.8,1.8,2.3,1.8s3-.8,3-2.2Z"/>
        <path class="cls-5" d="M243.4,227.2v-15.2h3.7v3.1h.1c.4-1.6,1.6-3.1,4-3.1h.8v3.5h-1.2c-2.5,0-3.8.7-3.8,2.4v9.3h-3.7Z"/>
        <path class="cls-5" d="M254.9,205.6h3.7v13h.1l2-2.7,3.4-3.9h4.2l-5.2,5.9,5.8,9.3h-4.4l-3.9-6.8-2,2.2v4.6h-3.7v-21.6Z"/>
        <path class="cls-5" d="M269.5,219.5c0-4.8,2.6-7.9,7-7.9s6.9,3.5,6.9,7.7v1.2h-10.1v.4c0,2.2,1.3,3.7,3.7,3.7s2.9-.9,3.9-2.1l2,2.2c-1.3,1.7-3.5,2.8-6.3,2.8-4.5,0-7.2-3.1-7.2-8ZM273.4,217.9v.2h6.2v-.3c0-2.1-1.1-3.5-3-3.5s-3.2,1.5-3.2,3.6Z"/>
        <path class="cls-5" d="M287.6,223.3v-8.4h-2.2v-3h1.2c1.1,0,1.5-.5,1.5-1.6v-2.6h3.4v4.2h3.1v3h-3.1v9.3h2.9v3h-2.7c-2.6,0-3.9-1.4-3.9-3.9Z"/>
        <path class="cls-5" d="M297.7,211.9h3.7v2.5h.1c.6-1.7,2.2-2.9,4.2-2.9,3.8,0,6,2.9,6,7.9s-2.1,8-6,8-3.6-1.2-4.2-2.9h-.1v8.4h-3.7v-21ZM307.8,220.9v-2.6c0-2.2-1.3-3.6-3.3-3.6s-3.1,1-3.1,2.4v4.8c0,1.6,1.3,2.5,3.1,2.5s3.3-1.4,3.3-3.6Z"/>
        <path class="cls-5" d="M318.9,227.2c-2.5,0-3.7-1.3-3.7-3.7v-17.9h3.7v18.6h2v3h-2Z"/>
        <path class="cls-5" d="M322.7,223c0-3.1,2.4-4.7,6.5-4.7h2.6v-1.1c0-1.7-.8-2.7-2.8-2.7s-2.7.9-3.5,1.9l-2.2-2c1.1-1.7,2.9-2.9,5.9-2.9s6.3,2,6.3,5.4v7.2h1.5v3h-2.1c-1.6,0-2.6-1-2.8-2.6h-.2c-.5,2-2.2,3-4.4,3s-4.8-1.8-4.8-4.5ZM331.8,222.6v-2h-2.4c-2,0-2.9.7-2.9,1.9v.5c0,1.2.8,1.8,2.3,1.8s3-.8,3-2.2Z"/>
        <path class="cls-5" d="M339,219.5c0-4.9,2.5-7.9,7-7.9s5.1,1.5,6,3.8l-3.1,1.4c-.3-1.3-1.3-2.2-2.9-2.2s-3.1,1.5-3.1,3.6v2.8c0,2.1,1,3.6,3.1,3.6s2.7-1,3.2-2.4l2.9,1.4c-1,2.7-3.1,4-6.1,4-4.5,0-7-3.1-7-8Z"/>
        <path class="cls-5" d="M353.8,219.5c0-4.8,2.6-7.9,7-7.9s6.9,3.5,6.9,7.7v1.2h-10.1v.4c0,2.2,1.3,3.7,3.7,3.7s2.9-.9,3.9-2.1l2,2.2c-1.3,1.7-3.5,2.8-6.3,2.8-4.5,0-7.2-3.1-7.2-8ZM357.7,217.9v.2h6.2v-.3c0-2.1-1.1-3.5-3-3.5s-3.2,1.5-3.2,3.6Z"/>
        <path class="cls-5" d="M38.1,258c0-3.1,2.4-4.7,6.5-4.7h2.6v-1.1c0-1.7-.8-2.7-2.8-2.7s-2.7.9-3.5,1.9l-2.2-2c1.1-1.7,2.9-2.9,5.9-2.9s6.3,2,6.3,5.4v7.2h1.5v3h-2.1c-1.6,0-2.6-1-2.8-2.6h-.2c-.5,2-2.2,3-4.4,3s-4.8-1.8-4.8-4.5ZM47.2,257.6v-2h-2.4c-2,0-2.9.7-2.9,1.9v.5c0,1.2.8,1.8,2.3,1.8s3-.8,3-2.2Z"/>
        <path class="cls-5" d="M55.4,262.1v-15.2h3.7v2.5h.1c.6-1.6,1.9-2.9,4.3-2.9s4.9,2.2,4.9,5.9v9.6h-3.7v-9.2c0-2.2-.7-3.3-2.5-3.3s-3,.8-3,2.4v10h-3.7Z"/>
        <path class="cls-5" d="M82,259.6h-.1c-.6,1.7-2.2,2.9-4.2,2.9-3.8,0-5.9-2.9-5.9-8s2.1-7.9,5.9-7.9,3.7,1.1,4.2,2.9h.1v-8.9h3.7v21.6h-3.7v-2.5ZM82,256.9v-4.8c0-1.5-1.4-2.4-3.1-2.4s-3.2,1.4-3.2,3.6v2.6c0,2.2,1.3,3.6,3.2,3.6s3.1-.9,3.1-2.5Z"/>
        <path class="cls-5" d="M96.3,252c0-6.9,3.5-10.5,8.9-10.5s8.9,3.6,8.9,10.5-3.5,10.5-8.9,10.5-8.9-3.6-8.9-10.5ZM109.9,253.5v-3.1c0-3.5-1.9-5.5-4.8-5.5s-4.8,2.1-4.8,5.5v3.1c0,3.5,1.9,5.5,4.8,5.5s4.8-2.1,4.8-5.5Z"/>
        <path class="cls-5" d="M117.7,246.9h3.7v2.5h.1c.6-1.7,2.2-2.9,4.2-2.9,3.8,0,6,2.9,6,7.9s-2.1,8-6,8-3.6-1.2-4.2-2.9h-.1v8.4h-3.7v-21ZM127.8,255.8v-2.6c0-2.2-1.3-3.6-3.3-3.6s-3.1,1-3.1,2.4v4.8c0,1.6,1.3,2.5,3.1,2.5s3.3-1.4,3.3-3.6Z"/>
        <path class="cls-5" d="M134.1,254.5c0-4.8,2.6-7.9,7-7.9s6.9,3.5,6.9,7.7v1.2h-10.1v.4c0,2.2,1.3,3.7,3.7,3.7s2.9-.9,3.9-2.1l2,2.2c-1.3,1.7-3.5,2.8-6.3,2.8-4.5,0-7.2-3.1-7.2-8ZM138,252.9v.2h6.2v-.3c0-2.1-1.1-3.5-3-3.5s-3.2,1.5-3.2,3.6Z"/>
        <path class="cls-5" d="M151.4,262.1v-15.2h3.7v2.5h.1c.6-1.6,1.9-2.9,4.3-2.9s4.9,2.2,4.9,5.9v9.6h-3.7v-9.2c0-2.2-.7-3.3-2.5-3.3s-3,.8-3,2.4v10h-3.7Z"/>
        <path class="cls-5" d="M168.1,255.1v-3.7h8.3v3.7h-8.3Z"/>
        <path class="cls-5" d="M184.5,262.1l-6.6-20.3h3.9l3.1,9.9,1.8,6.8h0l1.8-6.8,3.1-9.9h3.8l-6.6,20.3h-4.4Z"/>
        <path class="cls-5" d="M196.4,259.1l2.6-2.5c1.4,1.6,3.1,2.5,5.2,2.5s3.6-1.1,3.6-2.9-.6-2.2-2.8-2.6l-1.9-.3c-4.1-.6-6.1-2.6-6.1-5.9s2.8-6,7.4-6,5.3,1,7,3l-2.6,2.5c-1-1.3-2.4-2.1-4.5-2.1s-3.3.9-3.3,2.4.9,2.2,2.8,2.5l1.9.3c4.1.7,6,2.6,6,5.9s-2.8,6.5-7.6,6.5-5.9-1.4-7.6-3.4Z"/>
        <path class="cls-5" d="M220.2,251.7l-6.3-9.9h4.5l4.3,7.2h0l4.4-7.2h4.2l-6.4,9.9,6.6,10.4h-4.5l-4.7-7.8h0l-4.6,7.8h-4.2l6.6-10.4Z"/>
      </g>
    </g>
  </g>
</svg>