<?xml version="1.0" encoding="utf-8"?>
<!-- Generator: Adobe Illustrator 24.0.3, SVG Export Plug-In . SVG Version: 6.00 Build 0)  -->
<svg version="1.1" id="Layer_1" xmlns="http://www.w3.org/2000/svg" xmlns:xlink="http://www.w3.org/1999/xlink" x="0px" y="0px"
	 viewBox="0 0 148.4 42.6" style="enable-background:new 0 0 148.4 42.6;" xml:space="preserve">
<style type="text/css">
	.st0{fill:none;}
	.st1{fill:#FFFFFF;}
</style>
<title>F1A92D76-7081-44A2-B90A-8AE16819D007</title>
<desc>Created with sketchtool.</desc>
<path class="st0" d="M97.9,4.9c0.1-0.1,0.2-0.3,0.2-0.4v0c0-0.2-0.1-0.3-0.2-0.4c-0.2-0.1-0.4-0.1-0.7-0.1h-0.3V5h0.3
	C97.4,5,97.6,5,97.9,4.9z"/>
<path class="st0" d="M124.3,4.8c0.3-0.3,0.4-0.8,0.1-1.1l-0.1-0.1c-0.2-0.2-0.5-0.2-0.8-0.2h-0.7V5h0.7C123.8,5.1,124,5,124.3,4.8z"
	/>
<path class="st0" d="M120.8,4.9c0.3-0.3,0.4-0.8,0.1-1.2c0,0,0,0,0,0c0,0,0,0,0,0l0,0c-0.2-0.2-0.5-0.2-0.8-0.2l-0.8,0v1.7h0.8
	C120.2,5.1,120.5,5,120.8,4.9z"/>
<path class="st0" d="M84.9,22.5c-3.2,0-5.1,2.4-5.1,5.3v0.1c0,2.9,2.1,5.4,5.1,5.4c3.2,0,5.1-2.4,5.1-5.3v-0.1
	C90,25,87.9,22.5,84.9,22.5z"/>
<polygon class="st0" points="102.8,4.2 102.2,5.9 103.5,5.9 "/>
<path class="st0" d="M58.6,5.1C59,4.8,59,4.2,58.7,3.8c0,0,0,0,0,0c-0.2-0.2-0.5-0.3-0.8-0.3h-0.9v1.9h0.9C58,5.4,58.3,5.3,58.6,5.1
	z"/>
<path class="st0" d="M137.7,22.2c-2.3,0-3.8,1.6-4.2,4.1h8.3C141.5,23.8,140,22.2,137.7,22.2z"/>
<polygon class="st0" points="79.2,4.2 78.5,5.9 79.8,5.9 "/>
<path class="st0" d="M51.7,7c0.8,0.8,2.1,0.8,2.9,0c0.8-0.8,0.8-2.1,0-2.9c-0.8-0.8-2.1-0.8-2.9,0C50.9,4.9,50.9,6.2,51.7,7
	C51.7,7,51.7,7,51.7,7L51.7,7z"/>
<path class="st0" d="M129.7,6.5c0.7-0.7,0.7-1.9,0-2.6c-0.7-0.7-1.9-0.7-2.6,0c-0.7,0.7-0.7,1.9,0,2.6c0,0,0,0,0,0
	c0.3,0.3,0.8,0.5,1.3,0.5v0C128.9,7.1,129.3,6.9,129.7,6.5z"/>
<polygon class="st1" points="31.2,20.1 31.2,20.1 31.2,20.1 "/>
<path class="st1" d="M119.2,5.4h0.8c0.4,0,0.7-0.1,1-0.3c0.2-0.2,0.4-0.5,0.4-0.8c0-0.3-0.1-0.6-0.4-0.8c-0.3-0.2-0.6-0.3-1-0.3
	h-1.1v4.2h0.3V5.4z M119.2,3.4l0.8,0c0.3,0,0.5,0.1,0.8,0.2l0,0c0,0,0,0,0,0c0.3,0.3,0.3,0.9-0.1,1.2c0,0,0,0,0,0
	c-0.2,0.2-0.5,0.2-0.8,0.2h-0.8L119.2,3.4z"/>
<path class="st1" d="M122.8,5.3h0.6c0.2,0,0.4,0,0.6,0.1c0.2,0.2,0.4,0.4,0.6,0.7l0.7,1.1h0.4l-0.9-1.4c-0.1-0.3-0.3-0.5-0.6-0.6
	c0.5-0.1,0.8-0.5,0.8-1c0-0.3-0.1-0.6-0.4-0.8c-0.3-0.2-0.7-0.3-1-0.3h-1.1l0,4.2h0.3V5.3z M122.8,3.4h0.7c0.3,0,0.6,0.1,0.8,0.2
	l0.1,0.1c0.3,0.3,0.2,0.8-0.1,1.1C124,5,123.8,5.1,123.5,5h-0.7V3.4z"/>
<path class="st1" d="M129.9,6.7L129.9,6.7C130,6.7,130,6.7,129.9,6.7c0.9-0.9,0.8-2.2,0-3c0,0,0,0,0,0c-0.9-0.8-2.2-0.8-3.1,0l0,0
	l0,0c-0.8,0.8-0.8,2.2,0,3C127.7,7.6,129.1,7.6,129.9,6.7z M127.1,6.5c-0.7-0.7-0.7-1.9,0-2.6c0,0,0,0,0,0c0.7-0.7,1.9-0.7,2.6,0
	c0.7,0.7,0.7,1.9,0,2.6c-0.3,0.3-0.8,0.5-1.3,0.5v0C127.9,7.1,127.4,6.9,127.1,6.5z"/>
<path class="st1" d="M131.3,8.5c0.2,0,0.5-0.1,0.6-0.3c0.2-0.3,0.3-0.6,0.3-0.9V3.1h-0.3v4.3c0,0.6-0.2,0.8-0.6,0.8
	c-0.1,0-0.1,0-0.2,0l0,0.3C131.2,8.5,131.2,8.5,131.3,8.5z"/>
<polygon class="st1" points="135.9,7 133.9,7 133.9,5.3 135.8,5.3 135.8,5.1 133.9,5.1 133.9,3.4 135.9,3.4 135.9,3.1 133.6,3.1 
	133.6,7.3 135.9,7.3 "/>
<path class="st1" d="M140.5,3.4L140.5,3.4C140.5,3.4,140.5,3.4,140.5,3.4L140.5,3.4z"/>
<path class="st1" d="M139.1,7.4c0.5,0,1-0.1,1.5-0.4V6.6c-0.4,0.3-1,0.4-1.5,0.4c-0.5,0-1-0.2-1.3-0.5c-0.4-0.3-0.5-0.8-0.5-1.3
	c0-0.5,0.2-1,0.5-1.3c0.3-0.3,0.8-0.5,1.3-0.5c0.5,0,1,0.2,1.5,0.4V3.4c-0.5-0.2-0.9-0.3-1.4-0.3c-0.6,0-1.1,0.2-1.5,0.6
	c0,0,0,0,0,0c0,0,0,0,0,0c0,0,0,0,0,0c-0.8,0.8-0.8,2.2,0,3C137.9,7.2,138.5,7.4,139.1,7.4z"/>
<polygon class="st1" points="142.8,7.3 143.1,7.3 143.1,3.4 144.6,3.4 144.6,3.1 141.2,3.1 141.2,3.4 142.8,3.4 "/>
<polygon class="st1" points="75.7,7.6 75.7,3 74.5,3 73.1,4.7 71.6,3 70.4,3 70.4,7.6 71.7,7.6 71.7,4.9 73,6.5 73.1,6.5 74.3,4.9 
	74.3,7.6 "/>
<path class="st1" d="M78.2,6.7h2l0.4,0.9h1.4l-2-4.6h-1.6l-2,4.6h1.4L78.2,6.7z M79.2,4.2l0.7,1.7h-1.4L79.2,4.2z"/>
<rect x="82.6" y="3" class="st1" width="1.4" height="4.6"/>
<polygon class="st1" points="86.5,5 88.9,7.6 90.1,7.6 90.1,3 88.7,3 88.7,5.5 86.3,3 85.1,3 85.1,7.6 86.5,7.6 "/>
<polygon class="st1" points="92.6,5.7 94.6,5.7 94.6,4.8 92.6,4.8 92.6,3.9 94.6,3.9 94.6,3 91.3,3 91.3,7.6 92.6,7.6 "/>
<path class="st1" d="M97.4,5.8c0.1,0.1,0.2,0.2,0.3,0.3c0.1,0.2,0.3,0.4,0.4,0.7l0.4,0.8h1.5l-0.5-1c-0.1-0.3-0.2-0.5-0.4-0.7
	c-0.1-0.1-0.2-0.2-0.4-0.3c0.1-0.1,0.2-0.1,0.3-0.2c0.1-0.1,0.2-0.2,0.3-0.3c0.1-0.2,0.1-0.4,0.1-0.6c0-0.2-0.1-0.4-0.2-0.6
	c-0.1-0.2-0.3-0.4-0.5-0.6C98.5,3.1,98.2,3,97.8,3h-2.4v4.6h1.4V5.8H97C97.2,5.8,97.3,5.8,97.4,5.8z M96.9,3.9h0.3
	c0.2,0,0.5,0,0.7,0.1c0.1,0.1,0.2,0.3,0.2,0.4v0c0,0.2-0.1,0.3-0.2,0.4C97.6,5,97.4,5,97.2,5h-0.3V3.9z"/>
<path class="st1" d="M101.8,6.7h2l0.4,0.9h1.4l-2-4.6h-1.5l-2,4.6h1.4L101.8,6.7z M102.8,4.2l0.7,1.7h-1.4L102.8,4.2z"/>
<polygon class="st1" points="107.6,4.9 108.8,6.5 108.9,6.5 110.2,4.9 110.2,7.6 111.6,7.6 111.6,3 110.3,3 108.9,4.7 107.5,3 
	106.2,3 106.2,7.6 107.6,7.6 "/>
<polygon class="st1" points="116.2,6.7 114.1,6.7 114.1,5.7 116.1,5.7 116.1,4.8 114.1,4.8 114.1,3.9 116.1,3.9 116.1,3 112.7,3 
	112.7,7.6 116.2,7.6 "/>
<path class="st1" d="M54.9,7.2L54.9,7.2C55,7.2,55,7.2,54.9,7.2c1-1,0.9-2.5,0-3.4c-0.5-0.5-1.1-0.7-1.7-0.7v0
	c-0.6,0-1.3,0.2-1.7,0.7l0,0c-0.9,0.9-0.9,2.4,0,3.3C52.4,8.1,53.9,8.1,54.9,7.2z M51.7,4.1c0.8-0.8,2.1-0.8,2.9,0
	c0.8,0.8,0.8,2.1,0,2.9c-0.8,0.8-2.1,0.8-2.9,0l0,0C50.9,6.2,50.9,4.9,51.7,4.1C51.7,4.1,51.7,4.1,51.7,4.1L51.7,4.1z"/>
<path class="st1" d="M56.8,5.7h0.9c0.4,0,0.8-0.1,1.2-0.3c0.5-0.4,0.6-1.2,0.1-1.7c0,0-0.1-0.1-0.1-0.1c-0.3-0.2-0.7-0.4-1.1-0.3
	h-1.3l0,4.6h0.4V5.7z M56.9,3.5h0.9c0.3,0,0.6,0.1,0.8,0.3c0,0,0,0,0,0c0.4,0.4,0.3,1-0.1,1.3c-0.3,0.2-0.6,0.3-0.9,0.2h-0.9
	L56.9,3.5z"/>
<polygon class="st1" points="62.6,7.5 60.3,7.5 60.3,5.7 62.5,5.7 62.5,5.4 60.3,5.4 60.3,3.5 62.5,3.5 62.5,3.2 60,3.2 60,7.8 
	62.6,7.8 "/>
<polygon class="st1" points="63.7,3.8 67.2,7.8 67.5,7.8 67.5,3.2 67.1,3.2 67.1,7.3 63.6,3.2 63.3,3.2 63.3,7.8 63.7,7.8 "/>
<polygon class="st1" points="50.7,17 64.3,17 50.3,33.3 50.3,37.6 71.5,37.6 71.5,32.7 57.5,32.7 71.5,16.4 71.5,12.1 50.7,12.1 "/>
<path class="st1" d="M84.9,17.7c-6.1,0-10.6,4.5-10.6,10.1V28c0,5.6,4.5,10.1,10.5,10.1c6.1,0,10.6-4.5,10.6-10.1v-0.1
	C95.5,22.2,91,17.7,84.9,17.7z M90,28c0,2.9-1.9,5.3-5.1,5.3c-3.1,0-5.1-2.5-5.1-5.4v-0.1c0-2.9,1.9-5.3,5.1-5.3
	C87.9,22.5,90,25,90,28L90,28z"/>
<polygon class="st1" points="117.9,30 114.1,18 109.4,18 105.7,29.9 102.6,18.1 97,18.1 103,37.7 107.9,37.7 111.7,25.8 115.5,37.7 
	120.5,37.7 126.5,18.1 121.1,18.1 "/>
<path class="st1" d="M147.2,28.3c0-5.5-3-10.6-9.5-10.6c-5.7,0-9.6,4.6-9.6,10.1V28c0,6,4.3,10.1,10.2,10.1c3.5,0,6.1-1.4,8-3.6
	l-3.2-2.8c-1.5,1.4-2.9,2-4.7,2c-2.5,0-4.2-1.3-4.8-3.8h13.6C147.2,29.3,147.2,28.8,147.2,28.3z M133.5,26.3
	c0.4-2.5,1.9-4.1,4.2-4.1c2.3,0,3.8,1.7,4.1,4.1H133.5z"/>
<polygon class="st1" points="27.3,0 27.3,0 0,18 9.4,17.9 22.2,8.9 24.8,14.3 24.2,17.7 39.6,23 31.2,20.1 33.5,23.5 19.8,33.3 
	18.6,31.5 19.4,24.6 19.4,24.6 20.4,15.7 20.4,15.7 20.4,15.7 11.6,21.6 9.4,17.9 0,18.1 17.3,42.5 17.3,41.9 17.3,42.7 43.4,24.3 
	43.4,24.3 "/>
<polygon class="st1" points="23.3,25.6 31.2,20.1 24.2,17.7 "/>
</svg>
