<?xml version="1.0" encoding="utf-8"?>
<!-- Generator: Adobe Illustrator 24.0.3, SVG Export Plug-In . SVG Version: 6.00 Build 0)  -->
<svg version="1.1" id="Layer_1" xmlns="http://www.w3.org/2000/svg" xmlns:xlink="http://www.w3.org/1999/xlink" x="0px" y="0px"
	 viewBox="0 0 792 353.9" style="enable-background:new 0 0 792 353.9;" xml:space="preserve">
<style type="text/css">
	.st0{opacity:0.8;fill:none;}
	.st1{opacity:0.8;fill:#FFFFFF;}
</style>
<title>zowe-logo-white</title>
<path class="st0" d="M519.2,99.2c0.6-0.4,0.9-1.2,0.9-1.9v-0.1c0.1-0.8-0.3-1.6-1-2c-1-0.5-2.1-0.7-3.1-0.6h-1.3v5.1h1.4
	C517.1,99.8,518.2,99.6,519.2,99.2z"/>
<path class="st0" d="M641.5,99c1.5-1.3,1.7-3.6,0.4-5.1l-0.4-0.4c-1.1-0.7-2.4-1.1-3.8-1h-3.1v7.5h3.2
	C639,100.1,640.3,99.7,641.5,99z"/>
<path class="st0" d="M625.1,99.1c1.6-1.4,1.7-3.9,0.3-5.4c0,0,0,0,0,0c0,0,0,0,0,0l-0.2-0.2c-1-0.7-2.3-1.1-3.5-1l-3.8,0.1v7.7h3.6
	C622.8,100.2,624.1,99.9,625.1,99.1z"/>
<path class="st0" d="M459.1,180.8c-14.6,0-23.4,11.3-23.4,24.6v0.3c0,13.3,9.6,24.9,23.7,24.9c14.6,0,23.4-11.3,23.4-24.6v-0.3
	C482.8,192.4,473.2,180.8,459.1,180.8z"/>
<polygon class="st0" points="542.2,96.1 539,103.8 545.3,103.8 "/>
<path class="st0" d="M337.5,100.4c1.8-1.6,1.9-4.4,0.2-6.1c-0.1-0.1-0.1-0.2-0.2-0.2c-1.1-0.8-2.5-1.3-3.8-1.2h-4.3v8.7h4
	C334.9,101.6,336.3,101.2,337.5,100.4z"/>
<path class="st0" d="M703.6,179.3c-10.6,0-17.5,7.6-19.5,19.2h38.5C721.1,187,714.4,179.3,703.6,179.3z"/>
<polygon class="st0" points="432.6,96.1 429.5,103.8 435.8,103.8 "/>
<path class="st0" d="M305.6,109c3.8,3.6,9.8,3.6,13.6,0c3.7-3.7,3.7-9.7,0-13.5c-3.8-3.6-9.8-3.6-13.6,0
	C301.8,99.2,301.8,105.2,305.6,109C305.5,109,305.5,109,305.6,109L305.6,109z"/>
<path class="st0" d="M666.4,106.9c3.3-3.3,3.3-8.7,0-12.1c-3.4-3.3-8.8-3.3-12.1,0c-3.3,3.3-3.3,8.7,0,12c0,0,0,0,0,0
	c1.6,1.6,3.8,2.5,6.1,2.4v0C662.6,109.4,664.8,108.5,666.4,106.9z"/>
<polygon class="st1" points="203.4,168.1 203.4,168.1 203.4,168.1 "/>
<path class="st1" d="M617.9,101.4h3.7c1.7,0.1,3.4-0.4,4.8-1.4c1.1-0.9,1.7-2.3,1.6-3.8c0.1-1.4-0.5-2.8-1.6-3.7
	c-1.3-1-3-1.5-4.6-1.4h-5.3v19.2h1.5V101.4z M617.9,92.5l3.8-0.1c1.3-0.1,2.5,0.3,3.5,1l0.2,0.2c0,0,0,0,0,0c1.4,1.6,1.3,4-0.3,5.4
	c0,0,0,0,0,0c-1.1,0.8-2.4,1.1-3.7,1h-3.6L617.9,92.5z"/>
<path class="st1" d="M634.5,101.3h2.7c1-0.1,1.9,0.2,2.7,0.7c1,0.9,1.9,2.1,2.6,3.3l3.3,5.2h1.8l-4.3-6.6c-0.6-1.2-1.5-2.2-2.6-2.9
	c2.1-0.5,3.7-2.4,3.7-4.7c0.1-1.4-0.5-2.7-1.6-3.6c-1.4-1-3-1.5-4.7-1.4h-4.9l-0.1,19.3h1.5V101.3z M634.5,92.5h3.1
	c1.3-0.1,2.6,0.3,3.8,1l0.4,0.4c1.3,1.5,1.1,3.8-0.4,5.1c-1.1,0.7-2.4,1.1-3.7,1h-3.2V92.5z"/>
<path class="st1" d="M667.6,107.8l0.2-0.2c0,0,0.1-0.1,0.1-0.1c3.7-3.9,3.5-9.9-0.3-13.6c0,0,0,0,0,0c-4-3.8-10.4-3.8-14.4,0L653,94
	l0,0c-3.7,3.9-3.7,10,0.2,13.8C657.2,111.6,663.5,111.6,667.6,107.8z M654.3,106.8c-3.3-3.3-3.3-8.7,0-12c0,0,0,0,0,0
	c3.4-3.3,8.8-3.3,12.1,0c3.3,3.3,3.3,8.7,0,12.1c-1.6,1.6-3.8,2.5-6.1,2.4v0C658.1,109.3,655.9,108.4,654.3,106.8z"/>
<path class="st1" d="M674,116c1.1,0,2.1-0.4,2.8-1.2c0.9-1.2,1.4-2.8,1.2-4.3V91.2h-1.5v19.7c0,2.6-0.9,3.9-2.7,3.9
	c-0.3,0-0.6,0-0.9-0.1l0.1,1.4C673.4,116,673.7,116,674,116z"/>
<polygon class="st1" points="695.3,109.2 686.1,109.2 686.1,101.4 694.8,101.4 694.8,100.1 686.1,100.1 686.1,92.5 695.1,92.5 
	695.1,91.2 684.6,91.2 684.6,110.4 695.3,110.4 "/>
<path class="st1" d="M716.6,92.6L716.6,92.6C716.6,92.6,716.6,92.6,716.6,92.6L716.6,92.6z"/>
<path class="st1" d="M710,110.7c2.4,0,4.7-0.6,6.8-1.8v-1.5c-2.1,1.2-4.4,1.9-6.8,1.9c-2.3,0.1-4.5-0.8-6.2-2.4
	c-1.6-1.6-2.5-3.8-2.4-6.1c-0.1-2.3,0.8-4.5,2.4-6.1c1.6-1.6,3.7-2.5,6-2.4c2.4,0.1,4.8,0.7,6.9,1.9v-1.6c-2.1-1-4.4-1.5-6.7-1.6
	c-2.7,0-5.2,1-7.1,2.8c0,0.1-0.1,0.1-0.1,0.1c0,0,0,0,0,0c0,0,0,0,0,0c-3.8,3.8-3.8,10.1,0,13.9C704.6,109.8,707.3,110.8,710,110.7z
	"/>
<polygon class="st1" points="727,110.4 728.5,110.4 728.5,92.5 735.7,92.5 735.7,91.2 719.8,91.2 719.8,92.5 727,92.5 "/>
<polygon class="st1" points="416.8,111.8 416.8,90.5 411,90.5 404.4,98.5 397.9,90.5 392,90.5 392,111.8 398.3,111.8 398.3,99.4 
	404.1,106.6 404.6,106.6 410.4,99.4 410.4,111.8 "/>
<path class="st1" d="M428,107.5h9.2l1.8,4.3h6.6l-9.3-21.3h-7.2l-9.4,21.3h6.6L428,107.5z M432.6,96.1l3.1,7.7h-6.3L432.6,96.1z"/>
<rect x="448.4" y="90.5" class="st1" width="6.4" height="21.3"/>
<polygon class="st1" points="466.5,99.9 477.6,111.8 483.3,111.8 483.3,90.5 476.9,90.5 476.9,102.3 465.9,90.5 460.2,90.5 
	460.2,111.8 466.5,111.8 "/>
<polygon class="st1" points="495,103.2 503.9,103.2 503.9,98.9 495,98.9 495,94.8 503.9,94.8 503.9,90.5 488.6,90.5 488.6,111.8 
	495,111.8 "/>
<path class="st1" d="M517.1,103.7c0.6,0.3,1.1,0.7,1.4,1.2c0.7,0.9,1.2,2,1.7,3l1.7,3.8h6.9l-2.1-4.7c-0.5-1.2-1.1-2.3-1.9-3.3
	c-0.5-0.6-1-1.1-1.7-1.4c0.5-0.3,1.1-0.6,1.6-1c0.5-0.4,1-1,1.3-1.6c0.4-0.8,0.7-1.8,0.6-2.7c0-1-0.3-2-0.7-2.9
	c-0.6-1.1-1.4-2-2.4-2.6c-1.3-0.8-2.8-1.1-4.3-1.1h-10.9v21.2h6.4v-8.3h0.7C515.9,103.4,516.6,103.5,517.1,103.7z M514.6,94.6h1.3
	c1.1-0.1,2.2,0.1,3.1,0.6c0.7,0.4,1.1,1.2,1,2v0.1c0.1,0.7-0.3,1.5-0.9,1.9c-1,0.4-2.1,0.6-3.2,0.5h-1.4V94.6z"/>
<path class="st1" d="M537.5,107.5h9.2l1.7,4.3h6.6l-9.4-21.3h-7.1l-9.4,21.3h6.6L537.5,107.5z M542.2,96.1l3.1,7.7H539L542.2,96.1z"
	/>
<polygon class="st1" points="564.1,99.4 569.9,106.6 570.4,106.6 576.2,99.4 576.2,111.8 582.7,111.8 582.7,90.5 576.8,90.5 
	570.3,98.5 563.7,90.5 557.9,90.5 557.9,111.8 564.1,111.8 "/>
<polygon class="st1" points="604.1,107.5 594.4,107.5 594.4,102.9 603.4,102.9 603.4,98.7 594.4,98.7 594.4,94.8 603.8,94.8 
	603.8,90.5 588,90.5 588,111.8 604.1,111.8 "/>
<path class="st1" d="M320.4,110.1l0.3-0.3c0,0,0,0,0,0c4.2-4.3,4-11.2-0.3-15.3c-2.1-2.1-5.1-3.3-8.1-3.2v0.1c-3-0.1-5.9,1.1-8,3.2
	l-0.2,0.2c-4.2,4.3-4.1,11.2,0.2,15.4C308.9,114.3,315.9,114.3,320.4,110.1z M305.6,95.5c3.8-3.6,9.8-3.6,13.6,0
	c3.7,3.7,3.7,9.7,0,13.5c-3.8,3.6-9.8,3.6-13.6,0l0,0C301.8,105.2,301.8,99.2,305.6,95.5C305.6,95.5,305.6,95.5,305.6,95.5
	L305.6,95.5z"/>
<path class="st1" d="M329.3,102.9h4.1c1.9,0.1,3.8-0.4,5.3-1.6c2.3-2,2.6-5.6,0.5-7.9c-0.1-0.2-0.3-0.3-0.4-0.4
	c-1.5-1.1-3.3-1.6-5.2-1.5h-5.9l-0.1,21.4h1.7V102.9z M329.4,92.9h4.3c1.4-0.1,2.7,0.3,3.8,1.2c0.1,0.1,0.2,0.1,0.2,0.2
	c1.6,1.8,1.5,4.5-0.2,6.1c-1.2,0.8-2.6,1.2-4.1,1.1h-4L329.4,92.9z"/>
<polygon class="st1" points="355.8,111.5 345.5,111.5 345.5,102.8 355.3,102.8 355.3,101.4 345.5,101.4 345.5,92.9 355.6,92.9 
	355.6,91.5 343.9,91.5 343.9,112.9 355.8,112.9 "/>
<polygon class="st1" points="360.9,94.2 377.2,112.9 378.6,112.9 378.6,91.5 376.9,91.5 376.9,110.2 360.6,91.5 359.2,91.5 
	359.2,112.9 360.9,112.9 "/>
<polygon class="st1" points="301,155.6 363.8,155.6 299,230.9 299,250.6 397.1,250.6 397.1,227.9 332.3,227.9 397.1,152.5 
	397.1,132.8 301,132.8 "/>
<path class="st1" d="M459.4,158.7c-28.1,0-49,21-49,47v0.3c0,25.9,20.7,46.6,48.6,46.6c28.1,0,49-21,49-47v-0.3
	C508,179.4,487.3,158.7,459.4,158.7z M482.8,206c0,13.3-8.8,24.6-23.4,24.6c-14.1,0-23.7-11.6-23.7-24.9v-0.3
	c0-13.3,8.8-24.6,23.4-24.6c14.1,0,23.7,11.6,23.7,24.9V206z"/>
<polygon class="st1" points="611.7,215.3 594.5,160.1 572.5,160.1 555.5,215.1 541,160.4 515.1,160.4 542.9,251.3 565.8,251.3 
	583.4,195.9 600.8,251.3 623.8,251.3 651.9,160.4 626.5,160.4 "/>
<path class="st1" d="M747.5,207.7c0-25.6-13.8-49-43.9-49c-26.3,0-44.6,21.2-44.6,47v0.3c0,27.6,20,46.6,47.1,46.6
	c16.3,0,28.4-6.4,36.9-16.8l-14.6-13c-7.1,6.6-13.3,9.3-21.9,9.3c-11.4,0-19.5-6.1-22-17.7h62.8
	C747.3,212.1,747.5,209.7,747.5,207.7z M684.1,198.5c2-11.6,8.9-19.2,19.5-19.2c10.8,0,17.5,7.7,19,19.2H684.1z"/>
<polygon class="st1" points="182,55.8 182,55.8 29.2,156.6 81.7,155.8 153.2,105.7 167.9,135.7 164.5,154.7 250.5,184.2 
	203.4,168.1 216.4,187.2 139.7,241.7 132.9,232 137.4,193.3 137.5,193.3 143.3,143.2 143.3,143.2 143.3,143.2 94.1,176.7 
	81.7,155.8 29.2,156.6 125.8,293 126.1,290 125.8,294.2 271.5,191.4 271.5,191.4 "/>
<polygon class="st1" points="159.2,198.9 203.4,168.1 164.5,154.7 "/>
</svg>
