<?xml version="1.0" encoding="utf-8"?>
<!-- Generator: Adobe Illustrator 23.0.4, SVG Export Plug-In . SVG Version: 6.00 Build 0)  -->
<svg version="1.1" id="Layer_1" xmlns="http://www.w3.org/2000/svg" xmlns:xlink="http://www.w3.org/1999/xlink" x="0px" y="0px"
	 viewBox="0 0 370.6 319.7" style="enable-background:new 0 0 370.6 319.7;" xml:space="preserve">
<style type="text/css">
	.st0{fill:#001140;fill-opacity:0;}
	.st1{fill:#A6C7FF;}
	.st2{enable-background:new    ;}
	.st3{fill:#C9DEFE;}
</style>
<title>Asset 23</title>
<g>
	<g id="Layer_1-2">
		<rect x="0.2" class="st0" width="370.3" height="319.7"/>
		<polygon class="st1" points="107.5,263.6 135.5,263.6 135.5,271.4 96.7,271.4 96.7,265.2 122.8,228.2 98.1,228.2 98.1,220.4 
			134.1,220.4 134.1,226.2 		"/>
		<path class="st1" d="M179.9,252.3c0,14.1-9.2,20.2-18.7,20.2s-18.7-6.1-18.7-20.2s9.2-20.2,18.7-20.2S179.9,238.2,179.9,252.3
			 M151.1,252.3c0,7.9,3.8,12.5,10,12.5s10.1-4.6,10.1-12.5s-3.8-12.5-10.1-12.5S151.1,244.4,151.1,252.3"/>
		<polygon class="st1" points="223.3,271.4 217.7,271.4 209.2,246 200.2,271.4 194.6,271.4 182.6,233.2 191,233.2 198.2,259.8 
			206.8,233.2 212.3,233.2 220.7,260.1 228.4,233.2 236.6,233.2 		"/>
		<path class="st1" d="M273.9,250.2c0,1.7-0.1,3.5-0.5,5.1H248c1,7.3,5.1,10,10.6,10c3.9,0,7.6-1.4,10.6-3.9l3.5,5.7
			c-3.8,3.3-8.7,5.4-15.4,5.4c-9.7,0-17.9-6.5-17.9-20c0-12.5,7.1-20.4,17.6-20.4C268.4,232.1,273.9,241,273.9,250.2L273.9,250.2z
			 M266.1,249.5c-0.3-6.4-3.6-10.4-8.9-10.4s-8.8,3.3-9.4,10.4H266.1z"/>
		<path class="st1" d="M238.9,155.2l-52.5,37.9c-1.2,0.9-2.8,1-4.1,0.2c-1.3-0.8-2.1-2.2-1.9-3.8l5.9-78.2l-42.9,31l35.1,51.7
			c1.2,1.8,0.8,4.3-0.9,5.6c-1.7,1.2-4.1,0.8-5.3-0.9c0,0-0.1-0.1-0.1-0.1l-37.3-54.9c-1.2-1.8-0.8-4.3,1-5.6l52.8-38.1
			c1.2-0.9,2.8-1,4.1-0.2c1.3,0.8,2.1,2.2,1.9,3.8l-5.9,78.2l42.9-31l-35-51.4c-1.2-1.8-0.8-4.2,0.9-5.6c1.7-1.2,4.1-0.8,5.3,0.9
			c0,0,0.1,0.1,0.1,0.1l37,54.4c0.6,0.9,0.9,2.1,0.6,3.2C240.4,153.6,239.9,154.6,238.9,155.2"/>
		<g class="st2">
			<path class="st3" d="M98,65V45.5h9.2c0.9,0,1.7,0.2,2.5,0.5s1.3,0.7,1.9,1.3c0.5,0.5,0.9,1.2,1.2,2c0.3,0.8,0.4,1.6,0.4,2.5
				c0,0.9-0.1,1.8-0.4,2.5c-0.3,0.8-0.7,1.4-1.2,2c-0.5,0.5-1.1,1-1.9,1.3c-0.7,0.3-1.5,0.5-2.5,0.5h-5V65H98z M102.3,54.3h4.5
				c0.6,0,1.1-0.2,1.5-0.5c0.4-0.3,0.5-0.8,0.5-1.4v-1.2c0-0.6-0.2-1.1-0.5-1.4c-0.4-0.3-0.9-0.5-1.5-0.5h-4.5V54.3z"/>
		</g>
		<g class="st2">
			<path class="st3" d="M124.2,65.4c-1.3,0-2.5-0.2-3.5-0.6c-1.1-0.4-2-1.1-2.7-1.9s-1.3-1.9-1.7-3.2c-0.4-1.3-0.6-2.7-0.6-4.4
				c0-1.7,0.2-3.1,0.6-4.4c0.4-1.3,1-2.3,1.7-3.2c0.7-0.8,1.7-1.5,2.7-1.9c1.1-0.4,2.2-0.6,3.5-0.6s2.5,0.2,3.5,0.6
				c1.1,0.4,2,1.1,2.7,1.9c0.7,0.8,1.3,1.9,1.7,3.2c0.4,1.3,0.6,2.7,0.6,4.4c0,1.7-0.2,3.1-0.6,4.4c-0.4,1.3-1,2.3-1.7,3.2
				c-0.7,0.8-1.7,1.5-2.7,1.9C126.6,65.2,125.5,65.4,124.2,65.4z M124.2,61.6c1.3,0,2.3-0.4,3-1.3s1.1-2,1.1-3.6v-2.9
				c0-1.6-0.4-2.8-1.1-3.6s-1.7-1.3-3-1.3s-2.3,0.4-3,1.3s-1.1,2-1.1,3.6v2.9c0,1.6,0.4,2.8,1.1,3.6S122.9,61.6,124.2,61.6z"/>
		</g>
		<g class="st2">
			<path class="st3" d="M138.7,65l-4.4-19.5h4.2l1.8,9.4l1,5.4h0.1l1.2-5.4l2.2-9.4h4.6l2.2,9.4l1.2,5.4h0.1l1-5.4l1.9-9.4h4
				L155.3,65h-4.8L148,54.5l-1-4.3H147l-1,4.3L143.5,65H138.7z"/>
			<path class="st3" d="M162.8,65V45.5h13.3v3.8h-9v4h7.8V57h-7.8v4.2h9V65H162.8z"/>
			<path class="st3" d="M184.1,65h-4.3V45.5h9.3c0.9,0,1.7,0.1,2.4,0.4c0.7,0.3,1.3,0.7,1.9,1.3c0.5,0.6,0.9,1.2,1.2,2
				s0.4,1.6,0.4,2.5c0,1.3-0.3,2.5-0.9,3.5c-0.6,1-1.5,1.7-2.7,2.2l3.8,7.7h-4.7l-3.4-7.2h-3.1V65z M188.6,54.3
				c0.6,0,1.1-0.2,1.5-0.5c0.4-0.3,0.5-0.8,0.5-1.4v-1.2c0-0.6-0.2-1.1-0.5-1.4c-0.4-0.3-0.9-0.5-1.5-0.5h-4.5v5.1H188.6z"/>
			<path class="st3" d="M198.7,65V45.5H212v3.8h-9v4h7.8V57H203v4.2h9V65H198.7z"/>
			<path class="st3" d="M215.7,45.5h7.4c1.3,0,2.5,0.2,3.5,0.6c1.1,0.4,2,1,2.7,1.8c0.7,0.8,1.3,1.8,1.7,3.1
				c0.4,1.2,0.6,2.6,0.6,4.3s-0.2,3-0.6,4.3c-0.4,1.2-1,2.2-1.7,3.1c-0.7,0.8-1.7,1.4-2.7,1.8c-1.1,0.4-2.2,0.6-3.5,0.6h-7.4V45.5z
				 M223.1,61.3c1.3,0,2.3-0.4,3-1.1c0.7-0.7,1.1-1.8,1.1-3.4v-3c0-1.6-0.4-2.7-1.1-3.4c-0.7-0.7-1.7-1.1-3-1.1H220v12H223.1z"/>
		</g>
		<g class="st2">
			<path class="st3" d="M241.3,45.5h9.5c1.6,0,2.9,0.5,3.8,1.4c0.9,0.9,1.4,2.1,1.4,3.6c0,0.7-0.1,1.4-0.3,1.9s-0.5,1-0.8,1.3
				c-0.3,0.3-0.7,0.6-1.1,0.7c-0.4,0.2-0.9,0.2-1.4,0.3v0.2c0.5,0,1,0.1,1.5,0.3c0.5,0.2,1,0.4,1.4,0.8c0.4,0.4,0.8,0.8,1.1,1.4
				c0.3,0.6,0.4,1.3,0.4,2.1c0,0.8-0.1,1.5-0.4,2.2c-0.3,0.7-0.6,1.3-1,1.8s-1,0.9-1.6,1.2c-0.6,0.3-1.3,0.4-2,0.4h-10.4V45.5z
				 M245.6,53.5h4.2c0.6,0,1-0.2,1.3-0.5c0.3-0.3,0.5-0.8,0.5-1.3v-0.8c0-0.6-0.2-1-0.5-1.3c-0.3-0.3-0.8-0.5-1.3-0.5h-4.2V53.5z
				 M245.6,61.5h4.9c0.6,0,1-0.2,1.3-0.5s0.5-0.7,0.5-1.3v-1c0-0.6-0.2-1-0.5-1.3c-0.3-0.3-0.8-0.5-1.3-0.5h-4.9V61.5z"/>
		</g>
		<g class="st2">
			<path class="st3" d="M263.5,65v-7.6l-6.7-11.9h4.8l4.2,7.8h0.1l4-7.8h4.6l-6.7,11.9V65H263.5z"/>
		</g>
	</g>
</g>
</svg>
