<svg id="Layer_1" data-name="Layer 1" xmlns="http://www.w3.org/2000/svg" viewBox="0 0 218.216 140.695"><defs><style>.cls-1{fill:#fff;}</style></defs><title>ZOpenEditor_CBL_PL1</title><polygon class="cls-1" points="22.698 94.005 15.698 94.005 15.698 108.505 1.198 108.505 1.198 115.505 15.698 115.505 15.698 130.005 22.698 130.005 22.698 115.505 37.198 115.505 37.198 108.505 22.698 108.505 22.698 94.005"/><path class="cls-1" d="M157.17,151.166q-2.773-.744-11.9-.744H129.214v49.555H139.22V181.284h6.524a57.12,57.12,0,0,0,10.377-.71,14.517,14.517,0,0,0,5.19-2.349,13.592,13.592,0,0,0,4.208-4.885,16.17,16.17,0,0,0,1.656-7.673,15.389,15.389,0,0,0-2.873-9.651A13,13,0,0,0,157.17,151.166Zm-1.437,18.489a6.556,6.556,0,0,1-3.127,2.434q-1.995.779-7.91.778H139.22V158.805h4.834a48.155,48.155,0,0,1,7.2.338,6.925,6.925,0,0,1,4.023,2.2,6.4,6.4,0,0,1,1.588,4.462A6.662,6.662,0,0,1,155.733,169.655Z" transform="translate(-61.158 -60.862)"/><polygon class="cls-1" points="125.728 88.931 114.663 88.931 114.663 139.743 145.092 139.743 145.092 129.915 125.728 129.915 125.728 88.931"/><polygon class="cls-1" points="158.068 139.743 169.071 139.743 184.839 88.751 173.77 88.751 158.068 139.743"/><rect class="cls-1" x="198.548" y="89.107" width="10.416" height="51.588"/><path class="cls-1" d="M83.1,102.539c-6.318,0-10.508-4.261-10.508-12.07V82.517c0-7.81,4.19-12.07,10.508-12.07,5.325,0,7.952,2.769,9.231,6.887l9.3-4.828C98.006,64.554,92.184,60.862,83.1,60.862c-13.347,0-21.938,9.23-21.938,25.986s8.591,25.275,21.938,25.275c9.088,0,14.982-4.33,18.673-11.856l-8.8-5.113C91.474,99.2,88.421,102.539,83.1,102.539Z" transform="translate(-61.158 -60.862)"/><path class="cls-1" d="M149.7,86.493c0-16.827-8.662-25.631-21.8-25.631s-21.8,8.8-21.8,25.631,8.662,25.63,21.8,25.63S149.7,103.319,149.7,86.493Zm-11.431,3.692c0,7.88-3.905,12.354-10.366,12.354s-10.366-4.474-10.366-12.354V82.8c0-7.881,3.905-12.354,10.366-12.354S138.264,74.92,138.264,82.8Z" transform="translate(-61.158 -60.862)"/><path class="cls-1" d="M194.406,97.143c0-8.52-6.461-11.644-11.148-11.644v-.426c5.041-.214,9.231-3.053,9.231-10.65,0-7.668-4.9-12.709-13.064-12.709H155.356v49.558h26.27C188.939,111.272,194.406,104.952,194.406,97.143ZM166.148,70.8h10.721a4.18,4.18,0,0,1,4.544,4.544v2.13a4.181,4.181,0,0,1-4.544,4.544H166.148Zm0,31.382V90.824h12.425c2.84,0,4.615,1.633,4.615,4.473v2.414c0,2.84-1.775,4.473-4.615,4.473Z" transform="translate(-61.158 -60.862)"/><path class="cls-1" d="M220.237,112.123c13.135,0,21.8-8.8,21.8-25.63s-8.662-25.631-21.8-25.631-21.8,8.8-21.8,25.631S207.1,112.123,220.237,112.123ZM209.871,82.8c0-7.881,3.905-12.354,10.366-12.354S230.6,74.92,230.6,82.8v7.384c0,7.88-3.905,12.354-10.366,12.354s-10.366-4.474-10.366-12.354Z" transform="translate(-61.158 -60.862)"/><polygon class="cls-1" points="199.33 40.824 199.33 0.852 188.538 0.852 188.538 50.409 218.216 50.409 218.216 40.824 199.33 40.824"/></svg>