<svg xmlns="http://www.w3.org/2000/svg" xmlns:xlink="http://www.w3.org/1999/xlink" width="80" height="80" version="1.1" viewBox="0 0 80 80"><title>github-logo (1)</title><desc>Created with Sketch.</desc><g id="Page-1" fill="none" fill-rule="evenodd" stroke="none" stroke-width="1"><g id="github-footer-icon" fill="#FFF" fill-rule="nonzero" transform="translate(-40.000000, -39.000000)"><g id="github-logo-(1)" transform="translate(40.000000, 39.000000)"><path id="Shape" d="M74.6342687,20.421371 C71.0573577,14.1390805 66.2055064,9.16538238 60.0774377,5.49915463 C53.9484569,1.83273988 47.2574371,0 39.9996352,0 C32.7427453,0 26.0495364,1.83330087 19.9218326,5.49915463 C13.7932167,9.16519539 8.94154775,14.1390805 5.36463678,20.421371 C1.78827307,26.7034745 0,33.5635802 0,41.001501 C0,49.9361313 2.54294874,57.9703797 7.63012318,65.1063033 C12.7167504,72.2427878 19.2879196,77.1809569 27.3430837,79.9213714 C28.2807277,80.0997648 28.9748396,79.9742911 29.4261491,79.548129 C29.8776411,79.121406 30.1031135,78.5869737 30.1031135,77.9470762 C30.1031135,77.8403019 30.0941748,76.8797076 30.0768448,75.0641713 C30.0589676,73.248635 30.0505762,71.6647857 30.0505762,70.3133714 L28.8526175,70.525798 C28.0888208,70.6692233 27.1252731,70.7299967 25.9619743,70.7127931 C24.7992229,70.6961506 23.5921431,70.5712378 22.3423769,70.3389898 C21.0920633,70.1087987 19.9291294,69.5749274 18.8526631,68.7384979 C17.7767441,67.9020684 17.0129473,66.8072116 16.5614554,65.4556103 L16.0406434,64.2270519 C15.6934962,63.4091349 15.1469629,62.5005253 14.4003138,61.5045889 C13.6536646,60.5077175 12.8986241,59.8319169 12.1348274,59.476065 L11.7701678,59.2084749 C11.527183,59.0306425 11.3017107,58.816159 11.0932034,58.5672684 C10.8848787,58.3183778 10.7289087,58.0693002 10.6247463,57.8198486 C10.5204015,57.57021 10.6068691,57.3654503 10.8850611,57.2048214 C11.1632531,57.0441925 11.6660054,56.9662155 12.395507,56.9662155 L13.436766,57.1257224 C14.1312428,57.2683998 14.9902633,57.6945618 16.014922,58.4068265 C17.0390335,59.1185302 17.8809064,60.0437824 18.5407232,61.1822092 C19.3397272,62.6418936 20.3023628,63.754141 21.4313664,64.5195124 C22.5594578,65.2848837 23.6968528,65.6669149 24.8424567,65.6669149 C25.9880605,65.6669149 26.9775121,65.5779052 27.811176,65.4008207 C28.6439279,65.2228013 29.425237,64.9552112 30.1547386,64.5995463 C30.4672258,62.2138616 31.3180373,60.3811218 32.7064436,59.1000177 C30.7275406,58.8868432 28.9483885,58.5657724 27.3680754,58.1388624 C25.7886744,57.7113914 24.1565537,57.0176392 22.4728079,56.0557359 C20.7881499,55.0951416 19.3906226,53.9022993 18.2798612,52.4792659 C17.1689173,51.0554845 16.2571771,49.1862805 15.5459176,46.873337 C14.8342933,44.5594585 14.47839,41.8902891 14.47839,38.8650809 C14.47839,34.5576466 15.8501959,30.8921668 18.5932605,27.8665846 C17.3082869,24.6282019 17.4295969,20.9978772 18.9575552,16.9759846 C19.9645191,16.6552878 21.4578174,16.8959506 23.4367204,17.6964771 C25.4159883,18.4973775 26.8651407,19.1834628 27.7856371,19.7523022 C28.7061335,20.3209546 29.4436616,20.8028412 29.9993159,21.1936612 C33.2290797,20.2685959 36.5620938,19.8059698 39.9992703,19.8059698 C43.4364468,19.8059698 46.7701906,20.2685959 50.0001368,21.1936612 L51.9792222,19.9129311 C53.3326036,19.0583631 54.930794,18.2752272 56.7699626,17.5633365 C58.6102256,16.8518198 60.0174212,16.6558488 60.99009,16.9765456 C62.5519786,20.9986252 62.6911658,24.6287629 61.4058274,27.8671456 C64.1487096,30.8927278 65.5210628,34.5591426 65.5210628,38.8656419 C65.5210628,41.8908501 65.1638825,44.5684343 64.4533527,46.9000773 C63.7419108,49.2320944 62.8223265,51.0994284 61.694235,52.5060062 C60.5648666,53.912397 59.1584007,55.0958896 57.4746549,56.0562969 C55.7905442,57.0174522 54.1578763,57.7112044 52.5784752,58.1386754 C50.9983445,58.5661464 49.2191925,58.8874041 47.2402895,59.1009527 C49.0451629,60.7020055 49.947782,63.2292455 49.947782,66.6815508 L49.947782,77.9455802 C49.947782,78.5854778 50.164863,79.119723 50.5993898,79.5466331 C51.0333694,79.9727951 51.7187251,80.0982689 52.656369,79.9196885 C60.7126276,77.1796479 67.2837969,72.2412919 72.3702417,65.1048073 C77.4561392,57.9688838 80,49.9346353 80,41.000005 C79.9981758,33.5630192 78.2089906,26.7034745 74.6342687,20.421371 Z"/></g></g></g></svg>