<svg xmlns="http://www.w3.org/2000/svg" xmlns:xlink="http://www.w3.org/1999/xlink" viewBox="0 0 32 32"><defs><style>.cls-1{fill:#f4f4f4;}.cls-2{fill:url(#linear-gradient);}.cls-3{fill:url(#linear-gradient-2);}.cls-4{fill:url(#linear-gradient-3);}</style><linearGradient id="linear-gradient" x1="14.24" y1="15.29" x2="24.94" y2="4.58" gradientUnits="userSpaceOnUse"><stop offset="0.1" stop-color="#808bfd"/><stop offset="0.9" stop-color="#508afc"/></linearGradient><linearGradient id="linear-gradient-2" x1="5" y1="14.05" x2="11" y2="8.05" gradientUnits="userSpaceOnUse"><stop offset="0.1" stop-color="#928bfd"/><stop offset="0.9" stop-color="#758bfc"/></linearGradient><linearGradient id="linear-gradient-3" x1="18.93" y1="24.99" x2="0.08" y2="14.11" gradientUnits="userSpaceOnUse"><stop offset="0.02" stop-color="#ae8bfd" stop-opacity="0"/><stop offset="0.07" stop-color="#ad8bfd" stop-opacity="0.14"/><stop offset="0.2" stop-color="#aa8bfd" stop-opacity="0.48"/><stop offset="0.37" stop-color="#a58bfd"/><stop offset="0.66" stop-color="#9e8bfd"/><stop offset="0.9" stop-color="#888bfc"/></linearGradient></defs><title>Wazi Development Client_</title><g id="Modifier"><path class="cls-1" d="M25.52,21h-.38a4.42,4.42,0,0,0-1.87.56,8.46,8.46,0,0,0-1.22.88A2.49,2.49,0,1,1,23,20.5s0,.07,0,.11A5.33,5.33,0,0,1,25,20a4.49,4.49,0,1,0-4.45,5h.11L21,25a5.48,5.48,0,0,0,1.93-.63A7.41,7.41,0,0,0,24,23.49v0a1.64,1.64,0,0,1,.26-.2A2.4,2.4,0,0,1,25.5,23,2.5,2.5,0,1,1,23,25.5v0a4.78,4.78,0,0,1-1.95.51,4.49,4.49,0,1,0,4.47-5Z"/></g><g id="_15_grid" data-name="15° grid"><path class="cls-2" d="M29,15.05H27V9.62L16,3.21,13,5v7.07H11V4.41a1,1,0,0,1,.49-.87l4-2.35a1,1,0,0,1,1,0l12,7a1,1,0,0,1,.5.86Z"/><rect class="cls-3" x="7" y="6.05" width="2" height="10"/><path class="cls-4" d="M15.5,30.92l-12-7a1,1,0,0,1-.5-.87v-14H5V22.48l11.5,6.71Z"/></g></svg>