<?xml version="1.0" encoding="utf-8"?>
<!-- Generator: Adobe Illustrator 23.0.4, SVG Export Plug-In . SVG Version: 6.00 Build 0)  -->
<svg version="1.1" id="Layer_1" xmlns="http://www.w3.org/2000/svg" xmlns:xlink="http://www.w3.org/1999/xlink" x="0px" y="0px"
	 viewBox="0 0 407 319.7" style="enable-background:new 0 0 407 319.7;" xml:space="preserve">
<style type="text/css">
	.st0{opacity:0;}
	.st1{fill:#012D9C;}
	.st2{fill:#001140;}
	.st3{enable-background:new    ;}
	.st4{fill:#C9DEFE;}
	.st5{fill:#448AFE;}
	.st6{fill:#A6C7FF;}
	.st7{fill:#76B4FF;}
	.st8{fill:none;stroke:#A6C7FF;stroke-width:6;stroke-miterlimit:10;}
	.st9{clip-path:url(#SVGID_2_);}
	.st10{fill:#0042CE;}
	.st11{clip-path:url(#SVGID_4_);}
	.st12{clip-path:url(#SVGID_6_);}
	.st13{clip-path:url(#SVGID_8_);}
	.st14{clip-path:url(#SVGID_10_);}
	.st15{clip-path:url(#SVGID_12_);}
	.st16{clip-path:url(#SVGID_14_);}
	.st17{clip-path:url(#SVGID_16_);}
	.st18{clip-path:url(#SVGID_18_);}
</style>
<title>Asset 27</title>
<g>
	<g>
		<g id="Layer_1-2">
			<g class="st0">
				<rect x="5" y="5" class="st1" width="397" height="309.7"/>
				<path class="st2" d="M397,10v299.7H10V10H397 M407,0H0v319.7h407V0z"/>
			</g>
			<g class="st3">
				<path class="st4" d="M92.7,281h-3.5v-16.4h7.6c0.7,0,1.4,0.1,2,0.4c0.6,0.3,1.1,0.6,1.5,1.1c0.4,0.5,0.8,1,1,1.7
					s0.3,1.4,0.3,2.1c0,1.1-0.2,2.1-0.7,2.9s-1.2,1.4-2.2,1.8l3.2,6.5H98l-2.8-6h-2.5V281z M96.4,272c0.5,0,0.9-0.1,1.2-0.4
					c0.3-0.3,0.5-0.7,0.5-1.2v-1c0-0.5-0.1-0.9-0.5-1.2c-0.3-0.3-0.7-0.4-1.2-0.4h-3.7v4.3H96.4z"/>
				<path class="st4" d="M105,281v-16.4h11v3.2h-7.5v3.3h6.4v3.2h-6.4v3.6h7.5v3.2H105z"/>
				<path class="st4" d="M131.3,270.2L131.3,270.2l-1.2,2.4l-3.1,5.8l-3.1-5.8l-1.2-2.6h-0.1v11h-3.3v-16.4h3.7l3.9,7.7h0l3.9-7.7
					h3.7V281h-3.3V270.2z"/>
			</g>
			<g class="st3">
				<path class="st4" d="M145.1,281.3c-1.1,0-2-0.2-2.9-0.5c-0.9-0.4-1.6-0.9-2.2-1.6s-1.1-1.6-1.4-2.7c-0.3-1.1-0.5-2.3-0.5-3.7
					c0-1.4,0.2-2.6,0.5-3.7c0.3-1.1,0.8-1.9,1.4-2.7s1.4-1.3,2.2-1.6s1.8-0.5,2.9-0.5s2,0.2,2.9,0.5s1.6,0.9,2.2,1.6
					c0.6,0.7,1.1,1.6,1.4,2.7c0.3,1.1,0.5,2.3,0.5,3.7c0,1.4-0.2,2.6-0.5,3.7c-0.3,1.1-0.8,1.9-1.4,2.7c-0.6,0.7-1.4,1.3-2.2,1.6
					C147.1,281.1,146.1,281.3,145.1,281.3z M145.1,278.1c1.1,0,1.9-0.4,2.5-1.1c0.6-0.7,0.9-1.7,0.9-3v-2.4c0-1.3-0.3-2.3-0.9-3
					c-0.6-0.7-1.4-1.1-2.5-1.1s-1.9,0.4-2.5,1.1c-0.6,0.7-0.9,1.7-0.9,3v2.4c0,1.3,0.3,2.3,0.9,3C143.2,277.8,144,278.1,145.1,278.1
					z"/>
			</g>
			<g class="st3">
				<path class="st4" d="M161.6,267.7V281h-3.5v-13.3h-4.4v-3.2h12.2v3.2H161.6z"/>
				<path class="st4" d="M168.6,281v-16.4h11v3.2h-7.5v3.3h6.4v3.2h-6.4v3.6h7.5v3.2H168.6z"/>
				<path class="st4" d="M188.5,281v-16.4h11v3.2H192v3.3h6.4v3.2H192v3.6h7.5v3.2H188.5z"/>
				<path class="st4" d="M216.1,281h-4.1l-3.5-6.1h-0.1l-3.4,6.1h-3.8l5.2-8.5l-4.9-7.9h4.1l3.1,5.6h0.1l3.2-5.6h3.8l-5,8L216.1,281
					z"/>
				<path class="st4" d="M218.5,281v-16.4h7.6c0.8,0,1.4,0.1,2,0.4c0.6,0.3,1.1,0.6,1.5,1.1c0.4,0.5,0.8,1,1,1.7s0.3,1.4,0.3,2.1
					c0,0.8-0.1,1.5-0.3,2.1s-0.6,1.2-1,1.6c-0.4,0.5-0.9,0.8-1.5,1.1c-0.6,0.3-1.3,0.4-2,0.4H222v5.9H218.5z M222,272h3.7
					c0.5,0,0.9-0.1,1.2-0.4c0.3-0.3,0.5-0.7,0.5-1.2v-1c0-0.5-0.2-0.9-0.5-1.2c-0.3-0.3-0.7-0.4-1.2-0.4H222V272z"/>
			</g>
			<g class="st3">
				<path class="st4" d="M234.4,281v-16.4h3.5v13.3h6.1v3.2H234.4z"/>
			</g>
			<g class="st3">
				<path class="st4" d="M252.5,281.3c-1.1,0-2-0.2-2.9-0.5c-0.9-0.4-1.6-0.9-2.2-1.6s-1.1-1.6-1.4-2.7c-0.3-1.1-0.5-2.3-0.5-3.7
					c0-1.4,0.2-2.6,0.5-3.7c0.3-1.1,0.8-1.9,1.4-2.7s1.4-1.3,2.2-1.6c0.9-0.4,1.8-0.5,2.9-0.5c1.1,0,2,0.2,2.9,0.5
					c0.9,0.4,1.6,0.9,2.2,1.6s1.1,1.6,1.4,2.7c0.3,1.1,0.5,2.3,0.5,3.7c0,1.4-0.2,2.6-0.5,3.7c-0.3,1.1-0.8,1.9-1.4,2.7
					s-1.4,1.3-2.2,1.6C254.6,281.1,253.6,281.3,252.5,281.3z M252.5,278.1c1.1,0,1.9-0.4,2.5-1.1c0.6-0.7,0.9-1.7,0.9-3v-2.4
					c0-1.3-0.3-2.3-0.9-3s-1.4-1.1-2.5-1.1c-1.1,0-1.9,0.4-2.5,1.1c-0.6,0.7-0.9,1.7-0.9,3v2.4c0,1.3,0.3,2.3,0.9,3
					C250.6,277.8,251.5,278.1,252.5,278.1z"/>
				<path class="st4" d="M266.3,281h-3.5v-16.4h7.6c0.7,0,1.4,0.1,2,0.4c0.6,0.3,1.1,0.6,1.5,1.1c0.4,0.5,0.8,1,1,1.7
					c0.2,0.6,0.3,1.4,0.3,2.1c0,1.1-0.2,2.1-0.7,2.9s-1.2,1.4-2.2,1.8l3.2,6.5h-3.9l-2.8-6h-2.5V281z M270,272
					c0.5,0,0.9-0.1,1.2-0.4c0.3-0.3,0.5-0.7,0.5-1.2v-1c0-0.5-0.1-0.9-0.5-1.2c-0.3-0.3-0.7-0.4-1.2-0.4h-3.7v4.3H270z"/>
				<path class="st4" d="M278.6,281v-16.4h11v3.2h-7.5v3.3h6.4v3.2h-6.4v3.6h7.5v3.2H278.6z"/>
				<path class="st4" d="M296.3,281h-3.5v-16.4h7.6c0.7,0,1.4,0.1,2,0.4c0.6,0.3,1.1,0.6,1.5,1.1c0.4,0.5,0.8,1,1,1.7
					s0.3,1.4,0.3,2.1c0,1.1-0.2,2.1-0.7,2.9c-0.5,0.8-1.2,1.4-2.2,1.8l3.2,6.5h-3.9l-2.8-6h-2.5V281z M300,272
					c0.5,0,0.9-0.1,1.2-0.4c0.3-0.3,0.4-0.7,0.4-1.2v-1c0-0.5-0.1-0.9-0.4-1.2c-0.3-0.3-0.7-0.4-1.2-0.4h-3.7v4.3H300z"/>
				<path class="st4" d="M313.8,281.3c-1.4,0-2.6-0.2-3.6-0.7c-1-0.5-1.8-1.1-2.5-1.9l2.3-2.4c1.1,1.2,2.4,1.9,4,1.9
					c0.9,0,1.5-0.2,1.9-0.5c0.4-0.4,0.6-0.8,0.6-1.4c0-0.5-0.1-0.8-0.4-1.1s-0.7-0.5-1.5-0.6l-1.6-0.2c-1.7-0.2-3-0.7-3.8-1.6
					c-0.8-0.8-1.2-1.9-1.2-3.3c0-0.7,0.1-1.4,0.4-2c0.3-0.6,0.7-1.1,1.2-1.6c0.5-0.4,1.1-0.8,1.9-1c0.7-0.2,1.6-0.4,2.6-0.4
					c1.2,0,2.3,0.2,3.2,0.6c0.9,0.4,1.7,1,2.4,1.7l-2.3,2.4c-0.4-0.5-0.9-0.8-1.4-1.1c-0.5-0.3-1.2-0.4-2.1-0.4
					c-0.8,0-1.4,0.1-1.8,0.4c-0.4,0.3-0.6,0.7-0.6,1.2c0,0.6,0.2,1,0.4,1.2c0.3,0.2,0.8,0.4,1.5,0.5l1.6,0.3
					c1.7,0.3,2.9,0.8,3.7,1.6c0.8,0.8,1.2,1.9,1.2,3.3c0,0.8-0.1,1.5-0.4,2.2c-0.3,0.7-0.7,1.2-1.2,1.7c-0.5,0.5-1.2,0.8-2,1.1
					C315.7,281.2,314.8,281.3,313.8,281.3z"/>
			</g>
			<g class="st3">
				<path class="st4" d="M109.6,48.7L109.6,48.7l-1.6,3.1l-4.1,7.6l-4-7.6l-1.6-3.4h-0.1v14.3h-4.3V41.4h4.8l5.1,10h0.1l5.1-10h4.9
					v21.4h-4.3V48.7z"/>
			</g>
			<g class="st3">
				<path class="st4" d="M123.2,62.8l-6.8-21.4h4.6l3.1,10.3l1.7,6.7h0.1l1.6-6.7l3.1-10.3h4.5l-6.8,21.4H123.2z"/>
			</g>
			<g class="st3">
				<path class="st4" d="M143.7,63.2c-1.8,0-3.4-0.3-4.7-1c-1.3-0.6-2.4-1.5-3.3-2.5l3-3.1c1.4,1.6,3.2,2.4,5.3,2.4
					c1.1,0,2-0.2,2.5-0.7s0.8-1.1,0.8-1.9c0-0.6-0.2-1.1-0.5-1.5s-1-0.7-2-0.8l-2.1-0.3c-2.2-0.3-3.9-1-4.9-2.1
					c-1-1.1-1.6-2.5-1.6-4.3c0-1,0.2-1.8,0.5-2.6c0.4-0.8,0.9-1.5,1.6-2.1s1.5-1,2.5-1.3c1-0.3,2.1-0.5,3.3-0.5c1.6,0,3,0.3,4.2,0.8
					c1.2,0.5,2.2,1.3,3.1,2.2l-3,3.1c-0.5-0.6-1.1-1.1-1.8-1.4c-0.7-0.4-1.6-0.6-2.7-0.6c-1,0-1.8,0.2-2.3,0.5
					c-0.5,0.4-0.8,0.9-0.8,1.5c0,0.7,0.2,1.3,0.6,1.6c0.4,0.3,1,0.6,1.9,0.7l2.1,0.3c2.2,0.3,3.8,1,4.8,2c1,1,1.6,2.5,1.6,4.3
					c0,1-0.2,2-0.5,2.8s-0.9,1.6-1.6,2.2c-0.7,0.6-1.6,1.1-2.6,1.4S145,63.2,143.7,63.2z"/>
			</g>
			<g class="st3">
				<path class="st5" d="M164.2,67V39.4h3.8V67H164.2z"/>
			</g>
			<g class="st3">
				<path class="st4" d="M185.4,41.4v13.2c0,1.5,0.3,2.6,0.9,3.4c0.6,0.7,1.6,1.1,2.9,1.1c1.4,0,2.3-0.4,2.9-1.1
					c0.6-0.7,0.9-1.9,0.9-3.4V41.4h4.5V54c0,1.6-0.1,2.9-0.4,4.1c-0.3,1.2-0.8,2.1-1.4,2.9c-0.7,0.7-1.5,1.3-2.6,1.7
					c-1,0.4-2.3,0.5-3.8,0.5s-2.8-0.2-3.8-0.5c-1-0.4-1.9-0.9-2.6-1.7c-0.7-0.7-1.1-1.7-1.4-2.9c-0.3-1.2-0.4-2.5-0.4-4.1V41.4
					H185.4z"/>
			</g>
			<g class="st3">
				<path class="st4" d="M208.8,63.2c-1.8,0-3.4-0.3-4.7-1c-1.3-0.6-2.4-1.5-3.3-2.5l3-3.1c1.4,1.6,3.2,2.4,5.3,2.4
					c1.1,0,2-0.2,2.5-0.7s0.8-1.1,0.8-1.9c0-0.6-0.2-1.1-0.5-1.5s-1-0.7-2-0.8l-2.1-0.3c-2.2-0.3-3.9-1-4.9-2.1
					c-1-1.1-1.6-2.5-1.6-4.3c0-1,0.2-1.8,0.5-2.6c0.4-0.8,0.9-1.5,1.6-2.1c0.7-0.6,1.5-1,2.5-1.3c1-0.3,2.1-0.5,3.3-0.5
					c1.6,0,3,0.3,4.2,0.8c1.2,0.5,2.2,1.3,3.1,2.2l-3,3.1c-0.5-0.6-1.1-1.1-1.8-1.4c-0.7-0.4-1.6-0.6-2.7-0.6c-1,0-1.8,0.2-2.3,0.5
					c-0.5,0.4-0.8,0.9-0.8,1.5c0,0.7,0.2,1.3,0.6,1.6c0.4,0.3,1,0.6,1.9,0.7l2.1,0.3c2.2,0.3,3.8,1,4.8,2s1.6,2.5,1.6,4.3
					c0,1-0.2,2-0.5,2.8s-0.9,1.6-1.6,2.2c-0.7,0.6-1.6,1.1-2.6,1.4S210.1,63.2,208.8,63.2z"/>
			</g>
			<g class="st3">
				<path class="st4" d="M226.9,63.2c-1.8,0-3.4-0.3-4.7-1c-1.3-0.6-2.4-1.5-3.3-2.5l3-3.1c1.4,1.6,3.2,2.4,5.3,2.4
					c1.1,0,2-0.2,2.5-0.7s0.8-1.1,0.8-1.9c0-0.6-0.2-1.1-0.5-1.5s-1-0.7-2-0.8l-2.1-0.3c-2.2-0.3-3.9-1-4.9-2.1
					c-1-1.1-1.6-2.5-1.6-4.3c0-1,0.2-1.8,0.5-2.6c0.4-0.8,0.9-1.5,1.6-2.1c0.7-0.6,1.5-1,2.5-1.3c1-0.3,2.1-0.5,3.3-0.5
					c1.6,0,3,0.3,4.2,0.8c1.2,0.5,2.2,1.3,3.1,2.2l-3,3.1c-0.5-0.6-1.1-1.1-1.8-1.4c-0.7-0.4-1.6-0.6-2.7-0.6c-1,0-1.8,0.2-2.3,0.5
					c-0.5,0.4-0.8,0.9-0.8,1.5c0,0.7,0.2,1.3,0.6,1.6s1,0.6,1.9,0.7l2.1,0.3c2.2,0.3,3.8,1,4.8,2c1,1,1.6,2.5,1.6,4.3
					c0,1-0.2,2-0.5,2.8s-0.9,1.6-1.6,2.2c-0.7,0.6-1.6,1.1-2.6,1.4S228.3,63.2,226.9,63.2z"/>
			</g>
			<g class="st3">
				<path class="st5" d="M247.5,67V39.4h3.8V67H247.5z"/>
			</g>
			<g class="st3">
				<path class="st4" d="M276.7,41.4v15.2c0,1-0.2,1.9-0.5,2.7c-0.3,0.8-0.8,1.5-1.4,2.1c-0.6,0.6-1.3,1-2.2,1.3
					c-0.9,0.3-1.8,0.5-2.9,0.5c-1,0-2-0.1-2.8-0.4c-0.8-0.3-1.5-0.7-2-1.2s-1-1.2-1.4-1.9c-0.4-0.7-0.6-1.6-0.8-2.5l4.3-0.9
					c0.3,1.9,1.2,2.8,2.6,2.8c0.7,0,1.2-0.2,1.7-0.6c0.5-0.4,0.7-1.1,0.7-2V45.1h-6.4v-3.7H276.7z"/>
				<path class="st4" d="M280.9,62.8V41.4h14.3v4.1h-9.7v4.4h8.3V54h-8.3v4.6h9.7v4.1H280.9z"/>
				<path class="st4" d="M305.7,63.2c-1.8,0-3.4-0.3-4.7-1c-1.3-0.6-2.4-1.5-3.3-2.5l3-3.1c1.4,1.6,3.2,2.4,5.3,2.4
					c1.1,0,2-0.2,2.5-0.7c0.5-0.5,0.8-1.1,0.8-1.9c0-0.6-0.2-1.1-0.5-1.5c-0.3-0.4-1-0.7-2-0.8l-2.1-0.3c-2.2-0.3-3.9-1-4.9-2.1
					c-1-1.1-1.6-2.5-1.6-4.3c0-1,0.2-1.8,0.5-2.6c0.4-0.8,0.9-1.5,1.6-2.1s1.5-1,2.5-1.3c1-0.3,2.1-0.5,3.3-0.5c1.6,0,3,0.3,4.2,0.8
					c1.2,0.5,2.2,1.3,3.1,2.2l-3,3.1c-0.5-0.6-1.1-1.1-1.8-1.4c-0.7-0.4-1.6-0.6-2.7-0.6c-1,0-1.8,0.2-2.3,0.5
					c-0.5,0.4-0.8,0.9-0.8,1.5c0,0.7,0.2,1.3,0.6,1.6c0.4,0.3,1,0.6,1.9,0.7l2.1,0.3c2.2,0.3,3.8,1,4.8,2s1.6,2.5,1.6,4.3
					c0,1-0.2,2-0.5,2.8s-0.9,1.6-1.6,2.2c-0.7,0.6-1.6,1.1-2.6,1.4C308.2,63,307,63.2,305.7,63.2z"/>
			</g>
			<rect x="327.9" y="103.2" class="st6" width="6.3" height="36.9"/>
			
				<image style="overflow:visible;opacity:0.3;enable-background:new    ;" width="316" height="186" xlink:href="A773C8A74BB7D788.png"  transform="matrix(1 0 0 1 63.45 77.43)">
			</image>
			<rect x="75.7" y="84.7" class="st7" width="264.3" height="20.7"/>
			<rect x="78.2" y="105.3" class="st4" width="261.8" height="135.7"/>
			<rect x="75.7" y="84.7" class="st8" width="264.3" height="158"/>
			<rect x="163.7" y="115.7" class="st1" width="70.3" height="6.7"/>
			<rect x="197.8" y="133.3" class="st1" width="47.4" height="7.3"/>
			<g>
				<defs>
					<rect id="SVGID_1_" x="197.8" y="133.3" width="47.4" height="7.3"/>
				</defs>
				<clipPath id="SVGID_2_">
					<use xlink:href="#SVGID_1_"  style="overflow:visible;"/>
				</clipPath>
				<g class="st9">
					<rect x="164" y="115" class="st1" width="115.1" height="43.9"/>
				</g>
			</g>
			<rect x="252.8" y="133.3" class="st10" width="68.3" height="7.3"/>
			<g>
				<defs>
					<rect id="SVGID_3_" x="252.8" y="133.3" width="68.3" height="7.3"/>
				</defs>
				<clipPath id="SVGID_4_">
					<use xlink:href="#SVGID_3_"  style="overflow:visible;"/>
				</clipPath>
				<g class="st11">
					<rect x="204" y="115" class="st10" width="165.8" height="43.9"/>
				</g>
			</g>
			<rect x="163.7" y="133.3" class="st5" width="27.1" height="7.3"/>
			<g>
				<defs>
					<rect id="SVGID_5_" x="163.7" y="133.3" width="27.1" height="7.3"/>
				</defs>
				<clipPath id="SVGID_6_">
					<use xlink:href="#SVGID_5_"  style="overflow:visible;"/>
				</clipPath>
				<g class="st12">
					<rect x="129.9" y="115" class="st5" width="94.8" height="43.9"/>
				</g>
			</g>
			<rect x="163.7" y="187.1" class="st1" width="115.1" height="7.3"/>
			<g>
				<defs>
					<rect id="SVGID_7_" x="163.7" y="187.1" width="115.1" height="7.3"/>
				</defs>
				<clipPath id="SVGID_8_">
					<use xlink:href="#SVGID_7_"  style="overflow:visible;"/>
				</clipPath>
				<g class="st13">
					<rect x="129.9" y="168.8" class="st1" width="182.7" height="43.9"/>
				</g>
			</g>
			<rect x="146" y="105.3" class="st6" width="4.8" height="139.6"/>
			<rect x="101.2" y="93.1" class="st1" width="44.8" height="6.7"/>
			<rect x="105.7" y="152.5" class="st1" width="28.1" height="6.7"/>
			<rect x="105.7" y="170.6" class="st1" width="28.1" height="6.7"/>
			<rect x="101.2" y="116.9" class="st1" width="32.5" height="6.7"/>
			<rect x="83.9" y="116.9" class="st10" width="10.5" height="6.7"/>
			<rect x="101.2" y="135" class="st1" width="32.5" height="6.7"/>
			<rect x="83.9" y="135" class="st10" width="10.5" height="6.7"/>
			<rect x="163.7" y="151.2" class="st1" width="119.8" height="7.3"/>
			<g>
				<defs>
					<rect id="SVGID_9_" x="163.7" y="151.2" width="119.8" height="7.3"/>
				</defs>
				<clipPath id="SVGID_10_">
					<use xlink:href="#SVGID_9_"  style="overflow:visible;"/>
				</clipPath>
				<g class="st14">
					<rect x="138.8" y="132.9" class="st1" width="169.8" height="43.9"/>
				</g>
			</g>
			<rect x="290.1" y="151.2" class="st1" width="11.9" height="7.3"/>
			<rect x="163.7" y="169.2" class="st5" width="27.1" height="7.3"/>
			<g>
				<defs>
					<rect id="SVGID_11_" x="163.7" y="169.2" width="27.1" height="7.3"/>
				</defs>
				<clipPath id="SVGID_12_">
					<use xlink:href="#SVGID_11_"  style="overflow:visible;"/>
				</clipPath>
				<g class="st15">
					<rect x="129.9" y="150.9" class="st5" width="94.8" height="43.9"/>
				</g>
			</g>
			<rect x="198.4" y="169.2" class="st1" width="11.9" height="7.3"/>
			<rect x="218.7" y="205.1" class="st1" width="74.4" height="7.3"/>
			<g>
				<defs>
					<rect id="SVGID_13_" x="218.7" y="205.1" width="74.4" height="7.3"/>
				</defs>
				<clipPath id="SVGID_14_">
					<use xlink:href="#SVGID_13_"  style="overflow:visible;"/>
				</clipPath>
				<g class="st16">
					<rect x="184.8" y="186.7" class="st1" width="142.1" height="43.9"/>
				</g>
			</g>
			<rect x="163.7" y="205.1" class="st10" width="47.4" height="7.3"/>
			<g>
				<defs>
					<rect id="SVGID_15_" x="163.7" y="205.1" width="47.4" height="7.3"/>
				</defs>
				<clipPath id="SVGID_16_">
					<use xlink:href="#SVGID_15_"  style="overflow:visible;"/>
				</clipPath>
				<g class="st17">
					<rect x="129.9" y="186.7" class="st10" width="115.1" height="43.9"/>
				</g>
			</g>
			<rect x="298.4" y="205" class="st1" width="11.9" height="7.3"/>
			<rect x="163.7" y="223" class="st5" width="47.4" height="7.3"/>
			<g>
				<defs>
					<rect id="SVGID_17_" x="163.7" y="223" width="47.4" height="7.3"/>
				</defs>
				<clipPath id="SVGID_18_">
					<use xlink:href="#SVGID_17_"  style="overflow:visible;"/>
				</clipPath>
				<g class="st18">
					<rect x="129.9" y="204.7" class="st5" width="115.1" height="43.9"/>
				</g>
			</g>
			<rect x="217.7" y="223" class="st1" width="11.9" height="7.3"/>
			<rect x="83.9" y="92.7" class="st1" width="11.3" height="6.7"/>
			<rect x="327.9" y="108.8" class="st6" width="6.3" height="36.9"/>
		</g>
	</g>
</g>
</svg>
