<svg width="80" height="80" viewBox="0 0 80 80" xmlns="http://www.w3.org/2000/svg"><title>github-logo (1)</title><path d="M74.634 20.421C71.057 14.14 66.206 9.165 60.077 5.5 53.948 1.833 47.257 0 40 0c-7.257 0-13.95 1.833-20.078 5.5-6.129 3.665-10.98 8.64-14.557 14.921C1.788 26.703 0 33.564 0 41.001c0 8.935 2.543 16.97 7.63 24.105 5.087 7.137 11.658 12.075 19.713 14.815.938.179 1.632.053 2.083-.373.452-.427.677-.961.677-1.6l-.026-2.884c-.018-1.815-.026-3.4-.026-4.75l-1.198.212c-.764.143-1.728.204-2.891.187a21.503 21.503 0 0 1-3.62-.374c-1.25-.23-2.413-.764-3.49-1.6-1.075-.837-1.84-1.932-2.29-3.283l-.521-1.229c-.348-.818-.894-1.726-1.64-2.722-.747-.997-1.502-1.673-2.266-2.029l-.365-.268a3.861 3.861 0 0 1-.677-.64 2.94 2.94 0 0 1-.468-.748c-.105-.25-.018-.455.26-.615.278-.16.781-.239 1.51-.239l1.042.16c.694.142 1.553.569 2.578 1.28 1.024.713 1.866 1.638 2.526 2.776.799 1.46 1.761 2.572 2.89 3.338 1.128.765 2.266 1.147 3.411 1.147 1.146 0 2.136-.09 2.97-.266a10.184 10.184 0 0 0 2.343-.801c.312-2.386 1.163-4.219 2.551-5.5-1.978-.213-3.758-.534-5.338-.961-1.58-.428-3.211-1.121-4.895-2.083-1.685-.96-3.082-2.154-4.193-3.577-1.111-1.424-2.023-3.293-2.734-5.606-.712-2.314-1.068-4.983-1.068-8.008 0-4.307 1.372-7.973 4.115-10.998-1.285-3.239-1.163-6.87.365-10.891 1.007-.32 2.5-.08 4.479.72 1.979.801 3.428 1.487 4.349 2.056.92.569 1.658 1.05 2.213 1.442a36.136 36.136 0 0 1 10-1.388c3.437 0 6.771.463 10.001 1.388l1.98-1.281c1.353-.855 2.95-1.638 4.79-2.35 1.84-.711 3.247-.907 4.22-.586 1.562 4.022 1.701 7.652.416 10.89 2.743 3.026 4.115 6.692 4.115 10.999 0 3.025-.357 5.702-1.068 8.034-.711 2.332-1.63 4.2-2.759 5.606-1.13 1.406-2.536 2.59-4.22 3.55-1.683.961-3.316 1.655-4.896 2.083-1.58.427-3.359.748-5.338.962 1.805 1.601 2.708 4.128 2.708 7.58v11.265c0 .64.217 1.174.651 1.6.434.427 1.12.552 2.057.374 8.057-2.74 14.628-7.679 19.714-14.815C77.456 57.969 80 49.935 80 41c-.002-7.437-1.791-14.297-5.366-20.579z" fill="#FFF" fill-rule="nonzero"/></svg>