<?xml version="1.0" encoding="utf-8"?>
<!-- Generator: Adobe Illustrator 23.0.4, SVG Export Plug-In . SVG Version: 6.00 Build 0)  -->
<svg version="1.1" id="Layer_1" xmlns="http://www.w3.org/2000/svg" xmlns:xlink="http://www.w3.org/1999/xlink" x="0px" y="0px"
	 viewBox="0 0 390.1 319.7" style="enable-background:new 0 0 390.1 319.7;" xml:space="preserve">
<style type="text/css">
	.st0{opacity:0;}
	.st1{fill:#001C6B;}
	.st2{fill:#001140;}
	.st3{enable-background:new    ;}
	.st4{fill:#C9DEFE;}
	.st5{opacity:0.8;enable-background:new    ;}
	.st6{fill:#A6C7FF;}
	.st7{fill:#448AFE;}
	.st8{fill-rule:evenodd;clip-rule:evenodd;fill:#A6C7FF;}
	.st9{clip-path:url(#SVGID_2_);}
	.st10{clip-path:url(#SVGID_4_);}
	.st11{fill:#A6C7FF;stroke:#A6C7FF;stroke-width:3;stroke-miterlimit:10;}
	.st12{fill:none;stroke:#A6C7FF;stroke-width:3;stroke-miterlimit:10;}
	.st13{fill:#012D9C;}
	.st14{fill:#0063FF;}
	.st15{clip-path:url(#SVGID_6_);}
	.st16{clip-path:url(#SVGID_8_);}
	.st17{clip-path:url(#SVGID_10_);}
	.st18{clip-path:url(#SVGID_12_);}
	.st19{clip-path:url(#SVGID_14_);}
	.st20{clip-path:url(#SVGID_16_);}
	.st21{clip-path:url(#SVGID_18_);}
	.st22{fill:none;stroke:#A6C7FF;stroke-width:6;stroke-miterlimit:10;}
</style>
<title>Asset 31</title>
<g>
	<g>
		<g id="Layer_1-2">
			<g class="st0">
				<rect x="6.2" y="5" class="st1" width="378.9" height="309.7"/>
				<path class="st2" d="M380.1,10v299.7H11.2V10H380.1 M390.1,0H1.2v319.7h388.9V0z"/>
			</g>
			<g class="st3">
				<path class="st4" d="M99.7,281.3c-1.3,0-2.5-0.2-3.5-0.6c-1.1-0.4-2-1.1-2.7-1.9s-1.3-1.9-1.7-3.2c-0.4-1.3-0.6-2.7-0.6-4.4
					c0-1.7,0.2-3.1,0.6-4.4c0.4-1.3,1-2.3,1.7-3.2c0.7-0.8,1.7-1.5,2.7-1.9c1.1-0.4,2.2-0.6,3.5-0.6s2.5,0.2,3.5,0.6
					c1.1,0.4,2,1.1,2.7,1.9c0.7,0.8,1.3,1.9,1.7,3.2c0.4,1.3,0.6,2.7,0.6,4.4c0,1.7-0.2,3.1-0.6,4.4c-0.4,1.3-1,2.3-1.7,3.2
					c-0.7,0.8-1.7,1.5-2.7,1.9C102.1,281.1,100.9,281.3,99.7,281.3z M99.7,277.5c1.3,0,2.3-0.4,3-1.3s1.1-2,1.1-3.6v-2.9
					c0-1.6-0.4-2.8-1.1-3.6s-1.7-1.3-3-1.3s-2.3,0.4-3,1.3s-1.1,2-1.1,3.6v2.9c0,1.6,0.4,2.8,1.1,3.6S98.4,277.5,99.7,277.5z"/>
				<path class="st4" d="M116.1,261.4v12c0,1.4,0.3,2.4,0.8,3.1c0.5,0.7,1.4,1,2.7,1s2.2-0.3,2.7-1c0.5-0.7,0.8-1.7,0.8-3.1v-12h4.1
					v11.5c0,1.4-0.1,2.7-0.4,3.7s-0.7,1.9-1.3,2.6c-0.6,0.7-1.4,1.2-2.4,1.5c-1,0.3-2.2,0.5-3.6,0.5c-1.4,0-2.6-0.2-3.6-0.5
					c-1-0.3-1.8-0.8-2.4-1.5c-0.6-0.7-1.1-1.5-1.3-2.6c-0.3-1.1-0.4-2.3-0.4-3.7v-11.5H116.1z"/>
				<path class="st4" d="M139.9,265.2V281h-4.3v-15.8h-5.3v-3.8h14.8v3.8H139.9z"/>
				<path class="st4" d="M148.4,281v-19.5h4.3v15.8h7.4v3.8H148.4z"/>
				<path class="st4" d="M162.8,281v-3.4h2.5v-12.8h-2.5v-3.4h9.3v3.4h-2.5v12.8h2.5v3.4H162.8z"/>
				<path class="st4" d="M181.9,271.7l-1.9-3.9h-0.1V281h-4v-19.5h4.6l5.3,9.2l1.9,3.9h0.1v-13.2h4V281h-4.6L181.9,271.7z"/>
				<path class="st4" d="M196.5,281v-19.5h13.3v3.8h-9v4h7.8v3.8h-7.8v4.2h9v3.8H196.5z"/>
				<path class="st4" d="M225.2,281l-6.3-19.5h4.3l2.9,9.4l1.5,6.1h0.1l1.5-6.1l2.9-9.4h4.2l-6.4,19.5H225.2z"/>
				<path class="st4" d="M238.4,281v-3.4h2.5v-12.8h-2.5v-3.4h9.3v3.4h-2.5v12.8h2.5v3.4H238.4z"/>
				<path class="st4" d="M251.5,281v-19.5h13.3v3.8h-9v4h7.8v3.8h-7.8v4.2h9v3.8H251.5z"/>
				<path class="st4" d="M271.9,281l-4.4-19.5h4.2l1.8,9.4l1,5.4h0.1l1.2-5.4l2.2-9.4h4.6l2.2,9.4l1.2,5.4h0.1l1-5.4l1.9-9.4h4
					l-4.5,19.5h-4.8l-2.5-10.6l-1-4.3h-0.1l-1,4.3l-2.5,10.6H271.9z"/>
			</g>
			<g class="st5">
				<path class="st4" d="M59.5,246.2c-1.7,0-3.1-0.3-4.3-0.9c-1.2-0.6-2.2-1.4-3-2.4l2.5-2.4c0.7,0.8,1.4,1.4,2.3,1.8
					c0.8,0.4,1.8,0.6,2.8,0.6c1.1,0,2-0.2,2.6-0.7c0.6-0.5,0.9-1.2,0.9-2c0-0.6-0.2-1.2-0.6-1.6c-0.4-0.4-1.1-0.7-2.1-0.9l-1.8-0.3
					c-3.9-0.6-5.9-2.5-5.9-5.7c0-0.9,0.2-1.7,0.5-2.4s0.8-1.3,1.4-1.8s1.4-0.9,2.2-1.2c0.9-0.3,1.9-0.4,3-0.4c1.5,0,2.8,0.2,3.9,0.7
					c1.1,0.5,2,1.2,2.8,2.2l-2.5,2.4c-0.5-0.6-1.1-1.1-1.8-1.4c-0.7-0.4-1.6-0.6-2.6-0.6c-1.1,0-1.9,0.2-2.4,0.6
					c-0.5,0.4-0.8,1-0.8,1.7c0,0.7,0.2,1.3,0.6,1.6c0.4,0.4,1.1,0.6,2.1,0.8l1.8,0.3c2,0.4,3.4,1,4.4,1.9c0.9,0.9,1.4,2.2,1.4,3.8
					c0,0.9-0.2,1.8-0.5,2.5s-0.8,1.4-1.4,2c-0.6,0.6-1.4,1-2.3,1.3C61.7,246.1,60.6,246.2,59.5,246.2z"/>
				<path class="st4" d="M76.1,246.2c-1,0-2-0.2-2.8-0.5c-0.8-0.4-1.5-0.9-2.1-1.5c-0.6-0.7-1-1.5-1.4-2.4c-0.3-0.9-0.5-2-0.5-3.2
					s0.2-2.2,0.5-3.2s0.8-1.7,1.4-2.4c0.6-0.7,1.3-1.2,2.1-1.5c0.8-0.4,1.8-0.5,2.8-0.5c1,0,2,0.2,2.8,0.5c0.8,0.4,1.6,0.9,2.1,1.5
					c0.6,0.7,1,1.5,1.4,2.4s0.5,2,0.5,3.2s-0.2,2.2-0.5,3.2c-0.3,0.9-0.8,1.8-1.4,2.4s-1.3,1.2-2.1,1.5
					C78,246,77.1,246.2,76.1,246.2z M76.1,243.3c1,0,1.7-0.3,2.2-0.9c0.5-0.6,0.8-1.4,0.8-2.5v-2.7c0-1.1-0.3-1.9-0.8-2.5
					c-0.5-0.6-1.3-0.9-2.2-0.9c-0.9,0-1.7,0.3-2.2,0.9c-0.5,0.6-0.8,1.4-0.8,2.5v2.7c0,1.1,0.3,2,0.8,2.5
					C74.4,243.1,75.1,243.3,76.1,243.3z"/>
			</g>
			<g class="st3">
				<path class="st4" d="M86,245.9v-14.6h3.6v3h0.1c0.1-0.4,0.2-0.8,0.4-1.1c0.2-0.4,0.5-0.7,0.8-1c0.3-0.3,0.7-0.5,1.1-0.7
					s0.9-0.3,1.5-0.3h0.8v3.4h-1.1c-1.2,0-2.1,0.2-2.7,0.5c-0.6,0.4-0.9,0.9-0.9,1.7v9H86z"/>
			</g>
			<g class="st3">
				<path class="st4" d="M101.7,245.9c-1.2,0-2.2-0.3-2.8-1c-0.6-0.6-1-1.6-1-2.8v-8h-2.2v-2.9h1.1c0.5,0,0.9-0.1,1.1-0.4
					c0.2-0.3,0.3-0.6,0.3-1.1v-2.5h3.2v4h3v2.9h-3v8.8h2.8v2.9H101.7z"/>
				<path class="st4" d="M118.4,245.9c-0.8,0-1.4-0.2-1.9-0.7c-0.5-0.5-0.7-1.1-0.9-1.8h-0.2c-0.2,1-0.7,1.7-1.5,2.1
					c-0.7,0.5-1.7,0.7-2.8,0.7c-1.5,0-2.6-0.4-3.4-1.2c-0.8-0.8-1.2-1.8-1.2-3.1c0-1.5,0.5-2.6,1.6-3.4c1.1-0.7,2.6-1.1,4.6-1.1h2.5
					v-1.1c0-0.8-0.2-1.5-0.6-1.9c-0.4-0.4-1.1-0.7-2.1-0.7c-0.8,0-1.5,0.2-2,0.5c-0.5,0.4-0.9,0.8-1.3,1.3l-2.1-1.9
					c0.5-0.8,1.3-1.5,2.2-2c0.9-0.5,2.1-0.8,3.6-0.8c2,0,3.5,0.4,4.5,1.3c1,0.9,1.5,2.2,1.5,3.9v6.9h1.5v2.9H118.4z M112.4,243.6
					c0.8,0,1.5-0.2,2-0.5c0.6-0.4,0.8-0.9,0.8-1.6v-1.9H113c-1.9,0-2.8,0.6-2.8,1.8v0.5c0,0.6,0.2,1,0.6,1.3
					C111.2,243.5,111.7,243.6,112.4,243.6z"/>
				<path class="st4" d="M123.3,225.2h3.6v8.5h0.1c0.3-0.8,0.8-1.5,1.5-2c0.7-0.5,1.6-0.7,2.5-0.7c1.9,0,3.3,0.7,4.3,2
					c1,1.3,1.5,3.2,1.5,5.6c0,2.5-0.5,4.4-1.5,5.7c-1,1.3-2.4,2-4.3,2c-1,0-1.8-0.3-2.5-0.8c-0.7-0.5-1.2-1.2-1.5-2h-0.1v2.4h-3.6
					V225.2z M129.8,243.3c0.9,0,1.7-0.3,2.3-0.9c0.6-0.6,0.9-1.4,0.9-2.5v-2.5c0-1-0.3-1.9-0.9-2.5c-0.6-0.6-1.3-0.9-2.3-0.9
					c-0.9,0-1.6,0.2-2.1,0.6c-0.6,0.4-0.9,1-0.9,1.7v4.6c0,0.8,0.3,1.4,0.9,1.8C128.3,243.1,129,243.3,129.8,243.3z"/>
				<path class="st4" d="M143.6,245.9c-1.2,0-2.1-0.3-2.7-0.9s-0.9-1.5-0.9-2.6v-17.2h3.6V243h1.9v2.9H143.6z"/>
				<path class="st4" d="M154.2,246.2c-1.1,0-2-0.2-2.9-0.5c-0.8-0.4-1.6-0.9-2.2-1.5c-0.6-0.7-1-1.5-1.4-2.4
					c-0.3-0.9-0.5-2-0.5-3.2c0-1.2,0.2-2.2,0.5-3.1c0.3-0.9,0.8-1.7,1.3-2.4c0.6-0.7,1.3-1.2,2.1-1.5c0.8-0.4,1.8-0.5,2.9-0.5
					c1.1,0,2.1,0.2,3,0.6c0.8,0.4,1.5,0.9,2.1,1.6c0.5,0.7,0.9,1.5,1.2,2.3c0.3,0.9,0.4,1.8,0.4,2.8v1.2H151v0.4
					c0,1.1,0.3,1.9,0.9,2.5c0.6,0.6,1.5,1,2.7,1c0.9,0,1.6-0.2,2.2-0.6c0.6-0.4,1.1-0.8,1.5-1.4l1.9,2.2c-0.6,0.8-1.4,1.5-2.4,2
					C156.8,246,155.6,246.2,154.2,246.2z M154.1,233.6c-1,0-1.7,0.3-2.3,1c-0.6,0.6-0.8,1.5-0.8,2.5v0.2h6V237c0-1-0.2-1.8-0.7-2.5
					C155.8,233.9,155.1,233.6,154.1,233.6z"/>
				<path class="st4" d="M168.6,250.1l8-24.9h3l-8,24.9H168.6z"/>
				<path class="st4" d="M195.7,246.2c-1.7,0-3.1-0.3-4.3-0.9c-1.2-0.6-2.2-1.4-3-2.4l2.5-2.4c0.7,0.8,1.4,1.4,2.3,1.8
					c0.8,0.4,1.8,0.6,2.8,0.6c1.1,0,2-0.2,2.6-0.7c0.6-0.5,0.9-1.2,0.9-2c0-0.6-0.2-1.2-0.6-1.6c-0.4-0.4-1.1-0.7-2.1-0.9l-1.8-0.3
					c-3.9-0.6-5.9-2.5-5.9-5.7c0-0.9,0.2-1.7,0.5-2.4s0.8-1.3,1.4-1.8s1.4-0.9,2.2-1.2c0.9-0.3,1.9-0.4,3-0.4c1.5,0,2.8,0.2,3.9,0.7
					c1.1,0.5,2,1.2,2.8,2.2l-2.5,2.4c-0.5-0.6-1.1-1.1-1.8-1.4c-0.7-0.4-1.6-0.6-2.6-0.6c-1.1,0-1.9,0.2-2.4,0.6
					c-0.5,0.4-0.8,1-0.8,1.7c0,0.7,0.2,1.3,0.6,1.6c0.4,0.4,1.1,0.6,2.1,0.8l1.8,0.3c2,0.4,3.4,1,4.4,1.9c0.9,0.9,1.4,2.2,1.4,3.8
					c0,0.9-0.2,1.8-0.5,2.5c-0.3,0.8-0.8,1.4-1.4,2c-0.6,0.6-1.4,1-2.3,1.3C197.9,246.1,196.8,246.2,195.7,246.2z"/>
				<path class="st4" d="M212.4,246.2c-1.1,0-2-0.2-2.9-0.5s-1.6-0.9-2.2-1.5c-0.6-0.7-1-1.5-1.4-2.4c-0.3-0.9-0.5-2-0.5-3.2
					c0-1.2,0.2-2.2,0.5-3.1c0.3-0.9,0.8-1.7,1.3-2.4c0.6-0.7,1.3-1.2,2.1-1.5c0.8-0.4,1.8-0.5,2.9-0.5c1.1,0,2.1,0.2,3,0.6
					c0.8,0.4,1.5,0.9,2.1,1.6c0.5,0.7,0.9,1.5,1.2,2.3s0.4,1.8,0.4,2.8v1.2h-9.7v0.4c0,1.1,0.3,1.9,0.9,2.5s1.5,1,2.7,1
					c0.9,0,1.6-0.2,2.2-0.6c0.6-0.4,1.1-0.8,1.5-1.4l1.9,2.2c-0.6,0.8-1.4,1.5-2.5,2C215,246,213.8,246.2,212.4,246.2z M212.3,233.6
					c-1,0-1.7,0.3-2.3,1s-0.8,1.5-0.8,2.5v0.2h6V237c0-1-0.2-1.8-0.7-2.5C214,233.9,213.3,233.6,212.3,233.6z"/>
				<path class="st4" d="M232.9,245.9c-0.8,0-1.4-0.2-1.9-0.7c-0.5-0.5-0.7-1.1-0.9-1.8H230c-0.2,1-0.7,1.7-1.5,2.1
					c-0.7,0.5-1.7,0.7-2.8,0.7c-1.5,0-2.6-0.4-3.4-1.2s-1.2-1.8-1.2-3.1c0-1.5,0.5-2.6,1.6-3.4c1.1-0.7,2.6-1.1,4.6-1.1h2.5v-1.1
					c0-0.8-0.2-1.5-0.6-1.9c-0.4-0.4-1.1-0.7-2.1-0.7c-0.8,0-1.5,0.2-2,0.5c-0.5,0.4-0.9,0.8-1.3,1.3l-2.1-1.9
					c0.5-0.8,1.3-1.5,2.2-2c0.9-0.5,2.1-0.8,3.6-0.8c2,0,3.5,0.4,4.5,1.3c1,0.9,1.5,2.2,1.5,3.9v6.9h1.5v2.9H232.9z M226.9,243.6
					c0.8,0,1.5-0.2,2-0.5c0.6-0.4,0.8-0.9,0.8-1.6v-1.9h-2.3c-1.9,0-2.8,0.6-2.8,1.8v0.5c0,0.6,0.2,1,0.6,1.3
					C225.7,243.5,226.2,243.6,226.9,243.6z"/>
			</g>
			<g class="st3">
				<path class="st4" d="M237.8,245.9v-14.6h3.6v3h0.1c0.1-0.4,0.2-0.8,0.4-1.1c0.2-0.4,0.5-0.7,0.8-1c0.3-0.3,0.7-0.5,1.1-0.7
					s0.9-0.3,1.5-0.3h0.8v3.4H245c-1.2,0-2.1,0.2-2.7,0.5c-0.6,0.4-0.9,0.9-0.9,1.7v9H237.8z"/>
			</g>
			<g class="st3">
				<path class="st4" d="M254.4,246.2c-1.1,0-2-0.2-2.9-0.5s-1.5-0.9-2.1-1.5s-1-1.5-1.3-2.4c-0.3-0.9-0.4-2-0.4-3.2
					s0.1-2.2,0.4-3.2s0.7-1.7,1.3-2.4c0.6-0.7,1.3-1.2,2.1-1.5s1.8-0.5,2.9-0.5c1.5,0,2.7,0.3,3.7,1c1,0.7,1.7,1.6,2.1,2.7l-2.9,1.3
					c-0.2-0.6-0.5-1.1-0.9-1.5c-0.5-0.4-1.1-0.6-1.9-0.6c-1,0-1.8,0.3-2.3,1c-0.5,0.6-0.7,1.5-0.7,2.5v2.7c0,1,0.2,1.9,0.7,2.5
					c0.5,0.6,1.2,0.9,2.3,0.9c0.9,0,1.5-0.2,2-0.7s0.8-1,1.1-1.6l2.7,1.3c-0.5,1.3-1.2,2.3-2.2,2.9
					C257,245.9,255.8,246.2,254.4,246.2z"/>
				<path class="st4" d="M263,225.2h3.6v8.5h0.1c0.3-0.8,0.8-1.4,1.4-2c0.6-0.5,1.5-0.8,2.7-0.8c1.5,0,2.7,0.5,3.5,1.5
					s1.2,2.4,1.2,4.2v9.2h-3.6V237c0-1-0.2-1.8-0.6-2.4c-0.4-0.5-1-0.8-1.8-0.8c-0.4,0-0.7,0.1-1.1,0.2c-0.3,0.1-0.7,0.3-0.9,0.4
					s-0.5,0.4-0.7,0.7s-0.3,0.6-0.3,1v9.7H263V225.2z"/>
				<path class="st4" d="M290.2,245.9c-0.8,0-1.4-0.2-1.9-0.7c-0.5-0.5-0.7-1.1-0.9-1.8h-0.2c-0.2,1-0.7,1.7-1.5,2.1
					c-0.7,0.5-1.7,0.7-2.8,0.7c-1.5,0-2.6-0.4-3.4-1.2c-0.8-0.8-1.2-1.8-1.2-3.1c0-1.5,0.5-2.6,1.6-3.4c1.1-0.7,2.6-1.1,4.6-1.1h2.5
					v-1.1c0-0.8-0.2-1.5-0.6-1.9c-0.4-0.4-1.1-0.7-2.1-0.7c-0.8,0-1.5,0.2-2,0.5c-0.5,0.4-0.9,0.8-1.3,1.3l-2.1-1.9
					c0.5-0.8,1.3-1.5,2.2-2c0.9-0.5,2.1-0.8,3.6-0.8c2,0,3.5,0.4,4.5,1.3c1,0.9,1.5,2.2,1.5,3.9v6.9h1.5v2.9H290.2z M284.3,243.6
					c0.8,0,1.5-0.2,2-0.5c0.6-0.4,0.8-0.9,0.8-1.6v-1.9h-2.3c-1.9,0-2.8,0.6-2.8,1.8v0.5c0,0.6,0.2,1,0.6,1.3
					C283,243.5,283.6,243.6,284.3,243.6z"/>
				<path class="st4" d="M295.1,225.2h3.6v8.5h0.1c0.3-0.8,0.8-1.5,1.5-2c0.7-0.5,1.6-0.7,2.5-0.7c1.9,0,3.3,0.7,4.3,2
					c1,1.3,1.5,3.2,1.5,5.6c0,2.5-0.5,4.4-1.5,5.7c-1,1.3-2.4,2-4.3,2c-1,0-1.8-0.3-2.5-0.8c-0.7-0.5-1.2-1.2-1.5-2h-0.1v2.4h-3.6
					V225.2z M301.7,243.3c0.9,0,1.7-0.3,2.3-0.9c0.6-0.6,0.9-1.4,0.9-2.5v-2.5c0-1-0.3-1.9-0.9-2.5c-0.6-0.6-1.3-0.9-2.3-0.9
					c-0.9,0-1.6,0.2-2.1,0.6c-0.6,0.4-0.9,1-0.9,1.7v4.6c0,0.8,0.3,1.4,0.9,1.8C300.1,243.1,300.8,243.3,301.7,243.3z"/>
				<path class="st4" d="M315.5,245.9c-1.2,0-2.1-0.3-2.7-0.9c-0.6-0.6-0.9-1.5-0.9-2.6v-17.2h3.6V243h1.9v2.9H315.5z"/>
				<path class="st4" d="M326,246.2c-1.1,0-2-0.2-2.9-0.5s-1.6-0.9-2.2-1.5c-0.6-0.7-1-1.5-1.4-2.4c-0.3-0.9-0.5-2-0.5-3.2
					c0-1.2,0.2-2.2,0.5-3.1c0.3-0.9,0.8-1.7,1.3-2.4c0.6-0.7,1.3-1.2,2.1-1.5c0.8-0.4,1.8-0.5,2.9-0.5c1.1,0,2.1,0.2,3,0.6
					c0.8,0.4,1.5,0.9,2.1,1.6c0.5,0.7,0.9,1.5,1.2,2.3s0.4,1.8,0.4,2.8v1.2h-9.7v0.4c0,1.1,0.3,1.9,0.9,2.5s1.5,1,2.7,1
					c0.9,0,1.6-0.2,2.2-0.6c0.6-0.4,1.1-0.8,1.5-1.4l1.9,2.2c-0.6,0.8-1.4,1.5-2.5,2C328.6,246,327.4,246.2,326,246.2z M326,233.6
					c-1,0-1.7,0.3-2.3,1s-0.8,1.5-0.8,2.5v0.2h6V237c0-1-0.2-1.8-0.7-2.5C327.6,233.9,326.9,233.6,326,233.6z"/>
			</g>
			<rect x="59" y="56.5" class="st6" width="66.1" height="9.4"/>
			<circle class="st6" cx="41.2" cy="61.3" r="9.1"/>
			<rect x="59" y="87.4" class="st7" width="66.1" height="9.4"/>
			<circle class="st7" cx="41.2" cy="92.1" r="9.1"/>
			<rect x="59" y="118.3" class="st7" width="66.1" height="9.4"/>
			<circle class="st7" cx="41.2" cy="123" r="9.1"/>
			<polygon class="st8" points="156.5,62 144.5,74 142.8,72.3 153.1,62 142.8,51.7 144.5,50 			"/>
			<g>
				<defs>
					<polygon id="SVGID_1_" points="156.5,62 144.5,74 142.8,72.3 153.1,62 142.8,51.7 144.5,50 					"/>
				</defs>
				<clipPath id="SVGID_2_">
					<use xlink:href="#SVGID_1_"  style="overflow:visible;"/>
				</clipPath>
				<g class="st9">
					<rect x="130.1" y="42.8" class="st6" width="38.4" height="38.4"/>
					<g>
						<defs>
							<rect id="SVGID_3_" x="130.1" y="42.8" width="38.4" height="38.4"/>
						</defs>
						<clipPath id="SVGID_4_">
							<use xlink:href="#SVGID_3_"  style="overflow:visible;"/>
						</clipPath>
						<g class="st10">
							<rect x="134.8" y="42" class="st11" width="29.7" height="40"/>
						</g>
					</g>
					<rect x="130.1" y="42.8" class="st12" width="38.4" height="38.4"/>
				</g>
			</g>
			<polygon class="st12" points="156.5,62 144.5,74 142.8,72.3 153.1,62 142.8,51.7 144.5,50 			"/>
			
				<image style="overflow:visible;opacity:0.3;enable-background:new    ;" width="227" height="174" xlink:href="C3A89A46191E8066.png"  transform="matrix(1 0 0 1 152.47 26.49)">
			</image>
			<rect x="176.1" y="40.6" class="st13" width="180.4" height="136.3"/>
			<rect x="192.4" y="118.9" class="st14" width="147.2" height="10.3"/>
			<g>
				<defs>
					<rect id="SVGID_5_" x="192.4" y="118.9" width="147.2" height="10.3"/>
				</defs>
				<clipPath id="SVGID_6_">
					<use xlink:href="#SVGID_5_"  style="overflow:visible;"/>
				</clipPath>
				<g class="st15">
					<rect x="161.8" y="93.2" class="st14" width="208.5" height="61.8"/>
				</g>
			</g>
			<rect x="194.7" y="57.1" class="st14" width="66.4" height="10.3"/>
			<g>
				<defs>
					<rect id="SVGID_7_" x="194.7" y="57.1" width="66.4" height="10.3"/>
				</defs>
				<clipPath id="SVGID_8_">
					<use xlink:href="#SVGID_7_"  style="overflow:visible;"/>
				</clipPath>
				<g class="st16">
					<rect x="164.5" y="31.4" class="st14" width="126.8" height="61.8"/>
				</g>
			</g>
			<rect x="279.2" y="57.1" class="st14" width="60.4" height="10.3"/>
			<g>
				<defs>
					<rect id="SVGID_9_" x="279.2" y="57.1" width="60.4" height="10.3"/>
				</defs>
				<clipPath id="SVGID_10_">
					<use xlink:href="#SVGID_9_"  style="overflow:visible;"/>
				</clipPath>
				<g class="st17">
					<rect x="249" y="31.4" class="st14" width="120.7" height="61.8"/>
				</g>
			</g>
			<rect x="297.3" y="88" class="st14" width="42.3" height="10.3"/>
			<g>
				<defs>
					<rect id="SVGID_11_" x="297.3" y="88" width="42.3" height="10.3"/>
				</defs>
				<clipPath id="SVGID_12_">
					<use xlink:href="#SVGID_11_"  style="overflow:visible;"/>
				</clipPath>
				<g class="st18">
					<rect x="267.1" y="62.3" class="st14" width="102.6" height="61.8"/>
				</g>
			</g>
			<rect x="236.9" y="88" class="st14" width="42.3" height="10.3"/>
			<g>
				<defs>
					<rect id="SVGID_13_" x="236.9" y="88" width="42.3" height="10.3"/>
				</defs>
				<clipPath id="SVGID_14_">
					<use xlink:href="#SVGID_13_"  style="overflow:visible;"/>
				</clipPath>
				<g class="st19">
					<rect x="206.8" y="62.3" class="st14" width="102.6" height="61.8"/>
				</g>
			</g>
			<rect x="194.7" y="88" class="st14" width="24.1" height="10.3"/>
			<g>
				<defs>
					<rect id="SVGID_15_" x="194.7" y="88" width="24.1" height="10.3"/>
				</defs>
				<clipPath id="SVGID_16_">
					<use xlink:href="#SVGID_15_"  style="overflow:visible;"/>
				</clipPath>
				<g class="st20">
					<rect x="164.5" y="62.3" class="st14" width="84.5" height="61.8"/>
				</g>
			</g>
			<rect x="194.7" y="149.8" class="st14" width="102.6" height="10.3"/>
			<g>
				<defs>
					<rect id="SVGID_17_" x="194.7" y="149.8" width="102.6" height="10.3"/>
				</defs>
				<clipPath id="SVGID_18_">
					<use xlink:href="#SVGID_17_"  style="overflow:visible;"/>
				</clipPath>
				<g class="st21">
					<rect x="164.5" y="124.1" class="st14" width="163" height="61.8"/>
				</g>
			</g>
			<rect x="176.1" y="38.6" class="st22" width="180.4" height="140.3"/>
		</g>
	</g>
</g>
</svg>
