<?xml version="1.0" encoding="utf-8"?>
<!-- Generator: Adobe Illustrator 23.0.4, SVG Export Plug-In . SVG Version: 6.00 Build 0)  -->
<svg version="1.1" id="Layer_1" xmlns="http://www.w3.org/2000/svg" xmlns:xlink="http://www.w3.org/1999/xlink" x="0px" y="0px"
	 viewBox="0 0 999 300" style="enable-background:new 0 0 999 300;" xml:space="preserve">
<style type="text/css">
	.st0{opacity:0.11;fill:url(#SVGID_1_);}
	.st1{opacity:0.11;fill:#FFFFFF;}
</style>
<linearGradient id="SVGID_1_" gradientUnits="userSpaceOnUse" x1="676.0691" y1="-1571.7546" x2="839.4457" y2="-1408.3638" gradientTransform="matrix(1 0 0 1 0 1685.29)">
	<stop  offset="0.7" style="stop-color:#FFFFFF"/>
	<stop  offset="1" style="stop-color:#FFFFFF;stop-opacity:0"/>
</linearGradient>
<path class="st0" d="M724.7,84h-19v133.4c0,3.4,1.8,6.5,4.8,8.2l114,66.4l9.5-16.5l-109.4-63.8V84H724.7z"/>
<path class="st1" d="M948.3,75.7l-114-66.4c-2.9-1.7-6.6-1.7-9.5,0l-38.2,22c-2.9,1.7-4.8,4.8-4.8,8.2v82.6h19v-77l28.7-16.5
	l104.4,60.8V141h19V84C953,80.6,951.2,77.5,948.3,75.7z"/>
<rect x="743.7" y="55.4" class="st1" width="19" height="95.1"/>
<polygon class="st1" points="921.5,159.7 908.1,173.2 942.1,207.3 908.1,241.4 921.5,254.8 969.1,207.3 "/>
<polygon class="st1" points="864.5,159.7 816.9,207.3 864.5,254.8 877.8,241.4 843.7,207.3 877.8,173.2 "/>
</svg>
