<?xml version="1.0" encoding="utf-8"?>
<!-- Generator: Adobe Illustrator 23.0.4, SVG Export Plug-In . SVG Version: 6.00 Build 0)  -->
<svg version="1.1" id="Layer_1" xmlns="http://www.w3.org/2000/svg" xmlns:xlink="http://www.w3.org/1999/xlink" x="0px" y="0px"
	 viewBox="0 0 388.9 319.7" style="enable-background:new 0 0 388.9 319.7;" xml:space="preserve">
<style type="text/css">
	.st0{opacity:0;}
	.st1{fill:#0E61FF;}
	.st2{fill:#001140;}
	.st3{enable-background:new    ;}
	.st4{fill:#C9DEFE;}
	.st5{fill-rule:evenodd;clip-rule:evenodd;fill:#A6C7FF;}
	.st6{fill:none;stroke:#A6C7FF;stroke-miterlimit:10;}
	.st7{fill:#012D9C;}
</style>
<title>Asset 42</title>
<g>
	<g id="Layer_1-2">
		<g class="st0">
			<rect x="5" y="5" class="st1" width="378.9" height="309.7"/>
			<path class="st2" d="M378.9,10v299.7H10V10H378.9 M388.9,0H0v319.7h388.9V0z"/>
		</g>
		<g class="st3">
			<path class="st4" d="M58.1,273.1c-1.3,0-2.5-0.2-3.6-0.6c-1.1-0.4-2-1-2.7-1.9c-0.7-0.8-1.3-1.9-1.7-3.1
				c-0.4-1.2-0.6-2.7-0.6-4.4c0-1.6,0.2-3.1,0.6-4.4c0.4-1.3,1-2.4,1.7-3.2c0.7-0.9,1.7-1.5,2.7-2c1.1-0.4,2.3-0.7,3.6-0.7
				c1.8,0,3.3,0.4,4.5,1.1c1.2,0.7,2.1,1.9,2.8,3.5l-3.7,1.9c-0.3-0.8-0.7-1.5-1.2-2c-0.6-0.5-1.4-0.7-2.4-0.7c-1.3,0-2.3,0.4-3,1.2
				c-0.8,0.8-1.1,2-1.1,3.5v3.1c0,1.5,0.4,2.7,1.1,3.5c0.8,0.8,1.8,1.2,3,1.2c1,0,1.9-0.3,2.5-0.9c0.6-0.6,1.1-1.3,1.4-2.1l3.5,2
				c-0.7,1.5-1.7,2.6-2.9,3.5C61.4,272.7,59.9,273.1,58.1,273.1z"/>
			<path class="st4" d="M72.7,253.2v12c0,1.4,0.3,2.4,0.8,3.1c0.5,0.7,1.4,1,2.7,1s2.2-0.3,2.7-1c0.5-0.7,0.8-1.7,0.8-3.1v-12h4.1
				v11.5c0,1.4-0.1,2.7-0.4,3.7s-0.7,1.9-1.3,2.6c-0.6,0.7-1.4,1.2-2.4,1.5c-1,0.3-2.2,0.5-3.6,0.5c-1.4,0-2.6-0.2-3.6-0.5
				c-1-0.3-1.8-0.8-2.4-1.5c-0.6-0.7-1.1-1.5-1.3-2.6c-0.3-1.1-0.4-2.3-0.4-3.7v-11.5H72.7z"/>
		</g>
		<g class="st3">
			<path class="st4" d="M94.9,273.1c-1.7,0-3.2-0.3-4.4-0.9c-1.2-0.6-2.2-1.3-3.1-2.3l2.8-2.8c1.3,1.5,3,2.2,4.9,2.2
				c1,0,1.8-0.2,2.3-0.6c0.5-0.4,0.8-1,0.8-1.7c0-0.5-0.1-1-0.4-1.3c-0.3-0.4-0.9-0.6-1.8-0.7l-1.9-0.2c-2.1-0.3-3.6-0.9-4.5-1.9
				c-1-1-1.4-2.3-1.4-4c0-0.9,0.2-1.7,0.5-2.4c0.3-0.7,0.8-1.4,1.4-1.9c0.6-0.5,1.4-0.9,2.3-1.2c0.9-0.3,1.9-0.4,3.1-0.4
				c1.5,0,2.8,0.2,3.9,0.7s2.1,1.1,2.9,2l-2.8,2.9c-0.5-0.5-1-1-1.7-1.3c-0.7-0.3-1.5-0.5-2.5-0.5c-1,0-1.7,0.2-2.1,0.5
				c-0.5,0.3-0.7,0.8-0.7,1.4c0,0.7,0.2,1.1,0.5,1.4c0.4,0.3,1,0.5,1.8,0.6l1.9,0.3c2,0.3,3.5,0.9,4.5,1.9c1,0.9,1.5,2.2,1.5,3.9
				c0,0.9-0.2,1.8-0.5,2.6c-0.3,0.8-0.8,1.5-1.5,2s-1.4,1-2.4,1.3C97.2,273,96.1,273.1,94.9,273.1z"/>
		</g>
		<g class="st3">
			<path class="st4" d="M114,257v15.8h-4.3V257h-5.3v-3.8h14.8v3.8H114z"/>
		</g>
		<g class="st3">
			<path class="st4" d="M129.7,273.1c-1.3,0-2.5-0.2-3.5-0.6c-1.1-0.4-2-1.1-2.7-1.9s-1.3-1.9-1.7-3.2c-0.4-1.3-0.6-2.7-0.6-4.4
				s0.2-3.1,0.6-4.4c0.4-1.3,1-2.3,1.7-3.2c0.7-0.8,1.7-1.5,2.7-1.9c1.1-0.4,2.2-0.6,3.5-0.6s2.5,0.2,3.5,0.6c1.1,0.4,2,1.1,2.7,1.9
				c0.7,0.8,1.3,1.9,1.7,3.2c0.4,1.3,0.6,2.7,0.6,4.4s-0.2,3.1-0.6,4.4c-0.4,1.3-1,2.3-1.7,3.2c-0.7,0.8-1.7,1.5-2.7,1.9
				C132.2,272.9,131,273.1,129.7,273.1z M129.7,269.3c1.3,0,2.3-0.4,3-1.3s1.1-2,1.1-3.6v-2.9c0-1.6-0.4-2.8-1.1-3.6s-1.7-1.3-3-1.3
				s-2.3,0.4-3,1.3s-1.1,2-1.1,3.6v2.9c0,1.6,0.4,2.8,1.1,3.6S128.4,269.3,129.7,269.3z"/>
			<path class="st4" d="M156.8,259.9L156.8,259.9l-1.5,2.9l-3.8,6.9l-3.7-6.9l-1.5-3.1h-0.1v13h-4v-19.5h4.5l4.8,9.2h0.1l4.7-9.2
				h4.5v19.5h-4V259.9z"/>
			<path class="st4" d="M178.6,273.1c-1.7,0-3.2-0.3-4.4-0.9c-1.2-0.6-2.2-1.3-3.1-2.3l2.8-2.8c1.3,1.5,3,2.2,4.9,2.2
				c1,0,1.8-0.2,2.3-0.6c0.5-0.4,0.8-1,0.8-1.7c0-0.5-0.1-1-0.4-1.3c-0.3-0.4-0.9-0.6-1.8-0.7l-1.9-0.2c-2.1-0.3-3.6-0.9-4.5-1.9
				c-1-1-1.4-2.3-1.4-4c0-0.9,0.2-1.7,0.5-2.4c0.3-0.7,0.8-1.4,1.4-1.9c0.6-0.5,1.4-0.9,2.3-1.2c0.9-0.3,1.9-0.4,3.1-0.4
				c1.5,0,2.8,0.2,3.9,0.7s2.1,1.1,2.9,2l-2.8,2.9c-0.5-0.5-1-1-1.7-1.3c-0.7-0.3-1.5-0.5-2.5-0.5c-1,0-1.7,0.2-2.1,0.5
				c-0.5,0.3-0.7,0.8-0.7,1.4c0,0.7,0.2,1.1,0.5,1.4c0.4,0.3,1,0.5,1.8,0.6l1.9,0.3c2,0.3,3.5,0.9,4.5,1.9c1,0.9,1.5,2.2,1.5,3.9
				c0,0.9-0.2,1.8-0.5,2.6c-0.3,0.8-0.8,1.5-1.5,2s-1.4,1-2.4,1.3C180.9,273,179.8,273.1,178.6,273.1z"/>
			<path class="st4" d="M201.7,264.8h-7.4v8H190v-19.5h4.3v7.8h7.4v-7.8h4.3v19.5h-4.3V264.8z"/>
			<path class="st4" d="M218.4,273.1c-1.3,0-2.5-0.2-3.5-0.6c-1.1-0.4-2-1.1-2.7-1.9c-0.7-0.8-1.3-1.9-1.7-3.2
				c-0.4-1.3-0.6-2.7-0.6-4.4s0.2-3.1,0.6-4.4c0.4-1.3,1-2.3,1.7-3.2c0.7-0.8,1.7-1.5,2.7-1.9c1.1-0.4,2.2-0.6,3.5-0.6
				s2.5,0.2,3.5,0.6c1.1,0.4,2,1.1,2.7,1.9c0.7,0.8,1.3,1.9,1.7,3.2c0.4,1.3,0.6,2.7,0.6,4.4s-0.2,3.1-0.6,4.4
				c-0.4,1.3-1,2.3-1.7,3.2c-0.7,0.8-1.7,1.5-2.7,1.9C220.8,272.9,219.7,273.1,218.4,273.1z M218.4,269.3c1.3,0,2.3-0.4,3-1.3
				s1.1-2,1.1-3.6v-2.9c0-1.6-0.4-2.8-1.1-3.6s-1.7-1.3-3-1.3s-2.3,0.4-3,1.3s-1.1,2-1.1,3.6v2.9c0,1.6,0.4,2.8,1.1,3.6
				S217.1,269.3,218.4,269.3z"/>
		</g>
		<g class="st3">
			<path class="st4" d="M235.7,272.8h-4.3v-19.5h9.3c0.9,0,1.7,0.1,2.4,0.4c0.7,0.3,1.3,0.7,1.9,1.3c0.5,0.6,0.9,1.2,1.2,2
				c0.3,0.8,0.4,1.6,0.4,2.5c0,1.3-0.3,2.5-0.9,3.5c-0.6,1-1.5,1.7-2.7,2.2l3.8,7.7h-4.7l-3.4-7.2h-3.1V272.8z M240.2,262
				c0.6,0,1.1-0.2,1.5-0.5c0.4-0.3,0.5-0.8,0.5-1.4v-1.2c0-0.6-0.2-1.1-0.5-1.4s-0.9-0.5-1.5-0.5h-4.5v5.1H240.2z"/>
		</g>
		<g class="st3">
			<path class="st4" d="M258.2,257v15.8H254V257h-5.3v-3.8h14.8v3.8H258.2z"/>
		</g>
		<g class="st3">
			<path class="st4" d="M274,273.1c-1.3,0-2.5-0.2-3.6-0.6s-2-1-2.7-1.9c-0.7-0.8-1.3-1.9-1.7-3.1c-0.4-1.2-0.6-2.7-0.6-4.4
				c0-1.6,0.2-3.1,0.6-4.4c0.4-1.3,1-2.4,1.7-3.2c0.7-0.9,1.7-1.5,2.7-2c1.1-0.4,2.3-0.7,3.6-0.7c1.8,0,3.3,0.4,4.5,1.1
				c1.2,0.7,2.1,1.9,2.8,3.5l-3.7,1.9c-0.3-0.8-0.7-1.5-1.2-2s-1.4-0.7-2.4-0.7c-1.2,0-2.3,0.4-3,1.2c-0.8,0.8-1.1,2-1.1,3.5v3.1
				c0,1.5,0.4,2.7,1.1,3.5c0.8,0.8,1.8,1.2,3,1.2c1,0,1.9-0.3,2.5-0.9c0.6-0.6,1.1-1.3,1.4-2.1l3.5,2c-0.7,1.5-1.7,2.6-2.9,3.5
				C277.3,272.7,275.8,273.1,274,273.1z"/>
			<path class="st4" d="M288.7,253.2v12c0,1.4,0.3,2.4,0.8,3.1c0.5,0.7,1.4,1,2.7,1s2.2-0.3,2.7-1c0.5-0.7,0.8-1.7,0.8-3.1v-12h4.1
				v11.5c0,1.4-0.1,2.7-0.4,3.7c-0.3,1.1-0.7,1.9-1.3,2.6c-0.6,0.7-1.4,1.2-2.4,1.5c-1,0.3-2.2,0.5-3.6,0.5s-2.6-0.2-3.6-0.5
				c-1-0.3-1.8-0.8-2.4-1.5c-0.6-0.7-1.1-1.5-1.3-2.6c-0.3-1.1-0.4-2.3-0.4-3.7v-11.5H288.7z"/>
		</g>
		<g class="st3">
			<path class="st4" d="M312.7,257v15.8h-4.3V257h-5.3v-3.8H318v3.8H312.7z"/>
		</g>
		<g class="st3">
			<path class="st4" d="M327.3,273.1c-1.7,0-3.2-0.3-4.4-0.9c-1.2-0.6-2.2-1.3-3.1-2.3l2.8-2.8c1.3,1.5,3,2.2,4.9,2.2
				c1,0,1.8-0.2,2.3-0.6c0.5-0.4,0.8-1,0.8-1.7c0-0.5-0.2-1-0.4-1.3c-0.3-0.4-0.9-0.6-1.8-0.7l-1.9-0.2c-2.1-0.3-3.6-0.9-4.5-1.9
				c-1-1-1.4-2.3-1.4-4c0-0.9,0.2-1.7,0.5-2.4c0.3-0.7,0.8-1.4,1.4-1.9c0.6-0.5,1.4-0.9,2.3-1.2s1.9-0.4,3.1-0.4
				c1.5,0,2.8,0.2,3.9,0.7c1.1,0.5,2.1,1.1,2.9,2l-2.8,2.9c-0.5-0.5-1-1-1.7-1.3c-0.7-0.3-1.5-0.5-2.5-0.5c-1,0-1.7,0.2-2.1,0.5
				c-0.5,0.3-0.7,0.8-0.7,1.4c0,0.7,0.2,1.1,0.5,1.4c0.4,0.3,1,0.5,1.8,0.6l1.9,0.3c2,0.3,3.5,0.9,4.5,1.9c1,0.9,1.5,2.2,1.5,3.9
				c0,0.9-0.2,1.8-0.5,2.6s-0.8,1.5-1.5,2c-0.6,0.6-1.4,1-2.4,1.3C329.6,273,328.5,273.1,327.3,273.1z"/>
		</g>
		<path class="st5" d="M263,153.4h23.4V169H263V153.4z M224,122.2h15.6v15.6H224L224,122.2z M255.3,122.2h31.2v15.6h-31.3
			L255.3,122.2z M255.3,90.9h31.2v15.6h-31.3L255.3,90.9z M192.8,122.2h15.6v15.6h-15.7L192.8,122.2z M161.6,122.2h15.6v15.6h-15.7
			L161.6,122.2z M130.3,122.2h15.6v15.6h-15.7L130.3,122.2z M130.3,153.4h15.6V169h-15.7L130.3,153.4z M224,91h15.6v15.6H224V91z
			 M192.8,91h15.6v15.6h-15.6L192.8,91z M161.5,91h15.6v15.6h-15.6L161.5,91z M130.3,91h15.6v15.6h-15.6L130.3,91z M98.3,122.2h15.6
			v15.6H98.3L98.3,122.2z M98.3,153.5h15.6V169H98.3L98.3,153.5z M98.3,91h15.6v15.6H98.3L98.3,91z M161.5,153.5h85.9V169h-85.9
			V153.5z M75.7,69.3v121.3h234.4V69.3H75.7z M304.1,200.3H81.7c-8.6,0-15.6-7-15.6-15.6V75.3c0-8.6,7-15.6,15.6-15.6h0h222.4
			c8.6,0,15.6,7,15.6,15.6v109.3C319.7,193.3,312.7,200.3,304.1,200.3L304.1,200.3z"/>
		<path class="st6" d="M263,153.4h23.4V169H263V153.4z M224,122.2h15.6v15.6H224L224,122.2z M255.3,122.2h31.2v15.6h-31.3
			L255.3,122.2z M255.3,90.9h31.2v15.6h-31.3L255.3,90.9z M192.8,122.2h15.6v15.6h-15.7L192.8,122.2z M161.6,122.2h15.6v15.6h-15.7
			L161.6,122.2z M130.3,122.2h15.6v15.6h-15.7L130.3,122.2z M130.3,153.4h15.6V169h-15.7L130.3,153.4z M224,91h15.6v15.6H224V91z
			 M192.8,91h15.6v15.6h-15.6L192.8,91z M161.5,91h15.6v15.6h-15.6L161.5,91z M130.3,91h15.6v15.6h-15.6L130.3,91z M98.3,122.2h15.6
			v15.6H98.3L98.3,122.2z M98.3,153.5h15.6V169H98.3L98.3,153.5z M98.3,91h15.6v15.6H98.3L98.3,91z M161.5,153.5h85.9V169h-85.9
			V153.5z M75.7,69.3v121.3h234.4V69.3H75.7z M304.1,200.3H81.7c-8.6,0-15.6-7-15.6-15.6V75.3c0-8.6,7-15.6,15.6-15.6h0h222.4
			c8.6,0,15.6,7,15.6,15.6v109.3C319.7,193.3,312.7,200.3,304.1,200.3L304.1,200.3z"/>
		<rect x="161.5" y="90.9" class="st7" width="15.6" height="15.6"/>
		<rect x="224" y="122.2" class="st7" width="15.6" height="15.6"/>
		<rect x="263" y="153.4" class="st7" width="23.4" height="15.6"/>
	</g>
</g>
</svg>
