<?xml version="1.0" encoding="utf-8"?>
<!-- Generator: Adobe Illustrator 23.0.4, SVG Export Plug-In . SVG Version: 6.00 Build 0)  -->
<svg version="1.1" id="Layer_1" xmlns="http://www.w3.org/2000/svg" xmlns:xlink="http://www.w3.org/1999/xlink" x="0px" y="0px"
	 viewBox="0 0 407.2 314" style="enable-background:new 0 0 407.2 314;" xml:space="preserve">
<style type="text/css">
	.st0{opacity:0;}
	.st1{fill:#012D9C;}
	.st2{fill:#001140;}
	.st3{fill:#448AFE;}
	.st4{clip-path:url(#SVGID_2_);}
	.st5{clip-path:url(#SVGID_4_);}
	.st6{fill:#A6C7FF;}
	.st7{clip-path:url(#SVGID_6_);}
	.st8{fill:#E3F1FF;stroke:#76B4FF;stroke-width:0.25;stroke-miterlimit:10;}
	.st9{fill:none;stroke:#A6C7FF;stroke-width:6;stroke-miterlimit:10;}
	.st10{clip-path:url(#SVGID_8_);}
	.st11{clip-path:url(#SVGID_10_);}
	.st12{clip-path:url(#SVGID_12_);}
	.st13{clip-path:url(#SVGID_14_);}
	.st14{clip-path:url(#SVGID_16_);}
	.st15{fill:none;stroke:#012D9C;stroke-miterlimit:10;}
	.st16{clip-path:url(#SVGID_18_);}
	.st17{clip-path:url(#SVGID_20_);}
	.st18{clip-path:url(#SVGID_22_);}
	.st19{fill-rule:evenodd;clip-rule:evenodd;fill:#012D9C;}
	.st20{clip-path:url(#SVGID_24_);}
	.st21{clip-path:url(#SVGID_26_);}
	.st22{fill-rule:evenodd;clip-rule:evenodd;fill:#448AFE;}
	.st23{clip-path:url(#SVGID_28_);}
	.st24{enable-background:new    ;}
	.st25{fill:#C9DEFE;}
	.st26{fill:none;stroke:#9B1204;stroke-width:4;stroke-miterlimit:10;}
</style>
<title>Asset 30</title>
<g>
	<g>
		<g id="Layer_1-2">
			<g class="st0">
				<rect x="5" y="5" class="st1" width="397" height="304"/>
				<path class="st2" d="M397,10v294H10V10H397 M407,0H0v314h407V0z"/>
			</g>
			<rect x="136.9" y="46.2" class="st3" width="10" height="11.9"/>
			<g>
				<defs>
					<rect id="SVGID_1_" x="136.9" y="46.2" width="10" height="11.9"/>
				</defs>
				<clipPath id="SVGID_2_">
					<use xlink:href="#SVGID_1_"  style="overflow:visible;"/>
				</clipPath>
				<g class="st4">
					<rect x="124.4" y="16.5" class="st3" width="34.9" height="71.2"/>
				</g>
			</g>
			<rect x="52.8" y="46.2" class="st3" width="24.3" height="11.9"/>
			<g>
				<defs>
					<rect id="SVGID_3_" x="52.8" y="46.2" width="24.3" height="11.9"/>
				</defs>
				<clipPath id="SVGID_4_">
					<use xlink:href="#SVGID_3_"  style="overflow:visible;"/>
				</clipPath>
				<g class="st5">
					<rect x="35.4" y="16.5" class="st3" width="58.9" height="71.2"/>
				</g>
			</g>
			<rect x="84.1" y="46" class="st6" width="45.8" height="11.9"/>
			<g>
				<defs>
					<rect id="SVGID_5_" x="84.1" y="46" width="45.8" height="11.9"/>
				</defs>
				<clipPath id="SVGID_6_">
					<use xlink:href="#SVGID_5_"  style="overflow:visible;"/>
				</clipPath>
				<g class="st7">
					<rect x="51.4" y="16.3" class="st6" width="111.2" height="71.2"/>
				</g>
			</g>
			<rect x="155.2" y="38.8" class="st8" width="4.2" height="26.5"/>
			
				<image style="overflow:visible;opacity:0.3;enable-background:new    ;" width="250" height="198" xlink:href="D8F85824A4FC2633.png"  transform="matrix(1 0 0 1 157.18 28.42)">
			</image>
			<rect x="188.5" y="47" class="st3" width="181.2" height="152.1"/>
			<rect x="185.7" y="45" class="st9" width="183.9" height="155.8"/>
			<polygon class="st9" points="179.8,51.4 179.8,55.5 176.2,53.5 172.6,51.4 176.2,49.3 179.8,47.2 			"/>
			<rect x="232.1" y="98.3" class="st6" width="29.5" height="11.9"/>
			<g>
				<defs>
					<rect id="SVGID_7_" x="232.1" y="98.3" width="29.5" height="11.9"/>
				</defs>
				<clipPath id="SVGID_8_">
					<use xlink:href="#SVGID_7_"  style="overflow:visible;"/>
				</clipPath>
				<g class="st10">
					<rect x="195.3" y="68.6" class="st6" width="103.2" height="71.2"/>
				</g>
			</g>
			<rect x="268.7" y="98.3" class="st1" width="75.3" height="11.9"/>
			<g>
				<defs>
					<rect id="SVGID_9_" x="268.7" y="98.3" width="75.3" height="11.9"/>
				</defs>
				<clipPath id="SVGID_10_">
					<use xlink:href="#SVGID_9_"  style="overflow:visible;"/>
				</clipPath>
				<g class="st11">
					<rect x="214.9" y="68.6" class="st1" width="182.8" height="71.2"/>
				</g>
			</g>
			<path class="st1" d="M205.6,98.8v10.8h10.8V98.8H205.6z M221.8,93.5V115h-21.5V93.5H221.8z"/>
			<rect x="279.8" y="62.4" class="st6" width="23.8" height="11.9"/>
			<g>
				<defs>
					<rect id="SVGID_11_" x="279.8" y="62.4" width="23.8" height="11.9"/>
				</defs>
				<clipPath id="SVGID_12_">
					<use xlink:href="#SVGID_11_"  style="overflow:visible;"/>
				</clipPath>
				<g class="st12">
					<rect x="250.1" y="32.8" class="st6" width="83.1" height="71.2"/>
				</g>
			</g>
			<rect x="310.2" y="62.4" class="st1" width="23.8" height="11.9"/>
			<g>
				<defs>
					<rect id="SVGID_13_" x="310.2" y="62.4" width="23.8" height="11.9"/>
				</defs>
				<clipPath id="SVGID_14_">
					<use xlink:href="#SVGID_13_"  style="overflow:visible;"/>
				</clipPath>
				<g class="st13">
					<rect x="280.5" y="32.8" class="st1" width="83.1" height="71.2"/>
				</g>
			</g>
			<rect x="231.6" y="62.4" class="st1" width="41.6" height="11.9"/>
			<g>
				<defs>
					<rect id="SVGID_15_" x="231.6" y="62.4" width="41.6" height="11.9"/>
				</defs>
				<clipPath id="SVGID_16_">
					<use xlink:href="#SVGID_15_"  style="overflow:visible;"/>
				</clipPath>
				<g class="st14">
					<rect x="201.9" y="32.8" class="st1" width="100.9" height="71.2"/>
				</g>
			</g>
			<path class="st1" d="M215.8,68.9l-5.4-9.3l-5.4,9.3l-5.4,9.3h21.5L215.8,68.9z M205,75.4l2.7-4.7l2.7-4.7l2.7,4.7l2.7,4.7
				L205,75.4L205,75.4z"/>
			<path class="st15" d="M215.8,68.9l-5.4-9.3l-5.4,9.3l-5.4,9.3h21.5L215.8,68.9z M205,75.4l2.7-4.7l2.7-4.7l2.7,4.7l2.7,4.7
				L205,75.4L205,75.4z"/>
			<rect x="279.5" y="134.8" class="st6" width="23.8" height="11.9"/>
			<g>
				<defs>
					<rect id="SVGID_17_" x="279.5" y="134.8" width="23.8" height="11.9"/>
				</defs>
				<clipPath id="SVGID_18_">
					<use xlink:href="#SVGID_17_"  style="overflow:visible;"/>
				</clipPath>
				<g class="st16">
					<rect x="249.8" y="105.1" class="st6" width="83.1" height="71.2"/>
				</g>
			</g>
			<rect x="309.8" y="134.8" class="st1" width="11.9" height="11.9"/>
			<g>
				<defs>
					<rect id="SVGID_19_" x="309.8" y="134.8" width="11.9" height="11.9"/>
				</defs>
				<clipPath id="SVGID_20_">
					<use xlink:href="#SVGID_19_"  style="overflow:visible;"/>
				</clipPath>
				<g class="st17">
					<rect x="295" y="105.1" class="st1" width="41.6" height="71.2"/>
				</g>
			</g>
			<rect x="231.2" y="134.8" class="st1" width="41.6" height="11.9"/>
			<g>
				<defs>
					<rect id="SVGID_21_" x="231.2" y="134.8" width="41.6" height="11.9"/>
				</defs>
				<clipPath id="SVGID_22_">
					<use xlink:href="#SVGID_21_"  style="overflow:visible;"/>
				</clipPath>
				<g class="st18">
					<rect x="201.5" y="105.1" class="st1" width="100.9" height="71.2"/>
				</g>
			</g>
			<path class="st19" d="M211.1,129.1c-6.4,0-11.6,5.2-11.6,11.6s5.2,11.6,11.6,11.6s11.6-5.2,11.6-11.6c0,0,0,0,0,0
				C222.7,134.3,217.5,129.1,211.1,129.1L211.1,129.1z M211.1,147.7c-3.9,0-7-3.1-7-6.9c0-3.9,3.1-7,6.9-7c3.9,0,7,3.1,7,6.9
				c0,0,0,0,0,0C218,144.5,214.9,147.7,211.1,147.7L211.1,147.7z"/>
			<rect x="232.5" y="170.6" class="st6" width="29.5" height="11.9"/>
			<g>
				<defs>
					<rect id="SVGID_23_" x="232.5" y="170.6" width="29.5" height="11.9"/>
				</defs>
				<clipPath id="SVGID_24_">
					<use xlink:href="#SVGID_23_"  style="overflow:visible;"/>
				</clipPath>
				<g class="st20">
					<rect x="195.7" y="141" class="st6" width="103.2" height="71.2"/>
				</g>
			</g>
			<rect x="269.1" y="170.6" class="st1" width="41.6" height="11.9"/>
			<g>
				<defs>
					<rect id="SVGID_25_" x="269.1" y="170.6" width="41.6" height="11.9"/>
				</defs>
				<clipPath id="SVGID_26_">
					<use xlink:href="#SVGID_25_"  style="overflow:visible;"/>
				</clipPath>
				<g class="st21">
					<rect x="239.4" y="141" class="st1" width="100.9" height="71.2"/>
				</g>
			</g>
			<path class="st1" d="M217.3,166.3h-11.8l-5.9,10.2l5.9,10.2h11.8l5.9-10.2L217.3,166.3z M214.5,182.1h-6.4l-3.2-5.5l3.2-5.5h6.4
				l3.2,5.5L214.5,182.1z"/>
			<polygon class="st22" points="27.1,52 41,38.1 43.8,40.9 32.7,52 43.8,63.1 41,65.9 			"/>
			<g>
				<defs>
					<polygon id="SVGID_27_" points="27.1,52 41,38.1 43.8,40.9 32.7,52 43.8,63.1 41,65.9 					"/>
				</defs>
				<clipPath id="SVGID_28_">
					<use xlink:href="#SVGID_27_"  style="overflow:visible;"/>
				</clipPath>
				<g class="st23">
					<rect x="17.2" y="28.2" class="st3" width="36.5" height="47.6"/>
				</g>
			</g>
			<g class="st24">
				<path class="st25" d="M38.3,273.8h-4.2v-19.2h9.1c0.9,0,1.7,0.1,2.4,0.4c0.7,0.3,1.3,0.7,1.8,1.3c0.5,0.5,0.9,1.2,1.2,1.9
					c0.3,0.8,0.4,1.6,0.4,2.5c0,1.3-0.3,2.4-0.9,3.4s-1.5,1.7-2.6,2.1l3.8,7.5h-4.6l-3.4-7h-3V273.8z M42.7,263.2
					c0.6,0,1.1-0.2,1.5-0.5c0.4-0.3,0.5-0.8,0.5-1.4v-1.2c0-0.6-0.2-1.1-0.5-1.4c-0.4-0.3-0.8-0.5-1.5-0.5h-4.4v5H42.7z"/>
				<path class="st25" d="M52.6,273.8v-19.2h13.1v3.7h-8.9v3.9h7.6v3.7h-7.6v4.2h8.9v3.7H52.6z"/>
				<path class="st25" d="M81.1,273.8l-1.4-4.6h-6.4l-1.4,4.6h-4.2l6.3-19.2h5.2l6.2,19.2H81.1z M76.6,258.4h-0.1l-2.1,7.3h4.4
					L76.6,258.4z"/>
			</g>
			<g class="st24">
				<path class="st25" d="M88.1,273.8v-19.2h4.2V270h7.3v3.7H88.1z"/>
			</g>
			<g class="st24">
				<path class="st25" d="M108.7,258.3v15.5h-4.2v-15.5h-5.2v-3.7h14.6v3.7H108.7z"/>
			</g>
			<g class="st24">
				<path class="st25" d="M115.9,273.8v-3.3h2.5v-12.5h-2.5v-3.3h9.1v3.3h-2.5v12.5h2.5v3.3H115.9z"/>
				<path class="st25" d="M142.9,261.2L142.9,261.2l-1.5,2.8l-3.7,6.8L134,264l-1.5-3h-0.1v12.8h-3.9v-19.2h4.4l4.7,9h0.1l4.6-9h4.5
					v19.2h-3.9V261.2z"/>
				<path class="st25" d="M151,273.8v-19.2h13.1v3.7h-8.9v3.9h7.6v3.7h-7.6v4.2h8.9v3.7H151z"/>
			</g>
			<g class="st24">
				<path class="st25" d="M180.4,274.1c-1.7,0-3.1-0.3-4.3-0.9c-1.2-0.6-2.2-1.3-3-2.2l2.8-2.8c1.3,1.5,2.9,2.2,4.8,2.2
					c1,0,1.8-0.2,2.3-0.6c0.5-0.4,0.7-1,0.7-1.7c0-0.5-0.1-1-0.4-1.3c-0.3-0.4-0.9-0.6-1.8-0.7l-1.9-0.2c-2-0.3-3.5-0.9-4.5-1.8
					s-1.4-2.3-1.4-3.9c0-0.9,0.2-1.7,0.5-2.4c0.3-0.7,0.8-1.3,1.4-1.8s1.4-0.9,2.3-1.2c0.9-0.3,1.9-0.4,3-0.4c1.4,0,2.7,0.2,3.8,0.7
					s2,1.1,2.8,2l-2.8,2.8c-0.5-0.5-1-1-1.7-1.3s-1.5-0.5-2.5-0.5c-0.9,0-1.6,0.2-2.1,0.5c-0.5,0.3-0.7,0.8-0.7,1.4
					c0,0.7,0.2,1.1,0.5,1.4c0.4,0.3,0.9,0.5,1.7,0.6l1.9,0.3c2,0.3,3.4,0.9,4.4,1.8c1,0.9,1.4,2.2,1.4,3.9c0,0.9-0.2,1.8-0.5,2.5
					c-0.3,0.8-0.8,1.4-1.4,2c-0.6,0.6-1.4,1-2.4,1.3S181.6,274.1,180.4,274.1z"/>
			</g>
			<g class="st24">
				<path class="st25" d="M195,273.8v-7.5l-6.6-11.7h4.7l4.1,7.6h0.1l4-7.6h4.5l-6.6,11.7v7.5H195z"/>
				<path class="st25" d="M214,264.7l-1.8-3.8h-0.1v12.9h-3.9v-19.2h4.6l5.3,9.1l1.8,3.9h0.1v-12.9h3.9v19.2h-4.6L214,264.7z"/>
			</g>
			<g class="st24">
				<path class="st25" d="M236,258.3v15.5h-4.2v-15.5h-5.2v-3.7h14.6v3.7H236z"/>
			</g>
			<g class="st24">
				<path class="st25" d="M254.1,273.8l-1.4-4.6h-6.4l-1.4,4.6h-4.2l6.3-19.2h5.2l6.2,19.2H254.1z M249.6,258.4h-0.1l-2.1,7.3h4.4
					L249.6,258.4z"/>
			</g>
			<g class="st24">
				<path class="st25" d="M277.2,273.8h-4.8l-4.2-7.1h-0.1l-4,7.1h-4.5l6.2-9.9l-5.9-9.3h4.9l3.7,6.5h0.1l3.8-6.5h4.5l-5.9,9.4
					L277.2,273.8z"/>
				<path class="st25" d="M294,274.1c-1.3,0-2.5-0.2-3.5-0.6c-1-0.4-1.9-1-2.7-1.8c-0.7-0.8-1.3-1.8-1.7-3.1
					c-0.4-1.2-0.6-2.6-0.6-4.3c0-1.6,0.2-3,0.6-4.3s1-2.3,1.7-3.2c0.7-0.9,1.6-1.5,2.7-1.9c1-0.4,2.2-0.7,3.5-0.7
					c1.8,0,3.2,0.4,4.4,1.1s2.1,1.9,2.8,3.4l-3.6,1.9c-0.3-0.8-0.7-1.5-1.2-1.9c-0.5-0.5-1.3-0.7-2.4-0.7c-1.2,0-2.2,0.4-3,1.2
					s-1.1,2-1.1,3.5v3.1c0,1.5,0.4,2.7,1.1,3.5c0.7,0.8,1.7,1.2,3,1.2c1,0,1.8-0.3,2.5-0.8c0.6-0.6,1.1-1.2,1.4-2l3.4,2
					c-0.7,1.5-1.7,2.6-2.8,3.4C297.3,273.7,295.8,274.1,294,274.1z"/>
				<path class="st25" d="M315.7,265.9h-7.3v7.9h-4.2v-19.2h4.2v7.6h7.3v-7.6h4.2v19.2h-4.2V265.9z"/>
				<path class="st25" d="M324.1,273.8v-19.2h13.1v3.7h-8.9v3.9h7.6v3.7h-7.6v4.2h8.9v3.7H324.1z"/>
				<path class="st25" d="M348.5,274.1c-1.3,0-2.5-0.2-3.5-0.6c-1-0.4-1.9-1-2.7-1.8c-0.7-0.8-1.3-1.8-1.7-3.1
					c-0.4-1.2-0.6-2.6-0.6-4.3c0-1.6,0.2-3,0.6-4.3c0.4-1.3,1-2.3,1.7-3.2c0.7-0.9,1.6-1.5,2.7-1.9c1-0.4,2.2-0.7,3.5-0.7
					c1.8,0,3.2,0.4,4.4,1.1c1.2,0.7,2.1,1.9,2.8,3.4l-3.6,1.9c-0.3-0.8-0.7-1.5-1.2-1.9c-0.5-0.5-1.3-0.7-2.4-0.7
					c-1.2,0-2.2,0.4-3,1.2c-0.7,0.8-1.1,2-1.1,3.5v3.1c0,1.5,0.4,2.7,1.1,3.5c0.7,0.8,1.7,1.2,3,1.2c1,0,1.8-0.3,2.5-0.8
					c0.6-0.6,1.1-1.2,1.4-2l3.4,2c-0.7,1.5-1.7,2.6-2.8,3.4S350.3,274.1,348.5,274.1z"/>
				<path class="st25" d="M365.4,265.4l-2.5,3v5.3h-4.2v-19.2h4.2v9.1h0.2l2.7-3.7l4.3-5.4h4.7l-6.5,7.9l7,11.3h-4.9L365.4,265.4z"
					/>
			</g>
			<line class="st26" x1="82.7" y1="72" x2="90.4" y2="64.7"/>
			<line class="st26" x1="88.3" y1="64.5" x2="95.6" y2="72.2"/>
			<line class="st26" x1="93.4" y1="72" x2="101.1" y2="64.7"/>
			<line class="st26" x1="98.9" y1="64.5" x2="106.3" y2="72.2"/>
			<line class="st26" x1="104.1" y1="72" x2="111.8" y2="64.7"/>
			<line class="st26" x1="109.6" y1="64.5" x2="117" y2="72.2"/>
			<line class="st26" x1="114.8" y1="72" x2="122.5" y2="64.7"/>
			<line class="st26" x1="120.3" y1="64.5" x2="127.7" y2="72.2"/>
			<line class="st26" x1="125.4" y1="72.1" x2="133.1" y2="64.8"/>
			<line class="st26" x1="130.9" y1="64.6" x2="138.3" y2="72.3"/>
			<line class="st26" x1="136.1" y1="72.1" x2="143.8" y2="64.8"/>
			<line class="st26" x1="141.6" y1="64.6" x2="149" y2="72.3"/>
		</g>
	</g>
</g>
</svg>
