<?xml version="1.0" encoding="utf-8"?>
<!-- Generator: Adobe Illustrator 23.0.4, SVG Export Plug-In . SVG Version: 6.00 Build 0)  -->
<svg version="1.1" id="Layer_1" xmlns="http://www.w3.org/2000/svg" xmlns:xlink="http://www.w3.org/1999/xlink" x="0px" y="0px"
	 viewBox="0 0 767.9 319.7" style="enable-background:new 0 0 767.9 319.7;" xml:space="preserve">
<style type="text/css">
	.st0{fill:none;}
	.st1{enable-background:new    ;}
	.st2{fill:#FFFFFF;}
	.st3{fill:#C9DEFE;}
	.st4{fill:#A6C7FF;}
</style>
<title>Asset 21</title>
<rect class="st0" width="767.9" height="319.7"/>
<g class="st1">
	<path class="st2" d="M56.6,135.4L38.4,79.1h12.4l8.4,27l4.4,17.7h0.2l4.3-17.7l8.4-27h12l-18.3,56.3H56.6z"/>
</g>
<g class="st1">
	<path class="st2" d="M111.8,136.4c-4.9,0-9.1-0.8-12.6-2.5c-3.4-1.7-6.4-3.9-8.8-6.6l8.1-8.2c3.8,4.3,8.5,6.4,14.1,6.4
		c3,0,5.2-0.6,6.7-1.8c1.5-1.2,2.2-2.8,2.2-4.9c0-1.5-0.4-2.8-1.3-3.9c-0.9-1-2.6-1.7-5.2-2.1l-5.6-0.7c-6-0.8-10.3-2.6-13.1-5.4
		c-2.8-2.9-4.2-6.6-4.2-11.4c0-2.5,0.5-4.8,1.5-6.9c1-2.1,2.4-3.9,4.2-5.4c1.8-1.5,4-2.7,6.6-3.5c2.6-0.8,5.6-1.3,8.9-1.3
		c4.2,0,8,0.7,11.2,2s6,3.3,8.3,5.9l-8.1,8.2c-1.3-1.5-3-2.8-4.9-3.8c-1.9-1-4.3-1.5-7.2-1.5c-2.7,0-4.8,0.5-6.1,1.4
		c-1.3,1-2,2.3-2,4c0,1.9,0.5,3.3,1.6,4.2c1,0.9,2.8,1.5,5.1,1.8l5.6,0.9c5.8,0.9,10.1,2.7,12.9,5.4c2.8,2.7,4.2,6.4,4.2,11.3
		c0,2.7-0.5,5.2-1.5,7.4c-1,2.3-2.4,4.2-4.2,5.8c-1.9,1.6-4.2,2.9-6.9,3.8S115.2,136.4,111.8,136.4z"/>
</g>
<g class="st1">
	<path class="st2" d="M185.6,136.4c-3.8,0-7.3-0.6-10.3-1.8s-5.7-3-7.8-5.4c-2.2-2.4-3.8-5.4-5-9c-1.2-3.6-1.8-7.8-1.8-12.5
		c0-4.7,0.6-8.9,1.8-12.6c1.2-3.7,2.8-6.8,5-9.3c2.1-2.5,4.8-4.4,7.8-5.7c3.1-1.3,6.5-1.9,10.3-1.9c5.2,0,9.5,1.1,12.9,3.2
		c3.4,2.1,6.1,5.5,8.1,10l-10.6,5.5c-0.8-2.4-1.9-4.3-3.5-5.7c-1.6-1.4-3.9-2.1-7-2.1c-3.6,0-6.5,1.2-8.7,3.5
		c-2.2,2.3-3.3,5.7-3.3,10.2v9c0,4.5,1.1,7.9,3.3,10.2c2.2,2.3,5.1,3.5,8.7,3.5c3,0,5.4-0.8,7.2-2.5c1.8-1.6,3.1-3.6,4-5.9l10,5.8
		c-2.1,4.3-4.9,7.6-8.3,10C195.1,135.2,190.8,136.4,185.6,136.4z"/>
</g>
<g class="st1">
	<path class="st2" d="M236.9,136.4c-3.7,0-7.1-0.6-10.2-1.9c-3.1-1.2-5.7-3.1-7.8-5.5c-2.2-2.4-3.8-5.5-5-9.1
		c-1.2-3.6-1.8-7.8-1.8-12.6c0-4.8,0.6-9,1.8-12.6c1.2-3.6,2.8-6.7,5-9.1c2.1-2.4,4.8-4.3,7.8-5.5c3.1-1.2,6.5-1.9,10.2-1.9
		s7.1,0.6,10.2,1.9c3.1,1.2,5.7,3.1,7.8,5.5c2.1,2.4,3.8,5.5,5,9.1c1.2,3.6,1.8,7.8,1.8,12.6c0,4.8-0.6,9-1.8,12.6
		c-1.2,3.6-2.9,6.7-5,9.1c-2.2,2.4-4.8,4.3-7.8,5.5C244,135.8,240.6,136.4,236.9,136.4z M236.9,125.5c3.7,0,6.6-1.2,8.7-3.6
		c2.1-2.4,3.1-5.9,3.1-10.4v-8.4c0-4.5-1-8-3.1-10.4c-2.1-2.4-5-3.6-8.7-3.6s-6.6,1.2-8.7,3.6c-2.1,2.4-3.1,5.9-3.1,10.4v8.4
		c0,4.5,1,8,3.1,10.4C230.3,124.3,233.2,125.5,236.9,125.5z"/>
	<path class="st2" d="M271.9,79.1h21.2c3.7,0,7.1,0.6,10.2,1.8c3.1,1.2,5.7,2.9,7.8,5.3c2.1,2.3,3.8,5.3,5,8.8
		c1.2,3.5,1.8,7.6,1.8,12.3c0,4.7-0.6,8.8-1.8,12.3c-1.2,3.5-2.9,6.5-5,8.8c-2.2,2.3-4.8,4.1-7.8,5.3c-3.1,1.2-6.5,1.8-10.2,1.8
		h-21.2V79.1z M293.1,124.5c3.7,0,6.5-1,8.6-3.1c2.1-2,3.1-5.3,3.1-9.8v-8.7c0-4.5-1-7.8-3.1-9.8c-2.1-2-5-3.1-8.6-3.1h-9v34.5
		H293.1z"/>
	<path class="st2" d="M328.1,135.4V79.1h38.3V90h-26v11.5h22.3v10.9h-22.3v12.2h26v10.9H328.1z"/>
</g>
<g class="st1">
	<path class="st3" d="M53,244.1l-1.6-5.1h-7.2l-1.6,5.1h-3.9l6.8-20.2h4.7l6.7,20.2H53z M47.9,227.4h-0.1l-2.6,8.3h5.3L47.9,227.4z"
		/>
</g>
<g class="st1">
	<path class="st3" d="M62.2,244.1l-5-15.1h3.6l2.1,6.5l1.5,5.4h0.2l1.5-5.4l2.1-6.5h3.5l-5.1,15.1H62.2z"/>
</g>
<g class="st1">
	<path class="st3" d="M84.9,244.1c-0.8,0-1.4-0.2-1.9-0.7c-0.5-0.5-0.8-1.1-0.9-1.9h-0.2c-0.3,1-0.8,1.7-1.5,2.2s-1.7,0.7-2.9,0.7
		c-1.5,0-2.7-0.4-3.6-1.2c-0.8-0.8-1.2-1.9-1.2-3.2c0-1.6,0.6-2.7,1.7-3.5c1.1-0.8,2.7-1.1,4.8-1.1h2.6v-1.1c0-0.8-0.2-1.5-0.7-2
		c-0.4-0.5-1.2-0.7-2.1-0.7c-0.9,0-1.6,0.2-2.1,0.6c-0.5,0.4-1,0.8-1.3,1.3l-2.2-2c0.6-0.9,1.3-1.6,2.2-2.1c0.9-0.5,2.1-0.8,3.7-0.8
		c2,0,3.6,0.5,4.6,1.4c1.1,0.9,1.6,2.2,1.6,4v7.1h1.5v3H84.9z M78.8,241.7c0.8,0,1.5-0.2,2.1-0.5s0.9-0.9,0.9-1.6v-2h-2.4
		c-1.9,0-2.9,0.6-2.9,1.8v0.5c0,0.6,0.2,1.1,0.6,1.4C77.5,241.6,78,241.7,78.8,241.7z"/>
	<path class="st3" d="M91.8,226.8c-0.8,0-1.3-0.2-1.7-0.5s-0.5-0.8-0.5-1.3v-0.6c0-0.5,0.2-1,0.5-1.3s0.9-0.5,1.7-0.5
		c0.8,0,1.3,0.2,1.6,0.5c0.3,0.3,0.5,0.8,0.5,1.3v0.6c0,0.5-0.2,1-0.5,1.3C93.1,226.6,92.5,226.8,91.8,226.8z M89.9,229h3.7v15.1
		h-3.7V229z"/>
	<path class="st3" d="M101.6,244.1c-1.3,0-2.2-0.3-2.8-1s-0.9-1.5-0.9-2.7v-17.7h3.7v18.4h2v3H101.6z"/>
	<path class="st3" d="M117.5,244.1c-0.8,0-1.4-0.2-1.9-0.7c-0.5-0.5-0.8-1.1-0.9-1.9h-0.2c-0.3,1-0.8,1.7-1.5,2.2s-1.7,0.7-2.9,0.7
		c-1.5,0-2.7-0.4-3.6-1.2c-0.8-0.8-1.2-1.9-1.2-3.2c0-1.6,0.6-2.7,1.7-3.5c1.1-0.8,2.7-1.1,4.8-1.1h2.6v-1.1c0-0.8-0.2-1.5-0.7-2
		c-0.4-0.5-1.2-0.7-2.1-0.7c-0.9,0-1.6,0.2-2.1,0.6c-0.5,0.4-1,0.8-1.3,1.3l-2.2-2c0.6-0.9,1.3-1.6,2.2-2.1c0.9-0.5,2.1-0.8,3.7-0.8
		c2,0,3.6,0.5,4.6,1.4c1.1,0.9,1.6,2.2,1.6,4v7.1h1.5v3H117.5z M111.4,241.7c0.8,0,1.5-0.2,2.1-0.5s0.9-0.9,0.9-1.6v-2H112
		c-1.9,0-2.9,0.6-2.9,1.8v0.5c0,0.6,0.2,1.1,0.6,1.4C110.1,241.6,110.6,241.7,111.4,241.7z"/>
	<path class="st3" d="M122.5,222.7h3.7v8.8h0.1c0.3-0.9,0.8-1.6,1.5-2.1c0.8-0.5,1.6-0.8,2.6-0.8c1.9,0,3.4,0.7,4.4,2
		s1.5,3.3,1.5,5.8c0,2.5-0.5,4.5-1.5,5.9c-1,1.4-2.5,2.1-4.4,2.1c-1,0-1.9-0.3-2.6-0.8c-0.7-0.5-1.3-1.2-1.5-2.1h-0.1v2.5h-3.7
		V222.7z M129.3,241.4c1,0,1.7-0.3,2.3-1c0.6-0.6,0.9-1.5,0.9-2.6v-2.6c0-1.1-0.3-1.9-0.9-2.6c-0.6-0.6-1.4-1-2.3-1
		c-0.9,0-1.6,0.2-2.2,0.7c-0.6,0.4-0.9,1-0.9,1.8v4.8c0,0.8,0.3,1.4,0.9,1.8C127.7,241.2,128.4,241.4,129.3,241.4z"/>
	<path class="st3" d="M143.6,244.1c-1.3,0-2.2-0.3-2.8-1s-0.9-1.5-0.9-2.7v-17.7h3.7v18.4h2v3H143.6z"/>
	<path class="st3" d="M154.4,244.4c-1.1,0-2.1-0.2-3-0.6c-0.9-0.4-1.6-0.9-2.2-1.6s-1.1-1.5-1.4-2.5c-0.3-1-0.5-2.1-0.5-3.3
		c0-1.2,0.2-2.3,0.5-3.2c0.3-1,0.8-1.8,1.4-2.5c0.6-0.7,1.3-1.2,2.2-1.6c0.9-0.4,1.8-0.6,2.9-0.6c1.2,0,2.2,0.2,3.1,0.6
		c0.9,0.4,1.6,1,2.1,1.6c0.6,0.7,1,1.5,1.3,2.4c0.3,0.9,0.4,1.9,0.4,2.9v1.2h-10v0.4c0,1.1,0.3,2,0.9,2.6c0.6,0.7,1.5,1,2.7,1
		c0.9,0,1.7-0.2,2.3-0.6c0.6-0.4,1.1-0.9,1.6-1.5l2,2.2c-0.6,0.9-1.5,1.5-2.5,2S155.9,244.4,154.4,244.4z M154.4,231.4
		c-1,0-1.8,0.3-2.3,1c-0.6,0.7-0.9,1.5-0.9,2.5v0.2h6.2v-0.3c0-1-0.3-1.9-0.8-2.5C156.1,231.8,155.4,231.4,154.4,231.4z"/>
	<path class="st3" d="M173.1,226.8c-0.8,0-1.3-0.2-1.7-0.5s-0.5-0.8-0.5-1.3v-0.6c0-0.5,0.2-1,0.5-1.3s0.9-0.5,1.7-0.5
		c0.8,0,1.3,0.2,1.6,0.5c0.3,0.3,0.5,0.8,0.5,1.3v0.6c0,0.5-0.2,1-0.5,1.3C174.4,226.6,173.9,226.8,173.1,226.8z M171.3,229h3.7
		v15.1h-3.7V229z"/>
	<path class="st3" d="M179.3,244.1V229h3.7v2.5h0.1c0.3-0.8,0.8-1.5,1.5-2c0.7-0.5,1.6-0.8,2.8-0.8c1.6,0,2.8,0.5,3.6,1.5
		c0.8,1,1.2,2.5,1.2,4.4v9.5h-3.7v-9.2c0-1.1-0.2-1.9-0.6-2.4s-1-0.8-1.9-0.8c-0.4,0-0.8,0.1-1.1,0.2c-0.4,0.1-0.7,0.3-1,0.5
		c-0.3,0.2-0.5,0.5-0.7,0.8s-0.3,0.6-0.3,1.1v10H179.3z"/>
	<path class="st3" d="M218.5,229.6h-0.1l-1.6,3.2l-4.1,7.6l-4.1-7.6l-1.6-3.2h-0.1v14.5h-3.6v-20.2h4.3l5.2,9.8h0.1l5.1-9.8h4.1
		v20.2h-3.6V229.6z"/>
	<path class="st3" d="M237.7,244.1c-0.8,0-1.4-0.2-1.9-0.7c-0.5-0.5-0.8-1.1-0.9-1.9h-0.2c-0.3,1-0.8,1.7-1.5,2.2s-1.7,0.7-2.9,0.7
		c-1.5,0-2.7-0.4-3.6-1.2c-0.8-0.8-1.2-1.9-1.2-3.2c0-1.6,0.6-2.7,1.7-3.5c1.1-0.8,2.7-1.1,4.8-1.1h2.6v-1.1c0-0.8-0.2-1.5-0.7-2
		c-0.4-0.5-1.2-0.7-2.1-0.7c-0.9,0-1.6,0.2-2.1,0.6c-0.5,0.4-1,0.8-1.3,1.3l-2.2-2c0.6-0.9,1.3-1.6,2.2-2.1c0.9-0.5,2.1-0.8,3.7-0.8
		c2,0,3.6,0.5,4.6,1.4c1.1,0.9,1.6,2.2,1.6,4v7.1h1.5v3H237.7z M231.6,241.7c0.8,0,1.5-0.2,2.1-0.5s0.9-0.9,0.9-1.6v-2h-2.4
		c-1.9,0-2.9,0.6-2.9,1.8v0.5c0,0.6,0.2,1.1,0.6,1.4C230.3,241.6,230.9,241.7,231.6,241.7z"/>
	<path class="st3" d="M242.8,244.1V229h3.7v3.1h0.1c0.1-0.4,0.2-0.8,0.4-1.2s0.5-0.7,0.8-1c0.3-0.3,0.7-0.5,1.2-0.7
		c0.5-0.2,1-0.3,1.6-0.3h0.8v3.5h-1.2c-1.3,0-2.2,0.2-2.8,0.5c-0.6,0.4-1,1-1,1.8v9.2H242.8z"/>
</g>
<g class="st1">
	<path class="st3" d="M254.1,222.7h3.7v12.9h0.1l2-2.7l3.4-3.9h4.2l-5.2,5.8l5.7,9.2h-4.4l-3.9-6.8l-2,2.2v4.6h-3.7V222.7z"/>
</g>
<g class="st1">
	<path class="st3" d="M275.7,244.4c-1.1,0-2.1-0.2-3-0.6c-0.9-0.4-1.6-0.9-2.2-1.6s-1.1-1.5-1.4-2.5c-0.3-1-0.5-2.1-0.5-3.3
		c0-1.2,0.2-2.3,0.5-3.2s0.8-1.8,1.4-2.5c0.6-0.7,1.3-1.2,2.2-1.6c0.9-0.4,1.8-0.6,2.9-0.6c1.2,0,2.2,0.2,3.1,0.6
		c0.9,0.4,1.6,1,2.1,1.6c0.6,0.7,1,1.5,1.3,2.4c0.3,0.9,0.4,1.9,0.4,2.9v1.2h-10v0.4c0,1.1,0.3,2,0.9,2.6c0.6,0.7,1.5,1,2.7,1
		c0.9,0,1.7-0.2,2.3-0.6c0.6-0.4,1.1-0.9,1.6-1.5l2,2.2c-0.6,0.9-1.5,1.5-2.5,2S277.1,244.4,275.7,244.4z M275.7,231.4
		c-1,0-1.8,0.3-2.3,1c-0.6,0.7-0.9,1.5-0.9,2.5v0.2h6.2v-0.3c0-1-0.3-1.9-0.8-2.5C277.4,231.8,276.6,231.4,275.7,231.4z"/>
	<path class="st3" d="M290.5,244.1c-1.3,0-2.2-0.3-2.9-1c-0.7-0.7-1-1.6-1-2.8V232h-2.2v-3h1.2c0.6,0,0.9-0.1,1.1-0.4
		c0.2-0.3,0.3-0.7,0.3-1.2v-2.6h3.3v4.1h3.1v3h-3.1v9.1h2.9v3H290.5z"/>
	<path class="st3" d="M296.5,229h3.7v2.5h0.1c0.3-0.9,0.8-1.6,1.5-2.1c0.8-0.5,1.6-0.8,2.6-0.8c1.9,0,3.4,0.7,4.4,2s1.5,3.3,1.5,5.8
		c0,2.5-0.5,4.5-1.5,5.9c-1,1.4-2.5,2.1-4.4,2.1c-1,0-1.9-0.3-2.6-0.8c-0.7-0.5-1.3-1.2-1.5-2.1h-0.1v8.3h-3.7V229z M303.3,241.4
		c1,0,1.7-0.3,2.3-1c0.6-0.6,0.9-1.5,0.9-2.6v-2.6c0-1.1-0.3-1.9-0.9-2.6c-0.6-0.6-1.4-1-2.3-1c-0.9,0-1.6,0.2-2.2,0.7
		c-0.6,0.4-0.9,1-0.9,1.8v4.8c0,0.8,0.3,1.4,0.9,1.8C301.7,241.2,302.4,241.4,303.3,241.4z"/>
	<path class="st3" d="M317.6,244.1c-1.3,0-2.2-0.3-2.8-1s-0.9-1.5-0.9-2.7v-17.7h3.7v18.4h2v3H317.6z"/>
	<path class="st3" d="M333.5,244.1c-0.8,0-1.4-0.2-1.9-0.7c-0.5-0.5-0.8-1.1-0.9-1.9h-0.2c-0.3,1-0.8,1.7-1.5,2.2
		c-0.8,0.5-1.7,0.7-2.9,0.7c-1.5,0-2.7-0.4-3.6-1.2s-1.2-1.9-1.2-3.2c0-1.6,0.6-2.7,1.7-3.5c1.1-0.8,2.7-1.1,4.8-1.1h2.6v-1.1
		c0-0.8-0.2-1.5-0.7-2c-0.4-0.5-1.2-0.7-2.1-0.7c-0.9,0-1.6,0.2-2.1,0.6c-0.5,0.4-1,0.8-1.3,1.3l-2.2-2c0.6-0.9,1.3-1.6,2.2-2.1
		c0.9-0.5,2.1-0.8,3.7-0.8c2,0,3.6,0.5,4.6,1.4c1.1,0.9,1.6,2.2,1.6,4v7.1h1.5v3H333.5z M327.3,241.7c0.8,0,1.5-0.2,2.1-0.5
		c0.6-0.4,0.9-0.9,0.9-1.6v-2h-2.4c-1.9,0-2.9,0.6-2.9,1.8v0.5c0,0.6,0.2,1.1,0.6,1.4C326,241.6,326.6,241.7,327.3,241.7z"/>
</g>
<g class="st1">
	<path class="st3" d="M344.4,244.4c-1.1,0-2.1-0.2-3-0.5c-0.9-0.4-1.6-0.9-2.2-1.6c-0.6-0.7-1-1.5-1.3-2.5c-0.3-1-0.5-2.1-0.5-3.3
		s0.2-2.3,0.5-3.3c0.3-1,0.8-1.8,1.3-2.5s1.3-1.2,2.2-1.6c0.9-0.4,1.9-0.5,3-0.5c1.5,0,2.8,0.3,3.8,1c1,0.7,1.7,1.6,2.2,2.8l-3,1.4
		c-0.2-0.6-0.5-1.2-1-1.6s-1.1-0.6-1.9-0.6c-1,0-1.8,0.3-2.3,1c-0.5,0.7-0.8,1.5-0.8,2.6v2.7c0,1.1,0.3,1.9,0.8,2.6
		c0.5,0.6,1.3,1,2.3,1c0.9,0,1.6-0.2,2.1-0.7c0.5-0.5,0.9-1,1.1-1.7l2.8,1.4c-0.5,1.3-1.3,2.3-2.3,3
		C347.2,244.1,345.9,244.4,344.4,244.4z"/>
</g>
<g class="st1">
	<path class="st3" d="M359.3,244.4c-1.1,0-2.1-0.2-3-0.6c-0.9-0.4-1.6-0.9-2.2-1.6s-1.1-1.5-1.4-2.5c-0.3-1-0.5-2.1-0.5-3.3
		c0-1.2,0.2-2.3,0.5-3.2s0.8-1.8,1.4-2.5c0.6-0.7,1.3-1.2,2.2-1.6c0.9-0.4,1.8-0.6,2.9-0.6c1.2,0,2.2,0.2,3.1,0.6
		c0.9,0.4,1.6,1,2.1,1.6c0.6,0.7,1,1.5,1.3,2.4c0.3,0.9,0.4,1.9,0.4,2.9v1.2h-10v0.4c0,1.1,0.3,2,0.9,2.6c0.6,0.7,1.5,1,2.7,1
		c0.9,0,1.7-0.2,2.3-0.6c0.6-0.4,1.1-0.9,1.6-1.5l2,2.2c-0.6,0.9-1.5,1.5-2.5,2S360.7,244.4,359.3,244.4z M359.2,231.4
		c-1,0-1.8,0.3-2.3,1c-0.6,0.7-0.9,1.5-0.9,2.5v0.2h6.2v-0.3c0-1-0.3-1.9-0.8-2.5C360.9,231.8,360.2,231.4,359.2,231.4z"/>
</g>
<g class="st1">
	<path class="st3" d="M40.2,196.1v-41.3h28.1v8H49.2v8.4h16.4v8H49.2v8.9h19.1v8H40.2z"/>
	<path class="st3" d="M110.4,196.1H100l-8.9-15.2h-0.2l-8.7,15.2h-9.7l13.3-21.4l-12.6-19.9h10.5l8,14h0.2l8.2-14h9.7L97,174.9
		L110.4,196.1z"/>
	<path class="st3" d="M133.1,162.8v33.3h-9v-33.3H113v-8h31.4v8H133.1z"/>
	<path class="st3" d="M150.5,196.1v-41.3h28.1v8h-19.1v8.4h16.4v8h-16.4v8.9h19.1v8H150.5z"/>
	<path class="st3" d="M199,176.6l-4-8.3h-0.2v27.8h-8.5v-41.3h9.8l11.3,19.5l4,8.3h0.2v-27.8h8.5v41.3h-9.8L199,176.6z"/>
	<path class="st3" d="M242.6,196.8c-3.6,0-6.7-0.6-9.2-1.9c-2.5-1.2-4.7-2.9-6.4-4.8l5.9-6c2.8,3.1,6.3,4.7,10.4,4.7
		c2.2,0,3.8-0.4,4.9-1.3c1.1-0.9,1.6-2.1,1.6-3.6c0-1.1-0.3-2.1-0.9-2.8c-0.6-0.8-1.9-1.3-3.8-1.6l-4.1-0.5c-4.4-0.6-7.6-1.9-9.6-4
		c-2-2.1-3-4.9-3-8.4c0-1.9,0.4-3.6,1.1-5.1s1.7-2.9,3-4c1.3-1.1,2.9-2,4.9-2.6c1.9-0.6,4.1-0.9,6.5-0.9c3.1,0,5.9,0.5,8.2,1.5
		s4.4,2.4,6.1,4.3l-6,6c-1-1.1-2.2-2.1-3.6-2.8c-1.4-0.7-3.2-1.1-5.3-1.1c-2,0-3.5,0.4-4.5,1.1c-1,0.7-1.5,1.7-1.5,2.9
		c0,1.4,0.4,2.4,1.2,3s2,1.1,3.8,1.3l4.1,0.7c4.3,0.7,7.4,2,9.5,3.9c2.1,2,3.1,4.7,3.1,8.3c0,2-0.4,3.8-1.1,5.4
		c-0.7,1.7-1.7,3.1-3.1,4.3c-1.4,1.2-3,2.1-5.1,2.8C247.5,196.5,245.2,196.8,242.6,196.8z"/>
	<path class="st3" d="M264.6,196.1V189h5.3v-27h-5.3v-7.2h19.6v7.2h-5.3v27h5.3v7.2H264.6z"/>
	<path class="st3" d="M308.3,196.8c-2.7,0-5.2-0.5-7.5-1.4c-2.2-0.9-4.2-2.3-5.7-4.1c-1.6-1.8-2.8-4-3.7-6.7
		c-0.9-2.7-1.3-5.7-1.3-9.3c0-3.5,0.4-6.6,1.3-9.3c0.9-2.7,2.1-4.9,3.7-6.7c1.6-1.8,3.5-3.1,5.7-4.1c2.2-0.9,4.7-1.4,7.5-1.4
		c2.7,0,5.2,0.5,7.5,1.4s4.2,2.3,5.7,4.1c1.6,1.8,2.8,4,3.7,6.7c0.9,2.7,1.3,5.7,1.3,9.3c0,3.5-0.4,6.6-1.3,9.3
		c-0.9,2.7-2.1,4.9-3.7,6.7c-1.6,1.8-3.5,3.1-5.7,4.1C313.5,196.4,311,196.8,308.3,196.8z M308.3,188.9c2.7,0,4.8-0.9,6.4-2.7
		c1.5-1.8,2.3-4.3,2.3-7.6v-6.2c0-3.3-0.8-5.9-2.3-7.6c-1.5-1.8-3.6-2.7-6.4-2.7c-2.7,0-4.8,0.9-6.4,2.7c-1.5,1.8-2.3,4.3-2.3,7.6
		v6.2c0,3.3,0.8,5.9,2.3,7.6C303.4,188,305.6,188.9,308.3,188.9z"/>
	<path class="st3" d="M346.6,176.6l-4-8.3h-0.2v27.8H334v-41.3h9.8l11.3,19.5l4,8.3h0.2v-27.8h8.5v41.3h-9.8L346.6,176.6z"/>
</g>
<path class="st4" d="M458,123.6c0,0-5.4-4,1.1-9.3l15.2-13.8c2.4-2.7,6.5-3,9.2-0.7c0,0,0.1,0.1,0.1,0.1L624,207.5v51.6
	c0,0,0,8.1-10.3,7.2L458,123.6z"/>
<path class="st4" d="M494.3,156.8L458,190.2c0,0-3.7,2.8,0,7.7l16.9,15.5c2.7,2.6,7,2.5,9.6-0.3c0.1-0.1,0.2-0.2,0.3-0.3l38.4-29.5
	L494.3,156.8z"/>
<path class="st4" d="M557.9,157.1l66.5-51.3V54.5c0,0-2.9-11.3-12.3-5.4l-88.8,81.4L557.9,157.1z"/>
<path class="st4" d="M613.6,266.4c2.2,2.2,5.4,3.2,8.5,2.6l51.8-26.1c3.7-2.1,5.9-6,5.7-10.3V78.9c-0.2-4.2-2.9-7.9-6.9-9.3
	l-44.8-21.9c-4.9-3.8-11.9-3.3-16.2,1.1c0,0,8.2-6.1,12.3,5.4v204c0,1.4-0.3,2.8-0.9,4c-1.1,2.3-3.7,4.7-9.9,3.6L613.6,266.4z"/>
</svg>
